<?xml version="1.0" encoding="utf-8" standalone="no"?>
<!DOCTYPE svg PUBLIC "-//W3C//DTD SVG 1.1//EN"
  "http://www.w3.org/Graphics/SVG/1.1/DTD/svg11.dtd">
<svg xmlns:xlink="http://www.w3.org/1999/xlink" width="1000.8pt" height="784.47475pt" viewBox="0 0 1000.8 784.47475" xmlns="http://www.w3.org/2000/svg" version="1.1">
 <metadata>
  <rdf:RDF xmlns:dc="http://purl.org/dc/elements/1.1/" xmlns:cc="http://creativecommons.org/ns#" xmlns:rdf="http://www.w3.org/1999/02/22-rdf-syntax-ns#">
   <cc:Work>
    <dc:type rdf:resource="http://purl.org/dc/dcmitype/StillImage"/>
    <dc:date>2026-02-24T21:13:56.382835</dc:date>
    <dc:format>image/svg+xml</dc:format>
    <dc:creator>
     <cc:Agent>
      <dc:title>Matplotlib v3.10.5, https://matplotlib.org/</dc:title>
     </cc:Agent>
    </dc:creator>
   </cc:Work>
  </rdf:RDF>
 </metadata>
 <defs>
  <style type="text/css">*{stroke-linejoin: round; stroke-linecap: butt}</style>
 </defs>
 <g id="figure_1">
  <g id="patch_1">
   <path d="M 0 784.47475 
L 1000.8 784.47475 
L 1000.8 0 
L 0 0 
z
" style="fill: #ffffff"/>
  </g>
  <g id="axes_1">
   <g id="line2d_1">
    <path d="M 443.787703 183.115626 
L 873.722032 253.473868 
" clip-path="url(#p7444121f15)" style="fill: none; stroke: #808080; stroke-opacity: 0.5994; stroke-width: 1.4985; stroke-linecap: square"/>
   </g>
   <g id="line2d_2">
    <path d="M 443.787703 183.115626 
L 213.732435 671.026894 
" clip-path="url(#p7444121f15)" style="fill: none; stroke: #808080; stroke-opacity: 0.5994; stroke-width: 1.4985; stroke-linecap: square"/>
   </g>
   <g id="line2d_3">
    <path d="M 443.787703 183.115626 
L 101.031115 229.242026 
" clip-path="url(#p7444121f15)" style="fill: none; stroke: #808080; stroke-opacity: 0.5994; stroke-width: 1.4985; stroke-linecap: square"/>
   </g>
   <g id="line2d_4">
    <path d="M 443.787703 183.115626 
L 608.343248 104.726518 
" clip-path="url(#p7444121f15)" style="fill: none; stroke: #808080; stroke-opacity: 0.5994; stroke-width: 1.4985; stroke-linecap: square"/>
   </g>
   <g id="line2d_5">
    <path d="M 443.787703 183.115626 
L 181.895661 136.718228 
" clip-path="url(#p7444121f15)" style="fill: none; stroke: #808080; stroke-opacity: 0.5994; stroke-width: 1.4985; stroke-linecap: square"/>
   </g>
   <g id="line2d_6">
    <path d="M 443.787703 183.115626 
L 880.747816 594.644835 
" clip-path="url(#p7444121f15)" style="fill: none; stroke: #808080; stroke-opacity: 0.5994; stroke-width: 1.4985; stroke-linecap: square"/>
   </g>
   <g id="line2d_7">
    <path d="M 443.787703 183.115626 
L 118.448164 579.068786 
" clip-path="url(#p7444121f15)" style="fill: none; stroke: #808080; stroke-opacity: 0.5982; stroke-width: 1.4955; stroke-linecap: square"/>
   </g>
   <g id="line2d_8">
    <path d="M 443.787703 183.115626 
L 212.662004 227.756805 
" clip-path="url(#p7444121f15)" style="fill: none; stroke: #808080; stroke-opacity: 0.5982; stroke-width: 1.4955; stroke-linecap: square"/>
   </g>
   <g id="line2d_9">
    <path d="M 443.787703 183.115626 
L 626.131168 697.69699 
" clip-path="url(#p7444121f15)" style="fill: none; stroke: #808080; stroke-opacity: 0.5976; stroke-width: 1.494; stroke-linecap: square"/>
   </g>
   <g id="line2d_10">
    <path d="M 443.787703 183.115626 
L 504.415228 570.10827 
" clip-path="url(#p7444121f15)" style="fill: none; stroke: #808080; stroke-opacity: 0.597; stroke-width: 1.4925; stroke-linecap: square"/>
   </g>
   <g id="line2d_11">
    <path d="M 213.732435 671.026894 
L 504.415228 570.10827 
" clip-path="url(#p7444121f15)" style="fill: none; stroke: #808080; stroke-opacity: 0.5994; stroke-width: 1.4985; stroke-linecap: square"/>
   </g>
   <g id="line2d_12">
    <path d="M 101.031115 229.242026 
L 504.415228 570.10827 
" clip-path="url(#p7444121f15)" style="fill: none; stroke: #808080; stroke-opacity: 0.594; stroke-width: 1.485; stroke-linecap: square"/>
   </g>
   <g id="line2d_13">
    <path d="M 608.343248 104.726518 
L 504.415228 570.10827 
" clip-path="url(#p7444121f15)" style="fill: none; stroke: #808080; stroke-opacity: 0.585; stroke-width: 1.4625; stroke-linecap: square"/>
   </g>
   <g id="line2d_14">
    <path d="M 181.895661 136.718228 
L 504.415228 570.10827 
" clip-path="url(#p7444121f15)" style="fill: none; stroke: #808080; stroke-opacity: 0.5994; stroke-width: 1.4985; stroke-linecap: square"/>
   </g>
   <g id="line2d_15">
    <path d="M 504.415228 570.10827 
L 109.442093 509.188041 
" clip-path="url(#p7444121f15)" style="fill: none; stroke: #808080; stroke-opacity: 0.5892; stroke-width: 1.473; stroke-linecap: square"/>
   </g>
   <g id="line2d_16">
    <path d="M 504.415228 570.10827 
L 491.955502 88.958045 
" clip-path="url(#p7444121f15)" style="fill: none; stroke: #808080; stroke-opacity: 0.5802; stroke-width: 1.4505; stroke-linecap: square"/>
   </g>
   <g id="line2d_17">
    <path d="M 504.415228 570.10827 
L 76.887963 404.902418 
" clip-path="url(#p7444121f15)" style="fill: none; stroke: #808080; stroke-opacity: 0.5748; stroke-width: 1.437; stroke-linecap: square"/>
   </g>
   <g id="line2d_18">
    <path d="M 504.415228 570.10827 
L 575.549905 743.740205 
" clip-path="url(#p7444121f15)" style="fill: none; stroke: #808080; stroke-opacity: 0.5712; stroke-width: 1.428; stroke-linecap: square"/>
   </g>
   <g id="line2d_19">
    <path d="M 504.415228 570.10827 
L 690.675695 701.236193 
" clip-path="url(#p7444121f15)" style="fill: none; stroke: #808080; stroke-opacity: 0.5676; stroke-width: 1.419; stroke-linecap: square"/>
   </g>
   <g id="line2d_20">
    <path d="M 328.734328 137.181153 
L 907.148091 225.510753 
" clip-path="url(#p7444121f15)" style="fill: none; stroke: #808080; stroke-opacity: 0.5988; stroke-width: 1.497; stroke-linecap: square"/>
   </g>
   <g id="line2d_21">
    <path d="M 328.734328 137.181153 
L 364.159624 728.275462 
" clip-path="url(#p7444121f15)" style="fill: none; stroke: #808080; stroke-opacity: 0.594; stroke-width: 1.485; stroke-linecap: square"/>
   </g>
   <g id="line2d_22">
    <path d="M 328.734328 137.181153 
L 595.476261 512.436997 
" clip-path="url(#p7444121f15)" style="fill: none; stroke: #808080; stroke-opacity: 0.5898; stroke-width: 1.4745; stroke-linecap: square"/>
   </g>
   <g id="line2d_23">
    <path d="M 328.734328 137.181153 
L 109.088776 432.32115 
" clip-path="url(#p7444121f15)" style="fill: none; stroke: #808080; stroke-opacity: 0.5826; stroke-width: 1.4565; stroke-linecap: square"/>
   </g>
   <g id="line2d_24">
    <path d="M 328.734328 137.181153 
L 128.135479 188.269529 
" clip-path="url(#p7444121f15)" style="fill: none; stroke: #808080; stroke-opacity: 0.5712; stroke-width: 1.428; stroke-linecap: square"/>
   </g>
   <g id="line2d_25">
    <path d="M 328.734328 137.181153 
L 241.190942 160.710673 
" clip-path="url(#p7444121f15)" style="fill: none; stroke: #808080; stroke-opacity: 0.5652; stroke-width: 1.413; stroke-linecap: square"/>
   </g>
   <g id="line2d_26">
    <path d="M 328.734328 137.181153 
L 545.146636 148.047232 
" clip-path="url(#p7444121f15)" style="fill: none; stroke: #808080; stroke-opacity: 0.564; stroke-width: 1.41; stroke-linecap: square"/>
   </g>
   <g id="line2d_27">
    <path d="M 328.734328 137.181153 
L 429.692478 521.225521 
" clip-path="url(#p7444121f15)" style="fill: none; stroke: #808080; stroke-opacity: 0.5634; stroke-width: 1.4085; stroke-linecap: square"/>
   </g>
   <g id="line2d_28">
    <path d="M 328.734328 137.181153 
L 938.703948 281.647307 
" clip-path="url(#p7444121f15)" style="fill: none; stroke: #808080; stroke-opacity: 0.5574; stroke-width: 1.3935; stroke-linecap: square"/>
   </g>
   <g id="line2d_29">
    <path d="M 328.734328 137.181153 
L 803.344999 132.663207 
" clip-path="url(#p7444121f15)" style="fill: none; stroke: #808080; stroke-opacity: 0.5466; stroke-width: 1.3665; stroke-linecap: square"/>
   </g>
   <g id="line2d_30">
    <path d="M 595.476261 512.436997 
L 429.692478 521.225521 
" clip-path="url(#p7444121f15)" style="fill: none; stroke: #808080; stroke-opacity: 0.5778; stroke-width: 1.4445; stroke-linecap: square"/>
   </g>
   <g id="line2d_31">
    <path d="M 595.476261 512.436997 
L 109.088776 432.32115 
" clip-path="url(#p7444121f15)" style="fill: none; stroke: #808080; stroke-opacity: 0.5994; stroke-width: 1.4985; stroke-linecap: square"/>
   </g>
   <g id="line2d_32">
    <path d="M 595.476261 512.436997 
L 500.639896 435.496689 
" clip-path="url(#p7444121f15)" style="fill: none; stroke: #808080; stroke-opacity: 0.5964; stroke-width: 1.491; stroke-linecap: square"/>
   </g>
   <g id="line2d_33">
    <path d="M 109.088776 432.32115 
L 429.692478 521.225521 
" clip-path="url(#p7444121f15)" style="fill: none; stroke: #808080; stroke-opacity: 0.5994; stroke-width: 1.4985; stroke-linecap: square"/>
   </g>
   <g id="line2d_34">
    <path d="M 109.088776 432.32115 
L 941.445423 467.421288 
" clip-path="url(#p7444121f15)" style="fill: none; stroke: #808080; stroke-opacity: 0.5994; stroke-width: 1.4985; stroke-linecap: square"/>
   </g>
   <g id="line2d_35">
    <path d="M 109.088776 432.32115 
L 500.639896 435.496689 
" clip-path="url(#p7444121f15)" style="fill: none; stroke: #808080; stroke-opacity: 0.5994; stroke-width: 1.4985; stroke-linecap: square"/>
   </g>
   <g id="line2d_36">
    <path d="M 109.088776 432.32115 
L 95.924298 272.483161 
" clip-path="url(#p7444121f15)" style="fill: none; stroke: #808080; stroke-opacity: 0.5922; stroke-width: 1.4805; stroke-linecap: square"/>
   </g>
   <g id="line2d_37">
    <path d="M 109.088776 432.32115 
L 545.865296 73.438891 
" clip-path="url(#p7444121f15)" style="fill: none; stroke: #808080; stroke-opacity: 0.5838; stroke-width: 1.4595; stroke-linecap: square"/>
   </g>
   <g id="line2d_38">
    <path d="M 109.088776 432.32115 
L 85.127932 546.615205 
" clip-path="url(#p7444121f15)" style="fill: none; stroke: #808080; stroke-opacity: 0.5826; stroke-width: 1.4565; stroke-linecap: square"/>
   </g>
   <g id="line2d_39">
    <path d="M 109.088776 432.32115 
L 128.135479 188.269529 
" clip-path="url(#p7444121f15)" style="fill: none; stroke: #808080; stroke-opacity: 0.573; stroke-width: 1.4325; stroke-linecap: square"/>
   </g>
   <g id="line2d_40">
    <path d="M 109.088776 432.32115 
L 105.121841 341.207982 
" clip-path="url(#p7444121f15)" style="fill: none; stroke: #808080; stroke-opacity: 0.5718; stroke-width: 1.4295; stroke-linecap: square"/>
   </g>
   <g id="line2d_41">
    <path d="M 128.135479 188.269529 
L 429.692478 521.225521 
" clip-path="url(#p7444121f15)" style="fill: none; stroke: #808080; stroke-opacity: 0.5886; stroke-width: 1.4715; stroke-linecap: square"/>
   </g>
   <g id="line2d_42">
    <path d="M 128.135479 188.269529 
L 500.639896 435.496689 
" clip-path="url(#p7444121f15)" style="fill: none; stroke: #808080; stroke-opacity: 0.5646; stroke-width: 1.4115; stroke-linecap: square"/>
   </g>
   <g id="line2d_43">
    <path d="M 545.146636 148.047232 
L 429.692478 521.225521 
" clip-path="url(#p7444121f15)" style="fill: none; stroke: #808080; stroke-opacity: 0.597; stroke-width: 1.4925; stroke-linecap: square"/>
   </g>
   <g id="line2d_44">
    <path d="M 429.692478 521.225521 
L 545.865296 73.438891 
" clip-path="url(#p7444121f15)" style="fill: none; stroke: #808080; stroke-opacity: 0.5994; stroke-width: 1.4985; stroke-linecap: square"/>
   </g>
   <g id="line2d_45">
    <path d="M 429.692478 521.225521 
L 85.127932 546.615205 
" clip-path="url(#p7444121f15)" style="fill: none; stroke: #808080; stroke-opacity: 0.5994; stroke-width: 1.4985; stroke-linecap: square"/>
   </g>
   <g id="line2d_46">
    <path d="M 429.692478 521.225521 
L 60.442652 486.718118 
" clip-path="url(#p7444121f15)" style="fill: none; stroke: #808080; stroke-opacity: 0.5982; stroke-width: 1.4955; stroke-linecap: square"/>
   </g>
   <g id="line2d_47">
    <path d="M 429.692478 521.225521 
L 500.639896 435.496689 
" clip-path="url(#p7444121f15)" style="fill: none; stroke: #808080; stroke-opacity: 0.5976; stroke-width: 1.494; stroke-linecap: square"/>
   </g>
   <g id="line2d_48">
    <path d="M 429.692478 521.225521 
L 922.651583 510.764855 
" clip-path="url(#p7444121f15)" style="fill: none; stroke: #808080; stroke-opacity: 0.5952; stroke-width: 1.488; stroke-linecap: square"/>
   </g>
   <g id="line2d_49">
    <path d="M 429.692478 521.225521 
L 105.121841 341.207982 
" clip-path="url(#p7444121f15)" style="fill: none; stroke: #808080; stroke-opacity: 0.5904; stroke-width: 1.476; stroke-linecap: square"/>
   </g>
   <g id="line2d_50">
    <path d="M 500.639896 435.496689 
L 95.924298 272.483161 
" clip-path="url(#p7444121f15)" style="fill: none; stroke: #808080; stroke-opacity: 0.5994; stroke-width: 1.4985; stroke-linecap: square"/>
   </g>
   <g id="line2d_51">
    <path d="M 500.639896 435.496689 
L 941.445423 467.421288 
" clip-path="url(#p7444121f15)" style="fill: none; stroke: #808080; stroke-opacity: 0.5988; stroke-width: 1.497; stroke-linecap: square"/>
   </g>
   <g id="line2d_52">
    <path d="M 500.639896 435.496689 
L 658.419415 95.782135 
" clip-path="url(#p7444121f15)" style="fill: none; stroke: #808080; stroke-opacity: 0.5874; stroke-width: 1.4685; stroke-linecap: square"/>
   </g>
   <g id="line2d_53">
    <path d="M 500.639896 435.496689 
L 837.264571 636.364218 
" clip-path="url(#p7444121f15)" style="fill: none; stroke: #808080; stroke-opacity: 0.5718; stroke-width: 1.4295; stroke-linecap: square"/>
   </g>
   <g id="line2d_54">
    <path d="M 500.639896 435.496689 
L 948.763636 383.369562 
" clip-path="url(#p7444121f15)" style="fill: none; stroke: #808080; stroke-opacity: 0.5526; stroke-width: 1.3815; stroke-linecap: square"/>
   </g>
   <g id="line2d_55">
    <path d="M 500.639896 435.496689 
L 717.972658 103.174823 
" clip-path="url(#p7444121f15)" style="fill: none; stroke: #808080; stroke-opacity: 0.552; stroke-width: 1.38; stroke-linecap: square"/>
   </g>
   <g id="line2d_56">
    <path d="M 398.276679 279.875669 
L 353.131797 73.049295 
" clip-path="url(#p7444121f15)" style="fill: none; stroke: #808080; stroke-opacity: 0.5742; stroke-width: 1.4355; stroke-linecap: square"/>
   </g>
   <g id="line2d_57">
    <path d="M 398.276679 279.875669 
L 788.472982 665.010107 
" clip-path="url(#p7444121f15)" style="fill: none; stroke: #808080; stroke-opacity: 0.5604; stroke-width: 1.401; stroke-linecap: square"/>
   </g>
   <g id="line2d_58">
    <path d="M 398.276679 279.875669 
L 57.988572 301.329895 
" clip-path="url(#p7444121f15)" style="fill: none; stroke: #808080; stroke-opacity: 0.5592; stroke-width: 1.398; stroke-linecap: square"/>
   </g>
   <g id="line2d_59">
    <path d="M 398.276679 279.875669 
L 741.049583 138.537534 
" clip-path="url(#p7444121f15)" style="fill: none; stroke: #808080; stroke-opacity: 0.5562; stroke-width: 1.3905; stroke-linecap: square"/>
   </g>
   <g id="line2d_60">
    <path d="M 398.276679 279.875669 
L 743.906716 703.423748 
" clip-path="url(#p7444121f15)" style="fill: none; stroke: #808080; stroke-opacity: 0.5538; stroke-width: 1.3845; stroke-linecap: square"/>
   </g>
   <g id="line2d_61">
    <path d="M 398.276679 279.875669 
L 491.054508 737.218647 
" clip-path="url(#p7444121f15)" style="fill: none; stroke: #808080; stroke-opacity: 0.5496; stroke-width: 1.374; stroke-linecap: square"/>
   </g>
   <g id="line2d_62">
    <path d="M 398.276679 279.875669 
L 934.785265 329.764198 
" clip-path="url(#p7444121f15)" style="fill: none; stroke: #808080; stroke-opacity: 0.549; stroke-width: 1.3725; stroke-linecap: square"/>
   </g>
   <g id="line2d_63">
    <path d="M 398.276679 279.875669 
L 424.832406 741.330371 
" clip-path="url(#p7444121f15)" style="fill: none; stroke: #808080; stroke-opacity: 0.5448; stroke-width: 1.362; stroke-linecap: square"/>
   </g>
   <g id="line2d_64">
    <path d="M 398.276679 279.875669 
L 211.503994 634.499347 
" clip-path="url(#p7444121f15)" style="fill: none; stroke: #808080; stroke-opacity: 0.54; stroke-width: 1.35; stroke-linecap: square"/>
   </g>
   <g id="line2d_65">
    <path d="M 398.276679 279.875669 
L 802.380009 182.515529 
" clip-path="url(#p7444121f15)" style="fill: none; stroke: #808080; stroke-opacity: 0.5394; stroke-width: 1.3485; stroke-linecap: square"/>
   </g>
   <g id="line2d_66">
    <path d="M 650.300918 414.104752 
L 928.58231 422.167658 
" clip-path="url(#p7444121f15)" style="fill: none; stroke: #808080; stroke-opacity: 0.552; stroke-width: 1.38; stroke-linecap: square"/>
   </g>
   <g id="line2d_67">
    <path d="M 650.300918 414.104752 
L 857.499544 524.96279 
" clip-path="url(#p7444121f15)" style="fill: none; stroke: #808080; stroke-opacity: 0.5442; stroke-width: 1.3605; stroke-linecap: square"/>
   </g>
   <g id="line2d_68">
    <path d="M 650.300918 414.104752 
L 139.450072 637.435551 
" clip-path="url(#p7444121f15)" style="fill: none; stroke: #808080; stroke-opacity: 0.5316; stroke-width: 1.329; stroke-linecap: square"/>
   </g>
   <g id="line2d_69">
    <path d="M 650.300918 414.104752 
L 52.036364 364.459169 
" clip-path="url(#p7444121f15)" style="fill: none; stroke: #808080; stroke-opacity: 0.5298; stroke-width: 1.3245; stroke-linecap: square"/>
   </g>
   <g id="line2d_70">
    <path d="M 650.300918 414.104752 
L 191.821229 584.402581 
" clip-path="url(#p7444121f15)" style="fill: none; stroke: #808080; stroke-opacity: 0.5148; stroke-width: 1.287; stroke-linecap: square"/>
   </g>
   <g id="line2d_71">
    <path d="M 650.300918 414.104752 
L 916.979387 556.912116 
" clip-path="url(#p7444121f15)" style="fill: none; stroke: #808080; stroke-opacity: 0.5064; stroke-width: 1.266; stroke-linecap: square"/>
   </g>
   <g id="line2d_72">
    <path d="M 650.300918 414.104752 
L 391.226891 102.419693 
" clip-path="url(#p7444121f15)" style="fill: none; stroke: #808080; stroke-opacity: 0.5052; stroke-width: 1.263; stroke-linecap: square"/>
   </g>
   <g id="line2d_73">
    <path d="M 650.300918 414.104752 
L 314.515232 719.92725 
" clip-path="url(#p7444121f15)" style="fill: none; stroke: #808080; stroke-opacity: 0.4872; stroke-width: 1.218; stroke-linecap: square"/>
   </g>
   <g id="line2d_74">
    <path d="M 650.300918 414.104752 
L 276.867428 692.343395 
" clip-path="url(#p7444121f15)" style="fill: none; stroke: #808080; stroke-opacity: 0.4872; stroke-width: 1.218; stroke-linecap: square"/>
   </g>
   <g id="line2d_75">
    <path d="M 650.300918 414.104752 
L 864.721762 188.150185 
" clip-path="url(#p7444121f15)" style="fill: none; stroke: #808080; stroke-opacity: 0.4854; stroke-width: 1.2135; stroke-linecap: square"/>
   </g>
   <g id="PathCollection_1">
    <defs>
     <path id="m75c92bd55c" d="M 0 11.18034 
C 2.965061 11.18034 5.80908 10.002309 7.905694 7.905694 
C 10.002309 5.80908 11.18034 2.965061 11.18034 0 
C 11.18034 -2.965061 10.002309 -5.80908 7.905694 -7.905694 
C 5.80908 -10.002309 2.965061 -11.18034 0 -11.18034 
C -2.965061 -11.18034 -5.80908 -10.002309 -7.905694 -7.905694 
C -10.002309 -5.80908 -11.18034 -2.965061 -11.18034 0 
C -11.18034 2.965061 -10.002309 5.80908 -7.905694 7.905694 
C -5.80908 10.002309 -2.965061 11.18034 0 11.18034 
z
" style="stroke: #000000; stroke-opacity: 0.9; stroke-width: 2"/>
    </defs>
    <g clip-path="url(#p7444121f15)">
     <use xlink:href="#m75c92bd55c" x="443.787703" y="183.115626" style="fill: #2980b9; fill-opacity: 0.9; stroke: #000000; stroke-opacity: 0.9; stroke-width: 2"/>
    </g>
   </g>
   <g id="PathCollection_2">
    <defs>
     <path id="m7b010098a1" d="M 0 7.071068 
C 1.875269 7.071068 3.673985 6.326016 5 5 
C 6.326016 3.673985 7.071068 1.875269 7.071068 0 
C 7.071068 -1.875269 6.326016 -3.673985 5 -5 
C 3.673985 -6.326016 1.875269 -7.071068 0 -7.071068 
C -1.875269 -7.071068 -3.673985 -6.326016 -5 -5 
C -6.326016 -3.673985 -7.071068 -1.875269 -7.071068 0 
C -7.071068 1.875269 -6.326016 3.673985 -5 5 
C -3.673985 6.326016 -1.875269 7.071068 0 7.071068 
z
" style="stroke: #808080; stroke-opacity: 0.9; stroke-width: 0.5"/>
    </defs>
    <g clip-path="url(#p7444121f15)">
     <use xlink:href="#m7b010098a1" x="873.722032" y="253.473868" style="fill: #bdc3c7; fill-opacity: 0.9; stroke: #808080; stroke-opacity: 0.9; stroke-width: 0.5"/>
    </g>
   </g>
   <g id="PathCollection_3">
    <g clip-path="url(#p7444121f15)">
     <use xlink:href="#m7b010098a1" x="213.732435" y="671.026894" style="fill: #bdc3c7; fill-opacity: 0.9; stroke: #808080; stroke-opacity: 0.9; stroke-width: 0.5"/>
    </g>
   </g>
   <g id="PathCollection_4">
    <g clip-path="url(#p7444121f15)">
     <use xlink:href="#m7b010098a1" x="101.031115" y="229.242026" style="fill: #bdc3c7; fill-opacity: 0.9; stroke: #808080; stroke-opacity: 0.9; stroke-width: 0.5"/>
    </g>
   </g>
   <g id="PathCollection_5">
    <g clip-path="url(#p7444121f15)">
     <use xlink:href="#m7b010098a1" x="608.343248" y="104.726518" style="fill: #bdc3c7; fill-opacity: 0.9; stroke: #808080; stroke-opacity: 0.9; stroke-width: 0.5"/>
    </g>
   </g>
   <g id="PathCollection_6">
    <g clip-path="url(#p7444121f15)">
     <use xlink:href="#m7b010098a1" x="181.895661" y="136.718228" style="fill: #bdc3c7; fill-opacity: 0.9; stroke: #808080; stroke-opacity: 0.9; stroke-width: 0.5"/>
    </g>
   </g>
   <g id="PathCollection_7">
    <g clip-path="url(#p7444121f15)">
     <use xlink:href="#m7b010098a1" x="880.747816" y="594.644835" style="fill: #bdc3c7; fill-opacity: 0.9; stroke: #808080; stroke-opacity: 0.9; stroke-width: 0.5"/>
    </g>
   </g>
   <g id="PathCollection_8">
    <g clip-path="url(#p7444121f15)">
     <use xlink:href="#m7b010098a1" x="118.448164" y="579.068786" style="fill: #bdc3c7; fill-opacity: 0.9; stroke: #808080; stroke-opacity: 0.9; stroke-width: 0.5"/>
    </g>
   </g>
   <g id="PathCollection_9">
    <g clip-path="url(#p7444121f15)">
     <use xlink:href="#m7b010098a1" x="212.662004" y="227.756805" style="fill: #bdc3c7; fill-opacity: 0.9; stroke: #808080; stroke-opacity: 0.9; stroke-width: 0.5"/>
    </g>
   </g>
   <g id="PathCollection_10">
    <g clip-path="url(#p7444121f15)">
     <use xlink:href="#m7b010098a1" x="626.131168" y="697.69699" style="fill: #bdc3c7; fill-opacity: 0.9; stroke: #808080; stroke-opacity: 0.9; stroke-width: 0.5"/>
    </g>
   </g>
   <g id="PathCollection_11">
    <g clip-path="url(#p7444121f15)">
     <use xlink:href="#m75c92bd55c" x="504.415228" y="570.10827" style="fill: #2980b9; fill-opacity: 0.9; stroke: #000000; stroke-opacity: 0.9; stroke-width: 2"/>
    </g>
   </g>
   <g id="PathCollection_12">
    <g clip-path="url(#p7444121f15)">
     <use xlink:href="#m7b010098a1" x="109.442093" y="509.188041" style="fill: #bdc3c7; fill-opacity: 0.9; stroke: #808080; stroke-opacity: 0.9; stroke-width: 0.5"/>
    </g>
   </g>
   <g id="PathCollection_13">
    <g clip-path="url(#p7444121f15)">
     <use xlink:href="#m7b010098a1" x="491.955502" y="88.958045" style="fill: #bdc3c7; fill-opacity: 0.9; stroke: #808080; stroke-opacity: 0.9; stroke-width: 0.5"/>
    </g>
   </g>
   <g id="PathCollection_14">
    <g clip-path="url(#p7444121f15)">
     <use xlink:href="#m7b010098a1" x="76.887963" y="404.902418" style="fill: #bdc3c7; fill-opacity: 0.9; stroke: #808080; stroke-opacity: 0.9; stroke-width: 0.5"/>
    </g>
   </g>
   <g id="PathCollection_15">
    <g clip-path="url(#p7444121f15)">
     <use xlink:href="#m7b010098a1" x="575.549905" y="743.740205" style="fill: #bdc3c7; fill-opacity: 0.9; stroke: #808080; stroke-opacity: 0.9; stroke-width: 0.5"/>
    </g>
   </g>
   <g id="PathCollection_16">
    <g clip-path="url(#p7444121f15)">
     <use xlink:href="#m7b010098a1" x="690.675695" y="701.236193" style="fill: #bdc3c7; fill-opacity: 0.9; stroke: #808080; stroke-opacity: 0.9; stroke-width: 0.5"/>
    </g>
   </g>
   <g id="PathCollection_17">
    <defs>
     <path id="mb3f3ebcf7b" d="M 0 11.18034 
C 2.965061 11.18034 5.80908 10.002309 7.905694 7.905694 
C 10.002309 5.80908 11.18034 2.965061 11.18034 0 
C 11.18034 -2.965061 10.002309 -5.80908 7.905694 -7.905694 
C 5.80908 -10.002309 2.965061 -11.18034 0 -11.18034 
C -2.965061 -11.18034 -5.80908 -10.002309 -7.905694 -7.905694 
C -10.002309 -5.80908 -11.18034 -2.965061 -11.18034 0 
C -11.18034 2.965061 -10.002309 5.80908 -7.905694 7.905694 
C -5.80908 10.002309 -2.965061 11.18034 0 11.18034 
z
" style="stroke: #000000; stroke-opacity: 0.9; stroke-width: 2"/>
    </defs>
    <g clip-path="url(#p7444121f15)">
     <use xlink:href="#mb3f3ebcf7b" x="328.734328" y="137.181153" style="fill: #e74c3c; fill-opacity: 0.9; stroke: #000000; stroke-opacity: 0.9; stroke-width: 2"/>
    </g>
   </g>
   <g id="PathCollection_18">
    <g clip-path="url(#p7444121f15)">
     <use xlink:href="#m7b010098a1" x="907.148091" y="225.510753" style="fill: #bdc3c7; fill-opacity: 0.9; stroke: #808080; stroke-opacity: 0.9; stroke-width: 0.5"/>
    </g>
   </g>
   <g id="PathCollection_19">
    <g clip-path="url(#p7444121f15)">
     <use xlink:href="#m7b010098a1" x="364.159624" y="728.275462" style="fill: #bdc3c7; fill-opacity: 0.9; stroke: #808080; stroke-opacity: 0.9; stroke-width: 0.5"/>
    </g>
   </g>
   <g id="PathCollection_20">
    <g clip-path="url(#p7444121f15)">
     <use xlink:href="#m7b010098a1" x="595.476261" y="512.436997" style="fill: #bdc3c7; fill-opacity: 0.9; stroke: #808080; stroke-opacity: 0.9; stroke-width: 0.5"/>
    </g>
   </g>
   <g id="PathCollection_21">
    <g clip-path="url(#p7444121f15)">
     <use xlink:href="#mb3f3ebcf7b" x="109.088776" y="432.32115" style="fill: #e74c3c; fill-opacity: 0.9; stroke: #000000; stroke-opacity: 0.9; stroke-width: 2"/>
    </g>
   </g>
   <g id="PathCollection_22">
    <g clip-path="url(#p7444121f15)">
     <use xlink:href="#m7b010098a1" x="128.135479" y="188.269529" style="fill: #bdc3c7; fill-opacity: 0.9; stroke: #808080; stroke-opacity: 0.9; stroke-width: 0.5"/>
    </g>
   </g>
   <g id="PathCollection_23">
    <g clip-path="url(#p7444121f15)">
     <use xlink:href="#m7b010098a1" x="241.190942" y="160.710673" style="fill: #bdc3c7; fill-opacity: 0.9; stroke: #808080; stroke-opacity: 0.9; stroke-width: 0.5"/>
    </g>
   </g>
   <g id="PathCollection_24">
    <g clip-path="url(#p7444121f15)">
     <use xlink:href="#m7b010098a1" x="545.146636" y="148.047232" style="fill: #bdc3c7; fill-opacity: 0.9; stroke: #808080; stroke-opacity: 0.9; stroke-width: 0.5"/>
    </g>
   </g>
   <g id="PathCollection_25">
    <defs>
     <path id="m2ffea24000" d="M 0 11.726039 
C 3.109782 11.726039 6.092614 10.49051 8.291562 8.291562 
C 10.49051 6.092614 11.726039 3.109782 11.726039 0 
C 11.726039 -3.109782 10.49051 -6.092614 8.291562 -8.291562 
C 6.092614 -10.49051 3.109782 -11.726039 0 -11.726039 
C -3.109782 -11.726039 -6.092614 -10.49051 -8.291562 -8.291562 
C -10.49051 -6.092614 -11.726039 -3.109782 -11.726039 0 
C -11.726039 3.109782 -10.49051 6.092614 -8.291562 8.291562 
C -6.092614 10.49051 -3.109782 11.726039 0 11.726039 
z
" style="stroke: #000000; stroke-opacity: 0.9; stroke-width: 2"/>
    </defs>
    <g clip-path="url(#p7444121f15)">
     <use xlink:href="#m2ffea24000" x="429.692478" y="521.225521" style="fill: #e74c3c; fill-opacity: 0.9; stroke: #000000; stroke-opacity: 0.9; stroke-width: 2"/>
    </g>
   </g>
   <g id="PathCollection_26">
    <g clip-path="url(#p7444121f15)">
     <use xlink:href="#m7b010098a1" x="938.703948" y="281.647307" style="fill: #bdc3c7; fill-opacity: 0.9; stroke: #808080; stroke-opacity: 0.9; stroke-width: 0.5"/>
    </g>
   </g>
   <g id="PathCollection_27">
    <g clip-path="url(#p7444121f15)">
     <use xlink:href="#m7b010098a1" x="803.344999" y="132.663207" style="fill: #bdc3c7; fill-opacity: 0.9; stroke: #808080; stroke-opacity: 0.9; stroke-width: 0.5"/>
    </g>
   </g>
   <g id="PathCollection_28">
    <g clip-path="url(#p7444121f15)">
     <use xlink:href="#m7b010098a1" x="545.865296" y="73.438891" style="fill: #bdc3c7; fill-opacity: 0.9; stroke: #808080; stroke-opacity: 0.9; stroke-width: 0.5"/>
    </g>
   </g>
   <g id="PathCollection_29">
    <g clip-path="url(#p7444121f15)">
     <use xlink:href="#m7b010098a1" x="85.127932" y="546.615205" style="fill: #bdc3c7; fill-opacity: 0.9; stroke: #808080; stroke-opacity: 0.9; stroke-width: 0.5"/>
    </g>
   </g>
   <g id="PathCollection_30">
    <g clip-path="url(#p7444121f15)">
     <use xlink:href="#m7b010098a1" x="60.442652" y="486.718118" style="fill: #bdc3c7; fill-opacity: 0.9; stroke: #808080; stroke-opacity: 0.9; stroke-width: 0.5"/>
    </g>
   </g>
   <g id="PathCollection_31">
    <g clip-path="url(#p7444121f15)">
     <use xlink:href="#mb3f3ebcf7b" x="500.639896" y="435.496689" style="fill: #e74c3c; fill-opacity: 0.9; stroke: #000000; stroke-opacity: 0.9; stroke-width: 2"/>
    </g>
   </g>
   <g id="PathCollection_32">
    <g clip-path="url(#p7444121f15)">
     <use xlink:href="#m7b010098a1" x="922.651583" y="510.764855" style="fill: #bdc3c7; fill-opacity: 0.9; stroke: #808080; stroke-opacity: 0.9; stroke-width: 0.5"/>
    </g>
   </g>
   <g id="PathCollection_33">
    <g clip-path="url(#p7444121f15)">
     <use xlink:href="#m7b010098a1" x="105.121841" y="341.207982" style="fill: #bdc3c7; fill-opacity: 0.9; stroke: #808080; stroke-opacity: 0.9; stroke-width: 0.5"/>
    </g>
   </g>
   <g id="PathCollection_34">
    <g clip-path="url(#p7444121f15)">
     <use xlink:href="#m75c92bd55c" x="398.276679" y="279.875669" style="fill: #2980b9; fill-opacity: 0.9; stroke: #000000; stroke-opacity: 0.9; stroke-width: 2"/>
    </g>
   </g>
   <g id="PathCollection_35">
    <g clip-path="url(#p7444121f15)">
     <use xlink:href="#m7b010098a1" x="353.131797" y="73.049295" style="fill: #bdc3c7; fill-opacity: 0.9; stroke: #808080; stroke-opacity: 0.9; stroke-width: 0.5"/>
    </g>
   </g>
   <g id="PathCollection_36">
    <g clip-path="url(#p7444121f15)">
     <use xlink:href="#m7b010098a1" x="788.472982" y="665.010107" style="fill: #bdc3c7; fill-opacity: 0.9; stroke: #808080; stroke-opacity: 0.9; stroke-width: 0.5"/>
    </g>
   </g>
   <g id="PathCollection_37">
    <g clip-path="url(#p7444121f15)">
     <use xlink:href="#m7b010098a1" x="57.988572" y="301.329895" style="fill: #bdc3c7; fill-opacity: 0.9; stroke: #808080; stroke-opacity: 0.9; stroke-width: 0.5"/>
    </g>
   </g>
   <g id="PathCollection_38">
    <g clip-path="url(#p7444121f15)">
     <use xlink:href="#m7b010098a1" x="741.049583" y="138.537534" style="fill: #bdc3c7; fill-opacity: 0.9; stroke: #808080; stroke-opacity: 0.9; stroke-width: 0.5"/>
    </g>
   </g>
   <g id="PathCollection_39">
    <g clip-path="url(#p7444121f15)">
     <use xlink:href="#m7b010098a1" x="743.906716" y="703.423748" style="fill: #bdc3c7; fill-opacity: 0.9; stroke: #808080; stroke-opacity: 0.9; stroke-width: 0.5"/>
    </g>
   </g>
   <g id="PathCollection_40">
    <g clip-path="url(#p7444121f15)">
     <use xlink:href="#m7b010098a1" x="491.054508" y="737.218647" style="fill: #bdc3c7; fill-opacity: 0.9; stroke: #808080; stroke-opacity: 0.9; stroke-width: 0.5"/>
    </g>
   </g>
   <g id="PathCollection_41">
    <g clip-path="url(#p7444121f15)">
     <use xlink:href="#m7b010098a1" x="934.785265" y="329.764198" style="fill: #bdc3c7; fill-opacity: 0.9; stroke: #808080; stroke-opacity: 0.9; stroke-width: 0.5"/>
    </g>
   </g>
   <g id="PathCollection_42">
    <g clip-path="url(#p7444121f15)">
     <use xlink:href="#m7b010098a1" x="424.832406" y="741.330371" style="fill: #bdc3c7; fill-opacity: 0.9; stroke: #808080; stroke-opacity: 0.9; stroke-width: 0.5"/>
    </g>
   </g>
   <g id="PathCollection_43">
    <g clip-path="url(#p7444121f15)">
     <use xlink:href="#m7b010098a1" x="211.503994" y="634.499347" style="fill: #bdc3c7; fill-opacity: 0.9; stroke: #808080; stroke-opacity: 0.9; stroke-width: 0.5"/>
    </g>
   </g>
   <g id="PathCollection_44">
    <g clip-path="url(#p7444121f15)">
     <use xlink:href="#m7b010098a1" x="802.380009" y="182.515529" style="fill: #bdc3c7; fill-opacity: 0.9; stroke: #808080; stroke-opacity: 0.9; stroke-width: 0.5"/>
    </g>
   </g>
   <g id="PathCollection_45">
    <g clip-path="url(#p7444121f15)">
     <use xlink:href="#m7b010098a1" x="941.445423" y="467.421288" style="fill: #bdc3c7; fill-opacity: 0.9; stroke: #808080; stroke-opacity: 0.9; stroke-width: 0.5"/>
    </g>
   </g>
   <g id="PathCollection_46">
    <g clip-path="url(#p7444121f15)">
     <use xlink:href="#m7b010098a1" x="95.924298" y="272.483161" style="fill: #bdc3c7; fill-opacity: 0.9; stroke: #808080; stroke-opacity: 0.9; stroke-width: 0.5"/>
    </g>
   </g>
   <g id="PathCollection_47">
    <defs>
     <path id="m1f4179cfcf" d="M 0 11.18034 
C 2.965061 11.18034 5.80908 10.002309 7.905694 7.905694 
C 10.002309 5.80908 11.18034 2.965061 11.18034 0 
C 11.18034 -2.965061 10.002309 -5.80908 7.905694 -7.905694 
C 5.80908 -10.002309 2.965061 -11.18034 0 -11.18034 
C -2.965061 -11.18034 -5.80908 -10.002309 -7.905694 -7.905694 
C -10.002309 -5.80908 -11.18034 -2.965061 -11.18034 0 
C -11.18034 2.965061 -10.002309 5.80908 -7.905694 7.905694 
C -5.80908 10.002309 -2.965061 11.18034 0 11.18034 
z
" style="stroke: #000000; stroke-opacity: 0.9; stroke-width: 2"/>
    </defs>
    <g clip-path="url(#p7444121f15)">
     <use xlink:href="#m1f4179cfcf" x="650.300918" y="414.104752" style="fill: #27ae60; fill-opacity: 0.9; stroke: #000000; stroke-opacity: 0.9; stroke-width: 2"/>
    </g>
   </g>
   <g id="PathCollection_48">
    <g clip-path="url(#p7444121f15)">
     <use xlink:href="#m7b010098a1" x="928.58231" y="422.167658" style="fill: #bdc3c7; fill-opacity: 0.9; stroke: #808080; stroke-opacity: 0.9; stroke-width: 0.5"/>
    </g>
   </g>
   <g id="PathCollection_49">
    <g clip-path="url(#p7444121f15)">
     <use xlink:href="#m7b010098a1" x="857.499544" y="524.96279" style="fill: #bdc3c7; fill-opacity: 0.9; stroke: #808080; stroke-opacity: 0.9; stroke-width: 0.5"/>
    </g>
   </g>
   <g id="PathCollection_50">
    <g clip-path="url(#p7444121f15)">
     <use xlink:href="#m7b010098a1" x="139.450072" y="637.435551" style="fill: #bdc3c7; fill-opacity: 0.9; stroke: #808080; stroke-opacity: 0.9; stroke-width: 0.5"/>
    </g>
   </g>
   <g id="PathCollection_51">
    <g clip-path="url(#p7444121f15)">
     <use xlink:href="#m7b010098a1" x="52.036364" y="364.459169" style="fill: #bdc3c7; fill-opacity: 0.9; stroke: #808080; stroke-opacity: 0.9; stroke-width: 0.5"/>
    </g>
   </g>
   <g id="PathCollection_52">
    <g clip-path="url(#p7444121f15)">
     <use xlink:href="#m7b010098a1" x="191.821229" y="584.402581" style="fill: #bdc3c7; fill-opacity: 0.9; stroke: #808080; stroke-opacity: 0.9; stroke-width: 0.5"/>
    </g>
   </g>
   <g id="PathCollection_53">
    <g clip-path="url(#p7444121f15)">
     <use xlink:href="#m7b010098a1" x="916.979387" y="556.912116" style="fill: #bdc3c7; fill-opacity: 0.9; stroke: #808080; stroke-opacity: 0.9; stroke-width: 0.5"/>
    </g>
   </g>
   <g id="PathCollection_54">
    <g clip-path="url(#p7444121f15)">
     <use xlink:href="#m7b010098a1" x="391.226891" y="102.419693" style="fill: #bdc3c7; fill-opacity: 0.9; stroke: #808080; stroke-opacity: 0.9; stroke-width: 0.5"/>
    </g>
   </g>
   <g id="PathCollection_55">
    <g clip-path="url(#p7444121f15)">
     <use xlink:href="#m7b010098a1" x="314.515232" y="719.92725" style="fill: #bdc3c7; fill-opacity: 0.9; stroke: #808080; stroke-opacity: 0.9; stroke-width: 0.5"/>
    </g>
   </g>
   <g id="PathCollection_56">
    <g clip-path="url(#p7444121f15)">
     <use xlink:href="#m7b010098a1" x="276.867428" y="692.343395" style="fill: #bdc3c7; fill-opacity: 0.9; stroke: #808080; stroke-opacity: 0.9; stroke-width: 0.5"/>
    </g>
   </g>
   <g id="PathCollection_57">
    <g clip-path="url(#p7444121f15)">
     <use xlink:href="#m7b010098a1" x="864.721762" y="188.150185" style="fill: #bdc3c7; fill-opacity: 0.9; stroke: #808080; stroke-opacity: 0.9; stroke-width: 0.5"/>
    </g>
   </g>
   <g id="PathCollection_58">
    <g clip-path="url(#p7444121f15)">
     <use xlink:href="#m7b010098a1" x="658.419415" y="95.782135" style="fill: #bdc3c7; fill-opacity: 0.9; stroke: #808080; stroke-opacity: 0.9; stroke-width: 0.5"/>
    </g>
   </g>
   <g id="PathCollection_59">
    <g clip-path="url(#p7444121f15)">
     <use xlink:href="#m7b010098a1" x="837.264571" y="636.364218" style="fill: #bdc3c7; fill-opacity: 0.9; stroke: #808080; stroke-opacity: 0.9; stroke-width: 0.5"/>
    </g>
   </g>
   <g id="PathCollection_60">
    <g clip-path="url(#p7444121f15)">
     <use xlink:href="#m7b010098a1" x="948.763636" y="383.369562" style="fill: #bdc3c7; fill-opacity: 0.9; stroke: #808080; stroke-opacity: 0.9; stroke-width: 0.5"/>
    </g>
   </g>
   <g id="PathCollection_61">
    <g clip-path="url(#p7444121f15)">
     <use xlink:href="#m7b010098a1" x="717.972658" y="103.174823" style="fill: #bdc3c7; fill-opacity: 0.9; stroke: #808080; stroke-opacity: 0.9; stroke-width: 0.5"/>
    </g>
   </g>
   <g id="text_1">
    <!-- CDH2 -->
    <g transform="translate(488.931634 554.351478) scale(0.1 -0.1)">
     <defs>
      <path id="DejaVuSans-Bold-43" d="M 4288 256 
Q 3956 84 3597 -3 
Q 3238 -91 2847 -91 
Q 1681 -91 1000 561 
Q 319 1213 319 2328 
Q 319 3447 1000 4098 
Q 1681 4750 2847 4750 
Q 3238 4750 3597 4662 
Q 3956 4575 4288 4403 
L 4288 3438 
Q 3953 3666 3628 3772 
Q 3303 3878 2944 3878 
Q 2300 3878 1931 3465 
Q 1563 3053 1563 2328 
Q 1563 1606 1931 1193 
Q 2300 781 2944 781 
Q 3303 781 3628 887 
Q 3953 994 4288 1222 
L 4288 256 
z
" transform="scale(0.015625)"/>
      <path id="DejaVuSans-Bold-44" d="M 1791 3756 
L 1791 909 
L 2222 909 
Q 2959 909 3348 1275 
Q 3738 1641 3738 2338 
Q 3738 3031 3350 3393 
Q 2963 3756 2222 3756 
L 1791 3756 
z
M 588 4666 
L 1856 4666 
Q 2919 4666 3439 4514 
Q 3959 4363 4331 4000 
Q 4659 3684 4818 3271 
Q 4978 2859 4978 2338 
Q 4978 1809 4818 1395 
Q 4659 981 4331 666 
Q 3956 303 3431 151 
Q 2906 0 1856 0 
L 588 0 
L 588 4666 
z
" transform="scale(0.015625)"/>
      <path id="DejaVuSans-Bold-48" d="M 588 4666 
L 1791 4666 
L 1791 2888 
L 3566 2888 
L 3566 4666 
L 4769 4666 
L 4769 0 
L 3566 0 
L 3566 1978 
L 1791 1978 
L 1791 0 
L 588 0 
L 588 4666 
z
" transform="scale(0.015625)"/>
      <path id="DejaVuSans-Bold-32" d="M 1844 884 
L 3897 884 
L 3897 0 
L 506 0 
L 506 884 
L 2209 2388 
Q 2438 2594 2547 2791 
Q 2656 2988 2656 3200 
Q 2656 3528 2436 3728 
Q 2216 3928 1850 3928 
Q 1569 3928 1234 3808 
Q 900 3688 519 3450 
L 519 4475 
Q 925 4609 1322 4679 
Q 1719 4750 2100 4750 
Q 2938 4750 3402 4381 
Q 3866 4013 3866 3353 
Q 3866 2972 3669 2642 
Q 3472 2313 2841 1759 
L 1844 884 
z
" transform="scale(0.015625)"/>
     </defs>
     <use xlink:href="#DejaVuSans-Bold-43"/>
     <use xlink:href="#DejaVuSans-Bold-44" transform="translate(73.388672 0)"/>
     <use xlink:href="#DejaVuSans-Bold-48" transform="translate(156.396484 0)"/>
     <use xlink:href="#DejaVuSans-Bold-32" transform="translate(240.087891 0)"/>
    </g>
   </g>
   <g id="text_2">
    <!-- TRPC3 -->
    <g transform="translate(115.162979 172.928675) scale(0.08 -0.08)">
     <defs>
      <path id="DejaVuSans-54" d="M -19 4666 
L 3928 4666 
L 3928 4134 
L 2272 4134 
L 2272 0 
L 1638 0 
L 1638 4134 
L -19 4134 
L -19 4666 
z
" transform="scale(0.015625)"/>
      <path id="DejaVuSans-52" d="M 2841 2188 
Q 3044 2119 3236 1894 
Q 3428 1669 3622 1275 
L 4263 0 
L 3584 0 
L 2988 1197 
Q 2756 1666 2539 1819 
Q 2322 1972 1947 1972 
L 1259 1972 
L 1259 0 
L 628 0 
L 628 4666 
L 2053 4666 
Q 2853 4666 3247 4331 
Q 3641 3997 3641 3322 
Q 3641 2881 3436 2590 
Q 3231 2300 2841 2188 
z
M 1259 4147 
L 1259 2491 
L 2053 2491 
Q 2509 2491 2742 2702 
Q 2975 2913 2975 3322 
Q 2975 3731 2742 3939 
Q 2509 4147 2053 4147 
L 1259 4147 
z
" transform="scale(0.015625)"/>
      <path id="DejaVuSans-50" d="M 1259 4147 
L 1259 2394 
L 2053 2394 
Q 2494 2394 2734 2622 
Q 2975 2850 2975 3272 
Q 2975 3691 2734 3919 
Q 2494 4147 2053 4147 
L 1259 4147 
z
M 628 4666 
L 2053 4666 
Q 2838 4666 3239 4311 
Q 3641 3956 3641 3272 
Q 3641 2581 3239 2228 
Q 2838 1875 2053 1875 
L 1259 1875 
L 1259 0 
L 628 0 
L 628 4666 
z
" transform="scale(0.015625)"/>
      <path id="DejaVuSans-43" d="M 4122 4306 
L 4122 3641 
Q 3803 3938 3442 4084 
Q 3081 4231 2675 4231 
Q 1875 4231 1450 3742 
Q 1025 3253 1025 2328 
Q 1025 1406 1450 917 
Q 1875 428 2675 428 
Q 3081 428 3442 575 
Q 3803 722 4122 1019 
L 4122 359 
Q 3791 134 3420 21 
Q 3050 -91 2638 -91 
Q 1578 -91 968 557 
Q 359 1206 359 2328 
Q 359 3453 968 4101 
Q 1578 4750 2638 4750 
Q 3056 4750 3426 4639 
Q 3797 4528 4122 4306 
z
" transform="scale(0.015625)"/>
      <path id="DejaVuSans-33" d="M 2597 2516 
Q 3050 2419 3304 2112 
Q 3559 1806 3559 1356 
Q 3559 666 3084 287 
Q 2609 -91 1734 -91 
Q 1441 -91 1130 -33 
Q 819 25 488 141 
L 488 750 
Q 750 597 1062 519 
Q 1375 441 1716 441 
Q 2309 441 2620 675 
Q 2931 909 2931 1356 
Q 2931 1769 2642 2001 
Q 2353 2234 1838 2234 
L 1294 2234 
L 1294 2753 
L 1863 2753 
Q 2328 2753 2575 2939 
Q 2822 3125 2822 3475 
Q 2822 3834 2567 4026 
Q 2313 4219 1838 4219 
Q 1578 4219 1281 4162 
Q 984 4106 628 3988 
L 628 4550 
Q 988 4650 1302 4700 
Q 1616 4750 1894 4750 
Q 2613 4750 3031 4423 
Q 3450 4097 3450 3541 
Q 3450 3153 3228 2886 
Q 3006 2619 2597 2516 
z
" transform="scale(0.015625)"/>
     </defs>
     <use xlink:href="#DejaVuSans-54"/>
     <use xlink:href="#DejaVuSans-52" transform="translate(61.083984 0)"/>
     <use xlink:href="#DejaVuSans-50" transform="translate(130.566406 0)"/>
     <use xlink:href="#DejaVuSans-43" transform="translate(190.869141 0)"/>
     <use xlink:href="#DejaVuSans-33" transform="translate(260.693359 0)"/>
    </g>
   </g>
   <g id="text_3">
    <!-- TRPC1 -->
    <g transform="translate(411.618259 505.46873) scale(0.1 -0.1)">
     <defs>
      <path id="DejaVuSans-Bold-54" d="M 31 4666 
L 4331 4666 
L 4331 3756 
L 2784 3756 
L 2784 0 
L 1581 0 
L 1581 3756 
L 31 3756 
L 31 4666 
z
" transform="scale(0.015625)"/>
      <path id="DejaVuSans-Bold-52" d="M 2297 2597 
Q 2675 2597 2839 2737 
Q 3003 2878 3003 3200 
Q 3003 3519 2839 3656 
Q 2675 3794 2297 3794 
L 1791 3794 
L 1791 2597 
L 2297 2597 
z
M 1791 1766 
L 1791 0 
L 588 0 
L 588 4666 
L 2425 4666 
Q 3347 4666 3776 4356 
Q 4206 4047 4206 3378 
Q 4206 2916 3982 2619 
Q 3759 2322 3309 2181 
Q 3556 2125 3751 1926 
Q 3947 1728 4147 1325 
L 4800 0 
L 3519 0 
L 2950 1159 
Q 2778 1509 2601 1637 
Q 2425 1766 2131 1766 
L 1791 1766 
z
" transform="scale(0.015625)"/>
      <path id="DejaVuSans-Bold-50" d="M 588 4666 
L 2584 4666 
Q 3475 4666 3951 4270 
Q 4428 3875 4428 3144 
Q 4428 2409 3951 2014 
Q 3475 1619 2584 1619 
L 1791 1619 
L 1791 0 
L 588 0 
L 588 4666 
z
M 1791 3794 
L 1791 2491 
L 2456 2491 
Q 2806 2491 2997 2661 
Q 3188 2831 3188 3144 
Q 3188 3456 2997 3625 
Q 2806 3794 2456 3794 
L 1791 3794 
z
" transform="scale(0.015625)"/>
      <path id="DejaVuSans-Bold-31" d="M 750 831 
L 1813 831 
L 1813 3847 
L 722 3622 
L 722 4441 
L 1806 4666 
L 2950 4666 
L 2950 831 
L 4013 831 
L 4013 0 
L 750 0 
L 750 831 
z
" transform="scale(0.015625)"/>
     </defs>
     <use xlink:href="#DejaVuSans-Bold-54"/>
     <use xlink:href="#DejaVuSans-Bold-52" transform="translate(68.212891 0)"/>
     <use xlink:href="#DejaVuSans-Bold-50" transform="translate(145.214844 0)"/>
     <use xlink:href="#DejaVuSans-Bold-43" transform="translate(218.505859 0)"/>
     <use xlink:href="#DejaVuSans-Bold-31" transform="translate(291.894531 0)"/>
    </g>
   </g>
   <g id="text_4">
    <!-- STIM1 -->
    <g transform="translate(91.762214 416.564358) scale(0.1 -0.1)">
     <defs>
      <path id="DejaVuSans-Bold-53" d="M 3834 4519 
L 3834 3531 
Q 3450 3703 3084 3790 
Q 2719 3878 2394 3878 
Q 1963 3878 1756 3759 
Q 1550 3641 1550 3391 
Q 1550 3203 1689 3098 
Q 1828 2994 2194 2919 
L 2706 2816 
Q 3484 2659 3812 2340 
Q 4141 2022 4141 1434 
Q 4141 663 3683 286 
Q 3225 -91 2284 -91 
Q 1841 -91 1394 -6 
Q 947 78 500 244 
L 500 1259 
Q 947 1022 1364 901 
Q 1781 781 2169 781 
Q 2563 781 2772 912 
Q 2981 1044 2981 1288 
Q 2981 1506 2839 1625 
Q 2697 1744 2272 1838 
L 1806 1941 
Q 1106 2091 782 2419 
Q 459 2747 459 3303 
Q 459 4000 909 4375 
Q 1359 4750 2203 4750 
Q 2588 4750 2994 4692 
Q 3400 4634 3834 4519 
z
" transform="scale(0.015625)"/>
      <path id="DejaVuSans-Bold-49" d="M 588 4666 
L 1791 4666 
L 1791 0 
L 588 0 
L 588 4666 
z
" transform="scale(0.015625)"/>
      <path id="DejaVuSans-Bold-4d" d="M 588 4666 
L 2119 4666 
L 3181 2169 
L 4250 4666 
L 5778 4666 
L 5778 0 
L 4641 0 
L 4641 3413 
L 3566 897 
L 2803 897 
L 1728 3413 
L 1728 0 
L 588 0 
L 588 4666 
z
" transform="scale(0.015625)"/>
     </defs>
     <use xlink:href="#DejaVuSans-Bold-53"/>
     <use xlink:href="#DejaVuSans-Bold-54" transform="translate(72.021484 0)"/>
     <use xlink:href="#DejaVuSans-Bold-49" transform="translate(140.234375 0)"/>
     <use xlink:href="#DejaVuSans-Bold-4d" transform="translate(177.441406 0)"/>
     <use xlink:href="#DejaVuSans-Bold-31" transform="translate(276.953125 0)"/>
    </g>
   </g>
   <g id="text_5">
    <!-- ORAI2 -->
    <g transform="translate(583.246886 497.096143) scale(0.08 -0.08)">
     <defs>
      <path id="DejaVuSans-4f" d="M 2522 4238 
Q 1834 4238 1429 3725 
Q 1025 3213 1025 2328 
Q 1025 1447 1429 934 
Q 1834 422 2522 422 
Q 3209 422 3611 934 
Q 4013 1447 4013 2328 
Q 4013 3213 3611 3725 
Q 3209 4238 2522 4238 
z
M 2522 4750 
Q 3503 4750 4090 4092 
Q 4678 3434 4678 2328 
Q 4678 1225 4090 567 
Q 3503 -91 2522 -91 
Q 1538 -91 948 565 
Q 359 1222 359 2328 
Q 359 3434 948 4092 
Q 1538 4750 2522 4750 
z
" transform="scale(0.015625)"/>
      <path id="DejaVuSans-41" d="M 2188 4044 
L 1331 1722 
L 3047 1722 
L 2188 4044 
z
M 1831 4666 
L 2547 4666 
L 4325 0 
L 3669 0 
L 3244 1197 
L 1141 1197 
L 716 0 
L 50 0 
L 1831 4666 
z
" transform="scale(0.015625)"/>
      <path id="DejaVuSans-49" d="M 628 4666 
L 1259 4666 
L 1259 0 
L 628 0 
L 628 4666 
z
" transform="scale(0.015625)"/>
      <path id="DejaVuSans-32" d="M 1228 531 
L 3431 531 
L 3431 0 
L 469 0 
L 469 531 
Q 828 903 1448 1529 
Q 2069 2156 2228 2338 
Q 2531 2678 2651 2914 
Q 2772 3150 2772 3378 
Q 2772 3750 2511 3984 
Q 2250 4219 1831 4219 
Q 1534 4219 1204 4116 
Q 875 4013 500 3803 
L 500 4441 
Q 881 4594 1212 4672 
Q 1544 4750 1819 4750 
Q 2544 4750 2975 4387 
Q 3406 4025 3406 3419 
Q 3406 3131 3298 2873 
Q 3191 2616 2906 2266 
Q 2828 2175 2409 1742 
Q 1991 1309 1228 531 
z
" transform="scale(0.015625)"/>
     </defs>
     <use xlink:href="#DejaVuSans-4f"/>
     <use xlink:href="#DejaVuSans-52" transform="translate(78.710938 0)"/>
     <use xlink:href="#DejaVuSans-41" transform="translate(144.193359 0)"/>
     <use xlink:href="#DejaVuSans-49" transform="translate(212.601562 0)"/>
     <use xlink:href="#DejaVuSans-32" transform="translate(242.09375 0)"/>
    </g>
   </g>
   <g id="text_6">
    <!-- ABCB1 -->
    <g transform="translate(631.661074 398.347961) scale(0.1 -0.1)">
     <defs>
      <path id="DejaVuSans-Bold-41" d="M 3419 850 
L 1538 850 
L 1241 0 
L 31 0 
L 1759 4666 
L 3194 4666 
L 4922 0 
L 3713 0 
L 3419 850 
z
M 1838 1716 
L 3116 1716 
L 2478 3572 
L 1838 1716 
z
" transform="scale(0.015625)"/>
      <path id="DejaVuSans-Bold-42" d="M 2456 2859 
Q 2741 2859 2887 2984 
Q 3034 3109 3034 3353 
Q 3034 3594 2887 3720 
Q 2741 3847 2456 3847 
L 1791 3847 
L 1791 2859 
L 2456 2859 
z
M 2497 819 
Q 2859 819 3042 972 
Q 3225 1125 3225 1434 
Q 3225 1738 3044 1889 
Q 2863 2041 2497 2041 
L 1791 2041 
L 1791 819 
L 2497 819 
z
M 3616 2497 
Q 4003 2384 4215 2081 
Q 4428 1778 4428 1338 
Q 4428 663 3972 331 
Q 3516 0 2584 0 
L 588 0 
L 588 4666 
L 2394 4666 
Q 3366 4666 3802 4372 
Q 4238 4078 4238 3431 
Q 4238 3091 4078 2852 
Q 3919 2613 3616 2497 
z
" transform="scale(0.015625)"/>
     </defs>
     <use xlink:href="#DejaVuSans-Bold-41"/>
     <use xlink:href="#DejaVuSans-Bold-42" transform="translate(77.392578 0)"/>
     <use xlink:href="#DejaVuSans-Bold-43" transform="translate(153.613281 0)"/>
     <use xlink:href="#DejaVuSans-Bold-42" transform="translate(227.001953 0)"/>
     <use xlink:href="#DejaVuSans-Bold-31" transform="translate(303.222656 0)"/>
    </g>
   </g>
   <g id="text_7">
    <!-- TRPC6 -->
    <g transform="translate(310.660109 121.424361) scale(0.1 -0.1)">
     <defs>
      <path id="DejaVuSans-Bold-36" d="M 2316 2303 
Q 2000 2303 1842 2098 
Q 1684 1894 1684 1484 
Q 1684 1075 1842 870 
Q 2000 666 2316 666 
Q 2634 666 2792 870 
Q 2950 1075 2950 1484 
Q 2950 1894 2792 2098 
Q 2634 2303 2316 2303 
z
M 3803 4544 
L 3803 3681 
Q 3506 3822 3243 3889 
Q 2981 3956 2731 3956 
Q 2194 3956 1894 3657 
Q 1594 3359 1544 2772 
Q 1750 2925 1990 3001 
Q 2231 3078 2516 3078 
Q 3231 3078 3670 2659 
Q 4109 2241 4109 1563 
Q 4109 813 3618 361 
Q 3128 -91 2303 -91 
Q 1394 -91 895 523 
Q 397 1138 397 2266 
Q 397 3422 980 4083 
Q 1563 4744 2578 4744 
Q 2900 4744 3203 4694 
Q 3506 4644 3803 4544 
z
" transform="scale(0.015625)"/>
     </defs>
     <use xlink:href="#DejaVuSans-Bold-54"/>
     <use xlink:href="#DejaVuSans-Bold-52" transform="translate(68.212891 0)"/>
     <use xlink:href="#DejaVuSans-Bold-50" transform="translate(145.214844 0)"/>
     <use xlink:href="#DejaVuSans-Bold-43" transform="translate(218.505859 0)"/>
     <use xlink:href="#DejaVuSans-Bold-36" transform="translate(291.894531 0)"/>
    </g>
   </g>
   <g id="text_8">
    <!-- VIM -->
    <g transform="translate(387.571211 264.118878) scale(0.1 -0.1)">
     <defs>
      <path id="DejaVuSans-Bold-56" d="M 31 4666 
L 1241 4666 
L 2478 1222 
L 3713 4666 
L 4922 4666 
L 3194 0 
L 1759 0 
L 31 4666 
z
" transform="scale(0.015625)"/>
     </defs>
     <use xlink:href="#DejaVuSans-Bold-56"/>
     <use xlink:href="#DejaVuSans-Bold-49" transform="translate(77.392578 0)"/>
     <use xlink:href="#DejaVuSans-Bold-4d" transform="translate(114.599609 0)"/>
    </g>
   </g>
   <g id="text_9">
    <!-- ORAI1 -->
    <g transform="translate(483.330521 419.739898) scale(0.1 -0.1)">
     <defs>
      <path id="DejaVuSans-Bold-4f" d="M 2719 3878 
Q 2169 3878 1866 3472 
Q 1563 3066 1563 2328 
Q 1563 1594 1866 1187 
Q 2169 781 2719 781 
Q 3272 781 3575 1187 
Q 3878 1594 3878 2328 
Q 3878 3066 3575 3472 
Q 3272 3878 2719 3878 
z
M 2719 4750 
Q 3844 4750 4481 4106 
Q 5119 3463 5119 2328 
Q 5119 1197 4481 553 
Q 3844 -91 2719 -91 
Q 1597 -91 958 553 
Q 319 1197 319 2328 
Q 319 3463 958 4106 
Q 1597 4750 2719 4750 
z
" transform="scale(0.015625)"/>
     </defs>
     <use xlink:href="#DejaVuSans-Bold-4f"/>
     <use xlink:href="#DejaVuSans-Bold-52" transform="translate(85.009766 0)"/>
     <use xlink:href="#DejaVuSans-Bold-41" transform="translate(162.011719 0)"/>
     <use xlink:href="#DejaVuSans-Bold-49" transform="translate(239.404297 0)"/>
     <use xlink:href="#DejaVuSans-Bold-31" transform="translate(276.611328 0)"/>
    </g>
   </g>
   <g id="text_10">
    <!-- CDH1 -->
    <g transform="translate(428.304109 167.358834) scale(0.1 -0.1)">
     <use xlink:href="#DejaVuSans-Bold-43"/>
     <use xlink:href="#DejaVuSans-Bold-44" transform="translate(73.388672 0)"/>
     <use xlink:href="#DejaVuSans-Bold-48" transform="translate(156.396484 0)"/>
     <use xlink:href="#DejaVuSans-Bold-31" transform="translate(240.087891 0)"/>
    </g>
   </g>
   <g id="text_11">
    <!-- Protein-Protein Interaction Network -->
    <g transform="translate(358.004687 17.837812) scale(0.14 -0.14)">
     <defs>
      <path id="DejaVuSans-Bold-72" d="M 3138 2547 
Q 2991 2616 2845 2648 
Q 2700 2681 2553 2681 
Q 2122 2681 1889 2404 
Q 1656 2128 1656 1613 
L 1656 0 
L 538 0 
L 538 3500 
L 1656 3500 
L 1656 2925 
Q 1872 3269 2151 3426 
Q 2431 3584 2822 3584 
Q 2878 3584 2943 3579 
Q 3009 3575 3134 3559 
L 3138 2547 
z
" transform="scale(0.015625)"/>
      <path id="DejaVuSans-Bold-6f" d="M 2203 2784 
Q 1831 2784 1636 2517 
Q 1441 2250 1441 1747 
Q 1441 1244 1636 976 
Q 1831 709 2203 709 
Q 2569 709 2762 976 
Q 2956 1244 2956 1747 
Q 2956 2250 2762 2517 
Q 2569 2784 2203 2784 
z
M 2203 3584 
Q 3106 3584 3614 3096 
Q 4122 2609 4122 1747 
Q 4122 884 3614 396 
Q 3106 -91 2203 -91 
Q 1297 -91 786 396 
Q 275 884 275 1747 
Q 275 2609 786 3096 
Q 1297 3584 2203 3584 
z
" transform="scale(0.015625)"/>
      <path id="DejaVuSans-Bold-74" d="M 1759 4494 
L 1759 3500 
L 2913 3500 
L 2913 2700 
L 1759 2700 
L 1759 1216 
Q 1759 972 1856 886 
Q 1953 800 2241 800 
L 2816 800 
L 2816 0 
L 1856 0 
Q 1194 0 917 276 
Q 641 553 641 1216 
L 641 2700 
L 84 2700 
L 84 3500 
L 641 3500 
L 641 4494 
L 1759 4494 
z
" transform="scale(0.015625)"/>
      <path id="DejaVuSans-Bold-65" d="M 4031 1759 
L 4031 1441 
L 1416 1441 
Q 1456 1047 1700 850 
Q 1944 653 2381 653 
Q 2734 653 3104 758 
Q 3475 863 3866 1075 
L 3866 213 
Q 3469 63 3072 -14 
Q 2675 -91 2278 -91 
Q 1328 -91 801 392 
Q 275 875 275 1747 
Q 275 2603 792 3093 
Q 1309 3584 2216 3584 
Q 3041 3584 3536 3087 
Q 4031 2591 4031 1759 
z
M 2881 2131 
Q 2881 2450 2695 2645 
Q 2509 2841 2209 2841 
Q 1884 2841 1681 2658 
Q 1478 2475 1428 2131 
L 2881 2131 
z
" transform="scale(0.015625)"/>
      <path id="DejaVuSans-Bold-69" d="M 538 3500 
L 1656 3500 
L 1656 0 
L 538 0 
L 538 3500 
z
M 538 4863 
L 1656 4863 
L 1656 3950 
L 538 3950 
L 538 4863 
z
" transform="scale(0.015625)"/>
      <path id="DejaVuSans-Bold-6e" d="M 4056 2131 
L 4056 0 
L 2931 0 
L 2931 347 
L 2931 1631 
Q 2931 2084 2911 2256 
Q 2891 2428 2841 2509 
Q 2775 2619 2662 2680 
Q 2550 2741 2406 2741 
Q 2056 2741 1856 2470 
Q 1656 2200 1656 1722 
L 1656 0 
L 538 0 
L 538 3500 
L 1656 3500 
L 1656 2988 
Q 1909 3294 2193 3439 
Q 2478 3584 2822 3584 
Q 3428 3584 3742 3212 
Q 4056 2841 4056 2131 
z
" transform="scale(0.015625)"/>
      <path id="DejaVuSans-Bold-2d" d="M 347 2297 
L 2309 2297 
L 2309 1388 
L 347 1388 
L 347 2297 
z
" transform="scale(0.015625)"/>
      <path id="DejaVuSans-Bold-20" transform="scale(0.015625)"/>
      <path id="DejaVuSans-Bold-61" d="M 2106 1575 
Q 1756 1575 1579 1456 
Q 1403 1338 1403 1106 
Q 1403 894 1545 773 
Q 1688 653 1941 653 
Q 2256 653 2472 879 
Q 2688 1106 2688 1447 
L 2688 1575 
L 2106 1575 
z
M 3816 1997 
L 3816 0 
L 2688 0 
L 2688 519 
Q 2463 200 2181 54 
Q 1900 -91 1497 -91 
Q 953 -91 614 226 
Q 275 544 275 1050 
Q 275 1666 698 1953 
Q 1122 2241 2028 2241 
L 2688 2241 
L 2688 2328 
Q 2688 2594 2478 2717 
Q 2269 2841 1825 2841 
Q 1466 2841 1156 2769 
Q 847 2697 581 2553 
L 581 3406 
Q 941 3494 1303 3539 
Q 1666 3584 2028 3584 
Q 2975 3584 3395 3211 
Q 3816 2838 3816 1997 
z
" transform="scale(0.015625)"/>
      <path id="DejaVuSans-Bold-63" d="M 3366 3391 
L 3366 2478 
Q 3138 2634 2908 2709 
Q 2678 2784 2431 2784 
Q 1963 2784 1702 2511 
Q 1441 2238 1441 1747 
Q 1441 1256 1702 982 
Q 1963 709 2431 709 
Q 2694 709 2930 787 
Q 3166 866 3366 1019 
L 3366 103 
Q 3103 6 2833 -42 
Q 2563 -91 2291 -91 
Q 1344 -91 809 395 
Q 275 881 275 1747 
Q 275 2613 809 3098 
Q 1344 3584 2291 3584 
Q 2566 3584 2833 3536 
Q 3100 3488 3366 3391 
z
" transform="scale(0.015625)"/>
      <path id="DejaVuSans-Bold-4e" d="M 588 4666 
L 1931 4666 
L 3628 1466 
L 3628 4666 
L 4769 4666 
L 4769 0 
L 3425 0 
L 1728 3200 
L 1728 0 
L 588 0 
L 588 4666 
z
" transform="scale(0.015625)"/>
      <path id="DejaVuSans-Bold-77" d="M 225 3500 
L 1313 3500 
L 1900 1088 
L 2491 3500 
L 3425 3500 
L 4013 1113 
L 4603 3500 
L 5691 3500 
L 4769 0 
L 3547 0 
L 2956 2406 
L 2369 0 
L 1147 0 
L 225 3500 
z
" transform="scale(0.015625)"/>
      <path id="DejaVuSans-Bold-6b" d="M 538 4863 
L 1656 4863 
L 1656 2216 
L 2944 3500 
L 4244 3500 
L 2534 1894 
L 4378 0 
L 3022 0 
L 1656 1459 
L 1656 0 
L 538 0 
L 538 4863 
z
" transform="scale(0.015625)"/>
     </defs>
     <use xlink:href="#DejaVuSans-Bold-50"/>
     <use xlink:href="#DejaVuSans-Bold-72" transform="translate(73.291016 0)"/>
     <use xlink:href="#DejaVuSans-Bold-6f" transform="translate(122.607422 0)"/>
     <use xlink:href="#DejaVuSans-Bold-74" transform="translate(191.308594 0)"/>
     <use xlink:href="#DejaVuSans-Bold-65" transform="translate(239.111328 0)"/>
     <use xlink:href="#DejaVuSans-Bold-69" transform="translate(306.933594 0)"/>
     <use xlink:href="#DejaVuSans-Bold-6e" transform="translate(341.210938 0)"/>
     <use xlink:href="#DejaVuSans-Bold-2d" transform="translate(412.402344 0)"/>
     <use xlink:href="#DejaVuSans-Bold-50" transform="translate(453.90625 0)"/>
     <use xlink:href="#DejaVuSans-Bold-72" transform="translate(527.197266 0)"/>
     <use xlink:href="#DejaVuSans-Bold-6f" transform="translate(576.513672 0)"/>
     <use xlink:href="#DejaVuSans-Bold-74" transform="translate(645.214844 0)"/>
     <use xlink:href="#DejaVuSans-Bold-65" transform="translate(693.017578 0)"/>
     <use xlink:href="#DejaVuSans-Bold-69" transform="translate(760.839844 0)"/>
     <use xlink:href="#DejaVuSans-Bold-6e" transform="translate(795.117188 0)"/>
     <use xlink:href="#DejaVuSans-Bold-20" transform="translate(866.308594 0)"/>
     <use xlink:href="#DejaVuSans-Bold-49" transform="translate(901.123047 0)"/>
     <use xlink:href="#DejaVuSans-Bold-6e" transform="translate(938.330078 0)"/>
     <use xlink:href="#DejaVuSans-Bold-74" transform="translate(1009.521484 0)"/>
     <use xlink:href="#DejaVuSans-Bold-65" transform="translate(1057.324219 0)"/>
     <use xlink:href="#DejaVuSans-Bold-72" transform="translate(1125.146484 0)"/>
     <use xlink:href="#DejaVuSans-Bold-61" transform="translate(1174.462891 0)"/>
     <use xlink:href="#DejaVuSans-Bold-63" transform="translate(1241.943359 0)"/>
     <use xlink:href="#DejaVuSans-Bold-74" transform="translate(1301.220703 0)"/>
     <use xlink:href="#DejaVuSans-Bold-69" transform="translate(1349.023438 0)"/>
     <use xlink:href="#DejaVuSans-Bold-6f" transform="translate(1383.300781 0)"/>
     <use xlink:href="#DejaVuSans-Bold-6e" transform="translate(1452.001953 0)"/>
     <use xlink:href="#DejaVuSans-Bold-20" transform="translate(1523.193359 0)"/>
     <use xlink:href="#DejaVuSans-Bold-4e" transform="translate(1558.007812 0)"/>
     <use xlink:href="#DejaVuSans-Bold-65" transform="translate(1641.699219 0)"/>
     <use xlink:href="#DejaVuSans-Bold-74" transform="translate(1709.521484 0)"/>
     <use xlink:href="#DejaVuSans-Bold-77" transform="translate(1757.324219 0)"/>
     <use xlink:href="#DejaVuSans-Bold-6f" transform="translate(1849.707031 0)"/>
     <use xlink:href="#DejaVuSans-Bold-72" transform="translate(1918.408203 0)"/>
     <use xlink:href="#DejaVuSans-Bold-6b" transform="translate(1967.724609 0)"/>
    </g>
    <!-- SOCE, EMT, and MDR Genes (STRING Database, Score ≥ 0.7) -->
    <g transform="translate(263.247656 33.51475) scale(0.14 -0.14)">
     <defs>
      <path id="DejaVuSans-Bold-45" d="M 588 4666 
L 3834 4666 
L 3834 3756 
L 1791 3756 
L 1791 2888 
L 3713 2888 
L 3713 1978 
L 1791 1978 
L 1791 909 
L 3903 909 
L 3903 0 
L 588 0 
L 588 4666 
z
" transform="scale(0.015625)"/>
      <path id="DejaVuSans-Bold-2c" d="M 653 1209 
L 1778 1209 
L 1778 256 
L 1006 -909 
L 341 -909 
L 653 256 
L 653 1209 
z
" transform="scale(0.015625)"/>
      <path id="DejaVuSans-Bold-64" d="M 2919 2988 
L 2919 4863 
L 4044 4863 
L 4044 0 
L 2919 0 
L 2919 506 
Q 2688 197 2409 53 
Q 2131 -91 1766 -91 
Q 1119 -91 703 423 
Q 288 938 288 1747 
Q 288 2556 703 3070 
Q 1119 3584 1766 3584 
Q 2128 3584 2408 3439 
Q 2688 3294 2919 2988 
z
M 2181 722 
Q 2541 722 2730 984 
Q 2919 1247 2919 1747 
Q 2919 2247 2730 2509 
Q 2541 2772 2181 2772 
Q 1825 2772 1636 2509 
Q 1447 2247 1447 1747 
Q 1447 1247 1636 984 
Q 1825 722 2181 722 
z
" transform="scale(0.015625)"/>
      <path id="DejaVuSans-Bold-47" d="M 4781 347 
Q 4331 128 3847 18 
Q 3363 -91 2847 -91 
Q 1681 -91 1000 561 
Q 319 1213 319 2328 
Q 319 3456 1012 4103 
Q 1706 4750 2913 4750 
Q 3378 4750 3804 4662 
Q 4231 4575 4609 4403 
L 4609 3438 
Q 4219 3659 3833 3768 
Q 3447 3878 3059 3878 
Q 2341 3878 1952 3476 
Q 1563 3075 1563 2328 
Q 1563 1588 1938 1184 
Q 2313 781 3003 781 
Q 3191 781 3352 804 
Q 3513 828 3641 878 
L 3641 1784 
L 2906 1784 
L 2906 2591 
L 4781 2591 
L 4781 347 
z
" transform="scale(0.015625)"/>
      <path id="DejaVuSans-Bold-73" d="M 3272 3391 
L 3272 2541 
Q 2913 2691 2578 2766 
Q 2244 2841 1947 2841 
Q 1628 2841 1473 2761 
Q 1319 2681 1319 2516 
Q 1319 2381 1436 2309 
Q 1553 2238 1856 2203 
L 2053 2175 
Q 2913 2066 3209 1816 
Q 3506 1566 3506 1031 
Q 3506 472 3093 190 
Q 2681 -91 1863 -91 
Q 1516 -91 1145 -36 
Q 775 19 384 128 
L 384 978 
Q 719 816 1070 734 
Q 1422 653 1784 653 
Q 2113 653 2278 743 
Q 2444 834 2444 1013 
Q 2444 1163 2330 1236 
Q 2216 1309 1875 1350 
L 1678 1375 
Q 931 1469 631 1722 
Q 331 1975 331 2491 
Q 331 3047 712 3315 
Q 1094 3584 1881 3584 
Q 2191 3584 2531 3537 
Q 2872 3491 3272 3391 
z
" transform="scale(0.015625)"/>
      <path id="DejaVuSans-Bold-28" d="M 2413 -844 
L 1484 -844 
Q 1006 -72 778 623 
Q 550 1319 550 2003 
Q 550 2688 779 3389 
Q 1009 4091 1484 4856 
L 2413 4856 
Q 2013 4116 1813 3408 
Q 1613 2700 1613 2009 
Q 1613 1319 1811 609 
Q 2009 -100 2413 -844 
z
" transform="scale(0.015625)"/>
      <path id="DejaVuSans-Bold-62" d="M 2400 722 
Q 2759 722 2948 984 
Q 3138 1247 3138 1747 
Q 3138 2247 2948 2509 
Q 2759 2772 2400 2772 
Q 2041 2772 1848 2508 
Q 1656 2244 1656 1747 
Q 1656 1250 1848 986 
Q 2041 722 2400 722 
z
M 1656 2988 
Q 1888 3294 2169 3439 
Q 2450 3584 2816 3584 
Q 3463 3584 3878 3070 
Q 4294 2556 4294 1747 
Q 4294 938 3878 423 
Q 3463 -91 2816 -91 
Q 2450 -91 2169 54 
Q 1888 200 1656 506 
L 1656 0 
L 538 0 
L 538 4863 
L 1656 4863 
L 1656 2988 
z
" transform="scale(0.015625)"/>
      <path id="DejaVuSans-Bold-2265" d="M 678 744 
L 4684 744 
L 4684 0 
L 678 0 
L 678 744 
z
M 678 2963 
L 678 3725 
L 4684 2681 
L 4684 1947 
L 678 897 
L 678 1656 
L 3481 2309 
L 678 2963 
z
" transform="scale(0.015625)"/>
      <path id="DejaVuSans-Bold-30" d="M 2944 2338 
Q 2944 3213 2780 3570 
Q 2616 3928 2228 3928 
Q 1841 3928 1675 3570 
Q 1509 3213 1509 2338 
Q 1509 1453 1675 1090 
Q 1841 728 2228 728 
Q 2613 728 2778 1090 
Q 2944 1453 2944 2338 
z
M 4147 2328 
Q 4147 1169 3647 539 
Q 3147 -91 2228 -91 
Q 1306 -91 806 539 
Q 306 1169 306 2328 
Q 306 3491 806 4120 
Q 1306 4750 2228 4750 
Q 3147 4750 3647 4120 
Q 4147 3491 4147 2328 
z
" transform="scale(0.015625)"/>
      <path id="DejaVuSans-Bold-2e" d="M 653 1209 
L 1778 1209 
L 1778 0 
L 653 0 
L 653 1209 
z
" transform="scale(0.015625)"/>
      <path id="DejaVuSans-Bold-37" d="M 428 4666 
L 3944 4666 
L 3944 3988 
L 2125 0 
L 953 0 
L 2675 3781 
L 428 3781 
L 428 4666 
z
" transform="scale(0.015625)"/>
      <path id="DejaVuSans-Bold-29" d="M 513 -844 
Q 913 -100 1113 609 
Q 1313 1319 1313 2009 
Q 1313 2700 1113 3408 
Q 913 4116 513 4856 
L 1441 4856 
Q 1916 4091 2145 3389 
Q 2375 2688 2375 2003 
Q 2375 1319 2147 623 
Q 1919 -72 1441 -844 
L 513 -844 
z
" transform="scale(0.015625)"/>
     </defs>
     <use xlink:href="#DejaVuSans-Bold-53"/>
     <use xlink:href="#DejaVuSans-Bold-4f" transform="translate(72.021484 0)"/>
     <use xlink:href="#DejaVuSans-Bold-43" transform="translate(157.03125 0)"/>
     <use xlink:href="#DejaVuSans-Bold-45" transform="translate(230.419922 0)"/>
     <use xlink:href="#DejaVuSans-Bold-2c" transform="translate(298.730469 0)"/>
     <use xlink:href="#DejaVuSans-Bold-20" transform="translate(336.71875 0)"/>
     <use xlink:href="#DejaVuSans-Bold-45" transform="translate(371.533203 0)"/>
     <use xlink:href="#DejaVuSans-Bold-4d" transform="translate(439.84375 0)"/>
     <use xlink:href="#DejaVuSans-Bold-54" transform="translate(539.355469 0)"/>
     <use xlink:href="#DejaVuSans-Bold-2c" transform="translate(593.318359 0)"/>
     <use xlink:href="#DejaVuSans-Bold-20" transform="translate(631.306641 0)"/>
     <use xlink:href="#DejaVuSans-Bold-61" transform="translate(666.121094 0)"/>
     <use xlink:href="#DejaVuSans-Bold-6e" transform="translate(733.601562 0)"/>
     <use xlink:href="#DejaVuSans-Bold-64" transform="translate(804.792969 0)"/>
     <use xlink:href="#DejaVuSans-Bold-20" transform="translate(876.375 0)"/>
     <use xlink:href="#DejaVuSans-Bold-4d" transform="translate(911.189453 0)"/>
     <use xlink:href="#DejaVuSans-Bold-44" transform="translate(1010.701172 0)"/>
     <use xlink:href="#DejaVuSans-Bold-52" transform="translate(1093.708984 0)"/>
     <use xlink:href="#DejaVuSans-Bold-20" transform="translate(1170.710938 0)"/>
     <use xlink:href="#DejaVuSans-Bold-47" transform="translate(1205.525391 0)"/>
     <use xlink:href="#DejaVuSans-Bold-65" transform="translate(1287.605469 0)"/>
     <use xlink:href="#DejaVuSans-Bold-6e" transform="translate(1355.427734 0)"/>
     <use xlink:href="#DejaVuSans-Bold-65" transform="translate(1426.619141 0)"/>
     <use xlink:href="#DejaVuSans-Bold-73" transform="translate(1494.441406 0)"/>
     <use xlink:href="#DejaVuSans-Bold-20" transform="translate(1553.962891 0)"/>
     <use xlink:href="#DejaVuSans-Bold-28" transform="translate(1588.777344 0)"/>
     <use xlink:href="#DejaVuSans-Bold-53" transform="translate(1634.480469 0)"/>
     <use xlink:href="#DejaVuSans-Bold-54" transform="translate(1706.501953 0)"/>
     <use xlink:href="#DejaVuSans-Bold-52" transform="translate(1774.714844 0)"/>
     <use xlink:href="#DejaVuSans-Bold-49" transform="translate(1851.716797 0)"/>
     <use xlink:href="#DejaVuSans-Bold-4e" transform="translate(1888.923828 0)"/>
     <use xlink:href="#DejaVuSans-Bold-47" transform="translate(1972.615234 0)"/>
     <use xlink:href="#DejaVuSans-Bold-20" transform="translate(2054.695312 0)"/>
     <use xlink:href="#DejaVuSans-Bold-44" transform="translate(2089.509766 0)"/>
     <use xlink:href="#DejaVuSans-Bold-61" transform="translate(2172.517578 0)"/>
     <use xlink:href="#DejaVuSans-Bold-74" transform="translate(2239.998047 0)"/>
     <use xlink:href="#DejaVuSans-Bold-61" transform="translate(2287.800781 0)"/>
     <use xlink:href="#DejaVuSans-Bold-62" transform="translate(2355.28125 0)"/>
     <use xlink:href="#DejaVuSans-Bold-61" transform="translate(2426.863281 0)"/>
     <use xlink:href="#DejaVuSans-Bold-73" transform="translate(2494.34375 0)"/>
     <use xlink:href="#DejaVuSans-Bold-65" transform="translate(2553.865234 0)"/>
     <use xlink:href="#DejaVuSans-Bold-2c" transform="translate(2621.6875 0)"/>
     <use xlink:href="#DejaVuSans-Bold-20" transform="translate(2659.675781 0)"/>
     <use xlink:href="#DejaVuSans-Bold-53" transform="translate(2694.490234 0)"/>
     <use xlink:href="#DejaVuSans-Bold-63" transform="translate(2766.511719 0)"/>
     <use xlink:href="#DejaVuSans-Bold-6f" transform="translate(2825.789062 0)"/>
     <use xlink:href="#DejaVuSans-Bold-72" transform="translate(2894.490234 0)"/>
     <use xlink:href="#DejaVuSans-Bold-65" transform="translate(2943.806641 0)"/>
     <use xlink:href="#DejaVuSans-Bold-20" transform="translate(3011.628906 0)"/>
     <use xlink:href="#DejaVuSans-Bold-2265" transform="translate(3046.443359 0)"/>
     <use xlink:href="#DejaVuSans-Bold-20" transform="translate(3130.232422 0)"/>
     <use xlink:href="#DejaVuSans-Bold-30" transform="translate(3165.046875 0)"/>
     <use xlink:href="#DejaVuSans-Bold-2e" transform="translate(3234.626953 0)"/>
     <use xlink:href="#DejaVuSans-Bold-37" transform="translate(3272.615234 0)"/>
     <use xlink:href="#DejaVuSans-Bold-29" transform="translate(3342.195312 0)"/>
    </g>
   </g>
   <g id="legend_1">
    <g id="patch_2">
     <path d="M 14.2 772.27475 
L 262.984375 772.27475 
Q 264.984375 772.27475 264.984375 770.27475 
L 264.984375 712.56225 
Q 264.984375 710.56225 262.984375 710.56225 
L 14.2 710.56225 
Q 12.2 710.56225 12.2 712.56225 
L 12.2 770.27475 
Q 12.2 772.27475 14.2 772.27475 
z
" style="fill: #ffffff; opacity: 0.9; stroke: #cccccc; stroke-linejoin: miter"/>
    </g>
    <g id="patch_3">
     <path d="M 16.2 722.160687 
L 36.2 722.160687 
L 36.2 715.160687 
L 16.2 715.160687 
z
" style="fill: #e74c3c; stroke: #e74c3c; stroke-linejoin: miter"/>
    </g>
    <g id="text_12">
     <!-- SOCE genes (TRPC1, TRPC6, STIM1, ORAI1) -->
     <g transform="translate(44.2 722.160687) scale(0.1 -0.1)">
      <defs>
       <path id="DejaVuSans-53" d="M 3425 4513 
L 3425 3897 
Q 3066 4069 2747 4153 
Q 2428 4238 2131 4238 
Q 1616 4238 1336 4038 
Q 1056 3838 1056 3469 
Q 1056 3159 1242 3001 
Q 1428 2844 1947 2747 
L 2328 2669 
Q 3034 2534 3370 2195 
Q 3706 1856 3706 1288 
Q 3706 609 3251 259 
Q 2797 -91 1919 -91 
Q 1588 -91 1214 -16 
Q 841 59 441 206 
L 441 856 
Q 825 641 1194 531 
Q 1563 422 1919 422 
Q 2459 422 2753 634 
Q 3047 847 3047 1241 
Q 3047 1584 2836 1778 
Q 2625 1972 2144 2069 
L 1759 2144 
Q 1053 2284 737 2584 
Q 422 2884 422 3419 
Q 422 4038 858 4394 
Q 1294 4750 2059 4750 
Q 2388 4750 2728 4690 
Q 3069 4631 3425 4513 
z
" transform="scale(0.015625)"/>
       <path id="DejaVuSans-45" d="M 628 4666 
L 3578 4666 
L 3578 4134 
L 1259 4134 
L 1259 2753 
L 3481 2753 
L 3481 2222 
L 1259 2222 
L 1259 531 
L 3634 531 
L 3634 0 
L 628 0 
L 628 4666 
z
" transform="scale(0.015625)"/>
       <path id="DejaVuSans-20" transform="scale(0.015625)"/>
       <path id="DejaVuSans-67" d="M 2906 1791 
Q 2906 2416 2648 2759 
Q 2391 3103 1925 3103 
Q 1463 3103 1205 2759 
Q 947 2416 947 1791 
Q 947 1169 1205 825 
Q 1463 481 1925 481 
Q 2391 481 2648 825 
Q 2906 1169 2906 1791 
z
M 3481 434 
Q 3481 -459 3084 -895 
Q 2688 -1331 1869 -1331 
Q 1566 -1331 1297 -1286 
Q 1028 -1241 775 -1147 
L 775 -588 
Q 1028 -725 1275 -790 
Q 1522 -856 1778 -856 
Q 2344 -856 2625 -561 
Q 2906 -266 2906 331 
L 2906 616 
Q 2728 306 2450 153 
Q 2172 0 1784 0 
Q 1141 0 747 490 
Q 353 981 353 1791 
Q 353 2603 747 3093 
Q 1141 3584 1784 3584 
Q 2172 3584 2450 3431 
Q 2728 3278 2906 2969 
L 2906 3500 
L 3481 3500 
L 3481 434 
z
" transform="scale(0.015625)"/>
       <path id="DejaVuSans-65" d="M 3597 1894 
L 3597 1613 
L 953 1613 
Q 991 1019 1311 708 
Q 1631 397 2203 397 
Q 2534 397 2845 478 
Q 3156 559 3463 722 
L 3463 178 
Q 3153 47 2828 -22 
Q 2503 -91 2169 -91 
Q 1331 -91 842 396 
Q 353 884 353 1716 
Q 353 2575 817 3079 
Q 1281 3584 2069 3584 
Q 2775 3584 3186 3129 
Q 3597 2675 3597 1894 
z
M 3022 2063 
Q 3016 2534 2758 2815 
Q 2500 3097 2075 3097 
Q 1594 3097 1305 2825 
Q 1016 2553 972 2059 
L 3022 2063 
z
" transform="scale(0.015625)"/>
       <path id="DejaVuSans-6e" d="M 3513 2113 
L 3513 0 
L 2938 0 
L 2938 2094 
Q 2938 2591 2744 2837 
Q 2550 3084 2163 3084 
Q 1697 3084 1428 2787 
Q 1159 2491 1159 1978 
L 1159 0 
L 581 0 
L 581 3500 
L 1159 3500 
L 1159 2956 
Q 1366 3272 1645 3428 
Q 1925 3584 2291 3584 
Q 2894 3584 3203 3211 
Q 3513 2838 3513 2113 
z
" transform="scale(0.015625)"/>
       <path id="DejaVuSans-73" d="M 2834 3397 
L 2834 2853 
Q 2591 2978 2328 3040 
Q 2066 3103 1784 3103 
Q 1356 3103 1142 2972 
Q 928 2841 928 2578 
Q 928 2378 1081 2264 
Q 1234 2150 1697 2047 
L 1894 2003 
Q 2506 1872 2764 1633 
Q 3022 1394 3022 966 
Q 3022 478 2636 193 
Q 2250 -91 1575 -91 
Q 1294 -91 989 -36 
Q 684 19 347 128 
L 347 722 
Q 666 556 975 473 
Q 1284 391 1588 391 
Q 1994 391 2212 530 
Q 2431 669 2431 922 
Q 2431 1156 2273 1281 
Q 2116 1406 1581 1522 
L 1381 1569 
Q 847 1681 609 1914 
Q 372 2147 372 2553 
Q 372 3047 722 3315 
Q 1072 3584 1716 3584 
Q 2034 3584 2315 3537 
Q 2597 3491 2834 3397 
z
" transform="scale(0.015625)"/>
       <path id="DejaVuSans-28" d="M 1984 4856 
Q 1566 4138 1362 3434 
Q 1159 2731 1159 2009 
Q 1159 1288 1364 580 
Q 1569 -128 1984 -844 
L 1484 -844 
Q 1016 -109 783 600 
Q 550 1309 550 2009 
Q 550 2706 781 3412 
Q 1013 4119 1484 4856 
L 1984 4856 
z
" transform="scale(0.015625)"/>
       <path id="DejaVuSans-31" d="M 794 531 
L 1825 531 
L 1825 4091 
L 703 3866 
L 703 4441 
L 1819 4666 
L 2450 4666 
L 2450 531 
L 3481 531 
L 3481 0 
L 794 0 
L 794 531 
z
" transform="scale(0.015625)"/>
       <path id="DejaVuSans-2c" d="M 750 794 
L 1409 794 
L 1409 256 
L 897 -744 
L 494 -744 
L 750 256 
L 750 794 
z
" transform="scale(0.015625)"/>
       <path id="DejaVuSans-36" d="M 2113 2584 
Q 1688 2584 1439 2293 
Q 1191 2003 1191 1497 
Q 1191 994 1439 701 
Q 1688 409 2113 409 
Q 2538 409 2786 701 
Q 3034 994 3034 1497 
Q 3034 2003 2786 2293 
Q 2538 2584 2113 2584 
z
M 3366 4563 
L 3366 3988 
Q 3128 4100 2886 4159 
Q 2644 4219 2406 4219 
Q 1781 4219 1451 3797 
Q 1122 3375 1075 2522 
Q 1259 2794 1537 2939 
Q 1816 3084 2150 3084 
Q 2853 3084 3261 2657 
Q 3669 2231 3669 1497 
Q 3669 778 3244 343 
Q 2819 -91 2113 -91 
Q 1303 -91 875 529 
Q 447 1150 447 2328 
Q 447 3434 972 4092 
Q 1497 4750 2381 4750 
Q 2619 4750 2861 4703 
Q 3103 4656 3366 4563 
z
" transform="scale(0.015625)"/>
       <path id="DejaVuSans-4d" d="M 628 4666 
L 1569 4666 
L 2759 1491 
L 3956 4666 
L 4897 4666 
L 4897 0 
L 4281 0 
L 4281 4097 
L 3078 897 
L 2444 897 
L 1241 4097 
L 1241 0 
L 628 0 
L 628 4666 
z
" transform="scale(0.015625)"/>
       <path id="DejaVuSans-29" d="M 513 4856 
L 1013 4856 
Q 1481 4119 1714 3412 
Q 1947 2706 1947 2009 
Q 1947 1309 1714 600 
Q 1481 -109 1013 -844 
L 513 -844 
Q 928 -128 1133 580 
Q 1338 1288 1338 2009 
Q 1338 2731 1133 3434 
Q 928 4138 513 4856 
z
" transform="scale(0.015625)"/>
      </defs>
      <use xlink:href="#DejaVuSans-53"/>
      <use xlink:href="#DejaVuSans-4f" transform="translate(63.476562 0)"/>
      <use xlink:href="#DejaVuSans-43" transform="translate(142.1875 0)"/>
      <use xlink:href="#DejaVuSans-45" transform="translate(212.011719 0)"/>
      <use xlink:href="#DejaVuSans-20" transform="translate(275.195312 0)"/>
      <use xlink:href="#DejaVuSans-67" transform="translate(306.982422 0)"/>
      <use xlink:href="#DejaVuSans-65" transform="translate(370.458984 0)"/>
      <use xlink:href="#DejaVuSans-6e" transform="translate(431.982422 0)"/>
      <use xlink:href="#DejaVuSans-65" transform="translate(495.361328 0)"/>
      <use xlink:href="#DejaVuSans-73" transform="translate(556.884766 0)"/>
      <use xlink:href="#DejaVuSans-20" transform="translate(608.984375 0)"/>
      <use xlink:href="#DejaVuSans-28" transform="translate(640.771484 0)"/>
      <use xlink:href="#DejaVuSans-54" transform="translate(679.785156 0)"/>
      <use xlink:href="#DejaVuSans-52" transform="translate(740.869141 0)"/>
      <use xlink:href="#DejaVuSans-50" transform="translate(810.351562 0)"/>
      <use xlink:href="#DejaVuSans-43" transform="translate(870.654297 0)"/>
      <use xlink:href="#DejaVuSans-31" transform="translate(940.478516 0)"/>
      <use xlink:href="#DejaVuSans-2c" transform="translate(1004.101562 0)"/>
      <use xlink:href="#DejaVuSans-20" transform="translate(1035.888672 0)"/>
      <use xlink:href="#DejaVuSans-54" transform="translate(1067.675781 0)"/>
      <use xlink:href="#DejaVuSans-52" transform="translate(1128.759766 0)"/>
      <use xlink:href="#DejaVuSans-50" transform="translate(1198.242188 0)"/>
      <use xlink:href="#DejaVuSans-43" transform="translate(1258.544922 0)"/>
      <use xlink:href="#DejaVuSans-36" transform="translate(1328.369141 0)"/>
      <use xlink:href="#DejaVuSans-2c" transform="translate(1391.992188 0)"/>
      <use xlink:href="#DejaVuSans-20" transform="translate(1423.779297 0)"/>
      <use xlink:href="#DejaVuSans-53" transform="translate(1455.566406 0)"/>
      <use xlink:href="#DejaVuSans-54" transform="translate(1519.042969 0)"/>
      <use xlink:href="#DejaVuSans-49" transform="translate(1580.126953 0)"/>
      <use xlink:href="#DejaVuSans-4d" transform="translate(1609.619141 0)"/>
      <use xlink:href="#DejaVuSans-31" transform="translate(1695.898438 0)"/>
      <use xlink:href="#DejaVuSans-2c" transform="translate(1759.521484 0)"/>
      <use xlink:href="#DejaVuSans-20" transform="translate(1791.308594 0)"/>
      <use xlink:href="#DejaVuSans-4f" transform="translate(1823.095703 0)"/>
      <use xlink:href="#DejaVuSans-52" transform="translate(1901.806641 0)"/>
      <use xlink:href="#DejaVuSans-41" transform="translate(1967.289062 0)"/>
      <use xlink:href="#DejaVuSans-49" transform="translate(2035.697266 0)"/>
      <use xlink:href="#DejaVuSans-31" transform="translate(2065.189453 0)"/>
      <use xlink:href="#DejaVuSans-29" transform="translate(2128.8125 0)"/>
     </g>
    </g>
    <g id="patch_4">
     <path d="M 16.2 736.838813 
L 36.2 736.838813 
L 36.2 729.838813 
L 16.2 729.838813 
z
" style="fill: #2980b9; stroke: #2980b9; stroke-linejoin: miter"/>
    </g>
    <g id="text_13">
     <!-- EMT genes (VIM, CDH1, CDH2) -->
     <g transform="translate(44.2 736.838813) scale(0.1 -0.1)">
      <defs>
       <path id="DejaVuSans-56" d="M 1831 0 
L 50 4666 
L 709 4666 
L 2188 738 
L 3669 4666 
L 4325 4666 
L 2547 0 
L 1831 0 
z
" transform="scale(0.015625)"/>
       <path id="DejaVuSans-44" d="M 1259 4147 
L 1259 519 
L 2022 519 
Q 2988 519 3436 956 
Q 3884 1394 3884 2338 
Q 3884 3275 3436 3711 
Q 2988 4147 2022 4147 
L 1259 4147 
z
M 628 4666 
L 1925 4666 
Q 3281 4666 3915 4102 
Q 4550 3538 4550 2338 
Q 4550 1131 3912 565 
Q 3275 0 1925 0 
L 628 0 
L 628 4666 
z
" transform="scale(0.015625)"/>
       <path id="DejaVuSans-48" d="M 628 4666 
L 1259 4666 
L 1259 2753 
L 3553 2753 
L 3553 4666 
L 4184 4666 
L 4184 0 
L 3553 0 
L 3553 2222 
L 1259 2222 
L 1259 0 
L 628 0 
L 628 4666 
z
" transform="scale(0.015625)"/>
      </defs>
      <use xlink:href="#DejaVuSans-45"/>
      <use xlink:href="#DejaVuSans-4d" transform="translate(63.183594 0)"/>
      <use xlink:href="#DejaVuSans-54" transform="translate(149.462891 0)"/>
      <use xlink:href="#DejaVuSans-20" transform="translate(210.546875 0)"/>
      <use xlink:href="#DejaVuSans-67" transform="translate(242.333984 0)"/>
      <use xlink:href="#DejaVuSans-65" transform="translate(305.810547 0)"/>
      <use xlink:href="#DejaVuSans-6e" transform="translate(367.333984 0)"/>
      <use xlink:href="#DejaVuSans-65" transform="translate(430.712891 0)"/>
      <use xlink:href="#DejaVuSans-73" transform="translate(492.236328 0)"/>
      <use xlink:href="#DejaVuSans-20" transform="translate(544.335938 0)"/>
      <use xlink:href="#DejaVuSans-28" transform="translate(576.123047 0)"/>
      <use xlink:href="#DejaVuSans-56" transform="translate(615.136719 0)"/>
      <use xlink:href="#DejaVuSans-49" transform="translate(683.544922 0)"/>
      <use xlink:href="#DejaVuSans-4d" transform="translate(713.037109 0)"/>
      <use xlink:href="#DejaVuSans-2c" transform="translate(799.316406 0)"/>
      <use xlink:href="#DejaVuSans-20" transform="translate(831.103516 0)"/>
      <use xlink:href="#DejaVuSans-43" transform="translate(862.890625 0)"/>
      <use xlink:href="#DejaVuSans-44" transform="translate(932.714844 0)"/>
      <use xlink:href="#DejaVuSans-48" transform="translate(1009.716797 0)"/>
      <use xlink:href="#DejaVuSans-31" transform="translate(1084.912109 0)"/>
      <use xlink:href="#DejaVuSans-2c" transform="translate(1148.535156 0)"/>
      <use xlink:href="#DejaVuSans-20" transform="translate(1180.322266 0)"/>
      <use xlink:href="#DejaVuSans-43" transform="translate(1212.109375 0)"/>
      <use xlink:href="#DejaVuSans-44" transform="translate(1281.933594 0)"/>
      <use xlink:href="#DejaVuSans-48" transform="translate(1358.935547 0)"/>
      <use xlink:href="#DejaVuSans-32" transform="translate(1434.130859 0)"/>
      <use xlink:href="#DejaVuSans-29" transform="translate(1497.753906 0)"/>
     </g>
    </g>
    <g id="patch_5">
     <path d="M 16.2 751.516937 
L 36.2 751.516937 
L 36.2 744.516937 
L 16.2 744.516937 
z
" style="fill: #27ae60; stroke: #27ae60; stroke-linejoin: miter"/>
    </g>
    <g id="text_14">
     <!-- MDR gene (ABCB1) -->
     <g transform="translate(44.2 751.516937) scale(0.1 -0.1)">
      <defs>
       <path id="DejaVuSans-42" d="M 1259 2228 
L 1259 519 
L 2272 519 
Q 2781 519 3026 730 
Q 3272 941 3272 1375 
Q 3272 1813 3026 2020 
Q 2781 2228 2272 2228 
L 1259 2228 
z
M 1259 4147 
L 1259 2741 
L 2194 2741 
Q 2656 2741 2882 2914 
Q 3109 3088 3109 3444 
Q 3109 3797 2882 3972 
Q 2656 4147 2194 4147 
L 1259 4147 
z
M 628 4666 
L 2241 4666 
Q 2963 4666 3353 4366 
Q 3744 4066 3744 3513 
Q 3744 3084 3544 2831 
Q 3344 2578 2956 2516 
Q 3422 2416 3680 2098 
Q 3938 1781 3938 1306 
Q 3938 681 3513 340 
Q 3088 0 2303 0 
L 628 0 
L 628 4666 
z
" transform="scale(0.015625)"/>
      </defs>
      <use xlink:href="#DejaVuSans-4d"/>
      <use xlink:href="#DejaVuSans-44" transform="translate(86.279297 0)"/>
      <use xlink:href="#DejaVuSans-52" transform="translate(163.28125 0)"/>
      <use xlink:href="#DejaVuSans-20" transform="translate(232.763672 0)"/>
      <use xlink:href="#DejaVuSans-67" transform="translate(264.550781 0)"/>
      <use xlink:href="#DejaVuSans-65" transform="translate(328.027344 0)"/>
      <use xlink:href="#DejaVuSans-6e" transform="translate(389.550781 0)"/>
      <use xlink:href="#DejaVuSans-65" transform="translate(452.929688 0)"/>
      <use xlink:href="#DejaVuSans-20" transform="translate(514.453125 0)"/>
      <use xlink:href="#DejaVuSans-28" transform="translate(546.240234 0)"/>
      <use xlink:href="#DejaVuSans-41" transform="translate(585.253906 0)"/>
      <use xlink:href="#DejaVuSans-42" transform="translate(653.662109 0)"/>
      <use xlink:href="#DejaVuSans-43" transform="translate(720.515625 0)"/>
      <use xlink:href="#DejaVuSans-42" transform="translate(790.339844 0)"/>
      <use xlink:href="#DejaVuSans-31" transform="translate(858.943359 0)"/>
      <use xlink:href="#DejaVuSans-29" transform="translate(922.566406 0)"/>
     </g>
    </g>
    <g id="patch_6">
     <path d="M 16.2 766.195062 
L 36.2 766.195062 
L 36.2 759.195062 
L 16.2 759.195062 
z
" style="fill: #bdc3c7; stroke: #bdc3c7; stroke-linejoin: miter"/>
    </g>
    <g id="text_15">
     <!-- Interaction partners -->
     <g transform="translate(44.2 766.195062) scale(0.1 -0.1)">
      <defs>
       <path id="DejaVuSans-74" d="M 1172 4494 
L 1172 3500 
L 2356 3500 
L 2356 3053 
L 1172 3053 
L 1172 1153 
Q 1172 725 1289 603 
Q 1406 481 1766 481 
L 2356 481 
L 2356 0 
L 1766 0 
Q 1100 0 847 248 
Q 594 497 594 1153 
L 594 3053 
L 172 3053 
L 172 3500 
L 594 3500 
L 594 4494 
L 1172 4494 
z
" transform="scale(0.015625)"/>
       <path id="DejaVuSans-72" d="M 2631 2963 
Q 2534 3019 2420 3045 
Q 2306 3072 2169 3072 
Q 1681 3072 1420 2755 
Q 1159 2438 1159 1844 
L 1159 0 
L 581 0 
L 581 3500 
L 1159 3500 
L 1159 2956 
Q 1341 3275 1631 3429 
Q 1922 3584 2338 3584 
Q 2397 3584 2469 3576 
Q 2541 3569 2628 3553 
L 2631 2963 
z
" transform="scale(0.015625)"/>
       <path id="DejaVuSans-61" d="M 2194 1759 
Q 1497 1759 1228 1600 
Q 959 1441 959 1056 
Q 959 750 1161 570 
Q 1363 391 1709 391 
Q 2188 391 2477 730 
Q 2766 1069 2766 1631 
L 2766 1759 
L 2194 1759 
z
M 3341 1997 
L 3341 0 
L 2766 0 
L 2766 531 
Q 2569 213 2275 61 
Q 1981 -91 1556 -91 
Q 1019 -91 701 211 
Q 384 513 384 1019 
Q 384 1609 779 1909 
Q 1175 2209 1959 2209 
L 2766 2209 
L 2766 2266 
Q 2766 2663 2505 2880 
Q 2244 3097 1772 3097 
Q 1472 3097 1187 3025 
Q 903 2953 641 2809 
L 641 3341 
Q 956 3463 1253 3523 
Q 1550 3584 1831 3584 
Q 2591 3584 2966 3190 
Q 3341 2797 3341 1997 
z
" transform="scale(0.015625)"/>
       <path id="DejaVuSans-63" d="M 3122 3366 
L 3122 2828 
Q 2878 2963 2633 3030 
Q 2388 3097 2138 3097 
Q 1578 3097 1268 2742 
Q 959 2388 959 1747 
Q 959 1106 1268 751 
Q 1578 397 2138 397 
Q 2388 397 2633 464 
Q 2878 531 3122 666 
L 3122 134 
Q 2881 22 2623 -34 
Q 2366 -91 2075 -91 
Q 1284 -91 818 406 
Q 353 903 353 1747 
Q 353 2603 823 3093 
Q 1294 3584 2113 3584 
Q 2378 3584 2631 3529 
Q 2884 3475 3122 3366 
z
" transform="scale(0.015625)"/>
       <path id="DejaVuSans-69" d="M 603 3500 
L 1178 3500 
L 1178 0 
L 603 0 
L 603 3500 
z
M 603 4863 
L 1178 4863 
L 1178 4134 
L 603 4134 
L 603 4863 
z
" transform="scale(0.015625)"/>
       <path id="DejaVuSans-6f" d="M 1959 3097 
Q 1497 3097 1228 2736 
Q 959 2375 959 1747 
Q 959 1119 1226 758 
Q 1494 397 1959 397 
Q 2419 397 2687 759 
Q 2956 1122 2956 1747 
Q 2956 2369 2687 2733 
Q 2419 3097 1959 3097 
z
M 1959 3584 
Q 2709 3584 3137 3096 
Q 3566 2609 3566 1747 
Q 3566 888 3137 398 
Q 2709 -91 1959 -91 
Q 1206 -91 779 398 
Q 353 888 353 1747 
Q 353 2609 779 3096 
Q 1206 3584 1959 3584 
z
" transform="scale(0.015625)"/>
       <path id="DejaVuSans-70" d="M 1159 525 
L 1159 -1331 
L 581 -1331 
L 581 3500 
L 1159 3500 
L 1159 2969 
Q 1341 3281 1617 3432 
Q 1894 3584 2278 3584 
Q 2916 3584 3314 3078 
Q 3713 2572 3713 1747 
Q 3713 922 3314 415 
Q 2916 -91 2278 -91 
Q 1894 -91 1617 61 
Q 1341 213 1159 525 
z
M 3116 1747 
Q 3116 2381 2855 2742 
Q 2594 3103 2138 3103 
Q 1681 3103 1420 2742 
Q 1159 2381 1159 1747 
Q 1159 1113 1420 752 
Q 1681 391 2138 391 
Q 2594 391 2855 752 
Q 3116 1113 3116 1747 
z
" transform="scale(0.015625)"/>
      </defs>
      <use xlink:href="#DejaVuSans-49"/>
      <use xlink:href="#DejaVuSans-6e" transform="translate(29.492188 0)"/>
      <use xlink:href="#DejaVuSans-74" transform="translate(92.871094 0)"/>
      <use xlink:href="#DejaVuSans-65" transform="translate(132.080078 0)"/>
      <use xlink:href="#DejaVuSans-72" transform="translate(193.603516 0)"/>
      <use xlink:href="#DejaVuSans-61" transform="translate(234.716797 0)"/>
      <use xlink:href="#DejaVuSans-63" transform="translate(295.996094 0)"/>
      <use xlink:href="#DejaVuSans-74" transform="translate(350.976562 0)"/>
      <use xlink:href="#DejaVuSans-69" transform="translate(390.185547 0)"/>
      <use xlink:href="#DejaVuSans-6f" transform="translate(417.96875 0)"/>
      <use xlink:href="#DejaVuSans-6e" transform="translate(479.150391 0)"/>
      <use xlink:href="#DejaVuSans-20" transform="translate(542.529297 0)"/>
      <use xlink:href="#DejaVuSans-70" transform="translate(574.316406 0)"/>
      <use xlink:href="#DejaVuSans-61" transform="translate(637.792969 0)"/>
      <use xlink:href="#DejaVuSans-72" transform="translate(699.072266 0)"/>
      <use xlink:href="#DejaVuSans-74" transform="translate(740.185547 0)"/>
      <use xlink:href="#DejaVuSans-6e" transform="translate(779.394531 0)"/>
      <use xlink:href="#DejaVuSans-65" transform="translate(842.773438 0)"/>
      <use xlink:href="#DejaVuSans-72" transform="translate(904.296875 0)"/>
      <use xlink:href="#DejaVuSans-73" transform="translate(945.410156 0)"/>
     </g>
    </g>
   </g>
  </g>
 </g>
 <defs>
  <clipPath id="p7444121f15">
   <rect x="7.2" y="39.51475" width="986.4" height="737.76"/>
  </clipPath>
 </defs>
</svg>
