<?xml version="1.0" encoding="utf-8" standalone="no"?>
<!DOCTYPE svg PUBLIC "-//W3C//DTD SVG 1.1//EN"
  "http://www.w3.org/Graphics/SVG/1.1/DTD/svg11.dtd">
<svg xmlns:xlink="http://www.w3.org/1999/xlink" width="1000.8pt" height="784.452812pt" viewBox="0 0 1000.8 784.452812" xmlns="http://www.w3.org/2000/svg" version="1.1">
 <metadata>
  <rdf:RDF xmlns:dc="http://purl.org/dc/elements/1.1/" xmlns:cc="http://creativecommons.org/ns#" xmlns:rdf="http://www.w3.org/1999/02/22-rdf-syntax-ns#">
   <cc:Work>
    <dc:type rdf:resource="http://purl.org/dc/dcmitype/StillImage"/>
    <dc:date>2026-07-04T18:24:46.342544</dc:date>
    <dc:format>image/svg+xml</dc:format>
    <dc:creator>
     <cc:Agent>
      <dc:title>Matplotlib v3.11.0, https://matplotlib.org/</dc:title>
     </cc:Agent>
    </dc:creator>
   </cc:Work>
  </rdf:RDF>
 </metadata>
 <defs>
  <style type="text/css">*{stroke-linejoin: round; stroke-linecap: butt}</style>
 </defs>
 <g id="figure_1">
  <g id="patch_1">
   <path d="M 0 784.452812 
L 1000.8 784.452812 
L 1000.8 0 
L 0 0 
z
" style="fill: #ffffff"/>
  </g>
  <g id="axes_1">
   <g id="LineCollection_1">
    <path d="M 521.085175 104.012709 
L 908.003306 403.212047 
" clip-path="url(#p5aec25b044)" style="fill: none; stroke: #f7fbff; stroke-opacity: 0.6; stroke-width: 0.00126"/>
    <path d="M 521.085175 104.012709 
L 223.427007 675.004061 
" clip-path="url(#p5aec25b044)" style="fill: none; stroke: #e9f2fa; stroke-opacity: 0.6; stroke-width: 0.001383"/>
    <path d="M 521.085175 104.012709 
L 92.796694 287.151084 
" clip-path="url(#p5aec25b044)" style="fill: none; stroke: #e4eff9; stroke-opacity: 0.6; stroke-width: 0.001428"/>
    <path d="M 521.085175 104.012709 
L 838.844067 266.966589 
" clip-path="url(#p5aec25b044)" style="fill: none; stroke: #e0ecf8; stroke-opacity: 0.6; stroke-width: 0.001461"/>
    <path d="M 521.085175 104.012709 
L 212.008551 151.75126 
" clip-path="url(#p5aec25b044)" style="fill: none; stroke: #dfecf7; stroke-opacity: 0.6; stroke-width: 0.001464"/>
    <path d="M 521.085175 104.012709 
L 898.691832 559.531563 
" clip-path="url(#p5aec25b044)" style="fill: none; stroke: #dfecf7; stroke-opacity: 0.6; stroke-width: 0.00147"/>
    <path d="M 521.085175 104.012709 
L 407.539408 713.279771 
" clip-path="url(#p5aec25b044)" style="fill: none; stroke: #b8d5ea; stroke-opacity: 0.6; stroke-width: 0.00177"/>
    <path d="M 521.085175 104.012709 
L 372.495075 169.131829 
" clip-path="url(#p5aec25b044)" style="fill: none; stroke: #549fcd; stroke-opacity: 0.6; stroke-width: 0.002247"/>
    <path d="M 521.085175 104.012709 
L 586.416599 702.927483 
" clip-path="url(#p5aec25b044)" style="fill: none; stroke: #2373b6; stroke-opacity: 0.6; stroke-width: 0.002544"/>
    <path d="M 521.085175 104.012709 
L 756.868425 671.769321 
" clip-path="url(#p5aec25b044)" style="fill: none; stroke: #2171b5; stroke-opacity: 0.6; stroke-width: 0.002556"/>
    <path d="M 521.085175 104.012709 
L 150.513986 553.666064 
" clip-path="url(#p5aec25b044)" style="fill: none; stroke: #1b69af; stroke-opacity: 0.6; stroke-width: 0.002613"/>
    <path d="M 521.085175 104.012709 
L 701.69307 168.781594 
" clip-path="url(#p5aec25b044)" style="fill: none; stroke: #084990; stroke-opacity: 0.6; stroke-width: 0.002829"/>
    <path d="M 908.003306 403.212047 
L 92.796694 287.151084 
" clip-path="url(#p5aec25b044)" style="fill: none; stroke: #08306b; stroke-opacity: 0.6; stroke-width: 0.002991"/>
    <path d="M 908.003306 403.212047 
L 838.844067 266.966589 
" clip-path="url(#p5aec25b044)" style="fill: none; stroke: #2e7ebc; stroke-opacity: 0.6; stroke-width: 0.002475"/>
    <path d="M 908.003306 403.212047 
L 150.513986 553.666064 
" clip-path="url(#p5aec25b044)" style="fill: none; stroke: #3484bf; stroke-opacity: 0.6; stroke-width: 0.002439"/>
    <path d="M 908.003306 403.212047 
L 586.416599 702.927483 
" clip-path="url(#p5aec25b044)" style="fill: none; stroke: #5ca4d0; stroke-opacity: 0.6; stroke-width: 0.002208"/>
    <path d="M 908.003306 403.212047 
L 223.427007 675.004061 
" clip-path="url(#p5aec25b044)" style="fill: none; stroke: #2e7ebc; stroke-opacity: 0.6; stroke-width: 0.002475"/>
    <path d="M 908.003306 403.212047 
L 372.495075 169.131829 
" clip-path="url(#p5aec25b044)" style="fill: none; stroke: #7cb7da; stroke-opacity: 0.6; stroke-width: 0.002055"/>
    <path d="M 908.003306 403.212047 
L 701.69307 168.781594 
" clip-path="url(#p5aec25b044)" style="fill: none; stroke: #083370; stroke-opacity: 0.6; stroke-width: 0.00297"/>
    <path d="M 908.003306 403.212047 
L 94.855541 427.790342 
" clip-path="url(#p5aec25b044)" style="fill: none; stroke: #dbe9f6; stroke-opacity: 0.6; stroke-width: 0.001506"/>
    <path d="M 908.003306 403.212047 
L 898.691832 559.531563 
" clip-path="url(#p5aec25b044)" style="fill: none; stroke: #3282be; stroke-opacity: 0.6; stroke-width: 0.002448"/>
    <path d="M 908.003306 403.212047 
L 756.868425 671.769321 
" clip-path="url(#p5aec25b044)" style="fill: none; stroke: #08306b; stroke-opacity: 0.6; stroke-width: 0.002997"/>
    <path d="M 908.003306 403.212047 
L 407.539408 713.279771 
" clip-path="url(#p5aec25b044)" style="fill: none; stroke: #083c7d; stroke-opacity: 0.6; stroke-width: 0.002913"/>
    <path d="M 908.003306 403.212047 
L 212.008551 151.75126 
" clip-path="url(#p5aec25b044)" style="fill: none; stroke: #1764ab; stroke-opacity: 0.6; stroke-width: 0.002649"/>
    <path d="M 223.427007 675.004061 
L 92.796694 287.151084 
" clip-path="url(#p5aec25b044)" style="fill: none; stroke: #4292c6; stroke-opacity: 0.6; stroke-width: 0.002343"/>
    <path d="M 223.427007 675.004061 
L 838.844067 266.966589 
" clip-path="url(#p5aec25b044)" style="fill: none; stroke: #08306b; stroke-opacity: 0.6; stroke-width: 0.002994"/>
    <path d="M 223.427007 675.004061 
L 150.513986 553.666064 
" clip-path="url(#p5aec25b044)" style="fill: none; stroke: #083776; stroke-opacity: 0.6; stroke-width: 0.002949"/>
    <path d="M 223.427007 675.004061 
L 586.416599 702.927483 
" clip-path="url(#p5aec25b044)" style="fill: none; stroke: #f7fbff; stroke-opacity: 0.6; stroke-width: 0.001266"/>
    <path d="M 223.427007 675.004061 
L 372.495075 169.131829 
" clip-path="url(#p5aec25b044)" style="fill: none; stroke: #e7f0fa; stroke-opacity: 0.6; stroke-width: 0.001404"/>
    <path d="M 223.427007 675.004061 
L 94.855541 427.790342 
" clip-path="url(#p5aec25b044)" style="fill: none; stroke: #8dc1dd; stroke-opacity: 0.6; stroke-width: 0.001986"/>
    <path d="M 223.427007 675.004061 
L 701.69307 168.781594 
" clip-path="url(#p5aec25b044)" style="fill: none; stroke: #0f5aa3; stroke-opacity: 0.6; stroke-width: 0.002715"/>
    <path d="M 223.427007 675.004061 
L 756.868425 671.769321 
" clip-path="url(#p5aec25b044)" style="fill: none; stroke: #084082; stroke-opacity: 0.6; stroke-width: 0.002889"/>
    <path d="M 223.427007 675.004061 
L 212.008551 151.75126 
" clip-path="url(#p5aec25b044)" style="fill: none; stroke: #08326e; stroke-opacity: 0.6; stroke-width: 0.002982"/>
    <path d="M 223.427007 675.004061 
L 407.539408 713.279771 
" clip-path="url(#p5aec25b044)" style="fill: none; stroke: #08306b; stroke-opacity: 0.6; stroke-width: 0.002997"/>
    <path d="M 223.427007 675.004061 
L 898.691832 559.531563 
" clip-path="url(#p5aec25b044)" style="fill: none; stroke: #08306b; stroke-opacity: 0.6; stroke-width: 0.002997"/>
    <path d="M 92.796694 287.151084 
L 94.855541 427.790342 
" clip-path="url(#p5aec25b044)" style="fill: none; stroke: #ddeaf7; stroke-opacity: 0.6; stroke-width: 0.001485"/>
    <path d="M 92.796694 287.151084 
L 372.495075 169.131829 
" clip-path="url(#p5aec25b044)" style="fill: none; stroke: #92c4de; stroke-opacity: 0.6; stroke-width: 0.001962"/>
    <path d="M 92.796694 287.151084 
L 586.416599 702.927483 
" clip-path="url(#p5aec25b044)" style="fill: none; stroke: #65aad4; stroke-opacity: 0.6; stroke-width: 0.00216"/>
    <path d="M 92.796694 287.151084 
L 898.691832 559.531563 
" clip-path="url(#p5aec25b044)" style="fill: none; stroke: #4f9bcb; stroke-opacity: 0.6; stroke-width: 0.002274"/>
    <path d="M 92.796694 287.151084 
L 212.008551 151.75126 
" clip-path="url(#p5aec25b044)" style="fill: none; stroke: #4a98c9; stroke-opacity: 0.6; stroke-width: 0.002301"/>
    <path d="M 92.796694 287.151084 
L 838.844067 266.966589 
" clip-path="url(#p5aec25b044)" style="fill: none; stroke: #3d8dc4; stroke-opacity: 0.6; stroke-width: 0.002373"/>
    <path d="M 92.796694 287.151084 
L 150.513986 553.666064 
" clip-path="url(#p5aec25b044)" style="fill: none; stroke: #1b69af; stroke-opacity: 0.6; stroke-width: 0.002616"/>
    <path d="M 92.796694 287.151084 
L 701.69307 168.781594 
" clip-path="url(#p5aec25b044)" style="fill: none; stroke: #084387; stroke-opacity: 0.6; stroke-width: 0.002874"/>
    <path d="M 92.796694 287.151084 
L 407.539408 713.279771 
" clip-path="url(#p5aec25b044)" style="fill: none; stroke: #083b7c; stroke-opacity: 0.6; stroke-width: 0.002919"/>
    <path d="M 92.796694 287.151084 
L 756.868425 671.769321 
" clip-path="url(#p5aec25b044)" style="fill: none; stroke: #08306b; stroke-opacity: 0.6; stroke-width: 0.002997"/>
    <path d="M 838.844067 266.966589 
L 586.416599 702.927483 
" clip-path="url(#p5aec25b044)" style="fill: none; stroke: #e8f1fa; stroke-opacity: 0.6; stroke-width: 0.001395"/>
    <path d="M 838.844067 266.966589 
L 372.495075 169.131829 
" clip-path="url(#p5aec25b044)" style="fill: none; stroke: #b5d4e9; stroke-opacity: 0.6; stroke-width: 0.001785"/>
    <path d="M 838.844067 266.966589 
L 94.855541 427.790342 
" clip-path="url(#p5aec25b044)" style="fill: none; stroke: #8abfdd; stroke-opacity: 0.6; stroke-width: 0.001995"/>
    <path d="M 838.844067 266.966589 
L 150.513986 553.666064 
" clip-path="url(#p5aec25b044)" style="fill: none; stroke: #2f7fbc; stroke-opacity: 0.6; stroke-width: 0.002469"/>
    <path d="M 838.844067 266.966589 
L 756.868425 671.769321 
" clip-path="url(#p5aec25b044)" style="fill: none; stroke: #115ca5; stroke-opacity: 0.6; stroke-width: 0.002703"/>
    <path d="M 838.844067 266.966589 
L 701.69307 168.781594 
" clip-path="url(#p5aec25b044)" style="fill: none; stroke: #08478d; stroke-opacity: 0.6; stroke-width: 0.002844"/>
    <path d="M 838.844067 266.966589 
L 212.008551 151.75126 
" clip-path="url(#p5aec25b044)" style="fill: none; stroke: #08306b; stroke-opacity: 0.6; stroke-width: 0.002994"/>
    <path d="M 838.844067 266.966589 
L 898.691832 559.531563 
" clip-path="url(#p5aec25b044)" style="fill: none; stroke: #08306b; stroke-opacity: 0.6; stroke-width: 0.002997"/>
    <path d="M 838.844067 266.966589 
L 407.539408 713.279771 
" clip-path="url(#p5aec25b044)" style="fill: none; stroke: #08306b; stroke-opacity: 0.6; stroke-width: 0.002997"/>
    <path d="M 212.008551 151.75126 
L 150.513986 553.666064 
" clip-path="url(#p5aec25b044)" style="fill: none; stroke: #3888c1; stroke-opacity: 0.6; stroke-width: 0.002412"/>
    <path d="M 212.008551 151.75126 
L 586.416599 702.927483 
" clip-path="url(#p5aec25b044)" style="fill: none; stroke: #e8f1fa; stroke-opacity: 0.6; stroke-width: 0.001392"/>
    <path d="M 212.008551 151.75126 
L 372.495075 169.131829 
" clip-path="url(#p5aec25b044)" style="fill: none; stroke: #bad6eb; stroke-opacity: 0.6; stroke-width: 0.001761"/>
    <path d="M 212.008551 151.75126 
L 701.69307 168.781594 
" clip-path="url(#p5aec25b044)" style="fill: none; stroke: #084a91; stroke-opacity: 0.6; stroke-width: 0.002823"/>
    <path d="M 212.008551 151.75126 
L 94.855541 427.790342 
" clip-path="url(#p5aec25b044)" style="fill: none; stroke: #72b2d8; stroke-opacity: 0.6; stroke-width: 0.0021"/>
    <path d="M 212.008551 151.75126 
L 898.691832 559.531563 
" clip-path="url(#p5aec25b044)" style="fill: none; stroke: #08306b; stroke-opacity: 0.6; stroke-width: 0.002997"/>
    <path d="M 212.008551 151.75126 
L 756.868425 671.769321 
" clip-path="url(#p5aec25b044)" style="fill: none; stroke: #08316d; stroke-opacity: 0.6; stroke-width: 0.002988"/>
    <path d="M 212.008551 151.75126 
L 407.539408 713.279771 
" clip-path="url(#p5aec25b044)" style="fill: none; stroke: #08306b; stroke-opacity: 0.6; stroke-width: 0.002997"/>
    <path d="M 898.691832 559.531563 
L 150.513986 553.666064 
" clip-path="url(#p5aec25b044)" style="fill: none; stroke: #1663aa; stroke-opacity: 0.6; stroke-width: 0.002655"/>
    <path d="M 898.691832 559.531563 
L 372.495075 169.131829 
" clip-path="url(#p5aec25b044)" style="fill: none; stroke: #e2edf8; stroke-opacity: 0.6; stroke-width: 0.001449"/>
    <path d="M 898.691832 559.531563 
L 701.69307 168.781594 
" clip-path="url(#p5aec25b044)" style="fill: none; stroke: #1967ad; stroke-opacity: 0.6; stroke-width: 0.002628"/>
    <path d="M 898.691832 559.531563 
L 94.855541 427.790342 
" clip-path="url(#p5aec25b044)" style="fill: none; stroke: #87bddc; stroke-opacity: 0.6; stroke-width: 0.00201"/>
    <path d="M 898.691832 559.531563 
L 756.868425 671.769321 
" clip-path="url(#p5aec25b044)" style="fill: none; stroke: #084c95; stroke-opacity: 0.6; stroke-width: 0.002808"/>
    <path d="M 898.691832 559.531563 
L 407.539408 713.279771 
" clip-path="url(#p5aec25b044)" style="fill: none; stroke: #083573; stroke-opacity: 0.6; stroke-width: 0.002961"/>
    <path d="M 407.539408 713.279771 
L 150.513986 553.666064 
" clip-path="url(#p5aec25b044)" style="fill: none; stroke: #083c7d; stroke-opacity: 0.6; stroke-width: 0.002913"/>
    <path d="M 407.539408 713.279771 
L 586.416599 702.927483 
" clip-path="url(#p5aec25b044)" style="fill: none; stroke: #d7e6f5; stroke-opacity: 0.6; stroke-width: 0.001542"/>
    <path d="M 407.539408 713.279771 
L 372.495075 169.131829 
" clip-path="url(#p5aec25b044)" style="fill: none; stroke: #b3d3e8; stroke-opacity: 0.6; stroke-width: 0.0018"/>
    <path d="M 407.539408 713.279771 
L 701.69307 168.781594 
" clip-path="url(#p5aec25b044)" style="fill: none; stroke: #084488; stroke-opacity: 0.6; stroke-width: 0.002865"/>
    <path d="M 407.539408 713.279771 
L 94.855541 427.790342 
" clip-path="url(#p5aec25b044)" style="fill: none; stroke: #60a7d2; stroke-opacity: 0.6; stroke-width: 0.002184"/>
    <path d="M 407.539408 713.279771 
L 756.868425 671.769321 
" clip-path="url(#p5aec25b044)" style="fill: none; stroke: #08306b; stroke-opacity: 0.6; stroke-width: 0.002997"/>
    <path d="M 372.495075 169.131829 
L 150.513986 553.666064 
" clip-path="url(#p5aec25b044)" style="fill: none; stroke: #65aad4; stroke-opacity: 0.6; stroke-width: 0.00216"/>
    <path d="M 372.495075 169.131829 
L 94.855541 427.790342 
" clip-path="url(#p5aec25b044)" style="fill: none; stroke: #add0e6; stroke-opacity: 0.6; stroke-width: 0.001836"/>
    <path d="M 372.495075 169.131829 
L 701.69307 168.781594 
" clip-path="url(#p5aec25b044)" style="fill: none; stroke: #75b4d8; stroke-opacity: 0.6; stroke-width: 0.002085"/>
    <path d="M 372.495075 169.131829 
L 756.868425 671.769321 
" clip-path="url(#p5aec25b044)" style="fill: none; stroke: #2575b7; stroke-opacity: 0.6; stroke-width: 0.002532"/>
    <path d="M 586.416599 702.927483 
L 150.513986 553.666064 
" clip-path="url(#p5aec25b044)" style="fill: none; stroke: #4e9acb; stroke-opacity: 0.6; stroke-width: 0.002283"/>
    <path d="M 586.416599 702.927483 
L 701.69307 168.781594 
" clip-path="url(#p5aec25b044)" style="fill: none; stroke: #57a0ce; stroke-opacity: 0.6; stroke-width: 0.002235"/>
    <path d="M 586.416599 702.927483 
L 756.868425 671.769321 
" clip-path="url(#p5aec25b044)" style="fill: none; stroke: #2575b7; stroke-opacity: 0.6; stroke-width: 0.002532"/>
    <path d="M 586.416599 702.927483 
L 94.855541 427.790342 
" clip-path="url(#p5aec25b044)" style="fill: none; stroke: #084082; stroke-opacity: 0.6; stroke-width: 0.002889"/>
    <path d="M 756.868425 671.769321 
L 150.513986 553.666064 
" clip-path="url(#p5aec25b044)" style="fill: none; stroke: #084b93; stroke-opacity: 0.6; stroke-width: 0.002817"/>
    <path d="M 756.868425 671.769321 
L 701.69307 168.781594 
" clip-path="url(#p5aec25b044)" style="fill: none; stroke: #083776; stroke-opacity: 0.6; stroke-width: 0.002943"/>
    <path d="M 756.868425 671.769321 
L 94.855541 427.790342 
" clip-path="url(#p5aec25b044)" style="fill: none; stroke: #dceaf6; stroke-opacity: 0.6; stroke-width: 0.001497"/>
    <path d="M 150.513986 553.666064 
L 94.855541 427.790342 
" clip-path="url(#p5aec25b044)" style="fill: none; stroke: #7ab6d9; stroke-opacity: 0.6; stroke-width: 0.002064"/>
    <path d="M 150.513986 553.666064 
L 701.69307 168.781594 
" clip-path="url(#p5aec25b044)" style="fill: none; stroke: #08458a; stroke-opacity: 0.6; stroke-width: 0.002856"/>
    <path d="M 701.69307 168.781594 
L 94.855541 427.790342 
" clip-path="url(#p5aec25b044)" style="fill: none; stroke: #dae8f6; stroke-opacity: 0.6; stroke-width: 0.001512"/>
   </g>
   <g id="PathCollection_1">
    <path d="M 521.085175 126.925588 
C 527.161741 126.925588 532.990245 124.511342 537.287027 120.214561 
C 541.583808 115.91778 543.998053 110.089276 543.998053 104.012709 
C 543.998053 97.936143 541.583808 92.107639 537.287027 87.810858 
C 532.990245 83.514076 527.161741 81.099831 521.085175 81.099831 
C 515.008608 81.099831 509.180104 83.514076 504.883323 87.810858 
C 500.586542 92.107639 498.172296 97.936143 498.172296 104.012709 
C 498.172296 110.089276 500.586542 115.91778 504.883323 120.214561 
C 509.180104 124.511342 515.008608 126.925588 521.085175 126.925588 
z
" clip-path="url(#p5aec25b044)" style="fill: #3498db; fill-opacity: 0.9; stroke: #3498db; stroke-opacity: 0.9"/>
    <path d="M 908.003306 426.929129 
C 914.29315 426.929129 920.326224 424.430148 924.773816 419.982556 
C 929.221407 415.534965 931.720388 409.50189 931.720388 403.212047 
C 931.720388 396.922203 929.221407 390.889128 924.773816 386.441537 
C 920.326224 381.993946 914.29315 379.494964 908.003306 379.494964 
C 901.713462 379.494964 895.680387 381.993946 891.232796 386.441537 
C 886.785205 390.889128 884.286223 396.922203 884.286223 403.212047 
C 884.286223 409.50189 886.785205 415.534965 891.232796 419.982556 
C 895.680387 424.430148 901.713462 426.929129 908.003306 426.929129 
z
" clip-path="url(#p5aec25b044)" style="fill: #3498db; fill-opacity: 0.9; stroke: #3498db; stroke-opacity: 0.9"/>
    <path d="M 223.427007 698.721143 
C 229.71685 698.721143 235.749925 696.222162 240.197516 691.774571 
C 244.645108 687.32698 247.144089 681.293905 247.144089 675.004061 
C 247.144089 668.714217 244.645108 662.681142 240.197516 658.233551 
C 235.749925 653.78596 229.71685 651.286978 223.427007 651.286978 
C 217.137163 651.286978 211.104088 653.78596 206.656497 658.233551 
C 202.208906 662.681142 199.709924 668.714217 199.709924 675.004061 
C 199.709924 681.293905 202.208906 687.32698 206.656497 691.774571 
C 211.104088 696.222162 217.137163 698.721143 223.427007 698.721143 
z
" clip-path="url(#p5aec25b044)" style="fill: #3498db; fill-opacity: 0.9; stroke: #3498db; stroke-opacity: 0.9"/>
    <path d="M 92.796694 310.868166 
C 99.086538 310.868166 105.119613 308.369185 109.567204 303.921594 
C 114.014795 299.474003 116.513777 293.440928 116.513777 287.151084 
C 116.513777 280.86124 114.014795 274.828165 109.567204 270.380574 
C 105.119613 265.932983 99.086538 263.434002 92.796694 263.434002 
C 86.50685 263.434002 80.473776 265.932983 76.026184 270.380574 
C 71.578593 274.828165 69.079612 280.86124 69.079612 287.151084 
C 69.079612 293.440928 71.578593 299.474003 76.026184 303.921594 
C 80.473776 308.369185 86.50685 310.868166 92.796694 310.868166 
z
" clip-path="url(#p5aec25b044)" style="fill: #3498db; fill-opacity: 0.9; stroke: #3498db; stroke-opacity: 0.9"/>
    <path d="M 838.844067 290.683671 
C 845.133911 290.683671 851.166986 288.18469 855.614577 283.737098 
C 860.062168 279.289507 862.56115 273.256432 862.56115 266.966589 
C 862.56115 260.676745 860.062168 254.64367 855.614577 250.196079 
C 851.166986 245.748488 845.133911 243.249506 838.844067 243.249506 
C 832.554224 243.249506 826.521149 245.748488 822.073558 250.196079 
C 817.625966 254.64367 815.126985 260.676745 815.126985 266.966589 
C 815.126985 273.256432 817.625966 279.289507 822.073558 283.737098 
C 826.521149 288.18469 832.554224 290.683671 838.844067 290.683671 
z
" clip-path="url(#p5aec25b044)" style="fill: #3498db; fill-opacity: 0.9; stroke: #3498db; stroke-opacity: 0.9"/>
    <path d="M 212.008551 175.468342 
C 218.298395 175.468342 224.33147 172.969361 228.779061 168.521769 
C 233.226652 164.074178 235.725634 158.041103 235.725634 151.75126 
C 235.725634 145.461416 233.226652 139.428341 228.779061 134.98075 
C 224.33147 130.533159 218.298395 128.034177 212.008551 128.034177 
C 205.718707 128.034177 199.685632 130.533159 195.238041 134.98075 
C 190.79045 139.428341 188.291469 145.461416 188.291469 151.75126 
C 188.291469 158.041103 190.79045 164.074178 195.238041 168.521769 
C 199.685632 172.969361 205.718707 175.468342 212.008551 175.468342 
z
" clip-path="url(#p5aec25b044)" style="fill: #e74c3c; fill-opacity: 0.9; stroke: #e74c3c; stroke-opacity: 0.9"/>
    <path d="M 898.691832 582.444442 
C 904.768398 582.444442 910.596902 580.030196 914.893684 575.733415 
C 919.190465 571.436634 921.604711 565.60813 921.604711 559.531563 
C 921.604711 553.454997 919.190465 547.626493 914.893684 543.329711 
C 910.596902 539.03293 904.768398 536.618685 898.691832 536.618685 
C 892.615266 536.618685 886.786762 539.03293 882.48998 543.329711 
C 878.193199 547.626493 875.778954 553.454997 875.778954 559.531563 
C 875.778954 565.60813 878.193199 571.436634 882.48998 575.733415 
C 886.786762 580.030196 892.615266 582.444442 898.691832 582.444442 
z
" clip-path="url(#p5aec25b044)" style="fill: #3498db; fill-opacity: 0.9; stroke: #3498db; stroke-opacity: 0.9"/>
    <path d="M 407.539408 736.996853 
C 413.829252 736.996853 419.862327 734.497872 424.309918 730.050281 
C 428.757509 725.60269 431.256491 719.569615 431.256491 713.279771 
C 431.256491 706.989927 428.757509 700.956852 424.309918 696.509261 
C 419.862327 692.06167 413.829252 689.562689 407.539408 689.562689 
C 401.249564 689.562689 395.21649 692.06167 390.768898 696.509261 
C 386.321307 700.956852 383.822326 706.989927 383.822326 713.279771 
C 383.822326 719.569615 386.321307 725.60269 390.768898 730.050281 
C 395.21649 734.497872 401.249564 736.996853 407.539408 736.996853 
z
" clip-path="url(#p5aec25b044)" style="fill: #e74c3c; fill-opacity: 0.9; stroke: #e74c3c; stroke-opacity: 0.9"/>
    <path d="M 372.495075 192.044707 
C 378.571641 192.044707 384.400145 189.630462 388.696926 185.33368 
C 392.993708 181.036899 395.407953 175.208395 395.407953 169.131829 
C 395.407953 163.055262 392.993708 157.226758 388.696926 152.929977 
C 384.400145 148.633196 378.571641 146.21895 372.495075 146.21895 
C 366.418508 146.21895 360.590004 148.633196 356.293223 152.929977 
C 351.996442 157.226758 349.582196 163.055262 349.582196 169.131829 
C 349.582196 175.208395 351.996442 181.036899 356.293223 185.33368 
C 360.590004 189.630462 366.418508 192.044707 372.495075 192.044707 
z
" clip-path="url(#p5aec25b044)" style="fill: #3498db; fill-opacity: 0.9; stroke: #3498db; stroke-opacity: 0.9"/>
    <path d="M 586.416599 725.006885 
C 592.272125 725.006885 597.888612 722.68046 602.029094 718.539978 
C 606.169576 714.399496 608.496001 708.783009 608.496001 702.927483 
C 608.496001 697.071957 606.169576 691.45547 602.029094 687.314988 
C 597.888612 683.174506 592.272125 680.848081 586.416599 680.848081 
C 580.561073 680.848081 574.944586 683.174506 570.804104 687.314988 
C 566.663622 691.45547 564.337197 697.071957 564.337197 702.927483 
C 564.337197 708.783009 566.663622 714.399496 570.804104 718.539978 
C 574.944586 722.68046 580.561073 725.006885 586.416599 725.006885 
z
" clip-path="url(#p5aec25b044)" style="fill: #3498db; fill-opacity: 0.9; stroke: #3498db; stroke-opacity: 0.9"/>
    <path d="M 756.868425 695.486404 
C 763.158269 695.486404 769.191344 692.987422 773.638935 688.539831 
C 778.086526 684.09224 780.585508 678.059165 780.585508 671.769321 
C 780.585508 665.479477 778.086526 659.446402 773.638935 654.998811 
C 769.191344 650.55122 763.158269 648.052239 756.868425 648.052239 
C 750.578581 648.052239 744.545507 650.55122 740.097915 654.998811 
C 735.650324 659.446402 733.151343 665.479477 733.151343 671.769321 
C 733.151343 678.059165 735.650324 684.09224 740.097915 688.539831 
C 744.545507 692.987422 750.578581 695.486404 756.868425 695.486404 
z
" clip-path="url(#p5aec25b044)" style="fill: #e74c3c; fill-opacity: 0.9; stroke: #e74c3c; stroke-opacity: 0.9"/>
    <path d="M 150.513986 577.383147 
C 156.80383 577.383147 162.836904 574.884165 167.284496 570.436574 
C 171.732087 565.988983 174.231068 559.955908 174.231068 553.666064 
C 174.231068 547.376221 171.732087 541.343146 167.284496 536.895555 
C 162.836904 532.447963 156.80383 529.948982 150.513986 529.948982 
C 144.224142 529.948982 138.191067 532.447963 133.743476 536.895555 
C 129.295885 541.343146 126.796903 547.376221 126.796903 553.666064 
C 126.796903 559.955908 129.295885 565.988983 133.743476 570.436574 
C 138.191067 574.884165 144.224142 577.383147 150.513986 577.383147 
z
" clip-path="url(#p5aec25b044)" style="fill: #e74c3c; fill-opacity: 0.9; stroke: #e74c3c; stroke-opacity: 0.9"/>
    <path d="M 701.69307 192.498677 
C 707.982914 192.498677 714.015988 189.999695 718.46358 185.552104 
C 722.911171 181.104513 725.410152 175.071438 725.410152 168.781594 
C 725.410152 162.49175 722.911171 156.458675 718.46358 152.011084 
C 714.015988 147.563493 707.982914 145.064512 701.69307 145.064512 
C 695.403226 145.064512 689.370151 147.563493 684.92256 152.011084 
C 680.474969 156.458675 677.975987 162.49175 677.975987 168.781594 
C 677.975987 175.071438 680.474969 181.104513 684.92256 185.552104 
C 689.370151 189.999695 695.403226 192.498677 701.69307 192.498677 
z
" clip-path="url(#p5aec25b044)" style="fill: #3498db; fill-opacity: 0.9; stroke: #3498db; stroke-opacity: 0.9"/>
    <path d="M 94.855541 450.70322 
C 100.932107 450.70322 106.760611 448.288975 111.057392 443.992193 
C 115.354174 439.695412 117.768419 433.866908 117.768419 427.790342 
C 117.768419 421.713775 115.354174 415.885271 111.057392 411.58849 
C 106.760611 407.291709 100.932107 404.877463 94.855541 404.877463 
C 88.778974 404.877463 82.95047 407.291709 78.653689 411.58849 
C 74.356908 415.885271 71.942662 421.713775 71.942662 427.790342 
C 71.942662 433.866908 74.356908 439.695412 78.653689 443.992193 
C 82.95047 448.288975 88.778974 450.70322 94.855541 450.70322 
z
" clip-path="url(#p5aec25b044)" style="fill: #3498db; fill-opacity: 0.9; stroke: #3498db; stroke-opacity: 0.9"/>
   </g>
   <g id="text_1">
    <g clip-path="url(#p5aec25b044)">
     <!-- TRPM4 -->
     <g transform="translate(505.5808 106.090834) scale(0.08 -0.08)">
      <defs>
       <path id="DejaVuSans-Bold-37" d="M 31 4666 
L 4331 4666 
L 4331 3756 
L 2784 3756 
L 2784 0 
L 1581 0 
L 1581 3756 
L 31 3756 
L 31 4666 
z
" transform="scale(0.015625)"/>
       <path id="DejaVuSans-Bold-35" d="M 2297 2597 
Q 2675 2597 2839 2737 
Q 3003 2878 3003 3200 
Q 3003 3519 2839 3656 
Q 2675 3794 2297 3794 
L 1791 3794 
L 1791 2597 
L 2297 2597 
z
M 1791 1766 
L 1791 0 
L 588 0 
L 588 4666 
L 2425 4666 
Q 3347 4666 3776 4356 
Q 4206 4047 4206 3378 
Q 4206 2916 3982 2619 
Q 3759 2322 3309 2181 
Q 3556 2125 3751 1926 
Q 3947 1728 4147 1325 
L 4800 0 
L 3519 0 
L 2950 1159 
Q 2778 1509 2601 1637 
Q 2425 1766 2131 1766 
L 1791 1766 
z
" transform="scale(0.015625)"/>
       <path id="DejaVuSans-Bold-33" d="M 588 4666 
L 2584 4666 
Q 3475 4666 3951 4270 
Q 4428 3875 4428 3144 
Q 4428 2409 3951 2014 
Q 3475 1619 2584 1619 
L 1791 1619 
L 1791 0 
L 588 0 
L 588 4666 
z
M 1791 3794 
L 1791 2491 
L 2456 2491 
Q 2806 2491 2997 2661 
Q 3188 2831 3188 3144 
Q 3188 3456 2997 3625 
Q 2806 3794 2456 3794 
L 1791 3794 
z
" transform="scale(0.015625)"/>
       <path id="DejaVuSans-Bold-30" d="M 588 4666 
L 2119 4666 
L 3181 2169 
L 4250 4666 
L 5778 4666 
L 5778 0 
L 4641 0 
L 4641 3413 
L 3566 897 
L 2803 897 
L 1728 3413 
L 1728 0 
L 588 0 
L 588 4666 
z
" transform="scale(0.015625)"/>
       <path id="DejaVuSans-Bold-17" d="M 2356 3675 
L 1038 1722 
L 2356 1722 
L 2356 3675 
z
M 2156 4666 
L 3494 4666 
L 3494 1722 
L 4159 1722 
L 4159 850 
L 3494 850 
L 3494 0 
L 2356 0 
L 2356 850 
L 288 850 
L 288 1881 
L 2156 4666 
z
" transform="scale(0.015625)"/>
      </defs>
      <use xlink:href="#DejaVuSans-Bold-37"/>
      <use xlink:href="#DejaVuSans-Bold-35" transform="translate(68.21875 0)"/>
      <use xlink:href="#DejaVuSans-Bold-33" transform="translate(145.21875 0)"/>
      <use xlink:href="#DejaVuSans-Bold-30" transform="translate(218.515625 0)"/>
      <use xlink:href="#DejaVuSans-Bold-17" transform="translate(318.03125 0)"/>
     </g>
    </g>
   </g>
   <g id="text_2">
    <g clip-path="url(#p5aec25b044)">
     <!-- TRPC4 -->
     <g transform="translate(893.543931 405.290172) scale(0.08 -0.08)">
      <defs>
       <path id="DejaVuSans-Bold-26" d="M 4288 256 
Q 3956 84 3597 -3 
Q 3238 -91 2847 -91 
Q 1681 -91 1000 561 
Q 319 1213 319 2328 
Q 319 3447 1000 4098 
Q 1681 4750 2847 4750 
Q 3238 4750 3597 4662 
Q 3956 4575 4288 4403 
L 4288 3438 
Q 3953 3666 3628 3772 
Q 3303 3878 2944 3878 
Q 2300 3878 1931 3465 
Q 1563 3053 1563 2328 
Q 1563 1606 1931 1193 
Q 2300 781 2944 781 
Q 3303 781 3628 887 
Q 3953 994 4288 1222 
L 4288 256 
z
" transform="scale(0.015625)"/>
      </defs>
      <use xlink:href="#DejaVuSans-Bold-37"/>
      <use xlink:href="#DejaVuSans-Bold-35" transform="translate(68.21875 0)"/>
      <use xlink:href="#DejaVuSans-Bold-33" transform="translate(145.21875 0)"/>
      <use xlink:href="#DejaVuSans-Bold-26" transform="translate(218.515625 0)"/>
      <use xlink:href="#DejaVuSans-Bold-17" transform="translate(291.90625 0)"/>
     </g>
    </g>
   </g>
   <g id="text_3">
    <g clip-path="url(#p5aec25b044)">
     <!-- ORAI2 -->
     <g transform="translate(209.579507 677.082186) scale(0.08 -0.08)">
      <defs>
       <path id="DejaVuSans-Bold-32" d="M 2719 3878 
Q 2169 3878 1866 3472 
Q 1563 3066 1563 2328 
Q 1563 1594 1866 1187 
Q 2169 781 2719 781 
Q 3272 781 3575 1187 
Q 3878 1594 3878 2328 
Q 3878 3066 3575 3472 
Q 3272 3878 2719 3878 
z
M 2719 4750 
Q 3844 4750 4481 4106 
Q 5119 3463 5119 2328 
Q 5119 1197 4481 553 
Q 3844 -91 2719 -91 
Q 1597 -91 958 553 
Q 319 1197 319 2328 
Q 319 3463 958 4106 
Q 1597 4750 2719 4750 
z
" transform="scale(0.015625)"/>
       <path id="DejaVuSans-Bold-24" d="M 3419 850 
L 1538 850 
L 1241 0 
L 31 0 
L 1759 4666 
L 3194 4666 
L 4922 0 
L 3713 0 
L 3419 850 
z
M 1838 1716 
L 3116 1716 
L 2478 3572 
L 1838 1716 
z
" transform="scale(0.015625)"/>
       <path id="DejaVuSans-Bold-2c" d="M 588 4666 
L 1791 4666 
L 1791 0 
L 588 0 
L 588 4666 
z
" transform="scale(0.015625)"/>
       <path id="DejaVuSans-Bold-15" d="M 1844 884 
L 3897 884 
L 3897 0 
L 506 0 
L 506 884 
L 2209 2388 
Q 2438 2594 2547 2791 
Q 2656 2988 2656 3200 
Q 2656 3528 2436 3728 
Q 2216 3928 1850 3928 
Q 1569 3928 1234 3808 
Q 900 3688 519 3450 
L 519 4475 
Q 925 4609 1322 4679 
Q 1719 4750 2100 4750 
Q 2938 4750 3402 4381 
Q 3866 4013 3866 3353 
Q 3866 2972 3669 2642 
Q 3472 2313 2841 1759 
L 1844 884 
z
" transform="scale(0.015625)"/>
      </defs>
      <use xlink:href="#DejaVuSans-Bold-32"/>
      <use xlink:href="#DejaVuSans-Bold-35" transform="translate(85.015625 0)"/>
      <use xlink:href="#DejaVuSans-Bold-24" transform="translate(162.015625 0)"/>
      <use xlink:href="#DejaVuSans-Bold-2c" transform="translate(239.40625 0)"/>
      <use xlink:href="#DejaVuSans-Bold-15" transform="translate(276.609375 0)"/>
     </g>
    </g>
   </g>
   <g id="text_4">
    <g clip-path="url(#p5aec25b044)">
     <!-- TRPC5 -->
     <g transform="translate(78.337319 289.229209) scale(0.08 -0.08)">
      <defs>
       <path id="DejaVuSans-Bold-18" d="M 678 4666 
L 3669 4666 
L 3669 3781 
L 1638 3781 
L 1638 3059 
Q 1775 3097 1914 3117 
Q 2053 3138 2203 3138 
Q 3056 3138 3531 2711 
Q 4006 2284 4006 1522 
Q 4006 766 3489 337 
Q 2972 -91 2053 -91 
Q 1656 -91 1267 -14 
Q 878 63 494 219 
L 494 1166 
Q 875 947 1217 837 
Q 1559 728 1863 728 
Q 2300 728 2551 942 
Q 2803 1156 2803 1522 
Q 2803 1891 2551 2103 
Q 2300 2316 1863 2316 
Q 1603 2316 1309 2248 
Q 1016 2181 678 2041 
L 678 4666 
z
" transform="scale(0.015625)"/>
      </defs>
      <use xlink:href="#DejaVuSans-Bold-37"/>
      <use xlink:href="#DejaVuSans-Bold-35" transform="translate(68.21875 0)"/>
      <use xlink:href="#DejaVuSans-Bold-33" transform="translate(145.21875 0)"/>
      <use xlink:href="#DejaVuSans-Bold-26" transform="translate(218.515625 0)"/>
      <use xlink:href="#DejaVuSans-Bold-18" transform="translate(291.90625 0)"/>
     </g>
    </g>
   </g>
   <g id="text_5">
    <g clip-path="url(#p5aec25b044)">
     <!-- ORAI3 -->
     <g transform="translate(824.996567 269.044714) scale(0.08 -0.08)">
      <defs>
       <path id="DejaVuSans-Bold-16" d="M 2981 2516 
Q 3453 2394 3698 2092 
Q 3944 1791 3944 1325 
Q 3944 631 3412 270 
Q 2881 -91 1863 -91 
Q 1503 -91 1142 -33 
Q 781 25 428 141 
L 428 1069 
Q 766 900 1098 814 
Q 1431 728 1753 728 
Q 2231 728 2486 893 
Q 2741 1059 2741 1369 
Q 2741 1688 2480 1852 
Q 2219 2016 1709 2016 
L 1228 2016 
L 1228 2791 
L 1734 2791 
Q 2188 2791 2409 2933 
Q 2631 3075 2631 3366 
Q 2631 3634 2415 3781 
Q 2200 3928 1806 3928 
Q 1516 3928 1219 3862 
Q 922 3797 628 3669 
L 628 4550 
Q 984 4650 1334 4700 
Q 1684 4750 2022 4750 
Q 2931 4750 3382 4451 
Q 3834 4153 3834 3553 
Q 3834 3144 3618 2883 
Q 3403 2622 2981 2516 
z
" transform="scale(0.015625)"/>
      </defs>
      <use xlink:href="#DejaVuSans-Bold-32"/>
      <use xlink:href="#DejaVuSans-Bold-35" transform="translate(85.015625 0)"/>
      <use xlink:href="#DejaVuSans-Bold-24" transform="translate(162.015625 0)"/>
      <use xlink:href="#DejaVuSans-Bold-2c" transform="translate(239.40625 0)"/>
      <use xlink:href="#DejaVuSans-Bold-16" transform="translate(276.609375 0)"/>
     </g>
    </g>
   </g>
   <g id="text_6">
    <g clip-path="url(#p5aec25b044)">
     <!-- ORAI1 -->
     <g transform="translate(198.161051 153.829385) scale(0.08 -0.08)">
      <defs>
       <path id="DejaVuSans-Bold-14" d="M 750 831 
L 1813 831 
L 1813 3847 
L 722 3622 
L 722 4441 
L 1806 4666 
L 2950 4666 
L 2950 831 
L 4013 831 
L 4013 0 
L 750 0 
L 750 831 
z
" transform="scale(0.015625)"/>
      </defs>
      <use xlink:href="#DejaVuSans-Bold-32"/>
      <use xlink:href="#DejaVuSans-Bold-35" transform="translate(85.015625 0)"/>
      <use xlink:href="#DejaVuSans-Bold-24" transform="translate(162.015625 0)"/>
      <use xlink:href="#DejaVuSans-Bold-2c" transform="translate(239.40625 0)"/>
      <use xlink:href="#DejaVuSans-Bold-14" transform="translate(276.609375 0)"/>
     </g>
    </g>
   </g>
   <g id="text_7">
    <g clip-path="url(#p5aec25b044)">
     <!-- STIM2 -->
     <g transform="translate(884.830582 561.609688) scale(0.08 -0.08)">
      <defs>
       <path id="DejaVuSans-Bold-36" d="M 3834 4519 
L 3834 3531 
Q 3450 3703 3084 3790 
Q 2719 3878 2394 3878 
Q 1963 3878 1756 3759 
Q 1550 3641 1550 3391 
Q 1550 3203 1689 3098 
Q 1828 2994 2194 2919 
L 2706 2816 
Q 3484 2659 3812 2340 
Q 4141 2022 4141 1434 
Q 4141 663 3683 286 
Q 3225 -91 2284 -91 
Q 1841 -91 1394 -6 
Q 947 78 500 244 
L 500 1259 
Q 947 1022 1364 901 
Q 1781 781 2169 781 
Q 2563 781 2772 912 
Q 2981 1044 2981 1288 
Q 2981 1506 2839 1625 
Q 2697 1744 2272 1838 
L 1806 1941 
Q 1106 2091 782 2419 
Q 459 2747 459 3303 
Q 459 4000 909 4375 
Q 1359 4750 2203 4750 
Q 2588 4750 2994 4692 
Q 3400 4634 3834 4519 
z
" transform="scale(0.015625)"/>
      </defs>
      <use xlink:href="#DejaVuSans-Bold-36"/>
      <use xlink:href="#DejaVuSans-Bold-37" transform="translate(72.015625 0)"/>
      <use xlink:href="#DejaVuSans-Bold-2c" transform="translate(140.234375 0)"/>
      <use xlink:href="#DejaVuSans-Bold-30" transform="translate(177.4375 0)"/>
      <use xlink:href="#DejaVuSans-Bold-15" transform="translate(276.953125 0)"/>
     </g>
    </g>
   </g>
   <g id="text_8">
    <g clip-path="url(#p5aec25b044)">
     <!-- STIM1 -->
     <g transform="translate(393.678158 715.357896) scale(0.08 -0.08)">
      <use xlink:href="#DejaVuSans-Bold-36"/>
      <use xlink:href="#DejaVuSans-Bold-37" transform="translate(72.015625 0)"/>
      <use xlink:href="#DejaVuSans-Bold-2c" transform="translate(140.234375 0)"/>
      <use xlink:href="#DejaVuSans-Bold-30" transform="translate(177.4375 0)"/>
      <use xlink:href="#DejaVuSans-Bold-14" transform="translate(276.953125 0)"/>
     </g>
    </g>
   </g>
   <g id="text_9">
    <g clip-path="url(#p5aec25b044)">
     <!-- TRPV6 -->
     <g transform="translate(357.8757 171.209954) scale(0.08 -0.08)">
      <defs>
       <path id="DejaVuSans-Bold-39" d="M 31 4666 
L 1241 4666 
L 2478 1222 
L 3713 4666 
L 4922 4666 
L 3194 0 
L 1759 0 
L 31 4666 
z
" transform="scale(0.015625)"/>
       <path id="DejaVuSans-Bold-19" d="M 2316 2303 
Q 2000 2303 1842 2098 
Q 1684 1894 1684 1484 
Q 1684 1075 1842 870 
Q 2000 666 2316 666 
Q 2634 666 2792 870 
Q 2950 1075 2950 1484 
Q 2950 1894 2792 2098 
Q 2634 2303 2316 2303 
z
M 3803 4544 
L 3803 3681 
Q 3506 3822 3243 3889 
Q 2981 3956 2731 3956 
Q 2194 3956 1894 3657 
Q 1594 3359 1544 2772 
Q 1750 2925 1990 3001 
Q 2231 3078 2516 3078 
Q 3231 3078 3670 2659 
Q 4109 2241 4109 1563 
Q 4109 813 3618 361 
Q 3128 -91 2303 -91 
Q 1394 -91 895 523 
Q 397 1138 397 2266 
Q 397 3422 980 4083 
Q 1563 4744 2578 4744 
Q 2900 4744 3203 4694 
Q 3506 4644 3803 4544 
z
" transform="scale(0.015625)"/>
      </defs>
      <use xlink:href="#DejaVuSans-Bold-37"/>
      <use xlink:href="#DejaVuSans-Bold-35" transform="translate(68.21875 0)"/>
      <use xlink:href="#DejaVuSans-Bold-33" transform="translate(145.21875 0)"/>
      <use xlink:href="#DejaVuSans-Bold-39" transform="translate(218.515625 0)"/>
      <use xlink:href="#DejaVuSans-Bold-19" transform="translate(295.90625 0)"/>
     </g>
    </g>
   </g>
   <g id="text_10">
    <g clip-path="url(#p5aec25b044)">
     <!-- TRPV2 -->
     <g transform="translate(571.797224 705.005608) scale(0.08 -0.08)">
      <use xlink:href="#DejaVuSans-Bold-37"/>
      <use xlink:href="#DejaVuSans-Bold-35" transform="translate(68.21875 0)"/>
      <use xlink:href="#DejaVuSans-Bold-33" transform="translate(145.21875 0)"/>
      <use xlink:href="#DejaVuSans-Bold-39" transform="translate(218.515625 0)"/>
      <use xlink:href="#DejaVuSans-Bold-15" transform="translate(295.90625 0)"/>
     </g>
    </g>
   </g>
   <g id="text_11">
    <g clip-path="url(#p5aec25b044)">
     <!-- TRPC1 -->
     <g transform="translate(742.40905 673.847446) scale(0.08 -0.08)">
      <use xlink:href="#DejaVuSans-Bold-37"/>
      <use xlink:href="#DejaVuSans-Bold-35" transform="translate(68.21875 0)"/>
      <use xlink:href="#DejaVuSans-Bold-33" transform="translate(145.21875 0)"/>
      <use xlink:href="#DejaVuSans-Bold-26" transform="translate(218.515625 0)"/>
      <use xlink:href="#DejaVuSans-Bold-14" transform="translate(291.90625 0)"/>
     </g>
    </g>
   </g>
   <g id="text_12">
    <g clip-path="url(#p5aec25b044)">
     <!-- TRPC6 -->
     <g transform="translate(136.054611 555.744189) scale(0.08 -0.08)">
      <use xlink:href="#DejaVuSans-Bold-37"/>
      <use xlink:href="#DejaVuSans-Bold-35" transform="translate(68.21875 0)"/>
      <use xlink:href="#DejaVuSans-Bold-33" transform="translate(145.21875 0)"/>
      <use xlink:href="#DejaVuSans-Bold-26" transform="translate(218.515625 0)"/>
      <use xlink:href="#DejaVuSans-Bold-19" transform="translate(291.90625 0)"/>
     </g>
    </g>
   </g>
   <g id="text_13">
    <g clip-path="url(#p5aec25b044)">
     <!-- TRPC3 -->
     <g transform="translate(687.233695 170.859719) scale(0.08 -0.08)">
      <use xlink:href="#DejaVuSans-Bold-37"/>
      <use xlink:href="#DejaVuSans-Bold-35" transform="translate(68.21875 0)"/>
      <use xlink:href="#DejaVuSans-Bold-33" transform="translate(145.21875 0)"/>
      <use xlink:href="#DejaVuSans-Bold-26" transform="translate(218.515625 0)"/>
      <use xlink:href="#DejaVuSans-Bold-16" transform="translate(291.90625 0)"/>
     </g>
    </g>
   </g>
   <g id="text_14">
    <g clip-path="url(#p5aec25b044)">
     <!-- TRPM2 -->
     <g transform="translate(79.351166 429.868467) scale(0.08 -0.08)">
      <use xlink:href="#DejaVuSans-Bold-37"/>
      <use xlink:href="#DejaVuSans-Bold-35" transform="translate(68.21875 0)"/>
      <use xlink:href="#DejaVuSans-Bold-33" transform="translate(145.21875 0)"/>
      <use xlink:href="#DejaVuSans-Bold-30" transform="translate(218.515625 0)"/>
      <use xlink:href="#DejaVuSans-Bold-15" transform="translate(318.03125 0)"/>
     </g>
    </g>
   </g>
   <g id="text_15">
    <!-- SOCE Component PPI Network (STRING v12) -->
    <g transform="translate(338.332656 18.379238) scale(0.13 -0.13)">
     <defs>
      <path id="DejaVuSans-Bold-28" d="M 588 4666 
L 3834 4666 
L 3834 3756 
L 1791 3756 
L 1791 2888 
L 3713 2888 
L 3713 1978 
L 1791 1978 
L 1791 909 
L 3903 909 
L 3903 0 
L 588 0 
L 588 4666 
z
" transform="scale(0.015625)"/>
      <path id="DejaVuSans-Bold-3" transform="scale(0.015625)"/>
      <path id="DejaVuSans-Bold-52" d="M 2203 2784 
Q 1831 2784 1636 2517 
Q 1441 2250 1441 1747 
Q 1441 1244 1636 976 
Q 1831 709 2203 709 
Q 2569 709 2762 976 
Q 2956 1244 2956 1747 
Q 2956 2250 2762 2517 
Q 2569 2784 2203 2784 
z
M 2203 3584 
Q 3106 3584 3614 3096 
Q 4122 2609 4122 1747 
Q 4122 884 3614 396 
Q 3106 -91 2203 -91 
Q 1297 -91 786 396 
Q 275 884 275 1747 
Q 275 2609 786 3096 
Q 1297 3584 2203 3584 
z
" transform="scale(0.015625)"/>
      <path id="DejaVuSans-Bold-50" d="M 3781 2919 
Q 3994 3244 4286 3414 
Q 4578 3584 4928 3584 
Q 5531 3584 5847 3212 
Q 6163 2841 6163 2131 
L 6163 0 
L 5038 0 
L 5038 1825 
Q 5041 1866 5042 1909 
Q 5044 1953 5044 2034 
Q 5044 2406 4934 2573 
Q 4825 2741 4581 2741 
Q 4263 2741 4089 2478 
Q 3916 2216 3909 1719 
L 3909 0 
L 2784 0 
L 2784 1825 
Q 2784 2406 2684 2573 
Q 2584 2741 2328 2741 
Q 2006 2741 1831 2477 
Q 1656 2213 1656 1722 
L 1656 0 
L 531 0 
L 531 3500 
L 1656 3500 
L 1656 2988 
Q 1863 3284 2130 3434 
Q 2397 3584 2719 3584 
Q 3081 3584 3359 3409 
Q 3638 3234 3781 2919 
z
" transform="scale(0.015625)"/>
      <path id="DejaVuSans-Bold-53" d="M 1656 506 
L 1656 -1331 
L 538 -1331 
L 538 3500 
L 1656 3500 
L 1656 2988 
Q 1888 3294 2169 3439 
Q 2450 3584 2816 3584 
Q 3463 3584 3878 3070 
Q 4294 2556 4294 1747 
Q 4294 938 3878 423 
Q 3463 -91 2816 -91 
Q 2450 -91 2169 54 
Q 1888 200 1656 506 
z
M 2400 2772 
Q 2041 2772 1848 2508 
Q 1656 2244 1656 1747 
Q 1656 1250 1848 986 
Q 2041 722 2400 722 
Q 2759 722 2948 984 
Q 3138 1247 3138 1747 
Q 3138 2247 2948 2509 
Q 2759 2772 2400 2772 
z
" transform="scale(0.015625)"/>
      <path id="DejaVuSans-Bold-51" d="M 4056 2131 
L 4056 0 
L 2931 0 
L 2931 347 
L 2931 1631 
Q 2931 2084 2911 2256 
Q 2891 2428 2841 2509 
Q 2775 2619 2662 2680 
Q 2550 2741 2406 2741 
Q 2056 2741 1856 2470 
Q 1656 2200 1656 1722 
L 1656 0 
L 538 0 
L 538 3500 
L 1656 3500 
L 1656 2988 
Q 1909 3294 2193 3439 
Q 2478 3584 2822 3584 
Q 3428 3584 3742 3212 
Q 4056 2841 4056 2131 
z
" transform="scale(0.015625)"/>
      <path id="DejaVuSans-Bold-48" d="M 4031 1759 
L 4031 1441 
L 1416 1441 
Q 1456 1047 1700 850 
Q 1944 653 2381 653 
Q 2734 653 3104 758 
Q 3475 863 3866 1075 
L 3866 213 
Q 3469 63 3072 -14 
Q 2675 -91 2278 -91 
Q 1328 -91 801 392 
Q 275 875 275 1747 
Q 275 2603 792 3093 
Q 1309 3584 2216 3584 
Q 3041 3584 3536 3087 
Q 4031 2591 4031 1759 
z
M 2881 2131 
Q 2881 2450 2695 2645 
Q 2509 2841 2209 2841 
Q 1884 2841 1681 2658 
Q 1478 2475 1428 2131 
L 2881 2131 
z
" transform="scale(0.015625)"/>
      <path id="DejaVuSans-Bold-57" d="M 1759 4494 
L 1759 3500 
L 2913 3500 
L 2913 2700 
L 1759 2700 
L 1759 1216 
Q 1759 972 1856 886 
Q 1953 800 2241 800 
L 2816 800 
L 2816 0 
L 1856 0 
Q 1194 0 917 276 
Q 641 553 641 1216 
L 641 2700 
L 84 2700 
L 84 3500 
L 641 3500 
L 641 4494 
L 1759 4494 
z
" transform="scale(0.015625)"/>
      <path id="DejaVuSans-Bold-31" d="M 588 4666 
L 1931 4666 
L 3628 1466 
L 3628 4666 
L 4769 4666 
L 4769 0 
L 3425 0 
L 1728 3200 
L 1728 0 
L 588 0 
L 588 4666 
z
" transform="scale(0.015625)"/>
      <path id="DejaVuSans-Bold-5a" d="M 225 3500 
L 1313 3500 
L 1900 1088 
L 2491 3500 
L 3425 3500 
L 4013 1113 
L 4603 3500 
L 5691 3500 
L 4769 0 
L 3547 0 
L 2956 2406 
L 2369 0 
L 1147 0 
L 225 3500 
z
" transform="scale(0.015625)"/>
      <path id="DejaVuSans-Bold-55" d="M 3138 2547 
Q 2991 2616 2845 2648 
Q 2700 2681 2553 2681 
Q 2122 2681 1889 2404 
Q 1656 2128 1656 1613 
L 1656 0 
L 538 0 
L 538 3500 
L 1656 3500 
L 1656 2925 
Q 1872 3269 2151 3426 
Q 2431 3584 2822 3584 
Q 2878 3584 2943 3579 
Q 3009 3575 3134 3559 
L 3138 2547 
z
" transform="scale(0.015625)"/>
      <path id="DejaVuSans-Bold-4e" d="M 538 4863 
L 1656 4863 
L 1656 2216 
L 2944 3500 
L 4244 3500 
L 2534 1894 
L 4378 0 
L 3022 0 
L 1656 1459 
L 1656 0 
L 538 0 
L 538 4863 
z
" transform="scale(0.015625)"/>
      <path id="DejaVuSans-Bold-b" d="M 2413 -844 
L 1484 -844 
Q 1006 -72 778 623 
Q 550 1319 550 2003 
Q 550 2688 779 3389 
Q 1009 4091 1484 4856 
L 2413 4856 
Q 2013 4116 1813 3408 
Q 1613 2700 1613 2009 
Q 1613 1319 1811 609 
Q 2009 -100 2413 -844 
z
" transform="scale(0.015625)"/>
      <path id="DejaVuSans-Bold-2a" d="M 4781 347 
Q 4331 128 3847 18 
Q 3363 -91 2847 -91 
Q 1681 -91 1000 561 
Q 319 1213 319 2328 
Q 319 3456 1012 4103 
Q 1706 4750 2913 4750 
Q 3378 4750 3804 4662 
Q 4231 4575 4609 4403 
L 4609 3438 
Q 4219 3659 3833 3768 
Q 3447 3878 3059 3878 
Q 2341 3878 1952 3476 
Q 1563 3075 1563 2328 
Q 1563 1588 1938 1184 
Q 2313 781 3003 781 
Q 3191 781 3352 804 
Q 3513 828 3641 878 
L 3641 1784 
L 2906 1784 
L 2906 2591 
L 4781 2591 
L 4781 347 
z
" transform="scale(0.015625)"/>
      <path id="DejaVuSans-Bold-59" d="M 97 3500 
L 1216 3500 
L 2088 1081 
L 2956 3500 
L 4078 3500 
L 2700 0 
L 1472 0 
L 97 3500 
z
" transform="scale(0.015625)"/>
      <path id="DejaVuSans-Bold-c" d="M 513 -844 
Q 913 -100 1113 609 
Q 1313 1319 1313 2009 
Q 1313 2700 1113 3408 
Q 913 4116 513 4856 
L 1441 4856 
Q 1916 4091 2145 3389 
Q 2375 2688 2375 2003 
Q 2375 1319 2147 623 
Q 1919 -72 1441 -844 
L 513 -844 
z
" transform="scale(0.015625)"/>
     </defs>
     <use xlink:href="#DejaVuSans-Bold-36"/>
     <use xlink:href="#DejaVuSans-Bold-32" transform="translate(72.015625 0)"/>
     <use xlink:href="#DejaVuSans-Bold-26" transform="translate(157.03125 0)"/>
     <use xlink:href="#DejaVuSans-Bold-28" transform="translate(230.421875 0)"/>
     <use xlink:href="#DejaVuSans-Bold-3" transform="translate(298.734375 0)"/>
     <use xlink:href="#DejaVuSans-Bold-26" transform="translate(333.546875 0)"/>
     <use xlink:href="#DejaVuSans-Bold-52" transform="translate(406.9375 0)"/>
     <use xlink:href="#DejaVuSans-Bold-50" transform="translate(475.640625 0)"/>
     <use xlink:href="#DejaVuSans-Bold-53" transform="translate(579.84375 0)"/>
     <use xlink:href="#DejaVuSans-Bold-52" transform="translate(651.421875 0)"/>
     <use xlink:href="#DejaVuSans-Bold-51" transform="translate(720.125 0)"/>
     <use xlink:href="#DejaVuSans-Bold-48" transform="translate(791.3125 0)"/>
     <use xlink:href="#DejaVuSans-Bold-51" transform="translate(859.140625 0)"/>
     <use xlink:href="#DejaVuSans-Bold-57" transform="translate(930.328125 0)"/>
     <use xlink:href="#DejaVuSans-Bold-3" transform="translate(978.125 0)"/>
     <use xlink:href="#DejaVuSans-Bold-33" transform="translate(1012.9375 0)"/>
     <use xlink:href="#DejaVuSans-Bold-33" transform="translate(1086.234375 0)"/>
     <use xlink:href="#DejaVuSans-Bold-2c" transform="translate(1159.53125 0)"/>
     <use xlink:href="#DejaVuSans-Bold-3" transform="translate(1196.734375 0)"/>
     <use xlink:href="#DejaVuSans-Bold-31" transform="translate(1231.546875 0)"/>
     <use xlink:href="#DejaVuSans-Bold-48" transform="translate(1315.234375 0)"/>
     <use xlink:href="#DejaVuSans-Bold-57" transform="translate(1383.0625 0)"/>
     <use xlink:href="#DejaVuSans-Bold-5a" transform="translate(1430.859375 0)"/>
     <use xlink:href="#DejaVuSans-Bold-52" transform="translate(1523.25 0)"/>
     <use xlink:href="#DejaVuSans-Bold-55" transform="translate(1591.953125 0)"/>
     <use xlink:href="#DejaVuSans-Bold-4e" transform="translate(1641.265625 0)"/>
     <use xlink:href="#DejaVuSans-Bold-3" transform="translate(1707.765625 0)"/>
     <use xlink:href="#DejaVuSans-Bold-b" transform="translate(1742.578125 0)"/>
     <use xlink:href="#DejaVuSans-Bold-36" transform="translate(1788.28125 0)"/>
     <use xlink:href="#DejaVuSans-Bold-37" transform="translate(1860.296875 0)"/>
     <use xlink:href="#DejaVuSans-Bold-35" transform="translate(1928.515625 0)"/>
     <use xlink:href="#DejaVuSans-Bold-2c" transform="translate(2005.515625 0)"/>
     <use xlink:href="#DejaVuSans-Bold-31" transform="translate(2042.71875 0)"/>
     <use xlink:href="#DejaVuSans-Bold-2a" transform="translate(2126.40625 0)"/>
     <use xlink:href="#DejaVuSans-Bold-3" transform="translate(2208.484375 0)"/>
     <use xlink:href="#DejaVuSans-Bold-59" transform="translate(2243.296875 0)"/>
     <use xlink:href="#DejaVuSans-Bold-14" transform="translate(2308.484375 0)"/>
     <use xlink:href="#DejaVuSans-Bold-15" transform="translate(2378.0625 0)"/>
     <use xlink:href="#DejaVuSans-Bold-c" transform="translate(2447.640625 0)"/>
    </g>
    <!-- Min. interaction score ≥ 400/1000  |  14 nodes, 88 edges -->
    <g transform="translate(293.242969 34.039668) scale(0.13 -0.13)">
     <defs>
      <path id="DejaVuSans-Bold-4c" d="M 538 3500 
L 1656 3500 
L 1656 0 
L 538 0 
L 538 3500 
z
M 538 4863 
L 1656 4863 
L 1656 3950 
L 538 3950 
L 538 4863 
z
" transform="scale(0.015625)"/>
      <path id="DejaVuSans-Bold-11" d="M 653 1209 
L 1778 1209 
L 1778 0 
L 653 0 
L 653 1209 
z
" transform="scale(0.015625)"/>
      <path id="DejaVuSans-Bold-44" d="M 2106 1575 
Q 1756 1575 1579 1456 
Q 1403 1338 1403 1106 
Q 1403 894 1545 773 
Q 1688 653 1941 653 
Q 2256 653 2472 879 
Q 2688 1106 2688 1447 
L 2688 1575 
L 2106 1575 
z
M 3816 1997 
L 3816 0 
L 2688 0 
L 2688 519 
Q 2463 200 2181 54 
Q 1900 -91 1497 -91 
Q 953 -91 614 226 
Q 275 544 275 1050 
Q 275 1666 698 1953 
Q 1122 2241 2028 2241 
L 2688 2241 
L 2688 2328 
Q 2688 2594 2478 2717 
Q 2269 2841 1825 2841 
Q 1466 2841 1156 2769 
Q 847 2697 581 2553 
L 581 3406 
Q 941 3494 1303 3539 
Q 1666 3584 2028 3584 
Q 2975 3584 3395 3211 
Q 3816 2838 3816 1997 
z
" transform="scale(0.015625)"/>
      <path id="DejaVuSans-Bold-46" d="M 3366 3391 
L 3366 2478 
Q 3138 2634 2908 2709 
Q 2678 2784 2431 2784 
Q 1963 2784 1702 2511 
Q 1441 2238 1441 1747 
Q 1441 1256 1702 982 
Q 1963 709 2431 709 
Q 2694 709 2930 787 
Q 3166 866 3366 1019 
L 3366 103 
Q 3103 6 2833 -42 
Q 2563 -91 2291 -91 
Q 1344 -91 809 395 
Q 275 881 275 1747 
Q 275 2613 809 3098 
Q 1344 3584 2291 3584 
Q 2566 3584 2833 3536 
Q 3100 3488 3366 3391 
z
" transform="scale(0.015625)"/>
      <path id="DejaVuSans-Bold-56" d="M 3272 3391 
L 3272 2541 
Q 2913 2691 2578 2766 
Q 2244 2841 1947 2841 
Q 1628 2841 1473 2761 
Q 1319 2681 1319 2516 
Q 1319 2381 1436 2309 
Q 1553 2238 1856 2203 
L 2053 2175 
Q 2913 2066 3209 1816 
Q 3506 1566 3506 1031 
Q 3506 472 3093 190 
Q 2681 -91 1863 -91 
Q 1516 -91 1145 -36 
Q 775 19 384 128 
L 384 978 
Q 719 816 1070 734 
Q 1422 653 1784 653 
Q 2113 653 2278 743 
Q 2444 834 2444 1013 
Q 2444 1163 2330 1236 
Q 2216 1309 1875 1350 
L 1678 1375 
Q 931 1469 631 1722 
Q 331 1975 331 2491 
Q 331 3047 712 3315 
Q 1094 3584 1881 3584 
Q 2191 3584 2531 3537 
Q 2872 3491 3272 3391 
z
" transform="scale(0.015625)"/>
      <path id="DejaVuSans-Bold-cef" d="M 678 744 
L 4684 744 
L 4684 0 
L 678 0 
L 678 744 
z
M 678 2963 
L 678 3725 
L 4684 2681 
L 4684 1947 
L 678 897 
L 678 1656 
L 3481 2309 
L 678 2963 
z
" transform="scale(0.015625)"/>
      <path id="DejaVuSans-Bold-13" d="M 2944 2338 
Q 2944 3213 2780 3570 
Q 2616 3928 2228 3928 
Q 1841 3928 1675 3570 
Q 1509 3213 1509 2338 
Q 1509 1453 1675 1090 
Q 1841 728 2228 728 
Q 2613 728 2778 1090 
Q 2944 1453 2944 2338 
z
M 4147 2328 
Q 4147 1169 3647 539 
Q 3147 -91 2228 -91 
Q 1306 -91 806 539 
Q 306 1169 306 2328 
Q 306 3491 806 4120 
Q 1306 4750 2228 4750 
Q 3147 4750 3647 4120 
Q 4147 3491 4147 2328 
z
" transform="scale(0.015625)"/>
      <path id="DejaVuSans-Bold-12" d="M 1644 4666 
L 2338 4666 
L 691 -594 
L 0 -594 
L 1644 4666 
z
" transform="scale(0.015625)"/>
      <path id="DejaVuSans-Bold-5f" d="M 1522 4891 
L 1522 -1509 
L 813 -1509 
L 813 4891 
L 1522 4891 
z
" transform="scale(0.015625)"/>
      <path id="DejaVuSans-Bold-47" d="M 2919 2988 
L 2919 4863 
L 4044 4863 
L 4044 0 
L 2919 0 
L 2919 506 
Q 2688 197 2409 53 
Q 2131 -91 1766 -91 
Q 1119 -91 703 423 
Q 288 938 288 1747 
Q 288 2556 703 3070 
Q 1119 3584 1766 3584 
Q 2128 3584 2408 3439 
Q 2688 3294 2919 2988 
z
M 2181 722 
Q 2541 722 2730 984 
Q 2919 1247 2919 1747 
Q 2919 2247 2730 2509 
Q 2541 2772 2181 2772 
Q 1825 2772 1636 2509 
Q 1447 2247 1447 1747 
Q 1447 1247 1636 984 
Q 1825 722 2181 722 
z
" transform="scale(0.015625)"/>
      <path id="DejaVuSans-Bold-f" d="M 653 1209 
L 1778 1209 
L 1778 256 
L 1006 -909 
L 341 -909 
L 653 256 
L 653 1209 
z
" transform="scale(0.015625)"/>
      <path id="DejaVuSans-Bold-1b" d="M 2228 2088 
Q 1891 2088 1709 1903 
Q 1528 1719 1528 1375 
Q 1528 1031 1709 848 
Q 1891 666 2228 666 
Q 2563 666 2741 848 
Q 2919 1031 2919 1375 
Q 2919 1722 2741 1905 
Q 2563 2088 2228 2088 
z
M 1350 2484 
Q 925 2613 709 2878 
Q 494 3144 494 3541 
Q 494 4131 934 4440 
Q 1375 4750 2228 4750 
Q 3075 4750 3515 4442 
Q 3956 4134 3956 3541 
Q 3956 3144 3739 2878 
Q 3522 2613 3097 2484 
Q 3572 2353 3814 2058 
Q 4056 1763 4056 1313 
Q 4056 619 3595 264 
Q 3134 -91 2228 -91 
Q 1319 -91 855 264 
Q 391 619 391 1313 
Q 391 1763 633 2058 
Q 875 2353 1350 2484 
z
M 1631 3419 
Q 1631 3141 1786 2991 
Q 1941 2841 2228 2841 
Q 2509 2841 2662 2991 
Q 2816 3141 2816 3419 
Q 2816 3697 2662 3845 
Q 2509 3994 2228 3994 
Q 1941 3994 1786 3844 
Q 1631 3694 1631 3419 
z
" transform="scale(0.015625)"/>
      <path id="DejaVuSans-Bold-4a" d="M 2919 594 
Q 2688 288 2409 144 
Q 2131 0 1766 0 
Q 1125 0 706 504 
Q 288 1009 288 1791 
Q 288 2575 706 3076 
Q 1125 3578 1766 3578 
Q 2131 3578 2409 3434 
Q 2688 3291 2919 2981 
L 2919 3500 
L 4044 3500 
L 4044 353 
Q 4044 -491 3511 -936 
Q 2978 -1381 1966 -1381 
Q 1638 -1381 1331 -1331 
Q 1025 -1281 716 -1178 
L 716 -306 
Q 1009 -475 1290 -558 
Q 1572 -641 1856 -641 
Q 2406 -641 2662 -400 
Q 2919 -159 2919 353 
L 2919 594 
z
M 2181 2772 
Q 1834 2772 1640 2515 
Q 1447 2259 1447 1791 
Q 1447 1309 1634 1061 
Q 1822 813 2181 813 
Q 2531 813 2725 1069 
Q 2919 1325 2919 1791 
Q 2919 2259 2725 2515 
Q 2531 2772 2181 2772 
z
" transform="scale(0.015625)"/>
     </defs>
     <use xlink:href="#DejaVuSans-Bold-30"/>
     <use xlink:href="#DejaVuSans-Bold-4c" transform="translate(99.515625 0)"/>
     <use xlink:href="#DejaVuSans-Bold-51" transform="translate(133.796875 0)"/>
     <use xlink:href="#DejaVuSans-Bold-11" transform="translate(204.984375 0)"/>
     <use xlink:href="#DejaVuSans-Bold-3" transform="translate(242.96875 0)"/>
     <use xlink:href="#DejaVuSans-Bold-4c" transform="translate(277.78125 0)"/>
     <use xlink:href="#DejaVuSans-Bold-51" transform="translate(312.0625 0)"/>
     <use xlink:href="#DejaVuSans-Bold-57" transform="translate(383.25 0)"/>
     <use xlink:href="#DejaVuSans-Bold-48" transform="translate(431.046875 0)"/>
     <use xlink:href="#DejaVuSans-Bold-55" transform="translate(498.875 0)"/>
     <use xlink:href="#DejaVuSans-Bold-44" transform="translate(548.1875 0)"/>
     <use xlink:href="#DejaVuSans-Bold-46" transform="translate(615.671875 0)"/>
     <use xlink:href="#DejaVuSans-Bold-57" transform="translate(674.953125 0)"/>
     <use xlink:href="#DejaVuSans-Bold-4c" transform="translate(722.75 0)"/>
     <use xlink:href="#DejaVuSans-Bold-52" transform="translate(757.03125 0)"/>
     <use xlink:href="#DejaVuSans-Bold-51" transform="translate(825.734375 0)"/>
     <use xlink:href="#DejaVuSans-Bold-3" transform="translate(896.921875 0)"/>
     <use xlink:href="#DejaVuSans-Bold-56" transform="translate(931.734375 0)"/>
     <use xlink:href="#DejaVuSans-Bold-46" transform="translate(991.25 0)"/>
     <use xlink:href="#DejaVuSans-Bold-52" transform="translate(1050.53125 0)"/>
     <use xlink:href="#DejaVuSans-Bold-55" transform="translate(1119.234375 0)"/>
     <use xlink:href="#DejaVuSans-Bold-48" transform="translate(1168.546875 0)"/>
     <use xlink:href="#DejaVuSans-Bold-3" transform="translate(1236.375 0)"/>
     <use xlink:href="#DejaVuSans-Bold-cef" transform="translate(1271.1875 0)"/>
     <use xlink:href="#DejaVuSans-Bold-3" transform="translate(1354.984375 0)"/>
     <use xlink:href="#DejaVuSans-Bold-17" transform="translate(1389.796875 0)"/>
     <use xlink:href="#DejaVuSans-Bold-13" transform="translate(1459.375 0)"/>
     <use xlink:href="#DejaVuSans-Bold-13" transform="translate(1528.953125 0)"/>
     <use xlink:href="#DejaVuSans-Bold-12" transform="translate(1598.53125 0)"/>
     <use xlink:href="#DejaVuSans-Bold-14" transform="translate(1635.0625 0)"/>
     <use xlink:href="#DejaVuSans-Bold-13" transform="translate(1704.640625 0)"/>
     <use xlink:href="#DejaVuSans-Bold-13" transform="translate(1774.21875 0)"/>
     <use xlink:href="#DejaVuSans-Bold-13" transform="translate(1843.796875 0)"/>
     <use xlink:href="#DejaVuSans-Bold-3" transform="translate(1913.375 0)"/>
     <use xlink:href="#DejaVuSans-Bold-3" transform="translate(1948.1875 0)"/>
     <use xlink:href="#DejaVuSans-Bold-5f" transform="translate(1983 0)"/>
     <use xlink:href="#DejaVuSans-Bold-3" transform="translate(2019.53125 0)"/>
     <use xlink:href="#DejaVuSans-Bold-3" transform="translate(2054.34375 0)"/>
     <use xlink:href="#DejaVuSans-Bold-14" transform="translate(2089.15625 0)"/>
     <use xlink:href="#DejaVuSans-Bold-17" transform="translate(2158.734375 0)"/>
     <use xlink:href="#DejaVuSans-Bold-3" transform="translate(2228.3125 0)"/>
     <use xlink:href="#DejaVuSans-Bold-51" transform="translate(2263.125 0)"/>
     <use xlink:href="#DejaVuSans-Bold-52" transform="translate(2334.3125 0)"/>
     <use xlink:href="#DejaVuSans-Bold-47" transform="translate(2403.015625 0)"/>
     <use xlink:href="#DejaVuSans-Bold-48" transform="translate(2474.59375 0)"/>
     <use xlink:href="#DejaVuSans-Bold-56" transform="translate(2542.421875 0)"/>
     <use xlink:href="#DejaVuSans-Bold-f" transform="translate(2601.9375 0)"/>
     <use xlink:href="#DejaVuSans-Bold-3" transform="translate(2639.921875 0)"/>
     <use xlink:href="#DejaVuSans-Bold-1b" transform="translate(2674.734375 0)"/>
     <use xlink:href="#DejaVuSans-Bold-1b" transform="translate(2744.3125 0)"/>
     <use xlink:href="#DejaVuSans-Bold-3" transform="translate(2813.890625 0)"/>
     <use xlink:href="#DejaVuSans-Bold-48" transform="translate(2848.703125 0)"/>
     <use xlink:href="#DejaVuSans-Bold-47" transform="translate(2916.53125 0)"/>
     <use xlink:href="#DejaVuSans-Bold-4a" transform="translate(2988.109375 0)"/>
     <use xlink:href="#DejaVuSans-Bold-48" transform="translate(3059.6875 0)"/>
     <use xlink:href="#DejaVuSans-Bold-56" transform="translate(3127.515625 0)"/>
    </g>
   </g>
   <g id="legend_1">
    <g id="patch_2">
     <path d="M 14.2 108.042793 
L 171.714063 108.042793 
Q 173.714063 108.042793 173.714063 106.042793 
L 173.714063 47.039668 
Q 173.714063 45.039668 171.714063 45.039668 
L 14.2 45.039668 
Q 12.2 45.039668 12.2 47.039668 
L 12.2 106.042793 
Q 12.2 108.042793 14.2 108.042793 
z
" style="fill: #ffffff; opacity: 0.9; stroke: #cccccc; stroke-linejoin: miter"/>
    </g>
    <g id="patch_3">
     <path d="M 16.2 56.638105 
L 36.2 56.638105 
L 36.2 49.638105 
L 16.2 49.638105 
z
" style="fill: #e74c3c; stroke: #e74c3c; stroke-linejoin: miter"/>
    </g>
    <g id="text_16">
     <!-- SOCE components -->
     <g transform="translate(44.2 56.638105) scale(0.1 -0.1)">
      <defs>
       <path id="DejaVuSans-36" d="M 3425 4513 
L 3425 3897 
Q 3066 4069 2747 4153 
Q 2428 4238 2131 4238 
Q 1616 4238 1336 4038 
Q 1056 3838 1056 3469 
Q 1056 3159 1242 3001 
Q 1428 2844 1947 2747 
L 2328 2669 
Q 3034 2534 3370 2195 
Q 3706 1856 3706 1288 
Q 3706 609 3251 259 
Q 2797 -91 1919 -91 
Q 1588 -91 1214 -16 
Q 841 59 441 206 
L 441 856 
Q 825 641 1194 531 
Q 1563 422 1919 422 
Q 2459 422 2753 634 
Q 3047 847 3047 1241 
Q 3047 1584 2836 1778 
Q 2625 1972 2144 2069 
L 1759 2144 
Q 1053 2284 737 2584 
Q 422 2884 422 3419 
Q 422 4038 858 4394 
Q 1294 4750 2059 4750 
Q 2388 4750 2728 4690 
Q 3069 4631 3425 4513 
z
" transform="scale(0.015625)"/>
       <path id="DejaVuSans-32" d="M 2522 4238 
Q 1834 4238 1429 3725 
Q 1025 3213 1025 2328 
Q 1025 1447 1429 934 
Q 1834 422 2522 422 
Q 3209 422 3611 934 
Q 4013 1447 4013 2328 
Q 4013 3213 3611 3725 
Q 3209 4238 2522 4238 
z
M 2522 4750 
Q 3503 4750 4090 4092 
Q 4678 3434 4678 2328 
Q 4678 1225 4090 567 
Q 3503 -91 2522 -91 
Q 1538 -91 948 565 
Q 359 1222 359 2328 
Q 359 3434 948 4092 
Q 1538 4750 2522 4750 
z
" transform="scale(0.015625)"/>
       <path id="DejaVuSans-26" d="M 4122 4306 
L 4122 3641 
Q 3803 3938 3442 4084 
Q 3081 4231 2675 4231 
Q 1875 4231 1450 3742 
Q 1025 3253 1025 2328 
Q 1025 1406 1450 917 
Q 1875 428 2675 428 
Q 3081 428 3442 575 
Q 3803 722 4122 1019 
L 4122 359 
Q 3791 134 3420 21 
Q 3050 -91 2638 -91 
Q 1578 -91 968 557 
Q 359 1206 359 2328 
Q 359 3453 968 4101 
Q 1578 4750 2638 4750 
Q 3056 4750 3426 4639 
Q 3797 4528 4122 4306 
z
" transform="scale(0.015625)"/>
       <path id="DejaVuSans-28" d="M 628 4666 
L 3578 4666 
L 3578 4134 
L 1259 4134 
L 1259 2753 
L 3481 2753 
L 3481 2222 
L 1259 2222 
L 1259 531 
L 3634 531 
L 3634 0 
L 628 0 
L 628 4666 
z
" transform="scale(0.015625)"/>
       <path id="DejaVuSans-3" transform="scale(0.015625)"/>
       <path id="DejaVuSans-46" d="M 3122 3366 
L 3122 2828 
Q 2878 2963 2633 3030 
Q 2388 3097 2138 3097 
Q 1578 3097 1268 2742 
Q 959 2388 959 1747 
Q 959 1106 1268 751 
Q 1578 397 2138 397 
Q 2388 397 2633 464 
Q 2878 531 3122 666 
L 3122 134 
Q 2881 22 2623 -34 
Q 2366 -91 2075 -91 
Q 1284 -91 818 406 
Q 353 903 353 1747 
Q 353 2603 823 3093 
Q 1294 3584 2113 3584 
Q 2378 3584 2631 3529 
Q 2884 3475 3122 3366 
z
" transform="scale(0.015625)"/>
       <path id="DejaVuSans-52" d="M 1959 3097 
Q 1497 3097 1228 2736 
Q 959 2375 959 1747 
Q 959 1119 1226 758 
Q 1494 397 1959 397 
Q 2419 397 2687 759 
Q 2956 1122 2956 1747 
Q 2956 2369 2687 2733 
Q 2419 3097 1959 3097 
z
M 1959 3584 
Q 2709 3584 3137 3096 
Q 3566 2609 3566 1747 
Q 3566 888 3137 398 
Q 2709 -91 1959 -91 
Q 1206 -91 779 398 
Q 353 888 353 1747 
Q 353 2609 779 3096 
Q 1206 3584 1959 3584 
z
" transform="scale(0.015625)"/>
       <path id="DejaVuSans-50" d="M 3328 2828 
Q 3544 3216 3844 3400 
Q 4144 3584 4550 3584 
Q 5097 3584 5394 3201 
Q 5691 2819 5691 2113 
L 5691 0 
L 5113 0 
L 5113 2094 
Q 5113 2597 4934 2840 
Q 4756 3084 4391 3084 
Q 3944 3084 3684 2787 
Q 3425 2491 3425 1978 
L 3425 0 
L 2847 0 
L 2847 2094 
Q 2847 2600 2669 2842 
Q 2491 3084 2119 3084 
Q 1678 3084 1418 2786 
Q 1159 2488 1159 1978 
L 1159 0 
L 581 0 
L 581 3500 
L 1159 3500 
L 1159 2956 
Q 1356 3278 1631 3431 
Q 1906 3584 2284 3584 
Q 2666 3584 2933 3390 
Q 3200 3197 3328 2828 
z
" transform="scale(0.015625)"/>
       <path id="DejaVuSans-53" d="M 1159 525 
L 1159 -1331 
L 581 -1331 
L 581 3500 
L 1159 3500 
L 1159 2969 
Q 1341 3281 1617 3432 
Q 1894 3584 2278 3584 
Q 2916 3584 3314 3078 
Q 3713 2572 3713 1747 
Q 3713 922 3314 415 
Q 2916 -91 2278 -91 
Q 1894 -91 1617 61 
Q 1341 213 1159 525 
z
M 3116 1747 
Q 3116 2381 2855 2742 
Q 2594 3103 2138 3103 
Q 1681 3103 1420 2742 
Q 1159 2381 1159 1747 
Q 1159 1113 1420 752 
Q 1681 391 2138 391 
Q 2594 391 2855 752 
Q 3116 1113 3116 1747 
z
" transform="scale(0.015625)"/>
       <path id="DejaVuSans-51" d="M 3513 2113 
L 3513 0 
L 2938 0 
L 2938 2094 
Q 2938 2591 2744 2837 
Q 2550 3084 2163 3084 
Q 1697 3084 1428 2787 
Q 1159 2491 1159 1978 
L 1159 0 
L 581 0 
L 581 3500 
L 1159 3500 
L 1159 2956 
Q 1366 3272 1645 3428 
Q 1925 3584 2291 3584 
Q 2894 3584 3203 3211 
Q 3513 2838 3513 2113 
z
" transform="scale(0.015625)"/>
       <path id="DejaVuSans-48" d="M 3597 1894 
L 3597 1613 
L 953 1613 
Q 991 1019 1311 708 
Q 1631 397 2203 397 
Q 2534 397 2845 478 
Q 3156 559 3463 722 
L 3463 178 
Q 3153 47 2828 -22 
Q 2503 -91 2169 -91 
Q 1331 -91 842 396 
Q 353 884 353 1716 
Q 353 2575 817 3079 
Q 1281 3584 2069 3584 
Q 2775 3584 3186 3129 
Q 3597 2675 3597 1894 
z
M 3022 2063 
Q 3016 2534 2758 2815 
Q 2500 3097 2075 3097 
Q 1594 3097 1305 2825 
Q 1016 2553 972 2059 
L 3022 2063 
z
" transform="scale(0.015625)"/>
       <path id="DejaVuSans-57" d="M 1172 4494 
L 1172 3500 
L 2356 3500 
L 2356 3053 
L 1172 3053 
L 1172 1153 
Q 1172 725 1289 603 
Q 1406 481 1766 481 
L 2356 481 
L 2356 0 
L 1766 0 
Q 1100 0 847 248 
Q 594 497 594 1153 
L 594 3053 
L 172 3053 
L 172 3500 
L 594 3500 
L 594 4494 
L 1172 4494 
z
" transform="scale(0.015625)"/>
       <path id="DejaVuSans-56" d="M 2834 3397 
L 2834 2853 
Q 2591 2978 2328 3040 
Q 2066 3103 1784 3103 
Q 1356 3103 1142 2972 
Q 928 2841 928 2578 
Q 928 2378 1081 2264 
Q 1234 2150 1697 2047 
L 1894 2003 
Q 2506 1872 2764 1633 
Q 3022 1394 3022 966 
Q 3022 478 2636 193 
Q 2250 -91 1575 -91 
Q 1294 -91 989 -36 
Q 684 19 347 128 
L 347 722 
Q 666 556 975 473 
Q 1284 391 1588 391 
Q 1994 391 2212 530 
Q 2431 669 2431 922 
Q 2431 1156 2273 1281 
Q 2116 1406 1581 1522 
L 1381 1569 
Q 847 1681 609 1914 
Q 372 2147 372 2553 
Q 372 3047 722 3315 
Q 1072 3584 1716 3584 
Q 2034 3584 2315 3537 
Q 2597 3491 2834 3397 
z
" transform="scale(0.015625)"/>
      </defs>
      <use xlink:href="#DejaVuSans-36"/>
      <use xlink:href="#DejaVuSans-32" transform="translate(63.484375 0)"/>
      <use xlink:href="#DejaVuSans-26" transform="translate(142.203125 0)"/>
      <use xlink:href="#DejaVuSans-28" transform="translate(212.03125 0)"/>
      <use xlink:href="#DejaVuSans-3" transform="translate(275.21875 0)"/>
      <use xlink:href="#DejaVuSans-46" transform="translate(307 0)"/>
      <use xlink:href="#DejaVuSans-52" transform="translate(361.984375 0)"/>
      <use xlink:href="#DejaVuSans-50" transform="translate(423.171875 0)"/>
      <use xlink:href="#DejaVuSans-53" transform="translate(520.578125 0)"/>
      <use xlink:href="#DejaVuSans-52" transform="translate(584.0625 0)"/>
      <use xlink:href="#DejaVuSans-51" transform="translate(645.25 0)"/>
      <use xlink:href="#DejaVuSans-48" transform="translate(708.625 0)"/>
      <use xlink:href="#DejaVuSans-51" transform="translate(770.15625 0)"/>
      <use xlink:href="#DejaVuSans-57" transform="translate(833.53125 0)"/>
      <use xlink:href="#DejaVuSans-56" transform="translate(872.734375 0)"/>
     </g>
    </g>
    <g id="patch_4">
     <path d="M 16.2 71.638887 
L 36.2 71.638887 
L 36.2 64.638887 
L 16.2 64.638887 
z
" style="fill: #e67e22; stroke: #e67e22; stroke-linejoin: miter"/>
    </g>
    <g id="text_17">
     <!-- EMT transcription factors -->
     <g transform="translate(44.2 71.638887) scale(0.1 -0.1)">
      <defs>
       <path id="DejaVuSans-30" d="M 628 4666 
L 1569 4666 
L 2759 1491 
L 3956 4666 
L 4897 4666 
L 4897 0 
L 4281 0 
L 4281 4097 
L 3078 897 
L 2444 897 
L 1241 4097 
L 1241 0 
L 628 0 
L 628 4666 
z
" transform="scale(0.015625)"/>
       <path id="DejaVuSans-37" d="M -19 4666 
L 3928 4666 
L 3928 4134 
L 2272 4134 
L 2272 0 
L 1638 0 
L 1638 4134 
L -19 4134 
L -19 4666 
z
" transform="scale(0.015625)"/>
       <path id="DejaVuSans-55" d="M 2631 2963 
Q 2534 3019 2420 3045 
Q 2306 3072 2169 3072 
Q 1681 3072 1420 2755 
Q 1159 2438 1159 1844 
L 1159 0 
L 581 0 
L 581 3500 
L 1159 3500 
L 1159 2956 
Q 1341 3275 1631 3429 
Q 1922 3584 2338 3584 
Q 2397 3584 2469 3576 
Q 2541 3569 2628 3553 
L 2631 2963 
z
" transform="scale(0.015625)"/>
       <path id="DejaVuSans-44" d="M 2194 1759 
Q 1497 1759 1228 1600 
Q 959 1441 959 1056 
Q 959 750 1161 570 
Q 1363 391 1709 391 
Q 2188 391 2477 730 
Q 2766 1069 2766 1631 
L 2766 1759 
L 2194 1759 
z
M 3341 1997 
L 3341 0 
L 2766 0 
L 2766 531 
Q 2569 213 2275 61 
Q 1981 -91 1556 -91 
Q 1019 -91 701 211 
Q 384 513 384 1019 
Q 384 1609 779 1909 
Q 1175 2209 1959 2209 
L 2766 2209 
L 2766 2266 
Q 2766 2663 2505 2880 
Q 2244 3097 1772 3097 
Q 1472 3097 1187 3025 
Q 903 2953 641 2809 
L 641 3341 
Q 956 3463 1253 3523 
Q 1550 3584 1831 3584 
Q 2591 3584 2966 3190 
Q 3341 2797 3341 1997 
z
" transform="scale(0.015625)"/>
       <path id="DejaVuSans-4c" d="M 603 3500 
L 1178 3500 
L 1178 0 
L 603 0 
L 603 3500 
z
M 603 4863 
L 1178 4863 
L 1178 4134 
L 603 4134 
L 603 4863 
z
" transform="scale(0.015625)"/>
       <path id="DejaVuSans-49" d="M 2375 4863 
L 2375 4384 
L 1825 4384 
Q 1516 4384 1395 4259 
Q 1275 4134 1275 3809 
L 1275 3500 
L 2222 3500 
L 2222 3053 
L 1275 3053 
L 1275 0 
L 697 0 
L 697 3053 
L 147 3053 
L 147 3500 
L 697 3500 
L 697 3744 
Q 697 4328 969 4595 
Q 1241 4863 1831 4863 
L 2375 4863 
z
" transform="scale(0.015625)"/>
      </defs>
      <use xlink:href="#DejaVuSans-28"/>
      <use xlink:href="#DejaVuSans-30" transform="translate(63.1875 0)"/>
      <use xlink:href="#DejaVuSans-37" transform="translate(149.46875 0)"/>
      <use xlink:href="#DejaVuSans-3" transform="translate(210.546875 0)"/>
      <use xlink:href="#DejaVuSans-57" transform="translate(242.328125 0)"/>
      <use xlink:href="#DejaVuSans-55" transform="translate(281.53125 0)"/>
      <use xlink:href="#DejaVuSans-44" transform="translate(322.640625 0)"/>
      <use xlink:href="#DejaVuSans-51" transform="translate(383.921875 0)"/>
      <use xlink:href="#DejaVuSans-56" transform="translate(447.296875 0)"/>
      <use xlink:href="#DejaVuSans-46" transform="translate(499.390625 0)"/>
      <use xlink:href="#DejaVuSans-55" transform="translate(554.375 0)"/>
      <use xlink:href="#DejaVuSans-4c" transform="translate(595.484375 0)"/>
      <use xlink:href="#DejaVuSans-53" transform="translate(623.265625 0)"/>
      <use xlink:href="#DejaVuSans-57" transform="translate(686.75 0)"/>
      <use xlink:href="#DejaVuSans-4c" transform="translate(725.953125 0)"/>
      <use xlink:href="#DejaVuSans-52" transform="translate(753.734375 0)"/>
      <use xlink:href="#DejaVuSans-51" transform="translate(814.921875 0)"/>
      <use xlink:href="#DejaVuSans-3" transform="translate(878.296875 0)"/>
      <use xlink:href="#DejaVuSans-49" transform="translate(910.078125 0)"/>
      <use xlink:href="#DejaVuSans-44" transform="translate(945.28125 0)"/>
      <use xlink:href="#DejaVuSans-46" transform="translate(1006.5625 0)"/>
      <use xlink:href="#DejaVuSans-57" transform="translate(1061.546875 0)"/>
      <use xlink:href="#DejaVuSans-52" transform="translate(1100.75 0)"/>
      <use xlink:href="#DejaVuSans-55" transform="translate(1161.9375 0)"/>
      <use xlink:href="#DejaVuSans-56" transform="translate(1203.046875 0)"/>
     </g>
    </g>
    <g id="patch_5">
     <path d="M 16.2 86.639668 
L 36.2 86.639668 
L 36.2 79.639668 
L 16.2 79.639668 
z
" style="fill: #8e44ad; stroke: #8e44ad; stroke-linejoin: miter"/>
    </g>
    <g id="text_18">
     <!-- NF-κB / IL-6 pathway -->
     <g transform="translate(44.2 86.639668) scale(0.1 -0.1)">
      <defs>
       <path id="DejaVuSans-31" d="M 628 4666 
L 1478 4666 
L 3547 763 
L 3547 4666 
L 4159 4666 
L 4159 0 
L 3309 0 
L 1241 3903 
L 1241 0 
L 628 0 
L 628 4666 
z
" transform="scale(0.015625)"/>
       <path id="DejaVuSans-29" d="M 628 4666 
L 3309 4666 
L 3309 4134 
L 1259 4134 
L 1259 2759 
L 3109 2759 
L 3109 2228 
L 1259 2228 
L 1259 0 
L 628 0 
L 628 4666 
z
" transform="scale(0.015625)"/>
       <path id="DejaVuSans-10" d="M 313 2009 
L 1997 2009 
L 1997 1497 
L 313 1497 
L 313 2009 
z
" transform="scale(0.015625)"/>
       <path id="DejaVuSans-34e" d="M 597 3500 
L 1191 3500 
L 1191 2047 
L 2700 3500 
L 3400 3500 
L 2022 2181 
L 3616 0 
L 2913 0 
L 1619 1806 
L 1191 1403 
L 1191 0 
L 597 0 
L 597 3500 
z
" transform="scale(0.015625)"/>
       <path id="DejaVuSans-25" d="M 1259 2228 
L 1259 519 
L 2272 519 
Q 2781 519 3026 730 
Q 3272 941 3272 1375 
Q 3272 1813 3026 2020 
Q 2781 2228 2272 2228 
L 1259 2228 
z
M 1259 4147 
L 1259 2741 
L 2194 2741 
Q 2656 2741 2882 2914 
Q 3109 3088 3109 3444 
Q 3109 3797 2882 3972 
Q 2656 4147 2194 4147 
L 1259 4147 
z
M 628 4666 
L 2241 4666 
Q 2963 4666 3353 4366 
Q 3744 4066 3744 3513 
Q 3744 3084 3544 2831 
Q 3344 2578 2956 2516 
Q 3422 2416 3680 2098 
Q 3938 1781 3938 1306 
Q 3938 681 3513 340 
Q 3088 0 2303 0 
L 628 0 
L 628 4666 
z
" transform="scale(0.015625)"/>
       <path id="DejaVuSans-12" d="M 1625 4666 
L 2156 4666 
L 531 -594 
L 0 -594 
L 1625 4666 
z
" transform="scale(0.015625)"/>
       <path id="DejaVuSans-2c" d="M 628 4666 
L 1259 4666 
L 1259 0 
L 628 0 
L 628 4666 
z
" transform="scale(0.015625)"/>
       <path id="DejaVuSans-2f" d="M 628 4666 
L 1259 4666 
L 1259 531 
L 3531 531 
L 3531 0 
L 628 0 
L 628 4666 
z
" transform="scale(0.015625)"/>
       <path id="DejaVuSans-19" d="M 2113 2584 
Q 1688 2584 1439 2293 
Q 1191 2003 1191 1497 
Q 1191 994 1439 701 
Q 1688 409 2113 409 
Q 2538 409 2786 701 
Q 3034 994 3034 1497 
Q 3034 2003 2786 2293 
Q 2538 2584 2113 2584 
z
M 3366 4563 
L 3366 3988 
Q 3128 4100 2886 4159 
Q 2644 4219 2406 4219 
Q 1781 4219 1451 3797 
Q 1122 3375 1075 2522 
Q 1259 2794 1537 2939 
Q 1816 3084 2150 3084 
Q 2853 3084 3261 2657 
Q 3669 2231 3669 1497 
Q 3669 778 3244 343 
Q 2819 -91 2113 -91 
Q 1303 -91 875 529 
Q 447 1150 447 2328 
Q 447 3434 972 4092 
Q 1497 4750 2381 4750 
Q 2619 4750 2861 4703 
Q 3103 4656 3366 4563 
z
" transform="scale(0.015625)"/>
       <path id="DejaVuSans-4b" d="M 3513 2113 
L 3513 0 
L 2938 0 
L 2938 2094 
Q 2938 2591 2744 2837 
Q 2550 3084 2163 3084 
Q 1697 3084 1428 2787 
Q 1159 2491 1159 1978 
L 1159 0 
L 581 0 
L 581 4863 
L 1159 4863 
L 1159 2956 
Q 1366 3272 1645 3428 
Q 1925 3584 2291 3584 
Q 2894 3584 3203 3211 
Q 3513 2838 3513 2113 
z
" transform="scale(0.015625)"/>
       <path id="DejaVuSans-5a" d="M 269 3500 
L 844 3500 
L 1563 769 
L 2278 3500 
L 2956 3500 
L 3675 769 
L 4391 3500 
L 4966 3500 
L 4050 0 
L 3372 0 
L 2619 2869 
L 1863 0 
L 1184 0 
L 269 3500 
z
" transform="scale(0.015625)"/>
       <path id="DejaVuSans-5c" d="M 2059 -325 
Q 1816 -950 1584 -1140 
Q 1353 -1331 966 -1331 
L 506 -1331 
L 506 -850 
L 844 -850 
Q 1081 -850 1212 -737 
Q 1344 -625 1503 -206 
L 1606 56 
L 191 3500 
L 800 3500 
L 1894 763 
L 2988 3500 
L 3597 3500 
L 2059 -325 
z
" transform="scale(0.015625)"/>
      </defs>
      <use xlink:href="#DejaVuSans-31"/>
      <use xlink:href="#DejaVuSans-29" transform="translate(74.8125 0)"/>
      <use xlink:href="#DejaVuSans-10" transform="translate(132.328125 0)"/>
      <use xlink:href="#DejaVuSans-34e" transform="translate(168.40625 0)"/>
      <use xlink:href="#DejaVuSans-25" transform="translate(227.34375 0)"/>
      <use xlink:href="#DejaVuSans-3" transform="translate(295.953125 0)"/>
      <use xlink:href="#DejaVuSans-12" transform="translate(327.734375 0)"/>
      <use xlink:href="#DejaVuSans-3" transform="translate(361.421875 0)"/>
      <use xlink:href="#DejaVuSans-2c" transform="translate(393.203125 0)"/>
      <use xlink:href="#DejaVuSans-2f" transform="translate(422.703125 0)"/>
      <use xlink:href="#DejaVuSans-10" transform="translate(476.671875 0)"/>
      <use xlink:href="#DejaVuSans-19" transform="translate(512.75 0)"/>
      <use xlink:href="#DejaVuSans-3" transform="translate(576.375 0)"/>
      <use xlink:href="#DejaVuSans-53" transform="translate(608.15625 0)"/>
      <use xlink:href="#DejaVuSans-44" transform="translate(671.640625 0)"/>
      <use xlink:href="#DejaVuSans-57" transform="translate(732.921875 0)"/>
      <use xlink:href="#DejaVuSans-4b" transform="translate(772.125 0)"/>
      <use xlink:href="#DejaVuSans-5a" transform="translate(835.5 0)"/>
      <use xlink:href="#DejaVuSans-44" transform="translate(917.28125 0)"/>
      <use xlink:href="#DejaVuSans-5c" transform="translate(978.5625 0)"/>
     </g>
    </g>
    <g id="patch_6">
     <path d="M 16.2 101.640449 
L 36.2 101.640449 
L 36.2 94.640449 
L 16.2 94.640449 
z
" style="fill: #3498db; stroke: #3498db; stroke-linejoin: miter"/>
    </g>
    <g id="text_19">
     <!-- Other interactors -->
     <g transform="translate(44.2 101.640449) scale(0.1 -0.1)">
      <use xlink:href="#DejaVuSans-32"/>
      <use xlink:href="#DejaVuSans-57" transform="translate(78.71875 0)"/>
      <use xlink:href="#DejaVuSans-4b" transform="translate(117.921875 0)"/>
      <use xlink:href="#DejaVuSans-48" transform="translate(181.296875 0)"/>
      <use xlink:href="#DejaVuSans-55" transform="translate(242.828125 0)"/>
      <use xlink:href="#DejaVuSans-3" transform="translate(283.9375 0)"/>
      <use xlink:href="#DejaVuSans-4c" transform="translate(315.71875 0)"/>
      <use xlink:href="#DejaVuSans-51" transform="translate(343.5 0)"/>
      <use xlink:href="#DejaVuSans-57" transform="translate(406.875 0)"/>
      <use xlink:href="#DejaVuSans-48" transform="translate(446.078125 0)"/>
      <use xlink:href="#DejaVuSans-55" transform="translate(507.609375 0)"/>
      <use xlink:href="#DejaVuSans-44" transform="translate(548.71875 0)"/>
      <use xlink:href="#DejaVuSans-46" transform="translate(610 0)"/>
      <use xlink:href="#DejaVuSans-57" transform="translate(664.984375 0)"/>
      <use xlink:href="#DejaVuSans-52" transform="translate(704.1875 0)"/>
      <use xlink:href="#DejaVuSans-55" transform="translate(765.375 0)"/>
      <use xlink:href="#DejaVuSans-56" transform="translate(806.484375 0)"/>
     </g>
    </g>
   </g>
  </g>
 </g>
 <defs>
  <clipPath id="p5aec25b044">
   <rect x="7.2" y="40.039668" width="986.4" height="737.213145"/>
  </clipPath>
 </defs>
</svg>
