<?xml version="1.0" encoding="utf-8" standalone="no"?>
<!DOCTYPE svg PUBLIC "-//W3C//DTD SVG 1.1//EN"
  "http://www.w3.org/Graphics/SVG/1.1/DTD/svg11.dtd">
<svg xmlns:xlink="http://www.w3.org/1999/xlink" width="712.360937pt" height="424.31625pt" viewBox="0 0 712.360937 424.31625" xmlns="http://www.w3.org/2000/svg" version="1.1">
 <metadata>
  <rdf:RDF xmlns:dc="http://purl.org/dc/elements/1.1/" xmlns:cc="http://creativecommons.org/ns#" xmlns:rdf="http://www.w3.org/1999/02/22-rdf-syntax-ns#">
   <cc:Work>
    <dc:type rdf:resource="http://purl.org/dc/dcmitype/StillImage"/>
    <dc:date>2026-07-04T18:32:44.128312</dc:date>
    <dc:format>image/svg+xml</dc:format>
    <dc:creator>
     <cc:Agent>
      <dc:title>Matplotlib v3.11.0, https://matplotlib.org/</dc:title>
     </cc:Agent>
    </dc:creator>
   </cc:Work>
  </rdf:RDF>
 </metadata>
 <defs>
  <style type="text/css">*{stroke-linejoin: round; stroke-linecap: butt}</style>
 </defs>
 <g id="figure_1">
  <g id="patch_1">
   <path d="M 0 424.31625 
L 712.360937 424.31625 
L 712.360937 0 
L 0 0 
z
" style="fill: #ffffff"/>
  </g>
  <g id="axes_1">
   <g id="patch_2">
    <path d="M 54.48375 384.11625 
L 705.160938 384.11625 
L 705.160938 37.922578 
L 54.48375 37.922578 
z
" style="fill: #ffffff"/>
   </g>
   <g id="matplotlib.axis_1">
    <g id="xtick_1">
     <g id="line2d_1">
      <defs>
       <path id="mf3a0a54cb2" d="M 0 0 
L 0 3.5 
" style="stroke: #000000; stroke-width: 0.8"/>
      </defs>
      <g>
       <use xlink:href="#mf3a0a54cb2" x="135.818398" y="384.11625" style="stroke: #000000; stroke-width: 0.8"/>
      </g>
     </g>
     <g id="text_1">
      <!-- STIM1 -->
      <g transform="translate(120.619961 398.713906) scale(0.1 -0.1)">
       <defs>
        <path id="DejaVuSans-36" d="M 3425 4513 
L 3425 3897 
Q 3066 4069 2747 4153 
Q 2428 4238 2131 4238 
Q 1616 4238 1336 4038 
Q 1056 3838 1056 3469 
Q 1056 3159 1242 3001 
Q 1428 2844 1947 2747 
L 2328 2669 
Q 3034 2534 3370 2195 
Q 3706 1856 3706 1288 
Q 3706 609 3251 259 
Q 2797 -91 1919 -91 
Q 1588 -91 1214 -16 
Q 841 59 441 206 
L 441 856 
Q 825 641 1194 531 
Q 1563 422 1919 422 
Q 2459 422 2753 634 
Q 3047 847 3047 1241 
Q 3047 1584 2836 1778 
Q 2625 1972 2144 2069 
L 1759 2144 
Q 1053 2284 737 2584 
Q 422 2884 422 3419 
Q 422 4038 858 4394 
Q 1294 4750 2059 4750 
Q 2388 4750 2728 4690 
Q 3069 4631 3425 4513 
z
" transform="scale(0.015625)"/>
        <path id="DejaVuSans-37" d="M -19 4666 
L 3928 4666 
L 3928 4134 
L 2272 4134 
L 2272 0 
L 1638 0 
L 1638 4134 
L -19 4134 
L -19 4666 
z
" transform="scale(0.015625)"/>
        <path id="DejaVuSans-2c" d="M 628 4666 
L 1259 4666 
L 1259 0 
L 628 0 
L 628 4666 
z
" transform="scale(0.015625)"/>
        <path id="DejaVuSans-30" d="M 628 4666 
L 1569 4666 
L 2759 1491 
L 3956 4666 
L 4897 4666 
L 4897 0 
L 4281 0 
L 4281 4097 
L 3078 897 
L 2444 897 
L 1241 4097 
L 1241 0 
L 628 0 
L 628 4666 
z
" transform="scale(0.015625)"/>
        <path id="DejaVuSans-14" d="M 794 531 
L 1825 531 
L 1825 4091 
L 703 3866 
L 703 4441 
L 1819 4666 
L 2450 4666 
L 2450 531 
L 3481 531 
L 3481 0 
L 794 0 
L 794 531 
z
" transform="scale(0.015625)"/>
       </defs>
       <use xlink:href="#DejaVuSans-36"/>
       <use xlink:href="#DejaVuSans-37" transform="translate(63.484375 0)"/>
       <use xlink:href="#DejaVuSans-2c" transform="translate(124.5625 0)"/>
       <use xlink:href="#DejaVuSans-30" transform="translate(154.0625 0)"/>
       <use xlink:href="#DejaVuSans-14" transform="translate(240.34375 0)"/>
      </g>
     </g>
    </g>
    <g id="xtick_2">
     <g id="line2d_2">
      <g>
       <use xlink:href="#mf3a0a54cb2" x="298.487695" y="384.11625" style="stroke: #000000; stroke-width: 0.8"/>
      </g>
     </g>
     <g id="text_2">
      <!-- TRPC6 -->
      <g transform="translate(282.27207 398.713906) scale(0.1 -0.1)">
       <defs>
        <path id="DejaVuSans-35" d="M 2841 2188 
Q 3044 2119 3236 1894 
Q 3428 1669 3622 1275 
L 4263 0 
L 3584 0 
L 2988 1197 
Q 2756 1666 2539 1819 
Q 2322 1972 1947 1972 
L 1259 1972 
L 1259 0 
L 628 0 
L 628 4666 
L 2053 4666 
Q 2853 4666 3247 4331 
Q 3641 3997 3641 3322 
Q 3641 2881 3436 2590 
Q 3231 2300 2841 2188 
z
M 1259 4147 
L 1259 2491 
L 2053 2491 
Q 2509 2491 2742 2702 
Q 2975 2913 2975 3322 
Q 2975 3731 2742 3939 
Q 2509 4147 2053 4147 
L 1259 4147 
z
" transform="scale(0.015625)"/>
        <path id="DejaVuSans-33" d="M 1259 4147 
L 1259 2394 
L 2053 2394 
Q 2494 2394 2734 2622 
Q 2975 2850 2975 3272 
Q 2975 3691 2734 3919 
Q 2494 4147 2053 4147 
L 1259 4147 
z
M 628 4666 
L 2053 4666 
Q 2838 4666 3239 4311 
Q 3641 3956 3641 3272 
Q 3641 2581 3239 2228 
Q 2838 1875 2053 1875 
L 1259 1875 
L 1259 0 
L 628 0 
L 628 4666 
z
" transform="scale(0.015625)"/>
        <path id="DejaVuSans-26" d="M 4122 4306 
L 4122 3641 
Q 3803 3938 3442 4084 
Q 3081 4231 2675 4231 
Q 1875 4231 1450 3742 
Q 1025 3253 1025 2328 
Q 1025 1406 1450 917 
Q 1875 428 2675 428 
Q 3081 428 3442 575 
Q 3803 722 4122 1019 
L 4122 359 
Q 3791 134 3420 21 
Q 3050 -91 2638 -91 
Q 1578 -91 968 557 
Q 359 1206 359 2328 
Q 359 3453 968 4101 
Q 1578 4750 2638 4750 
Q 3056 4750 3426 4639 
Q 3797 4528 4122 4306 
z
" transform="scale(0.015625)"/>
        <path id="DejaVuSans-19" d="M 2113 2584 
Q 1688 2584 1439 2293 
Q 1191 2003 1191 1497 
Q 1191 994 1439 701 
Q 1688 409 2113 409 
Q 2538 409 2786 701 
Q 3034 994 3034 1497 
Q 3034 2003 2786 2293 
Q 2538 2584 2113 2584 
z
M 3366 4563 
L 3366 3988 
Q 3128 4100 2886 4159 
Q 2644 4219 2406 4219 
Q 1781 4219 1451 3797 
Q 1122 3375 1075 2522 
Q 1259 2794 1537 2939 
Q 1816 3084 2150 3084 
Q 2853 3084 3261 2657 
Q 3669 2231 3669 1497 
Q 3669 778 3244 343 
Q 2819 -91 2113 -91 
Q 1303 -91 875 529 
Q 447 1150 447 2328 
Q 447 3434 972 4092 
Q 1497 4750 2381 4750 
Q 2619 4750 2861 4703 
Q 3103 4656 3366 4563 
z
" transform="scale(0.015625)"/>
       </defs>
       <use xlink:href="#DejaVuSans-37"/>
       <use xlink:href="#DejaVuSans-35" transform="translate(61.078125 0)"/>
       <use xlink:href="#DejaVuSans-33" transform="translate(130.5625 0)"/>
       <use xlink:href="#DejaVuSans-26" transform="translate(190.859375 0)"/>
       <use xlink:href="#DejaVuSans-19" transform="translate(260.6875 0)"/>
      </g>
     </g>
    </g>
    <g id="xtick_3">
     <g id="line2d_3">
      <g>
       <use xlink:href="#mf3a0a54cb2" x="461.156992" y="384.11625" style="stroke: #000000; stroke-width: 0.8"/>
      </g>
     </g>
     <g id="text_3">
      <!-- TRPC1 -->
      <g transform="translate(444.941367 398.713906) scale(0.1 -0.1)">
       <use xlink:href="#DejaVuSans-37"/>
       <use xlink:href="#DejaVuSans-35" transform="translate(61.078125 0)"/>
       <use xlink:href="#DejaVuSans-33" transform="translate(130.5625 0)"/>
       <use xlink:href="#DejaVuSans-26" transform="translate(190.859375 0)"/>
       <use xlink:href="#DejaVuSans-14" transform="translate(260.6875 0)"/>
      </g>
     </g>
    </g>
    <g id="xtick_4">
     <g id="line2d_4">
      <g>
       <use xlink:href="#mf3a0a54cb2" x="623.826289" y="384.11625" style="stroke: #000000; stroke-width: 0.8"/>
      </g>
     </g>
     <g id="text_4">
      <!-- ORAI1 -->
      <g transform="translate(608.541914 398.713906) scale(0.1 -0.1)">
       <defs>
        <path id="DejaVuSans-32" d="M 2522 4238 
Q 1834 4238 1429 3725 
Q 1025 3213 1025 2328 
Q 1025 1447 1429 934 
Q 1834 422 2522 422 
Q 3209 422 3611 934 
Q 4013 1447 4013 2328 
Q 4013 3213 3611 3725 
Q 3209 4238 2522 4238 
z
M 2522 4750 
Q 3503 4750 4090 4092 
Q 4678 3434 4678 2328 
Q 4678 1225 4090 567 
Q 3503 -91 2522 -91 
Q 1538 -91 948 565 
Q 359 1222 359 2328 
Q 359 3434 948 4092 
Q 1538 4750 2522 4750 
z
" transform="scale(0.015625)"/>
        <path id="DejaVuSans-24" d="M 2188 4044 
L 1331 1722 
L 3047 1722 
L 2188 4044 
z
M 1831 4666 
L 2547 4666 
L 4325 0 
L 3669 0 
L 3244 1197 
L 1141 1197 
L 716 0 
L 50 0 
L 1831 4666 
z
" transform="scale(0.015625)"/>
       </defs>
       <use xlink:href="#DejaVuSans-32"/>
       <use xlink:href="#DejaVuSans-35" transform="translate(78.71875 0)"/>
       <use xlink:href="#DejaVuSans-24" transform="translate(144.15625 0)"/>
       <use xlink:href="#DejaVuSans-2c" transform="translate(212.5625 0)"/>
       <use xlink:href="#DejaVuSans-14" transform="translate(242.0625 0)"/>
      </g>
     </g>
    </g>
    <g id="text_5">
     <!-- Gene -->
     <g transform="translate(363.987031 414.233437) scale(0.12 -0.12)">
      <defs>
       <path id="DejaVuSans-2a" d="M 3809 666 
L 3809 1919 
L 2778 1919 
L 2778 2438 
L 4434 2438 
L 4434 434 
Q 4069 175 3628 42 
Q 3188 -91 2688 -91 
Q 1594 -91 976 548 
Q 359 1188 359 2328 
Q 359 3472 976 4111 
Q 1594 4750 2688 4750 
Q 3144 4750 3555 4637 
Q 3966 4525 4313 4306 
L 4313 3634 
Q 3963 3931 3569 4081 
Q 3175 4231 2741 4231 
Q 1884 4231 1454 3753 
Q 1025 3275 1025 2328 
Q 1025 1384 1454 906 
Q 1884 428 2741 428 
Q 3075 428 3337 486 
Q 3600 544 3809 666 
z
" transform="scale(0.015625)"/>
       <path id="DejaVuSans-48" d="M 3597 1894 
L 3597 1613 
L 953 1613 
Q 991 1019 1311 708 
Q 1631 397 2203 397 
Q 2534 397 2845 478 
Q 3156 559 3463 722 
L 3463 178 
Q 3153 47 2828 -22 
Q 2503 -91 2169 -91 
Q 1331 -91 842 396 
Q 353 884 353 1716 
Q 353 2575 817 3079 
Q 1281 3584 2069 3584 
Q 2775 3584 3186 3129 
Q 3597 2675 3597 1894 
z
M 3022 2063 
Q 3016 2534 2758 2815 
Q 2500 3097 2075 3097 
Q 1594 3097 1305 2825 
Q 1016 2553 972 2059 
L 3022 2063 
z
" transform="scale(0.015625)"/>
       <path id="DejaVuSans-51" d="M 3513 2113 
L 3513 0 
L 2938 0 
L 2938 2094 
Q 2938 2591 2744 2837 
Q 2550 3084 2163 3084 
Q 1697 3084 1428 2787 
Q 1159 2491 1159 1978 
L 1159 0 
L 581 0 
L 581 3500 
L 1159 3500 
L 1159 2956 
Q 1366 3272 1645 3428 
Q 1925 3584 2291 3584 
Q 2894 3584 3203 3211 
Q 3513 2838 3513 2113 
z
" transform="scale(0.015625)"/>
      </defs>
      <use xlink:href="#DejaVuSans-2a"/>
      <use xlink:href="#DejaVuSans-48" transform="translate(77.484375 0)"/>
      <use xlink:href="#DejaVuSans-51" transform="translate(139.015625 0)"/>
      <use xlink:href="#DejaVuSans-48" transform="translate(202.390625 0)"/>
     </g>
    </g>
   </g>
   <g id="matplotlib.axis_2">
    <g id="ytick_1">
     <g id="line2d_5">
      <defs>
       <path id="m08cebc4a3d" d="M 0 0 
L -3.5 0 
" style="stroke: #000000; stroke-width: 0.8"/>
      </defs>
      <g>
       <use xlink:href="#m08cebc4a3d" x="54.48375" y="384.11625" style="stroke: #000000; stroke-width: 0.8"/>
      </g>
     </g>
     <g id="text_6">
      <!-- −2.0 -->
      <g transform="translate(23.200938 387.915078) scale(0.1 -0.1)">
       <defs>
        <path id="DejaVuSans-c9c" d="M 678 2272 
L 4684 2272 
L 4684 1741 
L 678 1741 
L 678 2272 
z
" transform="scale(0.015625)"/>
        <path id="DejaVuSans-15" d="M 1228 531 
L 3431 531 
L 3431 0 
L 469 0 
L 469 531 
Q 828 903 1448 1529 
Q 2069 2156 2228 2338 
Q 2531 2678 2651 2914 
Q 2772 3150 2772 3378 
Q 2772 3750 2511 3984 
Q 2250 4219 1831 4219 
Q 1534 4219 1204 4116 
Q 875 4013 500 3803 
L 500 4441 
Q 881 4594 1212 4672 
Q 1544 4750 1819 4750 
Q 2544 4750 2975 4387 
Q 3406 4025 3406 3419 
Q 3406 3131 3298 2873 
Q 3191 2616 2906 2266 
Q 2828 2175 2409 1742 
Q 1991 1309 1228 531 
z
" transform="scale(0.015625)"/>
        <path id="DejaVuSans-11" d="M 684 794 
L 1344 794 
L 1344 0 
L 684 0 
L 684 794 
z
" transform="scale(0.015625)"/>
        <path id="DejaVuSans-13" d="M 2034 4250 
Q 1547 4250 1301 3770 
Q 1056 3291 1056 2328 
Q 1056 1369 1301 889 
Q 1547 409 2034 409 
Q 2525 409 2770 889 
Q 3016 1369 3016 2328 
Q 3016 3291 2770 3770 
Q 2525 4250 2034 4250 
z
M 2034 4750 
Q 2819 4750 3233 4129 
Q 3647 3509 3647 2328 
Q 3647 1150 3233 529 
Q 2819 -91 2034 -91 
Q 1250 -91 836 529 
Q 422 1150 422 2328 
Q 422 3509 836 4129 
Q 1250 4750 2034 4750 
z
" transform="scale(0.015625)"/>
       </defs>
       <use xlink:href="#DejaVuSans-c9c"/>
       <use xlink:href="#DejaVuSans-15" transform="translate(83.796875 0)"/>
       <use xlink:href="#DejaVuSans-11" transform="translate(147.421875 0)"/>
       <use xlink:href="#DejaVuSans-13" transform="translate(179.203125 0)"/>
      </g>
     </g>
    </g>
    <g id="ytick_2">
     <g id="line2d_6">
      <g>
       <use xlink:href="#m08cebc4a3d" x="54.48375" y="326.417305" style="stroke: #000000; stroke-width: 0.8"/>
      </g>
     </g>
     <g id="text_7">
      <!-- −1.5 -->
      <g transform="translate(23.200938 330.216133) scale(0.1 -0.1)">
       <defs>
        <path id="DejaVuSans-18" d="M 691 4666 
L 3169 4666 
L 3169 4134 
L 1269 4134 
L 1269 2991 
Q 1406 3038 1543 3061 
Q 1681 3084 1819 3084 
Q 2600 3084 3056 2656 
Q 3513 2228 3513 1497 
Q 3513 744 3044 326 
Q 2575 -91 1722 -91 
Q 1428 -91 1123 -41 
Q 819 9 494 109 
L 494 744 
Q 775 591 1075 516 
Q 1375 441 1709 441 
Q 2250 441 2565 725 
Q 2881 1009 2881 1497 
Q 2881 1984 2565 2268 
Q 2250 2553 1709 2553 
Q 1456 2553 1204 2497 
Q 953 2441 691 2322 
L 691 4666 
z
" transform="scale(0.015625)"/>
       </defs>
       <use xlink:href="#DejaVuSans-c9c"/>
       <use xlink:href="#DejaVuSans-14" transform="translate(83.796875 0)"/>
       <use xlink:href="#DejaVuSans-11" transform="translate(147.421875 0)"/>
       <use xlink:href="#DejaVuSans-18" transform="translate(179.203125 0)"/>
      </g>
     </g>
    </g>
    <g id="ytick_3">
     <g id="line2d_7">
      <g>
       <use xlink:href="#m08cebc4a3d" x="54.48375" y="268.718359" style="stroke: #000000; stroke-width: 0.8"/>
      </g>
     </g>
     <g id="text_8">
      <!-- −1.0 -->
      <g transform="translate(23.200938 272.517187) scale(0.1 -0.1)">
       <use xlink:href="#DejaVuSans-c9c"/>
       <use xlink:href="#DejaVuSans-14" transform="translate(83.796875 0)"/>
       <use xlink:href="#DejaVuSans-11" transform="translate(147.421875 0)"/>
       <use xlink:href="#DejaVuSans-13" transform="translate(179.203125 0)"/>
      </g>
     </g>
    </g>
    <g id="ytick_4">
     <g id="line2d_8">
      <g>
       <use xlink:href="#m08cebc4a3d" x="54.48375" y="211.019414" style="stroke: #000000; stroke-width: 0.8"/>
      </g>
     </g>
     <g id="text_9">
      <!-- −0.5 -->
      <g transform="translate(23.200938 214.818242) scale(0.1 -0.1)">
       <use xlink:href="#DejaVuSans-c9c"/>
       <use xlink:href="#DejaVuSans-13" transform="translate(83.796875 0)"/>
       <use xlink:href="#DejaVuSans-11" transform="translate(147.421875 0)"/>
       <use xlink:href="#DejaVuSans-18" transform="translate(179.203125 0)"/>
      </g>
     </g>
    </g>
    <g id="ytick_5">
     <g id="line2d_9">
      <g>
       <use xlink:href="#m08cebc4a3d" x="54.48375" y="153.320469" style="stroke: #000000; stroke-width: 0.8"/>
      </g>
     </g>
     <g id="text_10">
      <!-- 0.0 -->
      <g transform="translate(31.580625 157.119297) scale(0.1 -0.1)">
       <use xlink:href="#DejaVuSans-13"/>
       <use xlink:href="#DejaVuSans-11" transform="translate(63.625 0)"/>
       <use xlink:href="#DejaVuSans-13" transform="translate(95.40625 0)"/>
      </g>
     </g>
    </g>
    <g id="ytick_6">
     <g id="line2d_10">
      <g>
       <use xlink:href="#m08cebc4a3d" x="54.48375" y="95.621523" style="stroke: #000000; stroke-width: 0.8"/>
      </g>
     </g>
     <g id="text_11">
      <!-- 0.5 -->
      <g transform="translate(31.580625 99.420352) scale(0.1 -0.1)">
       <use xlink:href="#DejaVuSans-13"/>
       <use xlink:href="#DejaVuSans-11" transform="translate(63.625 0)"/>
       <use xlink:href="#DejaVuSans-18" transform="translate(95.40625 0)"/>
      </g>
     </g>
    </g>
    <g id="ytick_7">
     <g id="line2d_11">
      <g>
       <use xlink:href="#m08cebc4a3d" x="54.48375" y="37.922578" style="stroke: #000000; stroke-width: 0.8"/>
      </g>
     </g>
     <g id="text_12">
      <!-- 1.0 -->
      <g transform="translate(31.580625 41.721406) scale(0.1 -0.1)">
       <use xlink:href="#DejaVuSans-14"/>
       <use xlink:href="#DejaVuSans-11" transform="translate(63.625 0)"/>
       <use xlink:href="#DejaVuSans-13" transform="translate(95.40625 0)"/>
      </g>
     </g>
    </g>
    <g id="text_13">
     <!-- CRISPR Gene Effect (Chronos) -->
     <g transform="translate(16.318125 300.846914) rotate(-90) scale(0.12 -0.12)">
      <defs>
       <path id="DejaVuSans-3" transform="scale(0.015625)"/>
       <path id="DejaVuSans-28" d="M 628 4666 
L 3578 4666 
L 3578 4134 
L 1259 4134 
L 1259 2753 
L 3481 2753 
L 3481 2222 
L 1259 2222 
L 1259 531 
L 3634 531 
L 3634 0 
L 628 0 
L 628 4666 
z
" transform="scale(0.015625)"/>
       <path id="DejaVuSans-13ae" d="M 4531 4863 
L 4531 4384 
L 3981 4384 
Q 3672 4384 3551 4259 
Q 3431 4134 3431 3809 
L 3431 3500 
L 4378 3500 
L 4378 3053 
L 3431 3053 
L 3431 0 
L 2853 0 
L 2853 3053 
L 1275 3053 
L 1275 0 
L 697 0 
L 697 3053 
L 147 3053 
L 147 3500 
L 697 3500 
L 697 3744 
Q 697 4328 969 4595 
Q 1241 4863 1831 4863 
L 2375 4863 
L 2375 4384 
L 1825 4384 
Q 1516 4384 1394 4259 
Q 1275 4134 1275 3809 
L 1275 3500 
L 2853 3500 
L 2853 3744 
Q 2853 4328 3125 4595 
Q 3397 4863 3988 4863 
L 4531 4863 
z
" transform="scale(0.015625)"/>
       <path id="DejaVuSans-46" d="M 3122 3366 
L 3122 2828 
Q 2878 2963 2633 3030 
Q 2388 3097 2138 3097 
Q 1578 3097 1268 2742 
Q 959 2388 959 1747 
Q 959 1106 1268 751 
Q 1578 397 2138 397 
Q 2388 397 2633 464 
Q 2878 531 3122 666 
L 3122 134 
Q 2881 22 2623 -34 
Q 2366 -91 2075 -91 
Q 1284 -91 818 406 
Q 353 903 353 1747 
Q 353 2603 823 3093 
Q 1294 3584 2113 3584 
Q 2378 3584 2631 3529 
Q 2884 3475 3122 3366 
z
" transform="scale(0.015625)"/>
       <path id="DejaVuSans-57" d="M 1172 4494 
L 1172 3500 
L 2356 3500 
L 2356 3053 
L 1172 3053 
L 1172 1153 
Q 1172 725 1289 603 
Q 1406 481 1766 481 
L 2356 481 
L 2356 0 
L 1766 0 
Q 1100 0 847 248 
Q 594 497 594 1153 
L 594 3053 
L 172 3053 
L 172 3500 
L 594 3500 
L 594 4494 
L 1172 4494 
z
" transform="scale(0.015625)"/>
       <path id="DejaVuSans-b" d="M 1984 4856 
Q 1566 4138 1362 3434 
Q 1159 2731 1159 2009 
Q 1159 1288 1364 580 
Q 1569 -128 1984 -844 
L 1484 -844 
Q 1016 -109 783 600 
Q 550 1309 550 2009 
Q 550 2706 781 3412 
Q 1013 4119 1484 4856 
L 1984 4856 
z
" transform="scale(0.015625)"/>
       <path id="DejaVuSans-4b" d="M 3513 2113 
L 3513 0 
L 2938 0 
L 2938 2094 
Q 2938 2591 2744 2837 
Q 2550 3084 2163 3084 
Q 1697 3084 1428 2787 
Q 1159 2491 1159 1978 
L 1159 0 
L 581 0 
L 581 4863 
L 1159 4863 
L 1159 2956 
Q 1366 3272 1645 3428 
Q 1925 3584 2291 3584 
Q 2894 3584 3203 3211 
Q 3513 2838 3513 2113 
z
" transform="scale(0.015625)"/>
       <path id="DejaVuSans-55" d="M 2631 2963 
Q 2534 3019 2420 3045 
Q 2306 3072 2169 3072 
Q 1681 3072 1420 2755 
Q 1159 2438 1159 1844 
L 1159 0 
L 581 0 
L 581 3500 
L 1159 3500 
L 1159 2956 
Q 1341 3275 1631 3429 
Q 1922 3584 2338 3584 
Q 2397 3584 2469 3576 
Q 2541 3569 2628 3553 
L 2631 2963 
z
" transform="scale(0.015625)"/>
       <path id="DejaVuSans-52" d="M 1959 3097 
Q 1497 3097 1228 2736 
Q 959 2375 959 1747 
Q 959 1119 1226 758 
Q 1494 397 1959 397 
Q 2419 397 2687 759 
Q 2956 1122 2956 1747 
Q 2956 2369 2687 2733 
Q 2419 3097 1959 3097 
z
M 1959 3584 
Q 2709 3584 3137 3096 
Q 3566 2609 3566 1747 
Q 3566 888 3137 398 
Q 2709 -91 1959 -91 
Q 1206 -91 779 398 
Q 353 888 353 1747 
Q 353 2609 779 3096 
Q 1206 3584 1959 3584 
z
" transform="scale(0.015625)"/>
       <path id="DejaVuSans-56" d="M 2834 3397 
L 2834 2853 
Q 2591 2978 2328 3040 
Q 2066 3103 1784 3103 
Q 1356 3103 1142 2972 
Q 928 2841 928 2578 
Q 928 2378 1081 2264 
Q 1234 2150 1697 2047 
L 1894 2003 
Q 2506 1872 2764 1633 
Q 3022 1394 3022 966 
Q 3022 478 2636 193 
Q 2250 -91 1575 -91 
Q 1294 -91 989 -36 
Q 684 19 347 128 
L 347 722 
Q 666 556 975 473 
Q 1284 391 1588 391 
Q 1994 391 2212 530 
Q 2431 669 2431 922 
Q 2431 1156 2273 1281 
Q 2116 1406 1581 1522 
L 1381 1569 
Q 847 1681 609 1914 
Q 372 2147 372 2553 
Q 372 3047 722 3315 
Q 1072 3584 1716 3584 
Q 2034 3584 2315 3537 
Q 2597 3491 2834 3397 
z
" transform="scale(0.015625)"/>
       <path id="DejaVuSans-c" d="M 513 4856 
L 1013 4856 
Q 1481 4119 1714 3412 
Q 1947 2706 1947 2009 
Q 1947 1309 1714 600 
Q 1481 -109 1013 -844 
L 513 -844 
Q 928 -128 1133 580 
Q 1338 1288 1338 2009 
Q 1338 2731 1133 3434 
Q 928 4138 513 4856 
z
" transform="scale(0.015625)"/>
      </defs>
      <use xlink:href="#DejaVuSans-26"/>
      <use xlink:href="#DejaVuSans-35" transform="translate(69.828125 0)"/>
      <use xlink:href="#DejaVuSans-2c" transform="translate(139.3125 0)"/>
      <use xlink:href="#DejaVuSans-36" transform="translate(168.8125 0)"/>
      <use xlink:href="#DejaVuSans-33" transform="translate(232.296875 0)"/>
      <use xlink:href="#DejaVuSans-35" transform="translate(292.59375 0)"/>
      <use xlink:href="#DejaVuSans-3" transform="translate(362.078125 0)"/>
      <use xlink:href="#DejaVuSans-2a" transform="translate(393.859375 0)"/>
      <use xlink:href="#DejaVuSans-48" transform="translate(471.34375 0)"/>
      <use xlink:href="#DejaVuSans-51" transform="translate(532.875 0)"/>
      <use xlink:href="#DejaVuSans-48" transform="translate(596.25 0)"/>
      <use xlink:href="#DejaVuSans-3" transform="translate(657.78125 0)"/>
      <use xlink:href="#DejaVuSans-28" transform="translate(689.5625 0)"/>
      <use xlink:href="#DejaVuSans-13ae" transform="translate(752.75 0)"/>
      <use xlink:href="#DejaVuSans-48" transform="translate(821.640625 0)"/>
      <use xlink:href="#DejaVuSans-46" transform="translate(883.171875 0)"/>
      <use xlink:href="#DejaVuSans-57" transform="translate(938.15625 0)"/>
      <use xlink:href="#DejaVuSans-3" transform="translate(977.359375 0)"/>
      <use xlink:href="#DejaVuSans-b" transform="translate(1009.140625 0)"/>
      <use xlink:href="#DejaVuSans-26" transform="translate(1048.15625 0)"/>
      <use xlink:href="#DejaVuSans-4b" transform="translate(1117.984375 0)"/>
      <use xlink:href="#DejaVuSans-55" transform="translate(1181.359375 0)"/>
      <use xlink:href="#DejaVuSans-52" transform="translate(1220.265625 0)"/>
      <use xlink:href="#DejaVuSans-51" transform="translate(1281.453125 0)"/>
      <use xlink:href="#DejaVuSans-52" transform="translate(1344.828125 0)"/>
      <use xlink:href="#DejaVuSans-56" transform="translate(1406.015625 0)"/>
      <use xlink:href="#DejaVuSans-c" transform="translate(1458.109375 0)"/>
     </g>
    </g>
   </g>
   <g id="patch_3">
    <path d="M 103.284539 175.246068 
L 168.352258 175.246068 
L 168.352258 164.860258 
L 103.284539 164.860258 
L 103.284539 175.246068 
z
" clip-path="url(#pfb09c6883f)" style="fill: #d25d51; opacity: 0.5; stroke: #404040; stroke-linejoin: miter"/>
   </g>
   <g id="line2d_12">
    <path d="M 135.818398 175.246068 
L 135.818398 181.015962 
" clip-path="url(#pfb09c6883f)" style="fill: none; stroke: #404040"/>
   </g>
   <g id="line2d_13">
    <path d="M 135.818398 164.860258 
L 135.818398 160.244342 
" clip-path="url(#pfb09c6883f)" style="fill: none; stroke: #404040"/>
   </g>
   <g id="line2d_14">
    <path d="M 119.551469 181.015962 
L 152.085328 181.015962 
" clip-path="url(#pfb09c6883f)" style="fill: none; stroke: #404040; stroke-linecap: square"/>
   </g>
   <g id="line2d_15">
    <path d="M 119.551469 160.244342 
L 152.085328 160.244342 
" clip-path="url(#pfb09c6883f)" style="fill: none; stroke: #404040; stroke-linecap: square"/>
   </g>
   <g id="patch_4">
    <path d="M 265.953836 158.74417 
L 331.021555 158.74417 
L 331.021555 151.5895 
L 265.953836 151.5895 
L 265.953836 158.74417 
z
" clip-path="url(#pfb09c6883f)" style="fill: #ce803b; opacity: 0.5; stroke: #404040; stroke-linejoin: miter"/>
   </g>
   <g id="line2d_16">
    <path d="M 298.487695 158.74417 
L 298.487695 163.821677 
" clip-path="url(#pfb09c6883f)" style="fill: none; stroke: #404040"/>
   </g>
   <g id="line2d_17">
    <path d="M 298.487695 151.5895 
L 298.487695 149.743134 
" clip-path="url(#pfb09c6883f)" style="fill: none; stroke: #404040"/>
   </g>
   <g id="line2d_18">
    <path d="M 282.220766 163.821677 
L 314.754625 163.821677 
" clip-path="url(#pfb09c6883f)" style="fill: none; stroke: #404040; stroke-linecap: square"/>
   </g>
   <g id="line2d_19">
    <path d="M 282.220766 149.743134 
L 314.754625 149.743134 
" clip-path="url(#pfb09c6883f)" style="fill: none; stroke: #404040; stroke-linecap: square"/>
   </g>
   <g id="patch_5">
    <path d="M 428.623133 154.474448 
L 493.690852 154.474448 
L 493.690852 146.396595 
L 428.623133 146.396595 
L 428.623133 154.474448 
z
" clip-path="url(#pfb09c6883f)" style="fill: #4994c6; opacity: 0.5; stroke: #404040; stroke-linejoin: miter"/>
   </g>
   <g id="line2d_20">
    <path d="M 461.156992 154.474448 
L 461.156992 160.244342 
" clip-path="url(#pfb09c6883f)" style="fill: none; stroke: #404040"/>
   </g>
   <g id="line2d_21">
    <path d="M 461.156992 146.396595 
L 461.156992 142.934659 
" clip-path="url(#pfb09c6883f)" style="fill: none; stroke: #404040"/>
   </g>
   <g id="line2d_22">
    <path d="M 444.890062 160.244342 
L 477.423922 160.244342 
" clip-path="url(#pfb09c6883f)" style="fill: none; stroke: #404040; stroke-linecap: square"/>
   </g>
   <g id="line2d_23">
    <path d="M 444.890062 142.934659 
L 477.423922 142.934659 
" clip-path="url(#pfb09c6883f)" style="fill: none; stroke: #404040; stroke-linecap: square"/>
   </g>
   <g id="patch_6">
    <path d="M 591.29243 175.246068 
L 656.360148 175.246068 
L 656.360148 164.860258 
L 591.29243 164.860258 
L 591.29243 175.246068 
z
" clip-path="url(#pfb09c6883f)" style="fill: #389d63; opacity: 0.5; stroke: #404040; stroke-linejoin: miter"/>
   </g>
   <g id="line2d_24">
    <path d="M 623.826289 175.246068 
L 623.826289 182.169941 
" clip-path="url(#pfb09c6883f)" style="fill: none; stroke: #404040"/>
   </g>
   <g id="line2d_25">
    <path d="M 623.826289 164.860258 
L 623.826289 160.244342 
" clip-path="url(#pfb09c6883f)" style="fill: none; stroke: #404040"/>
   </g>
   <g id="line2d_26">
    <path d="M 607.559359 182.169941 
L 640.093219 182.169941 
" clip-path="url(#pfb09c6883f)" style="fill: none; stroke: #404040; stroke-linecap: square"/>
   </g>
   <g id="line2d_27">
    <path d="M 607.559359 160.244342 
L 640.093219 160.244342 
" clip-path="url(#pfb09c6883f)" style="fill: none; stroke: #404040; stroke-linecap: square"/>
   </g>
   <g id="line2d_28">
    <path d="M 54.48375 211.019414 
L 705.160938 211.019414 
" clip-path="url(#pfb09c6883f)" style="fill: none; stroke-dasharray: 7.4,3.2; stroke-dashoffset: 0; stroke: #c0392b; stroke-width: 2"/>
   </g>
   <g id="line2d_29">
    <path d="M 54.48375 153.320469 
L 705.160938 153.320469 
" clip-path="url(#pfb09c6883f)" style="fill: none; stroke: #808080; stroke-opacity: 0.5; stroke-width: 0.8; stroke-linecap: square"/>
   </g>
   <g id="line2d_30">
    <path d="M 54.48375 268.718359 
L 705.160938 268.718359 
" clip-path="url(#pfb09c6883f)" style="fill: none; stroke-dasharray: 1.2,1.98; stroke-dashoffset: 0; stroke: #8e44ad; stroke-width: 1.2"/>
   </g>
   <g id="line2d_31">
    <path d="M 103.284539 170.630152 
L 168.352258 170.630152 
" clip-path="url(#pfb09c6883f)" style="fill: none; stroke: #404040"/>
   </g>
   <g id="line2d_32">
    <path d="M 265.953836 156.667008 
L 331.021555 156.667008 
" clip-path="url(#pfb09c6883f)" style="fill: none; stroke: #404040"/>
   </g>
   <g id="line2d_33">
    <path d="M 428.623133 149.858532 
L 493.690852 149.858532 
" clip-path="url(#pfb09c6883f)" style="fill: none; stroke: #404040"/>
   </g>
   <g id="line2d_34">
    <path d="M 591.29243 170.630152 
L 656.360148 170.630152 
" clip-path="url(#pfb09c6883f)" style="fill: none; stroke: #404040"/>
   </g>
   <g id="patch_7">
    <path d="M 54.48375 384.11625 
L 54.48375 37.922578 
" style="fill: none; stroke: #000000; stroke-width: 0.8; stroke-linejoin: miter; stroke-linecap: square"/>
   </g>
   <g id="patch_8">
    <path d="M 705.160938 384.11625 
L 705.160938 37.922578 
" style="fill: none; stroke: #000000; stroke-width: 0.8; stroke-linejoin: miter; stroke-linecap: square"/>
   </g>
   <g id="patch_9">
    <path d="M 54.48375 384.11625 
L 705.160938 384.11625 
" style="fill: none; stroke: #000000; stroke-width: 0.8; stroke-linejoin: miter; stroke-linecap: square"/>
   </g>
   <g id="patch_10">
    <path d="M 54.48375 37.922578 
L 705.160938 37.922578 
" style="fill: none; stroke: #000000; stroke-width: 0.8; stroke-linejoin: miter; stroke-linecap: square"/>
   </g>
   <g id="PathCollection_1">
    <defs>
     <path id="C0_0_eccae5a974" d="M 0 3.5 
C 0.928211 3.5 1.81853 3.131218 2.474874 2.474874 
C 3.131218 1.81853 3.5 0.928211 3.5 -0 
C 3.5 -0.928211 3.131218 -1.81853 2.474874 -2.474874 
C 1.81853 -3.131218 0.928211 -3.5 0 -3.5 
C -0.928211 -3.5 -1.81853 -3.131218 -2.474874 -2.474874 
C -3.131218 -1.81853 -3.5 -0.928211 -3.5 0 
C -3.5 0.928211 -3.131218 1.81853 -2.474874 2.474874 
C -1.81853 3.131218 -0.928211 3.5 0 3.5 
z
"/>
    </defs>
    <g clip-path="url(#pfb09c6883f)">
     <use xlink:href="#C0_0_eccae5a974" x="134.378198" y="177.554026" style="fill: #e74c3c; fill-opacity: 0.85"/>
    </g>
    <g clip-path="url(#pfb09c6883f)">
     <use xlink:href="#C0_0_eccae5a974" x="132.353926" y="174.092089" style="fill: #e74c3c; fill-opacity: 0.85"/>
    </g>
    <g clip-path="url(#pfb09c6883f)">
     <use xlink:href="#C0_0_eccae5a974" x="142.672324" y="163.706279" style="fill: #e74c3c; fill-opacity: 0.85"/>
    </g>
    <g clip-path="url(#pfb09c6883f)">
     <use xlink:href="#C0_0_eccae5a974" x="147.197802" y="169.476173" style="fill: #e74c3c; fill-opacity: 0.85"/>
    </g>
    <g clip-path="url(#pfb09c6883f)">
     <use xlink:href="#C0_0_eccae5a974" x="136.46817" y="161.398321" style="fill: #e74c3c; fill-opacity: 0.85"/>
    </g>
    <g clip-path="url(#pfb09c6883f)">
     <use xlink:href="#C0_0_eccae5a974" x="120.988113" y="179.861984" style="fill: #e74c3c; fill-opacity: 0.85"/>
    </g>
    <g clip-path="url(#pfb09c6883f)">
     <use xlink:href="#C0_0_eccae5a974" x="140.855586" y="166.014237" style="fill: #e74c3c; fill-opacity: 0.85"/>
    </g>
    <g clip-path="url(#pfb09c6883f)">
     <use xlink:href="#C0_0_eccae5a974" x="134.661812" y="171.784131" style="fill: #e74c3c; fill-opacity: 0.85"/>
    </g>
    <g clip-path="url(#pfb09c6883f)">
     <use xlink:href="#C0_0_eccae5a974" x="149.52475" y="175.246068" style="fill: #e74c3c; fill-opacity: 0.85"/>
    </g>
    <g clip-path="url(#pfb09c6883f)">
     <use xlink:href="#C0_0_eccae5a974" x="126.377264" y="162.5523" style="fill: #e74c3c; fill-opacity: 0.85"/>
    </g>
    <g clip-path="url(#pfb09c6883f)">
     <use xlink:href="#C0_0_eccae5a974" x="131.966466" y="168.322195" style="fill: #e74c3c; fill-opacity: 0.85"/>
    </g>
    <g clip-path="url(#pfb09c6883f)">
     <use xlink:href="#C0_0_eccae5a974" x="134.875882" y="178.708005" style="fill: #e74c3c; fill-opacity: 0.85"/>
    </g>
    <g clip-path="url(#pfb09c6883f)">
     <use xlink:href="#C0_0_eccae5a974" x="141.09439" y="164.860258" style="fill: #e74c3c; fill-opacity: 0.85"/>
    </g>
    <g clip-path="url(#pfb09c6883f)">
     <use xlink:href="#C0_0_eccae5a974" x="148.157121" y="172.93811" style="fill: #e74c3c; fill-opacity: 0.85"/>
    </g>
    <g clip-path="url(#pfb09c6883f)">
     <use xlink:href="#C0_0_eccae5a974" x="149.367328" y="160.244342" style="fill: #e74c3c; fill-opacity: 0.85"/>
    </g>
    <g clip-path="url(#pfb09c6883f)">
     <use xlink:href="#C0_0_eccae5a974" x="131.869549" y="170.630152" style="fill: #e74c3c; fill-opacity: 0.85"/>
    </g>
    <g clip-path="url(#pfb09c6883f)">
     <use xlink:href="#C0_0_eccae5a974" x="121.183699" y="176.400047" style="fill: #e74c3c; fill-opacity: 0.85"/>
    </g>
    <g clip-path="url(#pfb09c6883f)">
     <use xlink:href="#C0_0_eccae5a974" x="131.84348" y="167.168216" style="fill: #e74c3c; fill-opacity: 0.85"/>
    </g>
    <g clip-path="url(#pfb09c6883f)">
     <use xlink:href="#C0_0_eccae5a974" x="136.634108" y="181.015962" style="fill: #e74c3c; fill-opacity: 0.85"/>
    </g>
    <g clip-path="url(#pfb09c6883f)">
     <use xlink:href="#C0_0_eccae5a974" x="131.631636" y="163.706279" style="fill: #e74c3c; fill-opacity: 0.85"/>
    </g>
    <g clip-path="url(#pfb09c6883f)">
     <use xlink:href="#C0_0_eccae5a974" x="124.234641" y="174.092089" style="fill: #e74c3c; fill-opacity: 0.85"/>
    </g>
   </g>
   <g id="PathCollection_2">
    <defs>
     <path id="C1_0_a41a947f67" d="M 0 3.5 
C 0.928211 3.5 1.81853 3.131218 2.474874 2.474874 
C 3.131218 1.81853 3.5 0.928211 3.5 -0 
C 3.5 -0.928211 3.131218 -1.81853 2.474874 -2.474874 
C 1.81853 -3.131218 0.928211 -3.5 0 -3.5 
C -0.928211 -3.5 -1.81853 -3.131218 -2.474874 -2.474874 
C -3.131218 -1.81853 -3.5 -0.928211 -3.5 0 
C -3.5 0.928211 -3.131218 1.81853 -2.474874 2.474874 
C -1.81853 3.131218 -0.928211 3.5 0 3.5 
z
"/>
    </defs>
    <g clip-path="url(#pfb09c6883f)">
     <use xlink:href="#C1_0_a41a947f67" x="310.106837" y="159.321159" style="fill: #e67e22; fill-opacity: 0.85"/>
    </g>
    <g clip-path="url(#pfb09c6883f)">
     <use xlink:href="#C1_0_a41a947f67" x="300.607443" y="149.743134" style="fill: #e67e22; fill-opacity: 0.85"/>
    </g>
    <g clip-path="url(#pfb09c6883f)">
     <use xlink:href="#C1_0_a41a947f67" x="283.668729" y="155.397631" style="fill: #e67e22; fill-opacity: 0.85"/>
    </g>
    <g clip-path="url(#pfb09c6883f)">
     <use xlink:href="#C1_0_a41a947f67" x="299.079457" y="158.397976" style="fill: #e67e22; fill-opacity: 0.85"/>
    </g>
    <g clip-path="url(#pfb09c6883f)">
     <use xlink:href="#C1_0_a41a947f67" x="299.312128" y="150.089328" style="fill: #e67e22; fill-opacity: 0.85"/>
    </g>
    <g clip-path="url(#pfb09c6883f)">
     <use xlink:href="#C1_0_a41a947f67" x="301.96982" y="161.513719" style="fill: #e67e22; fill-opacity: 0.85"/>
    </g>
    <g clip-path="url(#pfb09c6883f)">
     <use xlink:href="#C1_0_a41a947f67" x="312.476777" y="157.359395" style="fill: #e67e22; fill-opacity: 0.85"/>
    </g>
    <g clip-path="url(#pfb09c6883f)">
     <use xlink:href="#C1_0_a41a947f67" x="308.406087" y="151.935694" style="fill: #e67e22; fill-opacity: 0.85"/>
    </g>
    <g clip-path="url(#pfb09c6883f)">
     <use xlink:href="#C1_0_a41a947f67" x="289.537945" y="154.243652" style="fill: #e67e22; fill-opacity: 0.85"/>
    </g>
    <g clip-path="url(#pfb09c6883f)">
     <use xlink:href="#C1_0_a41a947f67" x="300.914579" y="163.821677" style="fill: #e67e22; fill-opacity: 0.85"/>
    </g>
    <g clip-path="url(#pfb09c6883f)">
     <use xlink:href="#C1_0_a41a947f67" x="297.801849" y="150.435521" style="fill: #e67e22; fill-opacity: 0.85"/>
    </g>
    <g clip-path="url(#pfb09c6883f)">
     <use xlink:href="#C1_0_a41a947f67" x="300.920656" y="160.590536" style="fill: #e67e22; fill-opacity: 0.85"/>
    </g>
    <g clip-path="url(#pfb09c6883f)">
     <use xlink:href="#C1_0_a41a947f67" x="303.715891" y="151.127909" style="fill: #e67e22; fill-opacity: 0.85"/>
    </g>
    <g clip-path="url(#pfb09c6883f)">
     <use xlink:href="#C1_0_a41a947f67" x="314.540019" y="158.16718" style="fill: #e67e22; fill-opacity: 0.85"/>
    </g>
    <g clip-path="url(#pfb09c6883f)">
     <use xlink:href="#C1_0_a41a947f67" x="289.108788" y="152.512684" style="fill: #e67e22; fill-opacity: 0.85"/>
    </g>
    <g clip-path="url(#pfb09c6883f)">
     <use xlink:href="#C1_0_a41a947f67" x="313.718338" y="156.667008" style="fill: #e67e22; fill-opacity: 0.85"/>
    </g>
    <g clip-path="url(#pfb09c6883f)">
     <use xlink:href="#C1_0_a41a947f67" x="288.571193" y="160.013546" style="fill: #e67e22; fill-opacity: 0.85"/>
    </g>
    <g clip-path="url(#pfb09c6883f)">
     <use xlink:href="#C1_0_a41a947f67" x="297.349419" y="151.5895" style="fill: #e67e22; fill-opacity: 0.85"/>
    </g>
    <g clip-path="url(#pfb09c6883f)">
     <use xlink:href="#C1_0_a41a947f67" x="296.635276" y="157.128599" style="fill: #e67e22; fill-opacity: 0.85"/>
    </g>
    <g clip-path="url(#pfb09c6883f)">
     <use xlink:href="#C1_0_a41a947f67" x="303.884319" y="150.897113" style="fill: #e67e22; fill-opacity: 0.85"/>
    </g>
    <g clip-path="url(#pfb09c6883f)">
     <use xlink:href="#C1_0_a41a947f67" x="313.253502" y="158.74417" style="fill: #e67e22; fill-opacity: 0.85"/>
    </g>
   </g>
   <g id="PathCollection_3">
    <defs>
     <path id="C2_0_b3d23eebea" d="M 0 3.5 
C 0.928211 3.5 1.81853 3.131218 2.474874 2.474874 
C 3.131218 1.81853 3.5 0.928211 3.5 -0 
C 3.5 -0.928211 3.131218 -1.81853 2.474874 -2.474874 
C 1.81853 -3.131218 0.928211 -3.5 0 -3.5 
C -0.928211 -3.5 -1.81853 -3.131218 -2.474874 -2.474874 
C -3.131218 -1.81853 -3.5 -0.928211 -3.5 0 
C -3.5 0.928211 -3.131218 1.81853 -2.474874 2.474874 
C -1.81853 3.131218 -0.928211 3.5 0 3.5 
z
"/>
    </defs>
    <g clip-path="url(#pfb09c6883f)">
     <use xlink:href="#C2_0_b3d23eebea" x="452.356959" y="148.704553" style="fill: #3498db; fill-opacity: 0.85"/>
    </g>
    <g clip-path="url(#pfb09c6883f)">
     <use xlink:href="#C2_0_b3d23eebea" x="471.125726" y="155.628427" style="fill: #3498db; fill-opacity: 0.85"/>
    </g>
    <g clip-path="url(#pfb09c6883f)">
     <use xlink:href="#C2_0_b3d23eebea" x="452.721068" y="144.088637" style="fill: #3498db; fill-opacity: 0.85"/>
    </g>
    <g clip-path="url(#pfb09c6883f)">
     <use xlink:href="#C2_0_b3d23eebea" x="469.545041" y="152.16649" style="fill: #3498db; fill-opacity: 0.85"/>
    </g>
    <g clip-path="url(#pfb09c6883f)">
     <use xlink:href="#C2_0_b3d23eebea" x="469.258639" y="159.090363" style="fill: #3498db; fill-opacity: 0.85"/>
    </g>
    <g clip-path="url(#pfb09c6883f)">
     <use xlink:href="#C2_0_b3d23eebea" x="451.693904" y="149.858532" style="fill: #3498db; fill-opacity: 0.85"/>
    </g>
    <g clip-path="url(#pfb09c6883f)">
     <use xlink:href="#C2_0_b3d23eebea" x="462.911893" y="145.242616" style="fill: #3498db; fill-opacity: 0.85"/>
    </g>
    <g clip-path="url(#pfb09c6883f)">
     <use xlink:href="#C2_0_b3d23eebea" x="460.232233" y="154.474448" style="fill: #3498db; fill-opacity: 0.85"/>
    </g>
    <g clip-path="url(#pfb09c6883f)">
     <use xlink:href="#C2_0_b3d23eebea" x="460.608976" y="151.012511" style="fill: #3498db; fill-opacity: 0.85"/>
    </g>
    <g clip-path="url(#pfb09c6883f)">
     <use xlink:href="#C2_0_b3d23eebea" x="466.506436" y="142.934659" style="fill: #3498db; fill-opacity: 0.85"/>
    </g>
    <g clip-path="url(#pfb09c6883f)">
     <use xlink:href="#C2_0_b3d23eebea" x="466.56127" y="156.782405" style="fill: #3498db; fill-opacity: 0.85"/>
    </g>
    <g clip-path="url(#pfb09c6883f)">
     <use xlink:href="#C2_0_b3d23eebea" x="451.589921" y="147.550574" style="fill: #3498db; fill-opacity: 0.85"/>
    </g>
    <g clip-path="url(#pfb09c6883f)">
     <use xlink:href="#C2_0_b3d23eebea" x="476.617777" y="146.396595" style="fill: #3498db; fill-opacity: 0.85"/>
    </g>
    <g clip-path="url(#pfb09c6883f)">
     <use xlink:href="#C2_0_b3d23eebea" x="455.492067" y="157.936384" style="fill: #3498db; fill-opacity: 0.85"/>
    </g>
    <g clip-path="url(#pfb09c6883f)">
     <use xlink:href="#C2_0_b3d23eebea" x="454.624395" y="152.16649" style="fill: #3498db; fill-opacity: 0.85"/>
    </g>
    <g clip-path="url(#pfb09c6883f)">
     <use xlink:href="#C2_0_b3d23eebea" x="451.49998" y="144.088637" style="fill: #3498db; fill-opacity: 0.85"/>
    </g>
    <g clip-path="url(#pfb09c6883f)">
     <use xlink:href="#C2_0_b3d23eebea" x="458.337195" y="149.858532" style="fill: #3498db; fill-opacity: 0.85"/>
    </g>
    <g clip-path="url(#pfb09c6883f)">
     <use xlink:href="#C2_0_b3d23eebea" x="466.73615" y="160.244342" style="fill: #3498db; fill-opacity: 0.85"/>
    </g>
    <g clip-path="url(#pfb09c6883f)">
     <use xlink:href="#C2_0_b3d23eebea" x="469.805241" y="148.704553" style="fill: #3498db; fill-opacity: 0.85"/>
    </g>
    <g clip-path="url(#pfb09c6883f)">
     <use xlink:href="#C2_0_b3d23eebea" x="458.248115" y="151.012511" style="fill: #3498db; fill-opacity: 0.85"/>
    </g>
    <g clip-path="url(#pfb09c6883f)">
     <use xlink:href="#C2_0_b3d23eebea" x="451.592891" y="145.242616" style="fill: #3498db; fill-opacity: 0.85"/>
    </g>
   </g>
   <g id="PathCollection_4">
    <defs>
     <path id="C3_0_278db4b78b" d="M 0 3.5 
C 0.928211 3.5 1.81853 3.131218 2.474874 2.474874 
C 3.131218 1.81853 3.5 0.928211 3.5 -0 
C 3.5 -0.928211 3.131218 -1.81853 2.474874 -2.474874 
C 1.81853 -3.131218 0.928211 -3.5 0 -3.5 
C -0.928211 -3.5 -1.81853 -3.131218 -2.474874 -2.474874 
C -3.131218 -1.81853 -3.5 -0.928211 -3.5 0 
C -3.5 0.928211 -3.131218 1.81853 -2.474874 2.474874 
C -1.81853 3.131218 -0.928211 3.5 0 3.5 
z
"/>
    </defs>
    <g clip-path="url(#pfb09c6883f)">
     <use xlink:href="#C3_0_278db4b78b" x="610.447655" y="169.476173" style="fill: #27ae60; fill-opacity: 0.85"/>
    </g>
    <g clip-path="url(#pfb09c6883f)">
     <use xlink:href="#C3_0_278db4b78b" x="624.488685" y="175.246068" style="fill: #27ae60; fill-opacity: 0.85"/>
    </g>
    <g clip-path="url(#pfb09c6883f)">
     <use xlink:href="#C3_0_278db4b78b" x="618.779218" y="162.5523" style="fill: #27ae60; fill-opacity: 0.85"/>
    </g>
    <g clip-path="url(#pfb09c6883f)">
     <use xlink:href="#C3_0_278db4b78b" x="627.640258" y="178.708005" style="fill: #27ae60; fill-opacity: 0.85"/>
    </g>
    <g clip-path="url(#pfb09c6883f)">
     <use xlink:href="#C3_0_278db4b78b" x="628.560131" y="166.014237" style="fill: #27ae60; fill-opacity: 0.85"/>
    </g>
    <g clip-path="url(#pfb09c6883f)">
     <use xlink:href="#C3_0_278db4b78b" x="613.847559" y="172.93811" style="fill: #27ae60; fill-opacity: 0.85"/>
    </g>
    <g clip-path="url(#pfb09c6883f)">
     <use xlink:href="#C3_0_278db4b78b" x="619.285392" y="163.706279" style="fill: #27ae60; fill-opacity: 0.85"/>
    </g>
    <g clip-path="url(#pfb09c6883f)">
     <use xlink:href="#C3_0_278db4b78b" x="607.586581" y="182.169941" style="fill: #27ae60; fill-opacity: 0.85"/>
    </g>
    <g clip-path="url(#pfb09c6883f)">
     <use xlink:href="#C3_0_278db4b78b" x="635.560647" y="168.322195" style="fill: #27ae60; fill-opacity: 0.85"/>
    </g>
    <g clip-path="url(#pfb09c6883f)">
     <use xlink:href="#C3_0_278db4b78b" x="629.739882" y="161.398321" style="fill: #27ae60; fill-opacity: 0.85"/>
    </g>
    <g clip-path="url(#pfb09c6883f)">
     <use xlink:href="#C3_0_278db4b78b" x="622.951818" y="174.092089" style="fill: #27ae60; fill-opacity: 0.85"/>
    </g>
    <g clip-path="url(#pfb09c6883f)">
     <use xlink:href="#C3_0_278db4b78b" x="615.441554" y="177.554026" style="fill: #27ae60; fill-opacity: 0.85"/>
    </g>
    <g clip-path="url(#pfb09c6883f)">
     <use xlink:href="#C3_0_278db4b78b" x="625.628231" y="164.860258" style="fill: #27ae60; fill-opacity: 0.85"/>
    </g>
    <g clip-path="url(#pfb09c6883f)">
     <use xlink:href="#C3_0_278db4b78b" x="609.215453" y="171.784131" style="fill: #27ae60; fill-opacity: 0.85"/>
    </g>
    <g clip-path="url(#pfb09c6883f)">
     <use xlink:href="#C3_0_278db4b78b" x="619.681723" y="167.168216" style="fill: #27ae60; fill-opacity: 0.85"/>
    </g>
    <g clip-path="url(#pfb09c6883f)">
     <use xlink:href="#C3_0_278db4b78b" x="621.399916" y="176.400047" style="fill: #27ae60; fill-opacity: 0.85"/>
    </g>
    <g clip-path="url(#pfb09c6883f)">
     <use xlink:href="#C3_0_278db4b78b" x="623.91441" y="170.630152" style="fill: #27ae60; fill-opacity: 0.85"/>
    </g>
    <g clip-path="url(#pfb09c6883f)">
     <use xlink:href="#C3_0_278db4b78b" x="612.042297" y="160.244342" style="fill: #27ae60; fill-opacity: 0.85"/>
    </g>
    <g clip-path="url(#pfb09c6883f)">
     <use xlink:href="#C3_0_278db4b78b" x="607.90366" y="179.861984" style="fill: #27ae60; fill-opacity: 0.85"/>
    </g>
    <g clip-path="url(#pfb09c6883f)">
     <use xlink:href="#C3_0_278db4b78b" x="623.969558" y="162.5523" style="fill: #27ae60; fill-opacity: 0.85"/>
    </g>
    <g clip-path="url(#pfb09c6883f)">
     <use xlink:href="#C3_0_278db4b78b" x="620.217093" y="175.246068" style="fill: #27ae60; fill-opacity: 0.85"/>
    </g>
   </g>
   <g id="patch_11">
    <path d="M 380.704355 126.805748 
Q 340.540684 140.920816 301.642762 154.591051 
" style="fill: none; stroke: #e67e22; stroke-width: 1.2; stroke-linecap: round"/>
    <path d="M 305.635933 155.095619 
L 301.642762 154.591051 
L 304.442319 151.699255 
" style="fill: none; stroke: #e67e22; stroke-width: 1.2; stroke-linecap: round"/>
   </g>
   <g id="text_14">
    <!-- TRPC6 mean = -0.021 -->
    <g style="fill: #e67e22" transform="translate(363.555414 110.278035) scale(0.09 -0.09)">
     <defs>
      <path id="DejaVuSans-Bold-37" d="M 31 4666 
L 4331 4666 
L 4331 3756 
L 2784 3756 
L 2784 0 
L 1581 0 
L 1581 3756 
L 31 3756 
L 31 4666 
z
" transform="scale(0.015625)"/>
      <path id="DejaVuSans-Bold-35" d="M 2297 2597 
Q 2675 2597 2839 2737 
Q 3003 2878 3003 3200 
Q 3003 3519 2839 3656 
Q 2675 3794 2297 3794 
L 1791 3794 
L 1791 2597 
L 2297 2597 
z
M 1791 1766 
L 1791 0 
L 588 0 
L 588 4666 
L 2425 4666 
Q 3347 4666 3776 4356 
Q 4206 4047 4206 3378 
Q 4206 2916 3982 2619 
Q 3759 2322 3309 2181 
Q 3556 2125 3751 1926 
Q 3947 1728 4147 1325 
L 4800 0 
L 3519 0 
L 2950 1159 
Q 2778 1509 2601 1637 
Q 2425 1766 2131 1766 
L 1791 1766 
z
" transform="scale(0.015625)"/>
      <path id="DejaVuSans-Bold-33" d="M 588 4666 
L 2584 4666 
Q 3475 4666 3951 4270 
Q 4428 3875 4428 3144 
Q 4428 2409 3951 2014 
Q 3475 1619 2584 1619 
L 1791 1619 
L 1791 0 
L 588 0 
L 588 4666 
z
M 1791 3794 
L 1791 2491 
L 2456 2491 
Q 2806 2491 2997 2661 
Q 3188 2831 3188 3144 
Q 3188 3456 2997 3625 
Q 2806 3794 2456 3794 
L 1791 3794 
z
" transform="scale(0.015625)"/>
      <path id="DejaVuSans-Bold-26" d="M 4288 256 
Q 3956 84 3597 -3 
Q 3238 -91 2847 -91 
Q 1681 -91 1000 561 
Q 319 1213 319 2328 
Q 319 3447 1000 4098 
Q 1681 4750 2847 4750 
Q 3238 4750 3597 4662 
Q 3956 4575 4288 4403 
L 4288 3438 
Q 3953 3666 3628 3772 
Q 3303 3878 2944 3878 
Q 2300 3878 1931 3465 
Q 1563 3053 1563 2328 
Q 1563 1606 1931 1193 
Q 2300 781 2944 781 
Q 3303 781 3628 887 
Q 3953 994 4288 1222 
L 4288 256 
z
" transform="scale(0.015625)"/>
      <path id="DejaVuSans-Bold-19" d="M 2316 2303 
Q 2000 2303 1842 2098 
Q 1684 1894 1684 1484 
Q 1684 1075 1842 870 
Q 2000 666 2316 666 
Q 2634 666 2792 870 
Q 2950 1075 2950 1484 
Q 2950 1894 2792 2098 
Q 2634 2303 2316 2303 
z
M 3803 4544 
L 3803 3681 
Q 3506 3822 3243 3889 
Q 2981 3956 2731 3956 
Q 2194 3956 1894 3657 
Q 1594 3359 1544 2772 
Q 1750 2925 1990 3001 
Q 2231 3078 2516 3078 
Q 3231 3078 3670 2659 
Q 4109 2241 4109 1563 
Q 4109 813 3618 361 
Q 3128 -91 2303 -91 
Q 1394 -91 895 523 
Q 397 1138 397 2266 
Q 397 3422 980 4083 
Q 1563 4744 2578 4744 
Q 2900 4744 3203 4694 
Q 3506 4644 3803 4544 
z
" transform="scale(0.015625)"/>
      <path id="DejaVuSans-Bold-3" transform="scale(0.015625)"/>
      <path id="DejaVuSans-Bold-50" d="M 3781 2919 
Q 3994 3244 4286 3414 
Q 4578 3584 4928 3584 
Q 5531 3584 5847 3212 
Q 6163 2841 6163 2131 
L 6163 0 
L 5038 0 
L 5038 1825 
Q 5041 1866 5042 1909 
Q 5044 1953 5044 2034 
Q 5044 2406 4934 2573 
Q 4825 2741 4581 2741 
Q 4263 2741 4089 2478 
Q 3916 2216 3909 1719 
L 3909 0 
L 2784 0 
L 2784 1825 
Q 2784 2406 2684 2573 
Q 2584 2741 2328 2741 
Q 2006 2741 1831 2477 
Q 1656 2213 1656 1722 
L 1656 0 
L 531 0 
L 531 3500 
L 1656 3500 
L 1656 2988 
Q 1863 3284 2130 3434 
Q 2397 3584 2719 3584 
Q 3081 3584 3359 3409 
Q 3638 3234 3781 2919 
z
" transform="scale(0.015625)"/>
      <path id="DejaVuSans-Bold-48" d="M 4031 1759 
L 4031 1441 
L 1416 1441 
Q 1456 1047 1700 850 
Q 1944 653 2381 653 
Q 2734 653 3104 758 
Q 3475 863 3866 1075 
L 3866 213 
Q 3469 63 3072 -14 
Q 2675 -91 2278 -91 
Q 1328 -91 801 392 
Q 275 875 275 1747 
Q 275 2603 792 3093 
Q 1309 3584 2216 3584 
Q 3041 3584 3536 3087 
Q 4031 2591 4031 1759 
z
M 2881 2131 
Q 2881 2450 2695 2645 
Q 2509 2841 2209 2841 
Q 1884 2841 1681 2658 
Q 1478 2475 1428 2131 
L 2881 2131 
z
" transform="scale(0.015625)"/>
      <path id="DejaVuSans-Bold-44" d="M 2106 1575 
Q 1756 1575 1579 1456 
Q 1403 1338 1403 1106 
Q 1403 894 1545 773 
Q 1688 653 1941 653 
Q 2256 653 2472 879 
Q 2688 1106 2688 1447 
L 2688 1575 
L 2106 1575 
z
M 3816 1997 
L 3816 0 
L 2688 0 
L 2688 519 
Q 2463 200 2181 54 
Q 1900 -91 1497 -91 
Q 953 -91 614 226 
Q 275 544 275 1050 
Q 275 1666 698 1953 
Q 1122 2241 2028 2241 
L 2688 2241 
L 2688 2328 
Q 2688 2594 2478 2717 
Q 2269 2841 1825 2841 
Q 1466 2841 1156 2769 
Q 847 2697 581 2553 
L 581 3406 
Q 941 3494 1303 3539 
Q 1666 3584 2028 3584 
Q 2975 3584 3395 3211 
Q 3816 2838 3816 1997 
z
" transform="scale(0.015625)"/>
      <path id="DejaVuSans-Bold-51" d="M 4056 2131 
L 4056 0 
L 2931 0 
L 2931 347 
L 2931 1631 
Q 2931 2084 2911 2256 
Q 2891 2428 2841 2509 
Q 2775 2619 2662 2680 
Q 2550 2741 2406 2741 
Q 2056 2741 1856 2470 
Q 1656 2200 1656 1722 
L 1656 0 
L 538 0 
L 538 3500 
L 1656 3500 
L 1656 2988 
Q 1909 3294 2193 3439 
Q 2478 3584 2822 3584 
Q 3428 3584 3742 3212 
Q 4056 2841 4056 2131 
z
" transform="scale(0.015625)"/>
      <path id="DejaVuSans-Bold-20" d="M 678 3084 
L 4684 3084 
L 4684 2350 
L 678 2350 
L 678 3084 
z
M 678 1663 
L 4684 1663 
L 4684 922 
L 678 922 
L 678 1663 
z
" transform="scale(0.015625)"/>
      <path id="DejaVuSans-Bold-10" d="M 347 2297 
L 2309 2297 
L 2309 1388 
L 347 1388 
L 347 2297 
z
" transform="scale(0.015625)"/>
      <path id="DejaVuSans-Bold-13" d="M 2944 2338 
Q 2944 3213 2780 3570 
Q 2616 3928 2228 3928 
Q 1841 3928 1675 3570 
Q 1509 3213 1509 2338 
Q 1509 1453 1675 1090 
Q 1841 728 2228 728 
Q 2613 728 2778 1090 
Q 2944 1453 2944 2338 
z
M 4147 2328 
Q 4147 1169 3647 539 
Q 3147 -91 2228 -91 
Q 1306 -91 806 539 
Q 306 1169 306 2328 
Q 306 3491 806 4120 
Q 1306 4750 2228 4750 
Q 3147 4750 3647 4120 
Q 4147 3491 4147 2328 
z
" transform="scale(0.015625)"/>
      <path id="DejaVuSans-Bold-11" d="M 653 1209 
L 1778 1209 
L 1778 0 
L 653 0 
L 653 1209 
z
" transform="scale(0.015625)"/>
      <path id="DejaVuSans-Bold-15" d="M 1844 884 
L 3897 884 
L 3897 0 
L 506 0 
L 506 884 
L 2209 2388 
Q 2438 2594 2547 2791 
Q 2656 2988 2656 3200 
Q 2656 3528 2436 3728 
Q 2216 3928 1850 3928 
Q 1569 3928 1234 3808 
Q 900 3688 519 3450 
L 519 4475 
Q 925 4609 1322 4679 
Q 1719 4750 2100 4750 
Q 2938 4750 3402 4381 
Q 3866 4013 3866 3353 
Q 3866 2972 3669 2642 
Q 3472 2313 2841 1759 
L 1844 884 
z
" transform="scale(0.015625)"/>
      <path id="DejaVuSans-Bold-14" d="M 750 831 
L 1813 831 
L 1813 3847 
L 722 3622 
L 722 4441 
L 1806 4666 
L 2950 4666 
L 2950 831 
L 4013 831 
L 4013 0 
L 750 0 
L 750 831 
z
" transform="scale(0.015625)"/>
     </defs>
     <use xlink:href="#DejaVuSans-Bold-37"/>
     <use xlink:href="#DejaVuSans-Bold-35" transform="translate(68.21875 0)"/>
     <use xlink:href="#DejaVuSans-Bold-33" transform="translate(145.21875 0)"/>
     <use xlink:href="#DejaVuSans-Bold-26" transform="translate(218.515625 0)"/>
     <use xlink:href="#DejaVuSans-Bold-19" transform="translate(291.90625 0)"/>
     <use xlink:href="#DejaVuSans-Bold-3" transform="translate(361.484375 0)"/>
     <use xlink:href="#DejaVuSans-Bold-50" transform="translate(396.296875 0)"/>
     <use xlink:href="#DejaVuSans-Bold-48" transform="translate(500.5 0)"/>
     <use xlink:href="#DejaVuSans-Bold-44" transform="translate(568.328125 0)"/>
     <use xlink:href="#DejaVuSans-Bold-51" transform="translate(635.8125 0)"/>
     <use xlink:href="#DejaVuSans-Bold-3" transform="translate(707 0)"/>
     <use xlink:href="#DejaVuSans-Bold-20" transform="translate(741.8125 0)"/>
     <use xlink:href="#DejaVuSans-Bold-3" transform="translate(825.609375 0)"/>
     <use xlink:href="#DejaVuSans-Bold-10" transform="translate(860.421875 0)"/>
     <use xlink:href="#DejaVuSans-Bold-13" transform="translate(901.921875 0)"/>
     <use xlink:href="#DejaVuSans-Bold-11" transform="translate(971.5 0)"/>
     <use xlink:href="#DejaVuSans-Bold-13" transform="translate(1009.484375 0)"/>
     <use xlink:href="#DejaVuSans-Bold-15" transform="translate(1079.0625 0)"/>
     <use xlink:href="#DejaVuSans-Bold-14" transform="translate(1148.640625 0)"/>
    </g>
    <!-- Essential in 0/21 lines -->
    <g style="fill: #e67e22" transform="translate(363.555414 121.080496) scale(0.09 -0.09)">
     <defs>
      <path id="DejaVuSans-Bold-28" d="M 588 4666 
L 3834 4666 
L 3834 3756 
L 1791 3756 
L 1791 2888 
L 3713 2888 
L 3713 1978 
L 1791 1978 
L 1791 909 
L 3903 909 
L 3903 0 
L 588 0 
L 588 4666 
z
" transform="scale(0.015625)"/>
      <path id="DejaVuSans-Bold-56" d="M 3272 3391 
L 3272 2541 
Q 2913 2691 2578 2766 
Q 2244 2841 1947 2841 
Q 1628 2841 1473 2761 
Q 1319 2681 1319 2516 
Q 1319 2381 1436 2309 
Q 1553 2238 1856 2203 
L 2053 2175 
Q 2913 2066 3209 1816 
Q 3506 1566 3506 1031 
Q 3506 472 3093 190 
Q 2681 -91 1863 -91 
Q 1516 -91 1145 -36 
Q 775 19 384 128 
L 384 978 
Q 719 816 1070 734 
Q 1422 653 1784 653 
Q 2113 653 2278 743 
Q 2444 834 2444 1013 
Q 2444 1163 2330 1236 
Q 2216 1309 1875 1350 
L 1678 1375 
Q 931 1469 631 1722 
Q 331 1975 331 2491 
Q 331 3047 712 3315 
Q 1094 3584 1881 3584 
Q 2191 3584 2531 3537 
Q 2872 3491 3272 3391 
z
" transform="scale(0.015625)"/>
      <path id="DejaVuSans-Bold-57" d="M 1759 4494 
L 1759 3500 
L 2913 3500 
L 2913 2700 
L 1759 2700 
L 1759 1216 
Q 1759 972 1856 886 
Q 1953 800 2241 800 
L 2816 800 
L 2816 0 
L 1856 0 
Q 1194 0 917 276 
Q 641 553 641 1216 
L 641 2700 
L 84 2700 
L 84 3500 
L 641 3500 
L 641 4494 
L 1759 4494 
z
" transform="scale(0.015625)"/>
      <path id="DejaVuSans-Bold-4c" d="M 538 3500 
L 1656 3500 
L 1656 0 
L 538 0 
L 538 3500 
z
M 538 4863 
L 1656 4863 
L 1656 3950 
L 538 3950 
L 538 4863 
z
" transform="scale(0.015625)"/>
      <path id="DejaVuSans-Bold-4f" d="M 538 4863 
L 1656 4863 
L 1656 0 
L 538 0 
L 538 4863 
z
" transform="scale(0.015625)"/>
      <path id="DejaVuSans-Bold-12" d="M 1644 4666 
L 2338 4666 
L 691 -594 
L 0 -594 
L 1644 4666 
z
" transform="scale(0.015625)"/>
     </defs>
     <use xlink:href="#DejaVuSans-Bold-28"/>
     <use xlink:href="#DejaVuSans-Bold-56" transform="translate(68.3125 0)"/>
     <use xlink:href="#DejaVuSans-Bold-56" transform="translate(127.828125 0)"/>
     <use xlink:href="#DejaVuSans-Bold-48" transform="translate(187.34375 0)"/>
     <use xlink:href="#DejaVuSans-Bold-51" transform="translate(255.171875 0)"/>
     <use xlink:href="#DejaVuSans-Bold-57" transform="translate(326.359375 0)"/>
     <use xlink:href="#DejaVuSans-Bold-4c" transform="translate(374.15625 0)"/>
     <use xlink:href="#DejaVuSans-Bold-44" transform="translate(408.4375 0)"/>
     <use xlink:href="#DejaVuSans-Bold-4f" transform="translate(475.921875 0)"/>
     <use xlink:href="#DejaVuSans-Bold-3" transform="translate(510.203125 0)"/>
     <use xlink:href="#DejaVuSans-Bold-4c" transform="translate(545.015625 0)"/>
     <use xlink:href="#DejaVuSans-Bold-51" transform="translate(579.296875 0)"/>
     <use xlink:href="#DejaVuSans-Bold-3" transform="translate(650.484375 0)"/>
     <use xlink:href="#DejaVuSans-Bold-13" transform="translate(685.296875 0)"/>
     <use xlink:href="#DejaVuSans-Bold-12" transform="translate(754.875 0)"/>
     <use xlink:href="#DejaVuSans-Bold-15" transform="translate(791.40625 0)"/>
     <use xlink:href="#DejaVuSans-Bold-14" transform="translate(860.984375 0)"/>
     <use xlink:href="#DejaVuSans-Bold-3" transform="translate(930.5625 0)"/>
     <use xlink:href="#DejaVuSans-Bold-4f" transform="translate(965.375 0)"/>
     <use xlink:href="#DejaVuSans-Bold-4c" transform="translate(999.65625 0)"/>
     <use xlink:href="#DejaVuSans-Bold-51" transform="translate(1033.9375 0)"/>
     <use xlink:href="#DejaVuSans-Bold-48" transform="translate(1105.125 0)"/>
     <use xlink:href="#DejaVuSans-Bold-56" transform="translate(1172.953125 0)"/>
    </g>
   </g>
   <g id="text_15">
    <!-- CRISPR-Cas9 Essentiality of SOCE Components in HCC Cell Lines -->
    <g transform="translate(162.944844 17.519297) scale(0.12 -0.12)">
     <defs>
      <path id="DejaVuSans-Bold-2c" d="M 588 4666 
L 1791 4666 
L 1791 0 
L 588 0 
L 588 4666 
z
" transform="scale(0.015625)"/>
      <path id="DejaVuSans-Bold-36" d="M 3834 4519 
L 3834 3531 
Q 3450 3703 3084 3790 
Q 2719 3878 2394 3878 
Q 1963 3878 1756 3759 
Q 1550 3641 1550 3391 
Q 1550 3203 1689 3098 
Q 1828 2994 2194 2919 
L 2706 2816 
Q 3484 2659 3812 2340 
Q 4141 2022 4141 1434 
Q 4141 663 3683 286 
Q 3225 -91 2284 -91 
Q 1841 -91 1394 -6 
Q 947 78 500 244 
L 500 1259 
Q 947 1022 1364 901 
Q 1781 781 2169 781 
Q 2563 781 2772 912 
Q 2981 1044 2981 1288 
Q 2981 1506 2839 1625 
Q 2697 1744 2272 1838 
L 1806 1941 
Q 1106 2091 782 2419 
Q 459 2747 459 3303 
Q 459 4000 909 4375 
Q 1359 4750 2203 4750 
Q 2588 4750 2994 4692 
Q 3400 4634 3834 4519 
z
" transform="scale(0.015625)"/>
      <path id="DejaVuSans-Bold-1c" d="M 641 103 
L 641 966 
Q 928 831 1190 764 
Q 1453 697 1709 697 
Q 2247 697 2547 995 
Q 2847 1294 2900 1881 
Q 2688 1725 2447 1647 
Q 2206 1569 1925 1569 
Q 1209 1569 770 1986 
Q 331 2403 331 3084 
Q 331 3838 820 4291 
Q 1309 4744 2131 4744 
Q 3044 4744 3544 4128 
Q 4044 3513 4044 2388 
Q 4044 1231 3459 570 
Q 2875 -91 1856 -91 
Q 1528 -91 1228 -42 
Q 928 6 641 103 
z
M 2125 2350 
Q 2441 2350 2600 2554 
Q 2759 2759 2759 3169 
Q 2759 3575 2600 3781 
Q 2441 3988 2125 3988 
Q 1809 3988 1650 3781 
Q 1491 3575 1491 3169 
Q 1491 2759 1650 2554 
Q 1809 2350 2125 2350 
z
" transform="scale(0.015625)"/>
      <path id="DejaVuSans-Bold-5c" d="M 78 3500 
L 1197 3500 
L 2138 1125 
L 2938 3500 
L 4056 3500 
L 2584 -331 
Q 2363 -916 2067 -1148 
Q 1772 -1381 1288 -1381 
L 641 -1381 
L 641 -647 
L 991 -647 
Q 1275 -647 1404 -556 
Q 1534 -466 1606 -231 
L 1638 -134 
L 78 3500 
z
" transform="scale(0.015625)"/>
      <path id="DejaVuSans-Bold-52" d="M 2203 2784 
Q 1831 2784 1636 2517 
Q 1441 2250 1441 1747 
Q 1441 1244 1636 976 
Q 1831 709 2203 709 
Q 2569 709 2762 976 
Q 2956 1244 2956 1747 
Q 2956 2250 2762 2517 
Q 2569 2784 2203 2784 
z
M 2203 3584 
Q 3106 3584 3614 3096 
Q 4122 2609 4122 1747 
Q 4122 884 3614 396 
Q 3106 -91 2203 -91 
Q 1297 -91 786 396 
Q 275 884 275 1747 
Q 275 2609 786 3096 
Q 1297 3584 2203 3584 
z
" transform="scale(0.015625)"/>
      <path id="DejaVuSans-Bold-49" d="M 2841 4863 
L 2841 4128 
L 2222 4128 
Q 1984 4128 1890 4042 
Q 1797 3956 1797 3744 
L 1797 3500 
L 2753 3500 
L 2753 2700 
L 1797 2700 
L 1797 0 
L 678 0 
L 678 2700 
L 122 2700 
L 122 3500 
L 678 3500 
L 678 3744 
Q 678 4316 997 4589 
Q 1316 4863 1984 4863 
L 2841 4863 
z
" transform="scale(0.015625)"/>
      <path id="DejaVuSans-Bold-32" d="M 2719 3878 
Q 2169 3878 1866 3472 
Q 1563 3066 1563 2328 
Q 1563 1594 1866 1187 
Q 2169 781 2719 781 
Q 3272 781 3575 1187 
Q 3878 1594 3878 2328 
Q 3878 3066 3575 3472 
Q 3272 3878 2719 3878 
z
M 2719 4750 
Q 3844 4750 4481 4106 
Q 5119 3463 5119 2328 
Q 5119 1197 4481 553 
Q 3844 -91 2719 -91 
Q 1597 -91 958 553 
Q 319 1197 319 2328 
Q 319 3463 958 4106 
Q 1597 4750 2719 4750 
z
" transform="scale(0.015625)"/>
      <path id="DejaVuSans-Bold-53" d="M 1656 506 
L 1656 -1331 
L 538 -1331 
L 538 3500 
L 1656 3500 
L 1656 2988 
Q 1888 3294 2169 3439 
Q 2450 3584 2816 3584 
Q 3463 3584 3878 3070 
Q 4294 2556 4294 1747 
Q 4294 938 3878 423 
Q 3463 -91 2816 -91 
Q 2450 -91 2169 54 
Q 1888 200 1656 506 
z
M 2400 2772 
Q 2041 2772 1848 2508 
Q 1656 2244 1656 1747 
Q 1656 1250 1848 986 
Q 2041 722 2400 722 
Q 2759 722 2948 984 
Q 3138 1247 3138 1747 
Q 3138 2247 2948 2509 
Q 2759 2772 2400 2772 
z
" transform="scale(0.015625)"/>
      <path id="DejaVuSans-Bold-2b" d="M 588 4666 
L 1791 4666 
L 1791 2888 
L 3566 2888 
L 3566 4666 
L 4769 4666 
L 4769 0 
L 3566 0 
L 3566 1978 
L 1791 1978 
L 1791 0 
L 588 0 
L 588 4666 
z
" transform="scale(0.015625)"/>
      <path id="DejaVuSans-Bold-2f" d="M 588 4666 
L 1791 4666 
L 1791 909 
L 3903 909 
L 3903 0 
L 588 0 
L 588 4666 
z
" transform="scale(0.015625)"/>
     </defs>
     <use xlink:href="#DejaVuSans-Bold-26"/>
     <use xlink:href="#DejaVuSans-Bold-35" transform="translate(73.390625 0)"/>
     <use xlink:href="#DejaVuSans-Bold-2c" transform="translate(150.390625 0)"/>
     <use xlink:href="#DejaVuSans-Bold-36" transform="translate(187.59375 0)"/>
     <use xlink:href="#DejaVuSans-Bold-33" transform="translate(259.609375 0)"/>
     <use xlink:href="#DejaVuSans-Bold-35" transform="translate(332.90625 0)"/>
     <use xlink:href="#DejaVuSans-Bold-10" transform="translate(409.90625 0)"/>
     <use xlink:href="#DejaVuSans-Bold-26" transform="translate(451.40625 0)"/>
     <use xlink:href="#DejaVuSans-Bold-44" transform="translate(524.796875 0)"/>
     <use xlink:href="#DejaVuSans-Bold-56" transform="translate(592.28125 0)"/>
     <use xlink:href="#DejaVuSans-Bold-1c" transform="translate(651.796875 0)"/>
     <use xlink:href="#DejaVuSans-Bold-3" transform="translate(721.375 0)"/>
     <use xlink:href="#DejaVuSans-Bold-28" transform="translate(756.1875 0)"/>
     <use xlink:href="#DejaVuSans-Bold-56" transform="translate(824.5 0)"/>
     <use xlink:href="#DejaVuSans-Bold-56" transform="translate(884.015625 0)"/>
     <use xlink:href="#DejaVuSans-Bold-48" transform="translate(943.53125 0)"/>
     <use xlink:href="#DejaVuSans-Bold-51" transform="translate(1011.359375 0)"/>
     <use xlink:href="#DejaVuSans-Bold-57" transform="translate(1082.546875 0)"/>
     <use xlink:href="#DejaVuSans-Bold-4c" transform="translate(1130.34375 0)"/>
     <use xlink:href="#DejaVuSans-Bold-44" transform="translate(1164.625 0)"/>
     <use xlink:href="#DejaVuSans-Bold-4f" transform="translate(1232.109375 0)"/>
     <use xlink:href="#DejaVuSans-Bold-4c" transform="translate(1266.390625 0)"/>
     <use xlink:href="#DejaVuSans-Bold-57" transform="translate(1300.671875 0)"/>
     <use xlink:href="#DejaVuSans-Bold-5c" transform="translate(1348.46875 0)"/>
     <use xlink:href="#DejaVuSans-Bold-3" transform="translate(1413.65625 0)"/>
     <use xlink:href="#DejaVuSans-Bold-52" transform="translate(1448.46875 0)"/>
     <use xlink:href="#DejaVuSans-Bold-49" transform="translate(1517.171875 0)"/>
     <use xlink:href="#DejaVuSans-Bold-3" transform="translate(1560.671875 0)"/>
     <use xlink:href="#DejaVuSans-Bold-36" transform="translate(1595.484375 0)"/>
     <use xlink:href="#DejaVuSans-Bold-32" transform="translate(1667.5 0)"/>
     <use xlink:href="#DejaVuSans-Bold-26" transform="translate(1752.515625 0)"/>
     <use xlink:href="#DejaVuSans-Bold-28" transform="translate(1825.90625 0)"/>
     <use xlink:href="#DejaVuSans-Bold-3" transform="translate(1894.21875 0)"/>
     <use xlink:href="#DejaVuSans-Bold-26" transform="translate(1929.03125 0)"/>
     <use xlink:href="#DejaVuSans-Bold-52" transform="translate(2002.421875 0)"/>
     <use xlink:href="#DejaVuSans-Bold-50" transform="translate(2071.125 0)"/>
     <use xlink:href="#DejaVuSans-Bold-53" transform="translate(2175.328125 0)"/>
     <use xlink:href="#DejaVuSans-Bold-52" transform="translate(2246.90625 0)"/>
     <use xlink:href="#DejaVuSans-Bold-51" transform="translate(2315.609375 0)"/>
     <use xlink:href="#DejaVuSans-Bold-48" transform="translate(2386.796875 0)"/>
     <use xlink:href="#DejaVuSans-Bold-51" transform="translate(2454.625 0)"/>
     <use xlink:href="#DejaVuSans-Bold-57" transform="translate(2525.8125 0)"/>
     <use xlink:href="#DejaVuSans-Bold-56" transform="translate(2573.609375 0)"/>
     <use xlink:href="#DejaVuSans-Bold-3" transform="translate(2633.125 0)"/>
     <use xlink:href="#DejaVuSans-Bold-4c" transform="translate(2667.9375 0)"/>
     <use xlink:href="#DejaVuSans-Bold-51" transform="translate(2702.21875 0)"/>
     <use xlink:href="#DejaVuSans-Bold-3" transform="translate(2773.40625 0)"/>
     <use xlink:href="#DejaVuSans-Bold-2b" transform="translate(2808.21875 0)"/>
     <use xlink:href="#DejaVuSans-Bold-26" transform="translate(2891.90625 0)"/>
     <use xlink:href="#DejaVuSans-Bold-26" transform="translate(2965.296875 0)"/>
     <use xlink:href="#DejaVuSans-Bold-3" transform="translate(3038.6875 0)"/>
     <use xlink:href="#DejaVuSans-Bold-26" transform="translate(3073.5 0)"/>
     <use xlink:href="#DejaVuSans-Bold-48" transform="translate(3146.890625 0)"/>
     <use xlink:href="#DejaVuSans-Bold-4f" transform="translate(3214.71875 0)"/>
     <use xlink:href="#DejaVuSans-Bold-4f" transform="translate(3249 0)"/>
     <use xlink:href="#DejaVuSans-Bold-3" transform="translate(3283.28125 0)"/>
     <use xlink:href="#DejaVuSans-Bold-2f" transform="translate(3318.09375 0)"/>
     <use xlink:href="#DejaVuSans-Bold-4c" transform="translate(3381.8125 0)"/>
     <use xlink:href="#DejaVuSans-Bold-51" transform="translate(3416.09375 0)"/>
     <use xlink:href="#DejaVuSans-Bold-48" transform="translate(3487.28125 0)"/>
     <use xlink:href="#DejaVuSans-Bold-56" transform="translate(3555.109375 0)"/>
    </g>
    <!-- (DepMap 22Q4, n = 21 HCC lines) -->
    <g transform="translate(266.739219 31.922578) scale(0.12 -0.12)">
     <defs>
      <path id="DejaVuSans-Bold-b" d="M 2413 -844 
L 1484 -844 
Q 1006 -72 778 623 
Q 550 1319 550 2003 
Q 550 2688 779 3389 
Q 1009 4091 1484 4856 
L 2413 4856 
Q 2013 4116 1813 3408 
Q 1613 2700 1613 2009 
Q 1613 1319 1811 609 
Q 2009 -100 2413 -844 
z
" transform="scale(0.015625)"/>
      <path id="DejaVuSans-Bold-27" d="M 1791 3756 
L 1791 909 
L 2222 909 
Q 2959 909 3348 1275 
Q 3738 1641 3738 2338 
Q 3738 3031 3350 3393 
Q 2963 3756 2222 3756 
L 1791 3756 
z
M 588 4666 
L 1856 4666 
Q 2919 4666 3439 4514 
Q 3959 4363 4331 4000 
Q 4659 3684 4818 3271 
Q 4978 2859 4978 2338 
Q 4978 1809 4818 1395 
Q 4659 981 4331 666 
Q 3956 303 3431 151 
Q 2906 0 1856 0 
L 588 0 
L 588 4666 
z
" transform="scale(0.015625)"/>
      <path id="DejaVuSans-Bold-30" d="M 588 4666 
L 2119 4666 
L 3181 2169 
L 4250 4666 
L 5778 4666 
L 5778 0 
L 4641 0 
L 4641 3413 
L 3566 897 
L 2803 897 
L 1728 3413 
L 1728 0 
L 588 0 
L 588 4666 
z
" transform="scale(0.015625)"/>
      <path id="DejaVuSans-Bold-34" d="M 2847 -84 
L 2753 -84 
Q 1600 -84 959 553 
Q 319 1191 319 2328 
Q 319 3463 958 4106 
Q 1597 4750 2719 4750 
Q 3853 4750 4486 4112 
Q 5119 3475 5119 2328 
Q 5119 1541 4783 972 
Q 4447 403 3816 116 
L 4756 -934 
L 3609 -934 
L 2847 -84 
z
M 2719 3878 
Q 2169 3878 1866 3472 
Q 1563 3066 1563 2328 
Q 1563 1578 1859 1179 
Q 2156 781 2719 781 
Q 3272 781 3575 1187 
Q 3878 1594 3878 2328 
Q 3878 3066 3575 3472 
Q 3272 3878 2719 3878 
z
" transform="scale(0.015625)"/>
      <path id="DejaVuSans-Bold-17" d="M 2356 3675 
L 1038 1722 
L 2356 1722 
L 2356 3675 
z
M 2156 4666 
L 3494 4666 
L 3494 1722 
L 4159 1722 
L 4159 850 
L 3494 850 
L 3494 0 
L 2356 0 
L 2356 850 
L 288 850 
L 288 1881 
L 2156 4666 
z
" transform="scale(0.015625)"/>
      <path id="DejaVuSans-Bold-f" d="M 653 1209 
L 1778 1209 
L 1778 256 
L 1006 -909 
L 341 -909 
L 653 256 
L 653 1209 
z
" transform="scale(0.015625)"/>
      <path id="DejaVuSans-Bold-c" d="M 513 -844 
Q 913 -100 1113 609 
Q 1313 1319 1313 2009 
Q 1313 2700 1113 3408 
Q 913 4116 513 4856 
L 1441 4856 
Q 1916 4091 2145 3389 
Q 2375 2688 2375 2003 
Q 2375 1319 2147 623 
Q 1919 -72 1441 -844 
L 513 -844 
z
" transform="scale(0.015625)"/>
     </defs>
     <use xlink:href="#DejaVuSans-Bold-b"/>
     <use xlink:href="#DejaVuSans-Bold-27" transform="translate(45.703125 0)"/>
     <use xlink:href="#DejaVuSans-Bold-48" transform="translate(128.71875 0)"/>
     <use xlink:href="#DejaVuSans-Bold-53" transform="translate(196.546875 0)"/>
     <use xlink:href="#DejaVuSans-Bold-30" transform="translate(268.125 0)"/>
     <use xlink:href="#DejaVuSans-Bold-44" transform="translate(367.640625 0)"/>
     <use xlink:href="#DejaVuSans-Bold-53" transform="translate(435.125 0)"/>
     <use xlink:href="#DejaVuSans-Bold-3" transform="translate(506.703125 0)"/>
     <use xlink:href="#DejaVuSans-Bold-15" transform="translate(541.515625 0)"/>
     <use xlink:href="#DejaVuSans-Bold-15" transform="translate(611.09375 0)"/>
     <use xlink:href="#DejaVuSans-Bold-34" transform="translate(680.671875 0)"/>
     <use xlink:href="#DejaVuSans-Bold-17" transform="translate(765.6875 0)"/>
     <use xlink:href="#DejaVuSans-Bold-f" transform="translate(835.265625 0)"/>
     <use xlink:href="#DejaVuSans-Bold-3" transform="translate(873.25 0)"/>
     <use xlink:href="#DejaVuSans-Bold-51" transform="translate(908.0625 0)"/>
     <use xlink:href="#DejaVuSans-Bold-3" transform="translate(979.25 0)"/>
     <use xlink:href="#DejaVuSans-Bold-20" transform="translate(1014.0625 0)"/>
     <use xlink:href="#DejaVuSans-Bold-3" transform="translate(1097.859375 0)"/>
     <use xlink:href="#DejaVuSans-Bold-15" transform="translate(1132.671875 0)"/>
     <use xlink:href="#DejaVuSans-Bold-14" transform="translate(1202.25 0)"/>
     <use xlink:href="#DejaVuSans-Bold-3" transform="translate(1271.828125 0)"/>
     <use xlink:href="#DejaVuSans-Bold-2b" transform="translate(1306.640625 0)"/>
     <use xlink:href="#DejaVuSans-Bold-26" transform="translate(1390.328125 0)"/>
     <use xlink:href="#DejaVuSans-Bold-26" transform="translate(1463.71875 0)"/>
     <use xlink:href="#DejaVuSans-Bold-3" transform="translate(1537.109375 0)"/>
     <use xlink:href="#DejaVuSans-Bold-4f" transform="translate(1571.921875 0)"/>
     <use xlink:href="#DejaVuSans-Bold-4c" transform="translate(1606.203125 0)"/>
     <use xlink:href="#DejaVuSans-Bold-51" transform="translate(1640.484375 0)"/>
     <use xlink:href="#DejaVuSans-Bold-48" transform="translate(1711.671875 0)"/>
     <use xlink:href="#DejaVuSans-Bold-56" transform="translate(1779.5 0)"/>
     <use xlink:href="#DejaVuSans-Bold-c" transform="translate(1839.015625 0)"/>
    </g>
   </g>
   <g id="legend_1">
    <g id="patch_12">
     <path d="M 508.892031 72.123984 
L 698.860938 72.123984 
Q 700.660938 72.123984 700.660938 70.323984 
L 700.660938 44.222578 
Q 700.660938 42.422578 698.860938 42.422578 
L 508.892031 42.422578 
Q 507.092031 42.422578 507.092031 44.222578 
L 507.092031 70.323984 
Q 507.092031 72.123984 508.892031 72.123984 
z
" style="fill: #ffffff; opacity: 0.8; stroke: #cccccc; stroke-linejoin: miter"/>
    </g>
    <g id="line2d_35">
     <path d="M 510.692031 49.711172 
L 519.692031 49.711172 
L 528.692031 49.711172 
" style="fill: none; stroke-dasharray: 7.4,3.2; stroke-dashoffset: 0; stroke: #c0392b; stroke-width: 2"/>
    </g>
    <g id="text_16">
     <!-- Essentiality threshold (-0.5) -->
     <g transform="translate(535.892031 52.861172) scale(0.09 -0.09)">
      <defs>
       <path id="DejaVuSans-4c" d="M 603 3500 
L 1178 3500 
L 1178 0 
L 603 0 
L 603 3500 
z
M 603 4863 
L 1178 4863 
L 1178 4134 
L 603 4134 
L 603 4863 
z
" transform="scale(0.015625)"/>
       <path id="DejaVuSans-44" d="M 2194 1759 
Q 1497 1759 1228 1600 
Q 959 1441 959 1056 
Q 959 750 1161 570 
Q 1363 391 1709 391 
Q 2188 391 2477 730 
Q 2766 1069 2766 1631 
L 2766 1759 
L 2194 1759 
z
M 3341 1997 
L 3341 0 
L 2766 0 
L 2766 531 
Q 2569 213 2275 61 
Q 1981 -91 1556 -91 
Q 1019 -91 701 211 
Q 384 513 384 1019 
Q 384 1609 779 1909 
Q 1175 2209 1959 2209 
L 2766 2209 
L 2766 2266 
Q 2766 2663 2505 2880 
Q 2244 3097 1772 3097 
Q 1472 3097 1187 3025 
Q 903 2953 641 2809 
L 641 3341 
Q 956 3463 1253 3523 
Q 1550 3584 1831 3584 
Q 2591 3584 2966 3190 
Q 3341 2797 3341 1997 
z
" transform="scale(0.015625)"/>
       <path id="DejaVuSans-4f" d="M 603 4863 
L 1178 4863 
L 1178 0 
L 603 0 
L 603 4863 
z
" transform="scale(0.015625)"/>
       <path id="DejaVuSans-5c" d="M 2059 -325 
Q 1816 -950 1584 -1140 
Q 1353 -1331 966 -1331 
L 506 -1331 
L 506 -850 
L 844 -850 
Q 1081 -850 1212 -737 
Q 1344 -625 1503 -206 
L 1606 56 
L 191 3500 
L 800 3500 
L 1894 763 
L 2988 3500 
L 3597 3500 
L 2059 -325 
z
" transform="scale(0.015625)"/>
       <path id="DejaVuSans-47" d="M 2906 2969 
L 2906 4863 
L 3481 4863 
L 3481 0 
L 2906 0 
L 2906 525 
Q 2725 213 2448 61 
Q 2172 -91 1784 -91 
Q 1150 -91 751 415 
Q 353 922 353 1747 
Q 353 2572 751 3078 
Q 1150 3584 1784 3584 
Q 2172 3584 2448 3432 
Q 2725 3281 2906 2969 
z
M 947 1747 
Q 947 1113 1208 752 
Q 1469 391 1925 391 
Q 2381 391 2643 752 
Q 2906 1113 2906 1747 
Q 2906 2381 2643 2742 
Q 2381 3103 1925 3103 
Q 1469 3103 1208 2742 
Q 947 2381 947 1747 
z
" transform="scale(0.015625)"/>
       <path id="DejaVuSans-10" d="M 313 2009 
L 1997 2009 
L 1997 1497 
L 313 1497 
L 313 2009 
z
" transform="scale(0.015625)"/>
      </defs>
      <use xlink:href="#DejaVuSans-28"/>
      <use xlink:href="#DejaVuSans-56" transform="translate(63.1875 0)"/>
      <use xlink:href="#DejaVuSans-56" transform="translate(115.28125 0)"/>
      <use xlink:href="#DejaVuSans-48" transform="translate(167.375 0)"/>
      <use xlink:href="#DejaVuSans-51" transform="translate(228.90625 0)"/>
      <use xlink:href="#DejaVuSans-57" transform="translate(292.28125 0)"/>
      <use xlink:href="#DejaVuSans-4c" transform="translate(331.484375 0)"/>
      <use xlink:href="#DejaVuSans-44" transform="translate(359.265625 0)"/>
      <use xlink:href="#DejaVuSans-4f" transform="translate(420.546875 0)"/>
      <use xlink:href="#DejaVuSans-4c" transform="translate(448.328125 0)"/>
      <use xlink:href="#DejaVuSans-57" transform="translate(476.109375 0)"/>
      <use xlink:href="#DejaVuSans-5c" transform="translate(515.3125 0)"/>
      <use xlink:href="#DejaVuSans-3" transform="translate(574.5 0)"/>
      <use xlink:href="#DejaVuSans-57" transform="translate(606.28125 0)"/>
      <use xlink:href="#DejaVuSans-4b" transform="translate(645.484375 0)"/>
      <use xlink:href="#DejaVuSans-55" transform="translate(708.859375 0)"/>
      <use xlink:href="#DejaVuSans-48" transform="translate(747.765625 0)"/>
      <use xlink:href="#DejaVuSans-56" transform="translate(809.296875 0)"/>
      <use xlink:href="#DejaVuSans-4b" transform="translate(861.390625 0)"/>
      <use xlink:href="#DejaVuSans-52" transform="translate(924.765625 0)"/>
      <use xlink:href="#DejaVuSans-4f" transform="translate(985.953125 0)"/>
      <use xlink:href="#DejaVuSans-47" transform="translate(1013.734375 0)"/>
      <use xlink:href="#DejaVuSans-3" transform="translate(1077.21875 0)"/>
      <use xlink:href="#DejaVuSans-b" transform="translate(1109 0)"/>
      <use xlink:href="#DejaVuSans-10" transform="translate(1148.015625 0)"/>
      <use xlink:href="#DejaVuSans-13" transform="translate(1184.09375 0)"/>
      <use xlink:href="#DejaVuSans-11" transform="translate(1247.71875 0)"/>
      <use xlink:href="#DejaVuSans-18" transform="translate(1279.5 0)"/>
      <use xlink:href="#DejaVuSans-c" transform="translate(1343.125 0)"/>
     </g>
    </g>
    <g id="line2d_36">
     <path d="M 510.692031 63.211875 
L 519.692031 63.211875 
L 528.692031 63.211875 
" style="fill: none; stroke-dasharray: 1.2,1.98; stroke-dashoffset: 0; stroke: #8e44ad; stroke-width: 1.2"/>
    </g>
    <g id="text_17">
     <!-- Common essential reference (−1.0) -->
     <g transform="translate(535.892031 66.361875) scale(0.09 -0.09)">
      <defs>
       <path id="DejaVuSans-50" d="M 3328 2828 
Q 3544 3216 3844 3400 
Q 4144 3584 4550 3584 
Q 5097 3584 5394 3201 
Q 5691 2819 5691 2113 
L 5691 0 
L 5113 0 
L 5113 2094 
Q 5113 2597 4934 2840 
Q 4756 3084 4391 3084 
Q 3944 3084 3684 2787 
Q 3425 2491 3425 1978 
L 3425 0 
L 2847 0 
L 2847 2094 
Q 2847 2600 2669 2842 
Q 2491 3084 2119 3084 
Q 1678 3084 1418 2786 
Q 1159 2488 1159 1978 
L 1159 0 
L 581 0 
L 581 3500 
L 1159 3500 
L 1159 2956 
Q 1356 3278 1631 3431 
Q 1906 3584 2284 3584 
Q 2666 3584 2933 3390 
Q 3200 3197 3328 2828 
z
" transform="scale(0.015625)"/>
       <path id="DejaVuSans-49" d="M 2375 4863 
L 2375 4384 
L 1825 4384 
Q 1516 4384 1395 4259 
Q 1275 4134 1275 3809 
L 1275 3500 
L 2222 3500 
L 2222 3053 
L 1275 3053 
L 1275 0 
L 697 0 
L 697 3053 
L 147 3053 
L 147 3500 
L 697 3500 
L 697 3744 
Q 697 4328 969 4595 
Q 1241 4863 1831 4863 
L 2375 4863 
z
" transform="scale(0.015625)"/>
      </defs>
      <use xlink:href="#DejaVuSans-26"/>
      <use xlink:href="#DejaVuSans-52" transform="translate(69.828125 0)"/>
      <use xlink:href="#DejaVuSans-50" transform="translate(131.015625 0)"/>
      <use xlink:href="#DejaVuSans-50" transform="translate(228.421875 0)"/>
      <use xlink:href="#DejaVuSans-52" transform="translate(325.828125 0)"/>
      <use xlink:href="#DejaVuSans-51" transform="translate(387.015625 0)"/>
      <use xlink:href="#DejaVuSans-3" transform="translate(450.390625 0)"/>
      <use xlink:href="#DejaVuSans-48" transform="translate(482.171875 0)"/>
      <use xlink:href="#DejaVuSans-56" transform="translate(543.703125 0)"/>
      <use xlink:href="#DejaVuSans-56" transform="translate(595.796875 0)"/>
      <use xlink:href="#DejaVuSans-48" transform="translate(647.890625 0)"/>
      <use xlink:href="#DejaVuSans-51" transform="translate(709.421875 0)"/>
      <use xlink:href="#DejaVuSans-57" transform="translate(772.796875 0)"/>
      <use xlink:href="#DejaVuSans-4c" transform="translate(812 0)"/>
      <use xlink:href="#DejaVuSans-44" transform="translate(839.78125 0)"/>
      <use xlink:href="#DejaVuSans-4f" transform="translate(901.0625 0)"/>
      <use xlink:href="#DejaVuSans-3" transform="translate(928.84375 0)"/>
      <use xlink:href="#DejaVuSans-55" transform="translate(960.625 0)"/>
      <use xlink:href="#DejaVuSans-48" transform="translate(999.53125 0)"/>
      <use xlink:href="#DejaVuSans-49" transform="translate(1061.0625 0)"/>
      <use xlink:href="#DejaVuSans-48" transform="translate(1096.265625 0)"/>
      <use xlink:href="#DejaVuSans-55" transform="translate(1157.796875 0)"/>
      <use xlink:href="#DejaVuSans-48" transform="translate(1196.703125 0)"/>
      <use xlink:href="#DejaVuSans-51" transform="translate(1258.234375 0)"/>
      <use xlink:href="#DejaVuSans-46" transform="translate(1321.609375 0)"/>
      <use xlink:href="#DejaVuSans-48" transform="translate(1376.59375 0)"/>
      <use xlink:href="#DejaVuSans-3" transform="translate(1438.125 0)"/>
      <use xlink:href="#DejaVuSans-b" transform="translate(1469.90625 0)"/>
      <use xlink:href="#DejaVuSans-c9c" transform="translate(1508.921875 0)"/>
      <use xlink:href="#DejaVuSans-14" transform="translate(1592.71875 0)"/>
      <use xlink:href="#DejaVuSans-11" transform="translate(1656.34375 0)"/>
      <use xlink:href="#DejaVuSans-13" transform="translate(1688.125 0)"/>
      <use xlink:href="#DejaVuSans-c" transform="translate(1751.75 0)"/>
     </g>
    </g>
   </g>
  </g>
 </g>
 <defs>
  <clipPath id="pfb09c6883f">
   <rect x="54.48375" y="37.922578" width="650.677188" height="346.193672"/>
  </clipPath>
 </defs>
</svg>
