<?xml version="1.0" encoding="utf-8" standalone="no"?>
<!DOCTYPE svg PUBLIC "-//W3C//DTD SVG 1.1//EN"
  "http://www.w3.org/Graphics/SVG/1.1/DTD/svg11.dtd">
<svg xmlns:xlink="http://www.w3.org/1999/xlink" width="736.995834pt" height="312.594313pt" viewBox="0 0 736.995834 312.594313" xmlns="http://www.w3.org/2000/svg" version="1.1">
 <metadata>
  <rdf:RDF xmlns:dc="http://purl.org/dc/elements/1.1/" xmlns:cc="http://creativecommons.org/ns#" xmlns:rdf="http://www.w3.org/1999/02/22-rdf-syntax-ns#">
   <cc:Work>
    <dc:type rdf:resource="http://purl.org/dc/dcmitype/StillImage"/>
    <dc:date>2026-07-04T18:37:48.754448</dc:date>
    <dc:format>image/svg+xml</dc:format>
    <dc:creator>
     <cc:Agent>
      <dc:title>Matplotlib v3.11.0, https://matplotlib.org/</dc:title>
     </cc:Agent>
    </dc:creator>
   </cc:Work>
  </rdf:RDF>
 </metadata>
 <defs>
  <style type="text/css">*{stroke-linejoin: round; stroke-linecap: butt}</style>
 </defs>
 <g id="figure_1">
  <g id="patch_1">
   <path d="M 0 312.594313 
L 736.995834 312.594313 
L 736.995834 0 
L 0 0 
z
" style="fill: #ffffff"/>
  </g>
  <g id="axes_1">
   <g id="patch_2">
    <path d="M 135.032184 58.472534 
C 120.339947 58.472534 105.86661 62.052565 92.868569 68.901853 
C 79.870527 75.751141 68.735098 85.66559 60.42892 97.784552 
C 52.122742 109.903514 46.893324 123.865866 45.194618 138.459571 
C 43.495913 153.053276 45.378538 167.84347 50.679068 181.546251 
L 88.63797 166.862932 
C 85.722679 159.326402 84.687235 151.191796 85.621523 143.165258 
C 86.555811 135.138721 89.431991 127.459427 94.000389 120.793998 
C 98.568787 114.128569 104.693273 108.675622 111.842196 104.908513 
C 118.991119 101.141405 126.951454 99.172388 135.032184 99.172388 
z
" style="fill: #c0392b; stroke: #ffffff; stroke-width: 2; stroke-linejoin: miter"/>
   </g>
   <g id="patch_3">
    <path d="M 50.679068 181.546251 
C 55.459338 193.904071 62.897373 205.061773 72.465532 214.227853 
C 82.033691 223.393933 93.500247 230.3464 106.051783 234.592059 
L 119.092964 196.038127 
C 112.189619 193.703014 105.883013 189.879157 100.620525 184.837813 
C 95.358038 179.796469 91.267119 173.659733 88.63797 166.862932 
z
" style="fill: #e67e22; stroke: #ffffff; stroke-width: 2; stroke-linejoin: miter"/>
   </g>
   <g id="patch_4">
    <path d="M 106.051783 234.592059 
C 118.47931 238.795771 131.67396 240.245596 144.717762 238.840668 
C 157.761564 237.43574 170.344845 233.209413 181.592166 226.45572 
C 192.839487 219.702027 202.483825 210.581307 209.854209 199.728103 
C 217.224593 188.874899 222.146041 176.546877 224.276163 163.601716 
C 226.406284 150.656556 225.694506 137.401588 222.190349 124.758982 
C 218.686192 112.116377 212.472848 100.386281 203.982588 90.384777 
C 195.492328 80.383272 184.926721 72.347805 173.020832 66.837415 
C 161.114943 61.327025 148.15143 58.472534 135.032184 58.472534 
L 135.032184 99.172388 
C 142.247769 99.172388 149.377701 100.742358 155.92594 103.773072 
C 162.474179 106.803787 168.285263 111.223294 172.954906 116.724121 
C 177.624549 122.224949 181.041888 128.676501 182.969175 135.629934 
C 184.896461 142.583368 185.287939 149.8736 184.116372 156.993438 
C 182.944806 164.113276 180.238009 170.893688 176.184298 176.862951 
C 172.130587 182.832213 166.826201 187.848609 160.640174 191.56314 
C 154.454148 195.277671 147.533343 197.602151 140.359252 198.374861 
C 133.185161 199.147572 125.928103 198.350168 119.092964 196.038127 
z
" style="fill: #27ae60; stroke: #ffffff; stroke-width: 2; stroke-linejoin: miter"/>
   </g>
   <g id="matplotlib.axis_1"/>
   <g id="matplotlib.axis_2"/>
   <g id="text_1">
    <!-- S1 -->
    <g transform="translate(38.986562 88.92769) scale(0.11 -0.11)">
     <defs>
      <path id="DejaVuSans-36" d="M 3425 4513 
L 3425 3897 
Q 3066 4069 2747 4153 
Q 2428 4238 2131 4238 
Q 1616 4238 1336 4038 
Q 1056 3838 1056 3469 
Q 1056 3159 1242 3001 
Q 1428 2844 1947 2747 
L 2328 2669 
Q 3034 2534 3370 2195 
Q 3706 1856 3706 1288 
Q 3706 609 3251 259 
Q 2797 -91 1919 -91 
Q 1588 -91 1214 -16 
Q 841 59 441 206 
L 441 856 
Q 825 641 1194 531 
Q 1563 422 1919 422 
Q 2459 422 2753 634 
Q 3047 847 3047 1241 
Q 3047 1584 2836 1778 
Q 2625 1972 2144 2069 
L 1759 2144 
Q 1053 2284 737 2584 
Q 422 2884 422 3419 
Q 422 4038 858 4394 
Q 1294 4750 2059 4750 
Q 2388 4750 2728 4690 
Q 3069 4631 3425 4513 
z
" transform="scale(0.015625)"/>
      <path id="DejaVuSans-14" d="M 794 531 
L 1825 531 
L 1825 4091 
L 703 3866 
L 703 4441 
L 1819 4666 
L 2450 4666 
L 2450 531 
L 3481 531 
L 3481 0 
L 794 0 
L 794 531 
z
" transform="scale(0.015625)"/>
     </defs>
     <use xlink:href="#DejaVuSans-36"/>
     <use xlink:href="#DejaVuSans-14" transform="translate(63.484375 0)"/>
    </g>
    <!-- (n=113) -->
    <g transform="translate(7.2 102.129838) scale(0.11 -0.11)">
     <defs>
      <path id="DejaVuSans-b" d="M 1984 4856 
Q 1566 4138 1362 3434 
Q 1159 2731 1159 2009 
Q 1159 1288 1364 580 
Q 1569 -128 1984 -844 
L 1484 -844 
Q 1016 -109 783 600 
Q 550 1309 550 2009 
Q 550 2706 781 3412 
Q 1013 4119 1484 4856 
L 1984 4856 
z
" transform="scale(0.015625)"/>
      <path id="DejaVuSans-51" d="M 3513 2113 
L 3513 0 
L 2938 0 
L 2938 2094 
Q 2938 2591 2744 2837 
Q 2550 3084 2163 3084 
Q 1697 3084 1428 2787 
Q 1159 2491 1159 1978 
L 1159 0 
L 581 0 
L 581 3500 
L 1159 3500 
L 1159 2956 
Q 1366 3272 1645 3428 
Q 1925 3584 2291 3584 
Q 2894 3584 3203 3211 
Q 3513 2838 3513 2113 
z
" transform="scale(0.015625)"/>
      <path id="DejaVuSans-20" d="M 678 2906 
L 4684 2906 
L 4684 2381 
L 678 2381 
L 678 2906 
z
M 678 1631 
L 4684 1631 
L 4684 1100 
L 678 1100 
L 678 1631 
z
" transform="scale(0.015625)"/>
      <path id="DejaVuSans-16" d="M 2597 2516 
Q 3050 2419 3304 2112 
Q 3559 1806 3559 1356 
Q 3559 666 3084 287 
Q 2609 -91 1734 -91 
Q 1441 -91 1130 -33 
Q 819 25 488 141 
L 488 750 
Q 750 597 1062 519 
Q 1375 441 1716 441 
Q 2309 441 2620 675 
Q 2931 909 2931 1356 
Q 2931 1769 2642 2001 
Q 2353 2234 1838 2234 
L 1294 2234 
L 1294 2753 
L 1863 2753 
Q 2328 2753 2575 2939 
Q 2822 3125 2822 3475 
Q 2822 3834 2567 4026 
Q 2313 4219 1838 4219 
Q 1578 4219 1281 4162 
Q 984 4106 628 3988 
L 628 4550 
Q 988 4650 1302 4700 
Q 1616 4750 1894 4750 
Q 2613 4750 3031 4423 
Q 3450 4097 3450 3541 
Q 3450 3153 3228 2886 
Q 3006 2619 2597 2516 
z
" transform="scale(0.015625)"/>
      <path id="DejaVuSans-c" d="M 513 4856 
L 1013 4856 
Q 1481 4119 1714 3412 
Q 1947 2706 1947 2009 
Q 1947 1309 1714 600 
Q 1481 -109 1013 -844 
L 513 -844 
Q 928 -128 1133 580 
Q 1338 1288 1338 2009 
Q 1338 2731 1133 3434 
Q 928 4138 513 4856 
z
" transform="scale(0.015625)"/>
     </defs>
     <use xlink:href="#DejaVuSans-b"/>
     <use xlink:href="#DejaVuSans-51" transform="translate(39.015625 0)"/>
     <use xlink:href="#DejaVuSans-20" transform="translate(102.390625 0)"/>
     <use xlink:href="#DejaVuSans-14" transform="translate(186.1875 0)"/>
     <use xlink:href="#DejaVuSans-14" transform="translate(249.8125 0)"/>
     <use xlink:href="#DejaVuSans-16" transform="translate(313.4375 0)"/>
     <use xlink:href="#DejaVuSans-c" transform="translate(377.0625 0)"/>
    </g>
   </g>
   <g id="text_2">
    <!-- S2 -->
    <g transform="translate(52.226836 217.015321) scale(0.11 -0.11)">
     <defs>
      <path id="DejaVuSans-15" d="M 1228 531 
L 3431 531 
L 3431 0 
L 469 0 
L 469 531 
Q 828 903 1448 1529 
Q 2069 2156 2228 2338 
Q 2531 2678 2651 2914 
Q 2772 3150 2772 3378 
Q 2772 3750 2511 3984 
Q 2250 4219 1831 4219 
Q 1534 4219 1204 4116 
Q 875 4013 500 3803 
L 500 4441 
Q 881 4594 1212 4672 
Q 1544 4750 1819 4750 
Q 2544 4750 2975 4387 
Q 3406 4025 3406 3419 
Q 3406 3131 3298 2873 
Q 3191 2616 2906 2266 
Q 2828 2175 2409 1742 
Q 1991 1309 1228 531 
z
" transform="scale(0.015625)"/>
     </defs>
     <use xlink:href="#DejaVuSans-36"/>
     <use xlink:href="#DejaVuSans-15" transform="translate(63.484375 0)"/>
    </g>
    <!-- (n=51) -->
    <g transform="translate(27.439023 230.217469) scale(0.11 -0.11)">
     <defs>
      <path id="DejaVuSans-18" d="M 691 4666 
L 3169 4666 
L 3169 4134 
L 1269 4134 
L 1269 2991 
Q 1406 3038 1543 3061 
Q 1681 3084 1819 3084 
Q 2600 3084 3056 2656 
Q 3513 2228 3513 1497 
Q 3513 744 3044 326 
Q 2575 -91 1722 -91 
Q 1428 -91 1123 -41 
Q 819 9 494 109 
L 494 744 
Q 775 591 1075 516 
Q 1375 441 1709 441 
Q 2250 441 2565 725 
Q 2881 1009 2881 1497 
Q 2881 1984 2565 2268 
Q 2250 2553 1709 2553 
Q 1456 2553 1204 2497 
Q 953 2441 691 2322 
L 691 4666 
z
" transform="scale(0.015625)"/>
     </defs>
     <use xlink:href="#DejaVuSans-b"/>
     <use xlink:href="#DejaVuSans-51" transform="translate(39.015625 0)"/>
     <use xlink:href="#DejaVuSans-20" transform="translate(102.390625 0)"/>
     <use xlink:href="#DejaVuSans-18" transform="translate(186.1875 0)"/>
     <use xlink:href="#DejaVuSans-14" transform="translate(249.8125 0)"/>
     <use xlink:href="#DejaVuSans-c" transform="translate(313.4375 0)"/>
    </g>
   </g>
   <g id="text_3">
    <!-- S3 -->
    <g transform="translate(233.200561 161.32657) scale(0.11 -0.11)">
     <use xlink:href="#DejaVuSans-36"/>
     <use xlink:href="#DejaVuSans-16" transform="translate(63.484375 0)"/>
    </g>
    <!-- (n=202) -->
    <g transform="translate(233.200561 174.528719) scale(0.11 -0.11)">
     <defs>
      <path id="DejaVuSans-13" d="M 2034 4250 
Q 1547 4250 1301 3770 
Q 1056 3291 1056 2328 
Q 1056 1369 1301 889 
Q 1547 409 2034 409 
Q 2525 409 2770 889 
Q 3016 1369 3016 2328 
Q 3016 3291 2770 3770 
Q 2525 4250 2034 4250 
z
M 2034 4750 
Q 2819 4750 3233 4129 
Q 3647 3509 3647 2328 
Q 3647 1150 3233 529 
Q 2819 -91 2034 -91 
Q 1250 -91 836 529 
Q 422 1150 422 2328 
Q 422 3509 836 4129 
Q 1250 4750 2034 4750 
z
" transform="scale(0.015625)"/>
     </defs>
     <use xlink:href="#DejaVuSans-b"/>
     <use xlink:href="#DejaVuSans-51" transform="translate(39.015625 0)"/>
     <use xlink:href="#DejaVuSans-20" transform="translate(102.390625 0)"/>
     <use xlink:href="#DejaVuSans-15" transform="translate(186.1875 0)"/>
     <use xlink:href="#DejaVuSans-13" transform="translate(249.8125 0)"/>
     <use xlink:href="#DejaVuSans-15" transform="translate(313.4375 0)"/>
     <use xlink:href="#DejaVuSans-c" transform="translate(377.0625 0)"/>
    </g>
   </g>
   <g id="text_4">
    <!-- 30.9% -->
    <g transform="translate(72.798273 121.094815) scale(0.11 -0.11)">
     <defs>
      <path id="DejaVuSans-11" d="M 684 794 
L 1344 794 
L 1344 0 
L 684 0 
L 684 794 
z
" transform="scale(0.015625)"/>
      <path id="DejaVuSans-1c" d="M 703 97 
L 703 672 
Q 941 559 1184 500 
Q 1428 441 1663 441 
Q 2288 441 2617 861 
Q 2947 1281 2994 2138 
Q 2813 1869 2534 1725 
Q 2256 1581 1919 1581 
Q 1219 1581 811 2004 
Q 403 2428 403 3163 
Q 403 3881 828 4315 
Q 1253 4750 1959 4750 
Q 2769 4750 3195 4129 
Q 3622 3509 3622 2328 
Q 3622 1225 3098 567 
Q 2575 -91 1691 -91 
Q 1453 -91 1209 -44 
Q 966 3 703 97 
z
M 1959 2075 
Q 2384 2075 2632 2365 
Q 2881 2656 2881 3163 
Q 2881 3666 2632 3958 
Q 2384 4250 1959 4250 
Q 1534 4250 1286 3958 
Q 1038 3666 1038 3163 
Q 1038 2656 1286 2365 
Q 1534 2075 1959 2075 
z
" transform="scale(0.015625)"/>
      <path id="DejaVuSans-8" d="M 4653 2053 
Q 4381 2053 4226 1822 
Q 4072 1591 4072 1178 
Q 4072 772 4226 539 
Q 4381 306 4653 306 
Q 4919 306 5073 539 
Q 5228 772 5228 1178 
Q 5228 1588 5073 1820 
Q 4919 2053 4653 2053 
z
M 4653 2450 
Q 5147 2450 5437 2106 
Q 5728 1763 5728 1178 
Q 5728 594 5436 251 
Q 5144 -91 4653 -91 
Q 4153 -91 3862 251 
Q 3572 594 3572 1178 
Q 3572 1766 3864 2108 
Q 4156 2450 4653 2450 
z
M 1428 4353 
Q 1159 4353 1004 4120 
Q 850 3888 850 3481 
Q 850 3069 1003 2837 
Q 1156 2606 1428 2606 
Q 1700 2606 1854 2837 
Q 2009 3069 2009 3481 
Q 2009 3884 1853 4118 
Q 1697 4353 1428 4353 
z
M 4250 4750 
L 4750 4750 
L 1831 -91 
L 1331 -91 
L 4250 4750 
z
M 1428 4750 
Q 1922 4750 2215 4408 
Q 2509 4066 2509 3481 
Q 2509 2891 2217 2550 
Q 1925 2209 1428 2209 
Q 931 2209 642 2551 
Q 353 2894 353 3481 
Q 353 4063 643 4406 
Q 934 4750 1428 4750 
z
" transform="scale(0.015625)"/>
     </defs>
     <use xlink:href="#DejaVuSans-16"/>
     <use xlink:href="#DejaVuSans-13" transform="translate(63.625 0)"/>
     <use xlink:href="#DejaVuSans-11" transform="translate(127.25 0)"/>
     <use xlink:href="#DejaVuSans-1c" transform="translate(159.03125 0)"/>
     <use xlink:href="#DejaVuSans-8" transform="translate(222.65625 0)"/>
    </g>
   </g>
   <g id="text_5">
    <!-- 13.9% -->
    <g transform="translate(80.02024 190.960795) scale(0.11 -0.11)">
     <use xlink:href="#DejaVuSans-14"/>
     <use xlink:href="#DejaVuSans-16" transform="translate(63.625 0)"/>
     <use xlink:href="#DejaVuSans-11" transform="translate(127.25 0)"/>
     <use xlink:href="#DejaVuSans-1c" transform="translate(159.03125 0)"/>
     <use xlink:href="#DejaVuSans-8" transform="translate(222.65625 0)"/>
    </g>
   </g>
   <g id="text_6">
    <!-- 55.2% -->
    <g transform="translate(171.106618 160.585113) scale(0.11 -0.11)">
     <use xlink:href="#DejaVuSans-18"/>
     <use xlink:href="#DejaVuSans-18" transform="translate(63.625 0)"/>
     <use xlink:href="#DejaVuSans-11" transform="translate(127.25 0)"/>
     <use xlink:href="#DejaVuSans-15" transform="translate(159.03125 0)"/>
     <use xlink:href="#DejaVuSans-8" transform="translate(222.65625 0)"/>
    </g>
   </g>
   <g id="text_7">
    <!-- A   Hoshida Subtype Distribution -->
    <g transform="translate(33.392184 16.659355) scale(0.11 -0.11)">
     <defs>
      <path id="DejaVuSans-Bold-24" d="M 3419 850 
L 1538 850 
L 1241 0 
L 31 0 
L 1759 4666 
L 3194 4666 
L 4922 0 
L 3713 0 
L 3419 850 
z
M 1838 1716 
L 3116 1716 
L 2478 3572 
L 1838 1716 
z
" transform="scale(0.015625)"/>
      <path id="DejaVuSans-Bold-3" transform="scale(0.015625)"/>
      <path id="DejaVuSans-Bold-2b" d="M 588 4666 
L 1791 4666 
L 1791 2888 
L 3566 2888 
L 3566 4666 
L 4769 4666 
L 4769 0 
L 3566 0 
L 3566 1978 
L 1791 1978 
L 1791 0 
L 588 0 
L 588 4666 
z
" transform="scale(0.015625)"/>
      <path id="DejaVuSans-Bold-52" d="M 2203 2784 
Q 1831 2784 1636 2517 
Q 1441 2250 1441 1747 
Q 1441 1244 1636 976 
Q 1831 709 2203 709 
Q 2569 709 2762 976 
Q 2956 1244 2956 1747 
Q 2956 2250 2762 2517 
Q 2569 2784 2203 2784 
z
M 2203 3584 
Q 3106 3584 3614 3096 
Q 4122 2609 4122 1747 
Q 4122 884 3614 396 
Q 3106 -91 2203 -91 
Q 1297 -91 786 396 
Q 275 884 275 1747 
Q 275 2609 786 3096 
Q 1297 3584 2203 3584 
z
" transform="scale(0.015625)"/>
      <path id="DejaVuSans-Bold-56" d="M 3272 3391 
L 3272 2541 
Q 2913 2691 2578 2766 
Q 2244 2841 1947 2841 
Q 1628 2841 1473 2761 
Q 1319 2681 1319 2516 
Q 1319 2381 1436 2309 
Q 1553 2238 1856 2203 
L 2053 2175 
Q 2913 2066 3209 1816 
Q 3506 1566 3506 1031 
Q 3506 472 3093 190 
Q 2681 -91 1863 -91 
Q 1516 -91 1145 -36 
Q 775 19 384 128 
L 384 978 
Q 719 816 1070 734 
Q 1422 653 1784 653 
Q 2113 653 2278 743 
Q 2444 834 2444 1013 
Q 2444 1163 2330 1236 
Q 2216 1309 1875 1350 
L 1678 1375 
Q 931 1469 631 1722 
Q 331 1975 331 2491 
Q 331 3047 712 3315 
Q 1094 3584 1881 3584 
Q 2191 3584 2531 3537 
Q 2872 3491 3272 3391 
z
" transform="scale(0.015625)"/>
      <path id="DejaVuSans-Bold-4b" d="M 4056 2131 
L 4056 0 
L 2931 0 
L 2931 347 
L 2931 1625 
Q 2931 2084 2911 2256 
Q 2891 2428 2841 2509 
Q 2775 2619 2662 2680 
Q 2550 2741 2406 2741 
Q 2056 2741 1856 2470 
Q 1656 2200 1656 1722 
L 1656 0 
L 538 0 
L 538 4863 
L 1656 4863 
L 1656 2988 
Q 1909 3294 2193 3439 
Q 2478 3584 2822 3584 
Q 3428 3584 3742 3212 
Q 4056 2841 4056 2131 
z
" transform="scale(0.015625)"/>
      <path id="DejaVuSans-Bold-4c" d="M 538 3500 
L 1656 3500 
L 1656 0 
L 538 0 
L 538 3500 
z
M 538 4863 
L 1656 4863 
L 1656 3950 
L 538 3950 
L 538 4863 
z
" transform="scale(0.015625)"/>
      <path id="DejaVuSans-Bold-47" d="M 2919 2988 
L 2919 4863 
L 4044 4863 
L 4044 0 
L 2919 0 
L 2919 506 
Q 2688 197 2409 53 
Q 2131 -91 1766 -91 
Q 1119 -91 703 423 
Q 288 938 288 1747 
Q 288 2556 703 3070 
Q 1119 3584 1766 3584 
Q 2128 3584 2408 3439 
Q 2688 3294 2919 2988 
z
M 2181 722 
Q 2541 722 2730 984 
Q 2919 1247 2919 1747 
Q 2919 2247 2730 2509 
Q 2541 2772 2181 2772 
Q 1825 2772 1636 2509 
Q 1447 2247 1447 1747 
Q 1447 1247 1636 984 
Q 1825 722 2181 722 
z
" transform="scale(0.015625)"/>
      <path id="DejaVuSans-Bold-44" d="M 2106 1575 
Q 1756 1575 1579 1456 
Q 1403 1338 1403 1106 
Q 1403 894 1545 773 
Q 1688 653 1941 653 
Q 2256 653 2472 879 
Q 2688 1106 2688 1447 
L 2688 1575 
L 2106 1575 
z
M 3816 1997 
L 3816 0 
L 2688 0 
L 2688 519 
Q 2463 200 2181 54 
Q 1900 -91 1497 -91 
Q 953 -91 614 226 
Q 275 544 275 1050 
Q 275 1666 698 1953 
Q 1122 2241 2028 2241 
L 2688 2241 
L 2688 2328 
Q 2688 2594 2478 2717 
Q 2269 2841 1825 2841 
Q 1466 2841 1156 2769 
Q 847 2697 581 2553 
L 581 3406 
Q 941 3494 1303 3539 
Q 1666 3584 2028 3584 
Q 2975 3584 3395 3211 
Q 3816 2838 3816 1997 
z
" transform="scale(0.015625)"/>
      <path id="DejaVuSans-Bold-36" d="M 3834 4519 
L 3834 3531 
Q 3450 3703 3084 3790 
Q 2719 3878 2394 3878 
Q 1963 3878 1756 3759 
Q 1550 3641 1550 3391 
Q 1550 3203 1689 3098 
Q 1828 2994 2194 2919 
L 2706 2816 
Q 3484 2659 3812 2340 
Q 4141 2022 4141 1434 
Q 4141 663 3683 286 
Q 3225 -91 2284 -91 
Q 1841 -91 1394 -6 
Q 947 78 500 244 
L 500 1259 
Q 947 1022 1364 901 
Q 1781 781 2169 781 
Q 2563 781 2772 912 
Q 2981 1044 2981 1288 
Q 2981 1506 2839 1625 
Q 2697 1744 2272 1838 
L 1806 1941 
Q 1106 2091 782 2419 
Q 459 2747 459 3303 
Q 459 4000 909 4375 
Q 1359 4750 2203 4750 
Q 2588 4750 2994 4692 
Q 3400 4634 3834 4519 
z
" transform="scale(0.015625)"/>
      <path id="DejaVuSans-Bold-58" d="M 500 1363 
L 500 3500 
L 1625 3500 
L 1625 3150 
Q 1625 2866 1622 2436 
Q 1619 2006 1619 1863 
Q 1619 1441 1641 1255 
Q 1663 1069 1716 984 
Q 1784 875 1895 815 
Q 2006 756 2150 756 
Q 2500 756 2700 1025 
Q 2900 1294 2900 1772 
L 2900 3500 
L 4019 3500 
L 4019 0 
L 2900 0 
L 2900 506 
Q 2647 200 2364 54 
Q 2081 -91 1741 -91 
Q 1134 -91 817 281 
Q 500 653 500 1363 
z
" transform="scale(0.015625)"/>
      <path id="DejaVuSans-Bold-45" d="M 2400 722 
Q 2759 722 2948 984 
Q 3138 1247 3138 1747 
Q 3138 2247 2948 2509 
Q 2759 2772 2400 2772 
Q 2041 2772 1848 2508 
Q 1656 2244 1656 1747 
Q 1656 1250 1848 986 
Q 2041 722 2400 722 
z
M 1656 2988 
Q 1888 3294 2169 3439 
Q 2450 3584 2816 3584 
Q 3463 3584 3878 3070 
Q 4294 2556 4294 1747 
Q 4294 938 3878 423 
Q 3463 -91 2816 -91 
Q 2450 -91 2169 54 
Q 1888 200 1656 506 
L 1656 0 
L 538 0 
L 538 4863 
L 1656 4863 
L 1656 2988 
z
" transform="scale(0.015625)"/>
      <path id="DejaVuSans-Bold-57" d="M 1759 4494 
L 1759 3500 
L 2913 3500 
L 2913 2700 
L 1759 2700 
L 1759 1216 
Q 1759 972 1856 886 
Q 1953 800 2241 800 
L 2816 800 
L 2816 0 
L 1856 0 
Q 1194 0 917 276 
Q 641 553 641 1216 
L 641 2700 
L 84 2700 
L 84 3500 
L 641 3500 
L 641 4494 
L 1759 4494 
z
" transform="scale(0.015625)"/>
      <path id="DejaVuSans-Bold-5c" d="M 78 3500 
L 1197 3500 
L 2138 1125 
L 2938 3500 
L 4056 3500 
L 2584 -331 
Q 2363 -916 2067 -1148 
Q 1772 -1381 1288 -1381 
L 641 -1381 
L 641 -647 
L 991 -647 
Q 1275 -647 1404 -556 
Q 1534 -466 1606 -231 
L 1638 -134 
L 78 3500 
z
" transform="scale(0.015625)"/>
      <path id="DejaVuSans-Bold-53" d="M 1656 506 
L 1656 -1331 
L 538 -1331 
L 538 3500 
L 1656 3500 
L 1656 2988 
Q 1888 3294 2169 3439 
Q 2450 3584 2816 3584 
Q 3463 3584 3878 3070 
Q 4294 2556 4294 1747 
Q 4294 938 3878 423 
Q 3463 -91 2816 -91 
Q 2450 -91 2169 54 
Q 1888 200 1656 506 
z
M 2400 2772 
Q 2041 2772 1848 2508 
Q 1656 2244 1656 1747 
Q 1656 1250 1848 986 
Q 2041 722 2400 722 
Q 2759 722 2948 984 
Q 3138 1247 3138 1747 
Q 3138 2247 2948 2509 
Q 2759 2772 2400 2772 
z
" transform="scale(0.015625)"/>
      <path id="DejaVuSans-Bold-48" d="M 4031 1759 
L 4031 1441 
L 1416 1441 
Q 1456 1047 1700 850 
Q 1944 653 2381 653 
Q 2734 653 3104 758 
Q 3475 863 3866 1075 
L 3866 213 
Q 3469 63 3072 -14 
Q 2675 -91 2278 -91 
Q 1328 -91 801 392 
Q 275 875 275 1747 
Q 275 2603 792 3093 
Q 1309 3584 2216 3584 
Q 3041 3584 3536 3087 
Q 4031 2591 4031 1759 
z
M 2881 2131 
Q 2881 2450 2695 2645 
Q 2509 2841 2209 2841 
Q 1884 2841 1681 2658 
Q 1478 2475 1428 2131 
L 2881 2131 
z
" transform="scale(0.015625)"/>
      <path id="DejaVuSans-Bold-27" d="M 1791 3756 
L 1791 909 
L 2222 909 
Q 2959 909 3348 1275 
Q 3738 1641 3738 2338 
Q 3738 3031 3350 3393 
Q 2963 3756 2222 3756 
L 1791 3756 
z
M 588 4666 
L 1856 4666 
Q 2919 4666 3439 4514 
Q 3959 4363 4331 4000 
Q 4659 3684 4818 3271 
Q 4978 2859 4978 2338 
Q 4978 1809 4818 1395 
Q 4659 981 4331 666 
Q 3956 303 3431 151 
Q 2906 0 1856 0 
L 588 0 
L 588 4666 
z
" transform="scale(0.015625)"/>
      <path id="DejaVuSans-Bold-55" d="M 3138 2547 
Q 2991 2616 2845 2648 
Q 2700 2681 2553 2681 
Q 2122 2681 1889 2404 
Q 1656 2128 1656 1613 
L 1656 0 
L 538 0 
L 538 3500 
L 1656 3500 
L 1656 2925 
Q 1872 3269 2151 3426 
Q 2431 3584 2822 3584 
Q 2878 3584 2943 3579 
Q 3009 3575 3134 3559 
L 3138 2547 
z
" transform="scale(0.015625)"/>
      <path id="DejaVuSans-Bold-51" d="M 4056 2131 
L 4056 0 
L 2931 0 
L 2931 347 
L 2931 1631 
Q 2931 2084 2911 2256 
Q 2891 2428 2841 2509 
Q 2775 2619 2662 2680 
Q 2550 2741 2406 2741 
Q 2056 2741 1856 2470 
Q 1656 2200 1656 1722 
L 1656 0 
L 538 0 
L 538 3500 
L 1656 3500 
L 1656 2988 
Q 1909 3294 2193 3439 
Q 2478 3584 2822 3584 
Q 3428 3584 3742 3212 
Q 4056 2841 4056 2131 
z
" transform="scale(0.015625)"/>
     </defs>
     <use xlink:href="#DejaVuSans-Bold-24"/>
     <use xlink:href="#DejaVuSans-Bold-3" transform="translate(77.390625 0)"/>
     <use xlink:href="#DejaVuSans-Bold-3" transform="translate(112.203125 0)"/>
     <use xlink:href="#DejaVuSans-Bold-3" transform="translate(147.015625 0)"/>
     <use xlink:href="#DejaVuSans-Bold-2b" transform="translate(181.828125 0)"/>
     <use xlink:href="#DejaVuSans-Bold-52" transform="translate(265.515625 0)"/>
     <use xlink:href="#DejaVuSans-Bold-56" transform="translate(334.21875 0)"/>
     <use xlink:href="#DejaVuSans-Bold-4b" transform="translate(393.734375 0)"/>
     <use xlink:href="#DejaVuSans-Bold-4c" transform="translate(464.921875 0)"/>
     <use xlink:href="#DejaVuSans-Bold-47" transform="translate(499.203125 0)"/>
     <use xlink:href="#DejaVuSans-Bold-44" transform="translate(570.78125 0)"/>
     <use xlink:href="#DejaVuSans-Bold-3" transform="translate(638.265625 0)"/>
     <use xlink:href="#DejaVuSans-Bold-36" transform="translate(673.078125 0)"/>
     <use xlink:href="#DejaVuSans-Bold-58" transform="translate(745.09375 0)"/>
     <use xlink:href="#DejaVuSans-Bold-45" transform="translate(816.28125 0)"/>
     <use xlink:href="#DejaVuSans-Bold-57" transform="translate(887.859375 0)"/>
     <use xlink:href="#DejaVuSans-Bold-5c" transform="translate(935.65625 0)"/>
     <use xlink:href="#DejaVuSans-Bold-53" transform="translate(1000.84375 0)"/>
     <use xlink:href="#DejaVuSans-Bold-48" transform="translate(1072.421875 0)"/>
     <use xlink:href="#DejaVuSans-Bold-3" transform="translate(1140.25 0)"/>
     <use xlink:href="#DejaVuSans-Bold-27" transform="translate(1175.0625 0)"/>
     <use xlink:href="#DejaVuSans-Bold-4c" transform="translate(1258.078125 0)"/>
     <use xlink:href="#DejaVuSans-Bold-56" transform="translate(1292.359375 0)"/>
     <use xlink:href="#DejaVuSans-Bold-57" transform="translate(1351.875 0)"/>
     <use xlink:href="#DejaVuSans-Bold-55" transform="translate(1399.671875 0)"/>
     <use xlink:href="#DejaVuSans-Bold-4c" transform="translate(1448.984375 0)"/>
     <use xlink:href="#DejaVuSans-Bold-45" transform="translate(1483.265625 0)"/>
     <use xlink:href="#DejaVuSans-Bold-58" transform="translate(1554.84375 0)"/>
     <use xlink:href="#DejaVuSans-Bold-57" transform="translate(1626.03125 0)"/>
     <use xlink:href="#DejaVuSans-Bold-4c" transform="translate(1673.828125 0)"/>
     <use xlink:href="#DejaVuSans-Bold-52" transform="translate(1708.109375 0)"/>
     <use xlink:href="#DejaVuSans-Bold-51" transform="translate(1776.8125 0)"/>
    </g>
    <!-- TCGA-LIHC (n=371) -->
    <g transform="translate(75.053825 29.861504) scale(0.11 -0.11)">
     <defs>
      <path id="DejaVuSans-Bold-37" d="M 31 4666 
L 4331 4666 
L 4331 3756 
L 2784 3756 
L 2784 0 
L 1581 0 
L 1581 3756 
L 31 3756 
L 31 4666 
z
" transform="scale(0.015625)"/>
      <path id="DejaVuSans-Bold-26" d="M 4288 256 
Q 3956 84 3597 -3 
Q 3238 -91 2847 -91 
Q 1681 -91 1000 561 
Q 319 1213 319 2328 
Q 319 3447 1000 4098 
Q 1681 4750 2847 4750 
Q 3238 4750 3597 4662 
Q 3956 4575 4288 4403 
L 4288 3438 
Q 3953 3666 3628 3772 
Q 3303 3878 2944 3878 
Q 2300 3878 1931 3465 
Q 1563 3053 1563 2328 
Q 1563 1606 1931 1193 
Q 2300 781 2944 781 
Q 3303 781 3628 887 
Q 3953 994 4288 1222 
L 4288 256 
z
" transform="scale(0.015625)"/>
      <path id="DejaVuSans-Bold-2a" d="M 4781 347 
Q 4331 128 3847 18 
Q 3363 -91 2847 -91 
Q 1681 -91 1000 561 
Q 319 1213 319 2328 
Q 319 3456 1012 4103 
Q 1706 4750 2913 4750 
Q 3378 4750 3804 4662 
Q 4231 4575 4609 4403 
L 4609 3438 
Q 4219 3659 3833 3768 
Q 3447 3878 3059 3878 
Q 2341 3878 1952 3476 
Q 1563 3075 1563 2328 
Q 1563 1588 1938 1184 
Q 2313 781 3003 781 
Q 3191 781 3352 804 
Q 3513 828 3641 878 
L 3641 1784 
L 2906 1784 
L 2906 2591 
L 4781 2591 
L 4781 347 
z
" transform="scale(0.015625)"/>
      <path id="DejaVuSans-Bold-10" d="M 347 2297 
L 2309 2297 
L 2309 1388 
L 347 1388 
L 347 2297 
z
" transform="scale(0.015625)"/>
      <path id="DejaVuSans-Bold-2f" d="M 588 4666 
L 1791 4666 
L 1791 909 
L 3903 909 
L 3903 0 
L 588 0 
L 588 4666 
z
" transform="scale(0.015625)"/>
      <path id="DejaVuSans-Bold-2c" d="M 588 4666 
L 1791 4666 
L 1791 0 
L 588 0 
L 588 4666 
z
" transform="scale(0.015625)"/>
      <path id="DejaVuSans-Bold-b" d="M 2413 -844 
L 1484 -844 
Q 1006 -72 778 623 
Q 550 1319 550 2003 
Q 550 2688 779 3389 
Q 1009 4091 1484 4856 
L 2413 4856 
Q 2013 4116 1813 3408 
Q 1613 2700 1613 2009 
Q 1613 1319 1811 609 
Q 2009 -100 2413 -844 
z
" transform="scale(0.015625)"/>
      <path id="DejaVuSans-Bold-20" d="M 678 3084 
L 4684 3084 
L 4684 2350 
L 678 2350 
L 678 3084 
z
M 678 1663 
L 4684 1663 
L 4684 922 
L 678 922 
L 678 1663 
z
" transform="scale(0.015625)"/>
      <path id="DejaVuSans-Bold-16" d="M 2981 2516 
Q 3453 2394 3698 2092 
Q 3944 1791 3944 1325 
Q 3944 631 3412 270 
Q 2881 -91 1863 -91 
Q 1503 -91 1142 -33 
Q 781 25 428 141 
L 428 1069 
Q 766 900 1098 814 
Q 1431 728 1753 728 
Q 2231 728 2486 893 
Q 2741 1059 2741 1369 
Q 2741 1688 2480 1852 
Q 2219 2016 1709 2016 
L 1228 2016 
L 1228 2791 
L 1734 2791 
Q 2188 2791 2409 2933 
Q 2631 3075 2631 3366 
Q 2631 3634 2415 3781 
Q 2200 3928 1806 3928 
Q 1516 3928 1219 3862 
Q 922 3797 628 3669 
L 628 4550 
Q 984 4650 1334 4700 
Q 1684 4750 2022 4750 
Q 2931 4750 3382 4451 
Q 3834 4153 3834 3553 
Q 3834 3144 3618 2883 
Q 3403 2622 2981 2516 
z
" transform="scale(0.015625)"/>
      <path id="DejaVuSans-Bold-1a" d="M 428 4666 
L 3944 4666 
L 3944 3988 
L 2125 0 
L 953 0 
L 2675 3781 
L 428 3781 
L 428 4666 
z
" transform="scale(0.015625)"/>
      <path id="DejaVuSans-Bold-14" d="M 750 831 
L 1813 831 
L 1813 3847 
L 722 3622 
L 722 4441 
L 1806 4666 
L 2950 4666 
L 2950 831 
L 4013 831 
L 4013 0 
L 750 0 
L 750 831 
z
" transform="scale(0.015625)"/>
      <path id="DejaVuSans-Bold-c" d="M 513 -844 
Q 913 -100 1113 609 
Q 1313 1319 1313 2009 
Q 1313 2700 1113 3408 
Q 913 4116 513 4856 
L 1441 4856 
Q 1916 4091 2145 3389 
Q 2375 2688 2375 2003 
Q 2375 1319 2147 623 
Q 1919 -72 1441 -844 
L 513 -844 
z
" transform="scale(0.015625)"/>
     </defs>
     <use xlink:href="#DejaVuSans-Bold-37"/>
     <use xlink:href="#DejaVuSans-Bold-26" transform="translate(68.21875 0)"/>
     <use xlink:href="#DejaVuSans-Bold-2a" transform="translate(141.609375 0)"/>
     <use xlink:href="#DejaVuSans-Bold-24" transform="translate(223.6875 0)"/>
     <use xlink:href="#DejaVuSans-Bold-10" transform="translate(301.078125 0)"/>
     <use xlink:href="#DejaVuSans-Bold-2f" transform="translate(342.578125 0)"/>
     <use xlink:href="#DejaVuSans-Bold-2c" transform="translate(406.296875 0)"/>
     <use xlink:href="#DejaVuSans-Bold-2b" transform="translate(443.5 0)"/>
     <use xlink:href="#DejaVuSans-Bold-26" transform="translate(527.1875 0)"/>
     <use xlink:href="#DejaVuSans-Bold-3" transform="translate(600.578125 0)"/>
     <use xlink:href="#DejaVuSans-Bold-b" transform="translate(635.390625 0)"/>
     <use xlink:href="#DejaVuSans-Bold-51" transform="translate(681.09375 0)"/>
     <use xlink:href="#DejaVuSans-Bold-20" transform="translate(752.28125 0)"/>
     <use xlink:href="#DejaVuSans-Bold-16" transform="translate(836.078125 0)"/>
     <use xlink:href="#DejaVuSans-Bold-1a" transform="translate(905.65625 0)"/>
     <use xlink:href="#DejaVuSans-Bold-14" transform="translate(975.234375 0)"/>
     <use xlink:href="#DejaVuSans-Bold-c" transform="translate(1044.8125 0)"/>
    </g>
   </g>
  </g>
  <g id="axes_2">
   <g id="patch_5">
    <path d="M 378.523134 261.971803 
L 729.795834 261.971803 
L 729.795834 35.861504 
L 378.523134 35.861504 
z
" style="fill: #ffffff"/>
   </g>
   <g id="patch_6">
    <path d="M 394.490075 261.971803 
L 458.357839 261.971803 
L 458.357839 141.50757 
L 394.490075 141.50757 
z
" clip-path="url(#pade923d667)" style="fill: #c0392b; stroke: #ffffff; stroke-width: 1.5; stroke-linejoin: miter"/>
   </g>
   <g id="patch_7">
    <path d="M 522.225602 261.971803 
L 586.093366 261.971803 
L 586.093366 207.60299 
L 522.225602 207.60299 
z
" clip-path="url(#pade923d667)" style="fill: #e67e22; stroke: #ffffff; stroke-width: 1.5; stroke-linejoin: miter"/>
   </g>
   <g id="patch_8">
    <path d="M 649.96113 261.971803 
L 713.828893 261.971803 
L 713.828893 46.628661 
L 649.96113 46.628661 
z
" clip-path="url(#pade923d667)" style="fill: #27ae60; stroke: #ffffff; stroke-width: 1.5; stroke-linejoin: miter"/>
   </g>
   <g id="matplotlib.axis_3">
    <g id="xtick_1">
     <g id="line2d_1">
      <defs>
       <path id="m1b1742b9c8" d="M 0 0 
L 0 3.5 
" style="stroke: #000000; stroke-width: 0.8"/>
      </defs>
      <g>
       <use xlink:href="#m1b1742b9c8" x="426.423957" y="261.971803" style="stroke: #000000; stroke-width: 0.8"/>
      </g>
     </g>
     <g id="text_8">
      <!-- S1 -->
      <g transform="translate(420.068488 276.569459) scale(0.1 -0.1)">
       <use xlink:href="#DejaVuSans-36"/>
       <use xlink:href="#DejaVuSans-14" transform="translate(63.484375 0)"/>
      </g>
     </g>
    </g>
    <g id="xtick_2">
     <g id="line2d_2">
      <g>
       <use xlink:href="#m1b1742b9c8" x="554.159484" y="261.971803" style="stroke: #000000; stroke-width: 0.8"/>
      </g>
     </g>
     <g id="text_9">
      <!-- S2 -->
      <g transform="translate(547.804015 276.569459) scale(0.1 -0.1)">
       <use xlink:href="#DejaVuSans-36"/>
       <use xlink:href="#DejaVuSans-15" transform="translate(63.484375 0)"/>
      </g>
     </g>
    </g>
    <g id="xtick_3">
     <g id="line2d_3">
      <g>
       <use xlink:href="#m1b1742b9c8" x="681.895011" y="261.971803" style="stroke: #000000; stroke-width: 0.8"/>
      </g>
     </g>
     <g id="text_10">
      <!-- S3 -->
      <g transform="translate(675.539543 276.569459) scale(0.1 -0.1)">
       <use xlink:href="#DejaVuSans-36"/>
       <use xlink:href="#DejaVuSans-16" transform="translate(63.484375 0)"/>
      </g>
     </g>
    </g>
   </g>
   <g id="matplotlib.axis_4">
    <g id="ytick_1">
     <g id="line2d_4">
      <defs>
       <path id="md69e311c9c" d="M 0 0 
L -3.5 0 
" style="stroke: #000000; stroke-width: 0.8"/>
      </defs>
      <g>
       <use xlink:href="#md69e311c9c" x="378.523134" y="261.971803" style="stroke: #000000; stroke-width: 0.8"/>
      </g>
     </g>
     <g id="text_11">
      <!-- 0 -->
      <g transform="translate(365.160634 265.770631) scale(0.1 -0.1)">
       <use xlink:href="#DejaVuSans-13"/>
      </g>
     </g>
    </g>
    <g id="ytick_2">
     <g id="line2d_5">
      <g>
       <use xlink:href="#md69e311c9c" x="378.523134" y="235.320424" style="stroke: #000000; stroke-width: 0.8"/>
      </g>
     </g>
     <g id="text_12">
      <!-- 25 -->
      <g transform="translate(358.798134 239.119252) scale(0.1 -0.1)">
       <use xlink:href="#DejaVuSans-15"/>
       <use xlink:href="#DejaVuSans-18" transform="translate(63.625 0)"/>
      </g>
     </g>
    </g>
    <g id="ytick_3">
     <g id="line2d_6">
      <g>
       <use xlink:href="#md69e311c9c" x="378.523134" y="208.669045" style="stroke: #000000; stroke-width: 0.8"/>
      </g>
     </g>
     <g id="text_13">
      <!-- 50 -->
      <g transform="translate(358.798134 212.467873) scale(0.1 -0.1)">
       <use xlink:href="#DejaVuSans-18"/>
       <use xlink:href="#DejaVuSans-13" transform="translate(63.625 0)"/>
      </g>
     </g>
    </g>
    <g id="ytick_4">
     <g id="line2d_7">
      <g>
       <use xlink:href="#md69e311c9c" x="378.523134" y="182.017666" style="stroke: #000000; stroke-width: 0.8"/>
      </g>
     </g>
     <g id="text_14">
      <!-- 75 -->
      <g transform="translate(358.798134 185.816494) scale(0.1 -0.1)">
       <defs>
        <path id="DejaVuSans-1a" d="M 525 4666 
L 3525 4666 
L 3525 4397 
L 1831 0 
L 1172 0 
L 2766 4134 
L 525 4134 
L 525 4666 
z
" transform="scale(0.015625)"/>
       </defs>
       <use xlink:href="#DejaVuSans-1a"/>
       <use xlink:href="#DejaVuSans-18" transform="translate(63.625 0)"/>
      </g>
     </g>
    </g>
    <g id="ytick_5">
     <g id="line2d_8">
      <g>
       <use xlink:href="#md69e311c9c" x="378.523134" y="155.366287" style="stroke: #000000; stroke-width: 0.8"/>
      </g>
     </g>
     <g id="text_15">
      <!-- 100 -->
      <g transform="translate(352.435634 159.165115) scale(0.1 -0.1)">
       <use xlink:href="#DejaVuSans-14"/>
       <use xlink:href="#DejaVuSans-13" transform="translate(63.625 0)"/>
       <use xlink:href="#DejaVuSans-13" transform="translate(127.25 0)"/>
      </g>
     </g>
    </g>
    <g id="ytick_6">
     <g id="line2d_9">
      <g>
       <use xlink:href="#md69e311c9c" x="378.523134" y="128.714908" style="stroke: #000000; stroke-width: 0.8"/>
      </g>
     </g>
     <g id="text_16">
      <!-- 125 -->
      <g transform="translate(352.435634 132.513736) scale(0.1 -0.1)">
       <use xlink:href="#DejaVuSans-14"/>
       <use xlink:href="#DejaVuSans-15" transform="translate(63.625 0)"/>
       <use xlink:href="#DejaVuSans-18" transform="translate(127.25 0)"/>
      </g>
     </g>
    </g>
    <g id="ytick_7">
     <g id="line2d_10">
      <g>
       <use xlink:href="#md69e311c9c" x="378.523134" y="102.063529" style="stroke: #000000; stroke-width: 0.8"/>
      </g>
     </g>
     <g id="text_17">
      <!-- 150 -->
      <g transform="translate(352.435634 105.862357) scale(0.1 -0.1)">
       <use xlink:href="#DejaVuSans-14"/>
       <use xlink:href="#DejaVuSans-18" transform="translate(63.625 0)"/>
       <use xlink:href="#DejaVuSans-13" transform="translate(127.25 0)"/>
      </g>
     </g>
    </g>
    <g id="ytick_8">
     <g id="line2d_11">
      <g>
       <use xlink:href="#md69e311c9c" x="378.523134" y="75.41215" style="stroke: #000000; stroke-width: 0.8"/>
      </g>
     </g>
     <g id="text_18">
      <!-- 175 -->
      <g transform="translate(352.435634 79.210978) scale(0.1 -0.1)">
       <use xlink:href="#DejaVuSans-14"/>
       <use xlink:href="#DejaVuSans-1a" transform="translate(63.625 0)"/>
       <use xlink:href="#DejaVuSans-18" transform="translate(127.25 0)"/>
      </g>
     </g>
    </g>
    <g id="ytick_9">
     <g id="line2d_12">
      <g>
       <use xlink:href="#md69e311c9c" x="378.523134" y="48.760771" style="stroke: #000000; stroke-width: 0.8"/>
      </g>
     </g>
     <g id="text_19">
      <!-- 200 -->
      <g transform="translate(352.435634 52.559599) scale(0.1 -0.1)">
       <use xlink:href="#DejaVuSans-15"/>
       <use xlink:href="#DejaVuSans-13" transform="translate(63.625 0)"/>
       <use xlink:href="#DejaVuSans-13" transform="translate(127.25 0)"/>
      </g>
     </g>
    </g>
    <g id="text_20">
     <!-- Number of tumours -->
     <g transform="translate(345.793056 202.784857) rotate(-90) scale(0.11 -0.11)">
      <defs>
       <path id="DejaVuSans-31" d="M 628 4666 
L 1478 4666 
L 3547 763 
L 3547 4666 
L 4159 4666 
L 4159 0 
L 3309 0 
L 1241 3903 
L 1241 0 
L 628 0 
L 628 4666 
z
" transform="scale(0.015625)"/>
       <path id="DejaVuSans-58" d="M 544 1381 
L 544 3500 
L 1119 3500 
L 1119 1403 
Q 1119 906 1312 657 
Q 1506 409 1894 409 
Q 2359 409 2629 706 
Q 2900 1003 2900 1516 
L 2900 3500 
L 3475 3500 
L 3475 0 
L 2900 0 
L 2900 538 
Q 2691 219 2414 64 
Q 2138 -91 1772 -91 
Q 1169 -91 856 284 
Q 544 659 544 1381 
z
M 1991 3584 
L 1991 3584 
z
" transform="scale(0.015625)"/>
       <path id="DejaVuSans-50" d="M 3328 2828 
Q 3544 3216 3844 3400 
Q 4144 3584 4550 3584 
Q 5097 3584 5394 3201 
Q 5691 2819 5691 2113 
L 5691 0 
L 5113 0 
L 5113 2094 
Q 5113 2597 4934 2840 
Q 4756 3084 4391 3084 
Q 3944 3084 3684 2787 
Q 3425 2491 3425 1978 
L 3425 0 
L 2847 0 
L 2847 2094 
Q 2847 2600 2669 2842 
Q 2491 3084 2119 3084 
Q 1678 3084 1418 2786 
Q 1159 2488 1159 1978 
L 1159 0 
L 581 0 
L 581 3500 
L 1159 3500 
L 1159 2956 
Q 1356 3278 1631 3431 
Q 1906 3584 2284 3584 
Q 2666 3584 2933 3390 
Q 3200 3197 3328 2828 
z
" transform="scale(0.015625)"/>
       <path id="DejaVuSans-45" d="M 3116 1747 
Q 3116 2381 2855 2742 
Q 2594 3103 2138 3103 
Q 1681 3103 1420 2742 
Q 1159 2381 1159 1747 
Q 1159 1113 1420 752 
Q 1681 391 2138 391 
Q 2594 391 2855 752 
Q 3116 1113 3116 1747 
z
M 1159 2969 
Q 1341 3281 1617 3432 
Q 1894 3584 2278 3584 
Q 2916 3584 3314 3078 
Q 3713 2572 3713 1747 
Q 3713 922 3314 415 
Q 2916 -91 2278 -91 
Q 1894 -91 1617 61 
Q 1341 213 1159 525 
L 1159 0 
L 581 0 
L 581 4863 
L 1159 4863 
L 1159 2969 
z
" transform="scale(0.015625)"/>
       <path id="DejaVuSans-48" d="M 3597 1894 
L 3597 1613 
L 953 1613 
Q 991 1019 1311 708 
Q 1631 397 2203 397 
Q 2534 397 2845 478 
Q 3156 559 3463 722 
L 3463 178 
Q 3153 47 2828 -22 
Q 2503 -91 2169 -91 
Q 1331 -91 842 396 
Q 353 884 353 1716 
Q 353 2575 817 3079 
Q 1281 3584 2069 3584 
Q 2775 3584 3186 3129 
Q 3597 2675 3597 1894 
z
M 3022 2063 
Q 3016 2534 2758 2815 
Q 2500 3097 2075 3097 
Q 1594 3097 1305 2825 
Q 1016 2553 972 2059 
L 3022 2063 
z
" transform="scale(0.015625)"/>
       <path id="DejaVuSans-55" d="M 2631 2963 
Q 2534 3019 2420 3045 
Q 2306 3072 2169 3072 
Q 1681 3072 1420 2755 
Q 1159 2438 1159 1844 
L 1159 0 
L 581 0 
L 581 3500 
L 1159 3500 
L 1159 2956 
Q 1341 3275 1631 3429 
Q 1922 3584 2338 3584 
Q 2397 3584 2469 3576 
Q 2541 3569 2628 3553 
L 2631 2963 
z
" transform="scale(0.015625)"/>
       <path id="DejaVuSans-3" transform="scale(0.015625)"/>
       <path id="DejaVuSans-52" d="M 1959 3097 
Q 1497 3097 1228 2736 
Q 959 2375 959 1747 
Q 959 1119 1226 758 
Q 1494 397 1959 397 
Q 2419 397 2687 759 
Q 2956 1122 2956 1747 
Q 2956 2369 2687 2733 
Q 2419 3097 1959 3097 
z
M 1959 3584 
Q 2709 3584 3137 3096 
Q 3566 2609 3566 1747 
Q 3566 888 3137 398 
Q 2709 -91 1959 -91 
Q 1206 -91 779 398 
Q 353 888 353 1747 
Q 353 2609 779 3096 
Q 1206 3584 1959 3584 
z
" transform="scale(0.015625)"/>
       <path id="DejaVuSans-49" d="M 2375 4863 
L 2375 4384 
L 1825 4384 
Q 1516 4384 1395 4259 
Q 1275 4134 1275 3809 
L 1275 3500 
L 2222 3500 
L 2222 3053 
L 1275 3053 
L 1275 0 
L 697 0 
L 697 3053 
L 147 3053 
L 147 3500 
L 697 3500 
L 697 3744 
Q 697 4328 969 4595 
Q 1241 4863 1831 4863 
L 2375 4863 
z
" transform="scale(0.015625)"/>
       <path id="DejaVuSans-57" d="M 1172 4494 
L 1172 3500 
L 2356 3500 
L 2356 3053 
L 1172 3053 
L 1172 1153 
Q 1172 725 1289 603 
Q 1406 481 1766 481 
L 2356 481 
L 2356 0 
L 1766 0 
Q 1100 0 847 248 
Q 594 497 594 1153 
L 594 3053 
L 172 3053 
L 172 3500 
L 594 3500 
L 594 4494 
L 1172 4494 
z
" transform="scale(0.015625)"/>
       <path id="DejaVuSans-56" d="M 2834 3397 
L 2834 2853 
Q 2591 2978 2328 3040 
Q 2066 3103 1784 3103 
Q 1356 3103 1142 2972 
Q 928 2841 928 2578 
Q 928 2378 1081 2264 
Q 1234 2150 1697 2047 
L 1894 2003 
Q 2506 1872 2764 1633 
Q 3022 1394 3022 966 
Q 3022 478 2636 193 
Q 2250 -91 1575 -91 
Q 1294 -91 989 -36 
Q 684 19 347 128 
L 347 722 
Q 666 556 975 473 
Q 1284 391 1588 391 
Q 1994 391 2212 530 
Q 2431 669 2431 922 
Q 2431 1156 2273 1281 
Q 2116 1406 1581 1522 
L 1381 1569 
Q 847 1681 609 1914 
Q 372 2147 372 2553 
Q 372 3047 722 3315 
Q 1072 3584 1716 3584 
Q 2034 3584 2315 3537 
Q 2597 3491 2834 3397 
z
" transform="scale(0.015625)"/>
      </defs>
      <use xlink:href="#DejaVuSans-31"/>
      <use xlink:href="#DejaVuSans-58" transform="translate(74.8125 0)"/>
      <use xlink:href="#DejaVuSans-50" transform="translate(138.1875 0)"/>
      <use xlink:href="#DejaVuSans-45" transform="translate(235.59375 0)"/>
      <use xlink:href="#DejaVuSans-48" transform="translate(299.078125 0)"/>
      <use xlink:href="#DejaVuSans-55" transform="translate(360.609375 0)"/>
      <use xlink:href="#DejaVuSans-3" transform="translate(401.71875 0)"/>
      <use xlink:href="#DejaVuSans-52" transform="translate(433.5 0)"/>
      <use xlink:href="#DejaVuSans-49" transform="translate(494.6875 0)"/>
      <use xlink:href="#DejaVuSans-3" transform="translate(529.890625 0)"/>
      <use xlink:href="#DejaVuSans-57" transform="translate(561.671875 0)"/>
      <use xlink:href="#DejaVuSans-58" transform="translate(600.875 0)"/>
      <use xlink:href="#DejaVuSans-50" transform="translate(664.25 0)"/>
      <use xlink:href="#DejaVuSans-52" transform="translate(761.65625 0)"/>
      <use xlink:href="#DejaVuSans-58" transform="translate(822.84375 0)"/>
      <use xlink:href="#DejaVuSans-55" transform="translate(886.21875 0)"/>
      <use xlink:href="#DejaVuSans-56" transform="translate(927.328125 0)"/>
     </g>
    </g>
   </g>
   <g id="patch_9">
    <path d="M 378.523134 261.971803 
L 378.523134 35.861504 
" style="fill: none; stroke: #000000; stroke-width: 0.8; stroke-linejoin: miter; stroke-linecap: square"/>
   </g>
   <g id="patch_10">
    <path d="M 378.523134 261.971803 
L 729.795834 261.971803 
" style="fill: none; stroke: #000000; stroke-width: 0.8; stroke-linejoin: miter; stroke-linecap: square"/>
   </g>
   <g id="text_21">
    <!-- 113 -->
    <g transform="translate(414.971457 135.426592) scale(0.12 -0.12)">
     <use xlink:href="#DejaVuSans-14"/>
     <use xlink:href="#DejaVuSans-14" transform="translate(63.625 0)"/>
     <use xlink:href="#DejaVuSans-16" transform="translate(127.25 0)"/>
    </g>
   </g>
   <g id="text_22">
    <!-- 51 -->
    <g transform="translate(546.524484 201.522012) scale(0.12 -0.12)">
     <use xlink:href="#DejaVuSans-18"/>
     <use xlink:href="#DejaVuSans-14" transform="translate(63.625 0)"/>
    </g>
   </g>
   <g id="text_23">
    <!-- 202 -->
    <g transform="translate(670.442511 40.547683) scale(0.12 -0.12)">
     <use xlink:href="#DejaVuSans-15"/>
     <use xlink:href="#DejaVuSans-13" transform="translate(63.625 0)"/>
     <use xlink:href="#DejaVuSans-15" transform="translate(127.25 0)"/>
    </g>
   </g>
   <g id="text_24">
    <!-- S1: TGF-β/Wnt, dedifferentiated, worst prognosis -->
    <g style="fill: #808080" transform="translate(456.288234 283.467282) scale(0.08 -0.08)">
     <defs>
      <path id="DejaVuSans-Oblique-36" d="M 3859 4513 
L 3738 3897 
Q 3422 4066 3111 4152 
Q 2800 4238 2509 4238 
Q 1944 4238 1609 3991 
Q 1275 3744 1275 3334 
Q 1275 3109 1398 2989 
Q 1522 2869 2034 2731 
L 2413 2638 
Q 3053 2472 3303 2217 
Q 3553 1963 3553 1503 
Q 3553 797 2998 353 
Q 2444 -91 1538 -91 
Q 1166 -91 791 -17 
Q 416 56 38 206 
L 166 856 
Q 513 641 861 531 
Q 1209 422 1556 422 
Q 2147 422 2503 684 
Q 2859 947 2859 1369 
Q 2859 1650 2717 1795 
Q 2575 1941 2106 2059 
L 1728 2156 
Q 1081 2325 845 2545 
Q 609 2766 609 3163 
Q 609 3859 1145 4304 
Q 1681 4750 2541 4750 
Q 2875 4750 3203 4690 
Q 3531 4631 3859 4513 
z
" transform="scale(0.015625)"/>
      <path id="DejaVuSans-Oblique-14" d="M 416 531 
L 1447 531 
L 2144 4122 
L 978 3897 
L 1088 4441 
L 2247 4666 
L 2881 4666 
L 2075 531 
L 3103 531 
L 3003 0 
L 313 0 
L 416 531 
z
" transform="scale(0.015625)"/>
      <path id="DejaVuSans-Oblique-1d" d="M 978 3309 
L 1638 3309 
L 1484 2516 
L 825 2516 
L 978 3309 
z
M 488 794 
L 1147 794 
L 991 0 
L 331 0 
L 488 794 
z
" transform="scale(0.015625)"/>
      <path id="DejaVuSans-Oblique-3" transform="scale(0.015625)"/>
      <path id="DejaVuSans-Oblique-37" d="M 378 4666 
L 4325 4666 
L 4225 4134 
L 2559 4134 
L 1759 0 
L 1125 0 
L 1925 4134 
L 275 4134 
L 378 4666 
z
" transform="scale(0.015625)"/>
      <path id="DejaVuSans-Oblique-2a" d="M 3494 697 
L 3738 1919 
L 2700 1919 
L 2797 2438 
L 4453 2438 
L 4050 384 
Q 3634 156 3143 32 
Q 2653 -91 2156 -91 
Q 1278 -91 783 396 
Q 288 884 288 1753 
Q 288 2475 589 3126 
Q 891 3778 1422 4213 
Q 1756 4484 2153 4617 
Q 2550 4750 3034 4750 
Q 3472 4750 3873 4639 
Q 4275 4528 4641 4306 
L 4513 3634 
Q 4231 3928 3853 4083 
Q 3475 4238 3047 4238 
Q 2550 4238 2172 4048 
Q 1794 3859 1497 3463 
Q 1244 3125 1098 2667 
Q 953 2209 953 1734 
Q 953 1081 1287 751 
Q 1622 422 2284 422 
Q 2616 422 2925 492 
Q 3234 563 3494 697 
z
" transform="scale(0.015625)"/>
      <path id="DejaVuSans-Oblique-29" d="M 1081 4666 
L 3756 4666 
L 3653 4134 
L 1606 4134 
L 1338 2759 
L 3188 2759 
L 3084 2228 
L 1234 2228 
L 800 0 
L 172 0 
L 1081 4666 
z
" transform="scale(0.015625)"/>
      <path id="DejaVuSans-Oblique-10" d="M 391 2009 
L 2075 2009 
L 1978 1497 
L 288 1497 
L 391 2009 
z
" transform="scale(0.015625)"/>
      <path id="DejaVuSans-Oblique-346" d="M 872 216 
L 572 -1331 
L -6 -1331 
L 928 3478 
Q 1206 4903 2538 4903 
Q 3888 4903 3659 3700 
Q 3503 2844 2894 2531 
Q 3713 2250 3553 1416 
Q 3272 -69 1759 -66 
Q 1097 -63 872 216 
z
M 1019 966 
Q 1259 422 1875 425 
Q 2775 425 2966 1406 
Q 3138 2288 1675 2219 
L 1778 2750 
Q 2909 2731 3106 3750 
Q 3241 4438 2509 4434 
Q 1691 4434 1503 3459 
L 1019 966 
z
" transform="scale(0.015625)"/>
      <path id="DejaVuSans-Oblique-12" d="M 2175 4666 
L 2731 4666 
L 84 -594 
L -469 -594 
L 2175 4666 
z
" transform="scale(0.015625)"/>
      <path id="DejaVuSans-Oblique-3a" d="M 616 4666 
L 1228 4666 
L 1453 697 
L 3213 4666 
L 3916 4666 
L 4147 697 
L 5888 4666 
L 6528 4666 
L 4453 0 
L 3659 0 
L 3444 3891 
L 1697 0 
L 903 0 
L 616 4666 
z
" transform="scale(0.015625)"/>
      <path id="DejaVuSans-Oblique-51" d="M 3566 2113 
L 3156 0 
L 2578 0 
L 2988 2091 
Q 3016 2238 3031 2350 
Q 3047 2463 3047 2528 
Q 3047 2791 2881 2937 
Q 2716 3084 2419 3084 
Q 1956 3084 1622 2776 
Q 1288 2469 1184 1941 
L 800 0 
L 225 0 
L 903 3500 
L 1478 3500 
L 1363 2950 
Q 1603 3253 1940 3418 
Q 2278 3584 2650 3584 
Q 3113 3584 3367 3334 
Q 3622 3084 3622 2631 
Q 3622 2519 3608 2391 
Q 3594 2263 3566 2113 
z
" transform="scale(0.015625)"/>
      <path id="DejaVuSans-Oblique-57" d="M 2706 3500 
L 2619 3053 
L 1472 3053 
L 1100 1153 
Q 1081 1047 1072 975 
Q 1063 903 1063 863 
Q 1063 663 1183 572 
Q 1303 481 1569 481 
L 2150 481 
L 2053 0 
L 1503 0 
Q 991 0 739 200 
Q 488 400 488 806 
Q 488 878 497 964 
Q 506 1050 525 1153 
L 897 3053 
L 409 3053 
L 500 3500 
L 978 3500 
L 1172 4494 
L 1747 4494 
L 1556 3500 
L 2706 3500 
z
" transform="scale(0.015625)"/>
      <path id="DejaVuSans-Oblique-f" d="M 575 794 
L 1234 794 
L 1131 256 
L 422 -744 
L 19 -744 
L 469 256 
L 575 794 
z
" transform="scale(0.015625)"/>
      <path id="DejaVuSans-Oblique-47" d="M 2675 525 
Q 2444 222 2128 65 
Q 1813 -91 1428 -91 
Q 903 -91 598 267 
Q 294 625 294 1247 
Q 294 1766 478 2236 
Q 663 2706 1013 3078 
Q 1244 3325 1534 3454 
Q 1825 3584 2144 3584 
Q 2481 3584 2739 3421 
Q 2997 3259 3138 2956 
L 3513 4863 
L 4091 4863 
L 3144 0 
L 2566 0 
L 2675 525 
z
M 891 1350 
Q 891 897 1095 644 
Q 1300 391 1663 391 
Q 1931 391 2161 520 
Q 2391 650 2566 903 
Q 2750 1166 2856 1509 
Q 2963 1853 2963 2188 
Q 2963 2622 2758 2865 
Q 2553 3109 2194 3109 
Q 1922 3109 1687 2981 
Q 1453 2853 1288 2613 
Q 1106 2353 998 2009 
Q 891 1666 891 1350 
z
" transform="scale(0.015625)"/>
      <path id="DejaVuSans-Oblique-48" d="M 3078 2063 
Q 3088 2113 3092 2166 
Q 3097 2219 3097 2272 
Q 3097 2653 2873 2875 
Q 2650 3097 2266 3097 
Q 1838 3097 1509 2826 
Q 1181 2556 1013 2059 
L 3078 2063 
z
M 3578 1613 
L 903 1613 
Q 884 1494 878 1425 
Q 872 1356 872 1306 
Q 872 872 1139 634 
Q 1406 397 1894 397 
Q 2269 397 2603 481 
Q 2938 566 3225 728 
L 3116 159 
Q 2806 34 2476 -28 
Q 2147 -91 1806 -91 
Q 1078 -91 686 257 
Q 294 606 294 1247 
Q 294 1794 489 2264 
Q 684 2734 1063 3103 
Q 1306 3334 1642 3459 
Q 1978 3584 2356 3584 
Q 2950 3584 3301 3228 
Q 3653 2872 3653 2272 
Q 3653 2128 3634 1964 
Q 3616 1800 3578 1613 
z
" transform="scale(0.015625)"/>
      <path id="DejaVuSans-Oblique-4c" d="M 1172 4863 
L 1747 4863 
L 1606 4134 
L 1031 4134 
L 1172 4863 
z
M 909 3500 
L 1484 3500 
L 800 0 
L 225 0 
L 909 3500 
z
" transform="scale(0.015625)"/>
      <path id="DejaVuSans-Oblique-127b" d="M 5213 4863 
L 5119 4384 
L 4569 4384 
Q 4259 4384 4115 4259 
Q 3972 4134 3909 3809 
L 3847 3500 
L 4794 3500 
L 4709 3053 
L 3763 3053 
L 3169 0 
L 2591 0 
L 3184 3053 
L 1606 3053 
L 1013 0 
L 434 0 
L 1028 3053 
L 478 3053 
L 563 3500 
L 1113 3500 
L 1163 3744 
Q 1275 4328 1600 4594 
Q 1922 4863 2513 4863 
L 3056 4863 
L 2963 4384 
L 2413 4384 
Q 2103 4384 1959 4259 
Q 1816 4134 1753 3809 
L 1691 3500 
L 3269 3500 
L 3319 3744 
Q 3431 4328 3756 4594 
Q 4078 4863 4669 4863 
L 5213 4863 
z
" transform="scale(0.015625)"/>
      <path id="DejaVuSans-Oblique-55" d="M 2853 2969 
Q 2766 3016 2653 3041 
Q 2541 3066 2413 3066 
Q 1953 3066 1609 2717 
Q 1266 2369 1153 1784 
L 800 0 
L 225 0 
L 909 3500 
L 1484 3500 
L 1375 2956 
Q 1603 3259 1920 3421 
Q 2238 3584 2597 3584 
Q 2691 3584 2781 3573 
Q 2872 3563 2963 3538 
L 2853 2969 
z
" transform="scale(0.015625)"/>
      <path id="DejaVuSans-Oblique-44" d="M 3438 1997 
L 3047 0 
L 2472 0 
L 2578 531 
Q 2325 219 2001 64 
Q 1678 -91 1281 -91 
Q 834 -91 548 182 
Q 263 456 263 884 
Q 263 1497 752 1853 
Q 1241 2209 2100 2209 
L 2900 2209 
L 2931 2363 
Q 2938 2388 2941 2417 
Q 2944 2447 2944 2509 
Q 2944 2788 2717 2942 
Q 2491 3097 2081 3097 
Q 1800 3097 1504 3025 
Q 1209 2953 897 2809 
L 997 3341 
Q 1322 3463 1633 3523 
Q 1944 3584 2234 3584 
Q 2853 3584 3176 3315 
Q 3500 3047 3500 2534 
Q 3500 2431 3484 2292 
Q 3469 2153 3438 1997 
z
M 2816 1759 
L 2241 1759 
Q 1534 1759 1195 1570 
Q 856 1381 856 984 
Q 856 709 1029 553 
Q 1203 397 1509 397 
Q 1978 397 2328 733 
Q 2678 1069 2791 1631 
L 2816 1759 
z
" transform="scale(0.015625)"/>
      <path id="DejaVuSans-Oblique-5a" d="M 544 3500 
L 1113 3500 
L 1259 684 
L 2566 3500 
L 3231 3500 
L 3425 684 
L 4666 3500 
L 5241 3500 
L 3641 0 
L 2969 0 
L 2797 2900 
L 1459 0 
L 781 0 
L 544 3500 
z
" transform="scale(0.015625)"/>
      <path id="DejaVuSans-Oblique-52" d="M 1625 -91 
Q 1009 -91 651 289 
Q 294 669 294 1325 
Q 294 1706 417 2101 
Q 541 2497 738 2766 
Q 1047 3184 1428 3384 
Q 1809 3584 2291 3584 
Q 2888 3584 3255 3212 
Q 3622 2841 3622 2241 
Q 3622 1825 3500 1412 
Q 3378 1000 3181 728 
Q 2875 309 2494 109 
Q 2113 -91 1625 -91 
z
M 891 1344 
Q 891 869 1089 633 
Q 1288 397 1691 397 
Q 2269 397 2648 901 
Q 3028 1406 3028 2181 
Q 3028 2634 2825 2865 
Q 2622 3097 2228 3097 
Q 1903 3097 1650 2945 
Q 1397 2794 1197 2484 
Q 1050 2253 970 1956 
Q 891 1659 891 1344 
z
" transform="scale(0.015625)"/>
      <path id="DejaVuSans-Oblique-56" d="M 3200 3397 
L 3091 2853 
Q 2863 2978 2609 3040 
Q 2356 3103 2088 3103 
Q 1634 3103 1373 2948 
Q 1113 2794 1113 2528 
Q 1113 2219 1719 2053 
Q 1766 2041 1788 2034 
L 1972 1978 
Q 2547 1819 2739 1644 
Q 2931 1469 2931 1166 
Q 2931 609 2489 259 
Q 2047 -91 1331 -91 
Q 1053 -91 747 -37 
Q 441 16 72 128 
L 184 722 
Q 500 559 806 475 
Q 1113 391 1394 391 
Q 1816 391 2080 572 
Q 2344 753 2344 1031 
Q 2344 1331 1650 1516 
L 1591 1531 
L 1394 1581 
Q 956 1697 753 1886 
Q 550 2075 550 2369 
Q 550 2928 970 3256 
Q 1391 3584 2113 3584 
Q 2397 3584 2667 3537 
Q 2938 3491 3200 3397 
z
" transform="scale(0.015625)"/>
      <path id="DejaVuSans-Oblique-53" d="M 3175 2156 
Q 3175 2616 2975 2859 
Q 2775 3103 2400 3103 
Q 2144 3103 1911 2972 
Q 1678 2841 1497 2591 
Q 1319 2344 1212 1994 
Q 1106 1644 1106 1300 
Q 1106 863 1306 627 
Q 1506 391 1875 391 
Q 2147 391 2380 519 
Q 2613 647 2778 891 
Q 2956 1147 3065 1494 
Q 3175 1841 3175 2156 
z
M 1394 2969 
Q 1625 3272 1939 3428 
Q 2253 3584 2638 3584 
Q 3175 3584 3472 3232 
Q 3769 2881 3769 2247 
Q 3769 1728 3584 1258 
Q 3400 788 3053 416 
Q 2822 169 2531 39 
Q 2241 -91 1919 -91 
Q 1547 -91 1294 64 
Q 1041 219 916 525 
L 556 -1331 
L -19 -1331 
L 922 3500 
L 1497 3500 
L 1394 2969 
z
" transform="scale(0.015625)"/>
      <path id="DejaVuSans-Oblique-4a" d="M 3816 3500 
L 3219 434 
Q 3047 -456 2561 -893 
Q 2075 -1331 1253 -1331 
Q 950 -1331 690 -1286 
Q 431 -1241 206 -1147 
L 313 -588 
Q 525 -725 762 -790 
Q 1000 -856 1269 -856 
Q 1816 -856 2167 -557 
Q 2519 -259 2631 300 
L 2681 563 
Q 2441 288 2122 144 
Q 1803 0 1434 0 
Q 903 0 598 351 
Q 294 703 294 1319 
Q 294 1803 478 2267 
Q 663 2731 997 3091 
Q 1219 3328 1514 3456 
Q 1809 3584 2131 3584 
Q 2484 3584 2746 3420 
Q 3009 3256 3138 2956 
L 3238 3500 
L 3816 3500 
z
M 2950 2216 
Q 2950 2641 2750 2872 
Q 2550 3103 2181 3103 
Q 1953 3103 1747 3012 
Q 1541 2922 1394 2759 
Q 1156 2491 1023 2127 
Q 891 1763 891 1375 
Q 891 944 1092 712 
Q 1294 481 1672 481 
Q 2219 481 2584 976 
Q 2950 1472 2950 2216 
z
" transform="scale(0.015625)"/>
     </defs>
     <use xlink:href="#DejaVuSans-Oblique-36"/>
     <use xlink:href="#DejaVuSans-Oblique-14" transform="translate(63.484375 0)"/>
     <use xlink:href="#DejaVuSans-Oblique-1d" transform="translate(127.109375 0)"/>
     <use xlink:href="#DejaVuSans-Oblique-3" transform="translate(160.796875 0)"/>
     <use xlink:href="#DejaVuSans-Oblique-37" transform="translate(192.578125 0)"/>
     <use xlink:href="#DejaVuSans-Oblique-2a" transform="translate(253.65625 0)"/>
     <use xlink:href="#DejaVuSans-Oblique-29" transform="translate(331.140625 0)"/>
     <use xlink:href="#DejaVuSans-Oblique-10" transform="translate(383.1875 0)"/>
     <use xlink:href="#DejaVuSans-Oblique-346" transform="translate(419.265625 0)"/>
     <use xlink:href="#DejaVuSans-Oblique-12" transform="translate(483.078125 0)"/>
     <use xlink:href="#DejaVuSans-Oblique-3a" transform="translate(516.765625 0)"/>
     <use xlink:href="#DejaVuSans-Oblique-51" transform="translate(615.640625 0)"/>
     <use xlink:href="#DejaVuSans-Oblique-57" transform="translate(679.015625 0)"/>
     <use xlink:href="#DejaVuSans-Oblique-f" transform="translate(718.21875 0)"/>
     <use xlink:href="#DejaVuSans-Oblique-3" transform="translate(750 0)"/>
     <use xlink:href="#DejaVuSans-Oblique-47" transform="translate(781.78125 0)"/>
     <use xlink:href="#DejaVuSans-Oblique-48" transform="translate(845.265625 0)"/>
     <use xlink:href="#DejaVuSans-Oblique-47" transform="translate(906.796875 0)"/>
     <use xlink:href="#DejaVuSans-Oblique-4c" transform="translate(970.28125 0)"/>
     <use xlink:href="#DejaVuSans-Oblique-127b" transform="translate(998.0625 0)"/>
     <use xlink:href="#DejaVuSans-Oblique-48" transform="translate(1070.234375 0)"/>
     <use xlink:href="#DejaVuSans-Oblique-55" transform="translate(1131.765625 0)"/>
     <use xlink:href="#DejaVuSans-Oblique-48" transform="translate(1172.875 0)"/>
     <use xlink:href="#DejaVuSans-Oblique-51" transform="translate(1234.40625 0)"/>
     <use xlink:href="#DejaVuSans-Oblique-57" transform="translate(1297.78125 0)"/>
     <use xlink:href="#DejaVuSans-Oblique-4c" transform="translate(1336.984375 0)"/>
     <use xlink:href="#DejaVuSans-Oblique-44" transform="translate(1364.765625 0)"/>
     <use xlink:href="#DejaVuSans-Oblique-57" transform="translate(1426.046875 0)"/>
     <use xlink:href="#DejaVuSans-Oblique-48" transform="translate(1465.25 0)"/>
     <use xlink:href="#DejaVuSans-Oblique-47" transform="translate(1526.78125 0)"/>
     <use xlink:href="#DejaVuSans-Oblique-f" transform="translate(1590.265625 0)"/>
     <use xlink:href="#DejaVuSans-Oblique-3" transform="translate(1622.046875 0)"/>
     <use xlink:href="#DejaVuSans-Oblique-5a" transform="translate(1653.828125 0)"/>
     <use xlink:href="#DejaVuSans-Oblique-52" transform="translate(1735.609375 0)"/>
     <use xlink:href="#DejaVuSans-Oblique-55" transform="translate(1796.796875 0)"/>
     <use xlink:href="#DejaVuSans-Oblique-56" transform="translate(1837.90625 0)"/>
     <use xlink:href="#DejaVuSans-Oblique-57" transform="translate(1890 0)"/>
     <use xlink:href="#DejaVuSans-Oblique-3" transform="translate(1929.203125 0)"/>
     <use xlink:href="#DejaVuSans-Oblique-53" transform="translate(1960.984375 0)"/>
     <use xlink:href="#DejaVuSans-Oblique-55" transform="translate(2024.46875 0)"/>
     <use xlink:href="#DejaVuSans-Oblique-52" transform="translate(2065.578125 0)"/>
     <use xlink:href="#DejaVuSans-Oblique-4a" transform="translate(2126.765625 0)"/>
     <use xlink:href="#DejaVuSans-Oblique-51" transform="translate(2190.25 0)"/>
     <use xlink:href="#DejaVuSans-Oblique-52" transform="translate(2253.625 0)"/>
     <use xlink:href="#DejaVuSans-Oblique-56" transform="translate(2314.8125 0)"/>
     <use xlink:href="#DejaVuSans-Oblique-4c" transform="translate(2366.90625 0)"/>
     <use xlink:href="#DejaVuSans-Oblique-56" transform="translate(2394.6875 0)"/>
    </g>
    <!-- S2: MYC/AKT activated, AFP-high -->
    <g style="fill: #808080" transform="translate(488.763859 293.069469) scale(0.08 -0.08)">
     <defs>
      <path id="DejaVuSans-Oblique-15" d="M 2950 2253 
L 934 525 
L 3163 525 
L 3053 0 
L 25 0 
L 128 531 
L 2234 2338 
Q 2656 2703 2832 2979 
Q 3009 3256 3009 3547 
Q 3009 3850 2796 4040 
Q 2584 4231 2241 4231 
Q 1944 4231 1581 4125 
Q 1219 4019 806 3816 
L 922 4441 
Q 1309 4594 1662 4672 
Q 2016 4750 2316 4750 
Q 2928 4750 3301 4425 
Q 3675 4100 3675 3572 
Q 3675 3216 3497 2892 
Q 3319 2569 2950 2253 
z
" transform="scale(0.015625)"/>
      <path id="DejaVuSans-Oblique-30" d="M 1081 4666 
L 2028 4666 
L 2572 1522 
L 4378 4666 
L 5350 4666 
L 4441 0 
L 3828 0 
L 4622 4091 
L 2791 897 
L 2175 897 
L 1581 4103 
L 788 0 
L 172 0 
L 1081 4666 
z
" transform="scale(0.015625)"/>
      <path id="DejaVuSans-Oblique-3c" d="M 403 4666 
L 1081 4666 
L 1953 2747 
L 3616 4666 
L 4325 4666 
L 2209 2222 
L 1778 0 
L 1147 0 
L 1575 2222 
L 403 4666 
z
" transform="scale(0.015625)"/>
      <path id="DejaVuSans-Oblique-26" d="M 4447 4306 
L 4319 3641 
Q 4019 3944 3683 4091 
Q 3347 4238 2956 4238 
Q 2422 4238 2017 3981 
Q 1613 3725 1319 3200 
Q 1131 2863 1032 2486 
Q 934 2109 934 1728 
Q 934 1091 1264 756 
Q 1594 422 2222 422 
Q 2656 422 3056 561 
Q 3456 700 3834 978 
L 3688 231 
Q 3316 72 2936 -9 
Q 2556 -91 2175 -91 
Q 1278 -91 773 396 
Q 269 884 269 1753 
Q 269 2309 461 2846 
Q 653 3384 1013 3828 
Q 1394 4300 1883 4525 
Q 2372 4750 3022 4750 
Q 3422 4750 3780 4639 
Q 4138 4528 4447 4306 
z
" transform="scale(0.015625)"/>
      <path id="DejaVuSans-Oblique-24" d="M 2356 4666 
L 3072 4666 
L 3938 0 
L 3278 0 
L 3084 1197 
L 984 1197 
L 325 0 
L -341 0 
L 2356 4666 
z
M 2584 4044 
L 1275 1722 
L 2988 1722 
L 2584 4044 
z
" transform="scale(0.015625)"/>
      <path id="DejaVuSans-Oblique-2e" d="M 1081 4666 
L 1716 4666 
L 1331 2700 
L 3781 4666 
L 4622 4666 
L 1850 2438 
L 3878 0 
L 3109 0 
L 1247 2272 
L 806 0 
L 172 0 
L 1081 4666 
z
" transform="scale(0.015625)"/>
      <path id="DejaVuSans-Oblique-46" d="M 3431 3366 
L 3316 2797 
Q 3109 2947 2876 3022 
Q 2644 3097 2394 3097 
Q 2119 3097 1870 3000 
Q 1622 2903 1453 2725 
Q 1184 2453 1037 2087 
Q 891 1722 891 1331 
Q 891 859 1127 628 
Q 1363 397 1844 397 
Q 2081 397 2348 469 
Q 2616 541 2906 684 
L 2797 116 
Q 2547 13 2283 -39 
Q 2019 -91 1741 -91 
Q 1044 -91 669 257 
Q 294 606 294 1253 
Q 294 1797 489 2255 
Q 684 2713 1069 3078 
Q 1331 3328 1684 3456 
Q 2038 3584 2456 3584 
Q 2700 3584 2940 3529 
Q 3181 3475 3431 3366 
z
" transform="scale(0.015625)"/>
      <path id="DejaVuSans-Oblique-59" d="M 459 3500 
L 1069 3500 
L 1581 525 
L 3256 3500 
L 3866 3500 
L 1875 0 
L 1100 0 
L 459 3500 
z
" transform="scale(0.015625)"/>
      <path id="DejaVuSans-Oblique-33" d="M 1081 4666 
L 2541 4666 
Q 3178 4666 3512 4369 
Q 3847 4072 3847 3500 
Q 3847 2731 3353 2303 
Q 2859 1875 1966 1875 
L 1172 1875 
L 806 0 
L 172 0 
L 1081 4666 
z
M 1613 4147 
L 1275 2394 
L 2069 2394 
Q 2606 2394 2893 2669 
Q 3181 2944 3181 3456 
Q 3181 3784 2986 3965 
Q 2791 4147 2438 4147 
L 1613 4147 
z
" transform="scale(0.015625)"/>
      <path id="DejaVuSans-Oblique-4b" d="M 3566 2113 
L 3156 0 
L 2578 0 
L 2988 2091 
Q 3016 2238 3031 2350 
Q 3047 2463 3047 2528 
Q 3047 2791 2881 2937 
Q 2716 3084 2419 3084 
Q 1956 3084 1617 2771 
Q 1278 2459 1178 1941 
L 800 0 
L 225 0 
L 1172 4863 
L 1747 4863 
L 1375 2950 
Q 1594 3244 1934 3414 
Q 2275 3584 2650 3584 
Q 3113 3584 3367 3334 
Q 3622 3084 3622 2631 
Q 3622 2519 3608 2391 
Q 3594 2263 3566 2113 
z
" transform="scale(0.015625)"/>
     </defs>
     <use xlink:href="#DejaVuSans-Oblique-36"/>
     <use xlink:href="#DejaVuSans-Oblique-15" transform="translate(63.484375 0)"/>
     <use xlink:href="#DejaVuSans-Oblique-1d" transform="translate(127.109375 0)"/>
     <use xlink:href="#DejaVuSans-Oblique-3" transform="translate(160.796875 0)"/>
     <use xlink:href="#DejaVuSans-Oblique-30" transform="translate(192.578125 0)"/>
     <use xlink:href="#DejaVuSans-Oblique-3c" transform="translate(278.859375 0)"/>
     <use xlink:href="#DejaVuSans-Oblique-26" transform="translate(338.1875 0)"/>
     <use xlink:href="#DejaVuSans-Oblique-12" transform="translate(408.015625 0)"/>
     <use xlink:href="#DejaVuSans-Oblique-24" transform="translate(441.703125 0)"/>
     <use xlink:href="#DejaVuSans-Oblique-2e" transform="translate(510.109375 0)"/>
     <use xlink:href="#DejaVuSans-Oblique-37" transform="translate(575.6875 0)"/>
     <use xlink:href="#DejaVuSans-Oblique-3" transform="translate(636.765625 0)"/>
     <use xlink:href="#DejaVuSans-Oblique-44" transform="translate(668.546875 0)"/>
     <use xlink:href="#DejaVuSans-Oblique-46" transform="translate(729.828125 0)"/>
     <use xlink:href="#DejaVuSans-Oblique-57" transform="translate(784.8125 0)"/>
     <use xlink:href="#DejaVuSans-Oblique-4c" transform="translate(824.015625 0)"/>
     <use xlink:href="#DejaVuSans-Oblique-59" transform="translate(851.796875 0)"/>
     <use xlink:href="#DejaVuSans-Oblique-44" transform="translate(910.984375 0)"/>
     <use xlink:href="#DejaVuSans-Oblique-57" transform="translate(972.265625 0)"/>
     <use xlink:href="#DejaVuSans-Oblique-48" transform="translate(1011.46875 0)"/>
     <use xlink:href="#DejaVuSans-Oblique-47" transform="translate(1073 0)"/>
     <use xlink:href="#DejaVuSans-Oblique-f" transform="translate(1136.484375 0)"/>
     <use xlink:href="#DejaVuSans-Oblique-3" transform="translate(1168.265625 0)"/>
     <use xlink:href="#DejaVuSans-Oblique-24" transform="translate(1200.046875 0)"/>
     <use xlink:href="#DejaVuSans-Oblique-29" transform="translate(1268.453125 0)"/>
     <use xlink:href="#DejaVuSans-Oblique-33" transform="translate(1325.96875 0)"/>
     <use xlink:href="#DejaVuSans-Oblique-10" transform="translate(1380.796875 0)"/>
     <use xlink:href="#DejaVuSans-Oblique-4b" transform="translate(1416.875 0)"/>
     <use xlink:href="#DejaVuSans-Oblique-4c" transform="translate(1480.25 0)"/>
     <use xlink:href="#DejaVuSans-Oblique-4a" transform="translate(1508.03125 0)"/>
     <use xlink:href="#DejaVuSans-Oblique-4b" transform="translate(1571.515625 0)"/>
    </g>
    <!-- S3: Hepatocyte-like, best prognosis -->
    <g style="fill: #808080" transform="translate(483.043234 302.671657) scale(0.08 -0.08)">
     <defs>
      <path id="DejaVuSans-Oblique-16" d="M 1013 4550 
Q 1356 4650 1679 4700 
Q 2003 4750 2316 4750 
Q 2934 4750 3296 4475 
Q 3659 4200 3659 3738 
Q 3659 3284 3373 2959 
Q 3088 2634 2584 2516 
Q 2978 2403 3162 2165 
Q 3347 1928 3347 1538 
Q 3347 1163 3167 834 
Q 2988 506 2650 269 
Q 2394 88 2037 -1 
Q 1681 -91 1216 -91 
Q 922 -91 622 -33 
Q 322 25 13 141 
L 128 738 
Q 422 575 720 495 
Q 1019 416 1331 416 
Q 1947 416 2330 733 
Q 2713 1050 2713 1556 
Q 2713 1881 2469 2057 
Q 2225 2234 1772 2234 
L 1228 2234 
L 1325 2747 
L 1900 2747 
Q 2419 2747 2717 2984 
Q 3016 3222 3016 3628 
Q 3016 3922 2797 4083 
Q 2578 4244 2181 4244 
Q 1881 4244 1567 4180 
Q 1253 4116 916 3988 
L 1013 4550 
z
" transform="scale(0.015625)"/>
      <path id="DejaVuSans-Oblique-2b" d="M 1081 4666 
L 1716 4666 
L 1344 2753 
L 3634 2753 
L 4006 4666 
L 4641 4666 
L 3731 0 
L 3097 0 
L 3531 2222 
L 1241 2222 
L 806 0 
L 172 0 
L 1081 4666 
z
" transform="scale(0.015625)"/>
      <path id="DejaVuSans-Oblique-5c" d="M 1588 -325 
Q 1188 -997 936 -1164 
Q 684 -1331 294 -1331 
L -159 -1331 
L -63 -850 
L 269 -850 
Q 509 -850 678 -719 
Q 847 -588 1056 -206 
L 1234 128 
L 459 3500 
L 1069 3500 
L 1650 819 
L 3256 3500 
L 3859 3500 
L 1588 -325 
z
" transform="scale(0.015625)"/>
      <path id="DejaVuSans-Oblique-4f" d="M 1172 4863 
L 1747 4863 
L 800 0 
L 225 0 
L 1172 4863 
z
" transform="scale(0.015625)"/>
      <path id="DejaVuSans-Oblique-4e" d="M 1172 4863 
L 1747 4863 
L 1197 2028 
L 3169 3500 
L 3916 3500 
L 1716 1825 
L 3322 0 
L 2625 0 
L 1131 1709 
L 800 0 
L 225 0 
L 1172 4863 
z
" transform="scale(0.015625)"/>
      <path id="DejaVuSans-Oblique-45" d="M 3169 2138 
Q 3169 2591 2961 2847 
Q 2753 3103 2388 3103 
Q 2122 3103 1889 2973 
Q 1656 2844 1484 2597 
Q 1303 2338 1198 1995 
Q 1094 1653 1094 1313 
Q 1094 881 1298 636 
Q 1503 391 1863 391 
Q 2134 391 2365 517 
Q 2597 644 2772 891 
Q 2950 1147 3059 1487 
Q 3169 1828 3169 2138 
z
M 1381 2969 
Q 1594 3256 1914 3420 
Q 2234 3584 2584 3584 
Q 3122 3584 3439 3221 
Q 3756 2859 3756 2241 
Q 3756 1734 3570 1259 
Q 3384 784 3041 416 
Q 2816 172 2522 40 
Q 2228 -91 1906 -91 
Q 1566 -91 1316 65 
Q 1066 222 909 531 
L 806 0 
L 231 0 
L 1178 4863 
L 1753 4863 
L 1381 2969 
z
" transform="scale(0.015625)"/>
     </defs>
     <use xlink:href="#DejaVuSans-Oblique-36"/>
     <use xlink:href="#DejaVuSans-Oblique-16" transform="translate(63.484375 0)"/>
     <use xlink:href="#DejaVuSans-Oblique-1d" transform="translate(127.109375 0)"/>
     <use xlink:href="#DejaVuSans-Oblique-3" transform="translate(160.796875 0)"/>
     <use xlink:href="#DejaVuSans-Oblique-2b" transform="translate(192.578125 0)"/>
     <use xlink:href="#DejaVuSans-Oblique-48" transform="translate(267.78125 0)"/>
     <use xlink:href="#DejaVuSans-Oblique-53" transform="translate(329.3125 0)"/>
     <use xlink:href="#DejaVuSans-Oblique-44" transform="translate(392.796875 0)"/>
     <use xlink:href="#DejaVuSans-Oblique-57" transform="translate(454.078125 0)"/>
     <use xlink:href="#DejaVuSans-Oblique-52" transform="translate(493.28125 0)"/>
     <use xlink:href="#DejaVuSans-Oblique-46" transform="translate(554.46875 0)"/>
     <use xlink:href="#DejaVuSans-Oblique-5c" transform="translate(609.453125 0)"/>
     <use xlink:href="#DejaVuSans-Oblique-57" transform="translate(668.640625 0)"/>
     <use xlink:href="#DejaVuSans-Oblique-48" transform="translate(707.84375 0)"/>
     <use xlink:href="#DejaVuSans-Oblique-10" transform="translate(769.375 0)"/>
     <use xlink:href="#DejaVuSans-Oblique-4f" transform="translate(805.453125 0)"/>
     <use xlink:href="#DejaVuSans-Oblique-4c" transform="translate(833.234375 0)"/>
     <use xlink:href="#DejaVuSans-Oblique-4e" transform="translate(861.015625 0)"/>
     <use xlink:href="#DejaVuSans-Oblique-48" transform="translate(918.921875 0)"/>
     <use xlink:href="#DejaVuSans-Oblique-f" transform="translate(980.453125 0)"/>
     <use xlink:href="#DejaVuSans-Oblique-3" transform="translate(1012.234375 0)"/>
     <use xlink:href="#DejaVuSans-Oblique-45" transform="translate(1044.015625 0)"/>
     <use xlink:href="#DejaVuSans-Oblique-48" transform="translate(1107.5 0)"/>
     <use xlink:href="#DejaVuSans-Oblique-56" transform="translate(1169.03125 0)"/>
     <use xlink:href="#DejaVuSans-Oblique-57" transform="translate(1221.125 0)"/>
     <use xlink:href="#DejaVuSans-Oblique-3" transform="translate(1260.328125 0)"/>
     <use xlink:href="#DejaVuSans-Oblique-53" transform="translate(1292.109375 0)"/>
     <use xlink:href="#DejaVuSans-Oblique-55" transform="translate(1355.59375 0)"/>
     <use xlink:href="#DejaVuSans-Oblique-52" transform="translate(1396.703125 0)"/>
     <use xlink:href="#DejaVuSans-Oblique-4a" transform="translate(1457.890625 0)"/>
     <use xlink:href="#DejaVuSans-Oblique-51" transform="translate(1521.375 0)"/>
     <use xlink:href="#DejaVuSans-Oblique-52" transform="translate(1584.75 0)"/>
     <use xlink:href="#DejaVuSans-Oblique-56" transform="translate(1645.9375 0)"/>
     <use xlink:href="#DejaVuSans-Oblique-4c" transform="translate(1698.03125 0)"/>
     <use xlink:href="#DejaVuSans-Oblique-56" transform="translate(1725.8125 0)"/>
    </g>
   </g>
   <g id="text_25">
    <!-- B   Sample Count per Subtype -->
    <g transform="translate(461.17425 29.861504) scale(0.11 -0.11)">
     <defs>
      <path id="DejaVuSans-Bold-25" d="M 2456 2859 
Q 2741 2859 2887 2984 
Q 3034 3109 3034 3353 
Q 3034 3594 2887 3720 
Q 2741 3847 2456 3847 
L 1791 3847 
L 1791 2859 
L 2456 2859 
z
M 2497 819 
Q 2859 819 3042 972 
Q 3225 1125 3225 1434 
Q 3225 1738 3044 1889 
Q 2863 2041 2497 2041 
L 1791 2041 
L 1791 819 
L 2497 819 
z
M 3616 2497 
Q 4003 2384 4215 2081 
Q 4428 1778 4428 1338 
Q 4428 663 3972 331 
Q 3516 0 2584 0 
L 588 0 
L 588 4666 
L 2394 4666 
Q 3366 4666 3802 4372 
Q 4238 4078 4238 3431 
Q 4238 3091 4078 2852 
Q 3919 2613 3616 2497 
z
" transform="scale(0.015625)"/>
      <path id="DejaVuSans-Bold-50" d="M 3781 2919 
Q 3994 3244 4286 3414 
Q 4578 3584 4928 3584 
Q 5531 3584 5847 3212 
Q 6163 2841 6163 2131 
L 6163 0 
L 5038 0 
L 5038 1825 
Q 5041 1866 5042 1909 
Q 5044 1953 5044 2034 
Q 5044 2406 4934 2573 
Q 4825 2741 4581 2741 
Q 4263 2741 4089 2478 
Q 3916 2216 3909 1719 
L 3909 0 
L 2784 0 
L 2784 1825 
Q 2784 2406 2684 2573 
Q 2584 2741 2328 2741 
Q 2006 2741 1831 2477 
Q 1656 2213 1656 1722 
L 1656 0 
L 531 0 
L 531 3500 
L 1656 3500 
L 1656 2988 
Q 1863 3284 2130 3434 
Q 2397 3584 2719 3584 
Q 3081 3584 3359 3409 
Q 3638 3234 3781 2919 
z
" transform="scale(0.015625)"/>
      <path id="DejaVuSans-Bold-4f" d="M 538 4863 
L 1656 4863 
L 1656 0 
L 538 0 
L 538 4863 
z
" transform="scale(0.015625)"/>
     </defs>
     <use xlink:href="#DejaVuSans-Bold-25"/>
     <use xlink:href="#DejaVuSans-Bold-3" transform="translate(76.21875 0)"/>
     <use xlink:href="#DejaVuSans-Bold-3" transform="translate(111.03125 0)"/>
     <use xlink:href="#DejaVuSans-Bold-3" transform="translate(145.84375 0)"/>
     <use xlink:href="#DejaVuSans-Bold-36" transform="translate(180.65625 0)"/>
     <use xlink:href="#DejaVuSans-Bold-44" transform="translate(252.671875 0)"/>
     <use xlink:href="#DejaVuSans-Bold-50" transform="translate(320.15625 0)"/>
     <use xlink:href="#DejaVuSans-Bold-53" transform="translate(424.359375 0)"/>
     <use xlink:href="#DejaVuSans-Bold-4f" transform="translate(495.9375 0)"/>
     <use xlink:href="#DejaVuSans-Bold-48" transform="translate(530.21875 0)"/>
     <use xlink:href="#DejaVuSans-Bold-3" transform="translate(598.046875 0)"/>
     <use xlink:href="#DejaVuSans-Bold-26" transform="translate(632.859375 0)"/>
     <use xlink:href="#DejaVuSans-Bold-52" transform="translate(706.25 0)"/>
     <use xlink:href="#DejaVuSans-Bold-58" transform="translate(774.953125 0)"/>
     <use xlink:href="#DejaVuSans-Bold-51" transform="translate(846.140625 0)"/>
     <use xlink:href="#DejaVuSans-Bold-57" transform="translate(917.328125 0)"/>
     <use xlink:href="#DejaVuSans-Bold-3" transform="translate(965.125 0)"/>
     <use xlink:href="#DejaVuSans-Bold-53" transform="translate(999.9375 0)"/>
     <use xlink:href="#DejaVuSans-Bold-48" transform="translate(1071.515625 0)"/>
     <use xlink:href="#DejaVuSans-Bold-55" transform="translate(1139.34375 0)"/>
     <use xlink:href="#DejaVuSans-Bold-3" transform="translate(1188.65625 0)"/>
     <use xlink:href="#DejaVuSans-Bold-36" transform="translate(1223.46875 0)"/>
     <use xlink:href="#DejaVuSans-Bold-58" transform="translate(1295.484375 0)"/>
     <use xlink:href="#DejaVuSans-Bold-45" transform="translate(1366.671875 0)"/>
     <use xlink:href="#DejaVuSans-Bold-57" transform="translate(1438.25 0)"/>
     <use xlink:href="#DejaVuSans-Bold-5c" transform="translate(1486.046875 0)"/>
     <use xlink:href="#DejaVuSans-Bold-53" transform="translate(1551.234375 0)"/>
     <use xlink:href="#DejaVuSans-Bold-48" transform="translate(1622.8125 0)"/>
    </g>
   </g>
  </g>
 </g>
 <defs>
  <clipPath id="pade923d667">
   <rect x="378.523134" y="35.861504" width="351.2727" height="226.110299"/>
  </clipPath>
 </defs>
</svg>
