<?xml version="1.0" encoding="utf-8" standalone="no"?>
<!DOCTYPE svg PUBLIC "-//W3C//DTD SVG 1.1//EN"
  "http://www.w3.org/Graphics/SVG/1.1/DTD/svg11.dtd">
<svg xmlns:xlink="http://www.w3.org/1999/xlink" width="496.709062pt" height="351.837875pt" viewBox="0 0 496.709062 351.837875" xmlns="http://www.w3.org/2000/svg" version="1.1">
 <metadata>
  <rdf:RDF xmlns:dc="http://purl.org/dc/elements/1.1/" xmlns:cc="http://creativecommons.org/ns#" xmlns:rdf="http://www.w3.org/1999/02/22-rdf-syntax-ns#">
   <cc:Work>
    <dc:type rdf:resource="http://purl.org/dc/dcmitype/StillImage"/>
    <dc:date>2026-04-04T09:45:47.350965</dc:date>
    <dc:format>image/svg+xml</dc:format>
    <dc:creator>
     <cc:Agent>
      <dc:title>Matplotlib v3.10.8, https://matplotlib.org/</dc:title>
     </cc:Agent>
    </dc:creator>
   </cc:Work>
  </rdf:RDF>
 </metadata>
 <defs>
  <style type="text/css">*{stroke-linejoin: round; stroke-linecap: butt}</style>
 </defs>
 <g id="figure_1">
  <g id="patch_1">
   <path d="M 0 351.837875 
L 496.709062 351.837875 
L 496.709062 0 
L 0 0 
z
" style="fill: #ffffff"/>
  </g>
  <g id="axes_1">
   <g id="patch_2">
    <path d="M 44.749063 313.313813 
L 489.509063 313.313813 
L 489.509063 33.961813 
L 44.749063 33.961813 
z
" style="fill: #ffffff"/>
   </g>
   <g id="FillBetweenPolyCollection_1">
    <defs>
     <path id="mdeb0fc91a1" d="M 64.965426 -304.573586 
L 64.965426 -304.573586 
L 65.376312 -304.573586 
L 65.376312 -304.573586 
L 65.37652 -304.573586 
L 65.37652 -304.573586 
L 65.90519 -304.573586 
L 65.90519 -304.573586 
L 66.004226 -304.573586 
L 66.004226 -304.573586 
L 66.331694 -304.573586 
L 66.331694 -304.573586 
L 66.586806 -304.573586 
L 66.586806 -304.573586 
L 66.762453 -304.573586 
L 66.762453 -304.573586 
L 66.814763 -304.573586 
L 66.814763 -304.573586 
L 67.303489 -304.573586 
L 67.303489 -304.573586 
L 67.362897 -304.573586 
L 67.362897 -304.573586 
L 67.680832 -304.573586 
L 67.680832 -304.573586 
L 68.059021 -304.573586 
L 68.059021 -304.573586 
L 68.243523 -304.573586 
L 68.243523 -304.573586 
L 68.48699 -304.573586 
L 68.48699 -304.573586 
L 68.557441 -304.573586 
L 68.557441 -304.573586 
L 68.708588 -304.573586 
L 68.708588 -304.573586 
L 68.744637 -304.573586 
L 68.744637 -304.573586 
L 69.014172 -304.573586 
L 69.014172 -304.573586 
L 69.465325 -304.573586 
L 69.465325 -304.573586 
L 69.642976 -304.573586 
L 69.642976 -304.573586 
L 69.718356 -304.573586 
L 69.718356 -304.573586 
L 70.79801 -304.573586 
L 70.79801 -304.573586 
L 71.507552 -304.573586 
L 71.507552 -304.573586 
L 71.923308 -304.573586 
L 71.923308 -304.573586 
L 72.284024 -304.573586 
L 72.284024 -304.573586 
L 72.339927 -304.573586 
L 72.339927 -304.573586 
L 72.972385 -304.573586 
L 72.972385 -304.573586 
L 73.151568 -304.573586 
L 73.151568 -304.573586 
L 73.712437 -304.573586 
L 73.712437 -304.573586 
L 73.940489 -304.573586 
L 73.940489 -304.573586 
L 74.726132 -304.573586 
L 74.726132 -304.573586 
L 75.018473 -304.573586 
L 75.018473 -304.573586 
L 75.49677 -304.573586 
L 75.49677 -304.573586 
L 75.968558 -304.573586 
L 75.968558 -304.573586 
L 76.019954 -304.573586 
L 76.019954 -304.573586 
L 76.039818 -304.573586 
L 76.039818 -304.573586 
L 76.148268 -304.573586 
L 76.148268 -304.573586 
L 76.773157 -304.573586 
L 76.773157 -304.573586 
L 77.838807 -304.573586 
L 77.838807 -304.573586 
L 77.971777 -304.573586 
L 77.971777 -304.573586 
L 77.999909 -304.573586 
L 77.999909 -304.573586 
L 78.134585 -304.573586 
L 78.134585 -304.573586 
L 78.241963 -304.573586 
L 78.241963 -304.573586 
L 80.39809 -304.573586 
L 80.39809 -304.573586 
L 80.498778 -304.573586 
L 80.498778 -304.573586 
L 81.09396 -304.573586 
L 81.09396 -304.573586 
L 81.717562 -304.573586 
L 81.717562 -304.573586 
L 82.016784 -304.573586 
L 82.016784 -304.573586 
L 82.112357 -304.573586 
L 82.112357 -304.573586 
L 82.233073 -304.573586 
L 82.233073 -304.573586 
L 82.534892 -304.573586 
L 82.534892 -304.573586 
L 82.807882 -304.573586 
L 82.807882 -304.573586 
L 84.081745 -304.573586 
L 84.081745 -304.573586 
L 84.141099 -304.573586 
L 84.141099 -304.573586 
L 84.193846 -304.573586 
L 84.193846 -304.573586 
L 84.459408 -304.573586 
L 84.459408 -304.573586 
L 84.482798 -304.573586 
L 84.482798 -304.573586 
L 85.235089 -304.573586 
L 85.235089 -304.573586 
L 86.388413 -304.573586 
L 86.388413 -304.573586 
L 86.530098 -304.573586 
L 86.530098 -304.573586 
L 86.895853 -304.573586 
L 86.895853 -304.573586 
L 88.089229 -304.573586 
L 88.089229 -304.573586 
L 89.273301 -304.573586 
L 89.273301 -304.573586 
L 89.383094 -304.573586 
L 89.383094 -304.573586 
L 90.073039 -304.573586 
L 90.073039 -304.573586 
L 90.455648 -304.573586 
L 90.455648 -304.573586 
L 90.906709 -304.573586 
L 90.906709 -304.573586 
L 91.755236 -304.573586 
L 91.755236 -304.573586 
L 93.69053 -304.573586 
L 93.69053 -304.573586 
L 94.226852 -304.573586 
L 94.226852 -304.573586 
L 94.423363 -304.573586 
L 94.423363 -304.573586 
L 95.483068 -304.573586 
L 95.483068 -304.573586 
L 96.382341 -304.573586 
L 96.382341 -304.573586 
L 96.837535 -304.573586 
L 96.837535 -304.573586 
L 99.463959 -304.573586 
L 99.463959 -304.573586 
L 100.906692 -304.573586 
L 100.906692 -304.573586 
L 101.182236 -304.573586 
L 101.182236 -304.573586 
L 101.292655 -304.573586 
L 101.292655 -304.573586 
L 101.449874 -304.573586 
L 101.449874 -304.573586 
L 102.015606 -304.573586 
L 102.015606 -304.573586 
L 103.895856 -304.573586 
L 103.895856 -304.573586 
L 104.216789 -304.573586 
L 104.216789 -304.573586 
L 104.270997 -304.573586 
L 104.270997 -304.573586 
L 104.789065 -304.573586 
L 104.789065 -304.573586 
L 105.835732 -304.573586 
L 105.835732 -304.573586 
L 108.2161 -304.573586 
L 108.2161 -304.573586 
L 108.917121 -304.573586 
L 108.917121 -304.573586 
L 110.825392 -304.573586 
L 110.825392 -304.573586 
L 111.920265 -304.573586 
L 111.920265 -304.573586 
L 113.155712 -304.573586 
L 113.155712 -304.573586 
L 113.597246 -304.573586 
L 113.597246 -304.573586 
L 114.631861 -304.573586 
L 114.631861 -304.573586 
L 116.059113 -304.573586 
L 116.059113 -304.573586 
L 116.34982 -304.573586 
L 116.34982 -304.573586 
L 116.927877 -304.573586 
L 116.927877 -304.573586 
L 117.067431 -304.573586 
L 117.067431 -304.573586 
L 118.168933 -304.573586 
L 118.168933 -304.573586 
L 122.240171 -304.573586 
L 122.240171 -304.573586 
L 122.934089 -304.573586 
L 122.934089 -304.573586 
L 125.354774 -304.573586 
L 125.354774 -304.573586 
L 125.923999 -304.573586 
L 125.923999 -304.573586 
L 127.05953 -304.573586 
L 127.05953 -304.573586 
L 127.57628 -304.573586 
L 127.57628 -304.573586 
L 128.008142 -304.573586 
L 128.008142 -304.573586 
L 128.479271 -304.573586 
L 128.479271 -304.573586 
L 128.743258 -304.573586 
L 128.743258 -304.573586 
L 129.654209 -304.573586 
L 129.654209 -304.573586 
L 131.477383 -304.573586 
L 131.477383 -304.573586 
L 132.874784 -304.573586 
L 132.874784 -304.573586 
L 135.044449 -304.573586 
L 135.044449 -304.573586 
L 137.72971 -304.573586 
L 137.72971 -304.573586 
L 139.864436 -304.573586 
L 139.864436 -304.573586 
L 141.154214 -304.573586 
L 141.154214 -304.573586 
L 144.801482 -304.573586 
L 144.801482 -304.573586 
L 145.916843 -304.573586 
L 145.916843 -304.573586 
L 147.489072 -304.573586 
L 147.489072 -304.573586 
L 147.525088 -304.573586 
L 147.525088 -304.573586 
L 149.373352 -304.573586 
L 149.373352 -304.573586 
L 156.991166 -304.573586 
L 156.991166 -304.573586 
L 159.148203 -304.573586 
L 159.148203 -304.573586 
L 170.431311 -304.573586 
L 170.431311 -304.573586 
L 175.021718 -304.573586 
L 175.021718 -304.573586 
L 178.565789 -304.573586 
L 178.565789 -304.573586 
L 179.939236 -304.573586 
L 179.939236 -304.573586 
L 185.888137 -304.573586 
L 185.888137 -304.573586 
L 204.413965 -304.573586 
L 204.413965 -304.573586 
L 213.623167 -304.573586 
L 213.623167 -304.573586 
L 244.516498 -304.573586 
L 244.516498 -304.573586 
L 251.005771 -304.573586 
L 251.005771 -304.573586 
L 251.005771 -304.573586 
L 251.005771 -304.573586 
L 251.005771 -304.573586 
L 244.516498 -304.573586 
L 244.516498 -304.573586 
L 213.623167 -304.573586 
L 213.623167 -304.573586 
L 204.413965 -304.573586 
L 204.413965 -304.573586 
L 185.888137 -304.573586 
L 185.888137 -304.573586 
L 179.939236 -304.573586 
L 179.939236 -304.573586 
L 178.565789 -304.573586 
L 178.565789 -304.573586 
L 175.021718 -304.573586 
L 175.021718 -304.573586 
L 170.431311 -304.573586 
L 170.431311 -304.573586 
L 159.148203 -304.573586 
L 159.148203 -304.573586 
L 156.991166 -304.573586 
L 156.991166 -304.573586 
L 149.373352 -304.573586 
L 149.373352 -304.573586 
L 147.525088 -304.573586 
L 147.525088 -304.573586 
L 147.489072 -304.573586 
L 147.489072 -304.573586 
L 145.916843 -304.573586 
L 145.916843 -304.573586 
L 144.801482 -304.573586 
L 144.801482 -304.573586 
L 141.154214 -304.573586 
L 141.154214 -304.573586 
L 139.864436 -304.573586 
L 139.864436 -304.573586 
L 137.72971 -304.573586 
L 137.72971 -304.573586 
L 135.044449 -304.573586 
L 135.044449 -304.573586 
L 132.874784 -304.573586 
L 132.874784 -304.573586 
L 131.477383 -304.573586 
L 131.477383 -304.573586 
L 129.654209 -304.573586 
L 129.654209 -304.573586 
L 128.743258 -304.573586 
L 128.743258 -304.573586 
L 128.479271 -304.573586 
L 128.479271 -304.573586 
L 128.008142 -304.573586 
L 128.008142 -304.573586 
L 127.57628 -304.573586 
L 127.57628 -304.573586 
L 127.05953 -304.573586 
L 127.05953 -304.573586 
L 125.923999 -304.573586 
L 125.923999 -304.573586 
L 125.354774 -304.573586 
L 125.354774 -304.573586 
L 122.934089 -304.573586 
L 122.934089 -304.573586 
L 122.240171 -304.573586 
L 122.240171 -304.573586 
L 118.168933 -304.573586 
L 118.168933 -304.573586 
L 117.067431 -304.573586 
L 117.067431 -304.573586 
L 116.927877 -304.573586 
L 116.927877 -304.573586 
L 116.34982 -304.573586 
L 116.34982 -304.573586 
L 116.059113 -304.573586 
L 116.059113 -304.573586 
L 114.631861 -304.573586 
L 114.631861 -304.573586 
L 113.597246 -304.573586 
L 113.597246 -304.573586 
L 113.155712 -304.573586 
L 113.155712 -304.573586 
L 111.920265 -304.573586 
L 111.920265 -304.573586 
L 110.825392 -304.573586 
L 110.825392 -304.573586 
L 108.917121 -304.573586 
L 108.917121 -304.573586 
L 108.2161 -304.573586 
L 108.2161 -304.573586 
L 105.835732 -304.573586 
L 105.835732 -304.573586 
L 104.789065 -304.573586 
L 104.789065 -304.573586 
L 104.270997 -304.573586 
L 104.270997 -304.573586 
L 104.216789 -304.573586 
L 104.216789 -304.573586 
L 103.895856 -304.573586 
L 103.895856 -304.573586 
L 102.015606 -304.573586 
L 102.015606 -304.573586 
L 101.449874 -304.573586 
L 101.449874 -304.573586 
L 101.292655 -304.573586 
L 101.292655 -304.573586 
L 101.182236 -304.573586 
L 101.182236 -304.573586 
L 100.906692 -304.573586 
L 100.906692 -304.573586 
L 99.463959 -304.573586 
L 99.463959 -304.573586 
L 96.837535 -304.573586 
L 96.837535 -304.573586 
L 96.382341 -304.573586 
L 96.382341 -304.573586 
L 95.483068 -304.573586 
L 95.483068 -304.573586 
L 94.423363 -304.573586 
L 94.423363 -304.573586 
L 94.226852 -304.573586 
L 94.226852 -304.573586 
L 93.69053 -304.573586 
L 93.69053 -304.573586 
L 91.755236 -304.573586 
L 91.755236 -304.573586 
L 90.906709 -304.573586 
L 90.906709 -304.573586 
L 90.455648 -304.573586 
L 90.455648 -304.573586 
L 90.073039 -304.573586 
L 90.073039 -304.573586 
L 89.383094 -304.573586 
L 89.383094 -304.573586 
L 89.273301 -304.573586 
L 89.273301 -304.573586 
L 88.089229 -304.573586 
L 88.089229 -304.573586 
L 86.895853 -304.573586 
L 86.895853 -304.573586 
L 86.530098 -304.573586 
L 86.530098 -304.573586 
L 86.388413 -304.573586 
L 86.388413 -304.573586 
L 85.235089 -304.573586 
L 85.235089 -304.573586 
L 84.482798 -304.573586 
L 84.482798 -304.573586 
L 84.459408 -304.573586 
L 84.459408 -304.573586 
L 84.193846 -304.573586 
L 84.193846 -304.573586 
L 84.141099 -304.573586 
L 84.141099 -304.573586 
L 84.081745 -304.573586 
L 84.081745 -304.573586 
L 82.807882 -304.573586 
L 82.807882 -304.573586 
L 82.534892 -304.573586 
L 82.534892 -304.573586 
L 82.233073 -304.573586 
L 82.233073 -304.573586 
L 82.112357 -304.573586 
L 82.112357 -304.573586 
L 82.016784 -304.573586 
L 82.016784 -304.573586 
L 81.717562 -304.573586 
L 81.717562 -304.573586 
L 81.09396 -304.573586 
L 81.09396 -304.573586 
L 80.498778 -304.573586 
L 80.498778 -304.573586 
L 80.39809 -304.573586 
L 80.39809 -304.573586 
L 78.241963 -304.573586 
L 78.241963 -304.573586 
L 78.134585 -304.573586 
L 78.134585 -304.573586 
L 77.999909 -304.573586 
L 77.999909 -304.573586 
L 77.971777 -304.573586 
L 77.971777 -304.573586 
L 77.838807 -304.573586 
L 77.838807 -304.573586 
L 76.773157 -304.573586 
L 76.773157 -304.573586 
L 76.148268 -304.573586 
L 76.148268 -304.573586 
L 76.039818 -304.573586 
L 76.039818 -304.573586 
L 76.019954 -304.573586 
L 76.019954 -304.573586 
L 75.968558 -304.573586 
L 75.968558 -304.573586 
L 75.49677 -304.573586 
L 75.49677 -304.573586 
L 75.018473 -304.573586 
L 75.018473 -304.573586 
L 74.726132 -304.573586 
L 74.726132 -304.573586 
L 73.940489 -304.573586 
L 73.940489 -304.573586 
L 73.712437 -304.573586 
L 73.712437 -304.573586 
L 73.151568 -304.573586 
L 73.151568 -304.573586 
L 72.972385 -304.573586 
L 72.972385 -304.573586 
L 72.339927 -304.573586 
L 72.339927 -304.573586 
L 72.284024 -304.573586 
L 72.284024 -304.573586 
L 71.923308 -304.573586 
L 71.923308 -304.573586 
L 71.507552 -304.573586 
L 71.507552 -304.573586 
L 70.79801 -304.573586 
L 70.79801 -304.573586 
L 69.718356 -304.573586 
L 69.718356 -304.573586 
L 69.642976 -304.573586 
L 69.642976 -304.573586 
L 69.465325 -304.573586 
L 69.465325 -304.573586 
L 69.014172 -304.573586 
L 69.014172 -304.573586 
L 68.744637 -304.573586 
L 68.744637 -304.573586 
L 68.708588 -304.573586 
L 68.708588 -304.573586 
L 68.557441 -304.573586 
L 68.557441 -304.573586 
L 68.48699 -304.573586 
L 68.48699 -304.573586 
L 68.243523 -304.573586 
L 68.243523 -304.573586 
L 68.059021 -304.573586 
L 68.059021 -304.573586 
L 67.680832 -304.573586 
L 67.680832 -304.573586 
L 67.362897 -304.573586 
L 67.362897 -304.573586 
L 67.303489 -304.573586 
L 67.303489 -304.573586 
L 66.814763 -304.573586 
L 66.814763 -304.573586 
L 66.762453 -304.573586 
L 66.762453 -304.573586 
L 66.586806 -304.573586 
L 66.586806 -304.573586 
L 66.331694 -304.573586 
L 66.331694 -304.573586 
L 66.004226 -304.573586 
L 66.004226 -304.573586 
L 65.90519 -304.573586 
L 65.90519 -304.573586 
L 65.37652 -304.573586 
L 65.37652 -304.573586 
L 65.376312 -304.573586 
L 65.376312 -304.573586 
L 64.965426 -304.573586 
z
" style="stroke: #c0392b; stroke-opacity: 0.12"/>
    </defs>
    <g clip-path="url(#p33f75aeb48)">
     <use xlink:href="#mdeb0fc91a1" x="0" y="351.837875" style="fill: #c0392b; fill-opacity: 0.12; stroke: #c0392b; stroke-opacity: 0.12"/>
    </g>
   </g>
   <g id="FillBetweenPolyCollection_2">
    <defs>
     <path id="macdfca723a" d="M 64.965426 -304.573586 
L 64.965426 -304.573586 
L 65.60707 -304.573586 
L 65.60707 -304.573586 
L 65.833225 -304.573586 
L 65.833225 -304.573586 
L 66.478611 -304.573586 
L 66.478611 -304.573586 
L 67.073518 -304.573586 
L 67.073518 -304.573586 
L 67.393328 -304.573586 
L 67.393328 -304.573586 
L 68.047474 -304.573586 
L 68.047474 -304.573586 
L 68.719065 -304.573586 
L 68.719065 -304.573586 
L 68.77611 -304.573586 
L 68.77611 -304.573586 
L 69.075674 -304.573586 
L 69.075674 -304.573586 
L 69.24015 -304.573586 
L 69.24015 -304.573586 
L 70.209601 -304.573586 
L 70.209601 -304.573586 
L 71.827906 -304.573586 
L 71.827906 -304.573586 
L 72.532893 -304.573586 
L 72.532893 -304.573586 
L 74.580265 -304.573586 
L 74.580265 -304.573586 
L 77.52726 -304.573586 
L 77.52726 -304.573586 
L 78.078263 -304.573586 
L 78.078263 -304.573586 
L 79.149412 -304.573586 
L 79.149412 -304.573586 
L 79.764364 -304.573586 
L 79.764364 -304.573586 
L 80.729858 -304.573586 
L 80.729858 -304.573586 
L 82.452102 -304.573586 
L 82.452102 -304.573586 
L 82.724162 -304.573586 
L 82.724162 -304.573586 
L 83.303161 -304.573586 
L 83.303161 -304.573586 
L 84.675481 -304.573586 
L 84.675481 -304.573586 
L 85.540764 -304.573586 
L 85.540764 -304.573586 
L 85.934146 -304.573586 
L 85.934146 -304.573586 
L 86.290754 -304.573586 
L 86.290754 -304.573586 
L 86.575422 -304.573586 
L 86.575422 -304.573586 
L 86.68171 -304.573586 
L 86.68171 -304.573586 
L 87.191082 -304.573586 
L 87.191082 -304.573586 
L 88.277054 -304.573586 
L 88.277054 -304.573586 
L 88.283907 -304.573586 
L 88.283907 -304.573586 
L 90.006968 -304.573586 
L 90.006968 -304.573586 
L 90.481303 -304.573586 
L 90.481303 -304.573586 
L 91.097149 -304.573586 
L 91.097149 -304.573586 
L 91.716564 -304.573586 
L 91.716564 -304.573586 
L 92.045268 -304.573586 
L 92.045268 -304.573586 
L 92.246397 -304.573586 
L 92.246397 -304.573586 
L 92.386446 -304.573586 
L 92.386446 -304.573586 
L 92.775698 -304.573586 
L 92.775698 -304.573586 
L 93.259374 -304.573586 
L 93.259374 -304.573586 
L 95.765401 -304.573586 
L 95.765401 -304.573586 
L 96.312692 -304.573586 
L 96.312692 -304.573586 
L 96.379248 -304.573586 
L 96.379248 -304.573586 
L 96.571169 -304.573586 
L 96.571169 -304.573586 
L 96.715233 -304.573586 
L 96.715233 -304.573586 
L 97.475338 -304.573586 
L 97.475338 -304.573586 
L 98.692253 -304.573586 
L 98.692253 -304.573586 
L 98.915324 -304.573586 
L 98.915324 -304.573586 
L 99.275451 -304.573586 
L 99.275451 -304.573586 
L 101.617908 -304.573586 
L 101.617908 -304.573586 
L 102.234914 -304.573586 
L 102.234914 -304.573586 
L 104.823899 -304.573586 
L 104.823899 -304.573586 
L 105.414056 -304.573586 
L 105.414056 -304.573586 
L 106.141053 -304.573586 
L 106.141053 -304.573586 
L 107.082038 -304.573586 
L 107.082038 -304.573586 
L 107.409388 -304.573586 
L 107.409388 -304.573586 
L 107.472923 -304.573586 
L 107.472923 -304.573586 
L 108.406667 -304.573586 
L 108.406667 -304.573586 
L 110.243621 -304.573586 
L 110.243621 -304.573586 
L 114.504777 -304.573586 
L 114.504777 -304.573586 
L 114.54047 -304.573586 
L 114.54047 -304.573586 
L 115.157247 -304.573586 
L 115.157247 -304.573586 
L 116.199229 -304.573586 
L 116.199229 -304.573586 
L 118.216713 -304.573586 
L 118.216713 -304.573586 
L 120.640215 -304.573586 
L 120.640215 -304.573586 
L 121.474751 -304.573586 
L 121.474751 -304.573586 
L 123.496156 -304.573586 
L 123.496156 -304.573586 
L 125.015205 -304.573586 
L 125.015205 -304.573586 
L 126.101978 -304.573586 
L 126.101978 -304.573586 
L 126.440494 -304.573586 
L 126.440494 -304.573586 
L 129.342277 -304.573586 
L 129.342277 -304.573586 
L 129.645686 -304.573586 
L 129.645686 -304.573586 
L 131.586334 -304.573586 
L 131.586334 -304.573586 
L 131.957186 -304.573586 
L 131.957186 -304.573586 
L 134.911338 -304.573586 
L 134.911338 -304.573586 
L 136.122104 -304.573586 
L 136.122104 -304.573586 
L 141.284069 -304.573586 
L 141.284069 -304.573586 
L 143.317042 -304.573586 
L 143.317042 -304.573586 
L 145.749806 -304.573586 
L 145.749806 -304.573586 
L 146.798851 -304.573586 
L 146.798851 -304.573586 
L 147.002875 -304.573586 
L 147.002875 -304.573586 
L 148.225746 -304.573586 
L 148.225746 -304.573586 
L 148.527792 -304.573586 
L 148.527792 -304.573586 
L 151.338906 -304.573586 
L 151.338906 -304.573586 
L 151.625139 -304.573586 
L 151.625139 -304.573586 
L 152.847626 -304.573586 
L 152.847626 -304.573586 
L 155.520791 -304.573586 
L 155.520791 -304.573586 
L 155.679423 -304.573586 
L 155.679423 -304.573586 
L 162.871526 -304.573586 
L 162.871526 -304.573586 
L 163.298079 -304.573586 
L 163.298079 -304.573586 
L 169.016786 -304.573586 
L 169.016786 -304.573586 
L 173.351588 -304.573586 
L 173.351588 -304.573586 
L 174.811638 -304.573586 
L 174.811638 -304.573586 
L 175.266129 -304.573586 
L 175.266129 -304.573586 
L 177.09926 -304.573586 
L 177.09926 -304.573586 
L 178.900287 -304.573586 
L 178.900287 -304.573586 
L 185.757856 -304.573586 
L 185.757856 -304.573586 
L 186.131731 -304.573586 
L 186.131731 -304.573586 
L 200.4444 -304.573586 
L 200.4444 -304.573586 
L 203.533358 -304.573586 
L 203.533358 -304.573586 
L 204.641654 -304.573586 
L 204.641654 -304.573586 
L 211.139523 -304.573586 
L 211.139523 -304.573586 
L 214.070063 -304.573586 
L 214.070063 -304.573586 
L 231.144374 -304.573586 
L 231.144374 -304.573586 
L 234.346064 -304.573586 
L 234.346064 -304.573586 
L 253.175239 -304.573586 
L 253.175239 -304.573586 
L 254.848012 -304.573586 
L 254.848012 -304.573586 
L 262.072322 -304.573586 
L 262.072322 -304.573586 
L 270.936561 -304.573586 
L 270.936561 -304.573586 
L 291.180772 -304.573586 
L 291.180772 -304.573586 
L 307.73725 -304.573586 
L 307.73725 -304.573586 
L 307.73725 -304.573586 
L 307.73725 -304.573586 
L 307.73725 -304.573586 
L 291.180772 -304.573586 
L 291.180772 -304.573586 
L 270.936561 -304.573586 
L 270.936561 -304.573586 
L 262.072322 -304.573586 
L 262.072322 -304.573586 
L 254.848012 -304.573586 
L 254.848012 -304.573586 
L 253.175239 -304.573586 
L 253.175239 -304.573586 
L 234.346064 -304.573586 
L 234.346064 -304.573586 
L 231.144374 -304.573586 
L 231.144374 -304.573586 
L 214.070063 -304.573586 
L 214.070063 -304.573586 
L 211.139523 -304.573586 
L 211.139523 -304.573586 
L 204.641654 -304.573586 
L 204.641654 -304.573586 
L 203.533358 -304.573586 
L 203.533358 -304.573586 
L 200.4444 -304.573586 
L 200.4444 -304.573586 
L 186.131731 -304.573586 
L 186.131731 -304.573586 
L 185.757856 -304.573586 
L 185.757856 -304.573586 
L 178.900287 -304.573586 
L 178.900287 -304.573586 
L 177.09926 -304.573586 
L 177.09926 -304.573586 
L 175.266129 -304.573586 
L 175.266129 -304.573586 
L 174.811638 -304.573586 
L 174.811638 -304.573586 
L 173.351588 -304.573586 
L 173.351588 -304.573586 
L 169.016786 -304.573586 
L 169.016786 -304.573586 
L 163.298079 -304.573586 
L 163.298079 -304.573586 
L 162.871526 -304.573586 
L 162.871526 -304.573586 
L 155.679423 -304.573586 
L 155.679423 -304.573586 
L 155.520791 -304.573586 
L 155.520791 -304.573586 
L 152.847626 -304.573586 
L 152.847626 -304.573586 
L 151.625139 -304.573586 
L 151.625139 -304.573586 
L 151.338906 -304.573586 
L 151.338906 -304.573586 
L 148.527792 -304.573586 
L 148.527792 -304.573586 
L 148.225746 -304.573586 
L 148.225746 -304.573586 
L 147.002875 -304.573586 
L 147.002875 -304.573586 
L 146.798851 -304.573586 
L 146.798851 -304.573586 
L 145.749806 -304.573586 
L 145.749806 -304.573586 
L 143.317042 -304.573586 
L 143.317042 -304.573586 
L 141.284069 -304.573586 
L 141.284069 -304.573586 
L 136.122104 -304.573586 
L 136.122104 -304.573586 
L 134.911338 -304.573586 
L 134.911338 -304.573586 
L 131.957186 -304.573586 
L 131.957186 -304.573586 
L 131.586334 -304.573586 
L 131.586334 -304.573586 
L 129.645686 -304.573586 
L 129.645686 -304.573586 
L 129.342277 -304.573586 
L 129.342277 -304.573586 
L 126.440494 -304.573586 
L 126.440494 -304.573586 
L 126.101978 -304.573586 
L 126.101978 -304.573586 
L 125.015205 -304.573586 
L 125.015205 -304.573586 
L 123.496156 -304.573586 
L 123.496156 -304.573586 
L 121.474751 -304.573586 
L 121.474751 -304.573586 
L 120.640215 -304.573586 
L 120.640215 -304.573586 
L 118.216713 -304.573586 
L 118.216713 -304.573586 
L 116.199229 -304.573586 
L 116.199229 -304.573586 
L 115.157247 -304.573586 
L 115.157247 -304.573586 
L 114.54047 -304.573586 
L 114.54047 -304.573586 
L 114.504777 -304.573586 
L 114.504777 -304.573586 
L 110.243621 -304.573586 
L 110.243621 -304.573586 
L 108.406667 -304.573586 
L 108.406667 -304.573586 
L 107.472923 -304.573586 
L 107.472923 -304.573586 
L 107.409388 -304.573586 
L 107.409388 -304.573586 
L 107.082038 -304.573586 
L 107.082038 -304.573586 
L 106.141053 -304.573586 
L 106.141053 -304.573586 
L 105.414056 -304.573586 
L 105.414056 -304.573586 
L 104.823899 -304.573586 
L 104.823899 -304.573586 
L 102.234914 -304.573586 
L 102.234914 -304.573586 
L 101.617908 -304.573586 
L 101.617908 -304.573586 
L 99.275451 -304.573586 
L 99.275451 -304.573586 
L 98.915324 -304.573586 
L 98.915324 -304.573586 
L 98.692253 -304.573586 
L 98.692253 -304.573586 
L 97.475338 -304.573586 
L 97.475338 -304.573586 
L 96.715233 -304.573586 
L 96.715233 -304.573586 
L 96.571169 -304.573586 
L 96.571169 -304.573586 
L 96.379248 -304.573586 
L 96.379248 -304.573586 
L 96.312692 -304.573586 
L 96.312692 -304.573586 
L 95.765401 -304.573586 
L 95.765401 -304.573586 
L 93.259374 -304.573586 
L 93.259374 -304.573586 
L 92.775698 -304.573586 
L 92.775698 -304.573586 
L 92.386446 -304.573586 
L 92.386446 -304.573586 
L 92.246397 -304.573586 
L 92.246397 -304.573586 
L 92.045268 -304.573586 
L 92.045268 -304.573586 
L 91.716564 -304.573586 
L 91.716564 -304.573586 
L 91.097149 -304.573586 
L 91.097149 -304.573586 
L 90.481303 -304.573586 
L 90.481303 -304.573586 
L 90.006968 -304.573586 
L 90.006968 -304.573586 
L 88.283907 -304.573586 
L 88.283907 -304.573586 
L 88.277054 -304.573586 
L 88.277054 -304.573586 
L 87.191082 -304.573586 
L 87.191082 -304.573586 
L 86.68171 -304.573586 
L 86.68171 -304.573586 
L 86.575422 -304.573586 
L 86.575422 -304.573586 
L 86.290754 -304.573586 
L 86.290754 -304.573586 
L 85.934146 -304.573586 
L 85.934146 -304.573586 
L 85.540764 -304.573586 
L 85.540764 -304.573586 
L 84.675481 -304.573586 
L 84.675481 -304.573586 
L 83.303161 -304.573586 
L 83.303161 -304.573586 
L 82.724162 -304.573586 
L 82.724162 -304.573586 
L 82.452102 -304.573586 
L 82.452102 -304.573586 
L 80.729858 -304.573586 
L 80.729858 -304.573586 
L 79.764364 -304.573586 
L 79.764364 -304.573586 
L 79.149412 -304.573586 
L 79.149412 -304.573586 
L 78.078263 -304.573586 
L 78.078263 -304.573586 
L 77.52726 -304.573586 
L 77.52726 -304.573586 
L 74.580265 -304.573586 
L 74.580265 -304.573586 
L 72.532893 -304.573586 
L 72.532893 -304.573586 
L 71.827906 -304.573586 
L 71.827906 -304.573586 
L 70.209601 -304.573586 
L 70.209601 -304.573586 
L 69.24015 -304.573586 
L 69.24015 -304.573586 
L 69.075674 -304.573586 
L 69.075674 -304.573586 
L 68.77611 -304.573586 
L 68.77611 -304.573586 
L 68.719065 -304.573586 
L 68.719065 -304.573586 
L 68.047474 -304.573586 
L 68.047474 -304.573586 
L 67.393328 -304.573586 
L 67.393328 -304.573586 
L 67.073518 -304.573586 
L 67.073518 -304.573586 
L 66.478611 -304.573586 
L 66.478611 -304.573586 
L 65.833225 -304.573586 
L 65.833225 -304.573586 
L 65.60707 -304.573586 
L 65.60707 -304.573586 
L 64.965426 -304.573586 
z
" style="stroke: #e67e22; stroke-opacity: 0.12"/>
    </defs>
    <g clip-path="url(#p33f75aeb48)">
     <use xlink:href="#macdfca723a" x="0" y="351.837875" style="fill: #e67e22; fill-opacity: 0.12; stroke: #e67e22; stroke-opacity: 0.12"/>
    </g>
   </g>
   <g id="FillBetweenPolyCollection_3">
    <defs>
     <path id="m89ae8ebe3a" d="M 64.965426 -304.573586 
L 64.965426 -304.573586 
L 64.988732 -304.573586 
L 64.988732 -304.573586 
L 65.609954 -304.573586 
L 65.609954 -304.573586 
L 65.944854 -304.573586 
L 65.944854 -304.573586 
L 66.175569 -304.573586 
L 66.175569 -304.573586 
L 66.81702 -304.573586 
L 66.81702 -304.573586 
L 67.850303 -304.573586 
L 67.850303 -304.573586 
L 68.237723 -304.573586 
L 68.237723 -304.573586 
L 68.506781 -304.573586 
L 68.506781 -304.573586 
L 69.137202 -304.573586 
L 69.137202 -304.573586 
L 69.685469 -304.573586 
L 69.685469 -304.573586 
L 70.871542 -304.573586 
L 70.871542 -304.573586 
L 72.141469 -304.573586 
L 72.141469 -304.573586 
L 72.244938 -304.573586 
L 72.244938 -304.573586 
L 73.516823 -304.573586 
L 73.516823 -304.573586 
L 73.840671 -304.573586 
L 73.840671 -304.573586 
L 73.974333 -304.573586 
L 73.974333 -304.573586 
L 74.038233 -304.573586 
L 74.038233 -304.573586 
L 75.052146 -304.573586 
L 75.052146 -304.573586 
L 75.260891 -304.573586 
L 75.260891 -304.573586 
L 75.739408 -304.573586 
L 75.739408 -304.573586 
L 75.924359 -304.573586 
L 75.924359 -304.573586 
L 76.388878 -304.573586 
L 76.388878 -304.573586 
L 76.643645 -304.573586 
L 76.643645 -304.573586 
L 78.067475 -304.573586 
L 78.067475 -304.573586 
L 78.364144 -304.573586 
L 78.364144 -304.573586 
L 79.367928 -304.573586 
L 79.367928 -304.573586 
L 79.796862 -304.573586 
L 79.796862 -304.573586 
L 79.86354 -304.573586 
L 79.86354 -304.573586 
L 80.034002 -304.573586 
L 80.034002 -304.573586 
L 80.328188 -304.573586 
L 80.328188 -304.573586 
L 80.774161 -304.573586 
L 80.774161 -304.573586 
L 81.462107 -304.573586 
L 81.462107 -304.573586 
L 82.377298 -304.573586 
L 82.377298 -304.573586 
L 82.711161 -304.573586 
L 82.711161 -304.573586 
L 83.295559 -304.573586 
L 83.295559 -304.573586 
L 84.426943 -304.573586 
L 84.426943 -304.573586 
L 84.536563 -304.573586 
L 84.536563 -304.573586 
L 85.037706 -304.573586 
L 85.037706 -304.573586 
L 85.796012 -304.573586 
L 85.796012 -304.573586 
L 85.856068 -304.573586 
L 85.856068 -304.573586 
L 85.897546 -304.573586 
L 85.897546 -304.573586 
L 87.876067 -304.573586 
L 87.876067 -304.573586 
L 88.048187 -304.573586 
L 88.048187 -304.573586 
L 88.812093 -304.573586 
L 88.812093 -304.573586 
L 90.281135 -304.573586 
L 90.281135 -304.573586 
L 90.793775 -304.573586 
L 90.793775 -304.573586 
L 91.150702 -304.573586 
L 91.150702 -304.573586 
L 91.903713 -304.573586 
L 91.903713 -304.573586 
L 92.296599 -304.573586 
L 92.296599 -304.573586 
L 93.204803 -304.573586 
L 93.204803 -304.573586 
L 93.487074 -304.573586 
L 93.487074 -304.573586 
L 98.120212 -304.573586 
L 98.120212 -304.573586 
L 98.692737 -304.573586 
L 98.692737 -304.573586 
L 100.612452 -304.573586 
L 100.612452 -304.573586 
L 101.323727 -304.573586 
L 101.323727 -304.573586 
L 103.737348 -304.573586 
L 103.737348 -304.573586 
L 107.410546 -304.573586 
L 107.410546 -304.573586 
L 108.820201 -304.573586 
L 108.820201 -304.573586 
L 111.03505 -304.573586 
L 111.03505 -304.573586 
L 112.325787 -304.573586 
L 112.325787 -304.573586 
L 119.515645 -304.573586 
L 119.515645 -304.573586 
L 122.435778 -304.573586 
L 122.435778 -304.573586 
L 124.510702 -304.573586 
L 124.510702 -304.573586 
L 126.659311 -304.573586 
L 126.659311 -304.573586 
L 127.158647 -304.573586 
L 127.158647 -304.573586 
L 128.352685 -304.573586 
L 128.352685 -304.573586 
L 130.527169 -304.573586 
L 130.527169 -304.573586 
L 132.408398 -304.573586 
L 132.408398 -304.573586 
L 132.973879 -304.573586 
L 132.973879 -304.573586 
L 133.793163 -304.573586 
L 133.793163 -304.573586 
L 134.679817 -304.573586 
L 134.679817 -304.573586 
L 136.333785 -304.573586 
L 136.333785 -304.573586 
L 137.151078 -304.573586 
L 137.151078 -304.573586 
L 138.195875 -304.573586 
L 138.195875 -304.573586 
L 139.499252 -304.573586 
L 139.499252 -304.573586 
L 141.524169 -304.573586 
L 141.524169 -304.573586 
L 142.648105 -304.573586 
L 142.648105 -304.573586 
L 142.892532 -304.573586 
L 142.892532 -304.573586 
L 147.289014 -304.573586 
L 147.289014 -304.573586 
L 147.483645 -304.573586 
L 147.483645 -304.573586 
L 149.380321 -304.573586 
L 149.380321 -304.573586 
L 153.090924 -304.573586 
L 153.090924 -304.573586 
L 153.638987 -304.573586 
L 153.638987 -304.573586 
L 153.875726 -304.573586 
L 153.875726 -304.573586 
L 159.718075 -304.573586 
L 159.718075 -304.573586 
L 159.969206 -304.573586 
L 159.969206 -304.573586 
L 164.14448 -304.573586 
L 164.14448 -304.573586 
L 165.125521 -304.573586 
L 165.125521 -304.573586 
L 171.862978 -304.573586 
L 171.862978 -304.573586 
L 172.508809 -304.573586 
L 172.508809 -304.573586 
L 174.097257 -304.573586 
L 174.097257 -304.573586 
L 176.550007 -304.573586 
L 176.550007 -304.573586 
L 177.457602 -304.573586 
L 177.457602 -304.573586 
L 179.049415 -304.573586 
L 179.049415 -304.573586 
L 181.540482 -304.573586 
L 181.540482 -304.573586 
L 182.727384 -304.573586 
L 182.727384 -304.573586 
L 186.25209 -304.573586 
L 186.25209 -304.573586 
L 187.949643 -304.573586 
L 187.949643 -304.573586 
L 189.42303 -304.573586 
L 189.42303 -304.573586 
L 192.97035 -304.573586 
L 192.97035 -304.573586 
L 194.360071 -304.573586 
L 194.360071 -304.573586 
L 198.421878 -304.573586 
L 198.421878 -304.573586 
L 201.577776 -304.573586 
L 201.577776 -304.573586 
L 206.717254 -304.573586 
L 206.717254 -304.573586 
L 207.134267 -304.573586 
L 207.134267 -304.573586 
L 210.920964 -304.573586 
L 210.920964 -304.573586 
L 212.768995 -304.573586 
L 212.768995 -304.573586 
L 213.813437 -304.573586 
L 213.813437 -304.573586 
L 215.87683 -304.573586 
L 215.87683 -304.573586 
L 215.952966 -304.573586 
L 215.952966 -304.573586 
L 224.61002 -304.573586 
L 224.61002 -304.573586 
L 232.241198 -304.573586 
L 232.241198 -304.573586 
L 236.607849 -304.573586 
L 236.607849 -304.573586 
L 236.690112 -304.573586 
L 236.690112 -304.573586 
L 255.248663 -304.573586 
L 255.248663 -304.573586 
L 269.041182 -304.573586 
L 269.041182 -304.573586 
L 272.038972 -304.573586 
L 272.038972 -304.573586 
L 273.069016 -304.573586 
L 273.069016 -304.573586 
L 276.945734 -304.573586 
L 276.945734 -304.573586 
L 302.242208 -304.573586 
L 302.242208 -304.573586 
L 311.734929 -304.573586 
L 311.734929 -304.573586 
L 322.971204 -304.573586 
L 322.971204 -304.573586 
L 333.279128 -304.573586 
L 333.279128 -304.573586 
L 348.216078 -304.573586 
L 348.216078 -304.573586 
L 360.394301 -304.573586 
L 360.394301 -304.573586 
L 361.127484 -304.573586 
L 361.127484 -304.573586 
L 394.910843 -304.573586 
L 394.910843 -304.573586 
L 424.219093 -304.573586 
L 424.219093 -304.573586 
L 434.790694 -304.573586 
L 434.790694 -304.573586 
L 438.109669 -304.573586 
L 438.109669 -304.573586 
L 469.292699 -304.573586 
L 469.292699 -304.573586 
L 469.292699 -304.573586 
L 469.292699 -304.573586 
L 469.292699 -304.573586 
L 438.109669 -304.573586 
L 438.109669 -304.573586 
L 434.790694 -304.573586 
L 434.790694 -304.573586 
L 424.219093 -304.573586 
L 424.219093 -304.573586 
L 394.910843 -304.573586 
L 394.910843 -304.573586 
L 361.127484 -304.573586 
L 361.127484 -304.573586 
L 360.394301 -304.573586 
L 360.394301 -304.573586 
L 348.216078 -304.573586 
L 348.216078 -304.573586 
L 333.279128 -304.573586 
L 333.279128 -304.573586 
L 322.971204 -304.573586 
L 322.971204 -304.573586 
L 311.734929 -304.573586 
L 311.734929 -304.573586 
L 302.242208 -304.573586 
L 302.242208 -304.573586 
L 276.945734 -304.573586 
L 276.945734 -304.573586 
L 273.069016 -304.573586 
L 273.069016 -304.573586 
L 272.038972 -304.573586 
L 272.038972 -304.573586 
L 269.041182 -304.573586 
L 269.041182 -304.573586 
L 255.248663 -304.573586 
L 255.248663 -304.573586 
L 236.690112 -304.573586 
L 236.690112 -304.573586 
L 236.607849 -304.573586 
L 236.607849 -304.573586 
L 232.241198 -304.573586 
L 232.241198 -304.573586 
L 224.61002 -304.573586 
L 224.61002 -304.573586 
L 215.952966 -304.573586 
L 215.952966 -304.573586 
L 215.87683 -304.573586 
L 215.87683 -304.573586 
L 213.813437 -304.573586 
L 213.813437 -304.573586 
L 212.768995 -304.573586 
L 212.768995 -304.573586 
L 210.920964 -304.573586 
L 210.920964 -304.573586 
L 207.134267 -304.573586 
L 207.134267 -304.573586 
L 206.717254 -304.573586 
L 206.717254 -304.573586 
L 201.577776 -304.573586 
L 201.577776 -304.573586 
L 198.421878 -304.573586 
L 198.421878 -304.573586 
L 194.360071 -304.573586 
L 194.360071 -304.573586 
L 192.97035 -304.573586 
L 192.97035 -304.573586 
L 189.42303 -304.573586 
L 189.42303 -304.573586 
L 187.949643 -304.573586 
L 187.949643 -304.573586 
L 186.25209 -304.573586 
L 186.25209 -304.573586 
L 182.727384 -304.573586 
L 182.727384 -304.573586 
L 181.540482 -304.573586 
L 181.540482 -304.573586 
L 179.049415 -304.573586 
L 179.049415 -304.573586 
L 177.457602 -304.573586 
L 177.457602 -304.573586 
L 176.550007 -304.573586 
L 176.550007 -304.573586 
L 174.097257 -304.573586 
L 174.097257 -304.573586 
L 172.508809 -304.573586 
L 172.508809 -304.573586 
L 171.862978 -304.573586 
L 171.862978 -304.573586 
L 165.125521 -304.573586 
L 165.125521 -304.573586 
L 164.14448 -304.573586 
L 164.14448 -304.573586 
L 159.969206 -304.573586 
L 159.969206 -304.573586 
L 159.718075 -304.573586 
L 159.718075 -304.573586 
L 153.875726 -304.573586 
L 153.875726 -304.573586 
L 153.638987 -304.573586 
L 153.638987 -304.573586 
L 153.090924 -304.573586 
L 153.090924 -304.573586 
L 149.380321 -304.573586 
L 149.380321 -304.573586 
L 147.483645 -304.573586 
L 147.483645 -304.573586 
L 147.289014 -304.573586 
L 147.289014 -304.573586 
L 142.892532 -304.573586 
L 142.892532 -304.573586 
L 142.648105 -304.573586 
L 142.648105 -304.573586 
L 141.524169 -304.573586 
L 141.524169 -304.573586 
L 139.499252 -304.573586 
L 139.499252 -304.573586 
L 138.195875 -304.573586 
L 138.195875 -304.573586 
L 137.151078 -304.573586 
L 137.151078 -304.573586 
L 136.333785 -304.573586 
L 136.333785 -304.573586 
L 134.679817 -304.573586 
L 134.679817 -304.573586 
L 133.793163 -304.573586 
L 133.793163 -304.573586 
L 132.973879 -304.573586 
L 132.973879 -304.573586 
L 132.408398 -304.573586 
L 132.408398 -304.573586 
L 130.527169 -304.573586 
L 130.527169 -304.573586 
L 128.352685 -304.573586 
L 128.352685 -304.573586 
L 127.158647 -304.573586 
L 127.158647 -304.573586 
L 126.659311 -304.573586 
L 126.659311 -304.573586 
L 124.510702 -304.573586 
L 124.510702 -304.573586 
L 122.435778 -304.573586 
L 122.435778 -304.573586 
L 119.515645 -304.573586 
L 119.515645 -304.573586 
L 112.325787 -304.573586 
L 112.325787 -304.573586 
L 111.03505 -304.573586 
L 111.03505 -304.573586 
L 108.820201 -304.573586 
L 108.820201 -304.573586 
L 107.410546 -304.573586 
L 107.410546 -304.573586 
L 103.737348 -304.573586 
L 103.737348 -304.573586 
L 101.323727 -304.573586 
L 101.323727 -304.573586 
L 100.612452 -304.573586 
L 100.612452 -304.573586 
L 98.692737 -304.573586 
L 98.692737 -304.573586 
L 98.120212 -304.573586 
L 98.120212 -304.573586 
L 93.487074 -304.573586 
L 93.487074 -304.573586 
L 93.204803 -304.573586 
L 93.204803 -304.573586 
L 92.296599 -304.573586 
L 92.296599 -304.573586 
L 91.903713 -304.573586 
L 91.903713 -304.573586 
L 91.150702 -304.573586 
L 91.150702 -304.573586 
L 90.793775 -304.573586 
L 90.793775 -304.573586 
L 90.281135 -304.573586 
L 90.281135 -304.573586 
L 88.812093 -304.573586 
L 88.812093 -304.573586 
L 88.048187 -304.573586 
L 88.048187 -304.573586 
L 87.876067 -304.573586 
L 87.876067 -304.573586 
L 85.897546 -304.573586 
L 85.897546 -304.573586 
L 85.856068 -304.573586 
L 85.856068 -304.573586 
L 85.796012 -304.573586 
L 85.796012 -304.573586 
L 85.037706 -304.573586 
L 85.037706 -304.573586 
L 84.536563 -304.573586 
L 84.536563 -304.573586 
L 84.426943 -304.573586 
L 84.426943 -304.573586 
L 83.295559 -304.573586 
L 83.295559 -304.573586 
L 82.711161 -304.573586 
L 82.711161 -304.573586 
L 82.377298 -304.573586 
L 82.377298 -304.573586 
L 81.462107 -304.573586 
L 81.462107 -304.573586 
L 80.774161 -304.573586 
L 80.774161 -304.573586 
L 80.328188 -304.573586 
L 80.328188 -304.573586 
L 80.034002 -304.573586 
L 80.034002 -304.573586 
L 79.86354 -304.573586 
L 79.86354 -304.573586 
L 79.796862 -304.573586 
L 79.796862 -304.573586 
L 79.367928 -304.573586 
L 79.367928 -304.573586 
L 78.364144 -304.573586 
L 78.364144 -304.573586 
L 78.067475 -304.573586 
L 78.067475 -304.573586 
L 76.643645 -304.573586 
L 76.643645 -304.573586 
L 76.388878 -304.573586 
L 76.388878 -304.573586 
L 75.924359 -304.573586 
L 75.924359 -304.573586 
L 75.739408 -304.573586 
L 75.739408 -304.573586 
L 75.260891 -304.573586 
L 75.260891 -304.573586 
L 75.052146 -304.573586 
L 75.052146 -304.573586 
L 74.038233 -304.573586 
L 74.038233 -304.573586 
L 73.974333 -304.573586 
L 73.974333 -304.573586 
L 73.840671 -304.573586 
L 73.840671 -304.573586 
L 73.516823 -304.573586 
L 73.516823 -304.573586 
L 72.244938 -304.573586 
L 72.244938 -304.573586 
L 72.141469 -304.573586 
L 72.141469 -304.573586 
L 70.871542 -304.573586 
L 70.871542 -304.573586 
L 69.685469 -304.573586 
L 69.685469 -304.573586 
L 69.137202 -304.573586 
L 69.137202 -304.573586 
L 68.506781 -304.573586 
L 68.506781 -304.573586 
L 68.237723 -304.573586 
L 68.237723 -304.573586 
L 67.850303 -304.573586 
L 67.850303 -304.573586 
L 66.81702 -304.573586 
L 66.81702 -304.573586 
L 66.175569 -304.573586 
L 66.175569 -304.573586 
L 65.944854 -304.573586 
L 65.944854 -304.573586 
L 65.609954 -304.573586 
L 65.609954 -304.573586 
L 64.988732 -304.573586 
L 64.988732 -304.573586 
L 64.965426 -304.573586 
z
" style="stroke: #27ae60; stroke-opacity: 0.12"/>
    </defs>
    <g clip-path="url(#p33f75aeb48)">
     <use xlink:href="#m89ae8ebe3a" x="0" y="351.837875" style="fill: #27ae60; fill-opacity: 0.12; stroke: #27ae60; stroke-opacity: 0.12"/>
    </g>
   </g>
   <g id="matplotlib.axis_1">
    <g id="xtick_1">
     <g id="line2d_1">
      <defs>
       <path id="mcea16e239a" d="M 0 0 
L 0 3.5 
" style="stroke: #000000; stroke-width: 0.8"/>
      </defs>
      <g>
       <use xlink:href="#mcea16e239a" x="64.965426" y="313.313813" style="stroke: #000000; stroke-width: 0.8"/>
      </g>
     </g>
     <g id="text_1">
      <!-- 0 -->
      <g transform="translate(61.784176 327.91225) scale(0.1 -0.1)">
       <defs>
        <path id="DejaVuSans-30" d="M 2034 4250 
Q 1547 4250 1301 3770 
Q 1056 3291 1056 2328 
Q 1056 1369 1301 889 
Q 1547 409 2034 409 
Q 2525 409 2770 889 
Q 3016 1369 3016 2328 
Q 3016 3291 2770 3770 
Q 2525 4250 2034 4250 
z
M 2034 4750 
Q 2819 4750 3233 4129 
Q 3647 3509 3647 2328 
Q 3647 1150 3233 529 
Q 2819 -91 2034 -91 
Q 1250 -91 836 529 
Q 422 1150 422 2328 
Q 422 3509 836 4129 
Q 1250 4750 2034 4750 
z
" transform="scale(0.015625)"/>
       </defs>
       <use xlink:href="#DejaVuSans-30"/>
      </g>
     </g>
    </g>
    <g id="xtick_2">
     <g id="line2d_2">
      <g>
       <use xlink:href="#mcea16e239a" x="137.239341" y="313.313813" style="stroke: #000000; stroke-width: 0.8"/>
      </g>
     </g>
     <g id="text_2">
      <!-- 50 -->
      <g transform="translate(130.876841 327.91225) scale(0.1 -0.1)">
       <defs>
        <path id="DejaVuSans-35" d="M 691 4666 
L 3169 4666 
L 3169 4134 
L 1269 4134 
L 1269 2991 
Q 1406 3038 1543 3061 
Q 1681 3084 1819 3084 
Q 2600 3084 3056 2656 
Q 3513 2228 3513 1497 
Q 3513 744 3044 326 
Q 2575 -91 1722 -91 
Q 1428 -91 1123 -41 
Q 819 9 494 109 
L 494 744 
Q 775 591 1075 516 
Q 1375 441 1709 441 
Q 2250 441 2565 725 
Q 2881 1009 2881 1497 
Q 2881 1984 2565 2268 
Q 2250 2553 1709 2553 
Q 1456 2553 1204 2497 
Q 953 2441 691 2322 
L 691 4666 
z
" transform="scale(0.015625)"/>
       </defs>
       <use xlink:href="#DejaVuSans-35"/>
       <use xlink:href="#DejaVuSans-30" transform="translate(63.623047 0)"/>
      </g>
     </g>
    </g>
    <g id="xtick_3">
     <g id="line2d_3">
      <g>
       <use xlink:href="#mcea16e239a" x="209.513256" y="313.313813" style="stroke: #000000; stroke-width: 0.8"/>
      </g>
     </g>
     <g id="text_3">
      <!-- 100 -->
      <g transform="translate(199.969506 327.91225) scale(0.1 -0.1)">
       <defs>
        <path id="DejaVuSans-31" d="M 794 531 
L 1825 531 
L 1825 4091 
L 703 3866 
L 703 4441 
L 1819 4666 
L 2450 4666 
L 2450 531 
L 3481 531 
L 3481 0 
L 794 0 
L 794 531 
z
" transform="scale(0.015625)"/>
       </defs>
       <use xlink:href="#DejaVuSans-31"/>
       <use xlink:href="#DejaVuSans-30" transform="translate(63.623047 0)"/>
       <use xlink:href="#DejaVuSans-30" transform="translate(127.246094 0)"/>
      </g>
     </g>
    </g>
    <g id="xtick_4">
     <g id="line2d_4">
      <g>
       <use xlink:href="#mcea16e239a" x="281.78717" y="313.313813" style="stroke: #000000; stroke-width: 0.8"/>
      </g>
     </g>
     <g id="text_4">
      <!-- 150 -->
      <g transform="translate(272.24342 327.91225) scale(0.1 -0.1)">
       <use xlink:href="#DejaVuSans-31"/>
       <use xlink:href="#DejaVuSans-35" transform="translate(63.623047 0)"/>
       <use xlink:href="#DejaVuSans-30" transform="translate(127.246094 0)"/>
      </g>
     </g>
    </g>
    <g id="xtick_5">
     <g id="line2d_5">
      <g>
       <use xlink:href="#mcea16e239a" x="354.061085" y="313.313813" style="stroke: #000000; stroke-width: 0.8"/>
      </g>
     </g>
     <g id="text_5">
      <!-- 200 -->
      <g transform="translate(344.517335 327.91225) scale(0.1 -0.1)">
       <defs>
        <path id="DejaVuSans-32" d="M 1228 531 
L 3431 531 
L 3431 0 
L 469 0 
L 469 531 
Q 828 903 1448 1529 
Q 2069 2156 2228 2338 
Q 2531 2678 2651 2914 
Q 2772 3150 2772 3378 
Q 2772 3750 2511 3984 
Q 2250 4219 1831 4219 
Q 1534 4219 1204 4116 
Q 875 4013 500 3803 
L 500 4441 
Q 881 4594 1212 4672 
Q 1544 4750 1819 4750 
Q 2544 4750 2975 4387 
Q 3406 4025 3406 3419 
Q 3406 3131 3298 2873 
Q 3191 2616 2906 2266 
Q 2828 2175 2409 1742 
Q 1991 1309 1228 531 
z
" transform="scale(0.015625)"/>
       </defs>
       <use xlink:href="#DejaVuSans-32"/>
       <use xlink:href="#DejaVuSans-30" transform="translate(63.623047 0)"/>
       <use xlink:href="#DejaVuSans-30" transform="translate(127.246094 0)"/>
      </g>
     </g>
    </g>
    <g id="xtick_6">
     <g id="line2d_6">
      <g>
       <use xlink:href="#mcea16e239a" x="426.335" y="313.313813" style="stroke: #000000; stroke-width: 0.8"/>
      </g>
     </g>
     <g id="text_6">
      <!-- 250 -->
      <g transform="translate(416.79125 327.91225) scale(0.1 -0.1)">
       <use xlink:href="#DejaVuSans-32"/>
       <use xlink:href="#DejaVuSans-35" transform="translate(63.623047 0)"/>
       <use xlink:href="#DejaVuSans-30" transform="translate(127.246094 0)"/>
      </g>
     </g>
    </g>
    <g id="text_7">
     <!-- Time (months) -->
     <g transform="translate(226.917188 342.350219) scale(0.11 -0.11)">
      <defs>
       <path id="DejaVuSans-54" d="M -19 4666 
L 3928 4666 
L 3928 4134 
L 2272 4134 
L 2272 0 
L 1638 0 
L 1638 4134 
L -19 4134 
L -19 4666 
z
" transform="scale(0.015625)"/>
       <path id="DejaVuSans-69" d="M 603 3500 
L 1178 3500 
L 1178 0 
L 603 0 
L 603 3500 
z
M 603 4863 
L 1178 4863 
L 1178 4134 
L 603 4134 
L 603 4863 
z
" transform="scale(0.015625)"/>
       <path id="DejaVuSans-6d" d="M 3328 2828 
Q 3544 3216 3844 3400 
Q 4144 3584 4550 3584 
Q 5097 3584 5394 3201 
Q 5691 2819 5691 2113 
L 5691 0 
L 5113 0 
L 5113 2094 
Q 5113 2597 4934 2840 
Q 4756 3084 4391 3084 
Q 3944 3084 3684 2787 
Q 3425 2491 3425 1978 
L 3425 0 
L 2847 0 
L 2847 2094 
Q 2847 2600 2669 2842 
Q 2491 3084 2119 3084 
Q 1678 3084 1418 2786 
Q 1159 2488 1159 1978 
L 1159 0 
L 581 0 
L 581 3500 
L 1159 3500 
L 1159 2956 
Q 1356 3278 1631 3431 
Q 1906 3584 2284 3584 
Q 2666 3584 2933 3390 
Q 3200 3197 3328 2828 
z
" transform="scale(0.015625)"/>
       <path id="DejaVuSans-65" d="M 3597 1894 
L 3597 1613 
L 953 1613 
Q 991 1019 1311 708 
Q 1631 397 2203 397 
Q 2534 397 2845 478 
Q 3156 559 3463 722 
L 3463 178 
Q 3153 47 2828 -22 
Q 2503 -91 2169 -91 
Q 1331 -91 842 396 
Q 353 884 353 1716 
Q 353 2575 817 3079 
Q 1281 3584 2069 3584 
Q 2775 3584 3186 3129 
Q 3597 2675 3597 1894 
z
M 3022 2063 
Q 3016 2534 2758 2815 
Q 2500 3097 2075 3097 
Q 1594 3097 1305 2825 
Q 1016 2553 972 2059 
L 3022 2063 
z
" transform="scale(0.015625)"/>
       <path id="DejaVuSans-20" transform="scale(0.015625)"/>
       <path id="DejaVuSans-28" d="M 1984 4856 
Q 1566 4138 1362 3434 
Q 1159 2731 1159 2009 
Q 1159 1288 1364 580 
Q 1569 -128 1984 -844 
L 1484 -844 
Q 1016 -109 783 600 
Q 550 1309 550 2009 
Q 550 2706 781 3412 
Q 1013 4119 1484 4856 
L 1984 4856 
z
" transform="scale(0.015625)"/>
       <path id="DejaVuSans-6f" d="M 1959 3097 
Q 1497 3097 1228 2736 
Q 959 2375 959 1747 
Q 959 1119 1226 758 
Q 1494 397 1959 397 
Q 2419 397 2687 759 
Q 2956 1122 2956 1747 
Q 2956 2369 2687 2733 
Q 2419 3097 1959 3097 
z
M 1959 3584 
Q 2709 3584 3137 3096 
Q 3566 2609 3566 1747 
Q 3566 888 3137 398 
Q 2709 -91 1959 -91 
Q 1206 -91 779 398 
Q 353 888 353 1747 
Q 353 2609 779 3096 
Q 1206 3584 1959 3584 
z
" transform="scale(0.015625)"/>
       <path id="DejaVuSans-6e" d="M 3513 2113 
L 3513 0 
L 2938 0 
L 2938 2094 
Q 2938 2591 2744 2837 
Q 2550 3084 2163 3084 
Q 1697 3084 1428 2787 
Q 1159 2491 1159 1978 
L 1159 0 
L 581 0 
L 581 3500 
L 1159 3500 
L 1159 2956 
Q 1366 3272 1645 3428 
Q 1925 3584 2291 3584 
Q 2894 3584 3203 3211 
Q 3513 2838 3513 2113 
z
" transform="scale(0.015625)"/>
       <path id="DejaVuSans-74" d="M 1172 4494 
L 1172 3500 
L 2356 3500 
L 2356 3053 
L 1172 3053 
L 1172 1153 
Q 1172 725 1289 603 
Q 1406 481 1766 481 
L 2356 481 
L 2356 0 
L 1766 0 
Q 1100 0 847 248 
Q 594 497 594 1153 
L 594 3053 
L 172 3053 
L 172 3500 
L 594 3500 
L 594 4494 
L 1172 4494 
z
" transform="scale(0.015625)"/>
       <path id="DejaVuSans-68" d="M 3513 2113 
L 3513 0 
L 2938 0 
L 2938 2094 
Q 2938 2591 2744 2837 
Q 2550 3084 2163 3084 
Q 1697 3084 1428 2787 
Q 1159 2491 1159 1978 
L 1159 0 
L 581 0 
L 581 4863 
L 1159 4863 
L 1159 2956 
Q 1366 3272 1645 3428 
Q 1925 3584 2291 3584 
Q 2894 3584 3203 3211 
Q 3513 2838 3513 2113 
z
" transform="scale(0.015625)"/>
       <path id="DejaVuSans-73" d="M 2834 3397 
L 2834 2853 
Q 2591 2978 2328 3040 
Q 2066 3103 1784 3103 
Q 1356 3103 1142 2972 
Q 928 2841 928 2578 
Q 928 2378 1081 2264 
Q 1234 2150 1697 2047 
L 1894 2003 
Q 2506 1872 2764 1633 
Q 3022 1394 3022 966 
Q 3022 478 2636 193 
Q 2250 -91 1575 -91 
Q 1294 -91 989 -36 
Q 684 19 347 128 
L 347 722 
Q 666 556 975 473 
Q 1284 391 1588 391 
Q 1994 391 2212 530 
Q 2431 669 2431 922 
Q 2431 1156 2273 1281 
Q 2116 1406 1581 1522 
L 1381 1569 
Q 847 1681 609 1914 
Q 372 2147 372 2553 
Q 372 3047 722 3315 
Q 1072 3584 1716 3584 
Q 2034 3584 2315 3537 
Q 2597 3491 2834 3397 
z
" transform="scale(0.015625)"/>
       <path id="DejaVuSans-29" d="M 513 4856 
L 1013 4856 
Q 1481 4119 1714 3412 
Q 1947 2706 1947 2009 
Q 1947 1309 1714 600 
Q 1481 -109 1013 -844 
L 513 -844 
Q 928 -128 1133 580 
Q 1338 1288 1338 2009 
Q 1338 2731 1133 3434 
Q 928 4138 513 4856 
z
" transform="scale(0.015625)"/>
      </defs>
      <use xlink:href="#DejaVuSans-54"/>
      <use xlink:href="#DejaVuSans-69" transform="translate(57.958984 0)"/>
      <use xlink:href="#DejaVuSans-6d" transform="translate(85.742188 0)"/>
      <use xlink:href="#DejaVuSans-65" transform="translate(183.154297 0)"/>
      <use xlink:href="#DejaVuSans-20" transform="translate(244.677734 0)"/>
      <use xlink:href="#DejaVuSans-28" transform="translate(276.464844 0)"/>
      <use xlink:href="#DejaVuSans-6d" transform="translate(315.478516 0)"/>
      <use xlink:href="#DejaVuSans-6f" transform="translate(412.890625 0)"/>
      <use xlink:href="#DejaVuSans-6e" transform="translate(474.072266 0)"/>
      <use xlink:href="#DejaVuSans-74" transform="translate(537.451172 0)"/>
      <use xlink:href="#DejaVuSans-68" transform="translate(576.660156 0)"/>
      <use xlink:href="#DejaVuSans-73" transform="translate(640.039062 0)"/>
      <use xlink:href="#DejaVuSans-29" transform="translate(692.138672 0)"/>
     </g>
    </g>
   </g>
   <g id="matplotlib.axis_2">
    <g id="ytick_1">
     <g id="line2d_7">
      <defs>
       <path id="m9bf24bbe88" d="M 0 0 
L -3.5 0 
" style="stroke: #000000; stroke-width: 0.8"/>
      </defs>
      <g>
       <use xlink:href="#m9bf24bbe88" x="44.749063" y="313.313813" style="stroke: #000000; stroke-width: 0.8"/>
      </g>
     </g>
     <g id="text_8">
      <!-- 0.0 -->
      <g transform="translate(21.845938 317.113031) scale(0.1 -0.1)">
       <defs>
        <path id="DejaVuSans-2e" d="M 684 794 
L 1344 794 
L 1344 0 
L 684 0 
L 684 794 
z
" transform="scale(0.015625)"/>
       </defs>
       <use xlink:href="#DejaVuSans-30"/>
       <use xlink:href="#DejaVuSans-2e" transform="translate(63.623047 0)"/>
       <use xlink:href="#DejaVuSans-30" transform="translate(95.410156 0)"/>
      </g>
     </g>
    </g>
    <g id="ytick_2">
     <g id="line2d_8">
      <g>
       <use xlink:href="#m9bf24bbe88" x="44.749063" y="260.103908" style="stroke: #000000; stroke-width: 0.8"/>
      </g>
     </g>
     <g id="text_9">
      <!-- 0.2 -->
      <g transform="translate(21.845938 263.903126) scale(0.1 -0.1)">
       <use xlink:href="#DejaVuSans-30"/>
       <use xlink:href="#DejaVuSans-2e" transform="translate(63.623047 0)"/>
       <use xlink:href="#DejaVuSans-32" transform="translate(95.410156 0)"/>
      </g>
     </g>
    </g>
    <g id="ytick_3">
     <g id="line2d_9">
      <g>
       <use xlink:href="#m9bf24bbe88" x="44.749063" y="206.894003" style="stroke: #000000; stroke-width: 0.8"/>
      </g>
     </g>
     <g id="text_10">
      <!-- 0.4 -->
      <g transform="translate(21.845938 210.693222) scale(0.1 -0.1)">
       <defs>
        <path id="DejaVuSans-34" d="M 2419 4116 
L 825 1625 
L 2419 1625 
L 2419 4116 
z
M 2253 4666 
L 3047 4666 
L 3047 1625 
L 3713 1625 
L 3713 1100 
L 3047 1100 
L 3047 0 
L 2419 0 
L 2419 1100 
L 313 1100 
L 313 1709 
L 2253 4666 
z
" transform="scale(0.015625)"/>
       </defs>
       <use xlink:href="#DejaVuSans-30"/>
       <use xlink:href="#DejaVuSans-2e" transform="translate(63.623047 0)"/>
       <use xlink:href="#DejaVuSans-34" transform="translate(95.410156 0)"/>
      </g>
     </g>
    </g>
    <g id="ytick_4">
     <g id="line2d_10">
      <g>
       <use xlink:href="#m9bf24bbe88" x="44.749063" y="153.684098" style="stroke: #000000; stroke-width: 0.8"/>
      </g>
     </g>
     <g id="text_11">
      <!-- 0.6 -->
      <g transform="translate(21.845938 157.483317) scale(0.1 -0.1)">
       <defs>
        <path id="DejaVuSans-36" d="M 2113 2584 
Q 1688 2584 1439 2293 
Q 1191 2003 1191 1497 
Q 1191 994 1439 701 
Q 1688 409 2113 409 
Q 2538 409 2786 701 
Q 3034 994 3034 1497 
Q 3034 2003 2786 2293 
Q 2538 2584 2113 2584 
z
M 3366 4563 
L 3366 3988 
Q 3128 4100 2886 4159 
Q 2644 4219 2406 4219 
Q 1781 4219 1451 3797 
Q 1122 3375 1075 2522 
Q 1259 2794 1537 2939 
Q 1816 3084 2150 3084 
Q 2853 3084 3261 2657 
Q 3669 2231 3669 1497 
Q 3669 778 3244 343 
Q 2819 -91 2113 -91 
Q 1303 -91 875 529 
Q 447 1150 447 2328 
Q 447 3434 972 4092 
Q 1497 4750 2381 4750 
Q 2619 4750 2861 4703 
Q 3103 4656 3366 4563 
z
" transform="scale(0.015625)"/>
       </defs>
       <use xlink:href="#DejaVuSans-30"/>
       <use xlink:href="#DejaVuSans-2e" transform="translate(63.623047 0)"/>
       <use xlink:href="#DejaVuSans-36" transform="translate(95.410156 0)"/>
      </g>
     </g>
    </g>
    <g id="ytick_5">
     <g id="line2d_11">
      <g>
       <use xlink:href="#m9bf24bbe88" x="44.749063" y="100.474193" style="stroke: #000000; stroke-width: 0.8"/>
      </g>
     </g>
     <g id="text_12">
      <!-- 0.8 -->
      <g transform="translate(21.845938 104.273412) scale(0.1 -0.1)">
       <defs>
        <path id="DejaVuSans-38" d="M 2034 2216 
Q 1584 2216 1326 1975 
Q 1069 1734 1069 1313 
Q 1069 891 1326 650 
Q 1584 409 2034 409 
Q 2484 409 2743 651 
Q 3003 894 3003 1313 
Q 3003 1734 2745 1975 
Q 2488 2216 2034 2216 
z
M 1403 2484 
Q 997 2584 770 2862 
Q 544 3141 544 3541 
Q 544 4100 942 4425 
Q 1341 4750 2034 4750 
Q 2731 4750 3128 4425 
Q 3525 4100 3525 3541 
Q 3525 3141 3298 2862 
Q 3072 2584 2669 2484 
Q 3125 2378 3379 2068 
Q 3634 1759 3634 1313 
Q 3634 634 3220 271 
Q 2806 -91 2034 -91 
Q 1263 -91 848 271 
Q 434 634 434 1313 
Q 434 1759 690 2068 
Q 947 2378 1403 2484 
z
M 1172 3481 
Q 1172 3119 1398 2916 
Q 1625 2713 2034 2713 
Q 2441 2713 2670 2916 
Q 2900 3119 2900 3481 
Q 2900 3844 2670 4047 
Q 2441 4250 2034 4250 
Q 1625 4250 1398 4047 
Q 1172 3844 1172 3481 
z
" transform="scale(0.015625)"/>
       </defs>
       <use xlink:href="#DejaVuSans-30"/>
       <use xlink:href="#DejaVuSans-2e" transform="translate(63.623047 0)"/>
       <use xlink:href="#DejaVuSans-38" transform="translate(95.410156 0)"/>
      </g>
     </g>
    </g>
    <g id="ytick_6">
     <g id="line2d_12">
      <g>
       <use xlink:href="#m9bf24bbe88" x="44.749063" y="47.264289" style="stroke: #000000; stroke-width: 0.8"/>
      </g>
     </g>
     <g id="text_13">
      <!-- 1.0 -->
      <g transform="translate(21.845938 51.063507) scale(0.1 -0.1)">
       <use xlink:href="#DejaVuSans-31"/>
       <use xlink:href="#DejaVuSans-2e" transform="translate(63.623047 0)"/>
       <use xlink:href="#DejaVuSans-30" transform="translate(95.410156 0)"/>
      </g>
     </g>
    </g>
    <g id="text_14">
     <!-- Overall survival probability -->
     <g transform="translate(15.558281 247.682422) rotate(-90) scale(0.11 -0.11)">
      <defs>
       <path id="DejaVuSans-4f" d="M 2522 4238 
Q 1834 4238 1429 3725 
Q 1025 3213 1025 2328 
Q 1025 1447 1429 934 
Q 1834 422 2522 422 
Q 3209 422 3611 934 
Q 4013 1447 4013 2328 
Q 4013 3213 3611 3725 
Q 3209 4238 2522 4238 
z
M 2522 4750 
Q 3503 4750 4090 4092 
Q 4678 3434 4678 2328 
Q 4678 1225 4090 567 
Q 3503 -91 2522 -91 
Q 1538 -91 948 565 
Q 359 1222 359 2328 
Q 359 3434 948 4092 
Q 1538 4750 2522 4750 
z
" transform="scale(0.015625)"/>
       <path id="DejaVuSans-76" d="M 191 3500 
L 800 3500 
L 1894 563 
L 2988 3500 
L 3597 3500 
L 2284 0 
L 1503 0 
L 191 3500 
z
" transform="scale(0.015625)"/>
       <path id="DejaVuSans-72" d="M 2631 2963 
Q 2534 3019 2420 3045 
Q 2306 3072 2169 3072 
Q 1681 3072 1420 2755 
Q 1159 2438 1159 1844 
L 1159 0 
L 581 0 
L 581 3500 
L 1159 3500 
L 1159 2956 
Q 1341 3275 1631 3429 
Q 1922 3584 2338 3584 
Q 2397 3584 2469 3576 
Q 2541 3569 2628 3553 
L 2631 2963 
z
" transform="scale(0.015625)"/>
       <path id="DejaVuSans-61" d="M 2194 1759 
Q 1497 1759 1228 1600 
Q 959 1441 959 1056 
Q 959 750 1161 570 
Q 1363 391 1709 391 
Q 2188 391 2477 730 
Q 2766 1069 2766 1631 
L 2766 1759 
L 2194 1759 
z
M 3341 1997 
L 3341 0 
L 2766 0 
L 2766 531 
Q 2569 213 2275 61 
Q 1981 -91 1556 -91 
Q 1019 -91 701 211 
Q 384 513 384 1019 
Q 384 1609 779 1909 
Q 1175 2209 1959 2209 
L 2766 2209 
L 2766 2266 
Q 2766 2663 2505 2880 
Q 2244 3097 1772 3097 
Q 1472 3097 1187 3025 
Q 903 2953 641 2809 
L 641 3341 
Q 956 3463 1253 3523 
Q 1550 3584 1831 3584 
Q 2591 3584 2966 3190 
Q 3341 2797 3341 1997 
z
" transform="scale(0.015625)"/>
       <path id="DejaVuSans-6c" d="M 603 4863 
L 1178 4863 
L 1178 0 
L 603 0 
L 603 4863 
z
" transform="scale(0.015625)"/>
       <path id="DejaVuSans-75" d="M 544 1381 
L 544 3500 
L 1119 3500 
L 1119 1403 
Q 1119 906 1312 657 
Q 1506 409 1894 409 
Q 2359 409 2629 706 
Q 2900 1003 2900 1516 
L 2900 3500 
L 3475 3500 
L 3475 0 
L 2900 0 
L 2900 538 
Q 2691 219 2414 64 
Q 2138 -91 1772 -91 
Q 1169 -91 856 284 
Q 544 659 544 1381 
z
M 1991 3584 
L 1991 3584 
z
" transform="scale(0.015625)"/>
       <path id="DejaVuSans-70" d="M 1159 525 
L 1159 -1331 
L 581 -1331 
L 581 3500 
L 1159 3500 
L 1159 2969 
Q 1341 3281 1617 3432 
Q 1894 3584 2278 3584 
Q 2916 3584 3314 3078 
Q 3713 2572 3713 1747 
Q 3713 922 3314 415 
Q 2916 -91 2278 -91 
Q 1894 -91 1617 61 
Q 1341 213 1159 525 
z
M 3116 1747 
Q 3116 2381 2855 2742 
Q 2594 3103 2138 3103 
Q 1681 3103 1420 2742 
Q 1159 2381 1159 1747 
Q 1159 1113 1420 752 
Q 1681 391 2138 391 
Q 2594 391 2855 752 
Q 3116 1113 3116 1747 
z
" transform="scale(0.015625)"/>
       <path id="DejaVuSans-62" d="M 3116 1747 
Q 3116 2381 2855 2742 
Q 2594 3103 2138 3103 
Q 1681 3103 1420 2742 
Q 1159 2381 1159 1747 
Q 1159 1113 1420 752 
Q 1681 391 2138 391 
Q 2594 391 2855 752 
Q 3116 1113 3116 1747 
z
M 1159 2969 
Q 1341 3281 1617 3432 
Q 1894 3584 2278 3584 
Q 2916 3584 3314 3078 
Q 3713 2572 3713 1747 
Q 3713 922 3314 415 
Q 2916 -91 2278 -91 
Q 1894 -91 1617 61 
Q 1341 213 1159 525 
L 1159 0 
L 581 0 
L 581 4863 
L 1159 4863 
L 1159 2969 
z
" transform="scale(0.015625)"/>
       <path id="DejaVuSans-79" d="M 2059 -325 
Q 1816 -950 1584 -1140 
Q 1353 -1331 966 -1331 
L 506 -1331 
L 506 -850 
L 844 -850 
Q 1081 -850 1212 -737 
Q 1344 -625 1503 -206 
L 1606 56 
L 191 3500 
L 800 3500 
L 1894 763 
L 2988 3500 
L 3597 3500 
L 2059 -325 
z
" transform="scale(0.015625)"/>
      </defs>
      <use xlink:href="#DejaVuSans-4f"/>
      <use xlink:href="#DejaVuSans-76" transform="translate(78.710938 0)"/>
      <use xlink:href="#DejaVuSans-65" transform="translate(137.890625 0)"/>
      <use xlink:href="#DejaVuSans-72" transform="translate(199.414062 0)"/>
      <use xlink:href="#DejaVuSans-61" transform="translate(240.527344 0)"/>
      <use xlink:href="#DejaVuSans-6c" transform="translate(301.806641 0)"/>
      <use xlink:href="#DejaVuSans-6c" transform="translate(329.589844 0)"/>
      <use xlink:href="#DejaVuSans-20" transform="translate(357.373047 0)"/>
      <use xlink:href="#DejaVuSans-73" transform="translate(389.160156 0)"/>
      <use xlink:href="#DejaVuSans-75" transform="translate(441.259766 0)"/>
      <use xlink:href="#DejaVuSans-72" transform="translate(504.638672 0)"/>
      <use xlink:href="#DejaVuSans-76" transform="translate(545.751953 0)"/>
      <use xlink:href="#DejaVuSans-69" transform="translate(604.931641 0)"/>
      <use xlink:href="#DejaVuSans-76" transform="translate(632.714844 0)"/>
      <use xlink:href="#DejaVuSans-61" transform="translate(691.894531 0)"/>
      <use xlink:href="#DejaVuSans-6c" transform="translate(753.173828 0)"/>
      <use xlink:href="#DejaVuSans-20" transform="translate(780.957031 0)"/>
      <use xlink:href="#DejaVuSans-70" transform="translate(812.744141 0)"/>
      <use xlink:href="#DejaVuSans-72" transform="translate(876.220703 0)"/>
      <use xlink:href="#DejaVuSans-6f" transform="translate(915.083984 0)"/>
      <use xlink:href="#DejaVuSans-62" transform="translate(976.265625 0)"/>
      <use xlink:href="#DejaVuSans-61" transform="translate(1039.742188 0)"/>
      <use xlink:href="#DejaVuSans-62" transform="translate(1101.021484 0)"/>
      <use xlink:href="#DejaVuSans-69" transform="translate(1164.498047 0)"/>
      <use xlink:href="#DejaVuSans-6c" transform="translate(1192.28125 0)"/>
      <use xlink:href="#DejaVuSans-69" transform="translate(1220.064453 0)"/>
      <use xlink:href="#DejaVuSans-74" transform="translate(1247.847656 0)"/>
      <use xlink:href="#DejaVuSans-79" transform="translate(1287.056641 0)"/>
     </g>
    </g>
   </g>
   <g id="line2d_13">
    <path d="M 64.965426 47.264289 
L 251.005771 47.264289 
L 251.005771 47.264289 
" clip-path="url(#p33f75aeb48)" style="fill: none; stroke: #c0392b; stroke-width: 1.5; stroke-linecap: square"/>
   </g>
   <g id="line2d_14">
    <path d="M 64.965426 47.264289 
L 307.73725 47.264289 
L 307.73725 47.264289 
" clip-path="url(#p33f75aeb48)" style="fill: none; stroke: #e67e22; stroke-width: 1.5; stroke-linecap: square"/>
   </g>
   <g id="line2d_15">
    <path d="M 64.965426 47.264289 
L 469.292699 47.264289 
L 469.292699 47.264289 
" clip-path="url(#p33f75aeb48)" style="fill: none; stroke: #27ae60; stroke-width: 1.5; stroke-linecap: square"/>
   </g>
   <g id="patch_3">
    <path d="M 44.749063 313.313813 
L 44.749063 33.961813 
" style="fill: none; stroke: #000000; stroke-width: 0.8; stroke-linejoin: miter; stroke-linecap: square"/>
   </g>
   <g id="patch_4">
    <path d="M 44.749063 313.313813 
L 489.509062 313.313813 
" style="fill: none; stroke: #000000; stroke-width: 0.8; stroke-linejoin: miter; stroke-linecap: square"/>
   </g>
   <g id="text_15">
    <g id="patch_5">
     <path d="M 320.500262 80.9443 
L 417.22995 80.9443 
Q 420.22995 80.9443 420.22995 77.9443 
L 420.22995 68.266175 
Q 420.22995 65.266175 417.22995 65.266175 
L 320.500262 65.266175 
Q 317.500262 65.266175 317.500262 68.266175 
L 317.500262 77.9443 
Q 317.500262 80.9443 320.500262 80.9443 
z
" style="fill: #ffffff; opacity: 0.8; stroke: #000000; stroke-linejoin: miter"/>
    </g>
    <!-- Log-rank p = 1.000 -->
    <g transform="translate(320.500262 75.864613) scale(0.1 -0.1)">
     <defs>
      <path id="DejaVuSans-4c" d="M 628 4666 
L 1259 4666 
L 1259 531 
L 3531 531 
L 3531 0 
L 628 0 
L 628 4666 
z
" transform="scale(0.015625)"/>
      <path id="DejaVuSans-67" d="M 2906 1791 
Q 2906 2416 2648 2759 
Q 2391 3103 1925 3103 
Q 1463 3103 1205 2759 
Q 947 2416 947 1791 
Q 947 1169 1205 825 
Q 1463 481 1925 481 
Q 2391 481 2648 825 
Q 2906 1169 2906 1791 
z
M 3481 434 
Q 3481 -459 3084 -895 
Q 2688 -1331 1869 -1331 
Q 1566 -1331 1297 -1286 
Q 1028 -1241 775 -1147 
L 775 -588 
Q 1028 -725 1275 -790 
Q 1522 -856 1778 -856 
Q 2344 -856 2625 -561 
Q 2906 -266 2906 331 
L 2906 616 
Q 2728 306 2450 153 
Q 2172 0 1784 0 
Q 1141 0 747 490 
Q 353 981 353 1791 
Q 353 2603 747 3093 
Q 1141 3584 1784 3584 
Q 2172 3584 2450 3431 
Q 2728 3278 2906 2969 
L 2906 3500 
L 3481 3500 
L 3481 434 
z
" transform="scale(0.015625)"/>
      <path id="DejaVuSans-2d" d="M 313 2009 
L 1997 2009 
L 1997 1497 
L 313 1497 
L 313 2009 
z
" transform="scale(0.015625)"/>
      <path id="DejaVuSans-6b" d="M 581 4863 
L 1159 4863 
L 1159 1991 
L 2875 3500 
L 3609 3500 
L 1753 1863 
L 3688 0 
L 2938 0 
L 1159 1709 
L 1159 0 
L 581 0 
L 581 4863 
z
" transform="scale(0.015625)"/>
      <path id="DejaVuSans-3d" d="M 678 2906 
L 4684 2906 
L 4684 2381 
L 678 2381 
L 678 2906 
z
M 678 1631 
L 4684 1631 
L 4684 1100 
L 678 1100 
L 678 1631 
z
" transform="scale(0.015625)"/>
     </defs>
     <use xlink:href="#DejaVuSans-4c"/>
     <use xlink:href="#DejaVuSans-6f" transform="translate(53.962891 0)"/>
     <use xlink:href="#DejaVuSans-67" transform="translate(115.144531 0)"/>
     <use xlink:href="#DejaVuSans-2d" transform="translate(178.621094 0)"/>
     <use xlink:href="#DejaVuSans-72" transform="translate(214.705078 0)"/>
     <use xlink:href="#DejaVuSans-61" transform="translate(255.818359 0)"/>
     <use xlink:href="#DejaVuSans-6e" transform="translate(317.097656 0)"/>
     <use xlink:href="#DejaVuSans-6b" transform="translate(380.476562 0)"/>
     <use xlink:href="#DejaVuSans-20" transform="translate(438.386719 0)"/>
     <use xlink:href="#DejaVuSans-70" transform="translate(470.173828 0)"/>
     <use xlink:href="#DejaVuSans-20" transform="translate(533.650391 0)"/>
     <use xlink:href="#DejaVuSans-3d" transform="translate(565.4375 0)"/>
     <use xlink:href="#DejaVuSans-20" transform="translate(649.226562 0)"/>
     <use xlink:href="#DejaVuSans-31" transform="translate(681.013672 0)"/>
     <use xlink:href="#DejaVuSans-2e" transform="translate(744.636719 0)"/>
     <use xlink:href="#DejaVuSans-30" transform="translate(776.423828 0)"/>
     <use xlink:href="#DejaVuSans-30" transform="translate(840.046875 0)"/>
     <use xlink:href="#DejaVuSans-30" transform="translate(903.669922 0)"/>
    </g>
   </g>
   <g id="text_16">
    <!-- Overall Survival by Hoshida Molecular Subtype -->
    <g transform="translate(121.453828 15.558281) scale(0.11 -0.11)">
     <defs>
      <path id="DejaVuSans-Bold-4f" d="M 2719 3878 
Q 2169 3878 1866 3472 
Q 1563 3066 1563 2328 
Q 1563 1594 1866 1187 
Q 2169 781 2719 781 
Q 3272 781 3575 1187 
Q 3878 1594 3878 2328 
Q 3878 3066 3575 3472 
Q 3272 3878 2719 3878 
z
M 2719 4750 
Q 3844 4750 4481 4106 
Q 5119 3463 5119 2328 
Q 5119 1197 4481 553 
Q 3844 -91 2719 -91 
Q 1597 -91 958 553 
Q 319 1197 319 2328 
Q 319 3463 958 4106 
Q 1597 4750 2719 4750 
z
" transform="scale(0.015625)"/>
      <path id="DejaVuSans-Bold-76" d="M 97 3500 
L 1216 3500 
L 2088 1081 
L 2956 3500 
L 4078 3500 
L 2700 0 
L 1472 0 
L 97 3500 
z
" transform="scale(0.015625)"/>
      <path id="DejaVuSans-Bold-65" d="M 4031 1759 
L 4031 1441 
L 1416 1441 
Q 1456 1047 1700 850 
Q 1944 653 2381 653 
Q 2734 653 3104 758 
Q 3475 863 3866 1075 
L 3866 213 
Q 3469 63 3072 -14 
Q 2675 -91 2278 -91 
Q 1328 -91 801 392 
Q 275 875 275 1747 
Q 275 2603 792 3093 
Q 1309 3584 2216 3584 
Q 3041 3584 3536 3087 
Q 4031 2591 4031 1759 
z
M 2881 2131 
Q 2881 2450 2695 2645 
Q 2509 2841 2209 2841 
Q 1884 2841 1681 2658 
Q 1478 2475 1428 2131 
L 2881 2131 
z
" transform="scale(0.015625)"/>
      <path id="DejaVuSans-Bold-72" d="M 3138 2547 
Q 2991 2616 2845 2648 
Q 2700 2681 2553 2681 
Q 2122 2681 1889 2404 
Q 1656 2128 1656 1613 
L 1656 0 
L 538 0 
L 538 3500 
L 1656 3500 
L 1656 2925 
Q 1872 3269 2151 3426 
Q 2431 3584 2822 3584 
Q 2878 3584 2943 3579 
Q 3009 3575 3134 3559 
L 3138 2547 
z
" transform="scale(0.015625)"/>
      <path id="DejaVuSans-Bold-61" d="M 2106 1575 
Q 1756 1575 1579 1456 
Q 1403 1338 1403 1106 
Q 1403 894 1545 773 
Q 1688 653 1941 653 
Q 2256 653 2472 879 
Q 2688 1106 2688 1447 
L 2688 1575 
L 2106 1575 
z
M 3816 1997 
L 3816 0 
L 2688 0 
L 2688 519 
Q 2463 200 2181 54 
Q 1900 -91 1497 -91 
Q 953 -91 614 226 
Q 275 544 275 1050 
Q 275 1666 698 1953 
Q 1122 2241 2028 2241 
L 2688 2241 
L 2688 2328 
Q 2688 2594 2478 2717 
Q 2269 2841 1825 2841 
Q 1466 2841 1156 2769 
Q 847 2697 581 2553 
L 581 3406 
Q 941 3494 1303 3539 
Q 1666 3584 2028 3584 
Q 2975 3584 3395 3211 
Q 3816 2838 3816 1997 
z
" transform="scale(0.015625)"/>
      <path id="DejaVuSans-Bold-6c" d="M 538 4863 
L 1656 4863 
L 1656 0 
L 538 0 
L 538 4863 
z
" transform="scale(0.015625)"/>
      <path id="DejaVuSans-Bold-20" transform="scale(0.015625)"/>
      <path id="DejaVuSans-Bold-53" d="M 3834 4519 
L 3834 3531 
Q 3450 3703 3084 3790 
Q 2719 3878 2394 3878 
Q 1963 3878 1756 3759 
Q 1550 3641 1550 3391 
Q 1550 3203 1689 3098 
Q 1828 2994 2194 2919 
L 2706 2816 
Q 3484 2659 3812 2340 
Q 4141 2022 4141 1434 
Q 4141 663 3683 286 
Q 3225 -91 2284 -91 
Q 1841 -91 1394 -6 
Q 947 78 500 244 
L 500 1259 
Q 947 1022 1364 901 
Q 1781 781 2169 781 
Q 2563 781 2772 912 
Q 2981 1044 2981 1288 
Q 2981 1506 2839 1625 
Q 2697 1744 2272 1838 
L 1806 1941 
Q 1106 2091 782 2419 
Q 459 2747 459 3303 
Q 459 4000 909 4375 
Q 1359 4750 2203 4750 
Q 2588 4750 2994 4692 
Q 3400 4634 3834 4519 
z
" transform="scale(0.015625)"/>
      <path id="DejaVuSans-Bold-75" d="M 500 1363 
L 500 3500 
L 1625 3500 
L 1625 3150 
Q 1625 2866 1622 2436 
Q 1619 2006 1619 1863 
Q 1619 1441 1641 1255 
Q 1663 1069 1716 984 
Q 1784 875 1895 815 
Q 2006 756 2150 756 
Q 2500 756 2700 1025 
Q 2900 1294 2900 1772 
L 2900 3500 
L 4019 3500 
L 4019 0 
L 2900 0 
L 2900 506 
Q 2647 200 2364 54 
Q 2081 -91 1741 -91 
Q 1134 -91 817 281 
Q 500 653 500 1363 
z
" transform="scale(0.015625)"/>
      <path id="DejaVuSans-Bold-69" d="M 538 3500 
L 1656 3500 
L 1656 0 
L 538 0 
L 538 3500 
z
M 538 4863 
L 1656 4863 
L 1656 3950 
L 538 3950 
L 538 4863 
z
" transform="scale(0.015625)"/>
      <path id="DejaVuSans-Bold-62" d="M 2400 722 
Q 2759 722 2948 984 
Q 3138 1247 3138 1747 
Q 3138 2247 2948 2509 
Q 2759 2772 2400 2772 
Q 2041 2772 1848 2508 
Q 1656 2244 1656 1747 
Q 1656 1250 1848 986 
Q 2041 722 2400 722 
z
M 1656 2988 
Q 1888 3294 2169 3439 
Q 2450 3584 2816 3584 
Q 3463 3584 3878 3070 
Q 4294 2556 4294 1747 
Q 4294 938 3878 423 
Q 3463 -91 2816 -91 
Q 2450 -91 2169 54 
Q 1888 200 1656 506 
L 1656 0 
L 538 0 
L 538 4863 
L 1656 4863 
L 1656 2988 
z
" transform="scale(0.015625)"/>
      <path id="DejaVuSans-Bold-79" d="M 78 3500 
L 1197 3500 
L 2138 1125 
L 2938 3500 
L 4056 3500 
L 2584 -331 
Q 2363 -916 2067 -1148 
Q 1772 -1381 1288 -1381 
L 641 -1381 
L 641 -647 
L 991 -647 
Q 1275 -647 1404 -556 
Q 1534 -466 1606 -231 
L 1638 -134 
L 78 3500 
z
" transform="scale(0.015625)"/>
      <path id="DejaVuSans-Bold-48" d="M 588 4666 
L 1791 4666 
L 1791 2888 
L 3566 2888 
L 3566 4666 
L 4769 4666 
L 4769 0 
L 3566 0 
L 3566 1978 
L 1791 1978 
L 1791 0 
L 588 0 
L 588 4666 
z
" transform="scale(0.015625)"/>
      <path id="DejaVuSans-Bold-6f" d="M 2203 2784 
Q 1831 2784 1636 2517 
Q 1441 2250 1441 1747 
Q 1441 1244 1636 976 
Q 1831 709 2203 709 
Q 2569 709 2762 976 
Q 2956 1244 2956 1747 
Q 2956 2250 2762 2517 
Q 2569 2784 2203 2784 
z
M 2203 3584 
Q 3106 3584 3614 3096 
Q 4122 2609 4122 1747 
Q 4122 884 3614 396 
Q 3106 -91 2203 -91 
Q 1297 -91 786 396 
Q 275 884 275 1747 
Q 275 2609 786 3096 
Q 1297 3584 2203 3584 
z
" transform="scale(0.015625)"/>
      <path id="DejaVuSans-Bold-73" d="M 3272 3391 
L 3272 2541 
Q 2913 2691 2578 2766 
Q 2244 2841 1947 2841 
Q 1628 2841 1473 2761 
Q 1319 2681 1319 2516 
Q 1319 2381 1436 2309 
Q 1553 2238 1856 2203 
L 2053 2175 
Q 2913 2066 3209 1816 
Q 3506 1566 3506 1031 
Q 3506 472 3093 190 
Q 2681 -91 1863 -91 
Q 1516 -91 1145 -36 
Q 775 19 384 128 
L 384 978 
Q 719 816 1070 734 
Q 1422 653 1784 653 
Q 2113 653 2278 743 
Q 2444 834 2444 1013 
Q 2444 1163 2330 1236 
Q 2216 1309 1875 1350 
L 1678 1375 
Q 931 1469 631 1722 
Q 331 1975 331 2491 
Q 331 3047 712 3315 
Q 1094 3584 1881 3584 
Q 2191 3584 2531 3537 
Q 2872 3491 3272 3391 
z
" transform="scale(0.015625)"/>
      <path id="DejaVuSans-Bold-68" d="M 4056 2131 
L 4056 0 
L 2931 0 
L 2931 347 
L 2931 1625 
Q 2931 2084 2911 2256 
Q 2891 2428 2841 2509 
Q 2775 2619 2662 2680 
Q 2550 2741 2406 2741 
Q 2056 2741 1856 2470 
Q 1656 2200 1656 1722 
L 1656 0 
L 538 0 
L 538 4863 
L 1656 4863 
L 1656 2988 
Q 1909 3294 2193 3439 
Q 2478 3584 2822 3584 
Q 3428 3584 3742 3212 
Q 4056 2841 4056 2131 
z
" transform="scale(0.015625)"/>
      <path id="DejaVuSans-Bold-64" d="M 2919 2988 
L 2919 4863 
L 4044 4863 
L 4044 0 
L 2919 0 
L 2919 506 
Q 2688 197 2409 53 
Q 2131 -91 1766 -91 
Q 1119 -91 703 423 
Q 288 938 288 1747 
Q 288 2556 703 3070 
Q 1119 3584 1766 3584 
Q 2128 3584 2408 3439 
Q 2688 3294 2919 2988 
z
M 2181 722 
Q 2541 722 2730 984 
Q 2919 1247 2919 1747 
Q 2919 2247 2730 2509 
Q 2541 2772 2181 2772 
Q 1825 2772 1636 2509 
Q 1447 2247 1447 1747 
Q 1447 1247 1636 984 
Q 1825 722 2181 722 
z
" transform="scale(0.015625)"/>
      <path id="DejaVuSans-Bold-4d" d="M 588 4666 
L 2119 4666 
L 3181 2169 
L 4250 4666 
L 5778 4666 
L 5778 0 
L 4641 0 
L 4641 3413 
L 3566 897 
L 2803 897 
L 1728 3413 
L 1728 0 
L 588 0 
L 588 4666 
z
" transform="scale(0.015625)"/>
      <path id="DejaVuSans-Bold-63" d="M 3366 3391 
L 3366 2478 
Q 3138 2634 2908 2709 
Q 2678 2784 2431 2784 
Q 1963 2784 1702 2511 
Q 1441 2238 1441 1747 
Q 1441 1256 1702 982 
Q 1963 709 2431 709 
Q 2694 709 2930 787 
Q 3166 866 3366 1019 
L 3366 103 
Q 3103 6 2833 -42 
Q 2563 -91 2291 -91 
Q 1344 -91 809 395 
Q 275 881 275 1747 
Q 275 2613 809 3098 
Q 1344 3584 2291 3584 
Q 2566 3584 2833 3536 
Q 3100 3488 3366 3391 
z
" transform="scale(0.015625)"/>
      <path id="DejaVuSans-Bold-74" d="M 1759 4494 
L 1759 3500 
L 2913 3500 
L 2913 2700 
L 1759 2700 
L 1759 1216 
Q 1759 972 1856 886 
Q 1953 800 2241 800 
L 2816 800 
L 2816 0 
L 1856 0 
Q 1194 0 917 276 
Q 641 553 641 1216 
L 641 2700 
L 84 2700 
L 84 3500 
L 641 3500 
L 641 4494 
L 1759 4494 
z
" transform="scale(0.015625)"/>
      <path id="DejaVuSans-Bold-70" d="M 1656 506 
L 1656 -1331 
L 538 -1331 
L 538 3500 
L 1656 3500 
L 1656 2988 
Q 1888 3294 2169 3439 
Q 2450 3584 2816 3584 
Q 3463 3584 3878 3070 
Q 4294 2556 4294 1747 
Q 4294 938 3878 423 
Q 3463 -91 2816 -91 
Q 2450 -91 2169 54 
Q 1888 200 1656 506 
z
M 2400 2772 
Q 2041 2772 1848 2508 
Q 1656 2244 1656 1747 
Q 1656 1250 1848 986 
Q 2041 722 2400 722 
Q 2759 722 2948 984 
Q 3138 1247 3138 1747 
Q 3138 2247 2948 2509 
Q 2759 2772 2400 2772 
z
" transform="scale(0.015625)"/>
     </defs>
     <use xlink:href="#DejaVuSans-Bold-4f"/>
     <use xlink:href="#DejaVuSans-Bold-76" transform="translate(85.009766 0)"/>
     <use xlink:href="#DejaVuSans-Bold-65" transform="translate(150.195312 0)"/>
     <use xlink:href="#DejaVuSans-Bold-72" transform="translate(218.017578 0)"/>
     <use xlink:href="#DejaVuSans-Bold-61" transform="translate(267.333984 0)"/>
     <use xlink:href="#DejaVuSans-Bold-6c" transform="translate(334.814453 0)"/>
     <use xlink:href="#DejaVuSans-Bold-6c" transform="translate(369.091797 0)"/>
     <use xlink:href="#DejaVuSans-Bold-20" transform="translate(403.369141 0)"/>
     <use xlink:href="#DejaVuSans-Bold-53" transform="translate(438.183594 0)"/>
     <use xlink:href="#DejaVuSans-Bold-75" transform="translate(510.205078 0)"/>
     <use xlink:href="#DejaVuSans-Bold-72" transform="translate(581.396484 0)"/>
     <use xlink:href="#DejaVuSans-Bold-76" transform="translate(630.712891 0)"/>
     <use xlink:href="#DejaVuSans-Bold-69" transform="translate(695.898438 0)"/>
     <use xlink:href="#DejaVuSans-Bold-76" transform="translate(730.175781 0)"/>
     <use xlink:href="#DejaVuSans-Bold-61" transform="translate(795.361328 0)"/>
     <use xlink:href="#DejaVuSans-Bold-6c" transform="translate(862.841797 0)"/>
     <use xlink:href="#DejaVuSans-Bold-20" transform="translate(897.119141 0)"/>
     <use xlink:href="#DejaVuSans-Bold-62" transform="translate(931.933594 0)"/>
     <use xlink:href="#DejaVuSans-Bold-79" transform="translate(1003.515625 0)"/>
     <use xlink:href="#DejaVuSans-Bold-20" transform="translate(1068.701172 0)"/>
     <use xlink:href="#DejaVuSans-Bold-48" transform="translate(1103.515625 0)"/>
     <use xlink:href="#DejaVuSans-Bold-6f" transform="translate(1187.207031 0)"/>
     <use xlink:href="#DejaVuSans-Bold-73" transform="translate(1255.908203 0)"/>
     <use xlink:href="#DejaVuSans-Bold-68" transform="translate(1315.429688 0)"/>
     <use xlink:href="#DejaVuSans-Bold-69" transform="translate(1386.621094 0)"/>
     <use xlink:href="#DejaVuSans-Bold-64" transform="translate(1420.898438 0)"/>
     <use xlink:href="#DejaVuSans-Bold-61" transform="translate(1492.480469 0)"/>
     <use xlink:href="#DejaVuSans-Bold-20" transform="translate(1559.960938 0)"/>
     <use xlink:href="#DejaVuSans-Bold-4d" transform="translate(1594.775391 0)"/>
     <use xlink:href="#DejaVuSans-Bold-6f" transform="translate(1694.287109 0)"/>
     <use xlink:href="#DejaVuSans-Bold-6c" transform="translate(1762.988281 0)"/>
     <use xlink:href="#DejaVuSans-Bold-65" transform="translate(1797.265625 0)"/>
     <use xlink:href="#DejaVuSans-Bold-63" transform="translate(1865.087891 0)"/>
     <use xlink:href="#DejaVuSans-Bold-75" transform="translate(1924.365234 0)"/>
     <use xlink:href="#DejaVuSans-Bold-6c" transform="translate(1995.556641 0)"/>
     <use xlink:href="#DejaVuSans-Bold-61" transform="translate(2029.833984 0)"/>
     <use xlink:href="#DejaVuSans-Bold-72" transform="translate(2097.314453 0)"/>
     <use xlink:href="#DejaVuSans-Bold-20" transform="translate(2146.630859 0)"/>
     <use xlink:href="#DejaVuSans-Bold-53" transform="translate(2181.445312 0)"/>
     <use xlink:href="#DejaVuSans-Bold-75" transform="translate(2253.466797 0)"/>
     <use xlink:href="#DejaVuSans-Bold-62" transform="translate(2324.658203 0)"/>
     <use xlink:href="#DejaVuSans-Bold-74" transform="translate(2396.240234 0)"/>
     <use xlink:href="#DejaVuSans-Bold-79" transform="translate(2444.042969 0)"/>
     <use xlink:href="#DejaVuSans-Bold-70" transform="translate(2509.228516 0)"/>
     <use xlink:href="#DejaVuSans-Bold-65" transform="translate(2580.810547 0)"/>
    </g>
    <!-- TCGA-LIHC -->
    <g transform="translate(234.097266 27.961813) scale(0.11 -0.11)">
     <defs>
      <path id="DejaVuSans-Bold-54" d="M 31 4666 
L 4331 4666 
L 4331 3756 
L 2784 3756 
L 2784 0 
L 1581 0 
L 1581 3756 
L 31 3756 
L 31 4666 
z
" transform="scale(0.015625)"/>
      <path id="DejaVuSans-Bold-43" d="M 4288 256 
Q 3956 84 3597 -3 
Q 3238 -91 2847 -91 
Q 1681 -91 1000 561 
Q 319 1213 319 2328 
Q 319 3447 1000 4098 
Q 1681 4750 2847 4750 
Q 3238 4750 3597 4662 
Q 3956 4575 4288 4403 
L 4288 3438 
Q 3953 3666 3628 3772 
Q 3303 3878 2944 3878 
Q 2300 3878 1931 3465 
Q 1563 3053 1563 2328 
Q 1563 1606 1931 1193 
Q 2300 781 2944 781 
Q 3303 781 3628 887 
Q 3953 994 4288 1222 
L 4288 256 
z
" transform="scale(0.015625)"/>
      <path id="DejaVuSans-Bold-47" d="M 4781 347 
Q 4331 128 3847 18 
Q 3363 -91 2847 -91 
Q 1681 -91 1000 561 
Q 319 1213 319 2328 
Q 319 3456 1012 4103 
Q 1706 4750 2913 4750 
Q 3378 4750 3804 4662 
Q 4231 4575 4609 4403 
L 4609 3438 
Q 4219 3659 3833 3768 
Q 3447 3878 3059 3878 
Q 2341 3878 1952 3476 
Q 1563 3075 1563 2328 
Q 1563 1588 1938 1184 
Q 2313 781 3003 781 
Q 3191 781 3352 804 
Q 3513 828 3641 878 
L 3641 1784 
L 2906 1784 
L 2906 2591 
L 4781 2591 
L 4781 347 
z
" transform="scale(0.015625)"/>
      <path id="DejaVuSans-Bold-41" d="M 3419 850 
L 1538 850 
L 1241 0 
L 31 0 
L 1759 4666 
L 3194 4666 
L 4922 0 
L 3713 0 
L 3419 850 
z
M 1838 1716 
L 3116 1716 
L 2478 3572 
L 1838 1716 
z
" transform="scale(0.015625)"/>
      <path id="DejaVuSans-Bold-2d" d="M 347 2297 
L 2309 2297 
L 2309 1388 
L 347 1388 
L 347 2297 
z
" transform="scale(0.015625)"/>
      <path id="DejaVuSans-Bold-4c" d="M 588 4666 
L 1791 4666 
L 1791 909 
L 3903 909 
L 3903 0 
L 588 0 
L 588 4666 
z
" transform="scale(0.015625)"/>
      <path id="DejaVuSans-Bold-49" d="M 588 4666 
L 1791 4666 
L 1791 0 
L 588 0 
L 588 4666 
z
" transform="scale(0.015625)"/>
     </defs>
     <use xlink:href="#DejaVuSans-Bold-54"/>
     <use xlink:href="#DejaVuSans-Bold-43" transform="translate(68.212891 0)"/>
     <use xlink:href="#DejaVuSans-Bold-47" transform="translate(141.601562 0)"/>
     <use xlink:href="#DejaVuSans-Bold-41" transform="translate(223.681641 0)"/>
     <use xlink:href="#DejaVuSans-Bold-2d" transform="translate(301.074219 0)"/>
     <use xlink:href="#DejaVuSans-Bold-4c" transform="translate(342.578125 0)"/>
     <use xlink:href="#DejaVuSans-Bold-49" transform="translate(406.298828 0)"/>
     <use xlink:href="#DejaVuSans-Bold-48" transform="translate(443.505859 0)"/>
     <use xlink:href="#DejaVuSans-Bold-43" transform="translate(527.197266 0)"/>
    </g>
   </g>
   <g id="legend_1">
    <g id="patch_6">
     <path d="M 51.749063 308.313813 
L 141.245938 308.313813 
Q 143.245938 308.313813 143.245938 306.313813 
L 143.245938 263.279438 
Q 143.245938 261.279438 141.245938 261.279438 
L 51.749063 261.279438 
Q 49.749063 261.279438 49.749063 263.279438 
L 49.749063 306.313813 
Q 49.749063 308.313813 51.749063 308.313813 
z
" style="fill: #ffffff; opacity: 0.8; stroke: #cccccc; stroke-linejoin: miter"/>
    </g>
    <g id="line2d_16">
     <path d="M 53.749063 269.377875 
L 63.749063 269.377875 
L 63.749063 269.377875 
L 73.749063 269.377875 
L 73.749063 269.377875 
" style="fill: none; stroke: #c0392b; stroke-width: 1.5; stroke-linecap: square"/>
    </g>
    <g id="text_17">
     <!-- S1 (n=129) -->
     <g transform="translate(81.749063 272.877875) scale(0.1 -0.1)">
      <defs>
       <path id="DejaVuSans-53" d="M 3425 4513 
L 3425 3897 
Q 3066 4069 2747 4153 
Q 2428 4238 2131 4238 
Q 1616 4238 1336 4038 
Q 1056 3838 1056 3469 
Q 1056 3159 1242 3001 
Q 1428 2844 1947 2747 
L 2328 2669 
Q 3034 2534 3370 2195 
Q 3706 1856 3706 1288 
Q 3706 609 3251 259 
Q 2797 -91 1919 -91 
Q 1588 -91 1214 -16 
Q 841 59 441 206 
L 441 856 
Q 825 641 1194 531 
Q 1563 422 1919 422 
Q 2459 422 2753 634 
Q 3047 847 3047 1241 
Q 3047 1584 2836 1778 
Q 2625 1972 2144 2069 
L 1759 2144 
Q 1053 2284 737 2584 
Q 422 2884 422 3419 
Q 422 4038 858 4394 
Q 1294 4750 2059 4750 
Q 2388 4750 2728 4690 
Q 3069 4631 3425 4513 
z
" transform="scale(0.015625)"/>
       <path id="DejaVuSans-39" d="M 703 97 
L 703 672 
Q 941 559 1184 500 
Q 1428 441 1663 441 
Q 2288 441 2617 861 
Q 2947 1281 2994 2138 
Q 2813 1869 2534 1725 
Q 2256 1581 1919 1581 
Q 1219 1581 811 2004 
Q 403 2428 403 3163 
Q 403 3881 828 4315 
Q 1253 4750 1959 4750 
Q 2769 4750 3195 4129 
Q 3622 3509 3622 2328 
Q 3622 1225 3098 567 
Q 2575 -91 1691 -91 
Q 1453 -91 1209 -44 
Q 966 3 703 97 
z
M 1959 2075 
Q 2384 2075 2632 2365 
Q 2881 2656 2881 3163 
Q 2881 3666 2632 3958 
Q 2384 4250 1959 4250 
Q 1534 4250 1286 3958 
Q 1038 3666 1038 3163 
Q 1038 2656 1286 2365 
Q 1534 2075 1959 2075 
z
" transform="scale(0.015625)"/>
      </defs>
      <use xlink:href="#DejaVuSans-53"/>
      <use xlink:href="#DejaVuSans-31" transform="translate(63.476562 0)"/>
      <use xlink:href="#DejaVuSans-20" transform="translate(127.099609 0)"/>
      <use xlink:href="#DejaVuSans-28" transform="translate(158.886719 0)"/>
      <use xlink:href="#DejaVuSans-6e" transform="translate(197.900391 0)"/>
      <use xlink:href="#DejaVuSans-3d" transform="translate(261.279297 0)"/>
      <use xlink:href="#DejaVuSans-31" transform="translate(345.068359 0)"/>
      <use xlink:href="#DejaVuSans-32" transform="translate(408.691406 0)"/>
      <use xlink:href="#DejaVuSans-39" transform="translate(472.314453 0)"/>
      <use xlink:href="#DejaVuSans-29" transform="translate(535.9375 0)"/>
     </g>
    </g>
    <g id="line2d_17">
     <path d="M 53.749063 284.056 
L 63.749063 284.056 
L 63.749063 284.056 
L 73.749063 284.056 
L 73.749063 284.056 
" style="fill: none; stroke: #e67e22; stroke-width: 1.5; stroke-linecap: square"/>
    </g>
    <g id="text_18">
     <!-- S2 (n=111) -->
     <g transform="translate(81.749063 287.556) scale(0.1 -0.1)">
      <use xlink:href="#DejaVuSans-53"/>
      <use xlink:href="#DejaVuSans-32" transform="translate(63.476562 0)"/>
      <use xlink:href="#DejaVuSans-20" transform="translate(127.099609 0)"/>
      <use xlink:href="#DejaVuSans-28" transform="translate(158.886719 0)"/>
      <use xlink:href="#DejaVuSans-6e" transform="translate(197.900391 0)"/>
      <use xlink:href="#DejaVuSans-3d" transform="translate(261.279297 0)"/>
      <use xlink:href="#DejaVuSans-31" transform="translate(345.068359 0)"/>
      <use xlink:href="#DejaVuSans-31" transform="translate(408.691406 0)"/>
      <use xlink:href="#DejaVuSans-31" transform="translate(472.314453 0)"/>
      <use xlink:href="#DejaVuSans-29" transform="translate(535.9375 0)"/>
     </g>
    </g>
    <g id="line2d_18">
     <path d="M 53.749063 298.734125 
L 63.749063 298.734125 
L 63.749063 298.734125 
L 73.749063 298.734125 
L 73.749063 298.734125 
" style="fill: none; stroke: #27ae60; stroke-width: 1.5; stroke-linecap: square"/>
    </g>
    <g id="text_19">
     <!-- S3 (n=131) -->
     <g transform="translate(81.749063 302.234125) scale(0.1 -0.1)">
      <defs>
       <path id="DejaVuSans-33" d="M 2597 2516 
Q 3050 2419 3304 2112 
Q 3559 1806 3559 1356 
Q 3559 666 3084 287 
Q 2609 -91 1734 -91 
Q 1441 -91 1130 -33 
Q 819 25 488 141 
L 488 750 
Q 750 597 1062 519 
Q 1375 441 1716 441 
Q 2309 441 2620 675 
Q 2931 909 2931 1356 
Q 2931 1769 2642 2001 
Q 2353 2234 1838 2234 
L 1294 2234 
L 1294 2753 
L 1863 2753 
Q 2328 2753 2575 2939 
Q 2822 3125 2822 3475 
Q 2822 3834 2567 4026 
Q 2313 4219 1838 4219 
Q 1578 4219 1281 4162 
Q 984 4106 628 3988 
L 628 4550 
Q 988 4650 1302 4700 
Q 1616 4750 1894 4750 
Q 2613 4750 3031 4423 
Q 3450 4097 3450 3541 
Q 3450 3153 3228 2886 
Q 3006 2619 2597 2516 
z
" transform="scale(0.015625)"/>
      </defs>
      <use xlink:href="#DejaVuSans-53"/>
      <use xlink:href="#DejaVuSans-33" transform="translate(63.476562 0)"/>
      <use xlink:href="#DejaVuSans-20" transform="translate(127.099609 0)"/>
      <use xlink:href="#DejaVuSans-28" transform="translate(158.886719 0)"/>
      <use xlink:href="#DejaVuSans-6e" transform="translate(197.900391 0)"/>
      <use xlink:href="#DejaVuSans-3d" transform="translate(261.279297 0)"/>
      <use xlink:href="#DejaVuSans-31" transform="translate(345.068359 0)"/>
      <use xlink:href="#DejaVuSans-33" transform="translate(408.691406 0)"/>
      <use xlink:href="#DejaVuSans-31" transform="translate(472.314453 0)"/>
      <use xlink:href="#DejaVuSans-29" transform="translate(535.9375 0)"/>
     </g>
    </g>
   </g>
  </g>
 </g>
 <defs>
  <clipPath id="p33f75aeb48">
   <rect x="44.749063" y="33.961813" width="444.76" height="279.352"/>
  </clipPath>
 </defs>
</svg>
