<?xml version="1.0" encoding="utf-8" standalone="no"?>
<!DOCTYPE svg PUBLIC "-//W3C//DTD SVG 1.1//EN"
  "http://www.w3.org/Graphics/SVG/1.1/DTD/svg11.dtd">
<svg xmlns:xlink="http://www.w3.org/1999/xlink" width="496.863984pt" height="352.801719pt" viewBox="0 0 496.863984 352.801719" xmlns="http://www.w3.org/2000/svg" version="1.1">
 <metadata>
  <rdf:RDF xmlns:dc="http://purl.org/dc/elements/1.1/" xmlns:cc="http://creativecommons.org/ns#" xmlns:rdf="http://www.w3.org/1999/02/22-rdf-syntax-ns#">
   <cc:Work>
    <dc:type rdf:resource="http://purl.org/dc/dcmitype/StillImage"/>
    <dc:date>2026-07-04T18:37:49.746975</dc:date>
    <dc:format>image/svg+xml</dc:format>
    <dc:creator>
     <cc:Agent>
      <dc:title>Matplotlib v3.11.0, https://matplotlib.org/</dc:title>
     </cc:Agent>
    </dc:creator>
   </cc:Work>
  </rdf:RDF>
 </metadata>
 <defs>
  <style type="text/css">*{stroke-linejoin: round; stroke-linecap: butt}</style>
 </defs>
 <g id="figure_1">
  <g id="patch_1">
   <path d="M 0 352.801719 
L 496.863984 352.801719 
L 496.863984 0 
L 0 0 
z
" style="fill: #ffffff"/>
  </g>
  <g id="axes_1">
   <g id="patch_2">
    <path d="M 45.103984 313.600859 
L 489.663984 313.600859 
L 489.663984 35.861504 
L 45.103984 35.861504 
z
" style="fill: #ffffff"/>
   </g>
   <g id="FillBetweenPolyCollection_1">
    <defs>
     <path id="mebc7212e96" d="M 65.311257 -303.714531 
L 65.311257 -303.714531 
L 65.971086 -303.714531 
L 65.971086 -303.714531 
L 66.301001 -303.714531 
L 66.301001 -286.657165 
L 66.630916 -286.657165 
L 66.630916 -286.657165 
L 67.510688 -286.657165 
L 67.510688 -286.657165 
L 68.610404 -286.657165 
L 68.610404 -286.657165 
L 68.720375 -286.657165 
L 68.720375 -284.118899 
L 71.029778 -284.118899 
L 71.029778 -280.816271 
L 71.469664 -280.816271 
L 71.469664 -277.44594 
L 72.459408 -277.44594 
L 72.459408 -274.10608 
L 72.679351 -274.10608 
L 72.679351 -270.815136 
L 74.878782 -270.815136 
L 74.878782 -267.574208 
L 75.318668 -267.574208 
L 75.318668 -264.380081 
L 75.978498 -264.380081 
L 75.978498 -261.228674 
L 76.418384 -261.228674 
L 76.418384 -258.116051 
L 76.528355 -258.116051 
L 76.528355 -255.038687 
L 76.638327 -255.038687 
L 76.638327 -251.993512 
L 79.497587 -251.993512 
L 79.497587 -248.977871 
L 80.707274 -248.977871 
L 80.707274 -245.98947 
L 82.136905 -245.98947 
L 82.136905 -243.026324 
L 85.436051 -243.026324 
L 85.436051 -243.026324 
L 86.75571 -243.026324 
L 86.75571 -240.041477 
L 88.845169 -240.041477 
L 88.845169 -237.08037 
L 92.47423 -237.08037 
L 92.47423 -234.141443 
L 94.123804 -234.141443 
L 94.123804 -231.223339 
L 95.223519 -231.223339 
L 95.223519 -228.324871 
L 97.862837 -228.324871 
L 97.862837 -225.444993 
L 98.192751 -225.444993 
L 98.192751 -222.582779 
L 98.302723 -222.582779 
L 98.302723 -219.737405 
L 98.632637 -219.737405 
L 98.632637 -216.908135 
L 98.742609 -216.908135 
L 98.742609 -214.09431 
L 99.952296 -214.09431 
L 99.952296 -211.295336 
L 100.722097 -211.295336 
L 100.722097 -211.295336 
L 101.271955 -211.295336 
L 101.271955 -211.295336 
L 101.601869 -211.295336 
L 101.601869 -211.295336 
L 103.141471 -211.295336 
L 103.141471 -208.36579 
L 104.791044 -208.36579 
L 104.791044 -208.36579 
L 105.010987 -208.36579 
L 105.010987 -208.36579 
L 105.230931 -208.36579 
L 105.230931 -208.36579 
L 106.330646 -208.36579 
L 106.330646 -205.235396 
L 107.32039 -205.235396 
L 107.32039 -205.235396 
L 109.189906 -205.235396 
L 109.189906 -205.235396 
L 109.959707 -205.235396 
L 109.959707 -205.235396 
L 110.399594 -205.235396 
L 110.399594 -201.941267 
L 110.619537 -201.941267 
L 110.619537 -198.67329 
L 110.949451 -198.67329 
L 110.949451 -195.430072 
L 112.049167 -195.430072 
L 112.049167 -192.142649 
L 114.138626 -192.142649 
L 114.138626 -192.142649 
L 114.688484 -192.142649 
L 114.688484 -192.142649 
L 116.777944 -192.142649 
L 116.777944 -192.142649 
L 118.757431 -192.142649 
L 118.757431 -192.142649 
L 120.297033 -192.142649 
L 120.297033 -192.142649 
L 122.386493 -192.142649 
L 122.386493 -192.142649 
L 126.345469 -192.142649 
L 126.345469 -192.142649 
L 127.115269 -192.142649 
L 127.115269 -192.142649 
L 127.335213 -192.142649 
L 127.335213 -192.142649 
L 128.434928 -192.142649 
L 128.434928 -192.142649 
L 131.514132 -192.142649 
L 131.514132 -192.142649 
L 132.943762 -192.142649 
L 132.943762 -192.142649 
L 134.26342 -192.142649 
L 134.26342 -187.780899 
L 134.813278 -187.780899 
L 134.813278 -187.780899 
L 134.92325 -187.780899 
L 134.92325 -183.358293 
L 135.583079 -183.358293 
L 135.583079 -178.999326 
L 137.672538 -178.999326 
L 137.672538 -178.999326 
L 137.892482 -178.999326 
L 137.892482 -174.567165 
L 138.112425 -174.567165 
L 138.112425 -174.567165 
L 140.091913 -174.567165 
L 140.091913 -174.567165 
L 142.071401 -174.567165 
L 142.071401 -174.567165 
L 142.951173 -174.567165 
L 142.951173 -174.567165 
L 143.501031 -174.567165 
L 143.501031 -169.575584 
L 144.930661 -169.575584 
L 144.930661 -164.6707 
L 149.439495 -164.6707 
L 149.439495 -159.846007 
L 157.357446 -159.846007 
L 157.357446 -155.096129 
L 158.567133 -155.096129 
L 158.567133 -155.096129 
L 158.677105 -155.096129 
L 158.677105 -155.096129 
L 159.226963 -155.096129 
L 159.226963 -155.096129 
L 161.976251 -155.096129 
L 161.976251 -155.096129 
L 164.175683 -155.096129 
L 164.175683 -149.304567 
L 165.38537 -149.304567 
L 165.38537 -149.304567 
L 166.15517 -149.304567 
L 166.15517 -149.304567 
L 167.364858 -149.304567 
L 167.364858 -149.304567 
L 167.694772 -149.304567 
L 167.694772 -142.69475 
L 174.073122 -142.69475 
L 174.073122 -142.69475 
L 178.581956 -142.69475 
L 178.581956 -142.69475 
L 186.060021 -142.69475 
L 186.060021 -142.69475 
L 190.128969 -142.69475 
L 190.128969 -134.96702 
L 191.668571 -134.96702 
L 191.668571 -127.538409 
L 200.686238 -127.538409 
L 200.686238 -127.538409 
L 213.222995 -127.538409 
L 213.222995 -127.538409 
L 216.192227 -127.538409 
L 216.192227 -119.158768 
L 218.941516 -119.158768 
L 218.941516 -111.166425 
L 229.16887 -111.166425 
L 229.16887 -103.526251 
L 236.097078 -103.526251 
L 236.097078 -103.526251 
L 255.672014 -103.526251 
L 255.672014 -103.526251 
L 260.950648 -103.526251 
L 260.950648 -103.526251 
L 263.699937 -103.526251 
L 263.699937 -103.526251 
L 318.355799 -103.526251 
L 318.355799 -103.526251 
L 320.115344 -103.526251 
L 320.115344 -103.526251 
L 320.885144 -103.526251 
L 320.885144 -103.526251 
L 331.992271 -103.526251 
L 331.992271 -103.526251 
L 333.861788 -103.526251 
L 333.861788 -103.526251 
L 335.291418 -103.526251 
L 335.291418 -103.526251 
L 338.700536 -103.526251 
L 338.700536 -58.652017 
L 365.313652 -58.652017 
L 365.313652 -58.652017 
L 469.456712 -58.652017 
L 469.456712 -58.652017 
L 469.456712 -165.572123 
L 469.456712 -165.572123 
L 469.456712 -165.572123 
L 365.313652 -165.572123 
L 365.313652 -165.572123 
L 338.700536 -165.572123 
L 338.700536 -172.747442 
L 335.291418 -172.747442 
L 335.291418 -172.747442 
L 333.861788 -172.747442 
L 333.861788 -172.747442 
L 331.992271 -172.747442 
L 331.992271 -172.747442 
L 320.885144 -172.747442 
L 320.885144 -172.747442 
L 320.115344 -172.747442 
L 320.115344 -172.747442 
L 318.355799 -172.747442 
L 318.355799 -172.747442 
L 263.699937 -172.747442 
L 263.699937 -172.747442 
L 260.950648 -172.747442 
L 260.950648 -172.747442 
L 255.672014 -172.747442 
L 255.672014 -172.747442 
L 236.097078 -172.747442 
L 236.097078 -172.747442 
L 229.16887 -172.747442 
L 229.16887 -179.424031 
L 218.941516 -179.424031 
L 218.941516 -185.876118 
L 216.192227 -185.876118 
L 216.192227 -192.08653 
L 213.222995 -192.08653 
L 213.222995 -192.08653 
L 200.686238 -192.08653 
L 200.686238 -192.08653 
L 191.668571 -192.08653 
L 191.668571 -197.703711 
L 190.128969 -197.703711 
L 190.128969 -203.136526 
L 186.060021 -203.136526 
L 186.060021 -203.136526 
L 178.581956 -203.136526 
L 178.581956 -203.136526 
L 174.073122 -203.136526 
L 174.073122 -203.136526 
L 167.694772 -203.136526 
L 167.694772 -207.995779 
L 167.364858 -207.995779 
L 167.364858 -207.995779 
L 166.15517 -207.995779 
L 166.15517 -207.995779 
L 165.38537 -207.995779 
L 165.38537 -207.995779 
L 164.175683 -207.995779 
L 164.175683 -212.406917 
L 161.976251 -212.406917 
L 161.976251 -212.406917 
L 159.226963 -212.406917 
L 159.226963 -212.406917 
L 158.677105 -212.406917 
L 158.677105 -212.406917 
L 158.567133 -212.406917 
L 158.567133 -212.406917 
L 157.357446 -212.406917 
L 157.357446 -216.287468 
L 149.439495 -216.287468 
L 149.439495 -220.118821 
L 144.930661 -220.118821 
L 144.930661 -223.898642 
L 143.501031 -223.898642 
L 143.501031 -227.624032 
L 142.951173 -227.624032 
L 142.951173 -227.624032 
L 142.071401 -227.624032 
L 142.071401 -227.624032 
L 140.091913 -227.624032 
L 140.091913 -227.624032 
L 138.112425 -227.624032 
L 138.112425 -227.624032 
L 137.892482 -227.624032 
L 137.892482 -231.042398 
L 137.672538 -231.042398 
L 137.672538 -231.042398 
L 135.583079 -231.042398 
L 135.583079 -234.363622 
L 134.92325 -234.363622 
L 134.92325 -237.644632 
L 134.813278 -237.644632 
L 134.813278 -237.644632 
L 134.26342 -237.644632 
L 134.26342 -240.833741 
L 132.943762 -240.833741 
L 132.943762 -240.833741 
L 131.514132 -240.833741 
L 131.514132 -240.833741 
L 128.434928 -240.833741 
L 128.434928 -240.833741 
L 127.335213 -240.833741 
L 127.335213 -240.833741 
L 127.115269 -240.833741 
L 127.115269 -240.833741 
L 126.345469 -240.833741 
L 126.345469 -240.833741 
L 122.386493 -240.833741 
L 122.386493 -240.833741 
L 120.297033 -240.833741 
L 120.297033 -240.833741 
L 118.757431 -240.833741 
L 118.757431 -240.833741 
L 116.777944 -240.833741 
L 116.777944 -240.833741 
L 114.688484 -240.833741 
L 114.688484 -240.833741 
L 114.138626 -240.833741 
L 114.138626 -240.833741 
L 112.049167 -240.833741 
L 112.049167 -243.49608 
L 110.949451 -243.49608 
L 110.949451 -246.105405 
L 110.619537 -246.105405 
L 110.619537 -248.695688 
L 110.399594 -248.695688 
L 110.399594 -251.2662 
L 109.959707 -251.2662 
L 109.959707 -251.2662 
L 109.189906 -251.2662 
L 109.189906 -251.2662 
L 107.32039 -251.2662 
L 107.32039 -251.2662 
L 106.330646 -251.2662 
L 106.330646 -253.727443 
L 105.230931 -253.727443 
L 105.230931 -253.727443 
L 105.010987 -253.727443 
L 105.010987 -253.727443 
L 104.791044 -253.727443 
L 104.791044 -253.727443 
L 103.141471 -253.727443 
L 103.141471 -256.06315 
L 101.601869 -256.06315 
L 101.601869 -256.06315 
L 101.271955 -256.06315 
L 101.271955 -256.06315 
L 100.722097 -256.06315 
L 100.722097 -256.06315 
L 99.952296 -256.06315 
L 99.952296 -258.309759 
L 98.742609 -258.309759 
L 98.742609 -260.541649 
L 98.632637 -260.541649 
L 98.632637 -262.758211 
L 98.302723 -262.758211 
L 98.302723 -264.958765 
L 98.192751 -264.958765 
L 98.192751 -267.142555 
L 97.862837 -267.142555 
L 97.862837 -269.308735 
L 95.223519 -269.308735 
L 95.223519 -271.45635 
L 94.123804 -271.45635 
L 94.123804 -273.584321 
L 92.47423 -273.584321 
L 92.47423 -275.691424 
L 88.845169 -275.691424 
L 88.845169 -277.776256 
L 86.75571 -277.776256 
L 86.75571 -279.8372 
L 85.436051 -279.8372 
L 85.436051 -279.8372 
L 82.136905 -279.8372 
L 82.136905 -281.854705 
L 80.707274 -281.854705 
L 80.707274 -283.845124 
L 79.497587 -283.845124 
L 79.497587 -285.805959 
L 76.638327 -285.805959 
L 76.638327 -287.734222 
L 76.528355 -287.734222 
L 76.528355 -289.626281 
L 76.418384 -289.626281 
L 76.418384 -291.477651 
L 75.978498 -291.477651 
L 75.978498 -293.282683 
L 75.318668 -293.282683 
L 75.318668 -295.034082 
L 74.878782 -295.034082 
L 74.878782 -296.722145 
L 72.679351 -296.722145 
L 72.679351 -298.333448 
L 72.459408 -298.333448 
L 72.459408 -299.84846 
L 71.469664 -299.84846 
L 71.469664 -301.236671 
L 71.029778 -301.236671 
L 71.029778 -302.445161 
L 68.720375 -302.445161 
L 68.720375 -303.3649 
L 68.610404 -303.3649 
L 68.610404 -303.3649 
L 67.510688 -303.3649 
L 67.510688 -303.3649 
L 66.630916 -303.3649 
L 66.630916 -303.3649 
L 66.301001 -303.3649 
L 66.301001 -303.714531 
L 65.971086 -303.714531 
L 65.971086 -303.714531 
L 65.311257 -303.714531 
z
" style="stroke: #c0392b; stroke-opacity: 0.12"/>
    </defs>
    <g clip-path="url(#p22d209da5e)">
     <use xlink:href="#mebc7212e96" x="0" y="352.801719" style="fill: #c0392b; fill-opacity: 0.12; stroke: #c0392b; stroke-opacity: 0.12"/>
    </g>
   </g>
   <g id="FillBetweenPolyCollection_2">
    <defs>
     <path id="m22b42affdd" d="M 65.311257 -303.714531 
L 65.311257 -303.714531 
L 66.96083 -303.714531 
L 66.96083 -303.714531 
L 67.070802 -303.714531 
L 67.070802 -266.260584 
L 67.62066 -266.260584 
L 67.62066 -266.260584 
L 71.469664 -266.260584 
L 71.469664 -261.046447 
L 77.078213 -261.046447 
L 77.078213 -254.097723 
L 79.497587 -254.097723 
L 79.497587 -247.012654 
L 84.116393 -247.012654 
L 84.116393 -233.149576 
L 89.175084 -233.149576 
L 89.175084 -226.416948 
L 92.584202 -226.416948 
L 92.584202 -226.416948 
L 95.99332 -226.416948 
L 95.99332 -219.543408 
L 99.182495 -219.543408 
L 99.182495 -212.815963 
L 101.381926 -212.815963 
L 101.381926 -212.815963 
L 103.471386 -212.815963 
L 103.471386 -205.941462 
L 105.560845 -205.941462 
L 105.560845 -199.209502 
L 108.640049 -199.209502 
L 108.640049 -192.605114 
L 109.299878 -192.605114 
L 109.299878 -192.605114 
L 109.959707 -192.605114 
L 109.959707 -192.605114 
L 110.17965 -192.605114 
L 110.17965 -192.605114 
L 110.289622 -192.605114 
L 110.289622 -192.605114 
L 115.018399 -192.605114 
L 115.018399 -184.774774 
L 126.015554 -184.774774 
L 126.015554 -184.774774 
L 126.345469 -184.774774 
L 126.345469 -176.751293 
L 129.864558 -176.751293 
L 129.864558 -176.751293 
L 142.401315 -176.751293 
L 142.401315 -176.751293 
L 148.559722 -176.751293 
L 148.559722 -167.996655 
L 153.508442 -167.996655 
L 153.508442 -159.544456 
L 156.257731 -159.544456 
L 156.257731 -151.35745 
L 164.065711 -151.35745 
L 164.065711 -151.35745 
L 164.945483 -151.35745 
L 164.945483 -151.35745 
L 167.034943 -151.35745 
L 167.034943 -151.35745 
L 175.832667 -151.35745 
L 175.832667 -141.406366 
L 176.162582 -141.406366 
L 176.162582 -141.406366 
L 184.630391 -141.406366 
L 184.630391 -141.406366 
L 193.75803 -141.406366 
L 193.75803 -141.406366 
L 201.895925 -141.406366 
L 201.895925 -141.406366 
L 205.0851 -141.406366 
L 205.0851 -127.212917 
L 208.494218 -127.212917 
L 208.494218 -127.212917 
L 213.882824 -127.212917 
L 213.882824 -127.212917 
L 221.910747 -127.212917 
L 221.910747 -127.212917 
L 229.718728 -127.212917 
L 229.718728 -127.212917 
L 232.02813 -127.212917 
L 232.02813 -127.212917 
L 265.789397 -127.212917 
L 265.789397 -127.212917 
L 268.978572 -127.212917 
L 268.978572 -89.814812 
L 335.401389 -89.814812 
L 335.401389 -65.616528 
L 367.293139 -65.616528 
L 367.293139 -65.616528 
L 423.598574 -65.616528 
L 423.598574 -42.483963 
L 443.283482 -42.483963 
L 443.283482 -42.483963 
L 443.283482 -157.912083 
L 443.283482 -157.912083 
L 443.283482 -157.912083 
L 423.598574 -157.912083 
L 423.598574 -183.427282 
L 367.293139 -183.427282 
L 367.293139 -183.427282 
L 335.401389 -183.427282 
L 335.401389 -202.262944 
L 268.978572 -202.262944 
L 268.978572 -214.835541 
L 265.789397 -214.835541 
L 265.789397 -214.835541 
L 232.02813 -214.835541 
L 232.02813 -214.835541 
L 229.718728 -214.835541 
L 229.718728 -214.835541 
L 221.910747 -214.835541 
L 221.910747 -214.835541 
L 213.882824 -214.835541 
L 213.882824 -214.835541 
L 208.494218 -214.835541 
L 208.494218 -214.835541 
L 205.0851 -214.835541 
L 205.0851 -223.933226 
L 201.895925 -223.933226 
L 201.895925 -223.933226 
L 193.75803 -223.933226 
L 193.75803 -223.933226 
L 184.630391 -223.933226 
L 184.630391 -223.933226 
L 176.162582 -223.933226 
L 176.162582 -223.933226 
L 175.832667 -223.933226 
L 175.832667 -231.35862 
L 167.034943 -231.35862 
L 167.034943 -231.35862 
L 164.945483 -231.35862 
L 164.945483 -231.35862 
L 164.065711 -231.35862 
L 164.065711 -231.35862 
L 156.257731 -231.35862 
L 156.257731 -237.858974 
L 153.508442 -237.858974 
L 153.508442 -244.191361 
L 148.559722 -244.191361 
L 148.559722 -250.344445 
L 142.401315 -250.344445 
L 142.401315 -250.344445 
L 129.864558 -250.344445 
L 129.864558 -250.344445 
L 126.345469 -250.344445 
L 126.345469 -256.004122 
L 126.015554 -256.004122 
L 126.015554 -256.004122 
L 115.018399 -256.004122 
L 115.018399 -261.371973 
L 110.289622 -261.371973 
L 110.289622 -261.371973 
L 110.17965 -261.371973 
L 110.17965 -261.371973 
L 109.959707 -261.371973 
L 109.959707 -261.371973 
L 109.299878 -261.371973 
L 109.299878 -261.371973 
L 108.640049 -261.371973 
L 108.640049 -266.139732 
L 105.560845 -266.139732 
L 105.560845 -270.791894 
L 103.471386 -270.791894 
L 103.471386 -275.317051 
L 101.381926 -275.317051 
L 101.381926 -275.317051 
L 99.182495 -275.317051 
L 99.182495 -279.618169 
L 95.99332 -279.618169 
L 95.99332 -283.770071 
L 92.584202 -283.770071 
L 92.584202 -283.770071 
L 89.175084 -283.770071 
L 89.175084 -287.682216 
L 84.116393 -287.682216 
L 84.116393 -294.88576 
L 79.497587 -294.88576 
L 79.497587 -298.06514 
L 77.078213 -298.06514 
L 77.078213 -300.822115 
L 71.469664 -300.822115 
L 71.469664 -302.914446 
L 67.62066 -302.914446 
L 67.62066 -302.914446 
L 67.070802 -302.914446 
L 67.070802 -303.714531 
L 66.96083 -303.714531 
L 66.96083 -303.714531 
L 65.311257 -303.714531 
z
" style="stroke: #e67e22; stroke-opacity: 0.12"/>
    </defs>
    <g clip-path="url(#p22d209da5e)">
     <use xlink:href="#m22b42affdd" x="0" y="352.801719" style="fill: #e67e22; fill-opacity: 0.12; stroke: #e67e22; stroke-opacity: 0.12"/>
    </g>
   </g>
   <g id="FillBetweenPolyCollection_3">
    <defs>
     <path id="m10b37a6e78" d="M 65.311257 -303.714531 
L 65.311257 -303.714531 
L 65.421229 -303.714531 
L 65.421229 -303.714531 
L 66.19103 -303.714531 
L 66.19103 -303.714531 
L 66.301001 -303.714531 
L 66.301001 -303.714531 
L 66.410973 -303.714531 
L 66.410973 -303.714531 
L 66.520944 -303.714531 
L 66.520944 -294.375486 
L 66.630916 -294.375486 
L 66.630916 -293.191919 
L 66.850859 -293.191919 
L 66.850859 -291.484639 
L 67.400717 -291.484639 
L 67.400717 -289.71477 
L 67.510688 -289.71477 
L 67.510688 -289.71477 
L 67.730631 -289.71477 
L 67.730631 -289.71477 
L 68.280489 -289.71477 
L 68.280489 -287.916693 
L 69.05029 -287.916693 
L 69.05029 -286.142637 
L 69.270233 -286.142637 
L 69.270233 -284.39319 
L 70.150005 -284.39319 
L 70.150005 -284.39319 
L 70.369949 -284.39319 
L 70.369949 -282.652667 
L 72.459408 -282.652667 
L 72.459408 -280.934153 
L 73.99901 -280.934153 
L 73.99901 -280.934153 
L 75.318668 -280.934153 
L 75.318668 -279.22197 
L 75.648583 -279.22197 
L 75.648583 -279.22197 
L 77.957986 -279.22197 
L 77.957986 -277.515073 
L 80.37736 -277.515073 
L 80.37736 -277.515073 
L 80.817246 -277.515073 
L 80.817246 -277.515073 
L 84.006421 -277.515073 
L 84.006421 -277.515073 
L 85.106136 -277.515073 
L 85.106136 -277.515073 
L 86.645738 -277.515073 
L 86.645738 -275.772085 
L 88.515255 -275.772085 
L 88.515255 -275.772085 
L 89.395027 -275.772085 
L 89.395027 -275.772085 
L 89.834913 -275.772085 
L 89.834913 -274.020062 
L 90.494743 -274.020062 
L 90.494743 -274.020062 
L 90.934629 -274.020062 
L 90.934629 -272.271891 
L 92.804145 -272.271891 
L 92.804145 -272.271891 
L 93.903861 -272.271891 
L 93.903861 -272.271891 
L 94.123804 -272.271891 
L 94.123804 -270.512422 
L 95.883349 -270.512422 
L 95.883349 -268.768714 
L 96.433206 -268.768714 
L 96.433206 -267.039225 
L 97.312979 -267.039225 
L 97.312979 -267.039225 
L 98.632637 -267.039225 
L 98.632637 -267.039225 
L 99.842324 -267.039225 
L 99.842324 -267.039225 
L 102.811556 -267.039225 
L 102.811556 -267.039225 
L 103.251443 -267.039225 
L 103.251443 -267.039225 
L 103.471386 -267.039225 
L 103.471386 -267.039225 
L 103.691329 -267.039225 
L 103.691329 -265.237924 
L 104.241187 -265.237924 
L 104.241187 -265.237924 
L 104.571101 -265.237924 
L 104.571101 -265.237924 
L 104.791044 -265.237924 
L 104.791044 -263.421612 
L 105.010987 -263.421612 
L 105.010987 -263.421612 
L 105.450874 -263.421612 
L 105.450874 -261.604585 
L 105.560845 -261.604585 
L 105.560845 -261.604585 
L 106.220675 -261.604585 
L 106.220675 -261.604585 
L 107.210419 -261.604585 
L 107.210419 -259.754854 
L 107.870248 -259.754854 
L 107.870248 -259.754854 
L 108.200162 -259.754854 
L 108.200162 -259.754854 
L 108.75002 -259.754854 
L 108.75002 -259.754854 
L 108.859992 -259.754854 
L 108.859992 -259.754854 
L 110.619537 -259.754854 
L 110.619537 -259.754854 
L 111.059423 -259.754854 
L 111.059423 -257.802682 
L 111.389337 -257.802682 
L 111.389337 -255.866744 
L 111.829224 -255.866744 
L 111.829224 -255.866744 
L 112.049167 -255.866744 
L 112.049167 -255.866744 
L 112.26911 -255.866744 
L 112.26911 -255.866744 
L 112.599025 -255.866744 
L 112.599025 -255.866744 
L 112.818968 -255.866744 
L 112.818968 -253.873788 
L 113.258854 -253.873788 
L 113.258854 -253.873788 
L 113.478797 -253.873788 
L 113.478797 -251.877886 
L 114.468541 -251.877886 
L 114.468541 -251.877886 
L 115.12837 -251.877886 
L 115.12837 -251.877886 
L 115.678228 -251.877886 
L 115.678228 -251.877886 
L 116.887915 -251.877886 
L 116.887915 -249.839271 
L 117.21783 -249.839271 
L 117.21783 -249.839271 
L 117.437773 -249.839271 
L 117.437773 -249.839271 
L 117.657716 -249.839271 
L 117.657716 -249.839271 
L 117.877659 -249.839271 
L 117.877659 -249.839271 
L 118.097602 -249.839271 
L 118.097602 -249.839271 
L 121.066834 -249.839271 
L 121.066834 -249.839271 
L 121.616692 -249.839271 
L 121.616692 -249.839271 
L 122.496464 -249.839271 
L 122.496464 -249.839271 
L 124.146038 -249.839271 
L 124.146038 -247.62334 
L 124.475952 -247.62334 
L 124.475952 -247.62334 
L 125.465696 -247.62334 
L 125.465696 -245.403774 
L 126.235497 -245.403774 
L 126.235497 -245.403774 
L 126.345469 -245.403774 
L 126.345469 -245.403774 
L 126.45544 -245.403774 
L 126.45544 -243.154969 
L 126.675383 -243.154969 
L 126.675383 -240.924835 
L 127.555156 -240.924835 
L 127.555156 -240.924835 
L 127.995042 -240.924835 
L 127.995042 -240.924835 
L 128.5449 -240.924835 
L 128.5449 -240.924835 
L 128.984786 -240.924835 
L 128.984786 -240.924835 
L 129.204729 -240.924835 
L 129.204729 -238.610386 
L 129.644615 -238.610386 
L 129.644615 -238.610386 
L 129.97453 -238.610386 
L 129.97453 -238.610386 
L 130.634359 -238.610386 
L 130.634359 -238.610386 
L 130.854302 -238.610386 
L 130.854302 -236.232808 
L 131.40416 -236.232808 
L 131.40416 -233.874822 
L 132.173961 -233.874822 
L 132.173961 -233.874822 
L 132.613847 -233.874822 
L 132.613847 -231.447846 
L 133.603591 -231.447846 
L 133.603591 -231.447846 
L 134.593335 -231.447846 
L 134.593335 -231.447846 
L 134.703307 -231.447846 
L 134.703307 -231.447846 
L 135.253164 -231.447846 
L 135.253164 -231.447846 
L 135.473107 -231.447846 
L 135.473107 -231.447846 
L 135.693051 -231.447846 
L 135.693051 -231.447846 
L 136.022965 -231.447846 
L 136.022965 -228.846297 
L 136.132937 -228.846297 
L 136.132937 -228.846297 
L 136.682794 -228.846297 
L 136.682794 -226.232948 
L 137.342624 -226.232948 
L 137.342624 -226.232948 
L 139.102169 -226.232948 
L 139.102169 -226.232948 
L 139.21214 -226.232948 
L 139.21214 -226.232948 
L 140.971685 -226.232948 
L 140.971685 -223.531359 
L 141.521543 -223.531359 
L 141.521543 -220.853941 
L 141.961429 -220.853941 
L 141.961429 -220.853941 
L 142.071401 -220.853941 
L 142.071401 -220.853941 
L 144.380803 -220.853941 
L 144.380803 -220.853941 
L 144.710718 -220.853941 
L 144.710718 -220.853941 
L 145.370547 -220.853941 
L 145.370547 -220.853941 
L 145.480519 -220.853941 
L 145.480519 -220.853941 
L 147.130092 -220.853941 
L 147.130092 -220.853941 
L 147.460007 -220.853941 
L 147.460007 -220.853941 
L 148.449751 -220.853941 
L 148.449751 -220.853941 
L 149.219551 -220.853941 
L 149.219551 -220.853941 
L 149.769409 -220.853941 
L 149.769409 -217.702507 
L 149.989352 -217.702507 
L 149.989352 -214.587926 
L 151.089068 -214.587926 
L 151.089068 -214.587926 
L 151.309011 -214.587926 
L 151.309011 -214.587926 
L 151.528954 -214.587926 
L 151.528954 -214.587926 
L 153.178527 -214.587926 
L 153.178527 -214.587926 
L 154.388214 -214.587926 
L 154.388214 -214.587926 
L 155.048044 -214.587926 
L 155.048044 -214.587926 
L 155.377958 -214.587926 
L 155.377958 -214.587926 
L 156.477674 -214.587926 
L 156.477674 -214.587926 
L 157.357446 -214.587926 
L 157.357446 -211.021829 
L 158.567133 -211.021829 
L 158.567133 -207.50535 
L 159.886792 -207.50535 
L 159.886792 -207.50535 
L 164.065711 -207.50535 
L 164.065711 -207.50535 
L 168.904459 -207.50535 
L 168.904459 -207.50535 
L 169.894203 -207.50535 
L 169.894203 -207.50535 
L 180.671415 -207.50535 
L 180.671415 -207.50535 
L 182.540932 -207.50535 
L 182.540932 -207.50535 
L 182.650903 -207.50535 
L 182.650903 -207.50535 
L 184.630391 -207.50535 
L 184.630391 -207.50535 
L 184.960306 -207.50535 
L 184.960306 -203.382417 
L 185.290221 -203.382417 
L 185.290221 -203.382417 
L 191.228684 -203.382417 
L 191.228684 -203.382417 
L 191.448627 -203.382417 
L 191.448627 -199.130571 
L 198.376835 -199.130571 
L 198.376835 -194.952116 
L 199.366579 -194.952116 
L 199.366579 -194.952116 
L 200.466295 -194.952116 
L 200.466295 -190.733554 
L 200.906181 -190.733554 
L 200.906181 -190.733554 
L 201.785953 -190.733554 
L 201.785953 -190.733554 
L 207.724417 -190.733554 
L 207.724417 -190.733554 
L 215.202483 -190.733554 
L 215.202483 -190.733554 
L 217.731828 -190.733554 
L 217.731828 -186.096787 
L 221.800776 -186.096787 
L 221.800776 -181.543854 
L 224.770008 -181.543854 
L 224.770008 -181.543854 
L 224.989951 -181.543854 
L 224.989951 -181.543854 
L 233.677704 -181.543854 
L 233.677704 -181.543854 
L 236.866879 -181.543854 
L 236.866879 -176.462302 
L 237.086822 -176.462302 
L 237.086822 -176.462302 
L 237.636679 -176.462302 
L 237.636679 -176.462302 
L 243.245229 -176.462302 
L 243.245229 -176.462302 
L 243.685115 -176.462302 
L 243.685115 -170.918507 
L 243.905058 -170.918507 
L 243.905058 -165.502922 
L 244.894802 -165.502922 
L 244.894802 -165.502922 
L 245.224717 -165.502922 
L 245.224717 -165.502922 
L 250.613323 -165.502922 
L 250.613323 -159.751499 
L 251.603067 -159.751499 
L 251.603067 -154.134933 
L 253.472583 -154.134933 
L 253.472583 -154.134933 
L 254.242384 -154.134933 
L 254.242384 -154.134933 
L 262.270307 -154.134933 
L 262.270307 -148.102669 
L 269.308486 -148.102669 
L 269.308486 -148.102669 
L 271.617889 -148.102669 
L 271.617889 -148.102669 
L 274.257206 -148.102669 
L 274.257206 -148.102669 
L 278.546097 -148.102669 
L 278.546097 -148.102669 
L 281.955215 -148.102669 
L 281.955215 -148.102669 
L 284.044674 -148.102669 
L 284.044674 -148.102669 
L 286.903935 -148.102669 
L 286.903935 -148.102669 
L 287.123878 -148.102669 
L 287.123878 -148.102669 
L 288.333565 -148.102669 
L 288.333565 -148.102669 
L 296.47146 -148.102669 
L 296.47146 -148.102669 
L 298.011062 -148.102669 
L 298.011062 -136.830534 
L 299.660635 -136.830534 
L 299.660635 -126.383076 
L 305.489127 -126.383076 
L 305.489127 -126.383076 
L 307.468615 -126.383076 
L 307.468615 -126.383076 
L 312.197392 -126.383076 
L 312.197392 -126.383076 
L 318.355799 -126.383076 
L 318.355799 -126.383076 
L 329.023039 -126.383076 
L 329.023039 -126.383076 
L 330.562641 -126.383076 
L 330.562641 -126.383076 
L 330.892556 -126.383076 
L 330.892556 -126.383076 
L 341.669768 -126.383076 
L 341.669768 -126.383076 
L 343.759227 -126.383076 
L 343.759227 -96.096383 
L 344.858943 -96.096383 
L 344.858943 -74.530841 
L 367.952969 -74.530841 
L 367.952969 -74.530841 
L 408.972358 -74.530841 
L 408.972358 -52.187122 
L 429.097152 -52.187122 
L 429.097152 -52.187122 
L 447.792316 -52.187122 
L 447.792316 -52.187122 
L 447.792316 -154.30546 
L 447.792316 -154.30546 
L 447.792316 -154.30546 
L 429.097152 -154.30546 
L 429.097152 -154.30546 
L 408.972358 -154.30546 
L 408.972358 -171.944977 
L 367.952969 -171.944977 
L 367.952969 -171.944977 
L 344.858943 -171.944977 
L 344.858943 -185.31567 
L 343.759227 -185.31567 
L 343.759227 -193.66771 
L 341.669768 -193.66771 
L 341.669768 -193.66771 
L 330.892556 -193.66771 
L 330.892556 -193.66771 
L 330.562641 -193.66771 
L 330.562641 -193.66771 
L 329.023039 -193.66771 
L 329.023039 -193.66771 
L 318.355799 -193.66771 
L 318.355799 -193.66771 
L 312.197392 -193.66771 
L 312.197392 -193.66771 
L 307.468615 -193.66771 
L 307.468615 -193.66771 
L 305.489127 -193.66771 
L 305.489127 -193.66771 
L 299.660635 -193.66771 
L 299.660635 -200.150438 
L 298.011062 -200.150438 
L 298.011062 -206.131562 
L 296.47146 -206.131562 
L 296.47146 -206.131562 
L 288.333565 -206.131562 
L 288.333565 -206.131562 
L 287.123878 -206.131562 
L 287.123878 -206.131562 
L 286.903935 -206.131562 
L 286.903935 -206.131562 
L 284.044674 -206.131562 
L 284.044674 -206.131562 
L 281.955215 -206.131562 
L 281.955215 -206.131562 
L 278.546097 -206.131562 
L 278.546097 -206.131562 
L 274.257206 -206.131562 
L 274.257206 -206.131562 
L 271.617889 -206.131562 
L 271.617889 -206.131562 
L 269.308486 -206.131562 
L 269.308486 -206.131562 
L 262.270307 -206.131562 
L 262.270307 -210.59657 
L 254.242384 -210.59657 
L 254.242384 -210.59657 
L 253.472583 -210.59657 
L 253.472583 -210.59657 
L 251.603067 -210.59657 
L 251.603067 -214.774384 
L 250.613323 -214.774384 
L 250.613323 -218.868713 
L 245.224717 -218.868713 
L 245.224717 -218.868713 
L 244.894802 -218.868713 
L 244.894802 -218.868713 
L 243.905058 -218.868713 
L 243.905058 -222.722052 
L 243.685115 -222.722052 
L 243.685115 -226.497316 
L 243.245229 -226.497316 
L 243.245229 -226.497316 
L 237.636679 -226.497316 
L 237.636679 -226.497316 
L 237.086822 -226.497316 
L 237.086822 -226.497316 
L 236.866879 -226.497316 
L 236.866879 -230.00529 
L 233.677704 -230.00529 
L 233.677704 -230.00529 
L 224.989951 -230.00529 
L 224.989951 -230.00529 
L 224.770008 -230.00529 
L 224.770008 -230.00529 
L 221.800776 -230.00529 
L 221.800776 -233.235146 
L 217.731828 -233.235146 
L 217.731828 -236.414087 
L 215.202483 -236.414087 
L 215.202483 -236.414087 
L 207.724417 -236.414087 
L 207.724417 -236.414087 
L 201.785953 -236.414087 
L 201.785953 -236.414087 
L 200.906181 -236.414087 
L 200.906181 -236.414087 
L 200.466295 -236.414087 
L 200.466295 -239.366818 
L 199.366579 -239.366818 
L 199.366579 -239.366818 
L 198.376835 -239.366818 
L 198.376835 -242.237744 
L 191.448627 -242.237744 
L 191.448627 -245.0649 
L 191.228684 -245.0649 
L 191.228684 -245.0649 
L 185.290221 -245.0649 
L 185.290221 -245.0649 
L 184.960306 -245.0649 
L 184.960306 -247.777442 
L 184.630391 -247.777442 
L 184.630391 -247.777442 
L 182.650903 -247.777442 
L 182.650903 -247.777442 
L 182.540932 -247.777442 
L 182.540932 -247.777442 
L 180.671415 -247.777442 
L 180.671415 -247.777442 
L 169.894203 -247.777442 
L 169.894203 -247.777442 
L 168.904459 -247.777442 
L 168.904459 -247.777442 
L 164.065711 -247.777442 
L 164.065711 -247.777442 
L 159.886792 -247.777442 
L 159.886792 -247.777442 
L 158.567133 -247.777442 
L 158.567133 -250.213412 
L 157.357446 -250.213412 
L 157.357446 -252.619683 
L 156.477674 -252.619683 
L 156.477674 -252.619683 
L 155.377958 -252.619683 
L 155.377958 -252.619683 
L 155.048044 -252.619683 
L 155.048044 -252.619683 
L 154.388214 -252.619683 
L 154.388214 -252.619683 
L 153.178527 -252.619683 
L 153.178527 -252.619683 
L 151.528954 -252.619683 
L 151.528954 -252.619683 
L 151.309011 -252.619683 
L 151.309011 -252.619683 
L 151.089068 -252.619683 
L 151.089068 -252.619683 
L 149.989352 -252.619683 
L 149.989352 -254.809149 
L 149.769409 -254.809149 
L 149.769409 -256.976232 
L 149.219551 -256.976232 
L 149.219551 -256.976232 
L 148.449751 -256.976232 
L 148.449751 -256.976232 
L 147.460007 -256.976232 
L 147.460007 -256.976232 
L 147.130092 -256.976232 
L 147.130092 -256.976232 
L 145.480519 -256.976232 
L 145.480519 -256.976232 
L 145.370547 -256.976232 
L 145.370547 -256.976232 
L 144.710718 -256.976232 
L 144.710718 -256.976232 
L 144.380803 -256.976232 
L 144.380803 -256.976232 
L 142.071401 -256.976232 
L 142.071401 -256.976232 
L 141.961429 -256.976232 
L 141.961429 -256.976232 
L 141.521543 -256.976232 
L 141.521543 -258.916218 
L 140.971685 -258.916218 
L 140.971685 -260.840754 
L 139.21214 -260.840754 
L 139.21214 -260.840754 
L 139.102169 -260.840754 
L 139.102169 -260.840754 
L 137.342624 -260.840754 
L 137.342624 -260.840754 
L 136.682794 -260.840754 
L 136.682794 -262.701904 
L 136.132937 -262.701904 
L 136.132937 -262.701904 
L 136.022965 -262.701904 
L 136.022965 -264.532849 
L 135.693051 -264.532849 
L 135.693051 -264.532849 
L 135.473107 -264.532849 
L 135.473107 -264.532849 
L 135.253164 -264.532849 
L 135.253164 -264.532849 
L 134.703307 -264.532849 
L 134.703307 -264.532849 
L 134.593335 -264.532849 
L 134.593335 -264.532849 
L 133.603591 -264.532849 
L 133.603591 -264.532849 
L 132.613847 -264.532849 
L 132.613847 -266.265723 
L 132.173961 -266.265723 
L 132.173961 -266.265723 
L 131.40416 -266.265723 
L 131.40416 -267.947435 
L 130.854302 -267.947435 
L 130.854302 -269.616359 
L 130.634359 -269.616359 
L 130.634359 -269.616359 
L 129.97453 -269.616359 
L 129.97453 -269.616359 
L 129.644615 -269.616359 
L 129.644615 -269.616359 
L 129.204729 -269.616359 
L 129.204729 -271.237157 
L 128.984786 -271.237157 
L 128.984786 -271.237157 
L 128.5449 -271.237157 
L 128.5449 -271.237157 
L 127.995042 -271.237157 
L 127.995042 -271.237157 
L 127.555156 -271.237157 
L 127.555156 -271.237157 
L 126.675383 -271.237157 
L 126.675383 -272.80183 
L 126.45544 -272.80183 
L 126.45544 -274.354231 
L 126.345469 -274.354231 
L 126.345469 -274.354231 
L 126.235497 -274.354231 
L 126.235497 -274.354231 
L 125.465696 -274.354231 
L 125.465696 -275.87381 
L 124.475952 -275.87381 
L 124.475952 -275.87381 
L 124.146038 -275.87381 
L 124.146038 -277.370784 
L 122.496464 -277.370784 
L 122.496464 -277.370784 
L 121.616692 -277.370784 
L 121.616692 -277.370784 
L 121.066834 -277.370784 
L 121.066834 -277.370784 
L 118.097602 -277.370784 
L 118.097602 -277.370784 
L 117.877659 -277.370784 
L 117.877659 -277.370784 
L 117.657716 -277.370784 
L 117.657716 -277.370784 
L 117.437773 -277.370784 
L 117.437773 -277.370784 
L 117.21783 -277.370784 
L 117.21783 -277.370784 
L 116.887915 -277.370784 
L 116.887915 -278.775481 
L 115.678228 -278.775481 
L 115.678228 -278.775481 
L 115.12837 -278.775481 
L 115.12837 -278.775481 
L 114.468541 -278.775481 
L 114.468541 -278.775481 
L 113.478797 -278.775481 
L 113.478797 -280.144705 
L 113.258854 -280.144705 
L 113.258854 -280.144705 
L 112.818968 -280.144705 
L 112.818968 -281.494924 
L 112.599025 -281.494924 
L 112.599025 -281.494924 
L 112.26911 -281.494924 
L 112.26911 -281.494924 
L 112.049167 -281.494924 
L 112.049167 -281.494924 
L 111.829224 -281.494924 
L 111.829224 -281.494924 
L 111.389337 -281.494924 
L 111.389337 -282.80413 
L 111.059423 -282.80413 
L 111.059423 -284.101787 
L 110.619537 -284.101787 
L 110.619537 -284.101787 
L 108.859992 -284.101787 
L 108.859992 -284.101787 
L 108.75002 -284.101787 
L 108.75002 -284.101787 
L 108.200162 -284.101787 
L 108.200162 -284.101787 
L 107.870248 -284.101787 
L 107.870248 -284.101787 
L 107.210419 -284.101787 
L 107.210419 -285.340909 
L 106.220675 -285.340909 
L 106.220675 -285.340909 
L 105.560845 -285.340909 
L 105.560845 -285.340909 
L 105.450874 -285.340909 
L 105.450874 -286.55012 
L 105.010987 -286.55012 
L 105.010987 -286.55012 
L 104.791044 -286.55012 
L 104.791044 -287.741815 
L 104.571101 -287.741815 
L 104.571101 -287.741815 
L 104.241187 -287.741815 
L 104.241187 -287.741815 
L 103.691329 -287.741815 
L 103.691329 -288.90986 
L 103.471386 -288.90986 
L 103.471386 -288.90986 
L 103.251443 -288.90986 
L 103.251443 -288.90986 
L 102.811556 -288.90986 
L 102.811556 -288.90986 
L 99.842324 -288.90986 
L 99.842324 -288.90986 
L 98.632637 -288.90986 
L 98.632637 -288.90986 
L 97.312979 -288.90986 
L 97.312979 -288.90986 
L 96.433206 -288.90986 
L 96.433206 -290.033007 
L 95.883349 -290.033007 
L 95.883349 -291.143612 
L 94.123804 -291.143612 
L 94.123804 -292.240528 
L 93.903861 -292.240528 
L 93.903861 -292.240528 
L 92.804145 -292.240528 
L 92.804145 -292.240528 
L 90.934629 -292.240528 
L 90.934629 -293.312895 
L 90.494743 -293.312895 
L 90.494743 -293.312895 
L 89.834913 -293.312895 
L 89.834913 -294.364609 
L 89.395027 -294.364609 
L 89.395027 -294.364609 
L 88.515255 -294.364609 
L 88.515255 -294.364609 
L 86.645738 -294.364609 
L 86.645738 -295.389971 
L 85.106136 -295.389971 
L 85.106136 -295.389971 
L 84.006421 -295.389971 
L 84.006421 -295.389971 
L 80.817246 -295.389971 
L 80.817246 -295.389971 
L 80.37736 -295.389971 
L 80.37736 -295.389971 
L 77.957986 -295.389971 
L 77.957986 -296.379713 
L 75.648583 -296.379713 
L 75.648583 -296.379713 
L 75.318668 -296.379713 
L 75.318668 -297.344964 
L 73.99901 -297.344964 
L 73.99901 -297.344964 
L 72.459408 -297.344964 
L 72.459408 -298.283179 
L 70.369949 -298.283179 
L 70.369949 -299.194459 
L 70.150005 -299.194459 
L 70.150005 -299.194459 
L 69.270233 -299.194459 
L 69.270233 -300.070459 
L 69.05029 -300.070459 
L 69.05029 -300.907771 
L 68.280489 -300.907771 
L 68.280489 -301.69618 
L 67.730631 -301.69618 
L 67.730631 -301.69618 
L 67.510688 -301.69618 
L 67.510688 -301.69618 
L 67.400717 -301.69618 
L 67.400717 -302.415259 
L 66.850859 -302.415259 
L 66.850859 -303.043765 
L 66.630916 -303.043765 
L 66.630916 -303.525939 
L 66.520944 -303.525939 
L 66.520944 -303.714531 
L 66.410973 -303.714531 
L 66.410973 -303.714531 
L 66.301001 -303.714531 
L 66.301001 -303.714531 
L 66.19103 -303.714531 
L 66.19103 -303.714531 
L 65.421229 -303.714531 
L 65.421229 -303.714531 
L 65.311257 -303.714531 
z
" style="stroke: #27ae60; stroke-opacity: 0.12"/>
    </defs>
    <g clip-path="url(#p22d209da5e)">
     <use xlink:href="#m10b37a6e78" x="0" y="352.801719" style="fill: #27ae60; fill-opacity: 0.12; stroke: #27ae60; stroke-opacity: 0.12"/>
    </g>
   </g>
   <g id="matplotlib.axis_1">
    <g id="xtick_1">
     <g id="line2d_1">
      <defs>
       <path id="m64e8822740" d="M 0 0 
L 0 3.5 
" style="stroke: #000000; stroke-width: 0.8"/>
      </defs>
      <g>
       <use xlink:href="#m64e8822740" x="65.311257" y="313.600859" style="stroke: #000000; stroke-width: 0.8"/>
      </g>
     </g>
     <g id="text_1">
      <!-- 0 -->
      <g transform="translate(62.130007 328.198516) scale(0.1 -0.1)">
       <defs>
        <path id="DejaVuSans-13" d="M 2034 4250 
Q 1547 4250 1301 3770 
Q 1056 3291 1056 2328 
Q 1056 1369 1301 889 
Q 1547 409 2034 409 
Q 2525 409 2770 889 
Q 3016 1369 3016 2328 
Q 3016 3291 2770 3770 
Q 2525 4250 2034 4250 
z
M 2034 4750 
Q 2819 4750 3233 4129 
Q 3647 3509 3647 2328 
Q 3647 1150 3233 529 
Q 2819 -91 2034 -91 
Q 1250 -91 836 529 
Q 422 1150 422 2328 
Q 422 3509 836 4129 
Q 1250 4750 2034 4750 
z
" transform="scale(0.015625)"/>
       </defs>
       <use xlink:href="#DejaVuSans-13"/>
      </g>
     </g>
    </g>
    <g id="xtick_2">
     <g id="line2d_2">
      <g>
       <use xlink:href="#m64e8822740" x="132.211351" y="313.600859" style="stroke: #000000; stroke-width: 0.8"/>
      </g>
     </g>
     <g id="text_2">
      <!-- 20 -->
      <g transform="translate(125.848851 328.198516) scale(0.1 -0.1)">
       <defs>
        <path id="DejaVuSans-15" d="M 1228 531 
L 3431 531 
L 3431 0 
L 469 0 
L 469 531 
Q 828 903 1448 1529 
Q 2069 2156 2228 2338 
Q 2531 2678 2651 2914 
Q 2772 3150 2772 3378 
Q 2772 3750 2511 3984 
Q 2250 4219 1831 4219 
Q 1534 4219 1204 4116 
Q 875 4013 500 3803 
L 500 4441 
Q 881 4594 1212 4672 
Q 1544 4750 1819 4750 
Q 2544 4750 2975 4387 
Q 3406 4025 3406 3419 
Q 3406 3131 3298 2873 
Q 3191 2616 2906 2266 
Q 2828 2175 2409 1742 
Q 1991 1309 1228 531 
z
" transform="scale(0.015625)"/>
       </defs>
       <use xlink:href="#DejaVuSans-15"/>
       <use xlink:href="#DejaVuSans-13" transform="translate(63.625 0)"/>
      </g>
     </g>
    </g>
    <g id="xtick_3">
     <g id="line2d_3">
      <g>
       <use xlink:href="#m64e8822740" x="199.111445" y="313.600859" style="stroke: #000000; stroke-width: 0.8"/>
      </g>
     </g>
     <g id="text_3">
      <!-- 40 -->
      <g transform="translate(192.748945 328.198516) scale(0.1 -0.1)">
       <defs>
        <path id="DejaVuSans-17" d="M 2419 4116 
L 825 1625 
L 2419 1625 
L 2419 4116 
z
M 2253 4666 
L 3047 4666 
L 3047 1625 
L 3713 1625 
L 3713 1100 
L 3047 1100 
L 3047 0 
L 2419 0 
L 2419 1100 
L 313 1100 
L 313 1709 
L 2253 4666 
z
" transform="scale(0.015625)"/>
       </defs>
       <use xlink:href="#DejaVuSans-17"/>
       <use xlink:href="#DejaVuSans-13" transform="translate(63.625 0)"/>
      </g>
     </g>
    </g>
    <g id="xtick_4">
     <g id="line2d_4">
      <g>
       <use xlink:href="#m64e8822740" x="266.011539" y="313.600859" style="stroke: #000000; stroke-width: 0.8"/>
      </g>
     </g>
     <g id="text_4">
      <!-- 60 -->
      <g transform="translate(259.649039 328.198516) scale(0.1 -0.1)">
       <defs>
        <path id="DejaVuSans-19" d="M 2113 2584 
Q 1688 2584 1439 2293 
Q 1191 2003 1191 1497 
Q 1191 994 1439 701 
Q 1688 409 2113 409 
Q 2538 409 2786 701 
Q 3034 994 3034 1497 
Q 3034 2003 2786 2293 
Q 2538 2584 2113 2584 
z
M 3366 4563 
L 3366 3988 
Q 3128 4100 2886 4159 
Q 2644 4219 2406 4219 
Q 1781 4219 1451 3797 
Q 1122 3375 1075 2522 
Q 1259 2794 1537 2939 
Q 1816 3084 2150 3084 
Q 2853 3084 3261 2657 
Q 3669 2231 3669 1497 
Q 3669 778 3244 343 
Q 2819 -91 2113 -91 
Q 1303 -91 875 529 
Q 447 1150 447 2328 
Q 447 3434 972 4092 
Q 1497 4750 2381 4750 
Q 2619 4750 2861 4703 
Q 3103 4656 3366 4563 
z
" transform="scale(0.015625)"/>
       </defs>
       <use xlink:href="#DejaVuSans-19"/>
       <use xlink:href="#DejaVuSans-13" transform="translate(63.625 0)"/>
      </g>
     </g>
    </g>
    <g id="xtick_5">
     <g id="line2d_5">
      <g>
       <use xlink:href="#m64e8822740" x="332.911633" y="313.600859" style="stroke: #000000; stroke-width: 0.8"/>
      </g>
     </g>
     <g id="text_5">
      <!-- 80 -->
      <g transform="translate(326.549133 328.198516) scale(0.1 -0.1)">
       <defs>
        <path id="DejaVuSans-1b" d="M 2034 2216 
Q 1584 2216 1326 1975 
Q 1069 1734 1069 1313 
Q 1069 891 1326 650 
Q 1584 409 2034 409 
Q 2484 409 2743 651 
Q 3003 894 3003 1313 
Q 3003 1734 2745 1975 
Q 2488 2216 2034 2216 
z
M 1403 2484 
Q 997 2584 770 2862 
Q 544 3141 544 3541 
Q 544 4100 942 4425 
Q 1341 4750 2034 4750 
Q 2731 4750 3128 4425 
Q 3525 4100 3525 3541 
Q 3525 3141 3298 2862 
Q 3072 2584 2669 2484 
Q 3125 2378 3379 2068 
Q 3634 1759 3634 1313 
Q 3634 634 3220 271 
Q 2806 -91 2034 -91 
Q 1263 -91 848 271 
Q 434 634 434 1313 
Q 434 1759 690 2068 
Q 947 2378 1403 2484 
z
M 1172 3481 
Q 1172 3119 1398 2916 
Q 1625 2713 2034 2713 
Q 2441 2713 2670 2916 
Q 2900 3119 2900 3481 
Q 2900 3844 2670 4047 
Q 2441 4250 2034 4250 
Q 1625 4250 1398 4047 
Q 1172 3844 1172 3481 
z
" transform="scale(0.015625)"/>
       </defs>
       <use xlink:href="#DejaVuSans-1b"/>
       <use xlink:href="#DejaVuSans-13" transform="translate(63.625 0)"/>
      </g>
     </g>
    </g>
    <g id="xtick_6">
     <g id="line2d_6">
      <g>
       <use xlink:href="#m64e8822740" x="399.811727" y="313.600859" style="stroke: #000000; stroke-width: 0.8"/>
      </g>
     </g>
     <g id="text_6">
      <!-- 100 -->
      <g transform="translate(390.267977 328.198516) scale(0.1 -0.1)">
       <defs>
        <path id="DejaVuSans-14" d="M 794 531 
L 1825 531 
L 1825 4091 
L 703 3866 
L 703 4441 
L 1819 4666 
L 2450 4666 
L 2450 531 
L 3481 531 
L 3481 0 
L 794 0 
L 794 531 
z
" transform="scale(0.015625)"/>
       </defs>
       <use xlink:href="#DejaVuSans-14"/>
       <use xlink:href="#DejaVuSans-13" transform="translate(63.625 0)"/>
       <use xlink:href="#DejaVuSans-13" transform="translate(127.25 0)"/>
      </g>
     </g>
    </g>
    <g id="xtick_7">
     <g id="line2d_7">
      <g>
       <use xlink:href="#m64e8822740" x="466.711822" y="313.600859" style="stroke: #000000; stroke-width: 0.8"/>
      </g>
     </g>
     <g id="text_7">
      <!-- 120 -->
      <g transform="translate(457.168072 328.198516) scale(0.1 -0.1)">
       <use xlink:href="#DejaVuSans-14"/>
       <use xlink:href="#DejaVuSans-15" transform="translate(63.625 0)"/>
       <use xlink:href="#DejaVuSans-13" transform="translate(127.25 0)"/>
      </g>
     </g>
    </g>
    <g id="text_8">
     <!-- Time (months) -->
     <g transform="translate(227.169531 342.959141) scale(0.11 -0.11)">
      <defs>
       <path id="DejaVuSans-37" d="M -19 4666 
L 3928 4666 
L 3928 4134 
L 2272 4134 
L 2272 0 
L 1638 0 
L 1638 4134 
L -19 4134 
L -19 4666 
z
" transform="scale(0.015625)"/>
       <path id="DejaVuSans-4c" d="M 603 3500 
L 1178 3500 
L 1178 0 
L 603 0 
L 603 3500 
z
M 603 4863 
L 1178 4863 
L 1178 4134 
L 603 4134 
L 603 4863 
z
" transform="scale(0.015625)"/>
       <path id="DejaVuSans-50" d="M 3328 2828 
Q 3544 3216 3844 3400 
Q 4144 3584 4550 3584 
Q 5097 3584 5394 3201 
Q 5691 2819 5691 2113 
L 5691 0 
L 5113 0 
L 5113 2094 
Q 5113 2597 4934 2840 
Q 4756 3084 4391 3084 
Q 3944 3084 3684 2787 
Q 3425 2491 3425 1978 
L 3425 0 
L 2847 0 
L 2847 2094 
Q 2847 2600 2669 2842 
Q 2491 3084 2119 3084 
Q 1678 3084 1418 2786 
Q 1159 2488 1159 1978 
L 1159 0 
L 581 0 
L 581 3500 
L 1159 3500 
L 1159 2956 
Q 1356 3278 1631 3431 
Q 1906 3584 2284 3584 
Q 2666 3584 2933 3390 
Q 3200 3197 3328 2828 
z
" transform="scale(0.015625)"/>
       <path id="DejaVuSans-48" d="M 3597 1894 
L 3597 1613 
L 953 1613 
Q 991 1019 1311 708 
Q 1631 397 2203 397 
Q 2534 397 2845 478 
Q 3156 559 3463 722 
L 3463 178 
Q 3153 47 2828 -22 
Q 2503 -91 2169 -91 
Q 1331 -91 842 396 
Q 353 884 353 1716 
Q 353 2575 817 3079 
Q 1281 3584 2069 3584 
Q 2775 3584 3186 3129 
Q 3597 2675 3597 1894 
z
M 3022 2063 
Q 3016 2534 2758 2815 
Q 2500 3097 2075 3097 
Q 1594 3097 1305 2825 
Q 1016 2553 972 2059 
L 3022 2063 
z
" transform="scale(0.015625)"/>
       <path id="DejaVuSans-3" transform="scale(0.015625)"/>
       <path id="DejaVuSans-b" d="M 1984 4856 
Q 1566 4138 1362 3434 
Q 1159 2731 1159 2009 
Q 1159 1288 1364 580 
Q 1569 -128 1984 -844 
L 1484 -844 
Q 1016 -109 783 600 
Q 550 1309 550 2009 
Q 550 2706 781 3412 
Q 1013 4119 1484 4856 
L 1984 4856 
z
" transform="scale(0.015625)"/>
       <path id="DejaVuSans-52" d="M 1959 3097 
Q 1497 3097 1228 2736 
Q 959 2375 959 1747 
Q 959 1119 1226 758 
Q 1494 397 1959 397 
Q 2419 397 2687 759 
Q 2956 1122 2956 1747 
Q 2956 2369 2687 2733 
Q 2419 3097 1959 3097 
z
M 1959 3584 
Q 2709 3584 3137 3096 
Q 3566 2609 3566 1747 
Q 3566 888 3137 398 
Q 2709 -91 1959 -91 
Q 1206 -91 779 398 
Q 353 888 353 1747 
Q 353 2609 779 3096 
Q 1206 3584 1959 3584 
z
" transform="scale(0.015625)"/>
       <path id="DejaVuSans-51" d="M 3513 2113 
L 3513 0 
L 2938 0 
L 2938 2094 
Q 2938 2591 2744 2837 
Q 2550 3084 2163 3084 
Q 1697 3084 1428 2787 
Q 1159 2491 1159 1978 
L 1159 0 
L 581 0 
L 581 3500 
L 1159 3500 
L 1159 2956 
Q 1366 3272 1645 3428 
Q 1925 3584 2291 3584 
Q 2894 3584 3203 3211 
Q 3513 2838 3513 2113 
z
" transform="scale(0.015625)"/>
       <path id="DejaVuSans-57" d="M 1172 4494 
L 1172 3500 
L 2356 3500 
L 2356 3053 
L 1172 3053 
L 1172 1153 
Q 1172 725 1289 603 
Q 1406 481 1766 481 
L 2356 481 
L 2356 0 
L 1766 0 
Q 1100 0 847 248 
Q 594 497 594 1153 
L 594 3053 
L 172 3053 
L 172 3500 
L 594 3500 
L 594 4494 
L 1172 4494 
z
" transform="scale(0.015625)"/>
       <path id="DejaVuSans-4b" d="M 3513 2113 
L 3513 0 
L 2938 0 
L 2938 2094 
Q 2938 2591 2744 2837 
Q 2550 3084 2163 3084 
Q 1697 3084 1428 2787 
Q 1159 2491 1159 1978 
L 1159 0 
L 581 0 
L 581 4863 
L 1159 4863 
L 1159 2956 
Q 1366 3272 1645 3428 
Q 1925 3584 2291 3584 
Q 2894 3584 3203 3211 
Q 3513 2838 3513 2113 
z
" transform="scale(0.015625)"/>
       <path id="DejaVuSans-56" d="M 2834 3397 
L 2834 2853 
Q 2591 2978 2328 3040 
Q 2066 3103 1784 3103 
Q 1356 3103 1142 2972 
Q 928 2841 928 2578 
Q 928 2378 1081 2264 
Q 1234 2150 1697 2047 
L 1894 2003 
Q 2506 1872 2764 1633 
Q 3022 1394 3022 966 
Q 3022 478 2636 193 
Q 2250 -91 1575 -91 
Q 1294 -91 989 -36 
Q 684 19 347 128 
L 347 722 
Q 666 556 975 473 
Q 1284 391 1588 391 
Q 1994 391 2212 530 
Q 2431 669 2431 922 
Q 2431 1156 2273 1281 
Q 2116 1406 1581 1522 
L 1381 1569 
Q 847 1681 609 1914 
Q 372 2147 372 2553 
Q 372 3047 722 3315 
Q 1072 3584 1716 3584 
Q 2034 3584 2315 3537 
Q 2597 3491 2834 3397 
z
" transform="scale(0.015625)"/>
       <path id="DejaVuSans-c" d="M 513 4856 
L 1013 4856 
Q 1481 4119 1714 3412 
Q 1947 2706 1947 2009 
Q 1947 1309 1714 600 
Q 1481 -109 1013 -844 
L 513 -844 
Q 928 -128 1133 580 
Q 1338 1288 1338 2009 
Q 1338 2731 1133 3434 
Q 928 4138 513 4856 
z
" transform="scale(0.015625)"/>
      </defs>
      <use xlink:href="#DejaVuSans-37"/>
      <use xlink:href="#DejaVuSans-4c" transform="translate(58 0)"/>
      <use xlink:href="#DejaVuSans-50" transform="translate(85.78125 0)"/>
      <use xlink:href="#DejaVuSans-48" transform="translate(183.1875 0)"/>
      <use xlink:href="#DejaVuSans-3" transform="translate(244.71875 0)"/>
      <use xlink:href="#DejaVuSans-b" transform="translate(276.5 0)"/>
      <use xlink:href="#DejaVuSans-50" transform="translate(315.515625 0)"/>
      <use xlink:href="#DejaVuSans-52" transform="translate(412.921875 0)"/>
      <use xlink:href="#DejaVuSans-51" transform="translate(474.109375 0)"/>
      <use xlink:href="#DejaVuSans-57" transform="translate(537.484375 0)"/>
      <use xlink:href="#DejaVuSans-4b" transform="translate(576.6875 0)"/>
      <use xlink:href="#DejaVuSans-56" transform="translate(640.0625 0)"/>
      <use xlink:href="#DejaVuSans-c" transform="translate(692.15625 0)"/>
     </g>
    </g>
   </g>
   <g id="matplotlib.axis_2">
    <g id="ytick_1">
     <g id="line2d_8">
      <defs>
       <path id="md27b585006" d="M 0 0 
L -3.5 0 
" style="stroke: #000000; stroke-width: 0.8"/>
      </defs>
      <g>
       <use xlink:href="#md27b585006" x="45.103984" y="313.600859" style="stroke: #000000; stroke-width: 0.8"/>
      </g>
     </g>
     <g id="text_9">
      <!-- 0.0 -->
      <g transform="translate(22.200859 317.399687) scale(0.1 -0.1)">
       <defs>
        <path id="DejaVuSans-11" d="M 684 794 
L 1344 794 
L 1344 0 
L 684 0 
L 684 794 
z
" transform="scale(0.015625)"/>
       </defs>
       <use xlink:href="#DejaVuSans-13"/>
       <use xlink:href="#DejaVuSans-11" transform="translate(63.625 0)"/>
       <use xlink:href="#DejaVuSans-13" transform="translate(95.40625 0)"/>
      </g>
     </g>
    </g>
    <g id="ytick_2">
     <g id="line2d_9">
      <g>
       <use xlink:href="#md27b585006" x="45.103984" y="260.698125" style="stroke: #000000; stroke-width: 0.8"/>
      </g>
     </g>
     <g id="text_10">
      <!-- 0.2 -->
      <g transform="translate(22.200859 264.496953) scale(0.1 -0.1)">
       <use xlink:href="#DejaVuSans-13"/>
       <use xlink:href="#DejaVuSans-11" transform="translate(63.625 0)"/>
       <use xlink:href="#DejaVuSans-15" transform="translate(95.40625 0)"/>
      </g>
     </g>
    </g>
    <g id="ytick_3">
     <g id="line2d_10">
      <g>
       <use xlink:href="#md27b585006" x="45.103984" y="207.795391" style="stroke: #000000; stroke-width: 0.8"/>
      </g>
     </g>
     <g id="text_11">
      <!-- 0.4 -->
      <g transform="translate(22.200859 211.594219) scale(0.1 -0.1)">
       <use xlink:href="#DejaVuSans-13"/>
       <use xlink:href="#DejaVuSans-11" transform="translate(63.625 0)"/>
       <use xlink:href="#DejaVuSans-17" transform="translate(95.40625 0)"/>
      </g>
     </g>
    </g>
    <g id="ytick_4">
     <g id="line2d_11">
      <g>
       <use xlink:href="#md27b585006" x="45.103984" y="154.892656" style="stroke: #000000; stroke-width: 0.8"/>
      </g>
     </g>
     <g id="text_12">
      <!-- 0.6 -->
      <g transform="translate(22.200859 158.691484) scale(0.1 -0.1)">
       <use xlink:href="#DejaVuSans-13"/>
       <use xlink:href="#DejaVuSans-11" transform="translate(63.625 0)"/>
       <use xlink:href="#DejaVuSans-19" transform="translate(95.40625 0)"/>
      </g>
     </g>
    </g>
    <g id="ytick_5">
     <g id="line2d_12">
      <g>
       <use xlink:href="#md27b585006" x="45.103984" y="101.989922" style="stroke: #000000; stroke-width: 0.8"/>
      </g>
     </g>
     <g id="text_13">
      <!-- 0.8 -->
      <g transform="translate(22.200859 105.78875) scale(0.1 -0.1)">
       <use xlink:href="#DejaVuSans-13"/>
       <use xlink:href="#DejaVuSans-11" transform="translate(63.625 0)"/>
       <use xlink:href="#DejaVuSans-1b" transform="translate(95.40625 0)"/>
      </g>
     </g>
    </g>
    <g id="ytick_6">
     <g id="line2d_13">
      <g>
       <use xlink:href="#md27b585006" x="45.103984" y="49.087188" style="stroke: #000000; stroke-width: 0.8"/>
      </g>
     </g>
     <g id="text_14">
      <!-- 1.0 -->
      <g transform="translate(22.200859 52.886016) scale(0.1 -0.1)">
       <use xlink:href="#DejaVuSans-14"/>
       <use xlink:href="#DejaVuSans-11" transform="translate(63.625 0)"/>
       <use xlink:href="#DejaVuSans-13" transform="translate(95.40625 0)"/>
      </g>
     </g>
    </g>
    <g id="text_15">
     <!-- Overall survival probability -->
     <g transform="translate(15.558281 248.778369) rotate(-90) scale(0.11 -0.11)">
      <defs>
       <path id="DejaVuSans-32" d="M 2522 4238 
Q 1834 4238 1429 3725 
Q 1025 3213 1025 2328 
Q 1025 1447 1429 934 
Q 1834 422 2522 422 
Q 3209 422 3611 934 
Q 4013 1447 4013 2328 
Q 4013 3213 3611 3725 
Q 3209 4238 2522 4238 
z
M 2522 4750 
Q 3503 4750 4090 4092 
Q 4678 3434 4678 2328 
Q 4678 1225 4090 567 
Q 3503 -91 2522 -91 
Q 1538 -91 948 565 
Q 359 1222 359 2328 
Q 359 3434 948 4092 
Q 1538 4750 2522 4750 
z
" transform="scale(0.015625)"/>
       <path id="DejaVuSans-59" d="M 191 3500 
L 800 3500 
L 1894 563 
L 2988 3500 
L 3597 3500 
L 2284 0 
L 1503 0 
L 191 3500 
z
" transform="scale(0.015625)"/>
       <path id="DejaVuSans-55" d="M 2631 2963 
Q 2534 3019 2420 3045 
Q 2306 3072 2169 3072 
Q 1681 3072 1420 2755 
Q 1159 2438 1159 1844 
L 1159 0 
L 581 0 
L 581 3500 
L 1159 3500 
L 1159 2956 
Q 1341 3275 1631 3429 
Q 1922 3584 2338 3584 
Q 2397 3584 2469 3576 
Q 2541 3569 2628 3553 
L 2631 2963 
z
" transform="scale(0.015625)"/>
       <path id="DejaVuSans-44" d="M 2194 1759 
Q 1497 1759 1228 1600 
Q 959 1441 959 1056 
Q 959 750 1161 570 
Q 1363 391 1709 391 
Q 2188 391 2477 730 
Q 2766 1069 2766 1631 
L 2766 1759 
L 2194 1759 
z
M 3341 1997 
L 3341 0 
L 2766 0 
L 2766 531 
Q 2569 213 2275 61 
Q 1981 -91 1556 -91 
Q 1019 -91 701 211 
Q 384 513 384 1019 
Q 384 1609 779 1909 
Q 1175 2209 1959 2209 
L 2766 2209 
L 2766 2266 
Q 2766 2663 2505 2880 
Q 2244 3097 1772 3097 
Q 1472 3097 1187 3025 
Q 903 2953 641 2809 
L 641 3341 
Q 956 3463 1253 3523 
Q 1550 3584 1831 3584 
Q 2591 3584 2966 3190 
Q 3341 2797 3341 1997 
z
" transform="scale(0.015625)"/>
       <path id="DejaVuSans-4f" d="M 603 4863 
L 1178 4863 
L 1178 0 
L 603 0 
L 603 4863 
z
" transform="scale(0.015625)"/>
       <path id="DejaVuSans-58" d="M 544 1381 
L 544 3500 
L 1119 3500 
L 1119 1403 
Q 1119 906 1312 657 
Q 1506 409 1894 409 
Q 2359 409 2629 706 
Q 2900 1003 2900 1516 
L 2900 3500 
L 3475 3500 
L 3475 0 
L 2900 0 
L 2900 538 
Q 2691 219 2414 64 
Q 2138 -91 1772 -91 
Q 1169 -91 856 284 
Q 544 659 544 1381 
z
M 1991 3584 
L 1991 3584 
z
" transform="scale(0.015625)"/>
       <path id="DejaVuSans-53" d="M 1159 525 
L 1159 -1331 
L 581 -1331 
L 581 3500 
L 1159 3500 
L 1159 2969 
Q 1341 3281 1617 3432 
Q 1894 3584 2278 3584 
Q 2916 3584 3314 3078 
Q 3713 2572 3713 1747 
Q 3713 922 3314 415 
Q 2916 -91 2278 -91 
Q 1894 -91 1617 61 
Q 1341 213 1159 525 
z
M 3116 1747 
Q 3116 2381 2855 2742 
Q 2594 3103 2138 3103 
Q 1681 3103 1420 2742 
Q 1159 2381 1159 1747 
Q 1159 1113 1420 752 
Q 1681 391 2138 391 
Q 2594 391 2855 752 
Q 3116 1113 3116 1747 
z
" transform="scale(0.015625)"/>
       <path id="DejaVuSans-45" d="M 3116 1747 
Q 3116 2381 2855 2742 
Q 2594 3103 2138 3103 
Q 1681 3103 1420 2742 
Q 1159 2381 1159 1747 
Q 1159 1113 1420 752 
Q 1681 391 2138 391 
Q 2594 391 2855 752 
Q 3116 1113 3116 1747 
z
M 1159 2969 
Q 1341 3281 1617 3432 
Q 1894 3584 2278 3584 
Q 2916 3584 3314 3078 
Q 3713 2572 3713 1747 
Q 3713 922 3314 415 
Q 2916 -91 2278 -91 
Q 1894 -91 1617 61 
Q 1341 213 1159 525 
L 1159 0 
L 581 0 
L 581 4863 
L 1159 4863 
L 1159 2969 
z
" transform="scale(0.015625)"/>
       <path id="DejaVuSans-5c" d="M 2059 -325 
Q 1816 -950 1584 -1140 
Q 1353 -1331 966 -1331 
L 506 -1331 
L 506 -850 
L 844 -850 
Q 1081 -850 1212 -737 
Q 1344 -625 1503 -206 
L 1606 56 
L 191 3500 
L 800 3500 
L 1894 763 
L 2988 3500 
L 3597 3500 
L 2059 -325 
z
" transform="scale(0.015625)"/>
      </defs>
      <use xlink:href="#DejaVuSans-32"/>
      <use xlink:href="#DejaVuSans-59" transform="translate(78.71875 0)"/>
      <use xlink:href="#DejaVuSans-48" transform="translate(137.90625 0)"/>
      <use xlink:href="#DejaVuSans-55" transform="translate(199.4375 0)"/>
      <use xlink:href="#DejaVuSans-44" transform="translate(240.546875 0)"/>
      <use xlink:href="#DejaVuSans-4f" transform="translate(301.828125 0)"/>
      <use xlink:href="#DejaVuSans-4f" transform="translate(329.609375 0)"/>
      <use xlink:href="#DejaVuSans-3" transform="translate(357.390625 0)"/>
      <use xlink:href="#DejaVuSans-56" transform="translate(389.171875 0)"/>
      <use xlink:href="#DejaVuSans-58" transform="translate(441.265625 0)"/>
      <use xlink:href="#DejaVuSans-55" transform="translate(504.640625 0)"/>
      <use xlink:href="#DejaVuSans-59" transform="translate(545.75 0)"/>
      <use xlink:href="#DejaVuSans-4c" transform="translate(604.9375 0)"/>
      <use xlink:href="#DejaVuSans-59" transform="translate(632.71875 0)"/>
      <use xlink:href="#DejaVuSans-44" transform="translate(691.90625 0)"/>
      <use xlink:href="#DejaVuSans-4f" transform="translate(753.1875 0)"/>
      <use xlink:href="#DejaVuSans-3" transform="translate(780.96875 0)"/>
      <use xlink:href="#DejaVuSans-53" transform="translate(812.75 0)"/>
      <use xlink:href="#DejaVuSans-55" transform="translate(876.234375 0)"/>
      <use xlink:href="#DejaVuSans-52" transform="translate(915.140625 0)"/>
      <use xlink:href="#DejaVuSans-45" transform="translate(976.328125 0)"/>
      <use xlink:href="#DejaVuSans-44" transform="translate(1039.8125 0)"/>
      <use xlink:href="#DejaVuSans-45" transform="translate(1101.09375 0)"/>
      <use xlink:href="#DejaVuSans-4c" transform="translate(1164.578125 0)"/>
      <use xlink:href="#DejaVuSans-4f" transform="translate(1192.359375 0)"/>
      <use xlink:href="#DejaVuSans-4c" transform="translate(1220.140625 0)"/>
      <use xlink:href="#DejaVuSans-57" transform="translate(1247.921875 0)"/>
      <use xlink:href="#DejaVuSans-5c" transform="translate(1287.125 0)"/>
     </g>
    </g>
   </g>
   <g id="line2d_14">
    <path d="M 65.311257 49.087188 
L 66.301001 49.087188 
L 66.301001 51.559278 
L 68.720375 51.559278 
L 68.720375 54.128313 
L 71.029778 54.128313 
L 71.029778 56.697348 
L 71.469664 56.697348 
L 71.469664 59.266383 
L 72.459408 59.266383 
L 72.459408 61.835418 
L 72.679351 61.835418 
L 72.679351 64.404453 
L 74.878782 64.404453 
L 74.878782 66.973489 
L 75.318668 66.973489 
L 75.318668 69.542524 
L 75.978498 69.542524 
L 75.978498 72.111559 
L 76.418384 72.111559 
L 76.528355 77.249629 
L 76.638327 77.249629 
L 76.638327 79.818664 
L 79.497587 79.818664 
L 79.497587 82.387699 
L 80.707274 82.387699 
L 80.707274 84.956734 
L 82.136905 84.956734 
L 82.136905 87.525769 
L 86.75571 87.525769 
L 86.75571 90.124334 
L 88.845169 90.124334 
L 88.845169 92.722898 
L 92.47423 92.722898 
L 92.47423 95.321462 
L 94.123804 95.321462 
L 94.123804 97.920026 
L 95.223519 97.920026 
L 95.223519 100.518591 
L 97.862837 100.518591 
L 97.862837 103.117155 
L 98.192751 103.117155 
L 98.302723 108.314283 
L 98.632637 108.314283 
L 98.742609 113.511412 
L 99.952296 113.511412 
L 99.952296 116.109976 
L 103.141471 116.109976 
L 103.141471 118.815331 
L 106.330646 118.815331 
L 106.330646 121.679824 
L 110.399594 121.679824 
L 110.399594 124.67859 
L 110.619537 124.67859 
L 110.619537 127.677356 
L 110.949451 127.677356 
L 110.949451 130.676122 
L 112.049167 130.676122 
L 112.049167 133.724868 
L 134.26342 133.724868 
L 134.26342 137.552017 
L 134.92325 137.552017 
L 134.92325 141.464213 
L 135.583079 141.464213 
L 135.583079 145.37641 
L 137.892482 145.37641 
L 137.892482 149.381754 
L 143.501031 149.381754 
L 143.501031 153.820108 
L 144.930661 153.820108 
L 144.930661 158.258462 
L 149.439495 158.258462 
L 149.439495 162.696816 
L 157.357446 162.696816 
L 157.357446 167.135171 
L 164.175683 167.135171 
L 164.175683 172.366088 
L 167.694772 172.366088 
L 167.694772 178.25087 
L 190.128969 178.25087 
L 190.128969 185.01837 
L 191.668571 185.01837 
L 191.668571 191.785869 
L 216.192227 191.785869 
L 216.192227 199.399306 
L 218.941516 199.399306 
L 218.941516 207.012743 
L 229.16887 207.012743 
L 229.16887 214.62618 
L 338.700536 214.62618 
L 338.700536 247.61774 
L 469.456712 247.61774 
L 469.456712 247.61774 
" clip-path="url(#p22d209da5e)" style="fill: none; stroke: #c0392b; stroke-width: 1.5; stroke-linecap: square"/>
   </g>
   <g id="line2d_15">
    <path d="M 65.311257 49.087188 
L 66.96083 49.087188 
L 66.96083 49.087188 
L 67.070802 49.087188 
L 67.070802 54.715138 
L 67.62066 54.715138 
L 67.62066 54.715138 
L 71.469664 54.715138 
L 71.469664 60.468154 
L 77.078213 60.468154 
L 77.078213 66.22117 
L 79.497587 66.22117 
L 79.497587 71.974186 
L 84.116393 71.974186 
L 84.116393 83.480218 
L 89.175084 83.480218 
L 89.175084 89.233234 
L 92.584202 89.233234 
L 92.584202 89.233234 
L 95.99332 89.233234 
L 95.99332 95.137645 
L 99.182495 95.137645 
L 99.182495 101.042057 
L 101.381926 101.042057 
L 101.381926 101.042057 
L 103.471386 101.042057 
L 103.471386 107.115165 
L 105.560845 107.115165 
L 105.560845 113.188274 
L 108.640049 113.188274 
L 108.640049 119.261382 
L 109.299878 119.261382 
L 109.299878 119.261382 
L 109.959707 119.261382 
L 109.959707 119.261382 
L 110.17965 119.261382 
L 110.17965 119.261382 
L 110.289622 119.261382 
L 110.289622 119.261382 
L 115.018399 119.261382 
L 115.018399 126.202078 
L 126.015554 126.202078 
L 126.015554 126.202078 
L 126.345469 126.202078 
L 126.345469 133.409724 
L 129.864558 133.409724 
L 129.864558 133.409724 
L 142.401315 133.409724 
L 142.401315 133.409724 
L 148.559722 133.409724 
L 148.559722 141.244121 
L 153.508442 141.244121 
L 153.508442 149.078518 
L 156.257731 149.078518 
L 156.257731 156.912915 
L 164.065711 156.912915 
L 164.065711 156.912915 
L 164.945483 156.912915 
L 164.945483 156.912915 
L 167.034943 156.912915 
L 167.034943 156.912915 
L 175.832667 156.912915 
L 175.832667 166.129853 
L 176.162582 166.129853 
L 176.162582 166.129853 
L 184.630391 166.129853 
L 184.630391 166.129853 
L 193.75803 166.129853 
L 193.75803 166.129853 
L 201.895925 166.129853 
L 201.895925 166.129853 
L 205.0851 166.129853 
L 205.0851 178.419104 
L 208.494218 178.419104 
L 208.494218 178.419104 
L 213.882824 178.419104 
L 213.882824 178.419104 
L 221.910747 178.419104 
L 221.910747 178.419104 
L 229.718728 178.419104 
L 229.718728 178.419104 
L 232.02813 178.419104 
L 232.02813 178.419104 
L 265.789397 178.419104 
L 265.789397 178.419104 
L 268.978572 178.419104 
L 268.978572 205.455455 
L 335.401389 205.455455 
L 335.401389 232.491806 
L 367.293139 232.491806 
L 367.293139 232.491806 
L 423.598574 232.491806 
L 423.598574 273.046333 
L 443.283482 273.046333 
L 443.283482 273.046333 
" clip-path="url(#p22d209da5e)" style="fill: none; stroke: #e67e22; stroke-width: 1.5; stroke-linecap: square"/>
   </g>
   <g id="line2d_16">
    <path d="M 65.311257 49.087188 
L 66.520944 49.087188 
L 66.630916 51.759043 
L 66.850859 51.759043 
L 66.850859 53.09497 
L 67.400717 53.09497 
L 67.400717 54.430898 
L 67.510688 54.430898 
L 68.280489 54.430898 
L 68.280489 55.780742 
L 69.05029 55.780742 
L 69.05029 57.130585 
L 69.270233 57.130585 
L 69.270233 58.480429 
L 70.369949 58.480429 
L 70.369949 59.837452 
L 72.459408 59.837452 
L 72.459408 61.194476 
L 75.318668 61.194476 
L 75.318668 62.558835 
L 77.957986 62.558835 
L 77.957986 63.930649 
L 86.645738 63.930649 
L 86.645738 65.333291 
L 89.834913 65.333291 
L 89.834913 66.751962 
L 90.934629 66.751962 
L 90.934629 68.178835 
L 94.123804 68.178835 
L 94.123804 69.622494 
L 95.883349 69.622494 
L 95.883349 71.066153 
L 96.433206 71.066153 
L 96.433206 72.509812 
L 103.691329 72.509812 
L 103.691329 74.007272 
L 104.791044 74.007272 
L 104.791044 75.523687 
L 105.450874 75.523687 
L 105.450874 77.049822 
L 105.560845 77.049822 
L 107.210419 77.049822 
L 107.210419 78.606079 
L 111.059423 78.606079 
L 111.059423 80.237987 
L 111.389337 80.237987 
L 111.389337 81.869896 
L 112.818968 81.869896 
L 112.818968 83.549105 
L 113.478797 83.549105 
L 113.478797 85.240662 
L 116.887915 85.240662 
L 116.887915 86.970664 
L 124.146038 86.970664 
L 124.146038 88.828289 
L 125.465696 88.828289 
L 125.465696 90.701393 
L 126.45544 90.701393 
L 126.45544 92.606517 
L 126.675383 92.606517 
L 126.675383 94.511641 
L 129.204729 94.511641 
L 129.204729 96.485417 
L 130.854302 96.485417 
L 130.854302 98.514534 
L 131.40416 98.514534 
L 131.40416 100.54365 
L 132.613847 100.54365 
L 132.613847 102.632446 
L 136.022965 102.632446 
L 136.022965 104.853166 
L 136.132937 104.853166 
L 136.682794 104.853166 
L 136.682794 107.097765 
L 140.971685 107.097765 
L 140.971685 109.418025 
L 141.521543 109.418025 
L 141.521543 111.738284 
L 149.769409 111.738284 
L 149.769409 114.394371 
L 149.989352 114.394371 
L 149.989352 117.050457 
L 157.357446 117.050457 
L 157.357446 120.028493 
L 158.567133 120.028493 
L 158.567133 123.00653 
L 184.960306 123.00653 
L 184.960306 126.41 
L 191.448627 126.41 
L 191.448627 129.941903 
L 198.376835 129.941903 
L 198.376835 133.473806 
L 200.466295 133.473806 
L 200.466295 137.076347 
L 217.731828 137.076347 
L 217.731828 140.999114 
L 221.800776 140.999114 
L 221.800776 144.921881 
L 236.866879 144.921881 
L 236.866879 149.246983 
L 243.685115 149.246983 
L 243.685115 153.942808 
L 243.905058 153.942808 
L 243.905058 158.638633 
L 250.613323 158.638633 
L 250.613323 163.637415 
L 251.603067 163.637415 
L 251.603067 168.636196 
L 262.270307 168.636196 
L 262.270307 174.005258 
L 298.011062 174.005258 
L 298.011062 182.729983 
L 299.660635 182.729983 
L 299.660635 191.454708 
L 343.759227 191.454708 
L 343.759227 211.8124 
L 344.858943 211.8124 
L 344.858943 232.170092 
L 408.972358 232.170092 
L 408.972358 259.313681 
L 447.792316 259.313681 
L 447.792316 259.313681 
" clip-path="url(#p22d209da5e)" style="fill: none; stroke: #27ae60; stroke-width: 1.5; stroke-linecap: square"/>
   </g>
   <g id="patch_3">
    <path d="M 45.103984 313.600859 
L 45.103984 35.861504 
" style="fill: none; stroke: #000000; stroke-width: 0.8; stroke-linejoin: miter; stroke-linecap: square"/>
   </g>
   <g id="patch_4">
    <path d="M 45.103984 313.600859 
L 489.663984 313.600859 
" style="fill: none; stroke: #000000; stroke-width: 0.8; stroke-linejoin: miter; stroke-linecap: square"/>
   </g>
   <g id="text_16">
    <g id="patch_5">
     <path d="M 320.731184 82.924751 
L 417.460872 82.924751 
Q 420.460872 82.924751 420.460872 79.924751 
L 420.460872 69.92397 
Q 420.460872 66.92397 417.460872 66.92397 
L 320.731184 66.92397 
Q 317.731184 66.92397 317.731184 69.92397 
L 317.731184 79.924751 
Q 317.731184 82.924751 320.731184 82.924751 
z
" style="fill: #ffffff; opacity: 0.8; stroke: #000000; stroke-linejoin: miter"/>
    </g>
    <!-- Log-rank p = 0.009 -->
    <g transform="translate(320.731184 77.522407) scale(0.1 -0.1)">
     <defs>
      <path id="DejaVuSans-2f" d="M 628 4666 
L 1259 4666 
L 1259 531 
L 3531 531 
L 3531 0 
L 628 0 
L 628 4666 
z
" transform="scale(0.015625)"/>
      <path id="DejaVuSans-4a" d="M 2906 1791 
Q 2906 2416 2648 2759 
Q 2391 3103 1925 3103 
Q 1463 3103 1205 2759 
Q 947 2416 947 1791 
Q 947 1169 1205 825 
Q 1463 481 1925 481 
Q 2391 481 2648 825 
Q 2906 1169 2906 1791 
z
M 3481 434 
Q 3481 -459 3084 -895 
Q 2688 -1331 1869 -1331 
Q 1566 -1331 1297 -1286 
Q 1028 -1241 775 -1147 
L 775 -588 
Q 1028 -725 1275 -790 
Q 1522 -856 1778 -856 
Q 2344 -856 2625 -561 
Q 2906 -266 2906 331 
L 2906 616 
Q 2728 306 2450 153 
Q 2172 0 1784 0 
Q 1141 0 747 490 
Q 353 981 353 1791 
Q 353 2603 747 3093 
Q 1141 3584 1784 3584 
Q 2172 3584 2450 3431 
Q 2728 3278 2906 2969 
L 2906 3500 
L 3481 3500 
L 3481 434 
z
" transform="scale(0.015625)"/>
      <path id="DejaVuSans-10" d="M 313 2009 
L 1997 2009 
L 1997 1497 
L 313 1497 
L 313 2009 
z
" transform="scale(0.015625)"/>
      <path id="DejaVuSans-4e" d="M 581 4863 
L 1159 4863 
L 1159 1991 
L 2875 3500 
L 3609 3500 
L 1753 1863 
L 3688 0 
L 2938 0 
L 1159 1709 
L 1159 0 
L 581 0 
L 581 4863 
z
" transform="scale(0.015625)"/>
      <path id="DejaVuSans-20" d="M 678 2906 
L 4684 2906 
L 4684 2381 
L 678 2381 
L 678 2906 
z
M 678 1631 
L 4684 1631 
L 4684 1100 
L 678 1100 
L 678 1631 
z
" transform="scale(0.015625)"/>
      <path id="DejaVuSans-1c" d="M 703 97 
L 703 672 
Q 941 559 1184 500 
Q 1428 441 1663 441 
Q 2288 441 2617 861 
Q 2947 1281 2994 2138 
Q 2813 1869 2534 1725 
Q 2256 1581 1919 1581 
Q 1219 1581 811 2004 
Q 403 2428 403 3163 
Q 403 3881 828 4315 
Q 1253 4750 1959 4750 
Q 2769 4750 3195 4129 
Q 3622 3509 3622 2328 
Q 3622 1225 3098 567 
Q 2575 -91 1691 -91 
Q 1453 -91 1209 -44 
Q 966 3 703 97 
z
M 1959 2075 
Q 2384 2075 2632 2365 
Q 2881 2656 2881 3163 
Q 2881 3666 2632 3958 
Q 2384 4250 1959 4250 
Q 1534 4250 1286 3958 
Q 1038 3666 1038 3163 
Q 1038 2656 1286 2365 
Q 1534 2075 1959 2075 
z
" transform="scale(0.015625)"/>
     </defs>
     <use xlink:href="#DejaVuSans-2f"/>
     <use xlink:href="#DejaVuSans-52" transform="translate(53.96875 0)"/>
     <use xlink:href="#DejaVuSans-4a" transform="translate(115.15625 0)"/>
     <use xlink:href="#DejaVuSans-10" transform="translate(178.640625 0)"/>
     <use xlink:href="#DejaVuSans-55" transform="translate(214.71875 0)"/>
     <use xlink:href="#DejaVuSans-44" transform="translate(255.828125 0)"/>
     <use xlink:href="#DejaVuSans-51" transform="translate(317.109375 0)"/>
     <use xlink:href="#DejaVuSans-4e" transform="translate(380.484375 0)"/>
     <use xlink:href="#DejaVuSans-3" transform="translate(438.390625 0)"/>
     <use xlink:href="#DejaVuSans-53" transform="translate(470.171875 0)"/>
     <use xlink:href="#DejaVuSans-3" transform="translate(533.65625 0)"/>
     <use xlink:href="#DejaVuSans-20" transform="translate(565.4375 0)"/>
     <use xlink:href="#DejaVuSans-3" transform="translate(649.234375 0)"/>
     <use xlink:href="#DejaVuSans-13" transform="translate(681.015625 0)"/>
     <use xlink:href="#DejaVuSans-11" transform="translate(744.640625 0)"/>
     <use xlink:href="#DejaVuSans-13" transform="translate(776.421875 0)"/>
     <use xlink:href="#DejaVuSans-13" transform="translate(840.046875 0)"/>
     <use xlink:href="#DejaVuSans-1c" transform="translate(903.671875 0)"/>
    </g>
   </g>
   <g id="text_17">
    <!-- Overall Survival by Hoshida Molecular Subtype -->
    <g transform="translate(121.70875 16.659355) scale(0.11 -0.11)">
     <defs>
      <path id="DejaVuSans-Bold-32" d="M 2719 3878 
Q 2169 3878 1866 3472 
Q 1563 3066 1563 2328 
Q 1563 1594 1866 1187 
Q 2169 781 2719 781 
Q 3272 781 3575 1187 
Q 3878 1594 3878 2328 
Q 3878 3066 3575 3472 
Q 3272 3878 2719 3878 
z
M 2719 4750 
Q 3844 4750 4481 4106 
Q 5119 3463 5119 2328 
Q 5119 1197 4481 553 
Q 3844 -91 2719 -91 
Q 1597 -91 958 553 
Q 319 1197 319 2328 
Q 319 3463 958 4106 
Q 1597 4750 2719 4750 
z
" transform="scale(0.015625)"/>
      <path id="DejaVuSans-Bold-59" d="M 97 3500 
L 1216 3500 
L 2088 1081 
L 2956 3500 
L 4078 3500 
L 2700 0 
L 1472 0 
L 97 3500 
z
" transform="scale(0.015625)"/>
      <path id="DejaVuSans-Bold-48" d="M 4031 1759 
L 4031 1441 
L 1416 1441 
Q 1456 1047 1700 850 
Q 1944 653 2381 653 
Q 2734 653 3104 758 
Q 3475 863 3866 1075 
L 3866 213 
Q 3469 63 3072 -14 
Q 2675 -91 2278 -91 
Q 1328 -91 801 392 
Q 275 875 275 1747 
Q 275 2603 792 3093 
Q 1309 3584 2216 3584 
Q 3041 3584 3536 3087 
Q 4031 2591 4031 1759 
z
M 2881 2131 
Q 2881 2450 2695 2645 
Q 2509 2841 2209 2841 
Q 1884 2841 1681 2658 
Q 1478 2475 1428 2131 
L 2881 2131 
z
" transform="scale(0.015625)"/>
      <path id="DejaVuSans-Bold-55" d="M 3138 2547 
Q 2991 2616 2845 2648 
Q 2700 2681 2553 2681 
Q 2122 2681 1889 2404 
Q 1656 2128 1656 1613 
L 1656 0 
L 538 0 
L 538 3500 
L 1656 3500 
L 1656 2925 
Q 1872 3269 2151 3426 
Q 2431 3584 2822 3584 
Q 2878 3584 2943 3579 
Q 3009 3575 3134 3559 
L 3138 2547 
z
" transform="scale(0.015625)"/>
      <path id="DejaVuSans-Bold-44" d="M 2106 1575 
Q 1756 1575 1579 1456 
Q 1403 1338 1403 1106 
Q 1403 894 1545 773 
Q 1688 653 1941 653 
Q 2256 653 2472 879 
Q 2688 1106 2688 1447 
L 2688 1575 
L 2106 1575 
z
M 3816 1997 
L 3816 0 
L 2688 0 
L 2688 519 
Q 2463 200 2181 54 
Q 1900 -91 1497 -91 
Q 953 -91 614 226 
Q 275 544 275 1050 
Q 275 1666 698 1953 
Q 1122 2241 2028 2241 
L 2688 2241 
L 2688 2328 
Q 2688 2594 2478 2717 
Q 2269 2841 1825 2841 
Q 1466 2841 1156 2769 
Q 847 2697 581 2553 
L 581 3406 
Q 941 3494 1303 3539 
Q 1666 3584 2028 3584 
Q 2975 3584 3395 3211 
Q 3816 2838 3816 1997 
z
" transform="scale(0.015625)"/>
      <path id="DejaVuSans-Bold-4f" d="M 538 4863 
L 1656 4863 
L 1656 0 
L 538 0 
L 538 4863 
z
" transform="scale(0.015625)"/>
      <path id="DejaVuSans-Bold-3" transform="scale(0.015625)"/>
      <path id="DejaVuSans-Bold-36" d="M 3834 4519 
L 3834 3531 
Q 3450 3703 3084 3790 
Q 2719 3878 2394 3878 
Q 1963 3878 1756 3759 
Q 1550 3641 1550 3391 
Q 1550 3203 1689 3098 
Q 1828 2994 2194 2919 
L 2706 2816 
Q 3484 2659 3812 2340 
Q 4141 2022 4141 1434 
Q 4141 663 3683 286 
Q 3225 -91 2284 -91 
Q 1841 -91 1394 -6 
Q 947 78 500 244 
L 500 1259 
Q 947 1022 1364 901 
Q 1781 781 2169 781 
Q 2563 781 2772 912 
Q 2981 1044 2981 1288 
Q 2981 1506 2839 1625 
Q 2697 1744 2272 1838 
L 1806 1941 
Q 1106 2091 782 2419 
Q 459 2747 459 3303 
Q 459 4000 909 4375 
Q 1359 4750 2203 4750 
Q 2588 4750 2994 4692 
Q 3400 4634 3834 4519 
z
" transform="scale(0.015625)"/>
      <path id="DejaVuSans-Bold-58" d="M 500 1363 
L 500 3500 
L 1625 3500 
L 1625 3150 
Q 1625 2866 1622 2436 
Q 1619 2006 1619 1863 
Q 1619 1441 1641 1255 
Q 1663 1069 1716 984 
Q 1784 875 1895 815 
Q 2006 756 2150 756 
Q 2500 756 2700 1025 
Q 2900 1294 2900 1772 
L 2900 3500 
L 4019 3500 
L 4019 0 
L 2900 0 
L 2900 506 
Q 2647 200 2364 54 
Q 2081 -91 1741 -91 
Q 1134 -91 817 281 
Q 500 653 500 1363 
z
" transform="scale(0.015625)"/>
      <path id="DejaVuSans-Bold-4c" d="M 538 3500 
L 1656 3500 
L 1656 0 
L 538 0 
L 538 3500 
z
M 538 4863 
L 1656 4863 
L 1656 3950 
L 538 3950 
L 538 4863 
z
" transform="scale(0.015625)"/>
      <path id="DejaVuSans-Bold-45" d="M 2400 722 
Q 2759 722 2948 984 
Q 3138 1247 3138 1747 
Q 3138 2247 2948 2509 
Q 2759 2772 2400 2772 
Q 2041 2772 1848 2508 
Q 1656 2244 1656 1747 
Q 1656 1250 1848 986 
Q 2041 722 2400 722 
z
M 1656 2988 
Q 1888 3294 2169 3439 
Q 2450 3584 2816 3584 
Q 3463 3584 3878 3070 
Q 4294 2556 4294 1747 
Q 4294 938 3878 423 
Q 3463 -91 2816 -91 
Q 2450 -91 2169 54 
Q 1888 200 1656 506 
L 1656 0 
L 538 0 
L 538 4863 
L 1656 4863 
L 1656 2988 
z
" transform="scale(0.015625)"/>
      <path id="DejaVuSans-Bold-5c" d="M 78 3500 
L 1197 3500 
L 2138 1125 
L 2938 3500 
L 4056 3500 
L 2584 -331 
Q 2363 -916 2067 -1148 
Q 1772 -1381 1288 -1381 
L 641 -1381 
L 641 -647 
L 991 -647 
Q 1275 -647 1404 -556 
Q 1534 -466 1606 -231 
L 1638 -134 
L 78 3500 
z
" transform="scale(0.015625)"/>
      <path id="DejaVuSans-Bold-2b" d="M 588 4666 
L 1791 4666 
L 1791 2888 
L 3566 2888 
L 3566 4666 
L 4769 4666 
L 4769 0 
L 3566 0 
L 3566 1978 
L 1791 1978 
L 1791 0 
L 588 0 
L 588 4666 
z
" transform="scale(0.015625)"/>
      <path id="DejaVuSans-Bold-52" d="M 2203 2784 
Q 1831 2784 1636 2517 
Q 1441 2250 1441 1747 
Q 1441 1244 1636 976 
Q 1831 709 2203 709 
Q 2569 709 2762 976 
Q 2956 1244 2956 1747 
Q 2956 2250 2762 2517 
Q 2569 2784 2203 2784 
z
M 2203 3584 
Q 3106 3584 3614 3096 
Q 4122 2609 4122 1747 
Q 4122 884 3614 396 
Q 3106 -91 2203 -91 
Q 1297 -91 786 396 
Q 275 884 275 1747 
Q 275 2609 786 3096 
Q 1297 3584 2203 3584 
z
" transform="scale(0.015625)"/>
      <path id="DejaVuSans-Bold-56" d="M 3272 3391 
L 3272 2541 
Q 2913 2691 2578 2766 
Q 2244 2841 1947 2841 
Q 1628 2841 1473 2761 
Q 1319 2681 1319 2516 
Q 1319 2381 1436 2309 
Q 1553 2238 1856 2203 
L 2053 2175 
Q 2913 2066 3209 1816 
Q 3506 1566 3506 1031 
Q 3506 472 3093 190 
Q 2681 -91 1863 -91 
Q 1516 -91 1145 -36 
Q 775 19 384 128 
L 384 978 
Q 719 816 1070 734 
Q 1422 653 1784 653 
Q 2113 653 2278 743 
Q 2444 834 2444 1013 
Q 2444 1163 2330 1236 
Q 2216 1309 1875 1350 
L 1678 1375 
Q 931 1469 631 1722 
Q 331 1975 331 2491 
Q 331 3047 712 3315 
Q 1094 3584 1881 3584 
Q 2191 3584 2531 3537 
Q 2872 3491 3272 3391 
z
" transform="scale(0.015625)"/>
      <path id="DejaVuSans-Bold-4b" d="M 4056 2131 
L 4056 0 
L 2931 0 
L 2931 347 
L 2931 1625 
Q 2931 2084 2911 2256 
Q 2891 2428 2841 2509 
Q 2775 2619 2662 2680 
Q 2550 2741 2406 2741 
Q 2056 2741 1856 2470 
Q 1656 2200 1656 1722 
L 1656 0 
L 538 0 
L 538 4863 
L 1656 4863 
L 1656 2988 
Q 1909 3294 2193 3439 
Q 2478 3584 2822 3584 
Q 3428 3584 3742 3212 
Q 4056 2841 4056 2131 
z
" transform="scale(0.015625)"/>
      <path id="DejaVuSans-Bold-47" d="M 2919 2988 
L 2919 4863 
L 4044 4863 
L 4044 0 
L 2919 0 
L 2919 506 
Q 2688 197 2409 53 
Q 2131 -91 1766 -91 
Q 1119 -91 703 423 
Q 288 938 288 1747 
Q 288 2556 703 3070 
Q 1119 3584 1766 3584 
Q 2128 3584 2408 3439 
Q 2688 3294 2919 2988 
z
M 2181 722 
Q 2541 722 2730 984 
Q 2919 1247 2919 1747 
Q 2919 2247 2730 2509 
Q 2541 2772 2181 2772 
Q 1825 2772 1636 2509 
Q 1447 2247 1447 1747 
Q 1447 1247 1636 984 
Q 1825 722 2181 722 
z
" transform="scale(0.015625)"/>
      <path id="DejaVuSans-Bold-30" d="M 588 4666 
L 2119 4666 
L 3181 2169 
L 4250 4666 
L 5778 4666 
L 5778 0 
L 4641 0 
L 4641 3413 
L 3566 897 
L 2803 897 
L 1728 3413 
L 1728 0 
L 588 0 
L 588 4666 
z
" transform="scale(0.015625)"/>
      <path id="DejaVuSans-Bold-46" d="M 3366 3391 
L 3366 2478 
Q 3138 2634 2908 2709 
Q 2678 2784 2431 2784 
Q 1963 2784 1702 2511 
Q 1441 2238 1441 1747 
Q 1441 1256 1702 982 
Q 1963 709 2431 709 
Q 2694 709 2930 787 
Q 3166 866 3366 1019 
L 3366 103 
Q 3103 6 2833 -42 
Q 2563 -91 2291 -91 
Q 1344 -91 809 395 
Q 275 881 275 1747 
Q 275 2613 809 3098 
Q 1344 3584 2291 3584 
Q 2566 3584 2833 3536 
Q 3100 3488 3366 3391 
z
" transform="scale(0.015625)"/>
      <path id="DejaVuSans-Bold-57" d="M 1759 4494 
L 1759 3500 
L 2913 3500 
L 2913 2700 
L 1759 2700 
L 1759 1216 
Q 1759 972 1856 886 
Q 1953 800 2241 800 
L 2816 800 
L 2816 0 
L 1856 0 
Q 1194 0 917 276 
Q 641 553 641 1216 
L 641 2700 
L 84 2700 
L 84 3500 
L 641 3500 
L 641 4494 
L 1759 4494 
z
" transform="scale(0.015625)"/>
      <path id="DejaVuSans-Bold-53" d="M 1656 506 
L 1656 -1331 
L 538 -1331 
L 538 3500 
L 1656 3500 
L 1656 2988 
Q 1888 3294 2169 3439 
Q 2450 3584 2816 3584 
Q 3463 3584 3878 3070 
Q 4294 2556 4294 1747 
Q 4294 938 3878 423 
Q 3463 -91 2816 -91 
Q 2450 -91 2169 54 
Q 1888 200 1656 506 
z
M 2400 2772 
Q 2041 2772 1848 2508 
Q 1656 2244 1656 1747 
Q 1656 1250 1848 986 
Q 2041 722 2400 722 
Q 2759 722 2948 984 
Q 3138 1247 3138 1747 
Q 3138 2247 2948 2509 
Q 2759 2772 2400 2772 
z
" transform="scale(0.015625)"/>
     </defs>
     <use xlink:href="#DejaVuSans-Bold-32"/>
     <use xlink:href="#DejaVuSans-Bold-59" transform="translate(85.015625 0)"/>
     <use xlink:href="#DejaVuSans-Bold-48" transform="translate(150.203125 0)"/>
     <use xlink:href="#DejaVuSans-Bold-55" transform="translate(218.03125 0)"/>
     <use xlink:href="#DejaVuSans-Bold-44" transform="translate(267.34375 0)"/>
     <use xlink:href="#DejaVuSans-Bold-4f" transform="translate(334.828125 0)"/>
     <use xlink:href="#DejaVuSans-Bold-4f" transform="translate(369.109375 0)"/>
     <use xlink:href="#DejaVuSans-Bold-3" transform="translate(403.390625 0)"/>
     <use xlink:href="#DejaVuSans-Bold-36" transform="translate(438.203125 0)"/>
     <use xlink:href="#DejaVuSans-Bold-58" transform="translate(510.21875 0)"/>
     <use xlink:href="#DejaVuSans-Bold-55" transform="translate(581.40625 0)"/>
     <use xlink:href="#DejaVuSans-Bold-59" transform="translate(630.71875 0)"/>
     <use xlink:href="#DejaVuSans-Bold-4c" transform="translate(695.90625 0)"/>
     <use xlink:href="#DejaVuSans-Bold-59" transform="translate(730.1875 0)"/>
     <use xlink:href="#DejaVuSans-Bold-44" transform="translate(795.375 0)"/>
     <use xlink:href="#DejaVuSans-Bold-4f" transform="translate(862.859375 0)"/>
     <use xlink:href="#DejaVuSans-Bold-3" transform="translate(897.140625 0)"/>
     <use xlink:href="#DejaVuSans-Bold-45" transform="translate(931.953125 0)"/>
     <use xlink:href="#DejaVuSans-Bold-5c" transform="translate(1003.53125 0)"/>
     <use xlink:href="#DejaVuSans-Bold-3" transform="translate(1068.71875 0)"/>
     <use xlink:href="#DejaVuSans-Bold-2b" transform="translate(1103.53125 0)"/>
     <use xlink:href="#DejaVuSans-Bold-52" transform="translate(1187.21875 0)"/>
     <use xlink:href="#DejaVuSans-Bold-56" transform="translate(1255.921875 0)"/>
     <use xlink:href="#DejaVuSans-Bold-4b" transform="translate(1315.4375 0)"/>
     <use xlink:href="#DejaVuSans-Bold-4c" transform="translate(1386.625 0)"/>
     <use xlink:href="#DejaVuSans-Bold-47" transform="translate(1420.90625 0)"/>
     <use xlink:href="#DejaVuSans-Bold-44" transform="translate(1492.484375 0)"/>
     <use xlink:href="#DejaVuSans-Bold-3" transform="translate(1559.96875 0)"/>
     <use xlink:href="#DejaVuSans-Bold-30" transform="translate(1594.78125 0)"/>
     <use xlink:href="#DejaVuSans-Bold-52" transform="translate(1694.296875 0)"/>
     <use xlink:href="#DejaVuSans-Bold-4f" transform="translate(1763 0)"/>
     <use xlink:href="#DejaVuSans-Bold-48" transform="translate(1797.28125 0)"/>
     <use xlink:href="#DejaVuSans-Bold-46" transform="translate(1865.109375 0)"/>
     <use xlink:href="#DejaVuSans-Bold-58" transform="translate(1924.390625 0)"/>
     <use xlink:href="#DejaVuSans-Bold-4f" transform="translate(1995.578125 0)"/>
     <use xlink:href="#DejaVuSans-Bold-44" transform="translate(2029.859375 0)"/>
     <use xlink:href="#DejaVuSans-Bold-55" transform="translate(2097.34375 0)"/>
     <use xlink:href="#DejaVuSans-Bold-3" transform="translate(2146.65625 0)"/>
     <use xlink:href="#DejaVuSans-Bold-36" transform="translate(2181.46875 0)"/>
     <use xlink:href="#DejaVuSans-Bold-58" transform="translate(2253.484375 0)"/>
     <use xlink:href="#DejaVuSans-Bold-45" transform="translate(2324.671875 0)"/>
     <use xlink:href="#DejaVuSans-Bold-57" transform="translate(2396.25 0)"/>
     <use xlink:href="#DejaVuSans-Bold-5c" transform="translate(2444.046875 0)"/>
     <use xlink:href="#DejaVuSans-Bold-53" transform="translate(2509.234375 0)"/>
     <use xlink:href="#DejaVuSans-Bold-48" transform="translate(2580.8125 0)"/>
    </g>
    <!-- TCGA-LIHC -->
    <g transform="translate(234.352187 29.861504) scale(0.11 -0.11)">
     <defs>
      <path id="DejaVuSans-Bold-37" d="M 31 4666 
L 4331 4666 
L 4331 3756 
L 2784 3756 
L 2784 0 
L 1581 0 
L 1581 3756 
L 31 3756 
L 31 4666 
z
" transform="scale(0.015625)"/>
      <path id="DejaVuSans-Bold-26" d="M 4288 256 
Q 3956 84 3597 -3 
Q 3238 -91 2847 -91 
Q 1681 -91 1000 561 
Q 319 1213 319 2328 
Q 319 3447 1000 4098 
Q 1681 4750 2847 4750 
Q 3238 4750 3597 4662 
Q 3956 4575 4288 4403 
L 4288 3438 
Q 3953 3666 3628 3772 
Q 3303 3878 2944 3878 
Q 2300 3878 1931 3465 
Q 1563 3053 1563 2328 
Q 1563 1606 1931 1193 
Q 2300 781 2944 781 
Q 3303 781 3628 887 
Q 3953 994 4288 1222 
L 4288 256 
z
" transform="scale(0.015625)"/>
      <path id="DejaVuSans-Bold-2a" d="M 4781 347 
Q 4331 128 3847 18 
Q 3363 -91 2847 -91 
Q 1681 -91 1000 561 
Q 319 1213 319 2328 
Q 319 3456 1012 4103 
Q 1706 4750 2913 4750 
Q 3378 4750 3804 4662 
Q 4231 4575 4609 4403 
L 4609 3438 
Q 4219 3659 3833 3768 
Q 3447 3878 3059 3878 
Q 2341 3878 1952 3476 
Q 1563 3075 1563 2328 
Q 1563 1588 1938 1184 
Q 2313 781 3003 781 
Q 3191 781 3352 804 
Q 3513 828 3641 878 
L 3641 1784 
L 2906 1784 
L 2906 2591 
L 4781 2591 
L 4781 347 
z
" transform="scale(0.015625)"/>
      <path id="DejaVuSans-Bold-24" d="M 3419 850 
L 1538 850 
L 1241 0 
L 31 0 
L 1759 4666 
L 3194 4666 
L 4922 0 
L 3713 0 
L 3419 850 
z
M 1838 1716 
L 3116 1716 
L 2478 3572 
L 1838 1716 
z
" transform="scale(0.015625)"/>
      <path id="DejaVuSans-Bold-10" d="M 347 2297 
L 2309 2297 
L 2309 1388 
L 347 1388 
L 347 2297 
z
" transform="scale(0.015625)"/>
      <path id="DejaVuSans-Bold-2f" d="M 588 4666 
L 1791 4666 
L 1791 909 
L 3903 909 
L 3903 0 
L 588 0 
L 588 4666 
z
" transform="scale(0.015625)"/>
      <path id="DejaVuSans-Bold-2c" d="M 588 4666 
L 1791 4666 
L 1791 0 
L 588 0 
L 588 4666 
z
" transform="scale(0.015625)"/>
     </defs>
     <use xlink:href="#DejaVuSans-Bold-37"/>
     <use xlink:href="#DejaVuSans-Bold-26" transform="translate(68.21875 0)"/>
     <use xlink:href="#DejaVuSans-Bold-2a" transform="translate(141.609375 0)"/>
     <use xlink:href="#DejaVuSans-Bold-24" transform="translate(223.6875 0)"/>
     <use xlink:href="#DejaVuSans-Bold-10" transform="translate(301.078125 0)"/>
     <use xlink:href="#DejaVuSans-Bold-2f" transform="translate(342.578125 0)"/>
     <use xlink:href="#DejaVuSans-Bold-2c" transform="translate(406.296875 0)"/>
     <use xlink:href="#DejaVuSans-Bold-2b" transform="translate(443.5 0)"/>
     <use xlink:href="#DejaVuSans-Bold-26" transform="translate(527.1875 0)"/>
    </g>
   </g>
   <g id="legend_1">
    <g id="patch_6">
     <path d="M 52.103984 308.600859 
L 141.600859 308.600859 
Q 143.600859 308.600859 143.600859 306.600859 
L 143.600859 262.598516 
Q 143.600859 260.598516 141.600859 260.598516 
L 52.103984 260.598516 
Q 50.103984 260.598516 50.103984 262.598516 
L 50.103984 306.600859 
Q 50.103984 308.600859 52.103984 308.600859 
z
" style="fill: #ffffff; opacity: 0.8; stroke: #cccccc; stroke-linejoin: miter"/>
    </g>
    <g id="line2d_17">
     <path d="M 54.103984 268.696953 
L 64.103984 268.696953 
L 64.103984 268.696953 
L 74.103984 268.696953 
L 74.103984 268.696953 
" style="fill: none; stroke: #c0392b; stroke-width: 1.5; stroke-linecap: square"/>
    </g>
    <g id="text_18">
     <!-- S1 (n=112) -->
     <g transform="translate(82.103984 272.196953) scale(0.1 -0.1)">
      <defs>
       <path id="DejaVuSans-36" d="M 3425 4513 
L 3425 3897 
Q 3066 4069 2747 4153 
Q 2428 4238 2131 4238 
Q 1616 4238 1336 4038 
Q 1056 3838 1056 3469 
Q 1056 3159 1242 3001 
Q 1428 2844 1947 2747 
L 2328 2669 
Q 3034 2534 3370 2195 
Q 3706 1856 3706 1288 
Q 3706 609 3251 259 
Q 2797 -91 1919 -91 
Q 1588 -91 1214 -16 
Q 841 59 441 206 
L 441 856 
Q 825 641 1194 531 
Q 1563 422 1919 422 
Q 2459 422 2753 634 
Q 3047 847 3047 1241 
Q 3047 1584 2836 1778 
Q 2625 1972 2144 2069 
L 1759 2144 
Q 1053 2284 737 2584 
Q 422 2884 422 3419 
Q 422 4038 858 4394 
Q 1294 4750 2059 4750 
Q 2388 4750 2728 4690 
Q 3069 4631 3425 4513 
z
" transform="scale(0.015625)"/>
      </defs>
      <use xlink:href="#DejaVuSans-36"/>
      <use xlink:href="#DejaVuSans-14" transform="translate(63.484375 0)"/>
      <use xlink:href="#DejaVuSans-3" transform="translate(127.109375 0)"/>
      <use xlink:href="#DejaVuSans-b" transform="translate(158.890625 0)"/>
      <use xlink:href="#DejaVuSans-51" transform="translate(197.90625 0)"/>
      <use xlink:href="#DejaVuSans-20" transform="translate(261.28125 0)"/>
      <use xlink:href="#DejaVuSans-14" transform="translate(345.078125 0)"/>
      <use xlink:href="#DejaVuSans-14" transform="translate(408.703125 0)"/>
      <use xlink:href="#DejaVuSans-15" transform="translate(472.328125 0)"/>
      <use xlink:href="#DejaVuSans-c" transform="translate(535.953125 0)"/>
     </g>
    </g>
    <g id="line2d_18">
     <path d="M 54.103984 283.697734 
L 64.103984 283.697734 
L 64.103984 283.697734 
L 74.103984 283.697734 
L 74.103984 283.697734 
" style="fill: none; stroke: #e67e22; stroke-width: 1.5; stroke-linecap: square"/>
    </g>
    <g id="text_19">
     <!-- S2 (n=51) -->
     <g transform="translate(82.103984 287.197734) scale(0.1 -0.1)">
      <defs>
       <path id="DejaVuSans-18" d="M 691 4666 
L 3169 4666 
L 3169 4134 
L 1269 4134 
L 1269 2991 
Q 1406 3038 1543 3061 
Q 1681 3084 1819 3084 
Q 2600 3084 3056 2656 
Q 3513 2228 3513 1497 
Q 3513 744 3044 326 
Q 2575 -91 1722 -91 
Q 1428 -91 1123 -41 
Q 819 9 494 109 
L 494 744 
Q 775 591 1075 516 
Q 1375 441 1709 441 
Q 2250 441 2565 725 
Q 2881 1009 2881 1497 
Q 2881 1984 2565 2268 
Q 2250 2553 1709 2553 
Q 1456 2553 1204 2497 
Q 953 2441 691 2322 
L 691 4666 
z
" transform="scale(0.015625)"/>
      </defs>
      <use xlink:href="#DejaVuSans-36"/>
      <use xlink:href="#DejaVuSans-15" transform="translate(63.484375 0)"/>
      <use xlink:href="#DejaVuSans-3" transform="translate(127.109375 0)"/>
      <use xlink:href="#DejaVuSans-b" transform="translate(158.890625 0)"/>
      <use xlink:href="#DejaVuSans-51" transform="translate(197.90625 0)"/>
      <use xlink:href="#DejaVuSans-20" transform="translate(261.28125 0)"/>
      <use xlink:href="#DejaVuSans-18" transform="translate(345.078125 0)"/>
      <use xlink:href="#DejaVuSans-14" transform="translate(408.703125 0)"/>
      <use xlink:href="#DejaVuSans-c" transform="translate(472.328125 0)"/>
     </g>
    </g>
    <g id="line2d_19">
     <path d="M 54.103984 298.698516 
L 64.103984 298.698516 
L 64.103984 298.698516 
L 74.103984 298.698516 
L 74.103984 298.698516 
" style="fill: none; stroke: #27ae60; stroke-width: 1.5; stroke-linecap: square"/>
    </g>
    <g id="text_20">
     <!-- S3 (n=202) -->
     <g transform="translate(82.103984 302.198516) scale(0.1 -0.1)">
      <defs>
       <path id="DejaVuSans-16" d="M 2597 2516 
Q 3050 2419 3304 2112 
Q 3559 1806 3559 1356 
Q 3559 666 3084 287 
Q 2609 -91 1734 -91 
Q 1441 -91 1130 -33 
Q 819 25 488 141 
L 488 750 
Q 750 597 1062 519 
Q 1375 441 1716 441 
Q 2309 441 2620 675 
Q 2931 909 2931 1356 
Q 2931 1769 2642 2001 
Q 2353 2234 1838 2234 
L 1294 2234 
L 1294 2753 
L 1863 2753 
Q 2328 2753 2575 2939 
Q 2822 3125 2822 3475 
Q 2822 3834 2567 4026 
Q 2313 4219 1838 4219 
Q 1578 4219 1281 4162 
Q 984 4106 628 3988 
L 628 4550 
Q 988 4650 1302 4700 
Q 1616 4750 1894 4750 
Q 2613 4750 3031 4423 
Q 3450 4097 3450 3541 
Q 3450 3153 3228 2886 
Q 3006 2619 2597 2516 
z
" transform="scale(0.015625)"/>
      </defs>
      <use xlink:href="#DejaVuSans-36"/>
      <use xlink:href="#DejaVuSans-16" transform="translate(63.484375 0)"/>
      <use xlink:href="#DejaVuSans-3" transform="translate(127.109375 0)"/>
      <use xlink:href="#DejaVuSans-b" transform="translate(158.890625 0)"/>
      <use xlink:href="#DejaVuSans-51" transform="translate(197.90625 0)"/>
      <use xlink:href="#DejaVuSans-20" transform="translate(261.28125 0)"/>
      <use xlink:href="#DejaVuSans-15" transform="translate(345.078125 0)"/>
      <use xlink:href="#DejaVuSans-13" transform="translate(408.703125 0)"/>
      <use xlink:href="#DejaVuSans-15" transform="translate(472.328125 0)"/>
      <use xlink:href="#DejaVuSans-c" transform="translate(535.953125 0)"/>
     </g>
    </g>
   </g>
  </g>
 </g>
 <defs>
  <clipPath id="p22d209da5e">
   <rect x="45.103984" y="35.861504" width="444.56" height="277.739355"/>
  </clipPath>
 </defs>
</svg>
