<?xml version="1.0" encoding="utf-8" standalone="no"?>
<!DOCTYPE svg PUBLIC "-//W3C//DTD SVG 1.1//EN"
  "http://www.w3.org/Graphics/SVG/1.1/DTD/svg11.dtd">
<svg xmlns:xlink="http://www.w3.org/1999/xlink" width="638.730672pt" height="352.074375pt" viewBox="0 0 638.730672 352.074375" xmlns="http://www.w3.org/2000/svg" version="1.1">
 <metadata>
  <rdf:RDF xmlns:dc="http://purl.org/dc/elements/1.1/" xmlns:cc="http://creativecommons.org/ns#" xmlns:rdf="http://www.w3.org/1999/02/22-rdf-syntax-ns#">
   <cc:Work>
    <dc:type rdf:resource="http://purl.org/dc/dcmitype/StillImage"/>
    <dc:date>2026-07-04T18:27:51.954180</dc:date>
    <dc:format>image/svg+xml</dc:format>
    <dc:creator>
     <cc:Agent>
      <dc:title>Matplotlib v3.11.0, https://matplotlib.org/</dc:title>
     </cc:Agent>
    </dc:creator>
   </cc:Work>
  </rdf:RDF>
 </metadata>
 <defs>
  <style type="text/css">*{stroke-linejoin: round; stroke-linecap: butt}</style>
 </defs>
 <g id="figure_1">
  <g id="patch_1">
   <path d="M 0 352.074375 
L 638.730672 352.074375 
L 638.730672 0 
L 0 0 
z
" style="fill: #ffffff"/>
  </g>
  <g id="axes_1">
   <g id="patch_2">
    <path d="M 133.89914 311.873437 
L 627.725907 311.873437 
L 627.725907 37.922578 
L 133.89914 37.922578 
z
" style="fill: #ffffff"/>
   </g>
   <g id="matplotlib.axis_1">
    <g id="xtick_1">
     <g id="line2d_1">
      <defs>
       <path id="m89967e0fd1" d="M 0 0 
L 0 3.5 
" style="stroke: #000000; stroke-width: 0.8"/>
      </defs>
      <g>
       <use xlink:href="#m89967e0fd1" x="138.829246" y="311.873437" style="stroke: #000000; stroke-width: 0.8"/>
      </g>
     </g>
     <g id="text_1">
      <!-- 0.4 -->
      <g transform="translate(130.877684 326.471094) scale(0.1 -0.1)">
       <defs>
        <path id="DejaVuSans-13" d="M 2034 4250 
Q 1547 4250 1301 3770 
Q 1056 3291 1056 2328 
Q 1056 1369 1301 889 
Q 1547 409 2034 409 
Q 2525 409 2770 889 
Q 3016 1369 3016 2328 
Q 3016 3291 2770 3770 
Q 2525 4250 2034 4250 
z
M 2034 4750 
Q 2819 4750 3233 4129 
Q 3647 3509 3647 2328 
Q 3647 1150 3233 529 
Q 2819 -91 2034 -91 
Q 1250 -91 836 529 
Q 422 1150 422 2328 
Q 422 3509 836 4129 
Q 1250 4750 2034 4750 
z
" transform="scale(0.015625)"/>
        <path id="DejaVuSans-11" d="M 684 794 
L 1344 794 
L 1344 0 
L 684 0 
L 684 794 
z
" transform="scale(0.015625)"/>
        <path id="DejaVuSans-17" d="M 2419 4116 
L 825 1625 
L 2419 1625 
L 2419 4116 
z
M 2253 4666 
L 3047 4666 
L 3047 1625 
L 3713 1625 
L 3713 1100 
L 3047 1100 
L 3047 0 
L 2419 0 
L 2419 1100 
L 313 1100 
L 313 1709 
L 2253 4666 
z
" transform="scale(0.015625)"/>
       </defs>
       <use xlink:href="#DejaVuSans-13"/>
       <use xlink:href="#DejaVuSans-11" transform="translate(63.625 0)"/>
       <use xlink:href="#DejaVuSans-17" transform="translate(95.40625 0)"/>
      </g>
     </g>
    </g>
    <g id="xtick_2">
     <g id="line2d_2">
      <g>
       <use xlink:href="#m89967e0fd1" x="197.647493" y="311.873437" style="stroke: #000000; stroke-width: 0.8"/>
      </g>
     </g>
     <g id="text_2">
      <!-- 0.6 -->
      <g transform="translate(189.695931 326.471094) scale(0.1 -0.1)">
       <defs>
        <path id="DejaVuSans-19" d="M 2113 2584 
Q 1688 2584 1439 2293 
Q 1191 2003 1191 1497 
Q 1191 994 1439 701 
Q 1688 409 2113 409 
Q 2538 409 2786 701 
Q 3034 994 3034 1497 
Q 3034 2003 2786 2293 
Q 2538 2584 2113 2584 
z
M 3366 4563 
L 3366 3988 
Q 3128 4100 2886 4159 
Q 2644 4219 2406 4219 
Q 1781 4219 1451 3797 
Q 1122 3375 1075 2522 
Q 1259 2794 1537 2939 
Q 1816 3084 2150 3084 
Q 2853 3084 3261 2657 
Q 3669 2231 3669 1497 
Q 3669 778 3244 343 
Q 2819 -91 2113 -91 
Q 1303 -91 875 529 
Q 447 1150 447 2328 
Q 447 3434 972 4092 
Q 1497 4750 2381 4750 
Q 2619 4750 2861 4703 
Q 3103 4656 3366 4563 
z
" transform="scale(0.015625)"/>
       </defs>
       <use xlink:href="#DejaVuSans-13"/>
       <use xlink:href="#DejaVuSans-11" transform="translate(63.625 0)"/>
       <use xlink:href="#DejaVuSans-19" transform="translate(95.40625 0)"/>
      </g>
     </g>
    </g>
    <g id="xtick_3">
     <g id="line2d_3">
      <g>
       <use xlink:href="#m89967e0fd1" x="256.46574" y="311.873437" style="stroke: #000000; stroke-width: 0.8"/>
      </g>
     </g>
     <g id="text_3">
      <!-- 0.8 -->
      <g transform="translate(248.514177 326.471094) scale(0.1 -0.1)">
       <defs>
        <path id="DejaVuSans-1b" d="M 2034 2216 
Q 1584 2216 1326 1975 
Q 1069 1734 1069 1313 
Q 1069 891 1326 650 
Q 1584 409 2034 409 
Q 2484 409 2743 651 
Q 3003 894 3003 1313 
Q 3003 1734 2745 1975 
Q 2488 2216 2034 2216 
z
M 1403 2484 
Q 997 2584 770 2862 
Q 544 3141 544 3541 
Q 544 4100 942 4425 
Q 1341 4750 2034 4750 
Q 2731 4750 3128 4425 
Q 3525 4100 3525 3541 
Q 3525 3141 3298 2862 
Q 3072 2584 2669 2484 
Q 3125 2378 3379 2068 
Q 3634 1759 3634 1313 
Q 3634 634 3220 271 
Q 2806 -91 2034 -91 
Q 1263 -91 848 271 
Q 434 634 434 1313 
Q 434 1759 690 2068 
Q 947 2378 1403 2484 
z
M 1172 3481 
Q 1172 3119 1398 2916 
Q 1625 2713 2034 2713 
Q 2441 2713 2670 2916 
Q 2900 3119 2900 3481 
Q 2900 3844 2670 4047 
Q 2441 4250 2034 4250 
Q 1625 4250 1398 4047 
Q 1172 3844 1172 3481 
z
" transform="scale(0.015625)"/>
       </defs>
       <use xlink:href="#DejaVuSans-13"/>
       <use xlink:href="#DejaVuSans-11" transform="translate(63.625 0)"/>
       <use xlink:href="#DejaVuSans-1b" transform="translate(95.40625 0)"/>
      </g>
     </g>
    </g>
    <g id="xtick_4">
     <g id="line2d_4">
      <g>
       <use xlink:href="#m89967e0fd1" x="315.283986" y="311.873437" style="stroke: #000000; stroke-width: 0.8"/>
      </g>
     </g>
     <g id="text_4">
      <!-- 1.0 -->
      <g transform="translate(307.332424 326.471094) scale(0.1 -0.1)">
       <defs>
        <path id="DejaVuSans-14" d="M 794 531 
L 1825 531 
L 1825 4091 
L 703 3866 
L 703 4441 
L 1819 4666 
L 2450 4666 
L 2450 531 
L 3481 531 
L 3481 0 
L 794 0 
L 794 531 
z
" transform="scale(0.015625)"/>
       </defs>
       <use xlink:href="#DejaVuSans-14"/>
       <use xlink:href="#DejaVuSans-11" transform="translate(63.625 0)"/>
       <use xlink:href="#DejaVuSans-13" transform="translate(95.40625 0)"/>
      </g>
     </g>
    </g>
    <g id="xtick_5">
     <g id="line2d_5">
      <g>
       <use xlink:href="#m89967e0fd1" x="374.102233" y="311.873437" style="stroke: #000000; stroke-width: 0.8"/>
      </g>
     </g>
     <g id="text_5">
      <!-- 1.2 -->
      <g transform="translate(366.150671 326.471094) scale(0.1 -0.1)">
       <defs>
        <path id="DejaVuSans-15" d="M 1228 531 
L 3431 531 
L 3431 0 
L 469 0 
L 469 531 
Q 828 903 1448 1529 
Q 2069 2156 2228 2338 
Q 2531 2678 2651 2914 
Q 2772 3150 2772 3378 
Q 2772 3750 2511 3984 
Q 2250 4219 1831 4219 
Q 1534 4219 1204 4116 
Q 875 4013 500 3803 
L 500 4441 
Q 881 4594 1212 4672 
Q 1544 4750 1819 4750 
Q 2544 4750 2975 4387 
Q 3406 4025 3406 3419 
Q 3406 3131 3298 2873 
Q 3191 2616 2906 2266 
Q 2828 2175 2409 1742 
Q 1991 1309 1228 531 
z
" transform="scale(0.015625)"/>
       </defs>
       <use xlink:href="#DejaVuSans-14"/>
       <use xlink:href="#DejaVuSans-11" transform="translate(63.625 0)"/>
       <use xlink:href="#DejaVuSans-15" transform="translate(95.40625 0)"/>
      </g>
     </g>
    </g>
    <g id="xtick_6">
     <g id="line2d_6">
      <g>
       <use xlink:href="#m89967e0fd1" x="432.92048" y="311.873437" style="stroke: #000000; stroke-width: 0.8"/>
      </g>
     </g>
     <g id="text_6">
      <!-- 1.4 -->
      <g transform="translate(424.968917 326.471094) scale(0.1 -0.1)">
       <use xlink:href="#DejaVuSans-14"/>
       <use xlink:href="#DejaVuSans-11" transform="translate(63.625 0)"/>
       <use xlink:href="#DejaVuSans-17" transform="translate(95.40625 0)"/>
      </g>
     </g>
    </g>
    <g id="xtick_7">
     <g id="line2d_7">
      <g>
       <use xlink:href="#m89967e0fd1" x="491.738726" y="311.873437" style="stroke: #000000; stroke-width: 0.8"/>
      </g>
     </g>
     <g id="text_7">
      <!-- 1.6 -->
      <g transform="translate(483.787164 326.471094) scale(0.1 -0.1)">
       <use xlink:href="#DejaVuSans-14"/>
       <use xlink:href="#DejaVuSans-11" transform="translate(63.625 0)"/>
       <use xlink:href="#DejaVuSans-19" transform="translate(95.40625 0)"/>
      </g>
     </g>
    </g>
    <g id="xtick_8">
     <g id="line2d_8">
      <g>
       <use xlink:href="#m89967e0fd1" x="550.556973" y="311.873437" style="stroke: #000000; stroke-width: 0.8"/>
      </g>
     </g>
     <g id="text_8">
      <!-- 1.8 -->
      <g transform="translate(542.605411 326.471094) scale(0.1 -0.1)">
       <use xlink:href="#DejaVuSans-14"/>
       <use xlink:href="#DejaVuSans-11" transform="translate(63.625 0)"/>
       <use xlink:href="#DejaVuSans-1b" transform="translate(95.40625 0)"/>
      </g>
     </g>
    </g>
    <g id="xtick_9">
     <g id="line2d_9">
      <g>
       <use xlink:href="#m89967e0fd1" x="609.37522" y="311.873437" style="stroke: #000000; stroke-width: 0.8"/>
      </g>
     </g>
     <g id="text_9">
      <!-- 2.0 -->
      <g transform="translate(601.423657 326.471094) scale(0.1 -0.1)">
       <use xlink:href="#DejaVuSans-15"/>
       <use xlink:href="#DejaVuSans-11" transform="translate(63.625 0)"/>
       <use xlink:href="#DejaVuSans-13" transform="translate(95.40625 0)"/>
      </g>
     </g>
    </g>
    <g id="text_10">
     <!-- Hazard Ratio (95% CI) -->
     <g transform="translate(314.524711 341.991562) scale(0.12 -0.12)">
      <defs>
       <path id="DejaVuSans-2b" d="M 628 4666 
L 1259 4666 
L 1259 2753 
L 3553 2753 
L 3553 4666 
L 4184 4666 
L 4184 0 
L 3553 0 
L 3553 2222 
L 1259 2222 
L 1259 0 
L 628 0 
L 628 4666 
z
" transform="scale(0.015625)"/>
       <path id="DejaVuSans-44" d="M 2194 1759 
Q 1497 1759 1228 1600 
Q 959 1441 959 1056 
Q 959 750 1161 570 
Q 1363 391 1709 391 
Q 2188 391 2477 730 
Q 2766 1069 2766 1631 
L 2766 1759 
L 2194 1759 
z
M 3341 1997 
L 3341 0 
L 2766 0 
L 2766 531 
Q 2569 213 2275 61 
Q 1981 -91 1556 -91 
Q 1019 -91 701 211 
Q 384 513 384 1019 
Q 384 1609 779 1909 
Q 1175 2209 1959 2209 
L 2766 2209 
L 2766 2266 
Q 2766 2663 2505 2880 
Q 2244 3097 1772 3097 
Q 1472 3097 1187 3025 
Q 903 2953 641 2809 
L 641 3341 
Q 956 3463 1253 3523 
Q 1550 3584 1831 3584 
Q 2591 3584 2966 3190 
Q 3341 2797 3341 1997 
z
" transform="scale(0.015625)"/>
       <path id="DejaVuSans-5d" d="M 353 3500 
L 3084 3500 
L 3084 2975 
L 922 459 
L 3084 459 
L 3084 0 
L 275 0 
L 275 525 
L 2438 3041 
L 353 3041 
L 353 3500 
z
" transform="scale(0.015625)"/>
       <path id="DejaVuSans-55" d="M 2631 2963 
Q 2534 3019 2420 3045 
Q 2306 3072 2169 3072 
Q 1681 3072 1420 2755 
Q 1159 2438 1159 1844 
L 1159 0 
L 581 0 
L 581 3500 
L 1159 3500 
L 1159 2956 
Q 1341 3275 1631 3429 
Q 1922 3584 2338 3584 
Q 2397 3584 2469 3576 
Q 2541 3569 2628 3553 
L 2631 2963 
z
" transform="scale(0.015625)"/>
       <path id="DejaVuSans-47" d="M 2906 2969 
L 2906 4863 
L 3481 4863 
L 3481 0 
L 2906 0 
L 2906 525 
Q 2725 213 2448 61 
Q 2172 -91 1784 -91 
Q 1150 -91 751 415 
Q 353 922 353 1747 
Q 353 2572 751 3078 
Q 1150 3584 1784 3584 
Q 2172 3584 2448 3432 
Q 2725 3281 2906 2969 
z
M 947 1747 
Q 947 1113 1208 752 
Q 1469 391 1925 391 
Q 2381 391 2643 752 
Q 2906 1113 2906 1747 
Q 2906 2381 2643 2742 
Q 2381 3103 1925 3103 
Q 1469 3103 1208 2742 
Q 947 2381 947 1747 
z
" transform="scale(0.015625)"/>
       <path id="DejaVuSans-3" transform="scale(0.015625)"/>
       <path id="DejaVuSans-35" d="M 2841 2188 
Q 3044 2119 3236 1894 
Q 3428 1669 3622 1275 
L 4263 0 
L 3584 0 
L 2988 1197 
Q 2756 1666 2539 1819 
Q 2322 1972 1947 1972 
L 1259 1972 
L 1259 0 
L 628 0 
L 628 4666 
L 2053 4666 
Q 2853 4666 3247 4331 
Q 3641 3997 3641 3322 
Q 3641 2881 3436 2590 
Q 3231 2300 2841 2188 
z
M 1259 4147 
L 1259 2491 
L 2053 2491 
Q 2509 2491 2742 2702 
Q 2975 2913 2975 3322 
Q 2975 3731 2742 3939 
Q 2509 4147 2053 4147 
L 1259 4147 
z
" transform="scale(0.015625)"/>
       <path id="DejaVuSans-57" d="M 1172 4494 
L 1172 3500 
L 2356 3500 
L 2356 3053 
L 1172 3053 
L 1172 1153 
Q 1172 725 1289 603 
Q 1406 481 1766 481 
L 2356 481 
L 2356 0 
L 1766 0 
Q 1100 0 847 248 
Q 594 497 594 1153 
L 594 3053 
L 172 3053 
L 172 3500 
L 594 3500 
L 594 4494 
L 1172 4494 
z
" transform="scale(0.015625)"/>
       <path id="DejaVuSans-4c" d="M 603 3500 
L 1178 3500 
L 1178 0 
L 603 0 
L 603 3500 
z
M 603 4863 
L 1178 4863 
L 1178 4134 
L 603 4134 
L 603 4863 
z
" transform="scale(0.015625)"/>
       <path id="DejaVuSans-52" d="M 1959 3097 
Q 1497 3097 1228 2736 
Q 959 2375 959 1747 
Q 959 1119 1226 758 
Q 1494 397 1959 397 
Q 2419 397 2687 759 
Q 2956 1122 2956 1747 
Q 2956 2369 2687 2733 
Q 2419 3097 1959 3097 
z
M 1959 3584 
Q 2709 3584 3137 3096 
Q 3566 2609 3566 1747 
Q 3566 888 3137 398 
Q 2709 -91 1959 -91 
Q 1206 -91 779 398 
Q 353 888 353 1747 
Q 353 2609 779 3096 
Q 1206 3584 1959 3584 
z
" transform="scale(0.015625)"/>
       <path id="DejaVuSans-b" d="M 1984 4856 
Q 1566 4138 1362 3434 
Q 1159 2731 1159 2009 
Q 1159 1288 1364 580 
Q 1569 -128 1984 -844 
L 1484 -844 
Q 1016 -109 783 600 
Q 550 1309 550 2009 
Q 550 2706 781 3412 
Q 1013 4119 1484 4856 
L 1984 4856 
z
" transform="scale(0.015625)"/>
       <path id="DejaVuSans-1c" d="M 703 97 
L 703 672 
Q 941 559 1184 500 
Q 1428 441 1663 441 
Q 2288 441 2617 861 
Q 2947 1281 2994 2138 
Q 2813 1869 2534 1725 
Q 2256 1581 1919 1581 
Q 1219 1581 811 2004 
Q 403 2428 403 3163 
Q 403 3881 828 4315 
Q 1253 4750 1959 4750 
Q 2769 4750 3195 4129 
Q 3622 3509 3622 2328 
Q 3622 1225 3098 567 
Q 2575 -91 1691 -91 
Q 1453 -91 1209 -44 
Q 966 3 703 97 
z
M 1959 2075 
Q 2384 2075 2632 2365 
Q 2881 2656 2881 3163 
Q 2881 3666 2632 3958 
Q 2384 4250 1959 4250 
Q 1534 4250 1286 3958 
Q 1038 3666 1038 3163 
Q 1038 2656 1286 2365 
Q 1534 2075 1959 2075 
z
" transform="scale(0.015625)"/>
       <path id="DejaVuSans-18" d="M 691 4666 
L 3169 4666 
L 3169 4134 
L 1269 4134 
L 1269 2991 
Q 1406 3038 1543 3061 
Q 1681 3084 1819 3084 
Q 2600 3084 3056 2656 
Q 3513 2228 3513 1497 
Q 3513 744 3044 326 
Q 2575 -91 1722 -91 
Q 1428 -91 1123 -41 
Q 819 9 494 109 
L 494 744 
Q 775 591 1075 516 
Q 1375 441 1709 441 
Q 2250 441 2565 725 
Q 2881 1009 2881 1497 
Q 2881 1984 2565 2268 
Q 2250 2553 1709 2553 
Q 1456 2553 1204 2497 
Q 953 2441 691 2322 
L 691 4666 
z
" transform="scale(0.015625)"/>
       <path id="DejaVuSans-8" d="M 4653 2053 
Q 4381 2053 4226 1822 
Q 4072 1591 4072 1178 
Q 4072 772 4226 539 
Q 4381 306 4653 306 
Q 4919 306 5073 539 
Q 5228 772 5228 1178 
Q 5228 1588 5073 1820 
Q 4919 2053 4653 2053 
z
M 4653 2450 
Q 5147 2450 5437 2106 
Q 5728 1763 5728 1178 
Q 5728 594 5436 251 
Q 5144 -91 4653 -91 
Q 4153 -91 3862 251 
Q 3572 594 3572 1178 
Q 3572 1766 3864 2108 
Q 4156 2450 4653 2450 
z
M 1428 4353 
Q 1159 4353 1004 4120 
Q 850 3888 850 3481 
Q 850 3069 1003 2837 
Q 1156 2606 1428 2606 
Q 1700 2606 1854 2837 
Q 2009 3069 2009 3481 
Q 2009 3884 1853 4118 
Q 1697 4353 1428 4353 
z
M 4250 4750 
L 4750 4750 
L 1831 -91 
L 1331 -91 
L 4250 4750 
z
M 1428 4750 
Q 1922 4750 2215 4408 
Q 2509 4066 2509 3481 
Q 2509 2891 2217 2550 
Q 1925 2209 1428 2209 
Q 931 2209 642 2551 
Q 353 2894 353 3481 
Q 353 4063 643 4406 
Q 934 4750 1428 4750 
z
" transform="scale(0.015625)"/>
       <path id="DejaVuSans-26" d="M 4122 4306 
L 4122 3641 
Q 3803 3938 3442 4084 
Q 3081 4231 2675 4231 
Q 1875 4231 1450 3742 
Q 1025 3253 1025 2328 
Q 1025 1406 1450 917 
Q 1875 428 2675 428 
Q 3081 428 3442 575 
Q 3803 722 4122 1019 
L 4122 359 
Q 3791 134 3420 21 
Q 3050 -91 2638 -91 
Q 1578 -91 968 557 
Q 359 1206 359 2328 
Q 359 3453 968 4101 
Q 1578 4750 2638 4750 
Q 3056 4750 3426 4639 
Q 3797 4528 4122 4306 
z
" transform="scale(0.015625)"/>
       <path id="DejaVuSans-2c" d="M 628 4666 
L 1259 4666 
L 1259 0 
L 628 0 
L 628 4666 
z
" transform="scale(0.015625)"/>
       <path id="DejaVuSans-c" d="M 513 4856 
L 1013 4856 
Q 1481 4119 1714 3412 
Q 1947 2706 1947 2009 
Q 1947 1309 1714 600 
Q 1481 -109 1013 -844 
L 513 -844 
Q 928 -128 1133 580 
Q 1338 1288 1338 2009 
Q 1338 2731 1133 3434 
Q 928 4138 513 4856 
z
" transform="scale(0.015625)"/>
      </defs>
      <use xlink:href="#DejaVuSans-2b"/>
      <use xlink:href="#DejaVuSans-44" transform="translate(75.203125 0)"/>
      <use xlink:href="#DejaVuSans-5d" transform="translate(136.484375 0)"/>
      <use xlink:href="#DejaVuSans-44" transform="translate(188.96875 0)"/>
      <use xlink:href="#DejaVuSans-55" transform="translate(250.25 0)"/>
      <use xlink:href="#DejaVuSans-47" transform="translate(289.609375 0)"/>
      <use xlink:href="#DejaVuSans-3" transform="translate(353.09375 0)"/>
      <use xlink:href="#DejaVuSans-35" transform="translate(384.875 0)"/>
      <use xlink:href="#DejaVuSans-44" transform="translate(452.15625 0)"/>
      <use xlink:href="#DejaVuSans-57" transform="translate(513.4375 0)"/>
      <use xlink:href="#DejaVuSans-4c" transform="translate(552.640625 0)"/>
      <use xlink:href="#DejaVuSans-52" transform="translate(580.421875 0)"/>
      <use xlink:href="#DejaVuSans-3" transform="translate(641.609375 0)"/>
      <use xlink:href="#DejaVuSans-b" transform="translate(673.390625 0)"/>
      <use xlink:href="#DejaVuSans-1c" transform="translate(712.40625 0)"/>
      <use xlink:href="#DejaVuSans-18" transform="translate(776.03125 0)"/>
      <use xlink:href="#DejaVuSans-8" transform="translate(839.65625 0)"/>
      <use xlink:href="#DejaVuSans-3" transform="translate(934.671875 0)"/>
      <use xlink:href="#DejaVuSans-26" transform="translate(966.453125 0)"/>
      <use xlink:href="#DejaVuSans-2c" transform="translate(1036.28125 0)"/>
      <use xlink:href="#DejaVuSans-c" transform="translate(1065.78125 0)"/>
     </g>
    </g>
   </g>
   <g id="matplotlib.axis_2">
    <g id="ytick_1">
     <g id="line2d_10">
      <defs>
       <path id="m8f61ad111f" d="M 0 0 
L -3.5 0 
" style="stroke: #000000; stroke-width: 0.8"/>
      </defs>
      <g>
       <use xlink:href="#m8f61ad111f" x="133.89914" y="299.421126" style="stroke: #000000; stroke-width: 0.8"/>
      </g>
     </g>
     <g id="text_11">
      <!-- Sex (Male) -->
      <g transform="translate(68.693672 303.600266) scale(0.11 -0.11)">
       <defs>
        <path id="DejaVuSans-36" d="M 3425 4513 
L 3425 3897 
Q 3066 4069 2747 4153 
Q 2428 4238 2131 4238 
Q 1616 4238 1336 4038 
Q 1056 3838 1056 3469 
Q 1056 3159 1242 3001 
Q 1428 2844 1947 2747 
L 2328 2669 
Q 3034 2534 3370 2195 
Q 3706 1856 3706 1288 
Q 3706 609 3251 259 
Q 2797 -91 1919 -91 
Q 1588 -91 1214 -16 
Q 841 59 441 206 
L 441 856 
Q 825 641 1194 531 
Q 1563 422 1919 422 
Q 2459 422 2753 634 
Q 3047 847 3047 1241 
Q 3047 1584 2836 1778 
Q 2625 1972 2144 2069 
L 1759 2144 
Q 1053 2284 737 2584 
Q 422 2884 422 3419 
Q 422 4038 858 4394 
Q 1294 4750 2059 4750 
Q 2388 4750 2728 4690 
Q 3069 4631 3425 4513 
z
" transform="scale(0.015625)"/>
        <path id="DejaVuSans-48" d="M 3597 1894 
L 3597 1613 
L 953 1613 
Q 991 1019 1311 708 
Q 1631 397 2203 397 
Q 2534 397 2845 478 
Q 3156 559 3463 722 
L 3463 178 
Q 3153 47 2828 -22 
Q 2503 -91 2169 -91 
Q 1331 -91 842 396 
Q 353 884 353 1716 
Q 353 2575 817 3079 
Q 1281 3584 2069 3584 
Q 2775 3584 3186 3129 
Q 3597 2675 3597 1894 
z
M 3022 2063 
Q 3016 2534 2758 2815 
Q 2500 3097 2075 3097 
Q 1594 3097 1305 2825 
Q 1016 2553 972 2059 
L 3022 2063 
z
" transform="scale(0.015625)"/>
        <path id="DejaVuSans-5b" d="M 3513 3500 
L 2247 1797 
L 3578 0 
L 2900 0 
L 1881 1375 
L 863 0 
L 184 0 
L 1544 1831 
L 300 3500 
L 978 3500 
L 1906 2253 
L 2834 3500 
L 3513 3500 
z
" transform="scale(0.015625)"/>
        <path id="DejaVuSans-30" d="M 628 4666 
L 1569 4666 
L 2759 1491 
L 3956 4666 
L 4897 4666 
L 4897 0 
L 4281 0 
L 4281 4097 
L 3078 897 
L 2444 897 
L 1241 4097 
L 1241 0 
L 628 0 
L 628 4666 
z
" transform="scale(0.015625)"/>
        <path id="DejaVuSans-4f" d="M 603 4863 
L 1178 4863 
L 1178 0 
L 603 0 
L 603 4863 
z
" transform="scale(0.015625)"/>
       </defs>
       <use xlink:href="#DejaVuSans-36"/>
       <use xlink:href="#DejaVuSans-48" transform="translate(63.484375 0)"/>
       <use xlink:href="#DejaVuSans-5b" transform="translate(123.265625 0)"/>
       <use xlink:href="#DejaVuSans-3" transform="translate(182.453125 0)"/>
       <use xlink:href="#DejaVuSans-b" transform="translate(214.234375 0)"/>
       <use xlink:href="#DejaVuSans-30" transform="translate(253.25 0)"/>
       <use xlink:href="#DejaVuSans-44" transform="translate(339.53125 0)"/>
       <use xlink:href="#DejaVuSans-4f" transform="translate(400.8125 0)"/>
       <use xlink:href="#DejaVuSans-48" transform="translate(428.59375 0)"/>
       <use xlink:href="#DejaVuSans-c" transform="translate(490.125 0)"/>
      </g>
     </g>
    </g>
    <g id="ytick_2">
     <g id="line2d_11">
      <g>
       <use xlink:href="#m8f61ad111f" x="133.89914" y="237.159567" style="stroke: #000000; stroke-width: 0.8"/>
      </g>
     </g>
     <g id="text_12">
      <!-- TRPC6 (log₂ RSEM) -->
      <g transform="translate(23.401172 241.338707) scale(0.11 -0.11)">
       <defs>
        <path id="DejaVuSans-37" d="M -19 4666 
L 3928 4666 
L 3928 4134 
L 2272 4134 
L 2272 0 
L 1638 0 
L 1638 4134 
L -19 4134 
L -19 4666 
z
" transform="scale(0.015625)"/>
        <path id="DejaVuSans-33" d="M 1259 4147 
L 1259 2394 
L 2053 2394 
Q 2494 2394 2734 2622 
Q 2975 2850 2975 3272 
Q 2975 3691 2734 3919 
Q 2494 4147 2053 4147 
L 1259 4147 
z
M 628 4666 
L 2053 4666 
Q 2838 4666 3239 4311 
Q 3641 3956 3641 3272 
Q 3641 2581 3239 2228 
Q 2838 1875 2053 1875 
L 1259 1875 
L 1259 0 
L 628 0 
L 628 4666 
z
" transform="scale(0.015625)"/>
        <path id="DejaVuSans-4a" d="M 2906 1791 
Q 2906 2416 2648 2759 
Q 2391 3103 1925 3103 
Q 1463 3103 1205 2759 
Q 947 2416 947 1791 
Q 947 1169 1205 825 
Q 1463 481 1925 481 
Q 2391 481 2648 825 
Q 2906 1169 2906 1791 
z
M 3481 434 
Q 3481 -459 3084 -895 
Q 2688 -1331 1869 -1331 
Q 1566 -1331 1297 -1286 
Q 1028 -1241 775 -1147 
L 775 -588 
Q 1028 -725 1275 -790 
Q 1522 -856 1778 -856 
Q 2344 -856 2625 -561 
Q 2906 -266 2906 331 
L 2906 616 
Q 2728 306 2450 153 
Q 2172 0 1784 0 
Q 1141 0 747 490 
Q 353 981 353 1791 
Q 353 2603 747 3093 
Q 1141 3584 1784 3584 
Q 2172 3584 2450 3431 
Q 2728 3278 2906 2969 
L 2906 3500 
L 3481 3500 
L 3481 434 
z
" transform="scale(0.015625)"/>
        <path id="DejaVuSans-b5d" d="M 838 356 
L 2163 356 
L 2163 0 
L 294 0 
L 294 343 
Q 400 440 597 615 
Q 1672 1568 1672 1862 
Q 1672 2068 1509 2194 
Q 1347 2321 1081 2321 
Q 919 2321 728 2266 
Q 538 2212 313 2103 
L 313 2487 
Q 553 2575 761 2618 
Q 969 2662 1147 2662 
Q 1600 2662 1872 2456 
Q 2144 2250 2144 1912 
Q 2144 1478 1109 590 
Q 934 440 838 356 
z
" transform="scale(0.015625)"/>
        <path id="DejaVuSans-28" d="M 628 4666 
L 3578 4666 
L 3578 4134 
L 1259 4134 
L 1259 2753 
L 3481 2753 
L 3481 2222 
L 1259 2222 
L 1259 531 
L 3634 531 
L 3634 0 
L 628 0 
L 628 4666 
z
" transform="scale(0.015625)"/>
       </defs>
       <use xlink:href="#DejaVuSans-37"/>
       <use xlink:href="#DejaVuSans-35" transform="translate(61.078125 0)"/>
       <use xlink:href="#DejaVuSans-33" transform="translate(130.5625 0)"/>
       <use xlink:href="#DejaVuSans-26" transform="translate(190.859375 0)"/>
       <use xlink:href="#DejaVuSans-19" transform="translate(260.6875 0)"/>
       <use xlink:href="#DejaVuSans-3" transform="translate(324.3125 0)"/>
       <use xlink:href="#DejaVuSans-b" transform="translate(356.09375 0)"/>
       <use xlink:href="#DejaVuSans-4f" transform="translate(395.109375 0)"/>
       <use xlink:href="#DejaVuSans-52" transform="translate(422.890625 0)"/>
       <use xlink:href="#DejaVuSans-4a" transform="translate(484.078125 0)"/>
       <use xlink:href="#DejaVuSans-b5d" transform="translate(547.5625 0)"/>
       <use xlink:href="#DejaVuSans-3" transform="translate(587.65625 0)"/>
       <use xlink:href="#DejaVuSans-35" transform="translate(619.4375 0)"/>
       <use xlink:href="#DejaVuSans-36" transform="translate(688.921875 0)"/>
       <use xlink:href="#DejaVuSans-28" transform="translate(752.40625 0)"/>
       <use xlink:href="#DejaVuSans-30" transform="translate(815.59375 0)"/>
       <use xlink:href="#DejaVuSans-c" transform="translate(901.875 0)"/>
      </g>
     </g>
    </g>
    <g id="ytick_3">
     <g id="line2d_12">
      <g>
       <use xlink:href="#m8f61ad111f" x="133.89914" y="174.898008" style="stroke: #000000; stroke-width: 0.8"/>
      </g>
     </g>
     <g id="text_13">
      <!-- STIM1 (log₂ RSEM) -->
      <g transform="translate(25.638984 179.077148) scale(0.11 -0.11)">
       <use xlink:href="#DejaVuSans-36"/>
       <use xlink:href="#DejaVuSans-37" transform="translate(63.484375 0)"/>
       <use xlink:href="#DejaVuSans-2c" transform="translate(124.5625 0)"/>
       <use xlink:href="#DejaVuSans-30" transform="translate(154.0625 0)"/>
       <use xlink:href="#DejaVuSans-14" transform="translate(240.34375 0)"/>
       <use xlink:href="#DejaVuSans-3" transform="translate(303.96875 0)"/>
       <use xlink:href="#DejaVuSans-b" transform="translate(335.75 0)"/>
       <use xlink:href="#DejaVuSans-4f" transform="translate(374.765625 0)"/>
       <use xlink:href="#DejaVuSans-52" transform="translate(402.546875 0)"/>
       <use xlink:href="#DejaVuSans-4a" transform="translate(463.734375 0)"/>
       <use xlink:href="#DejaVuSans-b5d" transform="translate(527.21875 0)"/>
       <use xlink:href="#DejaVuSans-3" transform="translate(567.3125 0)"/>
       <use xlink:href="#DejaVuSans-35" transform="translate(599.09375 0)"/>
       <use xlink:href="#DejaVuSans-36" transform="translate(668.578125 0)"/>
       <use xlink:href="#DejaVuSans-28" transform="translate(732.0625 0)"/>
       <use xlink:href="#DejaVuSans-30" transform="translate(795.25 0)"/>
       <use xlink:href="#DejaVuSans-c" transform="translate(881.53125 0)"/>
      </g>
     </g>
    </g>
    <g id="ytick_4">
     <g id="line2d_13">
      <g>
       <use xlink:href="#m8f61ad111f" x="133.89914" y="112.636449" style="stroke: #000000; stroke-width: 0.8"/>
      </g>
     </g>
     <g id="text_14">
      <!-- Age -->
      <g transform="translate(105.622734 116.81516) scale(0.11 -0.11)">
       <defs>
        <path id="DejaVuSans-24" d="M 2188 4044 
L 1331 1722 
L 3047 1722 
L 2188 4044 
z
M 1831 4666 
L 2547 4666 
L 4325 0 
L 3669 0 
L 3244 1197 
L 1141 1197 
L 716 0 
L 50 0 
L 1831 4666 
z
" transform="scale(0.015625)"/>
       </defs>
       <use xlink:href="#DejaVuSans-24"/>
       <use xlink:href="#DejaVuSans-4a" transform="translate(68.40625 0)"/>
       <use xlink:href="#DejaVuSans-48" transform="translate(131.890625 0)"/>
      </g>
     </g>
    </g>
    <g id="ytick_5">
     <g id="line2d_14">
      <g>
       <use xlink:href="#m8f61ad111f" x="133.89914" y="50.37489" style="stroke: #000000; stroke-width: 0.8"/>
      </g>
     </g>
     <g id="text_15">
      <!-- Tumour Stage -->
      <g transform="translate(50.657109 54.553601) scale(0.11 -0.11)">
       <defs>
        <path id="DejaVuSans-58" d="M 544 1381 
L 544 3500 
L 1119 3500 
L 1119 1403 
Q 1119 906 1312 657 
Q 1506 409 1894 409 
Q 2359 409 2629 706 
Q 2900 1003 2900 1516 
L 2900 3500 
L 3475 3500 
L 3475 0 
L 2900 0 
L 2900 538 
Q 2691 219 2414 64 
Q 2138 -91 1772 -91 
Q 1169 -91 856 284 
Q 544 659 544 1381 
z
M 1991 3584 
L 1991 3584 
z
" transform="scale(0.015625)"/>
        <path id="DejaVuSans-50" d="M 3328 2828 
Q 3544 3216 3844 3400 
Q 4144 3584 4550 3584 
Q 5097 3584 5394 3201 
Q 5691 2819 5691 2113 
L 5691 0 
L 5113 0 
L 5113 2094 
Q 5113 2597 4934 2840 
Q 4756 3084 4391 3084 
Q 3944 3084 3684 2787 
Q 3425 2491 3425 1978 
L 3425 0 
L 2847 0 
L 2847 2094 
Q 2847 2600 2669 2842 
Q 2491 3084 2119 3084 
Q 1678 3084 1418 2786 
Q 1159 2488 1159 1978 
L 1159 0 
L 581 0 
L 581 3500 
L 1159 3500 
L 1159 2956 
Q 1356 3278 1631 3431 
Q 1906 3584 2284 3584 
Q 2666 3584 2933 3390 
Q 3200 3197 3328 2828 
z
" transform="scale(0.015625)"/>
       </defs>
       <use xlink:href="#DejaVuSans-37"/>
       <use xlink:href="#DejaVuSans-58" transform="translate(45.890625 0)"/>
       <use xlink:href="#DejaVuSans-50" transform="translate(109.265625 0)"/>
       <use xlink:href="#DejaVuSans-52" transform="translate(206.671875 0)"/>
       <use xlink:href="#DejaVuSans-58" transform="translate(267.859375 0)"/>
       <use xlink:href="#DejaVuSans-55" transform="translate(331.234375 0)"/>
       <use xlink:href="#DejaVuSans-3" transform="translate(372.34375 0)"/>
       <use xlink:href="#DejaVuSans-36" transform="translate(404.125 0)"/>
       <use xlink:href="#DejaVuSans-57" transform="translate(467.609375 0)"/>
       <use xlink:href="#DejaVuSans-44" transform="translate(506.8125 0)"/>
       <use xlink:href="#DejaVuSans-4a" transform="translate(568.09375 0)"/>
       <use xlink:href="#DejaVuSans-48" transform="translate(631.578125 0)"/>
      </g>
     </g>
    </g>
   </g>
   <g id="LineCollection_1">
    <path d="M 156.345812 299.421126 
L 386.334111 299.421126 
" clip-path="url(#p733e7220cd)" style="fill: none; stroke: #2c3e50; stroke-width: 2"/>
    <path d="M 224.157942 237.159567 
L 325.277016 237.159567 
" clip-path="url(#p733e7220cd)" style="fill: none; stroke: #2c3e50; stroke-width: 2"/>
    <path d="M 194.827244 174.898008 
L 425.143747 174.898008 
" clip-path="url(#p733e7220cd)" style="fill: none; stroke: #2c3e50; stroke-width: 2"/>
    <path d="M 313.679066 112.636449 
L 325.225704 112.636449 
" clip-path="url(#p733e7220cd)" style="fill: none; stroke: #2c3e50; stroke-width: 2"/>
    <path d="M 279.631289 50.37489 
L 605.279236 50.37489 
" clip-path="url(#p733e7220cd)" style="fill: none; stroke: #2c3e50; stroke-width: 2"/>
   </g>
   <g id="line2d_15">
    <path d="M 315.283986 311.873437 
L 315.283986 37.922578 
" clip-path="url(#p733e7220cd)" style="fill: none; stroke-dasharray: 3.7,1.6; stroke-dashoffset: 0; stroke: #808080"/>
   </g>
   <g id="patch_3">
    <path d="M 133.89914 311.873437 
L 133.89914 37.922578 
" style="fill: none; stroke: #000000; stroke-width: 0.8; stroke-linejoin: miter; stroke-linecap: square"/>
   </g>
   <g id="patch_4">
    <path d="M 627.725907 311.873437 
L 627.725907 37.922578 
" style="fill: none; stroke: #000000; stroke-width: 0.8; stroke-linejoin: miter; stroke-linecap: square"/>
   </g>
   <g id="patch_5">
    <path d="M 133.89914 311.873437 
L 627.725907 311.873437 
" style="fill: none; stroke: #000000; stroke-width: 0.8; stroke-linejoin: miter; stroke-linecap: square"/>
   </g>
   <g id="patch_6">
    <path d="M 133.89914 37.922578 
L 627.725907 37.922578 
" style="fill: none; stroke: #000000; stroke-width: 0.8; stroke-linejoin: miter; stroke-linecap: square"/>
   </g>
   <g id="PathCollection_1">
    <defs>
     <path id="m915df9b827" d="M 0 4.1833 
C 1.109424 4.1833 2.173559 3.742521 2.95804 2.95804 
C 3.742521 2.173559 4.1833 1.109424 4.1833 0 
C 4.1833 -1.109424 3.742521 -2.173559 2.95804 -2.95804 
C 2.173559 -3.742521 1.109424 -4.1833 0 -4.1833 
C -1.109424 -4.1833 -2.173559 -3.742521 -2.95804 -2.95804 
C -3.742521 -2.173559 -4.1833 -1.109424 -4.1833 0 
C -4.1833 1.109424 -3.742521 2.173559 -2.95804 2.95804 
C -2.173559 3.742521 -1.109424 4.1833 0 4.1833 
z
" style="stroke: #2c3e50"/>
    </defs>
    <g clip-path="url(#p733e7220cd)">
     <use xlink:href="#m915df9b827" x="243.341287" y="299.421126" style="fill: #2c3e50; stroke: #2c3e50"/>
     <use xlink:href="#m915df9b827" x="269.624876" y="237.159567" style="fill: #2c3e50; stroke: #2c3e50"/>
     <use xlink:href="#m915df9b827" x="286.031997" y="174.898008" style="fill: #2c3e50; stroke: #2c3e50"/>
     <use xlink:href="#m915df9b827" x="319.396504" y="112.636449" style="fill: #2c3e50; stroke: #2c3e50"/>
     <use xlink:href="#m915df9b827" x="409.716183" y="50.37489" style="fill: #2c3e50; stroke: #2c3e50"/>
    </g>
   </g>
   <g id="text_16">
    <!-- ns -->
    <g transform="translate(401.038672 302.018782) scale(0.1 -0.1)">
     <defs>
      <path id="DejaVuSans-51" d="M 3513 2113 
L 3513 0 
L 2938 0 
L 2938 2094 
Q 2938 2591 2744 2837 
Q 2550 3084 2163 3084 
Q 1697 3084 1428 2787 
Q 1159 2491 1159 1978 
L 1159 0 
L 581 0 
L 581 3500 
L 1159 3500 
L 1159 2956 
Q 1366 3272 1645 3428 
Q 1925 3584 2291 3584 
Q 2894 3584 3203 3211 
Q 3513 2838 3513 2113 
z
" transform="scale(0.015625)"/>
      <path id="DejaVuSans-56" d="M 2834 3397 
L 2834 2853 
Q 2591 2978 2328 3040 
Q 2066 3103 1784 3103 
Q 1356 3103 1142 2972 
Q 928 2841 928 2578 
Q 928 2378 1081 2264 
Q 1234 2150 1697 2047 
L 1894 2003 
Q 2506 1872 2764 1633 
Q 3022 1394 3022 966 
Q 3022 478 2636 193 
Q 2250 -91 1575 -91 
Q 1294 -91 989 -36 
Q 684 19 347 128 
L 347 722 
Q 666 556 975 473 
Q 1284 391 1588 391 
Q 1994 391 2212 530 
Q 2431 669 2431 922 
Q 2431 1156 2273 1281 
Q 2116 1406 1581 1522 
L 1381 1569 
Q 847 1681 609 1914 
Q 372 2147 372 2553 
Q 372 3047 722 3315 
Q 1072 3584 1716 3584 
Q 2034 3584 2315 3537 
Q 2597 3491 2834 3397 
z
" transform="scale(0.015625)"/>
     </defs>
     <use xlink:href="#DejaVuSans-51"/>
     <use xlink:href="#DejaVuSans-56" transform="translate(63.375 0)"/>
    </g>
   </g>
   <g id="text_17">
    <!-- HR = 0.76 (0.46–1.24)  p = 0.269 -->
    <g style="fill: #555555" transform="translate(7.2 301.499251) scale(0.08 -0.08)">
     <defs>
      <path id="DejaVuSans-20" d="M 678 2906 
L 4684 2906 
L 4684 2381 
L 678 2381 
L 678 2906 
z
M 678 1631 
L 4684 1631 
L 4684 1100 
L 678 1100 
L 678 1631 
z
" transform="scale(0.015625)"/>
      <path id="DejaVuSans-1a" d="M 525 4666 
L 3525 4666 
L 3525 4397 
L 1831 0 
L 1172 0 
L 2766 4134 
L 525 4134 
L 525 4666 
z
" transform="scale(0.015625)"/>
      <path id="DejaVuSans-af5" d="M 313 1978 
L 2888 1978 
L 2888 1528 
L 313 1528 
L 313 1978 
z
" transform="scale(0.015625)"/>
      <path id="DejaVuSans-53" d="M 1159 525 
L 1159 -1331 
L 581 -1331 
L 581 3500 
L 1159 3500 
L 1159 2969 
Q 1341 3281 1617 3432 
Q 1894 3584 2278 3584 
Q 2916 3584 3314 3078 
Q 3713 2572 3713 1747 
Q 3713 922 3314 415 
Q 2916 -91 2278 -91 
Q 1894 -91 1617 61 
Q 1341 213 1159 525 
z
M 3116 1747 
Q 3116 2381 2855 2742 
Q 2594 3103 2138 3103 
Q 1681 3103 1420 2742 
Q 1159 2381 1159 1747 
Q 1159 1113 1420 752 
Q 1681 391 2138 391 
Q 2594 391 2855 752 
Q 3116 1113 3116 1747 
z
" transform="scale(0.015625)"/>
     </defs>
     <use xlink:href="#DejaVuSans-2b"/>
     <use xlink:href="#DejaVuSans-35" transform="translate(75.203125 0)"/>
     <use xlink:href="#DejaVuSans-3" transform="translate(144.6875 0)"/>
     <use xlink:href="#DejaVuSans-20" transform="translate(176.46875 0)"/>
     <use xlink:href="#DejaVuSans-3" transform="translate(260.265625 0)"/>
     <use xlink:href="#DejaVuSans-13" transform="translate(292.046875 0)"/>
     <use xlink:href="#DejaVuSans-11" transform="translate(355.671875 0)"/>
     <use xlink:href="#DejaVuSans-1a" transform="translate(387.453125 0)"/>
     <use xlink:href="#DejaVuSans-19" transform="translate(451.078125 0)"/>
     <use xlink:href="#DejaVuSans-3" transform="translate(514.703125 0)"/>
     <use xlink:href="#DejaVuSans-b" transform="translate(546.484375 0)"/>
     <use xlink:href="#DejaVuSans-13" transform="translate(585.5 0)"/>
     <use xlink:href="#DejaVuSans-11" transform="translate(649.125 0)"/>
     <use xlink:href="#DejaVuSans-17" transform="translate(680.90625 0)"/>
     <use xlink:href="#DejaVuSans-19" transform="translate(744.53125 0)"/>
     <use xlink:href="#DejaVuSans-af5" transform="translate(808.15625 0)"/>
     <use xlink:href="#DejaVuSans-14" transform="translate(858.15625 0)"/>
     <use xlink:href="#DejaVuSans-11" transform="translate(921.78125 0)"/>
     <use xlink:href="#DejaVuSans-15" transform="translate(953.5625 0)"/>
     <use xlink:href="#DejaVuSans-17" transform="translate(1017.1875 0)"/>
     <use xlink:href="#DejaVuSans-c" transform="translate(1080.8125 0)"/>
     <use xlink:href="#DejaVuSans-3" transform="translate(1119.828125 0)"/>
     <use xlink:href="#DejaVuSans-3" transform="translate(1151.609375 0)"/>
     <use xlink:href="#DejaVuSans-53" transform="translate(1183.390625 0)"/>
     <use xlink:href="#DejaVuSans-3" transform="translate(1246.875 0)"/>
     <use xlink:href="#DejaVuSans-20" transform="translate(1278.65625 0)"/>
     <use xlink:href="#DejaVuSans-3" transform="translate(1362.453125 0)"/>
     <use xlink:href="#DejaVuSans-13" transform="translate(1394.234375 0)"/>
     <use xlink:href="#DejaVuSans-11" transform="translate(1457.859375 0)"/>
     <use xlink:href="#DejaVuSans-15" transform="translate(1489.640625 0)"/>
     <use xlink:href="#DejaVuSans-19" transform="translate(1553.265625 0)"/>
     <use xlink:href="#DejaVuSans-1c" transform="translate(1616.890625 0)"/>
    </g>
   </g>
   <g id="text_18">
    <!-- ns -->
    <g transform="translate(339.981577 239.757223) scale(0.1 -0.1)">
     <use xlink:href="#DejaVuSans-51"/>
     <use xlink:href="#DejaVuSans-56" transform="translate(63.375 0)"/>
    </g>
   </g>
   <g id="text_19">
    <!-- HR = 0.84 (0.69–1.03)  p = 0.102 -->
    <g style="fill: #555555" transform="translate(75.012131 239.237692) scale(0.08 -0.08)">
     <defs>
      <path id="DejaVuSans-16" d="M 2597 2516 
Q 3050 2419 3304 2112 
Q 3559 1806 3559 1356 
Q 3559 666 3084 287 
Q 2609 -91 1734 -91 
Q 1441 -91 1130 -33 
Q 819 25 488 141 
L 488 750 
Q 750 597 1062 519 
Q 1375 441 1716 441 
Q 2309 441 2620 675 
Q 2931 909 2931 1356 
Q 2931 1769 2642 2001 
Q 2353 2234 1838 2234 
L 1294 2234 
L 1294 2753 
L 1863 2753 
Q 2328 2753 2575 2939 
Q 2822 3125 2822 3475 
Q 2822 3834 2567 4026 
Q 2313 4219 1838 4219 
Q 1578 4219 1281 4162 
Q 984 4106 628 3988 
L 628 4550 
Q 988 4650 1302 4700 
Q 1616 4750 1894 4750 
Q 2613 4750 3031 4423 
Q 3450 4097 3450 3541 
Q 3450 3153 3228 2886 
Q 3006 2619 2597 2516 
z
" transform="scale(0.015625)"/>
     </defs>
     <use xlink:href="#DejaVuSans-2b"/>
     <use xlink:href="#DejaVuSans-35" transform="translate(75.203125 0)"/>
     <use xlink:href="#DejaVuSans-3" transform="translate(144.6875 0)"/>
     <use xlink:href="#DejaVuSans-20" transform="translate(176.46875 0)"/>
     <use xlink:href="#DejaVuSans-3" transform="translate(260.265625 0)"/>
     <use xlink:href="#DejaVuSans-13" transform="translate(292.046875 0)"/>
     <use xlink:href="#DejaVuSans-11" transform="translate(355.671875 0)"/>
     <use xlink:href="#DejaVuSans-1b" transform="translate(387.453125 0)"/>
     <use xlink:href="#DejaVuSans-17" transform="translate(451.078125 0)"/>
     <use xlink:href="#DejaVuSans-3" transform="translate(514.703125 0)"/>
     <use xlink:href="#DejaVuSans-b" transform="translate(546.484375 0)"/>
     <use xlink:href="#DejaVuSans-13" transform="translate(585.5 0)"/>
     <use xlink:href="#DejaVuSans-11" transform="translate(649.125 0)"/>
     <use xlink:href="#DejaVuSans-19" transform="translate(680.90625 0)"/>
     <use xlink:href="#DejaVuSans-1c" transform="translate(744.53125 0)"/>
     <use xlink:href="#DejaVuSans-af5" transform="translate(808.15625 0)"/>
     <use xlink:href="#DejaVuSans-14" transform="translate(858.15625 0)"/>
     <use xlink:href="#DejaVuSans-11" transform="translate(921.78125 0)"/>
     <use xlink:href="#DejaVuSans-13" transform="translate(953.5625 0)"/>
     <use xlink:href="#DejaVuSans-16" transform="translate(1017.1875 0)"/>
     <use xlink:href="#DejaVuSans-c" transform="translate(1080.8125 0)"/>
     <use xlink:href="#DejaVuSans-3" transform="translate(1119.828125 0)"/>
     <use xlink:href="#DejaVuSans-3" transform="translate(1151.609375 0)"/>
     <use xlink:href="#DejaVuSans-53" transform="translate(1183.390625 0)"/>
     <use xlink:href="#DejaVuSans-3" transform="translate(1246.875 0)"/>
     <use xlink:href="#DejaVuSans-20" transform="translate(1278.65625 0)"/>
     <use xlink:href="#DejaVuSans-3" transform="translate(1362.453125 0)"/>
     <use xlink:href="#DejaVuSans-13" transform="translate(1394.234375 0)"/>
     <use xlink:href="#DejaVuSans-11" transform="translate(1457.859375 0)"/>
     <use xlink:href="#DejaVuSans-14" transform="translate(1489.640625 0)"/>
     <use xlink:href="#DejaVuSans-13" transform="translate(1553.265625 0)"/>
     <use xlink:href="#DejaVuSans-15" transform="translate(1616.890625 0)"/>
    </g>
   </g>
   <g id="text_20">
    <!-- ns -->
    <g transform="translate(439.848308 177.495664) scale(0.1 -0.1)">
     <use xlink:href="#DejaVuSans-51"/>
     <use xlink:href="#DejaVuSans-56" transform="translate(63.375 0)"/>
    </g>
   </g>
   <g id="text_21">
    <!-- HR = 0.90 (0.59–1.37)  p = 0.627 -->
    <g style="fill: #555555" transform="translate(45.681433 176.976133) scale(0.08 -0.08)">
     <use xlink:href="#DejaVuSans-2b"/>
     <use xlink:href="#DejaVuSans-35" transform="translate(75.203125 0)"/>
     <use xlink:href="#DejaVuSans-3" transform="translate(144.6875 0)"/>
     <use xlink:href="#DejaVuSans-20" transform="translate(176.46875 0)"/>
     <use xlink:href="#DejaVuSans-3" transform="translate(260.265625 0)"/>
     <use xlink:href="#DejaVuSans-13" transform="translate(292.046875 0)"/>
     <use xlink:href="#DejaVuSans-11" transform="translate(355.671875 0)"/>
     <use xlink:href="#DejaVuSans-1c" transform="translate(387.453125 0)"/>
     <use xlink:href="#DejaVuSans-13" transform="translate(451.078125 0)"/>
     <use xlink:href="#DejaVuSans-3" transform="translate(514.703125 0)"/>
     <use xlink:href="#DejaVuSans-b" transform="translate(546.484375 0)"/>
     <use xlink:href="#DejaVuSans-13" transform="translate(585.5 0)"/>
     <use xlink:href="#DejaVuSans-11" transform="translate(649.125 0)"/>
     <use xlink:href="#DejaVuSans-18" transform="translate(680.90625 0)"/>
     <use xlink:href="#DejaVuSans-1c" transform="translate(744.53125 0)"/>
     <use xlink:href="#DejaVuSans-af5" transform="translate(808.15625 0)"/>
     <use xlink:href="#DejaVuSans-14" transform="translate(858.15625 0)"/>
     <use xlink:href="#DejaVuSans-11" transform="translate(921.78125 0)"/>
     <use xlink:href="#DejaVuSans-16" transform="translate(953.5625 0)"/>
     <use xlink:href="#DejaVuSans-1a" transform="translate(1017.1875 0)"/>
     <use xlink:href="#DejaVuSans-c" transform="translate(1080.8125 0)"/>
     <use xlink:href="#DejaVuSans-3" transform="translate(1119.828125 0)"/>
     <use xlink:href="#DejaVuSans-3" transform="translate(1151.609375 0)"/>
     <use xlink:href="#DejaVuSans-53" transform="translate(1183.390625 0)"/>
     <use xlink:href="#DejaVuSans-3" transform="translate(1246.875 0)"/>
     <use xlink:href="#DejaVuSans-20" transform="translate(1278.65625 0)"/>
     <use xlink:href="#DejaVuSans-3" transform="translate(1362.453125 0)"/>
     <use xlink:href="#DejaVuSans-13" transform="translate(1394.234375 0)"/>
     <use xlink:href="#DejaVuSans-11" transform="translate(1457.859375 0)"/>
     <use xlink:href="#DejaVuSans-19" transform="translate(1489.640625 0)"/>
     <use xlink:href="#DejaVuSans-15" transform="translate(1553.265625 0)"/>
     <use xlink:href="#DejaVuSans-1a" transform="translate(1616.890625 0)"/>
    </g>
   </g>
   <g id="text_22">
    <!-- ns -->
    <g transform="translate(339.930265 115.234105) scale(0.1 -0.1)">
     <use xlink:href="#DejaVuSans-51"/>
     <use xlink:href="#DejaVuSans-56" transform="translate(63.375 0)"/>
    </g>
   </g>
   <g id="text_23">
    <!-- HR = 1.01 (0.99–1.03)  p = 0.160 -->
    <g style="fill: #555555" transform="translate(164.533254 114.714574) scale(0.08 -0.08)">
     <use xlink:href="#DejaVuSans-2b"/>
     <use xlink:href="#DejaVuSans-35" transform="translate(75.203125 0)"/>
     <use xlink:href="#DejaVuSans-3" transform="translate(144.6875 0)"/>
     <use xlink:href="#DejaVuSans-20" transform="translate(176.46875 0)"/>
     <use xlink:href="#DejaVuSans-3" transform="translate(260.265625 0)"/>
     <use xlink:href="#DejaVuSans-14" transform="translate(292.046875 0)"/>
     <use xlink:href="#DejaVuSans-11" transform="translate(355.671875 0)"/>
     <use xlink:href="#DejaVuSans-13" transform="translate(387.453125 0)"/>
     <use xlink:href="#DejaVuSans-14" transform="translate(451.078125 0)"/>
     <use xlink:href="#DejaVuSans-3" transform="translate(514.703125 0)"/>
     <use xlink:href="#DejaVuSans-b" transform="translate(546.484375 0)"/>
     <use xlink:href="#DejaVuSans-13" transform="translate(585.5 0)"/>
     <use xlink:href="#DejaVuSans-11" transform="translate(649.125 0)"/>
     <use xlink:href="#DejaVuSans-1c" transform="translate(680.90625 0)"/>
     <use xlink:href="#DejaVuSans-1c" transform="translate(744.53125 0)"/>
     <use xlink:href="#DejaVuSans-af5" transform="translate(808.15625 0)"/>
     <use xlink:href="#DejaVuSans-14" transform="translate(858.15625 0)"/>
     <use xlink:href="#DejaVuSans-11" transform="translate(921.78125 0)"/>
     <use xlink:href="#DejaVuSans-13" transform="translate(953.5625 0)"/>
     <use xlink:href="#DejaVuSans-16" transform="translate(1017.1875 0)"/>
     <use xlink:href="#DejaVuSans-c" transform="translate(1080.8125 0)"/>
     <use xlink:href="#DejaVuSans-3" transform="translate(1119.828125 0)"/>
     <use xlink:href="#DejaVuSans-3" transform="translate(1151.609375 0)"/>
     <use xlink:href="#DejaVuSans-53" transform="translate(1183.390625 0)"/>
     <use xlink:href="#DejaVuSans-3" transform="translate(1246.875 0)"/>
     <use xlink:href="#DejaVuSans-20" transform="translate(1278.65625 0)"/>
     <use xlink:href="#DejaVuSans-3" transform="translate(1362.453125 0)"/>
     <use xlink:href="#DejaVuSans-13" transform="translate(1394.234375 0)"/>
     <use xlink:href="#DejaVuSans-11" transform="translate(1457.859375 0)"/>
     <use xlink:href="#DejaVuSans-14" transform="translate(1489.640625 0)"/>
     <use xlink:href="#DejaVuSans-19" transform="translate(1553.265625 0)"/>
     <use xlink:href="#DejaVuSans-13" transform="translate(1616.890625 0)"/>
    </g>
   </g>
   <g id="text_24">
    <!-- ns -->
    <g transform="translate(619.983797 52.972546) scale(0.1 -0.1)">
     <use xlink:href="#DejaVuSans-51"/>
     <use xlink:href="#DejaVuSans-56" transform="translate(63.375 0)"/>
    </g>
   </g>
   <g id="text_25">
    <!-- HR = 1.32 (0.88–1.99)  p = 0.181 -->
    <g style="fill: #555555" transform="translate(130.485477 52.453015) scale(0.08 -0.08)">
     <use xlink:href="#DejaVuSans-2b"/>
     <use xlink:href="#DejaVuSans-35" transform="translate(75.203125 0)"/>
     <use xlink:href="#DejaVuSans-3" transform="translate(144.6875 0)"/>
     <use xlink:href="#DejaVuSans-20" transform="translate(176.46875 0)"/>
     <use xlink:href="#DejaVuSans-3" transform="translate(260.265625 0)"/>
     <use xlink:href="#DejaVuSans-14" transform="translate(292.046875 0)"/>
     <use xlink:href="#DejaVuSans-11" transform="translate(355.671875 0)"/>
     <use xlink:href="#DejaVuSans-16" transform="translate(387.453125 0)"/>
     <use xlink:href="#DejaVuSans-15" transform="translate(451.078125 0)"/>
     <use xlink:href="#DejaVuSans-3" transform="translate(514.703125 0)"/>
     <use xlink:href="#DejaVuSans-b" transform="translate(546.484375 0)"/>
     <use xlink:href="#DejaVuSans-13" transform="translate(585.5 0)"/>
     <use xlink:href="#DejaVuSans-11" transform="translate(649.125 0)"/>
     <use xlink:href="#DejaVuSans-1b" transform="translate(680.90625 0)"/>
     <use xlink:href="#DejaVuSans-1b" transform="translate(744.53125 0)"/>
     <use xlink:href="#DejaVuSans-af5" transform="translate(808.15625 0)"/>
     <use xlink:href="#DejaVuSans-14" transform="translate(858.15625 0)"/>
     <use xlink:href="#DejaVuSans-11" transform="translate(921.78125 0)"/>
     <use xlink:href="#DejaVuSans-1c" transform="translate(953.5625 0)"/>
     <use xlink:href="#DejaVuSans-1c" transform="translate(1017.1875 0)"/>
     <use xlink:href="#DejaVuSans-c" transform="translate(1080.8125 0)"/>
     <use xlink:href="#DejaVuSans-3" transform="translate(1119.828125 0)"/>
     <use xlink:href="#DejaVuSans-3" transform="translate(1151.609375 0)"/>
     <use xlink:href="#DejaVuSans-53" transform="translate(1183.390625 0)"/>
     <use xlink:href="#DejaVuSans-3" transform="translate(1246.875 0)"/>
     <use xlink:href="#DejaVuSans-20" transform="translate(1278.65625 0)"/>
     <use xlink:href="#DejaVuSans-3" transform="translate(1362.453125 0)"/>
     <use xlink:href="#DejaVuSans-13" transform="translate(1394.234375 0)"/>
     <use xlink:href="#DejaVuSans-11" transform="translate(1457.859375 0)"/>
     <use xlink:href="#DejaVuSans-14" transform="translate(1489.640625 0)"/>
     <use xlink:href="#DejaVuSans-1b" transform="translate(1553.265625 0)"/>
     <use xlink:href="#DejaVuSans-14" transform="translate(1616.890625 0)"/>
    </g>
   </g>
   <g id="text_26">
    <!-- Multivariate Cox Proportional Hazards — TCGA-LIHC -->
    <g transform="translate(205.037836 17.519297) scale(0.12 -0.12)">
     <defs>
      <path id="DejaVuSans-Bold-30" d="M 588 4666 
L 2119 4666 
L 3181 2169 
L 4250 4666 
L 5778 4666 
L 5778 0 
L 4641 0 
L 4641 3413 
L 3566 897 
L 2803 897 
L 1728 3413 
L 1728 0 
L 588 0 
L 588 4666 
z
" transform="scale(0.015625)"/>
      <path id="DejaVuSans-Bold-58" d="M 500 1363 
L 500 3500 
L 1625 3500 
L 1625 3150 
Q 1625 2866 1622 2436 
Q 1619 2006 1619 1863 
Q 1619 1441 1641 1255 
Q 1663 1069 1716 984 
Q 1784 875 1895 815 
Q 2006 756 2150 756 
Q 2500 756 2700 1025 
Q 2900 1294 2900 1772 
L 2900 3500 
L 4019 3500 
L 4019 0 
L 2900 0 
L 2900 506 
Q 2647 200 2364 54 
Q 2081 -91 1741 -91 
Q 1134 -91 817 281 
Q 500 653 500 1363 
z
" transform="scale(0.015625)"/>
      <path id="DejaVuSans-Bold-4f" d="M 538 4863 
L 1656 4863 
L 1656 0 
L 538 0 
L 538 4863 
z
" transform="scale(0.015625)"/>
      <path id="DejaVuSans-Bold-57" d="M 1759 4494 
L 1759 3500 
L 2913 3500 
L 2913 2700 
L 1759 2700 
L 1759 1216 
Q 1759 972 1856 886 
Q 1953 800 2241 800 
L 2816 800 
L 2816 0 
L 1856 0 
Q 1194 0 917 276 
Q 641 553 641 1216 
L 641 2700 
L 84 2700 
L 84 3500 
L 641 3500 
L 641 4494 
L 1759 4494 
z
" transform="scale(0.015625)"/>
      <path id="DejaVuSans-Bold-4c" d="M 538 3500 
L 1656 3500 
L 1656 0 
L 538 0 
L 538 3500 
z
M 538 4863 
L 1656 4863 
L 1656 3950 
L 538 3950 
L 538 4863 
z
" transform="scale(0.015625)"/>
      <path id="DejaVuSans-Bold-59" d="M 97 3500 
L 1216 3500 
L 2088 1081 
L 2956 3500 
L 4078 3500 
L 2700 0 
L 1472 0 
L 97 3500 
z
" transform="scale(0.015625)"/>
      <path id="DejaVuSans-Bold-44" d="M 2106 1575 
Q 1756 1575 1579 1456 
Q 1403 1338 1403 1106 
Q 1403 894 1545 773 
Q 1688 653 1941 653 
Q 2256 653 2472 879 
Q 2688 1106 2688 1447 
L 2688 1575 
L 2106 1575 
z
M 3816 1997 
L 3816 0 
L 2688 0 
L 2688 519 
Q 2463 200 2181 54 
Q 1900 -91 1497 -91 
Q 953 -91 614 226 
Q 275 544 275 1050 
Q 275 1666 698 1953 
Q 1122 2241 2028 2241 
L 2688 2241 
L 2688 2328 
Q 2688 2594 2478 2717 
Q 2269 2841 1825 2841 
Q 1466 2841 1156 2769 
Q 847 2697 581 2553 
L 581 3406 
Q 941 3494 1303 3539 
Q 1666 3584 2028 3584 
Q 2975 3584 3395 3211 
Q 3816 2838 3816 1997 
z
" transform="scale(0.015625)"/>
      <path id="DejaVuSans-Bold-55" d="M 3138 2547 
Q 2991 2616 2845 2648 
Q 2700 2681 2553 2681 
Q 2122 2681 1889 2404 
Q 1656 2128 1656 1613 
L 1656 0 
L 538 0 
L 538 3500 
L 1656 3500 
L 1656 2925 
Q 1872 3269 2151 3426 
Q 2431 3584 2822 3584 
Q 2878 3584 2943 3579 
Q 3009 3575 3134 3559 
L 3138 2547 
z
" transform="scale(0.015625)"/>
      <path id="DejaVuSans-Bold-48" d="M 4031 1759 
L 4031 1441 
L 1416 1441 
Q 1456 1047 1700 850 
Q 1944 653 2381 653 
Q 2734 653 3104 758 
Q 3475 863 3866 1075 
L 3866 213 
Q 3469 63 3072 -14 
Q 2675 -91 2278 -91 
Q 1328 -91 801 392 
Q 275 875 275 1747 
Q 275 2603 792 3093 
Q 1309 3584 2216 3584 
Q 3041 3584 3536 3087 
Q 4031 2591 4031 1759 
z
M 2881 2131 
Q 2881 2450 2695 2645 
Q 2509 2841 2209 2841 
Q 1884 2841 1681 2658 
Q 1478 2475 1428 2131 
L 2881 2131 
z
" transform="scale(0.015625)"/>
      <path id="DejaVuSans-Bold-3" transform="scale(0.015625)"/>
      <path id="DejaVuSans-Bold-26" d="M 4288 256 
Q 3956 84 3597 -3 
Q 3238 -91 2847 -91 
Q 1681 -91 1000 561 
Q 319 1213 319 2328 
Q 319 3447 1000 4098 
Q 1681 4750 2847 4750 
Q 3238 4750 3597 4662 
Q 3956 4575 4288 4403 
L 4288 3438 
Q 3953 3666 3628 3772 
Q 3303 3878 2944 3878 
Q 2300 3878 1931 3465 
Q 1563 3053 1563 2328 
Q 1563 1606 1931 1193 
Q 2300 781 2944 781 
Q 3303 781 3628 887 
Q 3953 994 4288 1222 
L 4288 256 
z
" transform="scale(0.015625)"/>
      <path id="DejaVuSans-Bold-52" d="M 2203 2784 
Q 1831 2784 1636 2517 
Q 1441 2250 1441 1747 
Q 1441 1244 1636 976 
Q 1831 709 2203 709 
Q 2569 709 2762 976 
Q 2956 1244 2956 1747 
Q 2956 2250 2762 2517 
Q 2569 2784 2203 2784 
z
M 2203 3584 
Q 3106 3584 3614 3096 
Q 4122 2609 4122 1747 
Q 4122 884 3614 396 
Q 3106 -91 2203 -91 
Q 1297 -91 786 396 
Q 275 884 275 1747 
Q 275 2609 786 3096 
Q 1297 3584 2203 3584 
z
" transform="scale(0.015625)"/>
      <path id="DejaVuSans-Bold-5b" d="M 1422 1791 
L 159 3500 
L 1344 3500 
L 2059 2463 
L 2784 3500 
L 3969 3500 
L 2706 1797 
L 4031 0 
L 2847 0 
L 2059 1106 
L 1281 0 
L 97 0 
L 1422 1791 
z
" transform="scale(0.015625)"/>
      <path id="DejaVuSans-Bold-33" d="M 588 4666 
L 2584 4666 
Q 3475 4666 3951 4270 
Q 4428 3875 4428 3144 
Q 4428 2409 3951 2014 
Q 3475 1619 2584 1619 
L 1791 1619 
L 1791 0 
L 588 0 
L 588 4666 
z
M 1791 3794 
L 1791 2491 
L 2456 2491 
Q 2806 2491 2997 2661 
Q 3188 2831 3188 3144 
Q 3188 3456 2997 3625 
Q 2806 3794 2456 3794 
L 1791 3794 
z
" transform="scale(0.015625)"/>
      <path id="DejaVuSans-Bold-53" d="M 1656 506 
L 1656 -1331 
L 538 -1331 
L 538 3500 
L 1656 3500 
L 1656 2988 
Q 1888 3294 2169 3439 
Q 2450 3584 2816 3584 
Q 3463 3584 3878 3070 
Q 4294 2556 4294 1747 
Q 4294 938 3878 423 
Q 3463 -91 2816 -91 
Q 2450 -91 2169 54 
Q 1888 200 1656 506 
z
M 2400 2772 
Q 2041 2772 1848 2508 
Q 1656 2244 1656 1747 
Q 1656 1250 1848 986 
Q 2041 722 2400 722 
Q 2759 722 2948 984 
Q 3138 1247 3138 1747 
Q 3138 2247 2948 2509 
Q 2759 2772 2400 2772 
z
" transform="scale(0.015625)"/>
      <path id="DejaVuSans-Bold-51" d="M 4056 2131 
L 4056 0 
L 2931 0 
L 2931 347 
L 2931 1631 
Q 2931 2084 2911 2256 
Q 2891 2428 2841 2509 
Q 2775 2619 2662 2680 
Q 2550 2741 2406 2741 
Q 2056 2741 1856 2470 
Q 1656 2200 1656 1722 
L 1656 0 
L 538 0 
L 538 3500 
L 1656 3500 
L 1656 2988 
Q 1909 3294 2193 3439 
Q 2478 3584 2822 3584 
Q 3428 3584 3742 3212 
Q 4056 2841 4056 2131 
z
" transform="scale(0.015625)"/>
      <path id="DejaVuSans-Bold-2b" d="M 588 4666 
L 1791 4666 
L 1791 2888 
L 3566 2888 
L 3566 4666 
L 4769 4666 
L 4769 0 
L 3566 0 
L 3566 1978 
L 1791 1978 
L 1791 0 
L 588 0 
L 588 4666 
z
" transform="scale(0.015625)"/>
      <path id="DejaVuSans-Bold-5d" d="M 366 3500 
L 3419 3500 
L 3419 2719 
L 1575 800 
L 3419 800 
L 3419 0 
L 288 0 
L 288 781 
L 2131 2700 
L 366 2700 
L 366 3500 
z
" transform="scale(0.015625)"/>
      <path id="DejaVuSans-Bold-47" d="M 2919 2988 
L 2919 4863 
L 4044 4863 
L 4044 0 
L 2919 0 
L 2919 506 
Q 2688 197 2409 53 
Q 2131 -91 1766 -91 
Q 1119 -91 703 423 
Q 288 938 288 1747 
Q 288 2556 703 3070 
Q 1119 3584 1766 3584 
Q 2128 3584 2408 3439 
Q 2688 3294 2919 2988 
z
M 2181 722 
Q 2541 722 2730 984 
Q 2919 1247 2919 1747 
Q 2919 2247 2730 2509 
Q 2541 2772 2181 2772 
Q 1825 2772 1636 2509 
Q 1447 2247 1447 1747 
Q 1447 1247 1636 984 
Q 1825 722 2181 722 
z
" transform="scale(0.015625)"/>
      <path id="DejaVuSans-Bold-56" d="M 3272 3391 
L 3272 2541 
Q 2913 2691 2578 2766 
Q 2244 2841 1947 2841 
Q 1628 2841 1473 2761 
Q 1319 2681 1319 2516 
Q 1319 2381 1436 2309 
Q 1553 2238 1856 2203 
L 2053 2175 
Q 2913 2066 3209 1816 
Q 3506 1566 3506 1031 
Q 3506 472 3093 190 
Q 2681 -91 1863 -91 
Q 1516 -91 1145 -36 
Q 775 19 384 128 
L 384 978 
Q 719 816 1070 734 
Q 1422 653 1784 653 
Q 2113 653 2278 743 
Q 2444 834 2444 1013 
Q 2444 1163 2330 1236 
Q 2216 1309 1875 1350 
L 1678 1375 
Q 931 1469 631 1722 
Q 331 1975 331 2491 
Q 331 3047 712 3315 
Q 1094 3584 1881 3584 
Q 2191 3584 2531 3537 
Q 2872 3491 3272 3391 
z
" transform="scale(0.015625)"/>
      <path id="DejaVuSans-Bold-af6" d="M 344 2156 
L 6056 2156 
L 6056 1350 
L 344 1350 
L 344 2156 
z
" transform="scale(0.015625)"/>
      <path id="DejaVuSans-Bold-37" d="M 31 4666 
L 4331 4666 
L 4331 3756 
L 2784 3756 
L 2784 0 
L 1581 0 
L 1581 3756 
L 31 3756 
L 31 4666 
z
" transform="scale(0.015625)"/>
      <path id="DejaVuSans-Bold-2a" d="M 4781 347 
Q 4331 128 3847 18 
Q 3363 -91 2847 -91 
Q 1681 -91 1000 561 
Q 319 1213 319 2328 
Q 319 3456 1012 4103 
Q 1706 4750 2913 4750 
Q 3378 4750 3804 4662 
Q 4231 4575 4609 4403 
L 4609 3438 
Q 4219 3659 3833 3768 
Q 3447 3878 3059 3878 
Q 2341 3878 1952 3476 
Q 1563 3075 1563 2328 
Q 1563 1588 1938 1184 
Q 2313 781 3003 781 
Q 3191 781 3352 804 
Q 3513 828 3641 878 
L 3641 1784 
L 2906 1784 
L 2906 2591 
L 4781 2591 
L 4781 347 
z
" transform="scale(0.015625)"/>
      <path id="DejaVuSans-Bold-24" d="M 3419 850 
L 1538 850 
L 1241 0 
L 31 0 
L 1759 4666 
L 3194 4666 
L 4922 0 
L 3713 0 
L 3419 850 
z
M 1838 1716 
L 3116 1716 
L 2478 3572 
L 1838 1716 
z
" transform="scale(0.015625)"/>
      <path id="DejaVuSans-Bold-10" d="M 347 2297 
L 2309 2297 
L 2309 1388 
L 347 1388 
L 347 2297 
z
" transform="scale(0.015625)"/>
      <path id="DejaVuSans-Bold-2f" d="M 588 4666 
L 1791 4666 
L 1791 909 
L 3903 909 
L 3903 0 
L 588 0 
L 588 4666 
z
" transform="scale(0.015625)"/>
      <path id="DejaVuSans-Bold-2c" d="M 588 4666 
L 1791 4666 
L 1791 0 
L 588 0 
L 588 4666 
z
" transform="scale(0.015625)"/>
     </defs>
     <use xlink:href="#DejaVuSans-Bold-30"/>
     <use xlink:href="#DejaVuSans-Bold-58" transform="translate(99.515625 0)"/>
     <use xlink:href="#DejaVuSans-Bold-4f" transform="translate(170.703125 0)"/>
     <use xlink:href="#DejaVuSans-Bold-57" transform="translate(204.984375 0)"/>
     <use xlink:href="#DejaVuSans-Bold-4c" transform="translate(252.78125 0)"/>
     <use xlink:href="#DejaVuSans-Bold-59" transform="translate(287.0625 0)"/>
     <use xlink:href="#DejaVuSans-Bold-44" transform="translate(352.25 0)"/>
     <use xlink:href="#DejaVuSans-Bold-55" transform="translate(419.734375 0)"/>
     <use xlink:href="#DejaVuSans-Bold-4c" transform="translate(469.046875 0)"/>
     <use xlink:href="#DejaVuSans-Bold-44" transform="translate(503.328125 0)"/>
     <use xlink:href="#DejaVuSans-Bold-57" transform="translate(570.8125 0)"/>
     <use xlink:href="#DejaVuSans-Bold-48" transform="translate(618.609375 0)"/>
     <use xlink:href="#DejaVuSans-Bold-3" transform="translate(686.4375 0)"/>
     <use xlink:href="#DejaVuSans-Bold-26" transform="translate(721.25 0)"/>
     <use xlink:href="#DejaVuSans-Bold-52" transform="translate(794.640625 0)"/>
     <use xlink:href="#DejaVuSans-Bold-5b" transform="translate(863.34375 0)"/>
     <use xlink:href="#DejaVuSans-Bold-3" transform="translate(927.84375 0)"/>
     <use xlink:href="#DejaVuSans-Bold-33" transform="translate(962.65625 0)"/>
     <use xlink:href="#DejaVuSans-Bold-55" transform="translate(1035.953125 0)"/>
     <use xlink:href="#DejaVuSans-Bold-52" transform="translate(1085.265625 0)"/>
     <use xlink:href="#DejaVuSans-Bold-53" transform="translate(1153.96875 0)"/>
     <use xlink:href="#DejaVuSans-Bold-52" transform="translate(1225.546875 0)"/>
     <use xlink:href="#DejaVuSans-Bold-55" transform="translate(1294.25 0)"/>
     <use xlink:href="#DejaVuSans-Bold-57" transform="translate(1343.5625 0)"/>
     <use xlink:href="#DejaVuSans-Bold-4c" transform="translate(1391.359375 0)"/>
     <use xlink:href="#DejaVuSans-Bold-52" transform="translate(1425.640625 0)"/>
     <use xlink:href="#DejaVuSans-Bold-51" transform="translate(1494.34375 0)"/>
     <use xlink:href="#DejaVuSans-Bold-44" transform="translate(1565.53125 0)"/>
     <use xlink:href="#DejaVuSans-Bold-4f" transform="translate(1633.015625 0)"/>
     <use xlink:href="#DejaVuSans-Bold-3" transform="translate(1667.296875 0)"/>
     <use xlink:href="#DejaVuSans-Bold-2b" transform="translate(1702.109375 0)"/>
     <use xlink:href="#DejaVuSans-Bold-44" transform="translate(1785.796875 0)"/>
     <use xlink:href="#DejaVuSans-Bold-5d" transform="translate(1853.28125 0)"/>
     <use xlink:href="#DejaVuSans-Bold-44" transform="translate(1911.484375 0)"/>
     <use xlink:href="#DejaVuSans-Bold-55" transform="translate(1978.96875 0)"/>
     <use xlink:href="#DejaVuSans-Bold-47" transform="translate(2028.28125 0)"/>
     <use xlink:href="#DejaVuSans-Bold-56" transform="translate(2099.859375 0)"/>
     <use xlink:href="#DejaVuSans-Bold-3" transform="translate(2159.375 0)"/>
     <use xlink:href="#DejaVuSans-Bold-af6" transform="translate(2194.1875 0)"/>
     <use xlink:href="#DejaVuSans-Bold-3" transform="translate(2294.1875 0)"/>
     <use xlink:href="#DejaVuSans-Bold-37" transform="translate(2329 0)"/>
     <use xlink:href="#DejaVuSans-Bold-26" transform="translate(2397.21875 0)"/>
     <use xlink:href="#DejaVuSans-Bold-2a" transform="translate(2470.609375 0)"/>
     <use xlink:href="#DejaVuSans-Bold-24" transform="translate(2552.6875 0)"/>
     <use xlink:href="#DejaVuSans-Bold-10" transform="translate(2630.078125 0)"/>
     <use xlink:href="#DejaVuSans-Bold-2f" transform="translate(2671.578125 0)"/>
     <use xlink:href="#DejaVuSans-Bold-2c" transform="translate(2735.296875 0)"/>
     <use xlink:href="#DejaVuSans-Bold-2b" transform="translate(2772.5 0)"/>
     <use xlink:href="#DejaVuSans-Bold-26" transform="translate(2856.1875 0)"/>
    </g>
    <!-- (Overall Survival; covariates: STIM1, TRPC6, Stage, Age, Sex) -->
    <g transform="translate(172.488774 31.922578) scale(0.12 -0.12)">
     <defs>
      <path id="DejaVuSans-Bold-b" d="M 2413 -844 
L 1484 -844 
Q 1006 -72 778 623 
Q 550 1319 550 2003 
Q 550 2688 779 3389 
Q 1009 4091 1484 4856 
L 2413 4856 
Q 2013 4116 1813 3408 
Q 1613 2700 1613 2009 
Q 1613 1319 1811 609 
Q 2009 -100 2413 -844 
z
" transform="scale(0.015625)"/>
      <path id="DejaVuSans-Bold-32" d="M 2719 3878 
Q 2169 3878 1866 3472 
Q 1563 3066 1563 2328 
Q 1563 1594 1866 1187 
Q 2169 781 2719 781 
Q 3272 781 3575 1187 
Q 3878 1594 3878 2328 
Q 3878 3066 3575 3472 
Q 3272 3878 2719 3878 
z
M 2719 4750 
Q 3844 4750 4481 4106 
Q 5119 3463 5119 2328 
Q 5119 1197 4481 553 
Q 3844 -91 2719 -91 
Q 1597 -91 958 553 
Q 319 1197 319 2328 
Q 319 3463 958 4106 
Q 1597 4750 2719 4750 
z
" transform="scale(0.015625)"/>
      <path id="DejaVuSans-Bold-36" d="M 3834 4519 
L 3834 3531 
Q 3450 3703 3084 3790 
Q 2719 3878 2394 3878 
Q 1963 3878 1756 3759 
Q 1550 3641 1550 3391 
Q 1550 3203 1689 3098 
Q 1828 2994 2194 2919 
L 2706 2816 
Q 3484 2659 3812 2340 
Q 4141 2022 4141 1434 
Q 4141 663 3683 286 
Q 3225 -91 2284 -91 
Q 1841 -91 1394 -6 
Q 947 78 500 244 
L 500 1259 
Q 947 1022 1364 901 
Q 1781 781 2169 781 
Q 2563 781 2772 912 
Q 2981 1044 2981 1288 
Q 2981 1506 2839 1625 
Q 2697 1744 2272 1838 
L 1806 1941 
Q 1106 2091 782 2419 
Q 459 2747 459 3303 
Q 459 4000 909 4375 
Q 1359 4750 2203 4750 
Q 2588 4750 2994 4692 
Q 3400 4634 3834 4519 
z
" transform="scale(0.015625)"/>
      <path id="DejaVuSans-Bold-1e" d="M 716 1209 
L 1844 1209 
L 1844 256 
L 1069 -909 
L 403 -909 
L 716 256 
L 716 1209 
z
M 716 3500 
L 1844 3500 
L 1844 2291 
L 716 2291 
L 716 3500 
z
" transform="scale(0.015625)"/>
      <path id="DejaVuSans-Bold-46" d="M 3366 3391 
L 3366 2478 
Q 3138 2634 2908 2709 
Q 2678 2784 2431 2784 
Q 1963 2784 1702 2511 
Q 1441 2238 1441 1747 
Q 1441 1256 1702 982 
Q 1963 709 2431 709 
Q 2694 709 2930 787 
Q 3166 866 3366 1019 
L 3366 103 
Q 3103 6 2833 -42 
Q 2563 -91 2291 -91 
Q 1344 -91 809 395 
Q 275 881 275 1747 
Q 275 2613 809 3098 
Q 1344 3584 2291 3584 
Q 2566 3584 2833 3536 
Q 3100 3488 3366 3391 
z
" transform="scale(0.015625)"/>
      <path id="DejaVuSans-Bold-1d" d="M 716 3500 
L 1844 3500 
L 1844 2291 
L 716 2291 
L 716 3500 
z
M 716 1209 
L 1844 1209 
L 1844 0 
L 716 0 
L 716 1209 
z
" transform="scale(0.015625)"/>
      <path id="DejaVuSans-Bold-14" d="M 750 831 
L 1813 831 
L 1813 3847 
L 722 3622 
L 722 4441 
L 1806 4666 
L 2950 4666 
L 2950 831 
L 4013 831 
L 4013 0 
L 750 0 
L 750 831 
z
" transform="scale(0.015625)"/>
      <path id="DejaVuSans-Bold-f" d="M 653 1209 
L 1778 1209 
L 1778 256 
L 1006 -909 
L 341 -909 
L 653 256 
L 653 1209 
z
" transform="scale(0.015625)"/>
      <path id="DejaVuSans-Bold-35" d="M 2297 2597 
Q 2675 2597 2839 2737 
Q 3003 2878 3003 3200 
Q 3003 3519 2839 3656 
Q 2675 3794 2297 3794 
L 1791 3794 
L 1791 2597 
L 2297 2597 
z
M 1791 1766 
L 1791 0 
L 588 0 
L 588 4666 
L 2425 4666 
Q 3347 4666 3776 4356 
Q 4206 4047 4206 3378 
Q 4206 2916 3982 2619 
Q 3759 2322 3309 2181 
Q 3556 2125 3751 1926 
Q 3947 1728 4147 1325 
L 4800 0 
L 3519 0 
L 2950 1159 
Q 2778 1509 2601 1637 
Q 2425 1766 2131 1766 
L 1791 1766 
z
" transform="scale(0.015625)"/>
      <path id="DejaVuSans-Bold-19" d="M 2316 2303 
Q 2000 2303 1842 2098 
Q 1684 1894 1684 1484 
Q 1684 1075 1842 870 
Q 2000 666 2316 666 
Q 2634 666 2792 870 
Q 2950 1075 2950 1484 
Q 2950 1894 2792 2098 
Q 2634 2303 2316 2303 
z
M 3803 4544 
L 3803 3681 
Q 3506 3822 3243 3889 
Q 2981 3956 2731 3956 
Q 2194 3956 1894 3657 
Q 1594 3359 1544 2772 
Q 1750 2925 1990 3001 
Q 2231 3078 2516 3078 
Q 3231 3078 3670 2659 
Q 4109 2241 4109 1563 
Q 4109 813 3618 361 
Q 3128 -91 2303 -91 
Q 1394 -91 895 523 
Q 397 1138 397 2266 
Q 397 3422 980 4083 
Q 1563 4744 2578 4744 
Q 2900 4744 3203 4694 
Q 3506 4644 3803 4544 
z
" transform="scale(0.015625)"/>
      <path id="DejaVuSans-Bold-4a" d="M 2919 594 
Q 2688 288 2409 144 
Q 2131 0 1766 0 
Q 1125 0 706 504 
Q 288 1009 288 1791 
Q 288 2575 706 3076 
Q 1125 3578 1766 3578 
Q 2131 3578 2409 3434 
Q 2688 3291 2919 2981 
L 2919 3500 
L 4044 3500 
L 4044 353 
Q 4044 -491 3511 -936 
Q 2978 -1381 1966 -1381 
Q 1638 -1381 1331 -1331 
Q 1025 -1281 716 -1178 
L 716 -306 
Q 1009 -475 1290 -558 
Q 1572 -641 1856 -641 
Q 2406 -641 2662 -400 
Q 2919 -159 2919 353 
L 2919 594 
z
M 2181 2772 
Q 1834 2772 1640 2515 
Q 1447 2259 1447 1791 
Q 1447 1309 1634 1061 
Q 1822 813 2181 813 
Q 2531 813 2725 1069 
Q 2919 1325 2919 1791 
Q 2919 2259 2725 2515 
Q 2531 2772 2181 2772 
z
" transform="scale(0.015625)"/>
      <path id="DejaVuSans-Bold-c" d="M 513 -844 
Q 913 -100 1113 609 
Q 1313 1319 1313 2009 
Q 1313 2700 1113 3408 
Q 913 4116 513 4856 
L 1441 4856 
Q 1916 4091 2145 3389 
Q 2375 2688 2375 2003 
Q 2375 1319 2147 623 
Q 1919 -72 1441 -844 
L 513 -844 
z
" transform="scale(0.015625)"/>
     </defs>
     <use xlink:href="#DejaVuSans-Bold-b"/>
     <use xlink:href="#DejaVuSans-Bold-32" transform="translate(45.703125 0)"/>
     <use xlink:href="#DejaVuSans-Bold-59" transform="translate(130.71875 0)"/>
     <use xlink:href="#DejaVuSans-Bold-48" transform="translate(195.90625 0)"/>
     <use xlink:href="#DejaVuSans-Bold-55" transform="translate(263.734375 0)"/>
     <use xlink:href="#DejaVuSans-Bold-44" transform="translate(313.046875 0)"/>
     <use xlink:href="#DejaVuSans-Bold-4f" transform="translate(380.53125 0)"/>
     <use xlink:href="#DejaVuSans-Bold-4f" transform="translate(414.8125 0)"/>
     <use xlink:href="#DejaVuSans-Bold-3" transform="translate(449.09375 0)"/>
     <use xlink:href="#DejaVuSans-Bold-36" transform="translate(483.90625 0)"/>
     <use xlink:href="#DejaVuSans-Bold-58" transform="translate(555.921875 0)"/>
     <use xlink:href="#DejaVuSans-Bold-55" transform="translate(627.109375 0)"/>
     <use xlink:href="#DejaVuSans-Bold-59" transform="translate(676.421875 0)"/>
     <use xlink:href="#DejaVuSans-Bold-4c" transform="translate(741.609375 0)"/>
     <use xlink:href="#DejaVuSans-Bold-59" transform="translate(775.890625 0)"/>
     <use xlink:href="#DejaVuSans-Bold-44" transform="translate(841.078125 0)"/>
     <use xlink:href="#DejaVuSans-Bold-4f" transform="translate(908.5625 0)"/>
     <use xlink:href="#DejaVuSans-Bold-1e" transform="translate(942.84375 0)"/>
     <use xlink:href="#DejaVuSans-Bold-3" transform="translate(982.828125 0)"/>
     <use xlink:href="#DejaVuSans-Bold-46" transform="translate(1017.640625 0)"/>
     <use xlink:href="#DejaVuSans-Bold-52" transform="translate(1076.921875 0)"/>
     <use xlink:href="#DejaVuSans-Bold-59" transform="translate(1145.625 0)"/>
     <use xlink:href="#DejaVuSans-Bold-44" transform="translate(1210.8125 0)"/>
     <use xlink:href="#DejaVuSans-Bold-55" transform="translate(1278.296875 0)"/>
     <use xlink:href="#DejaVuSans-Bold-4c" transform="translate(1327.609375 0)"/>
     <use xlink:href="#DejaVuSans-Bold-44" transform="translate(1361.890625 0)"/>
     <use xlink:href="#DejaVuSans-Bold-57" transform="translate(1429.375 0)"/>
     <use xlink:href="#DejaVuSans-Bold-48" transform="translate(1477.171875 0)"/>
     <use xlink:href="#DejaVuSans-Bold-56" transform="translate(1545 0)"/>
     <use xlink:href="#DejaVuSans-Bold-1d" transform="translate(1604.515625 0)"/>
     <use xlink:href="#DejaVuSans-Bold-3" transform="translate(1644.5 0)"/>
     <use xlink:href="#DejaVuSans-Bold-36" transform="translate(1679.3125 0)"/>
     <use xlink:href="#DejaVuSans-Bold-37" transform="translate(1751.328125 0)"/>
     <use xlink:href="#DejaVuSans-Bold-2c" transform="translate(1819.546875 0)"/>
     <use xlink:href="#DejaVuSans-Bold-30" transform="translate(1856.75 0)"/>
     <use xlink:href="#DejaVuSans-Bold-14" transform="translate(1956.265625 0)"/>
     <use xlink:href="#DejaVuSans-Bold-f" transform="translate(2025.84375 0)"/>
     <use xlink:href="#DejaVuSans-Bold-3" transform="translate(2063.828125 0)"/>
     <use xlink:href="#DejaVuSans-Bold-37" transform="translate(2098.640625 0)"/>
     <use xlink:href="#DejaVuSans-Bold-35" transform="translate(2166.859375 0)"/>
     <use xlink:href="#DejaVuSans-Bold-33" transform="translate(2243.859375 0)"/>
     <use xlink:href="#DejaVuSans-Bold-26" transform="translate(2317.15625 0)"/>
     <use xlink:href="#DejaVuSans-Bold-19" transform="translate(2390.546875 0)"/>
     <use xlink:href="#DejaVuSans-Bold-f" transform="translate(2460.125 0)"/>
     <use xlink:href="#DejaVuSans-Bold-3" transform="translate(2498.109375 0)"/>
     <use xlink:href="#DejaVuSans-Bold-36" transform="translate(2532.921875 0)"/>
     <use xlink:href="#DejaVuSans-Bold-57" transform="translate(2604.9375 0)"/>
     <use xlink:href="#DejaVuSans-Bold-44" transform="translate(2652.734375 0)"/>
     <use xlink:href="#DejaVuSans-Bold-4a" transform="translate(2720.21875 0)"/>
     <use xlink:href="#DejaVuSans-Bold-48" transform="translate(2791.796875 0)"/>
     <use xlink:href="#DejaVuSans-Bold-f" transform="translate(2859.625 0)"/>
     <use xlink:href="#DejaVuSans-Bold-3" transform="translate(2897.609375 0)"/>
     <use xlink:href="#DejaVuSans-Bold-24" transform="translate(2932.421875 0)"/>
     <use xlink:href="#DejaVuSans-Bold-4a" transform="translate(3009.8125 0)"/>
     <use xlink:href="#DejaVuSans-Bold-48" transform="translate(3081.390625 0)"/>
     <use xlink:href="#DejaVuSans-Bold-f" transform="translate(3149.21875 0)"/>
     <use xlink:href="#DejaVuSans-Bold-3" transform="translate(3187.203125 0)"/>
     <use xlink:href="#DejaVuSans-Bold-36" transform="translate(3222.015625 0)"/>
     <use xlink:href="#DejaVuSans-Bold-48" transform="translate(3294.03125 0)"/>
     <use xlink:href="#DejaVuSans-Bold-5b" transform="translate(3361.859375 0)"/>
     <use xlink:href="#DejaVuSans-Bold-c" transform="translate(3426.359375 0)"/>
    </g>
   </g>
  </g>
 </g>
 <defs>
  <clipPath id="p733e7220cd">
   <rect x="133.89914" y="37.922578" width="493.826767" height="273.950859"/>
  </clipPath>
 </defs>
</svg>
