<?xml version="1.0" encoding="utf-8" standalone="no"?>
<!DOCTYPE svg PUBLIC "-//W3C//DTD SVG 1.1//EN"
  "http://www.w3.org/Graphics/SVG/1.1/DTD/svg11.dtd">
<svg xmlns:xlink="http://www.w3.org/1999/xlink" width="1000.33pt" height="356.4pt" viewBox="0 0 1000.33 356.4" xmlns="http://www.w3.org/2000/svg" version="1.1">
 <metadata>
  <rdf:RDF xmlns:dc="http://purl.org/dc/elements/1.1/" xmlns:cc="http://creativecommons.org/ns#" xmlns:rdf="http://www.w3.org/1999/02/22-rdf-syntax-ns#">
   <cc:Work>
    <dc:type rdf:resource="http://purl.org/dc/dcmitype/StillImage"/>
    <dc:date>2026-07-04T18:27:49.896760</dc:date>
    <dc:format>image/svg+xml</dc:format>
    <dc:creator>
     <cc:Agent>
      <dc:title>Matplotlib v3.11.0, https://matplotlib.org/</dc:title>
     </cc:Agent>
    </dc:creator>
   </cc:Work>
  </rdf:RDF>
 </metadata>
 <defs>
  <style type="text/css">*{stroke-linejoin: round; stroke-linecap: butt}</style>
 </defs>
 <g id="figure_1">
  <g id="patch_1">
   <path d="M 0 356.4 
L 1000.33 356.4 
L 1000.33 0 
L 0 0 
z
" style="fill: #ffffff"/>
  </g>
  <g id="axes_1">
   <g id="patch_2">
    <path d="M 53.65 318.196094 
L 255.73 318.196094 
L 255.73 68.328359 
L 53.65 68.328359 
z
" style="fill: #ffffff"/>
   </g>
   <g id="matplotlib.axis_1">
    <g id="xtick_1">
     <g id="line2d_1">
      <defs>
       <path id="m0347a6937d" d="M 0 0 
L 0 3.5 
" style="stroke: #000000; stroke-width: 0.8"/>
      </defs>
      <g>
       <use xlink:href="#m0347a6937d" x="154.69" y="318.196094" style="stroke: #000000; stroke-width: 0.8"/>
      </g>
     </g>
     <g id="text_1">
      <!-- TCGA-LIHC -->
      <g transform="translate(127.936875 333.794727) scale(0.1 -0.1)">
       <defs>
        <path id="DejaVuSans-37" d="M -19 4666 
L 3928 4666 
L 3928 4134 
L 2272 4134 
L 2272 0 
L 1638 0 
L 1638 4134 
L -19 4134 
L -19 4666 
z
" transform="scale(0.015625)"/>
        <path id="DejaVuSans-26" d="M 4122 4306 
L 4122 3641 
Q 3803 3938 3442 4084 
Q 3081 4231 2675 4231 
Q 1875 4231 1450 3742 
Q 1025 3253 1025 2328 
Q 1025 1406 1450 917 
Q 1875 428 2675 428 
Q 3081 428 3442 575 
Q 3803 722 4122 1019 
L 4122 359 
Q 3791 134 3420 21 
Q 3050 -91 2638 -91 
Q 1578 -91 968 557 
Q 359 1206 359 2328 
Q 359 3453 968 4101 
Q 1578 4750 2638 4750 
Q 3056 4750 3426 4639 
Q 3797 4528 4122 4306 
z
" transform="scale(0.015625)"/>
        <path id="DejaVuSans-2a" d="M 3809 666 
L 3809 1919 
L 2778 1919 
L 2778 2438 
L 4434 2438 
L 4434 434 
Q 4069 175 3628 42 
Q 3188 -91 2688 -91 
Q 1594 -91 976 548 
Q 359 1188 359 2328 
Q 359 3472 976 4111 
Q 1594 4750 2688 4750 
Q 3144 4750 3555 4637 
Q 3966 4525 4313 4306 
L 4313 3634 
Q 3963 3931 3569 4081 
Q 3175 4231 2741 4231 
Q 1884 4231 1454 3753 
Q 1025 3275 1025 2328 
Q 1025 1384 1454 906 
Q 1884 428 2741 428 
Q 3075 428 3337 486 
Q 3600 544 3809 666 
z
" transform="scale(0.015625)"/>
        <path id="DejaVuSans-24" d="M 2188 4044 
L 1331 1722 
L 3047 1722 
L 2188 4044 
z
M 1831 4666 
L 2547 4666 
L 4325 0 
L 3669 0 
L 3244 1197 
L 1141 1197 
L 716 0 
L 50 0 
L 1831 4666 
z
" transform="scale(0.015625)"/>
        <path id="DejaVuSans-10" d="M 313 2009 
L 1997 2009 
L 1997 1497 
L 313 1497 
L 313 2009 
z
" transform="scale(0.015625)"/>
        <path id="DejaVuSans-2f" d="M 628 4666 
L 1259 4666 
L 1259 531 
L 3531 531 
L 3531 0 
L 628 0 
L 628 4666 
z
" transform="scale(0.015625)"/>
        <path id="DejaVuSans-2c" d="M 628 4666 
L 1259 4666 
L 1259 0 
L 628 0 
L 628 4666 
z
" transform="scale(0.015625)"/>
        <path id="DejaVuSans-2b" d="M 628 4666 
L 1259 4666 
L 1259 2753 
L 3553 2753 
L 3553 4666 
L 4184 4666 
L 4184 0 
L 3553 0 
L 3553 2222 
L 1259 2222 
L 1259 0 
L 628 0 
L 628 4666 
z
" transform="scale(0.015625)"/>
       </defs>
       <use xlink:href="#DejaVuSans-37"/>
       <use xlink:href="#DejaVuSans-26" transform="translate(55.21875 0)"/>
       <use xlink:href="#DejaVuSans-2a" transform="translate(125.046875 0)"/>
       <use xlink:href="#DejaVuSans-24" transform="translate(202.53125 0)"/>
       <use xlink:href="#DejaVuSans-10" transform="translate(268.734375 0)"/>
       <use xlink:href="#DejaVuSans-2f" transform="translate(304.8125 0)"/>
       <use xlink:href="#DejaVuSans-2c" transform="translate(360.53125 0)"/>
       <use xlink:href="#DejaVuSans-2b" transform="translate(390.03125 0)"/>
       <use xlink:href="#DejaVuSans-26" transform="translate(465.234375 0)"/>
      </g>
      <!-- Tumour -->
      <g transform="translate(136.072812 345.79668) scale(0.1 -0.1)">
       <defs>
        <path id="DejaVuSans-58" d="M 544 1381 
L 544 3500 
L 1119 3500 
L 1119 1403 
Q 1119 906 1312 657 
Q 1506 409 1894 409 
Q 2359 409 2629 706 
Q 2900 1003 2900 1516 
L 2900 3500 
L 3475 3500 
L 3475 0 
L 2900 0 
L 2900 538 
Q 2691 219 2414 64 
Q 2138 -91 1772 -91 
Q 1169 -91 856 284 
Q 544 659 544 1381 
z
M 1991 3584 
L 1991 3584 
z
" transform="scale(0.015625)"/>
        <path id="DejaVuSans-50" d="M 3328 2828 
Q 3544 3216 3844 3400 
Q 4144 3584 4550 3584 
Q 5097 3584 5394 3201 
Q 5691 2819 5691 2113 
L 5691 0 
L 5113 0 
L 5113 2094 
Q 5113 2597 4934 2840 
Q 4756 3084 4391 3084 
Q 3944 3084 3684 2787 
Q 3425 2491 3425 1978 
L 3425 0 
L 2847 0 
L 2847 2094 
Q 2847 2600 2669 2842 
Q 2491 3084 2119 3084 
Q 1678 3084 1418 2786 
Q 1159 2488 1159 1978 
L 1159 0 
L 581 0 
L 581 3500 
L 1159 3500 
L 1159 2956 
Q 1356 3278 1631 3431 
Q 1906 3584 2284 3584 
Q 2666 3584 2933 3390 
Q 3200 3197 3328 2828 
z
" transform="scale(0.015625)"/>
        <path id="DejaVuSans-52" d="M 1959 3097 
Q 1497 3097 1228 2736 
Q 959 2375 959 1747 
Q 959 1119 1226 758 
Q 1494 397 1959 397 
Q 2419 397 2687 759 
Q 2956 1122 2956 1747 
Q 2956 2369 2687 2733 
Q 2419 3097 1959 3097 
z
M 1959 3584 
Q 2709 3584 3137 3096 
Q 3566 2609 3566 1747 
Q 3566 888 3137 398 
Q 2709 -91 1959 -91 
Q 1206 -91 779 398 
Q 353 888 353 1747 
Q 353 2609 779 3096 
Q 1206 3584 1959 3584 
z
" transform="scale(0.015625)"/>
        <path id="DejaVuSans-55" d="M 2631 2963 
Q 2534 3019 2420 3045 
Q 2306 3072 2169 3072 
Q 1681 3072 1420 2755 
Q 1159 2438 1159 1844 
L 1159 0 
L 581 0 
L 581 3500 
L 1159 3500 
L 1159 2956 
Q 1341 3275 1631 3429 
Q 1922 3584 2338 3584 
Q 2397 3584 2469 3576 
Q 2541 3569 2628 3553 
L 2631 2963 
z
" transform="scale(0.015625)"/>
       </defs>
       <use xlink:href="#DejaVuSans-37"/>
       <use xlink:href="#DejaVuSans-58" transform="translate(45.890625 0)"/>
       <use xlink:href="#DejaVuSans-50" transform="translate(109.265625 0)"/>
       <use xlink:href="#DejaVuSans-52" transform="translate(206.671875 0)"/>
       <use xlink:href="#DejaVuSans-58" transform="translate(267.859375 0)"/>
       <use xlink:href="#DejaVuSans-55" transform="translate(331.234375 0)"/>
      </g>
     </g>
    </g>
   </g>
   <g id="matplotlib.axis_2">
    <g id="ytick_1">
     <g id="line2d_2">
      <defs>
       <path id="m5921f470b7" d="M 0 0 
L -3.5 0 
" style="stroke: #000000; stroke-width: 0.8"/>
      </defs>
      <g>
       <use xlink:href="#m5921f470b7" x="53.65" y="307.447247" style="stroke: #000000; stroke-width: 0.8"/>
      </g>
     </g>
     <g id="text_2">
      <!-- 0 -->
      <g transform="translate(40.2875 311.246076) scale(0.1 -0.1)">
       <defs>
        <path id="DejaVuSans-13" d="M 2034 4250 
Q 1547 4250 1301 3770 
Q 1056 3291 1056 2328 
Q 1056 1369 1301 889 
Q 1547 409 2034 409 
Q 2525 409 2770 889 
Q 3016 1369 3016 2328 
Q 3016 3291 2770 3770 
Q 2525 4250 2034 4250 
z
M 2034 4750 
Q 2819 4750 3233 4129 
Q 3647 3509 3647 2328 
Q 3647 1150 3233 529 
Q 2819 -91 2034 -91 
Q 1250 -91 836 529 
Q 422 1150 422 2328 
Q 422 3509 836 4129 
Q 1250 4750 2034 4750 
z
" transform="scale(0.015625)"/>
       </defs>
       <use xlink:href="#DejaVuSans-13"/>
      </g>
     </g>
    </g>
    <g id="ytick_2">
     <g id="line2d_3">
      <g>
       <use xlink:href="#m5921f470b7" x="53.65" y="272.493156" style="stroke: #000000; stroke-width: 0.8"/>
      </g>
     </g>
     <g id="text_3">
      <!-- 1000 -->
      <g transform="translate(21.2 276.291984) scale(0.1 -0.1)">
       <defs>
        <path id="DejaVuSans-14" d="M 794 531 
L 1825 531 
L 1825 4091 
L 703 3866 
L 703 4441 
L 1819 4666 
L 2450 4666 
L 2450 531 
L 3481 531 
L 3481 0 
L 794 0 
L 794 531 
z
" transform="scale(0.015625)"/>
       </defs>
       <use xlink:href="#DejaVuSans-14"/>
       <use xlink:href="#DejaVuSans-13" transform="translate(63.625 0)"/>
       <use xlink:href="#DejaVuSans-13" transform="translate(127.25 0)"/>
       <use xlink:href="#DejaVuSans-13" transform="translate(190.875 0)"/>
      </g>
     </g>
    </g>
    <g id="ytick_3">
     <g id="line2d_4">
      <g>
       <use xlink:href="#m5921f470b7" x="53.65" y="237.539065" style="stroke: #000000; stroke-width: 0.8"/>
      </g>
     </g>
     <g id="text_4">
      <!-- 2000 -->
      <g transform="translate(21.2 241.337893) scale(0.1 -0.1)">
       <defs>
        <path id="DejaVuSans-15" d="M 1228 531 
L 3431 531 
L 3431 0 
L 469 0 
L 469 531 
Q 828 903 1448 1529 
Q 2069 2156 2228 2338 
Q 2531 2678 2651 2914 
Q 2772 3150 2772 3378 
Q 2772 3750 2511 3984 
Q 2250 4219 1831 4219 
Q 1534 4219 1204 4116 
Q 875 4013 500 3803 
L 500 4441 
Q 881 4594 1212 4672 
Q 1544 4750 1819 4750 
Q 2544 4750 2975 4387 
Q 3406 4025 3406 3419 
Q 3406 3131 3298 2873 
Q 3191 2616 2906 2266 
Q 2828 2175 2409 1742 
Q 1991 1309 1228 531 
z
" transform="scale(0.015625)"/>
       </defs>
       <use xlink:href="#DejaVuSans-15"/>
       <use xlink:href="#DejaVuSans-13" transform="translate(63.625 0)"/>
       <use xlink:href="#DejaVuSans-13" transform="translate(127.25 0)"/>
       <use xlink:href="#DejaVuSans-13" transform="translate(190.875 0)"/>
      </g>
     </g>
    </g>
    <g id="ytick_4">
     <g id="line2d_5">
      <g>
       <use xlink:href="#m5921f470b7" x="53.65" y="202.584974" style="stroke: #000000; stroke-width: 0.8"/>
      </g>
     </g>
     <g id="text_5">
      <!-- 3000 -->
      <g transform="translate(21.2 206.383802) scale(0.1 -0.1)">
       <defs>
        <path id="DejaVuSans-16" d="M 2597 2516 
Q 3050 2419 3304 2112 
Q 3559 1806 3559 1356 
Q 3559 666 3084 287 
Q 2609 -91 1734 -91 
Q 1441 -91 1130 -33 
Q 819 25 488 141 
L 488 750 
Q 750 597 1062 519 
Q 1375 441 1716 441 
Q 2309 441 2620 675 
Q 2931 909 2931 1356 
Q 2931 1769 2642 2001 
Q 2353 2234 1838 2234 
L 1294 2234 
L 1294 2753 
L 1863 2753 
Q 2328 2753 2575 2939 
Q 2822 3125 2822 3475 
Q 2822 3834 2567 4026 
Q 2313 4219 1838 4219 
Q 1578 4219 1281 4162 
Q 984 4106 628 3988 
L 628 4550 
Q 988 4650 1302 4700 
Q 1616 4750 1894 4750 
Q 2613 4750 3031 4423 
Q 3450 4097 3450 3541 
Q 3450 3153 3228 2886 
Q 3006 2619 2597 2516 
z
" transform="scale(0.015625)"/>
       </defs>
       <use xlink:href="#DejaVuSans-16"/>
       <use xlink:href="#DejaVuSans-13" transform="translate(63.625 0)"/>
       <use xlink:href="#DejaVuSans-13" transform="translate(127.25 0)"/>
       <use xlink:href="#DejaVuSans-13" transform="translate(190.875 0)"/>
      </g>
     </g>
    </g>
    <g id="ytick_5">
     <g id="line2d_6">
      <g>
       <use xlink:href="#m5921f470b7" x="53.65" y="167.630883" style="stroke: #000000; stroke-width: 0.8"/>
      </g>
     </g>
     <g id="text_6">
      <!-- 4000 -->
      <g transform="translate(21.2 171.429711) scale(0.1 -0.1)">
       <defs>
        <path id="DejaVuSans-17" d="M 2419 4116 
L 825 1625 
L 2419 1625 
L 2419 4116 
z
M 2253 4666 
L 3047 4666 
L 3047 1625 
L 3713 1625 
L 3713 1100 
L 3047 1100 
L 3047 0 
L 2419 0 
L 2419 1100 
L 313 1100 
L 313 1709 
L 2253 4666 
z
" transform="scale(0.015625)"/>
       </defs>
       <use xlink:href="#DejaVuSans-17"/>
       <use xlink:href="#DejaVuSans-13" transform="translate(63.625 0)"/>
       <use xlink:href="#DejaVuSans-13" transform="translate(127.25 0)"/>
       <use xlink:href="#DejaVuSans-13" transform="translate(190.875 0)"/>
      </g>
     </g>
    </g>
    <g id="ytick_6">
     <g id="line2d_7">
      <g>
       <use xlink:href="#m5921f470b7" x="53.65" y="132.676791" style="stroke: #000000; stroke-width: 0.8"/>
      </g>
     </g>
     <g id="text_7">
      <!-- 5000 -->
      <g transform="translate(21.2 136.47562) scale(0.1 -0.1)">
       <defs>
        <path id="DejaVuSans-18" d="M 691 4666 
L 3169 4666 
L 3169 4134 
L 1269 4134 
L 1269 2991 
Q 1406 3038 1543 3061 
Q 1681 3084 1819 3084 
Q 2600 3084 3056 2656 
Q 3513 2228 3513 1497 
Q 3513 744 3044 326 
Q 2575 -91 1722 -91 
Q 1428 -91 1123 -41 
Q 819 9 494 109 
L 494 744 
Q 775 591 1075 516 
Q 1375 441 1709 441 
Q 2250 441 2565 725 
Q 2881 1009 2881 1497 
Q 2881 1984 2565 2268 
Q 2250 2553 1709 2553 
Q 1456 2553 1204 2497 
Q 953 2441 691 2322 
L 691 4666 
z
" transform="scale(0.015625)"/>
       </defs>
       <use xlink:href="#DejaVuSans-18"/>
       <use xlink:href="#DejaVuSans-13" transform="translate(63.625 0)"/>
       <use xlink:href="#DejaVuSans-13" transform="translate(127.25 0)"/>
       <use xlink:href="#DejaVuSans-13" transform="translate(190.875 0)"/>
      </g>
     </g>
    </g>
    <g id="ytick_7">
     <g id="line2d_8">
      <g>
       <use xlink:href="#m5921f470b7" x="53.65" y="97.7227" style="stroke: #000000; stroke-width: 0.8"/>
      </g>
     </g>
     <g id="text_8">
      <!-- 6000 -->
      <g transform="translate(21.2 101.521528) scale(0.1 -0.1)">
       <defs>
        <path id="DejaVuSans-19" d="M 2113 2584 
Q 1688 2584 1439 2293 
Q 1191 2003 1191 1497 
Q 1191 994 1439 701 
Q 1688 409 2113 409 
Q 2538 409 2786 701 
Q 3034 994 3034 1497 
Q 3034 2003 2786 2293 
Q 2538 2584 2113 2584 
z
M 3366 4563 
L 3366 3988 
Q 3128 4100 2886 4159 
Q 2644 4219 2406 4219 
Q 1781 4219 1451 3797 
Q 1122 3375 1075 2522 
Q 1259 2794 1537 2939 
Q 1816 3084 2150 3084 
Q 2853 3084 3261 2657 
Q 3669 2231 3669 1497 
Q 3669 778 3244 343 
Q 2819 -91 2113 -91 
Q 1303 -91 875 529 
Q 447 1150 447 2328 
Q 447 3434 972 4092 
Q 1497 4750 2381 4750 
Q 2619 4750 2861 4703 
Q 3103 4656 3366 4563 
z
" transform="scale(0.015625)"/>
       </defs>
       <use xlink:href="#DejaVuSans-19"/>
       <use xlink:href="#DejaVuSans-13" transform="translate(63.625 0)"/>
       <use xlink:href="#DejaVuSans-13" transform="translate(127.25 0)"/>
       <use xlink:href="#DejaVuSans-13" transform="translate(190.875 0)"/>
      </g>
     </g>
    </g>
    <g id="text_9">
     <!-- RNA-seq v2 RSEM -->
     <g transform="translate(14.797656 237.887227) rotate(-90) scale(0.1 -0.1)">
      <defs>
       <path id="DejaVuSans-35" d="M 2841 2188 
Q 3044 2119 3236 1894 
Q 3428 1669 3622 1275 
L 4263 0 
L 3584 0 
L 2988 1197 
Q 2756 1666 2539 1819 
Q 2322 1972 1947 1972 
L 1259 1972 
L 1259 0 
L 628 0 
L 628 4666 
L 2053 4666 
Q 2853 4666 3247 4331 
Q 3641 3997 3641 3322 
Q 3641 2881 3436 2590 
Q 3231 2300 2841 2188 
z
M 1259 4147 
L 1259 2491 
L 2053 2491 
Q 2509 2491 2742 2702 
Q 2975 2913 2975 3322 
Q 2975 3731 2742 3939 
Q 2509 4147 2053 4147 
L 1259 4147 
z
" transform="scale(0.015625)"/>
       <path id="DejaVuSans-31" d="M 628 4666 
L 1478 4666 
L 3547 763 
L 3547 4666 
L 4159 4666 
L 4159 0 
L 3309 0 
L 1241 3903 
L 1241 0 
L 628 0 
L 628 4666 
z
" transform="scale(0.015625)"/>
       <path id="DejaVuSans-56" d="M 2834 3397 
L 2834 2853 
Q 2591 2978 2328 3040 
Q 2066 3103 1784 3103 
Q 1356 3103 1142 2972 
Q 928 2841 928 2578 
Q 928 2378 1081 2264 
Q 1234 2150 1697 2047 
L 1894 2003 
Q 2506 1872 2764 1633 
Q 3022 1394 3022 966 
Q 3022 478 2636 193 
Q 2250 -91 1575 -91 
Q 1294 -91 989 -36 
Q 684 19 347 128 
L 347 722 
Q 666 556 975 473 
Q 1284 391 1588 391 
Q 1994 391 2212 530 
Q 2431 669 2431 922 
Q 2431 1156 2273 1281 
Q 2116 1406 1581 1522 
L 1381 1569 
Q 847 1681 609 1914 
Q 372 2147 372 2553 
Q 372 3047 722 3315 
Q 1072 3584 1716 3584 
Q 2034 3584 2315 3537 
Q 2597 3491 2834 3397 
z
" transform="scale(0.015625)"/>
       <path id="DejaVuSans-48" d="M 3597 1894 
L 3597 1613 
L 953 1613 
Q 991 1019 1311 708 
Q 1631 397 2203 397 
Q 2534 397 2845 478 
Q 3156 559 3463 722 
L 3463 178 
Q 3153 47 2828 -22 
Q 2503 -91 2169 -91 
Q 1331 -91 842 396 
Q 353 884 353 1716 
Q 353 2575 817 3079 
Q 1281 3584 2069 3584 
Q 2775 3584 3186 3129 
Q 3597 2675 3597 1894 
z
M 3022 2063 
Q 3016 2534 2758 2815 
Q 2500 3097 2075 3097 
Q 1594 3097 1305 2825 
Q 1016 2553 972 2059 
L 3022 2063 
z
" transform="scale(0.015625)"/>
       <path id="DejaVuSans-54" d="M 947 1747 
Q 947 1113 1208 752 
Q 1469 391 1925 391 
Q 2381 391 2643 752 
Q 2906 1113 2906 1747 
Q 2906 2381 2643 2742 
Q 2381 3103 1925 3103 
Q 1469 3103 1208 2742 
Q 947 2381 947 1747 
z
M 2906 525 
Q 2725 213 2448 61 
Q 2172 -91 1784 -91 
Q 1150 -91 751 415 
Q 353 922 353 1747 
Q 353 2572 751 3078 
Q 1150 3584 1784 3584 
Q 2172 3584 2448 3432 
Q 2725 3281 2906 2969 
L 2906 3500 
L 3481 3500 
L 3481 -1331 
L 2906 -1331 
L 2906 525 
z
" transform="scale(0.015625)"/>
       <path id="DejaVuSans-3" transform="scale(0.015625)"/>
       <path id="DejaVuSans-59" d="M 191 3500 
L 800 3500 
L 1894 563 
L 2988 3500 
L 3597 3500 
L 2284 0 
L 1503 0 
L 191 3500 
z
" transform="scale(0.015625)"/>
       <path id="DejaVuSans-36" d="M 3425 4513 
L 3425 3897 
Q 3066 4069 2747 4153 
Q 2428 4238 2131 4238 
Q 1616 4238 1336 4038 
Q 1056 3838 1056 3469 
Q 1056 3159 1242 3001 
Q 1428 2844 1947 2747 
L 2328 2669 
Q 3034 2534 3370 2195 
Q 3706 1856 3706 1288 
Q 3706 609 3251 259 
Q 2797 -91 1919 -91 
Q 1588 -91 1214 -16 
Q 841 59 441 206 
L 441 856 
Q 825 641 1194 531 
Q 1563 422 1919 422 
Q 2459 422 2753 634 
Q 3047 847 3047 1241 
Q 3047 1584 2836 1778 
Q 2625 1972 2144 2069 
L 1759 2144 
Q 1053 2284 737 2584 
Q 422 2884 422 3419 
Q 422 4038 858 4394 
Q 1294 4750 2059 4750 
Q 2388 4750 2728 4690 
Q 3069 4631 3425 4513 
z
" transform="scale(0.015625)"/>
       <path id="DejaVuSans-28" d="M 628 4666 
L 3578 4666 
L 3578 4134 
L 1259 4134 
L 1259 2753 
L 3481 2753 
L 3481 2222 
L 1259 2222 
L 1259 531 
L 3634 531 
L 3634 0 
L 628 0 
L 628 4666 
z
" transform="scale(0.015625)"/>
       <path id="DejaVuSans-30" d="M 628 4666 
L 1569 4666 
L 2759 1491 
L 3956 4666 
L 4897 4666 
L 4897 0 
L 4281 0 
L 4281 4097 
L 3078 897 
L 2444 897 
L 1241 4097 
L 1241 0 
L 628 0 
L 628 4666 
z
" transform="scale(0.015625)"/>
      </defs>
      <use xlink:href="#DejaVuSans-35"/>
      <use xlink:href="#DejaVuSans-31" transform="translate(69.484375 0)"/>
      <use xlink:href="#DejaVuSans-24" transform="translate(144.296875 0)"/>
      <use xlink:href="#DejaVuSans-10" transform="translate(210.5 0)"/>
      <use xlink:href="#DejaVuSans-56" transform="translate(246.578125 0)"/>
      <use xlink:href="#DejaVuSans-48" transform="translate(298.671875 0)"/>
      <use xlink:href="#DejaVuSans-54" transform="translate(360.203125 0)"/>
      <use xlink:href="#DejaVuSans-3" transform="translate(423.6875 0)"/>
      <use xlink:href="#DejaVuSans-59" transform="translate(455.46875 0)"/>
      <use xlink:href="#DejaVuSans-15" transform="translate(514.65625 0)"/>
      <use xlink:href="#DejaVuSans-3" transform="translate(578.28125 0)"/>
      <use xlink:href="#DejaVuSans-35" transform="translate(610.0625 0)"/>
      <use xlink:href="#DejaVuSans-36" transform="translate(679.546875 0)"/>
      <use xlink:href="#DejaVuSans-28" transform="translate(743.03125 0)"/>
      <use xlink:href="#DejaVuSans-30" transform="translate(806.21875 0)"/>
     </g>
    </g>
   </g>
   <g id="patch_3">
    <path d="M 104.17 240.913942 
L 205.21 240.913942 
L 205.21 201.672948 
L 104.17 201.672948 
L 104.17 240.913942 
z
" clip-path="url(#p1c106165ca)" style="fill: #c0392b; opacity: 0.7; stroke: #000000; stroke-linejoin: miter"/>
   </g>
   <g id="line2d_9">
    <path d="M 154.69 240.913942 
L 154.69 284.852262 
" clip-path="url(#p1c106165ca)" style="fill: none; stroke: #000000; stroke-linecap: square"/>
   </g>
   <g id="line2d_10">
    <path d="M 154.69 201.672948 
L 154.69 143.359824 
" clip-path="url(#p1c106165ca)" style="fill: none; stroke: #000000; stroke-linecap: square"/>
   </g>
   <g id="line2d_11">
    <path d="M 129.43 284.852262 
L 179.95 284.852262 
" clip-path="url(#p1c106165ca)" style="fill: none; stroke: #000000; stroke-linecap: square"/>
   </g>
   <g id="line2d_12">
    <path d="M 129.43 143.359824 
L 179.95 143.359824 
" clip-path="url(#p1c106165ca)" style="fill: none; stroke: #000000; stroke-linecap: square"/>
   </g>
   <g id="line2d_13">
    <defs>
     <path id="m941b77eae7" d="M 0 3 
C 0.795609 3 1.55874 2.683901 2.12132 2.12132 
C 2.683901 1.55874 3 0.795609 3 0 
C 3 -0.795609 2.683901 -1.55874 2.12132 -2.12132 
C 1.55874 -2.683901 0.795609 -3 0 -3 
C -0.795609 -3 -1.55874 -2.683901 -2.12132 -2.12132 
C -2.683901 -1.55874 -3 -0.795609 -3 0 
C -3 0.795609 -2.683901 1.55874 -2.12132 2.12132 
C -1.55874 2.683901 -0.795609 3 0 3 
z
" style="stroke: #000000"/>
    </defs>
    <g clip-path="url(#p1c106165ca)">
     <use xlink:href="#m941b77eae7" x="154.69" y="122.577446" style="fill-opacity: 0; stroke: #000000"/>
     <use xlink:href="#m941b77eae7" x="154.69" y="131.298779" style="fill-opacity: 0; stroke: #000000"/>
     <use xlink:href="#m941b77eae7" x="154.69" y="125.683131" style="fill-opacity: 0; stroke: #000000"/>
     <use xlink:href="#m941b77eae7" x="154.69" y="122.790194" style="fill-opacity: 0; stroke: #000000"/>
     <use xlink:href="#m941b77eae7" x="154.69" y="104.044238" style="fill-opacity: 0; stroke: #000000"/>
     <use xlink:href="#m941b77eae7" x="154.69" y="81.78252" style="fill-opacity: 0; stroke: #000000"/>
     <use xlink:href="#m941b77eae7" x="154.69" y="126.543946" style="fill-opacity: 0; stroke: #000000"/>
     <use xlink:href="#m941b77eae7" x="154.69" y="79.685984" style="fill-opacity: 0; stroke: #000000"/>
     <use xlink:href="#m941b77eae7" x="154.69" y="138.382956" style="fill-opacity: 0; stroke: #000000"/>
     <use xlink:href="#m941b77eae7" x="154.69" y="135.756086" style="fill-opacity: 0; stroke: #000000"/>
     <use xlink:href="#m941b77eae7" x="154.69" y="138.206252" style="fill-opacity: 0; stroke: #000000"/>
     <use xlink:href="#m941b77eae7" x="154.69" y="130.20999" style="fill-opacity: 0; stroke: #000000"/>
    </g>
   </g>
   <g id="line2d_14">
    <path d="M 53.65 306.838469 
L 255.73 306.838469 
" clip-path="url(#p1c106165ca)" style="fill: none; stroke-dasharray: 7.4,3.2; stroke-dashoffset: 0; stroke: #2980b9; stroke-width: 2"/>
   </g>
   <g id="line2d_15">
    <path d="M 104.17 222.687026 
L 205.21 222.687026 
" clip-path="url(#p1c106165ca)" style="fill: none; stroke: #ffffff; stroke-width: 2"/>
   </g>
   <g id="patch_4">
    <path d="M 53.65 318.196094 
L 53.65 68.328359 
" style="fill: none; stroke: #000000; stroke-width: 0.8; stroke-linejoin: miter; stroke-linecap: square"/>
   </g>
   <g id="patch_5">
    <path d="M 255.73 318.196094 
L 255.73 68.328359 
" style="fill: none; stroke: #000000; stroke-width: 0.8; stroke-linejoin: miter; stroke-linecap: square"/>
   </g>
   <g id="patch_6">
    <path d="M 53.65 318.196094 
L 255.73 318.196094 
" style="fill: none; stroke: #000000; stroke-width: 0.8; stroke-linejoin: miter; stroke-linecap: square"/>
   </g>
   <g id="patch_7">
    <path d="M 53.65 68.328359 
L 255.73 68.328359 
" style="fill: none; stroke: #000000; stroke-width: 0.8; stroke-linejoin: miter; stroke-linecap: square"/>
   </g>
   <g id="text_10">
    <!-- STIM1 -->
    <g transform="translate(133.898125 62.328359) scale(0.12 -0.12)">
     <defs>
      <path id="DejaVuSans-Bold-36" d="M 3834 4519 
L 3834 3531 
Q 3450 3703 3084 3790 
Q 2719 3878 2394 3878 
Q 1963 3878 1756 3759 
Q 1550 3641 1550 3391 
Q 1550 3203 1689 3098 
Q 1828 2994 2194 2919 
L 2706 2816 
Q 3484 2659 3812 2340 
Q 4141 2022 4141 1434 
Q 4141 663 3683 286 
Q 3225 -91 2284 -91 
Q 1841 -91 1394 -6 
Q 947 78 500 244 
L 500 1259 
Q 947 1022 1364 901 
Q 1781 781 2169 781 
Q 2563 781 2772 912 
Q 2981 1044 2981 1288 
Q 2981 1506 2839 1625 
Q 2697 1744 2272 1838 
L 1806 1941 
Q 1106 2091 782 2419 
Q 459 2747 459 3303 
Q 459 4000 909 4375 
Q 1359 4750 2203 4750 
Q 2588 4750 2994 4692 
Q 3400 4634 3834 4519 
z
" transform="scale(0.015625)"/>
      <path id="DejaVuSans-Bold-37" d="M 31 4666 
L 4331 4666 
L 4331 3756 
L 2784 3756 
L 2784 0 
L 1581 0 
L 1581 3756 
L 31 3756 
L 31 4666 
z
" transform="scale(0.015625)"/>
      <path id="DejaVuSans-Bold-2c" d="M 588 4666 
L 1791 4666 
L 1791 0 
L 588 0 
L 588 4666 
z
" transform="scale(0.015625)"/>
      <path id="DejaVuSans-Bold-30" d="M 588 4666 
L 2119 4666 
L 3181 2169 
L 4250 4666 
L 5778 4666 
L 5778 0 
L 4641 0 
L 4641 3413 
L 3566 897 
L 2803 897 
L 1728 3413 
L 1728 0 
L 588 0 
L 588 4666 
z
" transform="scale(0.015625)"/>
      <path id="DejaVuSans-Bold-14" d="M 750 831 
L 1813 831 
L 1813 3847 
L 722 3622 
L 722 4441 
L 1806 4666 
L 2950 4666 
L 2950 831 
L 4013 831 
L 4013 0 
L 750 0 
L 750 831 
z
" transform="scale(0.015625)"/>
     </defs>
     <use xlink:href="#DejaVuSans-Bold-36"/>
     <use xlink:href="#DejaVuSans-Bold-37" transform="translate(72.015625 0)"/>
     <use xlink:href="#DejaVuSans-Bold-2c" transform="translate(140.234375 0)"/>
     <use xlink:href="#DejaVuSans-Bold-30" transform="translate(177.4375 0)"/>
     <use xlink:href="#DejaVuSans-Bold-14" transform="translate(276.953125 0)"/>
    </g>
   </g>
   <g id="legend_1">
    <g id="patch_8">
     <path d="M 59.25 314.196094 
L 161.02125 314.196094 
Q 162.62125 314.196094 162.62125 312.596094 
L 162.62125 301.395469 
Q 162.62125 299.795469 161.02125 299.795469 
L 59.25 299.795469 
Q 57.65 299.795469 57.65 301.395469 
L 57.65 312.596094 
Q 57.65 314.196094 59.25 314.196094 
z
" style="fill: #ffffff; opacity: 0.8; stroke: #cccccc; stroke-linejoin: miter"/>
    </g>
    <g id="line2d_16">
     <path d="M 60.85 306.274219 
L 68.85 306.274219 
L 76.85 306.274219 
" style="fill: none; stroke-dasharray: 7.4,3.2; stroke-dashoffset: 0; stroke: #2980b9; stroke-width: 2"/>
    </g>
    <g id="text_11">
     <!-- GTEx median: 17.4 -->
     <g transform="translate(83.25 309.074219) scale(0.08 -0.08)">
      <defs>
       <path id="DejaVuSans-5b" d="M 3513 3500 
L 2247 1797 
L 3578 0 
L 2900 0 
L 1881 1375 
L 863 0 
L 184 0 
L 1544 1831 
L 300 3500 
L 978 3500 
L 1906 2253 
L 2834 3500 
L 3513 3500 
z
" transform="scale(0.015625)"/>
       <path id="DejaVuSans-47" d="M 2906 2969 
L 2906 4863 
L 3481 4863 
L 3481 0 
L 2906 0 
L 2906 525 
Q 2725 213 2448 61 
Q 2172 -91 1784 -91 
Q 1150 -91 751 415 
Q 353 922 353 1747 
Q 353 2572 751 3078 
Q 1150 3584 1784 3584 
Q 2172 3584 2448 3432 
Q 2725 3281 2906 2969 
z
M 947 1747 
Q 947 1113 1208 752 
Q 1469 391 1925 391 
Q 2381 391 2643 752 
Q 2906 1113 2906 1747 
Q 2906 2381 2643 2742 
Q 2381 3103 1925 3103 
Q 1469 3103 1208 2742 
Q 947 2381 947 1747 
z
" transform="scale(0.015625)"/>
       <path id="DejaVuSans-4c" d="M 603 3500 
L 1178 3500 
L 1178 0 
L 603 0 
L 603 3500 
z
M 603 4863 
L 1178 4863 
L 1178 4134 
L 603 4134 
L 603 4863 
z
" transform="scale(0.015625)"/>
       <path id="DejaVuSans-44" d="M 2194 1759 
Q 1497 1759 1228 1600 
Q 959 1441 959 1056 
Q 959 750 1161 570 
Q 1363 391 1709 391 
Q 2188 391 2477 730 
Q 2766 1069 2766 1631 
L 2766 1759 
L 2194 1759 
z
M 3341 1997 
L 3341 0 
L 2766 0 
L 2766 531 
Q 2569 213 2275 61 
Q 1981 -91 1556 -91 
Q 1019 -91 701 211 
Q 384 513 384 1019 
Q 384 1609 779 1909 
Q 1175 2209 1959 2209 
L 2766 2209 
L 2766 2266 
Q 2766 2663 2505 2880 
Q 2244 3097 1772 3097 
Q 1472 3097 1187 3025 
Q 903 2953 641 2809 
L 641 3341 
Q 956 3463 1253 3523 
Q 1550 3584 1831 3584 
Q 2591 3584 2966 3190 
Q 3341 2797 3341 1997 
z
" transform="scale(0.015625)"/>
       <path id="DejaVuSans-51" d="M 3513 2113 
L 3513 0 
L 2938 0 
L 2938 2094 
Q 2938 2591 2744 2837 
Q 2550 3084 2163 3084 
Q 1697 3084 1428 2787 
Q 1159 2491 1159 1978 
L 1159 0 
L 581 0 
L 581 3500 
L 1159 3500 
L 1159 2956 
Q 1366 3272 1645 3428 
Q 1925 3584 2291 3584 
Q 2894 3584 3203 3211 
Q 3513 2838 3513 2113 
z
" transform="scale(0.015625)"/>
       <path id="DejaVuSans-1d" d="M 750 794 
L 1409 794 
L 1409 0 
L 750 0 
L 750 794 
z
M 750 3309 
L 1409 3309 
L 1409 2516 
L 750 2516 
L 750 3309 
z
" transform="scale(0.015625)"/>
       <path id="DejaVuSans-1a" d="M 525 4666 
L 3525 4666 
L 3525 4397 
L 1831 0 
L 1172 0 
L 2766 4134 
L 525 4134 
L 525 4666 
z
" transform="scale(0.015625)"/>
       <path id="DejaVuSans-11" d="M 684 794 
L 1344 794 
L 1344 0 
L 684 0 
L 684 794 
z
" transform="scale(0.015625)"/>
      </defs>
      <use xlink:href="#DejaVuSans-2a"/>
      <use xlink:href="#DejaVuSans-37" transform="translate(73.921875 0)"/>
      <use xlink:href="#DejaVuSans-28" transform="translate(135 0)"/>
      <use xlink:href="#DejaVuSans-5b" transform="translate(198.1875 0)"/>
      <use xlink:href="#DejaVuSans-3" transform="translate(257.375 0)"/>
      <use xlink:href="#DejaVuSans-50" transform="translate(289.15625 0)"/>
      <use xlink:href="#DejaVuSans-48" transform="translate(386.5625 0)"/>
      <use xlink:href="#DejaVuSans-47" transform="translate(448.09375 0)"/>
      <use xlink:href="#DejaVuSans-4c" transform="translate(511.578125 0)"/>
      <use xlink:href="#DejaVuSans-44" transform="translate(539.359375 0)"/>
      <use xlink:href="#DejaVuSans-51" transform="translate(600.640625 0)"/>
      <use xlink:href="#DejaVuSans-1d" transform="translate(664.015625 0)"/>
      <use xlink:href="#DejaVuSans-3" transform="translate(697.703125 0)"/>
      <use xlink:href="#DejaVuSans-14" transform="translate(729.484375 0)"/>
      <use xlink:href="#DejaVuSans-1a" transform="translate(793.109375 0)"/>
      <use xlink:href="#DejaVuSans-11" transform="translate(856.734375 0)"/>
      <use xlink:href="#DejaVuSans-17" transform="translate(888.515625 0)"/>
     </g>
    </g>
   </g>
  </g>
  <g id="axes_2">
   <g id="patch_9">
    <path d="M 299.45 318.196094 
L 501.53 318.196094 
L 501.53 68.328359 
L 299.45 68.328359 
z
" style="fill: #ffffff"/>
   </g>
   <g id="matplotlib.axis_3">
    <g id="xtick_2">
     <g id="line2d_17">
      <g>
       <use xlink:href="#m0347a6937d" x="400.49" y="318.196094" style="stroke: #000000; stroke-width: 0.8"/>
      </g>
     </g>
     <g id="text_12">
      <!-- TCGA-LIHC -->
      <g transform="translate(373.736875 333.794727) scale(0.1 -0.1)">
       <use xlink:href="#DejaVuSans-37"/>
       <use xlink:href="#DejaVuSans-26" transform="translate(55.21875 0)"/>
       <use xlink:href="#DejaVuSans-2a" transform="translate(125.046875 0)"/>
       <use xlink:href="#DejaVuSans-24" transform="translate(202.53125 0)"/>
       <use xlink:href="#DejaVuSans-10" transform="translate(268.734375 0)"/>
       <use xlink:href="#DejaVuSans-2f" transform="translate(304.8125 0)"/>
       <use xlink:href="#DejaVuSans-2c" transform="translate(360.53125 0)"/>
       <use xlink:href="#DejaVuSans-2b" transform="translate(390.03125 0)"/>
       <use xlink:href="#DejaVuSans-26" transform="translate(465.234375 0)"/>
      </g>
      <!-- Tumour -->
      <g transform="translate(381.872813 345.79668) scale(0.1 -0.1)">
       <use xlink:href="#DejaVuSans-37"/>
       <use xlink:href="#DejaVuSans-58" transform="translate(45.890625 0)"/>
       <use xlink:href="#DejaVuSans-50" transform="translate(109.265625 0)"/>
       <use xlink:href="#DejaVuSans-52" transform="translate(206.671875 0)"/>
       <use xlink:href="#DejaVuSans-58" transform="translate(267.859375 0)"/>
       <use xlink:href="#DejaVuSans-55" transform="translate(331.234375 0)"/>
      </g>
     </g>
    </g>
   </g>
   <g id="matplotlib.axis_4">
    <g id="ytick_8">
     <g id="line2d_18">
      <g>
       <use xlink:href="#m5921f470b7" x="299.45" y="306.838469" style="stroke: #000000; stroke-width: 0.8"/>
      </g>
     </g>
     <g id="text_13">
      <!-- 0 -->
      <g transform="translate(286.0875 310.637298) scale(0.1 -0.1)">
       <use xlink:href="#DejaVuSans-13"/>
      </g>
     </g>
    </g>
    <g id="ytick_9">
     <g id="line2d_19">
      <g>
       <use xlink:href="#m5921f470b7" x="299.45" y="276.443854" style="stroke: #000000; stroke-width: 0.8"/>
      </g>
     </g>
     <g id="text_14">
      <!-- 20 -->
      <g transform="translate(279.725 280.242682) scale(0.1 -0.1)">
       <use xlink:href="#DejaVuSans-15"/>
       <use xlink:href="#DejaVuSans-13" transform="translate(63.625 0)"/>
      </g>
     </g>
    </g>
    <g id="ytick_10">
     <g id="line2d_20">
      <g>
       <use xlink:href="#m5921f470b7" x="299.45" y="246.049239" style="stroke: #000000; stroke-width: 0.8"/>
      </g>
     </g>
     <g id="text_15">
      <!-- 40 -->
      <g transform="translate(279.725 249.848067) scale(0.1 -0.1)">
       <use xlink:href="#DejaVuSans-17"/>
       <use xlink:href="#DejaVuSans-13" transform="translate(63.625 0)"/>
      </g>
     </g>
    </g>
    <g id="ytick_11">
     <g id="line2d_21">
      <g>
       <use xlink:href="#m5921f470b7" x="299.45" y="215.654624" style="stroke: #000000; stroke-width: 0.8"/>
      </g>
     </g>
     <g id="text_16">
      <!-- 60 -->
      <g transform="translate(279.725 219.453452) scale(0.1 -0.1)">
       <use xlink:href="#DejaVuSans-19"/>
       <use xlink:href="#DejaVuSans-13" transform="translate(63.625 0)"/>
      </g>
     </g>
    </g>
    <g id="ytick_12">
     <g id="line2d_22">
      <g>
       <use xlink:href="#m5921f470b7" x="299.45" y="185.260008" style="stroke: #000000; stroke-width: 0.8"/>
      </g>
     </g>
     <g id="text_17">
      <!-- 80 -->
      <g transform="translate(279.725 189.058836) scale(0.1 -0.1)">
       <defs>
        <path id="DejaVuSans-1b" d="M 2034 2216 
Q 1584 2216 1326 1975 
Q 1069 1734 1069 1313 
Q 1069 891 1326 650 
Q 1584 409 2034 409 
Q 2484 409 2743 651 
Q 3003 894 3003 1313 
Q 3003 1734 2745 1975 
Q 2488 2216 2034 2216 
z
M 1403 2484 
Q 997 2584 770 2862 
Q 544 3141 544 3541 
Q 544 4100 942 4425 
Q 1341 4750 2034 4750 
Q 2731 4750 3128 4425 
Q 3525 4100 3525 3541 
Q 3525 3141 3298 2862 
Q 3072 2584 2669 2484 
Q 3125 2378 3379 2068 
Q 3634 1759 3634 1313 
Q 3634 634 3220 271 
Q 2806 -91 2034 -91 
Q 1263 -91 848 271 
Q 434 634 434 1313 
Q 434 1759 690 2068 
Q 947 2378 1403 2484 
z
M 1172 3481 
Q 1172 3119 1398 2916 
Q 1625 2713 2034 2713 
Q 2441 2713 2670 2916 
Q 2900 3119 2900 3481 
Q 2900 3844 2670 4047 
Q 2441 4250 2034 4250 
Q 1625 4250 1398 4047 
Q 1172 3844 1172 3481 
z
" transform="scale(0.015625)"/>
       </defs>
       <use xlink:href="#DejaVuSans-1b"/>
       <use xlink:href="#DejaVuSans-13" transform="translate(63.625 0)"/>
      </g>
     </g>
    </g>
    <g id="ytick_13">
     <g id="line2d_23">
      <g>
       <use xlink:href="#m5921f470b7" x="299.45" y="154.865393" style="stroke: #000000; stroke-width: 0.8"/>
      </g>
     </g>
     <g id="text_18">
      <!-- 100 -->
      <g transform="translate(273.3625 158.664221) scale(0.1 -0.1)">
       <use xlink:href="#DejaVuSans-14"/>
       <use xlink:href="#DejaVuSans-13" transform="translate(63.625 0)"/>
       <use xlink:href="#DejaVuSans-13" transform="translate(127.25 0)"/>
      </g>
     </g>
    </g>
    <g id="ytick_14">
     <g id="line2d_24">
      <g>
       <use xlink:href="#m5921f470b7" x="299.45" y="124.470778" style="stroke: #000000; stroke-width: 0.8"/>
      </g>
     </g>
     <g id="text_19">
      <!-- 120 -->
      <g transform="translate(273.3625 128.269606) scale(0.1 -0.1)">
       <use xlink:href="#DejaVuSans-14"/>
       <use xlink:href="#DejaVuSans-15" transform="translate(63.625 0)"/>
       <use xlink:href="#DejaVuSans-13" transform="translate(127.25 0)"/>
      </g>
     </g>
    </g>
    <g id="ytick_15">
     <g id="line2d_25">
      <g>
       <use xlink:href="#m5921f470b7" x="299.45" y="94.076162" style="stroke: #000000; stroke-width: 0.8"/>
      </g>
     </g>
     <g id="text_20">
      <!-- 140 -->
      <g transform="translate(273.3625 97.87499) scale(0.1 -0.1)">
       <use xlink:href="#DejaVuSans-14"/>
       <use xlink:href="#DejaVuSans-17" transform="translate(63.625 0)"/>
       <use xlink:href="#DejaVuSans-13" transform="translate(127.25 0)"/>
      </g>
     </g>
    </g>
   </g>
   <g id="patch_10">
    <path d="M 349.97 293.147063 
L 451.01 293.147063 
L 451.01 266.215154 
L 349.97 266.215154 
L 349.97 293.147063 
z
" clip-path="url(#p9824cacb0e)" style="fill: #c0392b; opacity: 0.7; stroke: #000000; stroke-linejoin: miter"/>
   </g>
   <g id="line2d_26">
    <path d="M 400.49 293.147063 
L 400.49 306.838469 
" clip-path="url(#p9824cacb0e)" style="fill: none; stroke: #000000; stroke-linecap: square"/>
   </g>
   <g id="line2d_27">
    <path d="M 400.49 266.215154 
L 400.49 226.440305 
" clip-path="url(#p9824cacb0e)" style="fill: none; stroke: #000000; stroke-linecap: square"/>
   </g>
   <g id="line2d_28">
    <path d="M 375.23 306.838469 
L 425.75 306.838469 
" clip-path="url(#p9824cacb0e)" style="fill: none; stroke: #000000; stroke-linecap: square"/>
   </g>
   <g id="line2d_29">
    <path d="M 375.23 226.440305 
L 425.75 226.440305 
" clip-path="url(#p9824cacb0e)" style="fill: none; stroke: #000000; stroke-linecap: square"/>
   </g>
   <g id="line2d_30">
    <g clip-path="url(#p9824cacb0e)">
     <use xlink:href="#m941b77eae7" x="400.49" y="84.182715" style="fill-opacity: 0; stroke: #000000"/>
     <use xlink:href="#m941b77eae7" x="400.49" y="210.321888" style="fill-opacity: 0; stroke: #000000"/>
     <use xlink:href="#m941b77eae7" x="400.49" y="219.615498" style="fill-opacity: 0; stroke: #000000"/>
     <use xlink:href="#m941b77eae7" x="400.49" y="189.657957" style="fill-opacity: 0; stroke: #000000"/>
     <use xlink:href="#m941b77eae7" x="400.49" y="113.556071" style="fill-opacity: 0; stroke: #000000"/>
     <use xlink:href="#m941b77eae7" x="400.49" y="190.477092" style="fill-opacity: 0; stroke: #000000"/>
     <use xlink:href="#m941b77eae7" x="400.49" y="224.922854" style="fill-opacity: 0; stroke: #000000"/>
     <use xlink:href="#m941b77eae7" x="400.49" y="224.79778" style="fill-opacity: 0; stroke: #000000"/>
     <use xlink:href="#m941b77eae7" x="400.49" y="225.714025" style="fill-opacity: 0; stroke: #000000"/>
     <use xlink:href="#m941b77eae7" x="400.49" y="206.424235" style="fill-opacity: 0; stroke: #000000"/>
     <use xlink:href="#m941b77eae7" x="400.49" y="203.583098" style="fill-opacity: 0; stroke: #000000"/>
     <use xlink:href="#m941b77eae7" x="400.49" y="164.95139" style="fill-opacity: 0; stroke: #000000"/>
     <use xlink:href="#m941b77eae7" x="400.49" y="204.384756" style="fill-opacity: 0; stroke: #000000"/>
     <use xlink:href="#m941b77eae7" x="400.49" y="202.321722" style="fill-opacity: 0; stroke: #000000"/>
     <use xlink:href="#m941b77eae7" x="400.49" y="203.588873" style="fill-opacity: 0; stroke: #000000"/>
     <use xlink:href="#m941b77eae7" x="400.49" y="212.927163" style="fill-opacity: 0; stroke: #000000"/>
     <use xlink:href="#m941b77eae7" x="400.49" y="180.112376" style="fill-opacity: 0; stroke: #000000"/>
     <use xlink:href="#m941b77eae7" x="400.49" y="178.5352" style="fill-opacity: 0; stroke: #000000"/>
     <use xlink:href="#m941b77eae7" x="400.49" y="203.862425" style="fill-opacity: 0; stroke: #000000"/>
     <use xlink:href="#m941b77eae7" x="400.49" y="79.685984" style="fill-opacity: 0; stroke: #000000"/>
     <use xlink:href="#m941b77eae7" x="400.49" y="167.278858" style="fill-opacity: 0; stroke: #000000"/>
    </g>
   </g>
   <g id="line2d_31">
    <path d="M 299.45 306.77154 
L 501.53 306.77154 
" clip-path="url(#p9824cacb0e)" style="fill: none; stroke-dasharray: 7.4,3.2; stroke-dashoffset: 0; stroke: #2980b9; stroke-width: 2"/>
   </g>
   <g id="line2d_32">
    <path d="M 349.97 282.080991 
L 451.01 282.080991 
" clip-path="url(#p9824cacb0e)" style="fill: none; stroke: #ffffff; stroke-width: 2"/>
   </g>
   <g id="patch_11">
    <path d="M 299.45 318.196094 
L 299.45 68.328359 
" style="fill: none; stroke: #000000; stroke-width: 0.8; stroke-linejoin: miter; stroke-linecap: square"/>
   </g>
   <g id="patch_12">
    <path d="M 501.53 318.196094 
L 501.53 68.328359 
" style="fill: none; stroke: #000000; stroke-width: 0.8; stroke-linejoin: miter; stroke-linecap: square"/>
   </g>
   <g id="patch_13">
    <path d="M 299.45 318.196094 
L 501.53 318.196094 
" style="fill: none; stroke: #000000; stroke-width: 0.8; stroke-linejoin: miter; stroke-linecap: square"/>
   </g>
   <g id="patch_14">
    <path d="M 299.45 68.328359 
L 501.53 68.328359 
" style="fill: none; stroke: #000000; stroke-width: 0.8; stroke-linejoin: miter; stroke-linecap: square"/>
   </g>
   <g id="text_21">
    <!-- TRPC6 -->
    <g transform="translate(378.800938 62.328359) scale(0.12 -0.12)">
     <defs>
      <path id="DejaVuSans-Bold-35" d="M 2297 2597 
Q 2675 2597 2839 2737 
Q 3003 2878 3003 3200 
Q 3003 3519 2839 3656 
Q 2675 3794 2297 3794 
L 1791 3794 
L 1791 2597 
L 2297 2597 
z
M 1791 1766 
L 1791 0 
L 588 0 
L 588 4666 
L 2425 4666 
Q 3347 4666 3776 4356 
Q 4206 4047 4206 3378 
Q 4206 2916 3982 2619 
Q 3759 2322 3309 2181 
Q 3556 2125 3751 1926 
Q 3947 1728 4147 1325 
L 4800 0 
L 3519 0 
L 2950 1159 
Q 2778 1509 2601 1637 
Q 2425 1766 2131 1766 
L 1791 1766 
z
" transform="scale(0.015625)"/>
      <path id="DejaVuSans-Bold-33" d="M 588 4666 
L 2584 4666 
Q 3475 4666 3951 4270 
Q 4428 3875 4428 3144 
Q 4428 2409 3951 2014 
Q 3475 1619 2584 1619 
L 1791 1619 
L 1791 0 
L 588 0 
L 588 4666 
z
M 1791 3794 
L 1791 2491 
L 2456 2491 
Q 2806 2491 2997 2661 
Q 3188 2831 3188 3144 
Q 3188 3456 2997 3625 
Q 2806 3794 2456 3794 
L 1791 3794 
z
" transform="scale(0.015625)"/>
      <path id="DejaVuSans-Bold-26" d="M 4288 256 
Q 3956 84 3597 -3 
Q 3238 -91 2847 -91 
Q 1681 -91 1000 561 
Q 319 1213 319 2328 
Q 319 3447 1000 4098 
Q 1681 4750 2847 4750 
Q 3238 4750 3597 4662 
Q 3956 4575 4288 4403 
L 4288 3438 
Q 3953 3666 3628 3772 
Q 3303 3878 2944 3878 
Q 2300 3878 1931 3465 
Q 1563 3053 1563 2328 
Q 1563 1606 1931 1193 
Q 2300 781 2944 781 
Q 3303 781 3628 887 
Q 3953 994 4288 1222 
L 4288 256 
z
" transform="scale(0.015625)"/>
      <path id="DejaVuSans-Bold-19" d="M 2316 2303 
Q 2000 2303 1842 2098 
Q 1684 1894 1684 1484 
Q 1684 1075 1842 870 
Q 2000 666 2316 666 
Q 2634 666 2792 870 
Q 2950 1075 2950 1484 
Q 2950 1894 2792 2098 
Q 2634 2303 2316 2303 
z
M 3803 4544 
L 3803 3681 
Q 3506 3822 3243 3889 
Q 2981 3956 2731 3956 
Q 2194 3956 1894 3657 
Q 1594 3359 1544 2772 
Q 1750 2925 1990 3001 
Q 2231 3078 2516 3078 
Q 3231 3078 3670 2659 
Q 4109 2241 4109 1563 
Q 4109 813 3618 361 
Q 3128 -91 2303 -91 
Q 1394 -91 895 523 
Q 397 1138 397 2266 
Q 397 3422 980 4083 
Q 1563 4744 2578 4744 
Q 2900 4744 3203 4694 
Q 3506 4644 3803 4544 
z
" transform="scale(0.015625)"/>
     </defs>
     <use xlink:href="#DejaVuSans-Bold-37"/>
     <use xlink:href="#DejaVuSans-Bold-35" transform="translate(68.21875 0)"/>
     <use xlink:href="#DejaVuSans-Bold-33" transform="translate(145.21875 0)"/>
     <use xlink:href="#DejaVuSans-Bold-26" transform="translate(218.515625 0)"/>
     <use xlink:href="#DejaVuSans-Bold-19" transform="translate(291.90625 0)"/>
    </g>
   </g>
   <g id="legend_2">
    <g id="patch_15">
     <path d="M 399.24875 86.728984 
L 495.93 86.728984 
Q 497.53 86.728984 497.53 85.128984 
L 497.53 73.928359 
Q 497.53 72.328359 495.93 72.328359 
L 399.24875 72.328359 
Q 397.64875 72.328359 397.64875 73.928359 
L 397.64875 85.128984 
Q 397.64875 86.728984 399.24875 86.728984 
z
" style="fill: #ffffff; opacity: 0.8; stroke: #cccccc; stroke-linejoin: miter"/>
    </g>
    <g id="line2d_33">
     <path d="M 400.84875 78.807109 
L 408.84875 78.807109 
L 416.84875 78.807109 
" style="fill: none; stroke-dasharray: 7.4,3.2; stroke-dashoffset: 0; stroke: #2980b9; stroke-width: 2"/>
    </g>
    <g id="text_22">
     <!-- GTEx median: 0.0 -->
     <g transform="translate(423.24875 81.607109) scale(0.08 -0.08)">
      <use xlink:href="#DejaVuSans-2a"/>
      <use xlink:href="#DejaVuSans-37" transform="translate(73.921875 0)"/>
      <use xlink:href="#DejaVuSans-28" transform="translate(135 0)"/>
      <use xlink:href="#DejaVuSans-5b" transform="translate(198.1875 0)"/>
      <use xlink:href="#DejaVuSans-3" transform="translate(257.375 0)"/>
      <use xlink:href="#DejaVuSans-50" transform="translate(289.15625 0)"/>
      <use xlink:href="#DejaVuSans-48" transform="translate(386.5625 0)"/>
      <use xlink:href="#DejaVuSans-47" transform="translate(448.09375 0)"/>
      <use xlink:href="#DejaVuSans-4c" transform="translate(511.578125 0)"/>
      <use xlink:href="#DejaVuSans-44" transform="translate(539.359375 0)"/>
      <use xlink:href="#DejaVuSans-51" transform="translate(600.640625 0)"/>
      <use xlink:href="#DejaVuSans-1d" transform="translate(664.015625 0)"/>
      <use xlink:href="#DejaVuSans-3" transform="translate(697.703125 0)"/>
      <use xlink:href="#DejaVuSans-13" transform="translate(729.484375 0)"/>
      <use xlink:href="#DejaVuSans-11" transform="translate(793.109375 0)"/>
      <use xlink:href="#DejaVuSans-13" transform="translate(824.890625 0)"/>
     </g>
    </g>
   </g>
  </g>
  <g id="axes_3">
   <g id="patch_16">
    <path d="M 545.25 318.196094 
L 747.33 318.196094 
L 747.33 68.328359 
L 545.25 68.328359 
z
" style="fill: #ffffff"/>
   </g>
   <g id="matplotlib.axis_5">
    <g id="xtick_3">
     <g id="line2d_34">
      <g>
       <use xlink:href="#m0347a6937d" x="646.29" y="318.196094" style="stroke: #000000; stroke-width: 0.8"/>
      </g>
     </g>
     <g id="text_23">
      <!-- TCGA-LIHC -->
      <g transform="translate(619.536875 333.794727) scale(0.1 -0.1)">
       <use xlink:href="#DejaVuSans-37"/>
       <use xlink:href="#DejaVuSans-26" transform="translate(55.21875 0)"/>
       <use xlink:href="#DejaVuSans-2a" transform="translate(125.046875 0)"/>
       <use xlink:href="#DejaVuSans-24" transform="translate(202.53125 0)"/>
       <use xlink:href="#DejaVuSans-10" transform="translate(268.734375 0)"/>
       <use xlink:href="#DejaVuSans-2f" transform="translate(304.8125 0)"/>
       <use xlink:href="#DejaVuSans-2c" transform="translate(360.53125 0)"/>
       <use xlink:href="#DejaVuSans-2b" transform="translate(390.03125 0)"/>
       <use xlink:href="#DejaVuSans-26" transform="translate(465.234375 0)"/>
      </g>
      <!-- Tumour -->
      <g transform="translate(627.672812 345.79668) scale(0.1 -0.1)">
       <use xlink:href="#DejaVuSans-37"/>
       <use xlink:href="#DejaVuSans-58" transform="translate(45.890625 0)"/>
       <use xlink:href="#DejaVuSans-50" transform="translate(109.265625 0)"/>
       <use xlink:href="#DejaVuSans-52" transform="translate(206.671875 0)"/>
       <use xlink:href="#DejaVuSans-58" transform="translate(267.859375 0)"/>
       <use xlink:href="#DejaVuSans-55" transform="translate(331.234375 0)"/>
      </g>
     </g>
    </g>
   </g>
   <g id="matplotlib.axis_6">
    <g id="ytick_16">
     <g id="line2d_35">
      <g>
       <use xlink:href="#m5921f470b7" x="545.25" y="306.838469" style="stroke: #000000; stroke-width: 0.8"/>
      </g>
     </g>
     <g id="text_24">
      <!-- 0 -->
      <g transform="translate(531.8875 310.637298) scale(0.1 -0.1)">
       <use xlink:href="#DejaVuSans-13"/>
      </g>
     </g>
    </g>
    <g id="ytick_17">
     <g id="line2d_36">
      <g>
       <use xlink:href="#m5921f470b7" x="545.25" y="252.226656" style="stroke: #000000; stroke-width: 0.8"/>
      </g>
     </g>
     <g id="text_25">
      <!-- 100 -->
      <g transform="translate(519.1625 256.025484) scale(0.1 -0.1)">
       <use xlink:href="#DejaVuSans-14"/>
       <use xlink:href="#DejaVuSans-13" transform="translate(63.625 0)"/>
       <use xlink:href="#DejaVuSans-13" transform="translate(127.25 0)"/>
      </g>
     </g>
    </g>
    <g id="ytick_18">
     <g id="line2d_37">
      <g>
       <use xlink:href="#m5921f470b7" x="545.25" y="197.614843" style="stroke: #000000; stroke-width: 0.8"/>
      </g>
     </g>
     <g id="text_26">
      <!-- 200 -->
      <g transform="translate(519.1625 201.413671) scale(0.1 -0.1)">
       <use xlink:href="#DejaVuSans-15"/>
       <use xlink:href="#DejaVuSans-13" transform="translate(63.625 0)"/>
       <use xlink:href="#DejaVuSans-13" transform="translate(127.25 0)"/>
      </g>
     </g>
    </g>
    <g id="ytick_19">
     <g id="line2d_38">
      <g>
       <use xlink:href="#m5921f470b7" x="545.25" y="143.003029" style="stroke: #000000; stroke-width: 0.8"/>
      </g>
     </g>
     <g id="text_27">
      <!-- 300 -->
      <g transform="translate(519.1625 146.801857) scale(0.1 -0.1)">
       <use xlink:href="#DejaVuSans-16"/>
       <use xlink:href="#DejaVuSans-13" transform="translate(63.625 0)"/>
       <use xlink:href="#DejaVuSans-13" transform="translate(127.25 0)"/>
      </g>
     </g>
    </g>
    <g id="ytick_20">
     <g id="line2d_39">
      <g>
       <use xlink:href="#m5921f470b7" x="545.25" y="88.391216" style="stroke: #000000; stroke-width: 0.8"/>
      </g>
     </g>
     <g id="text_28">
      <!-- 400 -->
      <g transform="translate(519.1625 92.190044) scale(0.1 -0.1)">
       <use xlink:href="#DejaVuSans-17"/>
       <use xlink:href="#DejaVuSans-13" transform="translate(63.625 0)"/>
       <use xlink:href="#DejaVuSans-13" transform="translate(127.25 0)"/>
      </g>
     </g>
    </g>
   </g>
   <g id="patch_17">
    <path d="M 595.77 299.404273 
L 696.81 299.404273 
L 696.81 276.053899 
L 595.77 276.053899 
L 595.77 299.404273 
z
" clip-path="url(#pf3f77f2a5e)" style="fill: #c0392b; opacity: 0.7; stroke: #000000; stroke-linejoin: miter"/>
   </g>
   <g id="line2d_40">
    <path d="M 646.29 299.404273 
L 646.29 306.838469 
" clip-path="url(#pf3f77f2a5e)" style="fill: none; stroke: #000000; stroke-linecap: square"/>
   </g>
   <g id="line2d_41">
    <path d="M 646.29 276.053899 
L 646.29 242.846476 
" clip-path="url(#pf3f77f2a5e)" style="fill: none; stroke: #000000; stroke-linecap: square"/>
   </g>
   <g id="line2d_42">
    <path d="M 621.03 306.838469 
L 671.55 306.838469 
" clip-path="url(#pf3f77f2a5e)" style="fill: none; stroke: #000000; stroke-linecap: square"/>
   </g>
   <g id="line2d_43">
    <path d="M 621.03 242.846476 
L 671.55 242.846476 
" clip-path="url(#pf3f77f2a5e)" style="fill: none; stroke: #000000; stroke-linecap: square"/>
   </g>
   <g id="line2d_44">
    <g clip-path="url(#pf3f77f2a5e)">
     <use xlink:href="#m941b77eae7" x="646.29" y="241.023479" style="fill-opacity: 0; stroke: #000000"/>
     <use xlink:href="#m941b77eae7" x="646.29" y="234.759013" style="fill-opacity: 0; stroke: #000000"/>
     <use xlink:href="#m941b77eae7" x="646.29" y="128.650171" style="fill-opacity: 0; stroke: #000000"/>
     <use xlink:href="#m941b77eae7" x="646.29" y="191.321268" style="fill-opacity: 0; stroke: #000000"/>
     <use xlink:href="#m941b77eae7" x="646.29" y="180.658257" style="fill-opacity: 0; stroke: #000000"/>
     <use xlink:href="#m941b77eae7" x="646.29" y="227.429671" style="fill-opacity: 0; stroke: #000000"/>
     <use xlink:href="#m941b77eae7" x="646.29" y="156.215538" style="fill-opacity: 0; stroke: #000000"/>
     <use xlink:href="#m941b77eae7" x="646.29" y="213.562912" style="fill-opacity: 0; stroke: #000000"/>
     <use xlink:href="#m941b77eae7" x="646.29" y="79.685984" style="fill-opacity: 0; stroke: #000000"/>
     <use xlink:href="#m941b77eae7" x="646.29" y="235.280392" style="fill-opacity: 0; stroke: #000000"/>
     <use xlink:href="#m941b77eae7" x="646.29" y="212.753347" style="fill-opacity: 0; stroke: #000000"/>
     <use xlink:href="#m941b77eae7" x="646.29" y="174.815994" style="fill-opacity: 0; stroke: #000000"/>
     <use xlink:href="#m941b77eae7" x="646.29" y="90.117714" style="fill-opacity: 0; stroke: #000000"/>
     <use xlink:href="#m941b77eae7" x="646.29" y="235.769823" style="fill-opacity: 0; stroke: #000000"/>
     <use xlink:href="#m941b77eae7" x="646.29" y="161.550348" style="fill-opacity: 0; stroke: #000000"/>
     <use xlink:href="#m941b77eae7" x="646.29" y="184.983185" style="fill-opacity: 0; stroke: #000000"/>
     <use xlink:href="#m941b77eae7" x="646.29" y="229.255289" style="fill-opacity: 0; stroke: #000000"/>
     <use xlink:href="#m941b77eae7" x="646.29" y="230.648327" style="fill-opacity: 0; stroke: #000000"/>
     <use xlink:href="#m941b77eae7" x="646.29" y="234.140916" style="fill-opacity: 0; stroke: #000000"/>
     <use xlink:href="#m941b77eae7" x="646.29" y="238.942332" style="fill-opacity: 0; stroke: #000000"/>
     <use xlink:href="#m941b77eae7" x="646.29" y="227.083596" style="fill-opacity: 0; stroke: #000000"/>
     <use xlink:href="#m941b77eae7" x="646.29" y="212.178011" style="fill-opacity: 0; stroke: #000000"/>
     <use xlink:href="#m941b77eae7" x="646.29" y="227.236454" style="fill-opacity: 0; stroke: #000000"/>
     <use xlink:href="#m941b77eae7" x="646.29" y="209.653252" style="fill-opacity: 0; stroke: #000000"/>
     <use xlink:href="#m941b77eae7" x="646.29" y="210.246173" style="fill-opacity: 0; stroke: #000000"/>
     <use xlink:href="#m941b77eae7" x="646.29" y="206.708037" style="fill-opacity: 0; stroke: #000000"/>
     <use xlink:href="#m941b77eae7" x="646.29" y="226.767885" style="fill-opacity: 0; stroke: #000000"/>
     <use xlink:href="#m941b77eae7" x="646.29" y="173.829596" style="fill-opacity: 0; stroke: #000000"/>
     <use xlink:href="#m941b77eae7" x="646.29" y="191.186705" style="fill-opacity: 0; stroke: #000000"/>
     <use xlink:href="#m941b77eae7" x="646.29" y="160.910298" style="fill-opacity: 0; stroke: #000000"/>
     <use xlink:href="#m941b77eae7" x="646.29" y="226.245577" style="fill-opacity: 0; stroke: #000000"/>
    </g>
   </g>
   <g id="line2d_45">
    <path d="M 545.25 306.637865 
L 747.33 306.637865 
" clip-path="url(#pf3f77f2a5e)" style="fill: none; stroke-dasharray: 7.4,3.2; stroke-dashoffset: 0; stroke: #2980b9; stroke-width: 2"/>
   </g>
   <g id="line2d_46">
    <path d="M 595.77 292.074603 
L 696.81 292.074603 
" clip-path="url(#pf3f77f2a5e)" style="fill: none; stroke: #ffffff; stroke-width: 2"/>
   </g>
   <g id="patch_18">
    <path d="M 545.25 318.196094 
L 545.25 68.328359 
" style="fill: none; stroke: #000000; stroke-width: 0.8; stroke-linejoin: miter; stroke-linecap: square"/>
   </g>
   <g id="patch_19">
    <path d="M 747.33 318.196094 
L 747.33 68.328359 
" style="fill: none; stroke: #000000; stroke-width: 0.8; stroke-linejoin: miter; stroke-linecap: square"/>
   </g>
   <g id="patch_20">
    <path d="M 545.25 318.196094 
L 747.33 318.196094 
" style="fill: none; stroke: #000000; stroke-width: 0.8; stroke-linejoin: miter; stroke-linecap: square"/>
   </g>
   <g id="patch_21">
    <path d="M 545.25 68.328359 
L 747.33 68.328359 
" style="fill: none; stroke: #000000; stroke-width: 0.8; stroke-linejoin: miter; stroke-linecap: square"/>
   </g>
   <g id="text_29">
    <!-- TRPC1 -->
    <g transform="translate(624.600937 62.328359) scale(0.12 -0.12)">
     <use xlink:href="#DejaVuSans-Bold-37"/>
     <use xlink:href="#DejaVuSans-Bold-35" transform="translate(68.21875 0)"/>
     <use xlink:href="#DejaVuSans-Bold-33" transform="translate(145.21875 0)"/>
     <use xlink:href="#DejaVuSans-Bold-26" transform="translate(218.515625 0)"/>
     <use xlink:href="#DejaVuSans-Bold-14" transform="translate(291.90625 0)"/>
    </g>
   </g>
   <g id="legend_3">
    <g id="patch_22">
     <path d="M 645.04875 86.728984 
L 741.73 86.728984 
Q 743.33 86.728984 743.33 85.128984 
L 743.33 73.928359 
Q 743.33 72.328359 741.73 72.328359 
L 645.04875 72.328359 
Q 643.44875 72.328359 643.44875 73.928359 
L 643.44875 85.128984 
Q 643.44875 86.728984 645.04875 86.728984 
z
" style="fill: #ffffff; opacity: 0.8; stroke: #cccccc; stroke-linejoin: miter"/>
    </g>
    <g id="line2d_47">
     <path d="M 646.64875 78.807109 
L 654.64875 78.807109 
L 662.64875 78.807109 
" style="fill: none; stroke-dasharray: 7.4,3.2; stroke-dashoffset: 0; stroke: #2980b9; stroke-width: 2"/>
    </g>
    <g id="text_30">
     <!-- GTEx median: 0.4 -->
     <g transform="translate(669.04875 81.607109) scale(0.08 -0.08)">
      <use xlink:href="#DejaVuSans-2a"/>
      <use xlink:href="#DejaVuSans-37" transform="translate(73.921875 0)"/>
      <use xlink:href="#DejaVuSans-28" transform="translate(135 0)"/>
      <use xlink:href="#DejaVuSans-5b" transform="translate(198.1875 0)"/>
      <use xlink:href="#DejaVuSans-3" transform="translate(257.375 0)"/>
      <use xlink:href="#DejaVuSans-50" transform="translate(289.15625 0)"/>
      <use xlink:href="#DejaVuSans-48" transform="translate(386.5625 0)"/>
      <use xlink:href="#DejaVuSans-47" transform="translate(448.09375 0)"/>
      <use xlink:href="#DejaVuSans-4c" transform="translate(511.578125 0)"/>
      <use xlink:href="#DejaVuSans-44" transform="translate(539.359375 0)"/>
      <use xlink:href="#DejaVuSans-51" transform="translate(600.640625 0)"/>
      <use xlink:href="#DejaVuSans-1d" transform="translate(664.015625 0)"/>
      <use xlink:href="#DejaVuSans-3" transform="translate(697.703125 0)"/>
      <use xlink:href="#DejaVuSans-13" transform="translate(729.484375 0)"/>
      <use xlink:href="#DejaVuSans-11" transform="translate(793.109375 0)"/>
      <use xlink:href="#DejaVuSans-17" transform="translate(824.890625 0)"/>
     </g>
    </g>
   </g>
  </g>
  <g id="axes_4">
   <g id="patch_23">
    <path d="M 791.05 318.196094 
L 993.13 318.196094 
L 993.13 68.328359 
L 791.05 68.328359 
z
" style="fill: #ffffff"/>
   </g>
   <g id="matplotlib.axis_7">
    <g id="xtick_4">
     <g id="line2d_48">
      <g>
       <use xlink:href="#m0347a6937d" x="892.09" y="318.196094" style="stroke: #000000; stroke-width: 0.8"/>
      </g>
     </g>
     <g id="text_31">
      <!-- TCGA-LIHC -->
      <g transform="translate(865.336875 333.794727) scale(0.1 -0.1)">
       <use xlink:href="#DejaVuSans-37"/>
       <use xlink:href="#DejaVuSans-26" transform="translate(55.21875 0)"/>
       <use xlink:href="#DejaVuSans-2a" transform="translate(125.046875 0)"/>
       <use xlink:href="#DejaVuSans-24" transform="translate(202.53125 0)"/>
       <use xlink:href="#DejaVuSans-10" transform="translate(268.734375 0)"/>
       <use xlink:href="#DejaVuSans-2f" transform="translate(304.8125 0)"/>
       <use xlink:href="#DejaVuSans-2c" transform="translate(360.53125 0)"/>
       <use xlink:href="#DejaVuSans-2b" transform="translate(390.03125 0)"/>
       <use xlink:href="#DejaVuSans-26" transform="translate(465.234375 0)"/>
      </g>
      <!-- Tumour -->
      <g transform="translate(873.472812 345.79668) scale(0.1 -0.1)">
       <use xlink:href="#DejaVuSans-37"/>
       <use xlink:href="#DejaVuSans-58" transform="translate(45.890625 0)"/>
       <use xlink:href="#DejaVuSans-50" transform="translate(109.265625 0)"/>
       <use xlink:href="#DejaVuSans-52" transform="translate(206.671875 0)"/>
       <use xlink:href="#DejaVuSans-58" transform="translate(267.859375 0)"/>
       <use xlink:href="#DejaVuSans-55" transform="translate(331.234375 0)"/>
      </g>
     </g>
    </g>
   </g>
   <g id="matplotlib.axis_8">
    <g id="ytick_21">
     <g id="line2d_49">
      <g>
       <use xlink:href="#m5921f470b7" x="791.05" y="315.342956" style="stroke: #000000; stroke-width: 0.8"/>
      </g>
     </g>
     <g id="text_32">
      <!-- 0 -->
      <g transform="translate(777.6875 319.141785) scale(0.1 -0.1)">
       <use xlink:href="#DejaVuSans-13"/>
      </g>
     </g>
    </g>
    <g id="ytick_22">
     <g id="line2d_50">
      <g>
       <use xlink:href="#m5921f470b7" x="791.05" y="285.378799" style="stroke: #000000; stroke-width: 0.8"/>
      </g>
     </g>
     <g id="text_33">
      <!-- 250 -->
      <g transform="translate(764.9625 289.177627) scale(0.1 -0.1)">
       <use xlink:href="#DejaVuSans-15"/>
       <use xlink:href="#DejaVuSans-18" transform="translate(63.625 0)"/>
       <use xlink:href="#DejaVuSans-13" transform="translate(127.25 0)"/>
      </g>
     </g>
    </g>
    <g id="ytick_23">
     <g id="line2d_51">
      <g>
       <use xlink:href="#m5921f470b7" x="791.05" y="255.414642" style="stroke: #000000; stroke-width: 0.8"/>
      </g>
     </g>
     <g id="text_34">
      <!-- 500 -->
      <g transform="translate(764.9625 259.21347) scale(0.1 -0.1)">
       <use xlink:href="#DejaVuSans-18"/>
       <use xlink:href="#DejaVuSans-13" transform="translate(63.625 0)"/>
       <use xlink:href="#DejaVuSans-13" transform="translate(127.25 0)"/>
      </g>
     </g>
    </g>
    <g id="ytick_24">
     <g id="line2d_52">
      <g>
       <use xlink:href="#m5921f470b7" x="791.05" y="225.450485" style="stroke: #000000; stroke-width: 0.8"/>
      </g>
     </g>
     <g id="text_35">
      <!-- 750 -->
      <g transform="translate(764.9625 229.249313) scale(0.1 -0.1)">
       <use xlink:href="#DejaVuSans-1a"/>
       <use xlink:href="#DejaVuSans-18" transform="translate(63.625 0)"/>
       <use xlink:href="#DejaVuSans-13" transform="translate(127.25 0)"/>
      </g>
     </g>
    </g>
    <g id="ytick_25">
     <g id="line2d_53">
      <g>
       <use xlink:href="#m5921f470b7" x="791.05" y="195.486328" style="stroke: #000000; stroke-width: 0.8"/>
      </g>
     </g>
     <g id="text_36">
      <!-- 1000 -->
      <g transform="translate(758.6 199.285156) scale(0.1 -0.1)">
       <use xlink:href="#DejaVuSans-14"/>
       <use xlink:href="#DejaVuSans-13" transform="translate(63.625 0)"/>
       <use xlink:href="#DejaVuSans-13" transform="translate(127.25 0)"/>
       <use xlink:href="#DejaVuSans-13" transform="translate(190.875 0)"/>
      </g>
     </g>
    </g>
    <g id="ytick_26">
     <g id="line2d_54">
      <g>
       <use xlink:href="#m5921f470b7" x="791.05" y="165.522171" style="stroke: #000000; stroke-width: 0.8"/>
      </g>
     </g>
     <g id="text_37">
      <!-- 1250 -->
      <g transform="translate(758.6 169.320999) scale(0.1 -0.1)">
       <use xlink:href="#DejaVuSans-14"/>
       <use xlink:href="#DejaVuSans-15" transform="translate(63.625 0)"/>
       <use xlink:href="#DejaVuSans-18" transform="translate(127.25 0)"/>
       <use xlink:href="#DejaVuSans-13" transform="translate(190.875 0)"/>
      </g>
     </g>
    </g>
    <g id="ytick_27">
     <g id="line2d_55">
      <g>
       <use xlink:href="#m5921f470b7" x="791.05" y="135.558014" style="stroke: #000000; stroke-width: 0.8"/>
      </g>
     </g>
     <g id="text_38">
      <!-- 1500 -->
      <g transform="translate(758.6 139.356842) scale(0.1 -0.1)">
       <use xlink:href="#DejaVuSans-14"/>
       <use xlink:href="#DejaVuSans-18" transform="translate(63.625 0)"/>
       <use xlink:href="#DejaVuSans-13" transform="translate(127.25 0)"/>
       <use xlink:href="#DejaVuSans-13" transform="translate(190.875 0)"/>
      </g>
     </g>
    </g>
    <g id="ytick_28">
     <g id="line2d_56">
      <g>
       <use xlink:href="#m5921f470b7" x="791.05" y="105.593857" style="stroke: #000000; stroke-width: 0.8"/>
      </g>
     </g>
     <g id="text_39">
      <!-- 1750 -->
      <g transform="translate(758.6 109.392685) scale(0.1 -0.1)">
       <use xlink:href="#DejaVuSans-14"/>
       <use xlink:href="#DejaVuSans-1a" transform="translate(63.625 0)"/>
       <use xlink:href="#DejaVuSans-18" transform="translate(127.25 0)"/>
       <use xlink:href="#DejaVuSans-13" transform="translate(190.875 0)"/>
      </g>
     </g>
    </g>
    <g id="ytick_29">
     <g id="line2d_57">
      <g>
       <use xlink:href="#m5921f470b7" x="791.05" y="75.6297" style="stroke: #000000; stroke-width: 0.8"/>
      </g>
     </g>
     <g id="text_40">
      <!-- 2000 -->
      <g transform="translate(758.6 79.428528) scale(0.1 -0.1)">
       <use xlink:href="#DejaVuSans-15"/>
       <use xlink:href="#DejaVuSans-13" transform="translate(63.625 0)"/>
       <use xlink:href="#DejaVuSans-13" transform="translate(127.25 0)"/>
       <use xlink:href="#DejaVuSans-13" transform="translate(190.875 0)"/>
      </g>
     </g>
    </g>
   </g>
   <g id="patch_24">
    <path d="M 841.57 270.6847 
L 942.61 270.6847 
L 942.61 232.70271 
L 841.57 232.70271 
L 841.57 270.6847 
z
" clip-path="url(#pc287eff44e)" style="fill: #c0392b; opacity: 0.7; stroke: #000000; stroke-linejoin: miter"/>
   </g>
   <g id="line2d_58">
    <path d="M 892.09 270.6847 
L 892.09 306.838469 
" clip-path="url(#pc287eff44e)" style="fill: none; stroke: #000000; stroke-linecap: square"/>
   </g>
   <g id="line2d_59">
    <path d="M 892.09 232.70271 
L 892.09 176.11021 
" clip-path="url(#pc287eff44e)" style="fill: none; stroke: #000000; stroke-linecap: square"/>
   </g>
   <g id="line2d_60">
    <path d="M 866.83 306.838469 
L 917.35 306.838469 
" clip-path="url(#pc287eff44e)" style="fill: none; stroke: #000000; stroke-linecap: square"/>
   </g>
   <g id="line2d_61">
    <path d="M 866.83 176.11021 
L 917.35 176.11021 
" clip-path="url(#pc287eff44e)" style="fill: none; stroke: #000000; stroke-linecap: square"/>
   </g>
   <g id="line2d_62">
    <g clip-path="url(#pc287eff44e)">
     <use xlink:href="#m941b77eae7" x="892.09" y="172.429772" style="fill-opacity: 0; stroke: #000000"/>
     <use xlink:href="#m941b77eae7" x="892.09" y="164.307112" style="fill-opacity: 0; stroke: #000000"/>
     <use xlink:href="#m941b77eae7" x="892.09" y="105.213264" style="fill-opacity: 0; stroke: #000000"/>
     <use xlink:href="#m941b77eae7" x="892.09" y="160.909513" style="fill-opacity: 0; stroke: #000000"/>
     <use xlink:href="#m941b77eae7" x="892.09" y="82.817214" style="fill-opacity: 0; stroke: #000000"/>
     <use xlink:href="#m941b77eae7" x="892.09" y="136.644538" style="fill-opacity: 0; stroke: #000000"/>
     <use xlink:href="#m941b77eae7" x="892.09" y="113.42143" style="fill-opacity: 0; stroke: #000000"/>
     <use xlink:href="#m941b77eae7" x="892.09" y="173.354178" style="fill-opacity: 0; stroke: #000000"/>
     <use xlink:href="#m941b77eae7" x="892.09" y="175.213838" style="fill-opacity: 0; stroke: #000000"/>
     <use xlink:href="#m941b77eae7" x="892.09" y="87.371826" style="fill-opacity: 0; stroke: #000000"/>
     <use xlink:href="#m941b77eae7" x="892.09" y="167.2037" style="fill-opacity: 0; stroke: #000000"/>
     <use xlink:href="#m941b77eae7" x="892.09" y="79.685984" style="fill-opacity: 0; stroke: #000000"/>
     <use xlink:href="#m941b77eae7" x="892.09" y="174.360519" style="fill-opacity: 0; stroke: #000000"/>
     <use xlink:href="#m941b77eae7" x="892.09" y="172.553129" style="fill-opacity: 0; stroke: #000000"/>
     <use xlink:href="#m941b77eae7" x="892.09" y="158.431836" style="fill-opacity: 0; stroke: #000000"/>
     <use xlink:href="#m941b77eae7" x="892.09" y="175.082319" style="fill-opacity: 0; stroke: #000000"/>
     <use xlink:href="#m941b77eae7" x="892.09" y="161.787031" style="fill-opacity: 0; stroke: #000000"/>
     <use xlink:href="#m941b77eae7" x="892.09" y="175.369879" style="fill-opacity: 0; stroke: #000000"/>
     <use xlink:href="#m941b77eae7" x="892.09" y="173.61018" style="fill-opacity: 0; stroke: #000000"/>
    </g>
   </g>
   <g id="line2d_63">
    <path d="M 791.05 314.330916 
L 993.13 314.330916 
" clip-path="url(#pc287eff44e)" style="fill: none; stroke-dasharray: 7.4,3.2; stroke-dashoffset: 0; stroke: #2980b9; stroke-width: 2"/>
   </g>
   <g id="line2d_64">
    <path d="M 841.57 254.390575 
L 942.61 254.390575 
" clip-path="url(#pc287eff44e)" style="fill: none; stroke: #ffffff; stroke-width: 2"/>
   </g>
   <g id="patch_25">
    <path d="M 791.05 318.196094 
L 791.05 68.328359 
" style="fill: none; stroke: #000000; stroke-width: 0.8; stroke-linejoin: miter; stroke-linecap: square"/>
   </g>
   <g id="patch_26">
    <path d="M 993.13 318.196094 
L 993.13 68.328359 
" style="fill: none; stroke: #000000; stroke-width: 0.8; stroke-linejoin: miter; stroke-linecap: square"/>
   </g>
   <g id="patch_27">
    <path d="M 791.05 318.196094 
L 993.13 318.196094 
" style="fill: none; stroke: #000000; stroke-width: 0.8; stroke-linejoin: miter; stroke-linecap: square"/>
   </g>
   <g id="patch_28">
    <path d="M 791.05 68.328359 
L 993.13 68.328359 
" style="fill: none; stroke: #000000; stroke-width: 0.8; stroke-linejoin: miter; stroke-linecap: square"/>
   </g>
   <g id="text_41">
    <!-- ORAI1 -->
    <g transform="translate(871.31875 62.328359) scale(0.12 -0.12)">
     <defs>
      <path id="DejaVuSans-Bold-32" d="M 2719 3878 
Q 2169 3878 1866 3472 
Q 1563 3066 1563 2328 
Q 1563 1594 1866 1187 
Q 2169 781 2719 781 
Q 3272 781 3575 1187 
Q 3878 1594 3878 2328 
Q 3878 3066 3575 3472 
Q 3272 3878 2719 3878 
z
M 2719 4750 
Q 3844 4750 4481 4106 
Q 5119 3463 5119 2328 
Q 5119 1197 4481 553 
Q 3844 -91 2719 -91 
Q 1597 -91 958 553 
Q 319 1197 319 2328 
Q 319 3463 958 4106 
Q 1597 4750 2719 4750 
z
" transform="scale(0.015625)"/>
      <path id="DejaVuSans-Bold-24" d="M 3419 850 
L 1538 850 
L 1241 0 
L 31 0 
L 1759 4666 
L 3194 4666 
L 4922 0 
L 3713 0 
L 3419 850 
z
M 1838 1716 
L 3116 1716 
L 2478 3572 
L 1838 1716 
z
" transform="scale(0.015625)"/>
     </defs>
     <use xlink:href="#DejaVuSans-Bold-32"/>
     <use xlink:href="#DejaVuSans-Bold-35" transform="translate(85.015625 0)"/>
     <use xlink:href="#DejaVuSans-Bold-24" transform="translate(162.015625 0)"/>
     <use xlink:href="#DejaVuSans-Bold-2c" transform="translate(239.40625 0)"/>
     <use xlink:href="#DejaVuSans-Bold-14" transform="translate(276.609375 0)"/>
    </g>
   </g>
   <g id="legend_4">
    <g id="patch_29">
     <path d="M 890.84875 200.462539 
L 987.53 200.462539 
Q 989.13 200.462539 989.13 198.862539 
L 989.13 187.661914 
Q 989.13 186.061914 987.53 186.061914 
L 890.84875 186.061914 
Q 889.24875 186.061914 889.24875 187.661914 
L 889.24875 198.862539 
Q 889.24875 200.462539 890.84875 200.462539 
z
" style="fill: #ffffff; opacity: 0.8; stroke: #cccccc; stroke-linejoin: miter"/>
    </g>
    <g id="line2d_65">
     <path d="M 892.44875 192.540664 
L 900.44875 192.540664 
L 908.44875 192.540664 
" style="fill: none; stroke-dasharray: 7.4,3.2; stroke-dashoffset: 0; stroke: #2980b9; stroke-width: 2"/>
    </g>
    <g id="text_42">
     <!-- GTEx median: 8.4 -->
     <g transform="translate(914.84875 195.340664) scale(0.08 -0.08)">
      <use xlink:href="#DejaVuSans-2a"/>
      <use xlink:href="#DejaVuSans-37" transform="translate(73.921875 0)"/>
      <use xlink:href="#DejaVuSans-28" transform="translate(135 0)"/>
      <use xlink:href="#DejaVuSans-5b" transform="translate(198.1875 0)"/>
      <use xlink:href="#DejaVuSans-3" transform="translate(257.375 0)"/>
      <use xlink:href="#DejaVuSans-50" transform="translate(289.15625 0)"/>
      <use xlink:href="#DejaVuSans-48" transform="translate(386.5625 0)"/>
      <use xlink:href="#DejaVuSans-47" transform="translate(448.09375 0)"/>
      <use xlink:href="#DejaVuSans-4c" transform="translate(511.578125 0)"/>
      <use xlink:href="#DejaVuSans-44" transform="translate(539.359375 0)"/>
      <use xlink:href="#DejaVuSans-51" transform="translate(600.640625 0)"/>
      <use xlink:href="#DejaVuSans-1d" transform="translate(664.015625 0)"/>
      <use xlink:href="#DejaVuSans-3" transform="translate(697.703125 0)"/>
      <use xlink:href="#DejaVuSans-1b" transform="translate(729.484375 0)"/>
      <use xlink:href="#DejaVuSans-11" transform="translate(793.109375 0)"/>
      <use xlink:href="#DejaVuSans-17" transform="translate(824.890625 0)"/>
     </g>
    </g>
   </g>
  </g>
  <g id="text_43">
   <!-- SOCE Components: Tumour vs. Normal Expression -->
   <g transform="translate(316.383203 18.379238) scale(0.13 -0.13)">
    <defs>
     <path id="DejaVuSans-Bold-28" d="M 588 4666 
L 3834 4666 
L 3834 3756 
L 1791 3756 
L 1791 2888 
L 3713 2888 
L 3713 1978 
L 1791 1978 
L 1791 909 
L 3903 909 
L 3903 0 
L 588 0 
L 588 4666 
z
" transform="scale(0.015625)"/>
     <path id="DejaVuSans-Bold-3" transform="scale(0.015625)"/>
     <path id="DejaVuSans-Bold-52" d="M 2203 2784 
Q 1831 2784 1636 2517 
Q 1441 2250 1441 1747 
Q 1441 1244 1636 976 
Q 1831 709 2203 709 
Q 2569 709 2762 976 
Q 2956 1244 2956 1747 
Q 2956 2250 2762 2517 
Q 2569 2784 2203 2784 
z
M 2203 3584 
Q 3106 3584 3614 3096 
Q 4122 2609 4122 1747 
Q 4122 884 3614 396 
Q 3106 -91 2203 -91 
Q 1297 -91 786 396 
Q 275 884 275 1747 
Q 275 2609 786 3096 
Q 1297 3584 2203 3584 
z
" transform="scale(0.015625)"/>
     <path id="DejaVuSans-Bold-50" d="M 3781 2919 
Q 3994 3244 4286 3414 
Q 4578 3584 4928 3584 
Q 5531 3584 5847 3212 
Q 6163 2841 6163 2131 
L 6163 0 
L 5038 0 
L 5038 1825 
Q 5041 1866 5042 1909 
Q 5044 1953 5044 2034 
Q 5044 2406 4934 2573 
Q 4825 2741 4581 2741 
Q 4263 2741 4089 2478 
Q 3916 2216 3909 1719 
L 3909 0 
L 2784 0 
L 2784 1825 
Q 2784 2406 2684 2573 
Q 2584 2741 2328 2741 
Q 2006 2741 1831 2477 
Q 1656 2213 1656 1722 
L 1656 0 
L 531 0 
L 531 3500 
L 1656 3500 
L 1656 2988 
Q 1863 3284 2130 3434 
Q 2397 3584 2719 3584 
Q 3081 3584 3359 3409 
Q 3638 3234 3781 2919 
z
" transform="scale(0.015625)"/>
     <path id="DejaVuSans-Bold-53" d="M 1656 506 
L 1656 -1331 
L 538 -1331 
L 538 3500 
L 1656 3500 
L 1656 2988 
Q 1888 3294 2169 3439 
Q 2450 3584 2816 3584 
Q 3463 3584 3878 3070 
Q 4294 2556 4294 1747 
Q 4294 938 3878 423 
Q 3463 -91 2816 -91 
Q 2450 -91 2169 54 
Q 1888 200 1656 506 
z
M 2400 2772 
Q 2041 2772 1848 2508 
Q 1656 2244 1656 1747 
Q 1656 1250 1848 986 
Q 2041 722 2400 722 
Q 2759 722 2948 984 
Q 3138 1247 3138 1747 
Q 3138 2247 2948 2509 
Q 2759 2772 2400 2772 
z
" transform="scale(0.015625)"/>
     <path id="DejaVuSans-Bold-51" d="M 4056 2131 
L 4056 0 
L 2931 0 
L 2931 347 
L 2931 1631 
Q 2931 2084 2911 2256 
Q 2891 2428 2841 2509 
Q 2775 2619 2662 2680 
Q 2550 2741 2406 2741 
Q 2056 2741 1856 2470 
Q 1656 2200 1656 1722 
L 1656 0 
L 538 0 
L 538 3500 
L 1656 3500 
L 1656 2988 
Q 1909 3294 2193 3439 
Q 2478 3584 2822 3584 
Q 3428 3584 3742 3212 
Q 4056 2841 4056 2131 
z
" transform="scale(0.015625)"/>
     <path id="DejaVuSans-Bold-48" d="M 4031 1759 
L 4031 1441 
L 1416 1441 
Q 1456 1047 1700 850 
Q 1944 653 2381 653 
Q 2734 653 3104 758 
Q 3475 863 3866 1075 
L 3866 213 
Q 3469 63 3072 -14 
Q 2675 -91 2278 -91 
Q 1328 -91 801 392 
Q 275 875 275 1747 
Q 275 2603 792 3093 
Q 1309 3584 2216 3584 
Q 3041 3584 3536 3087 
Q 4031 2591 4031 1759 
z
M 2881 2131 
Q 2881 2450 2695 2645 
Q 2509 2841 2209 2841 
Q 1884 2841 1681 2658 
Q 1478 2475 1428 2131 
L 2881 2131 
z
" transform="scale(0.015625)"/>
     <path id="DejaVuSans-Bold-57" d="M 1759 4494 
L 1759 3500 
L 2913 3500 
L 2913 2700 
L 1759 2700 
L 1759 1216 
Q 1759 972 1856 886 
Q 1953 800 2241 800 
L 2816 800 
L 2816 0 
L 1856 0 
Q 1194 0 917 276 
Q 641 553 641 1216 
L 641 2700 
L 84 2700 
L 84 3500 
L 641 3500 
L 641 4494 
L 1759 4494 
z
" transform="scale(0.015625)"/>
     <path id="DejaVuSans-Bold-56" d="M 3272 3391 
L 3272 2541 
Q 2913 2691 2578 2766 
Q 2244 2841 1947 2841 
Q 1628 2841 1473 2761 
Q 1319 2681 1319 2516 
Q 1319 2381 1436 2309 
Q 1553 2238 1856 2203 
L 2053 2175 
Q 2913 2066 3209 1816 
Q 3506 1566 3506 1031 
Q 3506 472 3093 190 
Q 2681 -91 1863 -91 
Q 1516 -91 1145 -36 
Q 775 19 384 128 
L 384 978 
Q 719 816 1070 734 
Q 1422 653 1784 653 
Q 2113 653 2278 743 
Q 2444 834 2444 1013 
Q 2444 1163 2330 1236 
Q 2216 1309 1875 1350 
L 1678 1375 
Q 931 1469 631 1722 
Q 331 1975 331 2491 
Q 331 3047 712 3315 
Q 1094 3584 1881 3584 
Q 2191 3584 2531 3537 
Q 2872 3491 3272 3391 
z
" transform="scale(0.015625)"/>
     <path id="DejaVuSans-Bold-1d" d="M 716 3500 
L 1844 3500 
L 1844 2291 
L 716 2291 
L 716 3500 
z
M 716 1209 
L 1844 1209 
L 1844 0 
L 716 0 
L 716 1209 
z
" transform="scale(0.015625)"/>
     <path id="DejaVuSans-Bold-58" d="M 500 1363 
L 500 3500 
L 1625 3500 
L 1625 3150 
Q 1625 2866 1622 2436 
Q 1619 2006 1619 1863 
Q 1619 1441 1641 1255 
Q 1663 1069 1716 984 
Q 1784 875 1895 815 
Q 2006 756 2150 756 
Q 2500 756 2700 1025 
Q 2900 1294 2900 1772 
L 2900 3500 
L 4019 3500 
L 4019 0 
L 2900 0 
L 2900 506 
Q 2647 200 2364 54 
Q 2081 -91 1741 -91 
Q 1134 -91 817 281 
Q 500 653 500 1363 
z
" transform="scale(0.015625)"/>
     <path id="DejaVuSans-Bold-55" d="M 3138 2547 
Q 2991 2616 2845 2648 
Q 2700 2681 2553 2681 
Q 2122 2681 1889 2404 
Q 1656 2128 1656 1613 
L 1656 0 
L 538 0 
L 538 3500 
L 1656 3500 
L 1656 2925 
Q 1872 3269 2151 3426 
Q 2431 3584 2822 3584 
Q 2878 3584 2943 3579 
Q 3009 3575 3134 3559 
L 3138 2547 
z
" transform="scale(0.015625)"/>
     <path id="DejaVuSans-Bold-59" d="M 97 3500 
L 1216 3500 
L 2088 1081 
L 2956 3500 
L 4078 3500 
L 2700 0 
L 1472 0 
L 97 3500 
z
" transform="scale(0.015625)"/>
     <path id="DejaVuSans-Bold-11" d="M 653 1209 
L 1778 1209 
L 1778 0 
L 653 0 
L 653 1209 
z
" transform="scale(0.015625)"/>
     <path id="DejaVuSans-Bold-31" d="M 588 4666 
L 1931 4666 
L 3628 1466 
L 3628 4666 
L 4769 4666 
L 4769 0 
L 3425 0 
L 1728 3200 
L 1728 0 
L 588 0 
L 588 4666 
z
" transform="scale(0.015625)"/>
     <path id="DejaVuSans-Bold-44" d="M 2106 1575 
Q 1756 1575 1579 1456 
Q 1403 1338 1403 1106 
Q 1403 894 1545 773 
Q 1688 653 1941 653 
Q 2256 653 2472 879 
Q 2688 1106 2688 1447 
L 2688 1575 
L 2106 1575 
z
M 3816 1997 
L 3816 0 
L 2688 0 
L 2688 519 
Q 2463 200 2181 54 
Q 1900 -91 1497 -91 
Q 953 -91 614 226 
Q 275 544 275 1050 
Q 275 1666 698 1953 
Q 1122 2241 2028 2241 
L 2688 2241 
L 2688 2328 
Q 2688 2594 2478 2717 
Q 2269 2841 1825 2841 
Q 1466 2841 1156 2769 
Q 847 2697 581 2553 
L 581 3406 
Q 941 3494 1303 3539 
Q 1666 3584 2028 3584 
Q 2975 3584 3395 3211 
Q 3816 2838 3816 1997 
z
" transform="scale(0.015625)"/>
     <path id="DejaVuSans-Bold-4f" d="M 538 4863 
L 1656 4863 
L 1656 0 
L 538 0 
L 538 4863 
z
" transform="scale(0.015625)"/>
     <path id="DejaVuSans-Bold-5b" d="M 1422 1791 
L 159 3500 
L 1344 3500 
L 2059 2463 
L 2784 3500 
L 3969 3500 
L 2706 1797 
L 4031 0 
L 2847 0 
L 2059 1106 
L 1281 0 
L 97 0 
L 1422 1791 
z
" transform="scale(0.015625)"/>
     <path id="DejaVuSans-Bold-4c" d="M 538 3500 
L 1656 3500 
L 1656 0 
L 538 0 
L 538 3500 
z
M 538 4863 
L 1656 4863 
L 1656 3950 
L 538 3950 
L 538 4863 
z
" transform="scale(0.015625)"/>
    </defs>
    <use xlink:href="#DejaVuSans-Bold-36"/>
    <use xlink:href="#DejaVuSans-Bold-32" transform="translate(72.015625 0)"/>
    <use xlink:href="#DejaVuSans-Bold-26" transform="translate(157.03125 0)"/>
    <use xlink:href="#DejaVuSans-Bold-28" transform="translate(230.421875 0)"/>
    <use xlink:href="#DejaVuSans-Bold-3" transform="translate(298.734375 0)"/>
    <use xlink:href="#DejaVuSans-Bold-26" transform="translate(333.546875 0)"/>
    <use xlink:href="#DejaVuSans-Bold-52" transform="translate(406.9375 0)"/>
    <use xlink:href="#DejaVuSans-Bold-50" transform="translate(475.640625 0)"/>
    <use xlink:href="#DejaVuSans-Bold-53" transform="translate(579.84375 0)"/>
    <use xlink:href="#DejaVuSans-Bold-52" transform="translate(651.421875 0)"/>
    <use xlink:href="#DejaVuSans-Bold-51" transform="translate(720.125 0)"/>
    <use xlink:href="#DejaVuSans-Bold-48" transform="translate(791.3125 0)"/>
    <use xlink:href="#DejaVuSans-Bold-51" transform="translate(859.140625 0)"/>
    <use xlink:href="#DejaVuSans-Bold-57" transform="translate(930.328125 0)"/>
    <use xlink:href="#DejaVuSans-Bold-56" transform="translate(978.125 0)"/>
    <use xlink:href="#DejaVuSans-Bold-1d" transform="translate(1037.640625 0)"/>
    <use xlink:href="#DejaVuSans-Bold-3" transform="translate(1077.625 0)"/>
    <use xlink:href="#DejaVuSans-Bold-37" transform="translate(1112.4375 0)"/>
    <use xlink:href="#DejaVuSans-Bold-58" transform="translate(1169.671875 0)"/>
    <use xlink:href="#DejaVuSans-Bold-50" transform="translate(1240.859375 0)"/>
    <use xlink:href="#DejaVuSans-Bold-52" transform="translate(1345.0625 0)"/>
    <use xlink:href="#DejaVuSans-Bold-58" transform="translate(1413.765625 0)"/>
    <use xlink:href="#DejaVuSans-Bold-55" transform="translate(1484.953125 0)"/>
    <use xlink:href="#DejaVuSans-Bold-3" transform="translate(1534.265625 0)"/>
    <use xlink:href="#DejaVuSans-Bold-59" transform="translate(1569.078125 0)"/>
    <use xlink:href="#DejaVuSans-Bold-56" transform="translate(1634.265625 0)"/>
    <use xlink:href="#DejaVuSans-Bold-11" transform="translate(1693.78125 0)"/>
    <use xlink:href="#DejaVuSans-Bold-3" transform="translate(1731.765625 0)"/>
    <use xlink:href="#DejaVuSans-Bold-31" transform="translate(1766.578125 0)"/>
    <use xlink:href="#DejaVuSans-Bold-52" transform="translate(1850.265625 0)"/>
    <use xlink:href="#DejaVuSans-Bold-55" transform="translate(1918.96875 0)"/>
    <use xlink:href="#DejaVuSans-Bold-50" transform="translate(1968.28125 0)"/>
    <use xlink:href="#DejaVuSans-Bold-44" transform="translate(2072.484375 0)"/>
    <use xlink:href="#DejaVuSans-Bold-4f" transform="translate(2139.96875 0)"/>
    <use xlink:href="#DejaVuSans-Bold-3" transform="translate(2174.25 0)"/>
    <use xlink:href="#DejaVuSans-Bold-28" transform="translate(2209.0625 0)"/>
    <use xlink:href="#DejaVuSans-Bold-5b" transform="translate(2277.375 0)"/>
    <use xlink:href="#DejaVuSans-Bold-53" transform="translate(2341.875 0)"/>
    <use xlink:href="#DejaVuSans-Bold-55" transform="translate(2413.453125 0)"/>
    <use xlink:href="#DejaVuSans-Bold-48" transform="translate(2462.765625 0)"/>
    <use xlink:href="#DejaVuSans-Bold-56" transform="translate(2530.59375 0)"/>
    <use xlink:href="#DejaVuSans-Bold-56" transform="translate(2590.109375 0)"/>
    <use xlink:href="#DejaVuSans-Bold-4c" transform="translate(2649.625 0)"/>
    <use xlink:href="#DejaVuSans-Bold-52" transform="translate(2683.90625 0)"/>
    <use xlink:href="#DejaVuSans-Bold-51" transform="translate(2752.609375 0)"/>
   </g>
   <!-- (TCGA-LIHC vs. GTEx Liver v8) -->
   <g transform="translate(390.055625 33.982793) scale(0.13 -0.13)">
    <defs>
     <path id="DejaVuSans-Bold-b" d="M 2413 -844 
L 1484 -844 
Q 1006 -72 778 623 
Q 550 1319 550 2003 
Q 550 2688 779 3389 
Q 1009 4091 1484 4856 
L 2413 4856 
Q 2013 4116 1813 3408 
Q 1613 2700 1613 2009 
Q 1613 1319 1811 609 
Q 2009 -100 2413 -844 
z
" transform="scale(0.015625)"/>
     <path id="DejaVuSans-Bold-2a" d="M 4781 347 
Q 4331 128 3847 18 
Q 3363 -91 2847 -91 
Q 1681 -91 1000 561 
Q 319 1213 319 2328 
Q 319 3456 1012 4103 
Q 1706 4750 2913 4750 
Q 3378 4750 3804 4662 
Q 4231 4575 4609 4403 
L 4609 3438 
Q 4219 3659 3833 3768 
Q 3447 3878 3059 3878 
Q 2341 3878 1952 3476 
Q 1563 3075 1563 2328 
Q 1563 1588 1938 1184 
Q 2313 781 3003 781 
Q 3191 781 3352 804 
Q 3513 828 3641 878 
L 3641 1784 
L 2906 1784 
L 2906 2591 
L 4781 2591 
L 4781 347 
z
" transform="scale(0.015625)"/>
     <path id="DejaVuSans-Bold-10" d="M 347 2297 
L 2309 2297 
L 2309 1388 
L 347 1388 
L 347 2297 
z
" transform="scale(0.015625)"/>
     <path id="DejaVuSans-Bold-2f" d="M 588 4666 
L 1791 4666 
L 1791 909 
L 3903 909 
L 3903 0 
L 588 0 
L 588 4666 
z
" transform="scale(0.015625)"/>
     <path id="DejaVuSans-Bold-2b" d="M 588 4666 
L 1791 4666 
L 1791 2888 
L 3566 2888 
L 3566 4666 
L 4769 4666 
L 4769 0 
L 3566 0 
L 3566 1978 
L 1791 1978 
L 1791 0 
L 588 0 
L 588 4666 
z
" transform="scale(0.015625)"/>
     <path id="DejaVuSans-Bold-1b" d="M 2228 2088 
Q 1891 2088 1709 1903 
Q 1528 1719 1528 1375 
Q 1528 1031 1709 848 
Q 1891 666 2228 666 
Q 2563 666 2741 848 
Q 2919 1031 2919 1375 
Q 2919 1722 2741 1905 
Q 2563 2088 2228 2088 
z
M 1350 2484 
Q 925 2613 709 2878 
Q 494 3144 494 3541 
Q 494 4131 934 4440 
Q 1375 4750 2228 4750 
Q 3075 4750 3515 4442 
Q 3956 4134 3956 3541 
Q 3956 3144 3739 2878 
Q 3522 2613 3097 2484 
Q 3572 2353 3814 2058 
Q 4056 1763 4056 1313 
Q 4056 619 3595 264 
Q 3134 -91 2228 -91 
Q 1319 -91 855 264 
Q 391 619 391 1313 
Q 391 1763 633 2058 
Q 875 2353 1350 2484 
z
M 1631 3419 
Q 1631 3141 1786 2991 
Q 1941 2841 2228 2841 
Q 2509 2841 2662 2991 
Q 2816 3141 2816 3419 
Q 2816 3697 2662 3845 
Q 2509 3994 2228 3994 
Q 1941 3994 1786 3844 
Q 1631 3694 1631 3419 
z
" transform="scale(0.015625)"/>
     <path id="DejaVuSans-Bold-c" d="M 513 -844 
Q 913 -100 1113 609 
Q 1313 1319 1313 2009 
Q 1313 2700 1113 3408 
Q 913 4116 513 4856 
L 1441 4856 
Q 1916 4091 2145 3389 
Q 2375 2688 2375 2003 
Q 2375 1319 2147 623 
Q 1919 -72 1441 -844 
L 513 -844 
z
" transform="scale(0.015625)"/>
    </defs>
    <use xlink:href="#DejaVuSans-Bold-b"/>
    <use xlink:href="#DejaVuSans-Bold-37" transform="translate(45.703125 0)"/>
    <use xlink:href="#DejaVuSans-Bold-26" transform="translate(113.921875 0)"/>
    <use xlink:href="#DejaVuSans-Bold-2a" transform="translate(187.3125 0)"/>
    <use xlink:href="#DejaVuSans-Bold-24" transform="translate(269.390625 0)"/>
    <use xlink:href="#DejaVuSans-Bold-10" transform="translate(346.78125 0)"/>
    <use xlink:href="#DejaVuSans-Bold-2f" transform="translate(388.28125 0)"/>
    <use xlink:href="#DejaVuSans-Bold-2c" transform="translate(452 0)"/>
    <use xlink:href="#DejaVuSans-Bold-2b" transform="translate(489.203125 0)"/>
    <use xlink:href="#DejaVuSans-Bold-26" transform="translate(572.890625 0)"/>
    <use xlink:href="#DejaVuSans-Bold-3" transform="translate(646.28125 0)"/>
    <use xlink:href="#DejaVuSans-Bold-59" transform="translate(681.09375 0)"/>
    <use xlink:href="#DejaVuSans-Bold-56" transform="translate(746.28125 0)"/>
    <use xlink:href="#DejaVuSans-Bold-11" transform="translate(805.796875 0)"/>
    <use xlink:href="#DejaVuSans-Bold-3" transform="translate(843.78125 0)"/>
    <use xlink:href="#DejaVuSans-Bold-2a" transform="translate(878.59375 0)"/>
    <use xlink:href="#DejaVuSans-Bold-37" transform="translate(958.921875 0)"/>
    <use xlink:href="#DejaVuSans-Bold-28" transform="translate(1027.140625 0)"/>
    <use xlink:href="#DejaVuSans-Bold-5b" transform="translate(1095.453125 0)"/>
    <use xlink:href="#DejaVuSans-Bold-3" transform="translate(1159.953125 0)"/>
    <use xlink:href="#DejaVuSans-Bold-2f" transform="translate(1194.765625 0)"/>
    <use xlink:href="#DejaVuSans-Bold-4c" transform="translate(1258.484375 0)"/>
    <use xlink:href="#DejaVuSans-Bold-59" transform="translate(1292.765625 0)"/>
    <use xlink:href="#DejaVuSans-Bold-48" transform="translate(1357.953125 0)"/>
    <use xlink:href="#DejaVuSans-Bold-55" transform="translate(1425.78125 0)"/>
    <use xlink:href="#DejaVuSans-Bold-3" transform="translate(1475.09375 0)"/>
    <use xlink:href="#DejaVuSans-Bold-59" transform="translate(1509.90625 0)"/>
    <use xlink:href="#DejaVuSans-Bold-1b" transform="translate(1575.09375 0)"/>
    <use xlink:href="#DejaVuSans-Bold-c" transform="translate(1644.671875 0)"/>
   </g>
  </g>
 </g>
 <defs>
  <clipPath id="p1c106165ca">
   <rect x="53.65" y="68.328359" width="202.08" height="249.867734"/>
  </clipPath>
  <clipPath id="p9824cacb0e">
   <rect x="299.45" y="68.328359" width="202.08" height="249.867734"/>
  </clipPath>
  <clipPath id="pf3f77f2a5e">
   <rect x="545.25" y="68.328359" width="202.08" height="249.867734"/>
  </clipPath>
  <clipPath id="pc287eff44e">
   <rect x="791.05" y="68.328359" width="202.08" height="249.867734"/>
  </clipPath>
 </defs>
</svg>
