<?xml version="1.0" encoding="utf-8" standalone="no"?>
<!DOCTYPE svg PUBLIC "-//W3C//DTD SVG 1.1//EN"
  "http://www.w3.org/Graphics/SVG/1.1/DTD/svg11.dtd">
<svg xmlns:xlink="http://www.w3.org/1999/xlink" width="496.863984pt" height="352.801719pt" viewBox="0 0 496.863984 352.801719" xmlns="http://www.w3.org/2000/svg" version="1.1">
 <metadata>
  <rdf:RDF xmlns:dc="http://purl.org/dc/elements/1.1/" xmlns:cc="http://creativecommons.org/ns#" xmlns:rdf="http://www.w3.org/1999/02/22-rdf-syntax-ns#">
   <cc:Work>
    <dc:type rdf:resource="http://purl.org/dc/dcmitype/StillImage"/>
    <dc:date>2026-07-04T18:37:32.438438</dc:date>
    <dc:format>image/svg+xml</dc:format>
    <dc:creator>
     <cc:Agent>
      <dc:title>Matplotlib v3.11.0, https://matplotlib.org/</dc:title>
     </cc:Agent>
    </dc:creator>
   </cc:Work>
  </rdf:RDF>
 </metadata>
 <defs>
  <style type="text/css">*{stroke-linejoin: round; stroke-linecap: butt}</style>
 </defs>
 <g id="figure_1">
  <g id="patch_1">
   <path d="M 0 352.801719 
L 496.863984 352.801719 
L 496.863984 0 
L 0 0 
z
" style="fill: #ffffff"/>
  </g>
  <g id="axes_1">
   <g id="patch_2">
    <path d="M 45.103984 313.600859 
L 489.663984 313.600859 
L 489.663984 35.861504 
L 45.103984 35.861504 
z
" style="fill: #ffffff"/>
   </g>
   <g id="FillBetweenPolyCollection_1">
    <defs>
     <path id="m53a3e0b58b" d="M 65.311257 -303.714531 
L 65.311257 -303.714531 
L 65.971086 -303.714531 
L 65.971086 -303.714531 
L 66.301001 -303.714531 
L 66.301001 -303.714531 
L 66.410973 -303.714531 
L 66.410973 -303.714531 
L 67.730631 -303.714531 
L 67.730631 -303.714531 
L 68.610404 -303.714531 
L 68.610404 -303.714531 
L 69.05029 -303.714531 
L 69.05029 -276.145245 
L 71.469664 -276.145245 
L 71.469664 -272.64073 
L 73.99901 -272.64073 
L 73.99901 -272.64073 
L 76.528355 -272.64073 
L 76.528355 -267.473484 
L 80.37736 -267.473484 
L 80.37736 -267.473484 
L 80.817246 -267.473484 
L 80.817246 -267.473484 
L 84.116393 -267.473484 
L 84.116393 -261.857422 
L 90.934629 -261.857422 
L 90.934629 -256.37753 
L 92.804145 -256.37753 
L 92.804145 -256.37753 
L 95.223519 -256.37753 
L 95.223519 -250.865244 
L 95.883349 -250.865244 
L 95.883349 -245.487702 
L 95.99332 -245.487702 
L 95.99332 -240.22359 
L 97.312979 -240.22359 
L 97.312979 -240.22359 
L 103.251443 -240.22359 
L 103.251443 -240.22359 
L 107.870248 -240.22359 
L 107.870248 -240.22359 
L 108.200162 -240.22359 
L 108.200162 -240.22359 
L 110.949451 -240.22359 
L 110.949451 -240.22359 
L 111.059423 -240.22359 
L 111.059423 -234.232805 
L 111.389337 -234.232805 
L 111.389337 -228.409845 
L 112.818968 -228.409845 
L 112.818968 -222.724033 
L 113.258854 -222.724033 
L 113.258854 -222.724033 
L 114.468541 -222.724033 
L 114.468541 -222.724033 
L 115.12837 -222.724033 
L 115.12837 -222.724033 
L 116.777944 -222.724033 
L 116.777944 -222.724033 
L 116.887915 -222.724033 
L 116.887915 -216.363454 
L 117.21783 -216.363454 
L 117.21783 -216.363454 
L 117.437773 -216.363454 
L 117.437773 -216.363454 
L 117.657716 -216.363454 
L 117.657716 -216.363454 
L 118.757431 -216.363454 
L 118.757431 -216.363454 
L 124.146038 -216.363454 
L 124.146038 -209.170184 
L 125.465696 -209.170184 
L 125.465696 -202.212148 
L 126.345469 -202.212148 
L 126.345469 -202.212148 
L 126.45544 -202.212148 
L 126.45544 -195.161426 
L 134.92325 -195.161426 
L 134.92325 -188.303082 
L 135.693051 -188.303082 
L 135.693051 -188.303082 
L 136.682794 -188.303082 
L 136.682794 -181.302403 
L 139.102169 -181.302403 
L 139.102169 -181.302403 
L 139.21214 -181.302403 
L 139.21214 -181.302403 
L 141.521543 -181.302403 
L 141.521543 -181.302403 
L 144.380803 -181.302403 
L 144.380803 -181.302403 
L 149.219551 -181.302403 
L 149.219551 -181.302403 
L 149.769409 -181.302403 
L 149.769409 -172.433377 
L 157.357446 -172.433377 
L 157.357446 -163.914538 
L 158.567133 -163.914538 
L 158.567133 -163.914538 
L 164.065711 -163.914538 
L 164.065711 -163.914538 
L 164.175683 -163.914538 
L 164.175683 -154.539702 
L 169.894203 -154.539702 
L 169.894203 -154.539702 
L 190.128969 -154.539702 
L 190.128969 -144.860889 
L 200.466295 -144.860889 
L 200.466295 -135.61037 
L 200.686238 -135.61037 
L 200.686238 -135.61037 
L 201.785953 -135.61037 
L 201.785953 -135.61037 
L 213.882824 -135.61037 
L 213.882824 -135.61037 
L 218.941516 -135.61037 
L 218.941516 -123.796723 
L 233.677704 -123.796723 
L 233.677704 -123.796723 
L 236.097078 -123.796723 
L 236.097078 -123.796723 
L 244.894802 -123.796723 
L 244.894802 -123.796723 
L 255.672014 -123.796723 
L 255.672014 -123.796723 
L 263.699937 -123.796723 
L 263.699937 -123.796723 
L 265.789397 -123.796723 
L 265.789397 -123.796723 
L 274.257206 -123.796723 
L 274.257206 -123.796723 
L 281.955215 -123.796723 
L 281.955215 -123.796723 
L 307.468615 -123.796723 
L 307.468615 -123.796723 
L 330.562641 -123.796723 
L 330.562641 -123.796723 
L 365.313652 -123.796723 
L 365.313652 -123.796723 
L 447.792316 -123.796723 
L 447.792316 -123.796723 
L 447.792316 -207.913441 
L 447.792316 -207.913441 
L 447.792316 -207.913441 
L 365.313652 -207.913441 
L 365.313652 -207.913441 
L 330.562641 -207.913441 
L 330.562641 -207.913441 
L 307.468615 -207.913441 
L 307.468615 -207.913441 
L 281.955215 -207.913441 
L 281.955215 -207.913441 
L 274.257206 -207.913441 
L 274.257206 -207.913441 
L 265.789397 -207.913441 
L 265.789397 -207.913441 
L 263.699937 -207.913441 
L 263.699937 -207.913441 
L 255.672014 -207.913441 
L 255.672014 -207.913441 
L 244.894802 -207.913441 
L 244.894802 -207.913441 
L 236.097078 -207.913441 
L 236.097078 -207.913441 
L 233.677704 -207.913441 
L 233.677704 -207.913441 
L 218.941516 -207.913441 
L 218.941516 -216.381904 
L 213.882824 -216.381904 
L 213.882824 -216.381904 
L 201.785953 -216.381904 
L 201.785953 -216.381904 
L 200.686238 -216.381904 
L 200.686238 -216.381904 
L 200.466295 -216.381904 
L 200.466295 -223.615348 
L 190.128969 -223.615348 
L 190.128969 -230.607398 
L 169.894203 -230.607398 
L 169.894203 -230.607398 
L 164.175683 -230.607398 
L 164.175683 -237.143739 
L 164.065711 -237.143739 
L 164.065711 -237.143739 
L 158.567133 -237.143739 
L 158.567133 -237.143739 
L 157.357446 -237.143739 
L 157.357446 -243.112933 
L 149.769409 -243.112933 
L 149.769409 -248.895951 
L 149.219551 -248.895951 
L 149.219551 -248.895951 
L 144.380803 -248.895951 
L 144.380803 -248.895951 
L 141.521543 -248.895951 
L 141.521543 -248.895951 
L 139.21214 -248.895951 
L 139.21214 -248.895951 
L 139.102169 -248.895951 
L 139.102169 -248.895951 
L 136.682794 -248.895951 
L 136.682794 -253.869806 
L 135.693051 -253.869806 
L 135.693051 -253.869806 
L 134.92325 -253.869806 
L 134.92325 -258.623256 
L 126.45544 -258.623256 
L 126.45544 -263.262237 
L 126.345469 -263.262237 
L 126.345469 -263.262237 
L 125.465696 -263.262237 
L 125.465696 -267.690269 
L 124.146038 -267.690269 
L 124.146038 -271.991231 
L 118.757431 -271.991231 
L 118.757431 -271.991231 
L 117.657716 -271.991231 
L 117.657716 -271.991231 
L 117.437773 -271.991231 
L 117.437773 -271.991231 
L 117.21783 -271.991231 
L 117.21783 -271.991231 
L 116.887915 -271.991231 
L 116.887915 -275.882113 
L 116.777944 -275.882113 
L 116.777944 -275.882113 
L 115.12837 -275.882113 
L 115.12837 -275.882113 
L 114.468541 -275.882113 
L 114.468541 -275.882113 
L 113.258854 -275.882113 
L 113.258854 -275.882113 
L 112.818968 -275.882113 
L 112.818968 -279.431062 
L 111.389337 -279.431062 
L 111.389337 -282.88052 
L 111.059423 -282.88052 
L 111.059423 -286.216719 
L 110.949451 -286.216719 
L 110.949451 -286.216719 
L 108.200162 -286.216719 
L 108.200162 -286.216719 
L 107.870248 -286.216719 
L 107.870248 -286.216719 
L 103.251443 -286.216719 
L 103.251443 -286.216719 
L 97.312979 -286.216719 
L 97.312979 -286.216719 
L 95.99332 -286.216719 
L 95.99332 -289.220678 
L 95.883349 -289.220678 
L 95.883349 -292.105382 
L 95.223519 -292.105382 
L 95.223519 -294.846701 
L 92.804145 -294.846701 
L 92.804145 -294.846701 
L 90.934629 -294.846701 
L 90.934629 -297.382074 
L 84.116393 -297.382074 
L 84.116393 -299.692969 
L 80.817246 -299.692969 
L 80.817246 -299.692969 
L 80.37736 -299.692969 
L 80.37736 -299.692969 
L 76.528355 -299.692969 
L 76.528355 -301.655217 
L 73.99901 -301.655217 
L 73.99901 -301.655217 
L 71.469664 -301.655217 
L 71.469664 -303.137482 
L 69.05029 -303.137482 
L 69.05029 -303.714531 
L 68.610404 -303.714531 
L 68.610404 -303.714531 
L 67.730631 -303.714531 
L 67.730631 -303.714531 
L 66.410973 -303.714531 
L 66.410973 -303.714531 
L 66.301001 -303.714531 
L 66.301001 -303.714531 
L 65.971086 -303.714531 
L 65.971086 -303.714531 
L 65.311257 -303.714531 
z
" style="stroke: #2196f3; stroke-opacity: 0.12"/>
    </defs>
    <g clip-path="url(#p6a8539f259)">
     <use xlink:href="#m53a3e0b58b" x="0" y="352.801719" style="fill: #2196f3; fill-opacity: 0.12; stroke: #2196f3; stroke-opacity: 0.12"/>
    </g>
   </g>
   <g id="FillBetweenPolyCollection_2">
    <defs>
     <path id="m744277e958" d="M 65.311257 -303.714531 
L 65.311257 -303.714531 
L 65.421229 -303.714531 
L 65.421229 -303.714531 
L 65.971086 -303.714531 
L 65.971086 -303.714531 
L 66.19103 -303.714531 
L 66.19103 -303.714531 
L 66.301001 -303.714531 
L 66.301001 -295.587887 
L 66.520944 -295.587887 
L 66.520944 -294.53815 
L 66.630916 -294.53815 
L 66.630916 -293.040441 
L 66.850859 -293.040441 
L 66.850859 -291.47618 
L 67.070802 -291.47618 
L 67.070802 -289.919074 
L 67.400717 -289.919074 
L 67.400717 -288.380108 
L 67.510688 -288.380108 
L 67.510688 -288.380108 
L 67.62066 -288.380108 
L 67.62066 -288.380108 
L 68.280489 -288.380108 
L 68.280489 -286.827549 
L 69.270233 -286.827549 
L 69.270233 -285.297139 
L 70.150005 -285.297139 
L 70.150005 -285.297139 
L 71.029778 -285.297139 
L 71.029778 -283.775828 
L 71.469664 -283.775828 
L 71.469664 -282.27263 
L 72.459408 -282.27263 
L 72.459408 -280.785482 
L 72.679351 -280.785482 
L 72.679351 -279.31268 
L 74.878782 -279.31268 
L 74.878782 -277.852802 
L 75.318668 -277.852802 
L 75.318668 -276.404649 
L 75.648583 -276.404649 
L 75.648583 -276.404649 
L 75.978498 -276.404649 
L 75.978498 -274.957872 
L 76.418384 -274.957872 
L 76.418384 -273.521269 
L 77.957986 -273.521269 
L 77.957986 -272.09403 
L 79.497587 -272.09403 
L 79.497587 -270.675456 
L 80.707274 -270.675456 
L 80.707274 -269.264936 
L 82.136905 -269.264936 
L 82.136905 -267.861933 
L 84.006421 -267.861933 
L 84.006421 -267.861933 
L 84.116393 -267.861933 
L 84.116393 -266.457034 
L 85.106136 -266.457034 
L 85.106136 -266.457034 
L 86.645738 -266.457034 
L 86.645738 -265.049967 
L 86.75571 -265.049967 
L 86.75571 -263.649529 
L 88.515255 -263.649529 
L 88.515255 -263.649529 
L 88.845169 -263.649529 
L 88.845169 -262.246321 
L 89.175084 -262.246321 
L 89.175084 -260.849202 
L 89.395027 -260.849202 
L 89.395027 -260.849202 
L 89.834913 -260.849202 
L 89.834913 -259.448785 
L 90.494743 -259.448785 
L 90.494743 -259.448785 
L 92.47423 -259.448785 
L 92.47423 -258.044857 
L 92.584202 -258.044857 
L 92.584202 -258.044857 
L 93.903861 -258.044857 
L 93.903861 -258.044857 
L 94.123804 -258.044857 
L 94.123804 -255.21642 
L 96.433206 -255.21642 
L 96.433206 -253.810287 
L 98.192751 -253.810287 
L 98.192751 -252.40921 
L 98.632637 -252.40921 
L 98.632637 -252.40921 
L 99.842324 -252.40921 
L 99.842324 -252.40921 
L 99.952296 -252.40921 
L 99.952296 -250.994018 
L 100.722097 -250.994018 
L 100.722097 -250.994018 
L 101.271955 -250.994018 
L 101.271955 -250.994018 
L 102.811556 -250.994018 
L 102.811556 -250.994018 
L 103.141471 -250.994018 
L 103.141471 -249.554403 
L 103.471386 -249.554403 
L 103.471386 -248.119919 
L 103.691329 -248.119919 
L 103.691329 -246.680318 
L 104.241187 -246.680318 
L 104.241187 -246.680318 
L 104.791044 -246.680318 
L 104.791044 -245.235404 
L 105.010987 -245.235404 
L 105.010987 -245.235404 
L 105.230931 -245.235404 
L 105.230931 -245.235404 
L 105.450874 -245.235404 
L 105.450874 -243.753223 
L 105.560845 -243.753223 
L 105.560845 -243.753223 
L 106.220675 -243.753223 
L 106.220675 -243.753223 
L 106.330646 -243.753223 
L 106.330646 -242.243096 
L 107.210419 -242.243096 
L 107.210419 -240.738398 
L 108.640049 -240.738398 
L 108.640049 -239.2389 
L 108.75002 -239.2389 
L 108.75002 -239.2389 
L 108.859992 -239.2389 
L 108.859992 -239.2389 
L 109.299878 -239.2389 
L 109.299878 -239.2389 
L 109.959707 -239.2389 
L 109.959707 -239.2389 
L 110.17965 -239.2389 
L 110.17965 -239.2389 
L 110.399594 -239.2389 
L 110.399594 -237.661118 
L 110.949451 -237.661118 
L 110.949451 -236.08928 
L 111.829224 -236.08928 
L 111.829224 -236.08928 
L 112.049167 -236.08928 
L 112.049167 -234.510488 
L 112.26911 -234.510488 
L 112.26911 -234.510488 
L 112.599025 -234.510488 
L 112.599025 -234.510488 
L 113.478797 -234.510488 
L 113.478797 -232.898142 
L 114.138626 -232.898142 
L 114.138626 -232.898142 
L 115.018399 -232.898142 
L 115.018399 -231.278245 
L 115.678228 -231.278245 
L 115.678228 -231.278245 
L 117.877659 -231.278245 
L 117.877659 -231.278245 
L 118.097602 -231.278245 
L 118.097602 -231.278245 
L 120.297033 -231.278245 
L 120.297033 -231.278245 
L 121.066834 -231.278245 
L 121.066834 -231.278245 
L 121.616692 -231.278245 
L 121.616692 -231.278245 
L 122.386493 -231.278245 
L 122.386493 -231.278245 
L 122.496464 -231.278245 
L 122.496464 -231.278245 
L 124.475952 -231.278245 
L 124.475952 -231.278245 
L 126.015554 -231.278245 
L 126.015554 -231.278245 
L 126.235497 -231.278245 
L 126.235497 -231.278245 
L 126.345469 -231.278245 
L 126.345469 -229.499657 
L 126.675383 -229.499657 
L 126.675383 -227.712609 
L 127.115269 -227.712609 
L 127.115269 -227.712609 
L 127.335213 -227.712609 
L 127.335213 -227.712609 
L 127.995042 -227.712609 
L 127.995042 -227.712609 
L 128.434928 -227.712609 
L 128.434928 -227.712609 
L 128.5449 -227.712609 
L 128.5449 -227.712609 
L 128.984786 -227.712609 
L 128.984786 -227.712609 
L 129.644615 -227.712609 
L 129.644615 -227.712609 
L 129.864558 -227.712609 
L 129.864558 -227.712609 
L 129.97453 -227.712609 
L 129.97453 -227.712609 
L 130.634359 -227.712609 
L 130.634359 -227.712609 
L 130.854302 -227.712609 
L 130.854302 -225.749368 
L 131.40416 -225.749368 
L 131.40416 -223.796996 
L 131.514132 -223.796996 
L 131.514132 -223.796996 
L 132.173961 -223.796996 
L 132.173961 -223.796996 
L 132.613847 -223.796996 
L 132.613847 -221.77045 
L 132.943762 -221.77045 
L 132.943762 -221.77045 
L 134.26342 -221.77045 
L 134.26342 -219.733012 
L 134.593335 -219.733012 
L 134.593335 -219.733012 
L 134.703307 -219.733012 
L 134.703307 -219.733012 
L 134.813278 -219.733012 
L 134.813278 -219.733012 
L 135.253164 -219.733012 
L 135.253164 -219.733012 
L 135.473107 -219.733012 
L 135.473107 -219.733012 
L 136.022965 -219.733012 
L 136.022965 -217.587865 
L 136.132937 -217.587865 
L 136.132937 -217.587865 
L 137.342624 -217.587865 
L 137.342624 -217.587865 
L 137.672538 -217.587865 
L 137.672538 -217.587865 
L 137.892482 -217.587865 
L 137.892482 -215.377591 
L 140.091913 -215.377591 
L 140.091913 -215.377591 
L 140.971685 -215.377591 
L 140.971685 -213.153901 
L 141.521543 -213.153901 
L 141.521543 -210.943919 
L 141.961429 -210.943919 
L 141.961429 -210.943919 
L 142.071401 -210.943919 
L 142.071401 -210.943919 
L 142.951173 -210.943919 
L 142.951173 -210.943919 
L 143.501031 -210.943919 
L 143.501031 -208.630427 
L 144.710718 -208.630427 
L 144.710718 -208.630427 
L 144.930661 -208.630427 
L 144.930661 -206.300616 
L 145.370547 -206.300616 
L 145.370547 -206.300616 
L 145.480519 -206.300616 
L 145.480519 -206.300616 
L 147.130092 -206.300616 
L 147.130092 -206.300616 
L 148.449751 -206.300616 
L 148.449751 -206.300616 
L 148.559722 -206.300616 
L 148.559722 -203.85231 
L 149.439495 -203.85231 
L 149.439495 -201.42081 
L 149.989352 -201.42081 
L 149.989352 -199.005248 
L 151.089068 -199.005248 
L 151.089068 -199.005248 
L 151.309011 -199.005248 
L 151.309011 -199.005248 
L 153.178527 -199.005248 
L 153.178527 -199.005248 
L 153.508442 -199.005248 
L 153.508442 -196.493829 
L 154.388214 -196.493829 
L 154.388214 -196.493829 
L 155.048044 -196.493829 
L 155.048044 -196.493829 
L 155.377958 -196.493829 
L 155.377958 -196.493829 
L 156.477674 -196.493829 
L 156.477674 -196.493829 
L 158.567133 -196.493829 
L 158.567133 -193.834284 
L 158.677105 -193.834284 
L 158.677105 -193.834284 
L 159.886792 -193.834284 
L 159.886792 -193.834284 
L 164.065711 -193.834284 
L 164.065711 -193.834284 
L 165.38537 -193.834284 
L 165.38537 -193.834284 
L 166.15517 -193.834284 
L 166.15517 -193.834284 
L 167.364858 -193.834284 
L 167.364858 -193.834284 
L 175.832667 -193.834284 
L 175.832667 -190.847978 
L 176.162582 -190.847978 
L 176.162582 -190.847978 
L 180.671415 -190.847978 
L 180.671415 -190.847978 
L 182.540932 -190.847978 
L 182.540932 -190.847978 
L 184.630391 -190.847978 
L 184.630391 -190.847978 
L 184.960306 -190.847978 
L 184.960306 -187.583046 
L 185.290221 -187.583046 
L 185.290221 -187.583046 
L 186.060021 -187.583046 
L 186.060021 -187.583046 
L 193.75803 -187.583046 
L 193.75803 -187.583046 
L 198.376835 -187.583046 
L 198.376835 -184.138856 
L 199.366579 -184.138856 
L 199.366579 -184.138856 
L 200.906181 -184.138856 
L 200.906181 -184.138856 
L 201.895925 -184.138856 
L 201.895925 -184.138856 
L 205.0851 -184.138856 
L 205.0851 -180.490752 
L 208.494218 -180.490752 
L 208.494218 -180.490752 
L 213.222995 -180.490752 
L 213.222995 -180.490752 
L 215.202483 -180.490752 
L 215.202483 -180.490752 
L 216.192227 -180.490752 
L 216.192227 -176.60839 
L 217.731828 -176.60839 
L 217.731828 -172.781957 
L 221.800776 -172.781957 
L 221.800776 -169.007304 
L 221.910747 -169.007304 
L 221.910747 -169.007304 
L 224.770008 -169.007304 
L 224.770008 -169.007304 
L 224.989951 -169.007304 
L 224.989951 -169.007304 
L 229.16887 -169.007304 
L 229.16887 -164.948192 
L 229.718728 -164.948192 
L 229.718728 -164.948192 
L 232.02813 -164.948192 
L 232.02813 -164.948192 
L 233.677704 -164.948192 
L 233.677704 -164.948192 
L 236.866879 -164.948192 
L 236.866879 -160.55145 
L 237.086822 -160.55145 
L 237.086822 -160.55145 
L 237.636679 -160.55145 
L 237.636679 -160.55145 
L 243.245229 -160.55145 
L 243.245229 -160.55145 
L 243.685115 -160.55145 
L 243.685115 -155.746699 
L 243.905058 -155.746699 
L 243.905058 -151.035728 
L 245.224717 -151.035728 
L 245.224717 -151.035728 
L 250.613323 -151.035728 
L 250.613323 -146.224666 
L 251.603067 -146.224666 
L 251.603067 -141.504329 
L 253.472583 -141.504329 
L 253.472583 -141.504329 
L 254.242384 -141.504329 
L 254.242384 -141.504329 
L 260.950648 -141.504329 
L 260.950648 -141.504329 
L 269.308486 -141.504329 
L 269.308486 -141.504329 
L 271.617889 -141.504329 
L 271.617889 -141.504329 
L 278.546097 -141.504329 
L 278.546097 -141.504329 
L 284.044674 -141.504329 
L 284.044674 -141.504329 
L 286.903935 -141.504329 
L 286.903935 -141.504329 
L 287.123878 -141.504329 
L 287.123878 -141.504329 
L 288.333565 -141.504329 
L 288.333565 -141.504329 
L 296.47146 -141.504329 
L 296.47146 -141.504329 
L 298.011062 -141.504329 
L 298.011062 -133.059596 
L 299.660635 -133.059596 
L 299.660635 -125.055417 
L 305.489127 -125.055417 
L 305.489127 -125.055417 
L 312.197392 -125.055417 
L 312.197392 -125.055417 
L 318.355799 -125.055417 
L 318.355799 -125.055417 
L 320.115344 -125.055417 
L 320.115344 -125.055417 
L 320.885144 -125.055417 
L 320.885144 -125.055417 
L 329.023039 -125.055417 
L 329.023039 -125.055417 
L 330.892556 -125.055417 
L 330.892556 -125.055417 
L 331.992271 -125.055417 
L 331.992271 -125.055417 
L 335.401389 -125.055417 
L 335.401389 -107.120437 
L 338.700536 -107.120437 
L 338.700536 -92.0685 
L 343.759227 -92.0685 
L 343.759227 -79.120877 
L 344.858943 -79.120877 
L 344.858943 -67.922858 
L 367.952969 -67.922858 
L 367.952969 -67.922858 
L 408.972358 -67.922858 
L 408.972358 -55.143691 
L 429.097152 -55.143691 
L 429.097152 -55.143691 
L 443.283482 -55.143691 
L 443.283482 -55.143691 
L 469.456712 -55.143691 
L 469.456712 -55.143691 
L 469.456712 -133.409471 
L 469.456712 -133.409471 
L 469.456712 -133.409471 
L 443.283482 -133.409471 
L 443.283482 -133.409471 
L 429.097152 -133.409471 
L 429.097152 -133.409471 
L 408.972358 -133.409471 
L 408.972358 -146.520989 
L 367.952969 -146.520989 
L 367.952969 -146.520989 
L 344.858943 -146.520989 
L 344.858943 -157.60283 
L 343.759227 -157.60283 
L 343.759227 -167.602069 
L 338.700536 -167.602069 
L 338.700536 -176.307991 
L 335.401389 -176.307991 
L 335.401389 -183.150477 
L 331.992271 -183.150477 
L 331.992271 -183.150477 
L 330.892556 -183.150477 
L 330.892556 -183.150477 
L 329.023039 -183.150477 
L 329.023039 -183.150477 
L 320.885144 -183.150477 
L 320.885144 -183.150477 
L 320.115344 -183.150477 
L 320.115344 -183.150477 
L 318.355799 -183.150477 
L 318.355799 -183.150477 
L 312.197392 -183.150477 
L 312.197392 -183.150477 
L 305.489127 -183.150477 
L 305.489127 -183.150477 
L 299.660635 -183.150477 
L 299.660635 -188.396612 
L 298.011062 -188.396612 
L 298.011062 -193.351336 
L 296.47146 -193.351336 
L 296.47146 -193.351336 
L 288.333565 -193.351336 
L 288.333565 -193.351336 
L 287.123878 -193.351336 
L 287.123878 -193.351336 
L 286.903935 -193.351336 
L 286.903935 -193.351336 
L 284.044674 -193.351336 
L 284.044674 -193.351336 
L 278.546097 -193.351336 
L 278.546097 -193.351336 
L 271.617889 -193.351336 
L 271.617889 -193.351336 
L 269.308486 -193.351336 
L 269.308486 -193.351336 
L 260.950648 -193.351336 
L 260.950648 -193.351336 
L 254.242384 -193.351336 
L 254.242384 -193.351336 
L 253.472583 -193.351336 
L 253.472583 -193.351336 
L 251.603067 -193.351336 
L 251.603067 -197.0643 
L 250.613323 -197.0643 
L 250.613323 -200.716569 
L 245.224717 -200.716569 
L 245.224717 -200.716569 
L 243.905058 -200.716569 
L 243.905058 -204.235073 
L 243.685115 -204.235073 
L 243.685115 -207.691516 
L 243.245229 -207.691516 
L 243.245229 -207.691516 
L 237.636679 -207.691516 
L 237.636679 -207.691516 
L 237.086822 -207.691516 
L 237.086822 -207.691516 
L 236.866879 -207.691516 
L 236.866879 -210.910074 
L 233.677704 -210.910074 
L 233.677704 -210.910074 
L 232.02813 -210.910074 
L 232.02813 -210.910074 
L 229.718728 -210.910074 
L 229.718728 -210.910074 
L 229.16887 -210.910074 
L 229.16887 -213.926136 
L 224.989951 -213.926136 
L 224.989951 -213.926136 
L 224.770008 -213.926136 
L 224.770008 -213.926136 
L 221.910747 -213.926136 
L 221.910747 -213.926136 
L 221.800776 -213.926136 
L 221.800776 -216.767417 
L 217.731828 -216.767417 
L 217.731828 -219.574403 
L 216.192227 -219.574403 
L 216.192227 -222.34462 
L 215.202483 -222.34462 
L 215.202483 -222.34462 
L 213.222995 -222.34462 
L 213.222995 -222.34462 
L 208.494218 -222.34462 
L 208.494218 -222.34462 
L 205.0851 -222.34462 
L 205.0851 -224.968278 
L 201.895925 -224.968278 
L 201.895925 -224.968278 
L 200.906181 -224.968278 
L 200.906181 -224.968278 
L 199.366579 -224.968278 
L 199.366579 -224.968278 
L 198.376835 -224.968278 
L 198.376835 -227.462119 
L 193.75803 -227.462119 
L 193.75803 -227.462119 
L 186.060021 -227.462119 
L 186.060021 -227.462119 
L 185.290221 -227.462119 
L 185.290221 -227.462119 
L 184.960306 -227.462119 
L 184.960306 -229.840035 
L 184.630391 -229.840035 
L 184.630391 -229.840035 
L 182.540932 -229.840035 
L 182.540932 -229.840035 
L 180.671415 -229.840035 
L 180.671415 -229.840035 
L 176.162582 -229.840035 
L 176.162582 -229.840035 
L 175.832667 -229.840035 
L 175.832667 -232.063528 
L 167.364858 -232.063528 
L 167.364858 -232.063528 
L 166.15517 -232.063528 
L 166.15517 -232.063528 
L 165.38537 -232.063528 
L 165.38537 -232.063528 
L 164.065711 -232.063528 
L 164.065711 -232.063528 
L 159.886792 -232.063528 
L 159.886792 -232.063528 
L 158.677105 -232.063528 
L 158.677105 -232.063528 
L 158.567133 -232.063528 
L 158.567133 -234.110714 
L 156.477674 -234.110714 
L 156.477674 -234.110714 
L 155.377958 -234.110714 
L 155.377958 -234.110714 
L 155.048044 -234.110714 
L 155.048044 -234.110714 
L 154.388214 -234.110714 
L 154.388214 -234.110714 
L 153.508442 -234.110714 
L 153.508442 -236.064923 
L 153.178527 -236.064923 
L 153.178527 -236.064923 
L 151.309011 -236.064923 
L 151.309011 -236.064923 
L 151.089068 -236.064923 
L 151.089068 -236.064923 
L 149.989352 -236.064923 
L 149.989352 -237.952738 
L 149.439495 -237.952738 
L 149.439495 -239.829636 
L 148.559722 -239.829636 
L 148.559722 -241.695154 
L 148.449751 -241.695154 
L 148.449751 -241.695154 
L 147.130092 -241.695154 
L 147.130092 -241.695154 
L 145.480519 -241.695154 
L 145.480519 -241.695154 
L 145.370547 -241.695154 
L 145.370547 -241.695154 
L 144.930661 -241.695154 
L 144.930661 -243.485032 
L 144.710718 -243.485032 
L 144.710718 -243.485032 
L 143.501031 -243.485032 
L 143.501031 -245.249473 
L 142.951173 -245.249473 
L 142.951173 -245.249473 
L 142.071401 -245.249473 
L 142.071401 -245.249473 
L 141.961429 -245.249473 
L 141.961429 -245.249473 
L 141.521543 -245.249473 
L 141.521543 -246.946975 
L 140.971685 -246.946975 
L 140.971685 -248.635159 
L 140.091913 -248.635159 
L 140.091913 -248.635159 
L 137.892482 -248.635159 
L 137.892482 -250.300574 
L 137.672538 -250.300574 
L 137.672538 -250.300574 
L 137.342624 -250.300574 
L 137.342624 -250.300574 
L 136.132937 -250.300574 
L 136.132937 -250.300574 
L 136.022965 -250.300574 
L 136.022965 -251.918949 
L 135.473107 -251.918949 
L 135.473107 -251.918949 
L 135.253164 -251.918949 
L 135.253164 -251.918949 
L 134.813278 -251.918949 
L 134.813278 -251.918949 
L 134.703307 -251.918949 
L 134.703307 -251.918949 
L 134.593335 -251.918949 
L 134.593335 -251.918949 
L 134.26342 -251.918949 
L 134.26342 -253.470533 
L 132.943762 -253.470533 
L 132.943762 -253.470533 
L 132.613847 -253.470533 
L 132.613847 -255.003205 
L 132.173961 -255.003205 
L 132.173961 -255.003205 
L 131.514132 -255.003205 
L 131.514132 -255.003205 
L 131.40416 -255.003205 
L 131.40416 -256.486454 
L 130.854302 -256.486454 
L 130.854302 -257.962259 
L 130.634359 -257.962259 
L 130.634359 -257.962259 
L 129.97453 -257.962259 
L 129.97453 -257.962259 
L 129.864558 -257.962259 
L 129.864558 -257.962259 
L 129.644615 -257.962259 
L 129.644615 -257.962259 
L 128.984786 -257.962259 
L 128.984786 -257.962259 
L 128.5449 -257.962259 
L 128.5449 -257.962259 
L 128.434928 -257.962259 
L 128.434928 -257.962259 
L 127.995042 -257.962259 
L 127.995042 -257.962259 
L 127.335213 -257.962259 
L 127.335213 -257.962259 
L 127.115269 -257.962259 
L 127.115269 -257.962259 
L 126.675383 -257.962259 
L 126.675383 -259.33884 
L 126.345469 -259.33884 
L 126.345469 -260.700963 
L 126.235497 -260.700963 
L 126.235497 -260.700963 
L 126.015554 -260.700963 
L 126.015554 -260.700963 
L 124.475952 -260.700963 
L 124.475952 -260.700963 
L 122.496464 -260.700963 
L 122.496464 -260.700963 
L 122.386493 -260.700963 
L 122.386493 -260.700963 
L 121.616692 -260.700963 
L 121.616692 -260.700963 
L 121.066834 -260.700963 
L 121.066834 -260.700963 
L 120.297033 -260.700963 
L 120.297033 -260.700963 
L 118.097602 -260.700963 
L 118.097602 -260.700963 
L 117.877659 -260.700963 
L 117.877659 -260.700963 
L 115.678228 -260.700963 
L 115.678228 -260.700963 
L 115.018399 -260.700963 
L 115.018399 -261.971589 
L 114.138626 -261.971589 
L 114.138626 -261.971589 
L 113.478797 -261.971589 
L 113.478797 -263.23029 
L 112.599025 -263.23029 
L 112.599025 -263.23029 
L 112.26911 -263.23029 
L 112.26911 -263.23029 
L 112.049167 -263.23029 
L 112.049167 -264.46342 
L 111.829224 -264.46342 
L 111.829224 -264.46342 
L 110.949451 -264.46342 
L 110.949451 -265.685227 
L 110.399594 -265.685227 
L 110.399594 -266.90235 
L 110.17965 -266.90235 
L 110.17965 -266.90235 
L 109.959707 -266.90235 
L 109.959707 -266.90235 
L 109.299878 -266.90235 
L 109.299878 -266.90235 
L 108.859992 -266.90235 
L 108.859992 -266.90235 
L 108.75002 -266.90235 
L 108.75002 -266.90235 
L 108.640049 -266.90235 
L 108.640049 -268.070801 
L 107.210419 -268.070801 
L 107.210419 -269.234929 
L 106.330646 -269.234929 
L 106.330646 -270.39458 
L 106.220675 -270.39458 
L 106.220675 -270.39458 
L 105.560845 -270.39458 
L 105.560845 -270.39458 
L 105.450874 -270.39458 
L 105.450874 -271.53238 
L 105.230931 -271.53238 
L 105.230931 -271.53238 
L 105.010987 -271.53238 
L 105.010987 -271.53238 
L 104.791044 -271.53238 
L 104.791044 -272.643715 
L 104.241187 -272.643715 
L 104.241187 -272.643715 
L 103.691329 -272.643715 
L 103.691329 -273.7454 
L 103.471386 -273.7454 
L 103.471386 -274.837465 
L 103.141471 -274.837465 
L 103.141471 -275.924997 
L 102.811556 -275.924997 
L 102.811556 -275.924997 
L 101.271955 -275.924997 
L 101.271955 -275.924997 
L 100.722097 -275.924997 
L 100.722097 -275.924997 
L 99.952296 -275.924997 
L 99.952296 -276.992929 
L 99.842324 -276.992929 
L 99.842324 -276.992929 
L 98.632637 -276.992929 
L 98.632637 -276.992929 
L 98.192751 -276.992929 
L 98.192751 -278.046612 
L 96.433206 -278.046612 
L 96.433206 -279.095596 
L 94.123804 -279.095596 
L 94.123804 -281.178614 
L 93.903861 -281.178614 
L 93.903861 -281.178614 
L 92.584202 -281.178614 
L 92.584202 -281.178614 
L 92.47423 -281.178614 
L 92.47423 -282.203237 
L 90.494743 -282.203237 
L 90.494743 -282.203237 
L 89.834913 -282.203237 
L 89.834913 -283.218034 
L 89.395027 -283.218034 
L 89.395027 -283.218034 
L 89.175084 -283.218034 
L 89.175084 -284.222908 
L 88.845169 -284.222908 
L 88.845169 -285.221898 
L 88.515255 -285.221898 
L 88.515255 -285.221898 
L 86.75571 -285.221898 
L 86.75571 -286.210575 
L 86.645738 -286.210575 
L 86.645738 -287.192761 
L 85.106136 -287.192761 
L 85.106136 -287.192761 
L 84.116393 -287.192761 
L 84.116393 -288.164117 
L 84.006421 -288.164117 
L 84.006421 -288.164117 
L 82.136905 -288.164117 
L 82.136905 -289.124394 
L 80.707274 -289.124394 
L 80.707274 -290.077033 
L 79.497587 -290.077033 
L 79.497587 -291.021477 
L 77.957986 -291.021477 
L 77.957986 -291.957084 
L 76.418384 -291.957084 
L 76.418384 -292.883119 
L 75.978498 -292.883119 
L 75.978498 -293.798729 
L 75.648583 -293.798729 
L 75.648583 -293.798729 
L 75.318668 -293.798729 
L 75.318668 -294.69957 
L 74.878782 -294.69957 
L 74.878782 -295.587967 
L 72.679351 -295.587967 
L 72.679351 -296.462526 
L 72.459408 -296.462526 
L 72.459408 -297.321549 
L 71.469664 -297.321549 
L 71.469664 -298.162937 
L 71.029778 -298.162937 
L 71.029778 -298.984038 
L 70.150005 -298.984038 
L 70.150005 -298.984038 
L 69.270233 -298.984038 
L 69.270233 -299.778804 
L 68.280489 -299.778804 
L 68.280489 -300.545601 
L 67.62066 -300.545601 
L 67.62066 -300.545601 
L 67.510688 -300.545601 
L 67.510688 -300.545601 
L 67.400717 -300.545601 
L 67.400717 -301.271499 
L 67.070802 -301.271499 
L 67.070802 -301.955428 
L 66.850859 -301.955428 
L 66.850859 -302.583653 
L 66.630916 -302.583653 
L 66.630916 -303.131029 
L 66.520944 -303.131029 
L 66.520944 -303.5508 
L 66.301001 -303.5508 
L 66.301001 -303.714531 
L 66.19103 -303.714531 
L 66.19103 -303.714531 
L 65.971086 -303.714531 
L 65.971086 -303.714531 
L 65.421229 -303.714531 
L 65.421229 -303.714531 
L 65.311257 -303.714531 
z
" style="stroke: #ff9800; stroke-opacity: 0.12"/>
    </defs>
    <g clip-path="url(#p6a8539f259)">
     <use xlink:href="#m744277e958" x="0" y="352.801719" style="fill: #ff9800; fill-opacity: 0.12; stroke: #ff9800; stroke-opacity: 0.12"/>
    </g>
   </g>
   <g id="FillBetweenPolyCollection_3">
    <defs>
     <path id="m4aaaa8d0f5" d="M 65.311257 -303.714531 
L 65.311257 -303.714531 
L 66.96083 -303.714531 
L 66.96083 -303.714531 
L 68.720375 -303.714531 
L 68.720375 -272.480793 
L 70.369949 -272.480793 
L 70.369949 -268.508812 
L 72.459408 -268.508812 
L 72.459408 -262.884037 
L 75.318668 -262.884037 
L 75.318668 -257.090871 
L 76.638327 -257.090871 
L 76.638327 -251.34259 
L 77.078213 -251.34259 
L 77.078213 -245.683423 
L 79.497587 -245.683423 
L 79.497587 -240.119798 
L 85.436051 -240.119798 
L 85.436051 -240.119798 
L 97.862837 -240.119798 
L 97.862837 -234.47661 
L 98.302723 -234.47661 
L 98.302723 -228.936062 
L 98.632637 -228.936062 
L 98.632637 -223.487304 
L 98.742609 -223.487304 
L 98.742609 -218.12161 
L 99.182495 -218.12161 
L 99.182495 -212.831886 
L 101.381926 -212.831886 
L 101.381926 -212.831886 
L 101.601869 -212.831886 
L 101.601869 -212.831886 
L 104.571101 -212.831886 
L 104.571101 -212.831886 
L 105.230931 -212.831886 
L 105.230931 -212.831886 
L 105.560845 -212.831886 
L 105.560845 -206.86888 
L 107.32039 -206.86888 
L 107.32039 -206.86888 
L 107.870248 -206.86888 
L 107.870248 -206.86888 
L 109.189906 -206.86888 
L 109.189906 -206.86888 
L 110.289622 -206.86888 
L 110.289622 -206.86888 
L 110.619537 -206.86888 
L 110.619537 -200.067335 
L 114.688484 -200.067335 
L 114.688484 -200.067335 
L 122.496464 -200.067335 
L 122.496464 -200.067335 
L 127.555156 -200.067335 
L 127.555156 -200.067335 
L 129.204729 -200.067335 
L 129.204729 -192.176117 
L 133.603591 -192.176117 
L 133.603591 -192.176117 
L 135.583079 -192.176117 
L 135.583079 -184.173649 
L 138.112425 -184.173649 
L 138.112425 -184.173649 
L 142.401315 -184.173649 
L 142.401315 -184.173649 
L 147.460007 -184.173649 
L 147.460007 -184.173649 
L 151.528954 -184.173649 
L 151.528954 -184.173649 
L 156.257731 -184.173649 
L 156.257731 -174.497492 
L 157.357446 -174.497492 
L 157.357446 -165.270667 
L 159.226963 -165.270667 
L 159.226963 -165.270667 
L 161.976251 -165.270667 
L 161.976251 -165.270667 
L 164.945483 -165.270667 
L 164.945483 -165.270667 
L 167.034943 -165.270667 
L 167.034943 -165.270667 
L 167.694772 -165.270667 
L 167.694772 -153.381137 
L 168.904459 -153.381137 
L 168.904459 -153.381137 
L 174.073122 -153.381137 
L 174.073122 -153.381137 
L 178.581956 -153.381137 
L 178.581956 -153.381137 
L 182.650903 -153.381137 
L 182.650903 -153.381137 
L 191.228684 -153.381137 
L 191.228684 -153.381137 
L 191.448627 -153.381137 
L 191.448627 -134.537196 
L 191.668571 -134.537196 
L 191.668571 -118.104567 
L 207.724417 -118.104567 
L 207.724417 -118.104567 
L 262.270307 -118.104567 
L 262.270307 -100.869014 
L 268.978572 -100.869014 
L 268.978572 -85.920203 
L 318.355799 -85.920203 
L 318.355799 -85.920203 
L 333.861788 -85.920203 
L 333.861788 -85.920203 
L 335.291418 -85.920203 
L 335.291418 -85.920203 
L 341.669768 -85.920203 
L 341.669768 -85.920203 
L 367.293139 -85.920203 
L 367.293139 -85.920203 
L 423.598574 -85.920203 
L 423.598574 -39.200859 
L 423.598574 -39.200859 
L 423.598574 -39.200859 
L 423.598574 -187.232515 
L 367.293139 -187.232515 
L 367.293139 -187.232515 
L 341.669768 -187.232515 
L 341.669768 -187.232515 
L 335.291418 -187.232515 
L 335.291418 -187.232515 
L 333.861788 -187.232515 
L 333.861788 -187.232515 
L 318.355799 -187.232515 
L 318.355799 -187.232515 
L 268.978572 -187.232515 
L 268.978572 -200.432588 
L 262.270307 -200.432588 
L 262.270307 -212.441894 
L 207.724417 -212.441894 
L 207.724417 -212.441894 
L 191.668571 -212.441894 
L 191.668571 -222.86226 
L 191.448627 -222.86226 
L 191.448627 -232.144943 
L 191.228684 -232.144943 
L 191.228684 -232.144943 
L 182.650903 -232.144943 
L 182.650903 -232.144943 
L 178.581956 -232.144943 
L 178.581956 -232.144943 
L 174.073122 -232.144943 
L 174.073122 -232.144943 
L 168.904459 -232.144943 
L 168.904459 -232.144943 
L 167.694772 -232.144943 
L 167.694772 -239.438249 
L 167.034943 -239.438249 
L 167.034943 -239.438249 
L 164.945483 -239.438249 
L 164.945483 -239.438249 
L 161.976251 -239.438249 
L 161.976251 -239.438249 
L 159.226963 -239.438249 
L 159.226963 -239.438249 
L 157.357446 -239.438249 
L 157.357446 -245.634508 
L 156.257731 -245.634508 
L 156.257731 -251.604381 
L 151.528954 -251.604381 
L 151.528954 -251.604381 
L 147.460007 -251.604381 
L 147.460007 -251.604381 
L 142.401315 -251.604381 
L 142.401315 -251.604381 
L 138.112425 -251.604381 
L 138.112425 -251.604381 
L 135.583079 -251.604381 
L 135.583079 -256.82962 
L 133.603591 -256.82962 
L 133.603591 -256.82962 
L 129.204729 -256.82962 
L 129.204729 -261.786331 
L 127.555156 -261.786331 
L 127.555156 -261.786331 
L 122.496464 -261.786331 
L 122.496464 -261.786331 
L 114.688484 -261.786331 
L 114.688484 -261.786331 
L 110.619537 -261.786331 
L 110.619537 -266.222783 
L 110.289622 -266.222783 
L 110.289622 -266.222783 
L 109.189906 -266.222783 
L 109.189906 -266.222783 
L 107.870248 -266.222783 
L 107.870248 -266.222783 
L 107.32039 -266.222783 
L 107.32039 -266.222783 
L 105.560845 -266.222783 
L 105.560845 -270.240168 
L 105.230931 -270.240168 
L 105.230931 -270.240168 
L 104.571101 -270.240168 
L 104.571101 -270.240168 
L 101.601869 -270.240168 
L 101.601869 -270.240168 
L 101.381926 -270.240168 
L 101.381926 -270.240168 
L 99.182495 -270.240168 
L 99.182495 -273.910027 
L 98.742609 -273.910027 
L 98.742609 -277.501107 
L 98.632637 -277.501107 
L 98.632637 -281.00498 
L 98.302723 -281.00498 
L 98.302723 -284.410968 
L 97.862837 -284.410968 
L 97.862837 -287.705227 
L 85.436051 -287.705227 
L 85.436051 -287.705227 
L 79.497587 -287.705227 
L 79.497587 -290.826956 
L 77.078213 -290.826956 
L 77.078213 -293.800391 
L 76.638327 -293.800391 
L 76.638327 -296.590477 
L 75.318668 -296.590477 
L 75.318668 -299.142593 
L 72.459408 -299.142593 
L 72.459408 -301.362323 
L 70.369949 -301.362323 
L 70.369949 -303.055878 
L 68.720375 -303.055878 
L 68.720375 -303.714531 
L 66.96083 -303.714531 
L 66.96083 -303.714531 
L 65.311257 -303.714531 
z
" style="stroke: #f44336; stroke-opacity: 0.12"/>
    </defs>
    <g clip-path="url(#p6a8539f259)">
     <use xlink:href="#m4aaaa8d0f5" x="0" y="352.801719" style="fill: #f44336; fill-opacity: 0.12; stroke: #f44336; stroke-opacity: 0.12"/>
    </g>
   </g>
   <g id="matplotlib.axis_1">
    <g id="xtick_1">
     <g id="line2d_1">
      <defs>
       <path id="mfb6f7a11d7" d="M 0 0 
L 0 3.5 
" style="stroke: #000000; stroke-width: 0.8"/>
      </defs>
      <g>
       <use xlink:href="#mfb6f7a11d7" x="65.311257" y="313.600859" style="stroke: #000000; stroke-width: 0.8"/>
      </g>
     </g>
     <g id="text_1">
      <!-- 0 -->
      <g transform="translate(62.130007 328.198516) scale(0.1 -0.1)">
       <defs>
        <path id="DejaVuSans-13" d="M 2034 4250 
Q 1547 4250 1301 3770 
Q 1056 3291 1056 2328 
Q 1056 1369 1301 889 
Q 1547 409 2034 409 
Q 2525 409 2770 889 
Q 3016 1369 3016 2328 
Q 3016 3291 2770 3770 
Q 2525 4250 2034 4250 
z
M 2034 4750 
Q 2819 4750 3233 4129 
Q 3647 3509 3647 2328 
Q 3647 1150 3233 529 
Q 2819 -91 2034 -91 
Q 1250 -91 836 529 
Q 422 1150 422 2328 
Q 422 3509 836 4129 
Q 1250 4750 2034 4750 
z
" transform="scale(0.015625)"/>
       </defs>
       <use xlink:href="#DejaVuSans-13"/>
      </g>
     </g>
    </g>
    <g id="xtick_2">
     <g id="line2d_2">
      <g>
       <use xlink:href="#mfb6f7a11d7" x="132.211351" y="313.600859" style="stroke: #000000; stroke-width: 0.8"/>
      </g>
     </g>
     <g id="text_2">
      <!-- 20 -->
      <g transform="translate(125.848851 328.198516) scale(0.1 -0.1)">
       <defs>
        <path id="DejaVuSans-15" d="M 1228 531 
L 3431 531 
L 3431 0 
L 469 0 
L 469 531 
Q 828 903 1448 1529 
Q 2069 2156 2228 2338 
Q 2531 2678 2651 2914 
Q 2772 3150 2772 3378 
Q 2772 3750 2511 3984 
Q 2250 4219 1831 4219 
Q 1534 4219 1204 4116 
Q 875 4013 500 3803 
L 500 4441 
Q 881 4594 1212 4672 
Q 1544 4750 1819 4750 
Q 2544 4750 2975 4387 
Q 3406 4025 3406 3419 
Q 3406 3131 3298 2873 
Q 3191 2616 2906 2266 
Q 2828 2175 2409 1742 
Q 1991 1309 1228 531 
z
" transform="scale(0.015625)"/>
       </defs>
       <use xlink:href="#DejaVuSans-15"/>
       <use xlink:href="#DejaVuSans-13" transform="translate(63.625 0)"/>
      </g>
     </g>
    </g>
    <g id="xtick_3">
     <g id="line2d_3">
      <g>
       <use xlink:href="#mfb6f7a11d7" x="199.111445" y="313.600859" style="stroke: #000000; stroke-width: 0.8"/>
      </g>
     </g>
     <g id="text_3">
      <!-- 40 -->
      <g transform="translate(192.748945 328.198516) scale(0.1 -0.1)">
       <defs>
        <path id="DejaVuSans-17" d="M 2419 4116 
L 825 1625 
L 2419 1625 
L 2419 4116 
z
M 2253 4666 
L 3047 4666 
L 3047 1625 
L 3713 1625 
L 3713 1100 
L 3047 1100 
L 3047 0 
L 2419 0 
L 2419 1100 
L 313 1100 
L 313 1709 
L 2253 4666 
z
" transform="scale(0.015625)"/>
       </defs>
       <use xlink:href="#DejaVuSans-17"/>
       <use xlink:href="#DejaVuSans-13" transform="translate(63.625 0)"/>
      </g>
     </g>
    </g>
    <g id="xtick_4">
     <g id="line2d_4">
      <g>
       <use xlink:href="#mfb6f7a11d7" x="266.011539" y="313.600859" style="stroke: #000000; stroke-width: 0.8"/>
      </g>
     </g>
     <g id="text_4">
      <!-- 60 -->
      <g transform="translate(259.649039 328.198516) scale(0.1 -0.1)">
       <defs>
        <path id="DejaVuSans-19" d="M 2113 2584 
Q 1688 2584 1439 2293 
Q 1191 2003 1191 1497 
Q 1191 994 1439 701 
Q 1688 409 2113 409 
Q 2538 409 2786 701 
Q 3034 994 3034 1497 
Q 3034 2003 2786 2293 
Q 2538 2584 2113 2584 
z
M 3366 4563 
L 3366 3988 
Q 3128 4100 2886 4159 
Q 2644 4219 2406 4219 
Q 1781 4219 1451 3797 
Q 1122 3375 1075 2522 
Q 1259 2794 1537 2939 
Q 1816 3084 2150 3084 
Q 2853 3084 3261 2657 
Q 3669 2231 3669 1497 
Q 3669 778 3244 343 
Q 2819 -91 2113 -91 
Q 1303 -91 875 529 
Q 447 1150 447 2328 
Q 447 3434 972 4092 
Q 1497 4750 2381 4750 
Q 2619 4750 2861 4703 
Q 3103 4656 3366 4563 
z
" transform="scale(0.015625)"/>
       </defs>
       <use xlink:href="#DejaVuSans-19"/>
       <use xlink:href="#DejaVuSans-13" transform="translate(63.625 0)"/>
      </g>
     </g>
    </g>
    <g id="xtick_5">
     <g id="line2d_5">
      <g>
       <use xlink:href="#mfb6f7a11d7" x="332.911633" y="313.600859" style="stroke: #000000; stroke-width: 0.8"/>
      </g>
     </g>
     <g id="text_5">
      <!-- 80 -->
      <g transform="translate(326.549133 328.198516) scale(0.1 -0.1)">
       <defs>
        <path id="DejaVuSans-1b" d="M 2034 2216 
Q 1584 2216 1326 1975 
Q 1069 1734 1069 1313 
Q 1069 891 1326 650 
Q 1584 409 2034 409 
Q 2484 409 2743 651 
Q 3003 894 3003 1313 
Q 3003 1734 2745 1975 
Q 2488 2216 2034 2216 
z
M 1403 2484 
Q 997 2584 770 2862 
Q 544 3141 544 3541 
Q 544 4100 942 4425 
Q 1341 4750 2034 4750 
Q 2731 4750 3128 4425 
Q 3525 4100 3525 3541 
Q 3525 3141 3298 2862 
Q 3072 2584 2669 2484 
Q 3125 2378 3379 2068 
Q 3634 1759 3634 1313 
Q 3634 634 3220 271 
Q 2806 -91 2034 -91 
Q 1263 -91 848 271 
Q 434 634 434 1313 
Q 434 1759 690 2068 
Q 947 2378 1403 2484 
z
M 1172 3481 
Q 1172 3119 1398 2916 
Q 1625 2713 2034 2713 
Q 2441 2713 2670 2916 
Q 2900 3119 2900 3481 
Q 2900 3844 2670 4047 
Q 2441 4250 2034 4250 
Q 1625 4250 1398 4047 
Q 1172 3844 1172 3481 
z
" transform="scale(0.015625)"/>
       </defs>
       <use xlink:href="#DejaVuSans-1b"/>
       <use xlink:href="#DejaVuSans-13" transform="translate(63.625 0)"/>
      </g>
     </g>
    </g>
    <g id="xtick_6">
     <g id="line2d_6">
      <g>
       <use xlink:href="#mfb6f7a11d7" x="399.811727" y="313.600859" style="stroke: #000000; stroke-width: 0.8"/>
      </g>
     </g>
     <g id="text_6">
      <!-- 100 -->
      <g transform="translate(390.267977 328.198516) scale(0.1 -0.1)">
       <defs>
        <path id="DejaVuSans-14" d="M 794 531 
L 1825 531 
L 1825 4091 
L 703 3866 
L 703 4441 
L 1819 4666 
L 2450 4666 
L 2450 531 
L 3481 531 
L 3481 0 
L 794 0 
L 794 531 
z
" transform="scale(0.015625)"/>
       </defs>
       <use xlink:href="#DejaVuSans-14"/>
       <use xlink:href="#DejaVuSans-13" transform="translate(63.625 0)"/>
       <use xlink:href="#DejaVuSans-13" transform="translate(127.25 0)"/>
      </g>
     </g>
    </g>
    <g id="xtick_7">
     <g id="line2d_7">
      <g>
       <use xlink:href="#mfb6f7a11d7" x="466.711822" y="313.600859" style="stroke: #000000; stroke-width: 0.8"/>
      </g>
     </g>
     <g id="text_7">
      <!-- 120 -->
      <g transform="translate(457.168072 328.198516) scale(0.1 -0.1)">
       <use xlink:href="#DejaVuSans-14"/>
       <use xlink:href="#DejaVuSans-15" transform="translate(63.625 0)"/>
       <use xlink:href="#DejaVuSans-13" transform="translate(127.25 0)"/>
      </g>
     </g>
    </g>
    <g id="text_8">
     <!-- Time (months) -->
     <g transform="translate(227.169531 342.959141) scale(0.11 -0.11)">
      <defs>
       <path id="DejaVuSans-37" d="M -19 4666 
L 3928 4666 
L 3928 4134 
L 2272 4134 
L 2272 0 
L 1638 0 
L 1638 4134 
L -19 4134 
L -19 4666 
z
" transform="scale(0.015625)"/>
       <path id="DejaVuSans-4c" d="M 603 3500 
L 1178 3500 
L 1178 0 
L 603 0 
L 603 3500 
z
M 603 4863 
L 1178 4863 
L 1178 4134 
L 603 4134 
L 603 4863 
z
" transform="scale(0.015625)"/>
       <path id="DejaVuSans-50" d="M 3328 2828 
Q 3544 3216 3844 3400 
Q 4144 3584 4550 3584 
Q 5097 3584 5394 3201 
Q 5691 2819 5691 2113 
L 5691 0 
L 5113 0 
L 5113 2094 
Q 5113 2597 4934 2840 
Q 4756 3084 4391 3084 
Q 3944 3084 3684 2787 
Q 3425 2491 3425 1978 
L 3425 0 
L 2847 0 
L 2847 2094 
Q 2847 2600 2669 2842 
Q 2491 3084 2119 3084 
Q 1678 3084 1418 2786 
Q 1159 2488 1159 1978 
L 1159 0 
L 581 0 
L 581 3500 
L 1159 3500 
L 1159 2956 
Q 1356 3278 1631 3431 
Q 1906 3584 2284 3584 
Q 2666 3584 2933 3390 
Q 3200 3197 3328 2828 
z
" transform="scale(0.015625)"/>
       <path id="DejaVuSans-48" d="M 3597 1894 
L 3597 1613 
L 953 1613 
Q 991 1019 1311 708 
Q 1631 397 2203 397 
Q 2534 397 2845 478 
Q 3156 559 3463 722 
L 3463 178 
Q 3153 47 2828 -22 
Q 2503 -91 2169 -91 
Q 1331 -91 842 396 
Q 353 884 353 1716 
Q 353 2575 817 3079 
Q 1281 3584 2069 3584 
Q 2775 3584 3186 3129 
Q 3597 2675 3597 1894 
z
M 3022 2063 
Q 3016 2534 2758 2815 
Q 2500 3097 2075 3097 
Q 1594 3097 1305 2825 
Q 1016 2553 972 2059 
L 3022 2063 
z
" transform="scale(0.015625)"/>
       <path id="DejaVuSans-3" transform="scale(0.015625)"/>
       <path id="DejaVuSans-b" d="M 1984 4856 
Q 1566 4138 1362 3434 
Q 1159 2731 1159 2009 
Q 1159 1288 1364 580 
Q 1569 -128 1984 -844 
L 1484 -844 
Q 1016 -109 783 600 
Q 550 1309 550 2009 
Q 550 2706 781 3412 
Q 1013 4119 1484 4856 
L 1984 4856 
z
" transform="scale(0.015625)"/>
       <path id="DejaVuSans-52" d="M 1959 3097 
Q 1497 3097 1228 2736 
Q 959 2375 959 1747 
Q 959 1119 1226 758 
Q 1494 397 1959 397 
Q 2419 397 2687 759 
Q 2956 1122 2956 1747 
Q 2956 2369 2687 2733 
Q 2419 3097 1959 3097 
z
M 1959 3584 
Q 2709 3584 3137 3096 
Q 3566 2609 3566 1747 
Q 3566 888 3137 398 
Q 2709 -91 1959 -91 
Q 1206 -91 779 398 
Q 353 888 353 1747 
Q 353 2609 779 3096 
Q 1206 3584 1959 3584 
z
" transform="scale(0.015625)"/>
       <path id="DejaVuSans-51" d="M 3513 2113 
L 3513 0 
L 2938 0 
L 2938 2094 
Q 2938 2591 2744 2837 
Q 2550 3084 2163 3084 
Q 1697 3084 1428 2787 
Q 1159 2491 1159 1978 
L 1159 0 
L 581 0 
L 581 3500 
L 1159 3500 
L 1159 2956 
Q 1366 3272 1645 3428 
Q 1925 3584 2291 3584 
Q 2894 3584 3203 3211 
Q 3513 2838 3513 2113 
z
" transform="scale(0.015625)"/>
       <path id="DejaVuSans-57" d="M 1172 4494 
L 1172 3500 
L 2356 3500 
L 2356 3053 
L 1172 3053 
L 1172 1153 
Q 1172 725 1289 603 
Q 1406 481 1766 481 
L 2356 481 
L 2356 0 
L 1766 0 
Q 1100 0 847 248 
Q 594 497 594 1153 
L 594 3053 
L 172 3053 
L 172 3500 
L 594 3500 
L 594 4494 
L 1172 4494 
z
" transform="scale(0.015625)"/>
       <path id="DejaVuSans-4b" d="M 3513 2113 
L 3513 0 
L 2938 0 
L 2938 2094 
Q 2938 2591 2744 2837 
Q 2550 3084 2163 3084 
Q 1697 3084 1428 2787 
Q 1159 2491 1159 1978 
L 1159 0 
L 581 0 
L 581 4863 
L 1159 4863 
L 1159 2956 
Q 1366 3272 1645 3428 
Q 1925 3584 2291 3584 
Q 2894 3584 3203 3211 
Q 3513 2838 3513 2113 
z
" transform="scale(0.015625)"/>
       <path id="DejaVuSans-56" d="M 2834 3397 
L 2834 2853 
Q 2591 2978 2328 3040 
Q 2066 3103 1784 3103 
Q 1356 3103 1142 2972 
Q 928 2841 928 2578 
Q 928 2378 1081 2264 
Q 1234 2150 1697 2047 
L 1894 2003 
Q 2506 1872 2764 1633 
Q 3022 1394 3022 966 
Q 3022 478 2636 193 
Q 2250 -91 1575 -91 
Q 1294 -91 989 -36 
Q 684 19 347 128 
L 347 722 
Q 666 556 975 473 
Q 1284 391 1588 391 
Q 1994 391 2212 530 
Q 2431 669 2431 922 
Q 2431 1156 2273 1281 
Q 2116 1406 1581 1522 
L 1381 1569 
Q 847 1681 609 1914 
Q 372 2147 372 2553 
Q 372 3047 722 3315 
Q 1072 3584 1716 3584 
Q 2034 3584 2315 3537 
Q 2597 3491 2834 3397 
z
" transform="scale(0.015625)"/>
       <path id="DejaVuSans-c" d="M 513 4856 
L 1013 4856 
Q 1481 4119 1714 3412 
Q 1947 2706 1947 2009 
Q 1947 1309 1714 600 
Q 1481 -109 1013 -844 
L 513 -844 
Q 928 -128 1133 580 
Q 1338 1288 1338 2009 
Q 1338 2731 1133 3434 
Q 928 4138 513 4856 
z
" transform="scale(0.015625)"/>
      </defs>
      <use xlink:href="#DejaVuSans-37"/>
      <use xlink:href="#DejaVuSans-4c" transform="translate(58 0)"/>
      <use xlink:href="#DejaVuSans-50" transform="translate(85.78125 0)"/>
      <use xlink:href="#DejaVuSans-48" transform="translate(183.1875 0)"/>
      <use xlink:href="#DejaVuSans-3" transform="translate(244.71875 0)"/>
      <use xlink:href="#DejaVuSans-b" transform="translate(276.5 0)"/>
      <use xlink:href="#DejaVuSans-50" transform="translate(315.515625 0)"/>
      <use xlink:href="#DejaVuSans-52" transform="translate(412.921875 0)"/>
      <use xlink:href="#DejaVuSans-51" transform="translate(474.109375 0)"/>
      <use xlink:href="#DejaVuSans-57" transform="translate(537.484375 0)"/>
      <use xlink:href="#DejaVuSans-4b" transform="translate(576.6875 0)"/>
      <use xlink:href="#DejaVuSans-56" transform="translate(640.0625 0)"/>
      <use xlink:href="#DejaVuSans-c" transform="translate(692.15625 0)"/>
     </g>
    </g>
   </g>
   <g id="matplotlib.axis_2">
    <g id="ytick_1">
     <g id="line2d_8">
      <defs>
       <path id="md76aa1fe6c" d="M 0 0 
L -3.5 0 
" style="stroke: #000000; stroke-width: 0.8"/>
      </defs>
      <g>
       <use xlink:href="#md76aa1fe6c" x="45.103984" y="313.600859" style="stroke: #000000; stroke-width: 0.8"/>
      </g>
     </g>
     <g id="text_9">
      <!-- 0.0 -->
      <g transform="translate(22.200859 317.399687) scale(0.1 -0.1)">
       <defs>
        <path id="DejaVuSans-11" d="M 684 794 
L 1344 794 
L 1344 0 
L 684 0 
L 684 794 
z
" transform="scale(0.015625)"/>
       </defs>
       <use xlink:href="#DejaVuSans-13"/>
       <use xlink:href="#DejaVuSans-11" transform="translate(63.625 0)"/>
       <use xlink:href="#DejaVuSans-13" transform="translate(95.40625 0)"/>
      </g>
     </g>
    </g>
    <g id="ytick_2">
     <g id="line2d_9">
      <g>
       <use xlink:href="#md76aa1fe6c" x="45.103984" y="260.698125" style="stroke: #000000; stroke-width: 0.8"/>
      </g>
     </g>
     <g id="text_10">
      <!-- 0.2 -->
      <g transform="translate(22.200859 264.496953) scale(0.1 -0.1)">
       <use xlink:href="#DejaVuSans-13"/>
       <use xlink:href="#DejaVuSans-11" transform="translate(63.625 0)"/>
       <use xlink:href="#DejaVuSans-15" transform="translate(95.40625 0)"/>
      </g>
     </g>
    </g>
    <g id="ytick_3">
     <g id="line2d_10">
      <g>
       <use xlink:href="#md76aa1fe6c" x="45.103984" y="207.795391" style="stroke: #000000; stroke-width: 0.8"/>
      </g>
     </g>
     <g id="text_11">
      <!-- 0.4 -->
      <g transform="translate(22.200859 211.594219) scale(0.1 -0.1)">
       <use xlink:href="#DejaVuSans-13"/>
       <use xlink:href="#DejaVuSans-11" transform="translate(63.625 0)"/>
       <use xlink:href="#DejaVuSans-17" transform="translate(95.40625 0)"/>
      </g>
     </g>
    </g>
    <g id="ytick_4">
     <g id="line2d_11">
      <g>
       <use xlink:href="#md76aa1fe6c" x="45.103984" y="154.892656" style="stroke: #000000; stroke-width: 0.8"/>
      </g>
     </g>
     <g id="text_12">
      <!-- 0.6 -->
      <g transform="translate(22.200859 158.691484) scale(0.1 -0.1)">
       <use xlink:href="#DejaVuSans-13"/>
       <use xlink:href="#DejaVuSans-11" transform="translate(63.625 0)"/>
       <use xlink:href="#DejaVuSans-19" transform="translate(95.40625 0)"/>
      </g>
     </g>
    </g>
    <g id="ytick_5">
     <g id="line2d_12">
      <g>
       <use xlink:href="#md76aa1fe6c" x="45.103984" y="101.989922" style="stroke: #000000; stroke-width: 0.8"/>
      </g>
     </g>
     <g id="text_13">
      <!-- 0.8 -->
      <g transform="translate(22.200859 105.78875) scale(0.1 -0.1)">
       <use xlink:href="#DejaVuSans-13"/>
       <use xlink:href="#DejaVuSans-11" transform="translate(63.625 0)"/>
       <use xlink:href="#DejaVuSans-1b" transform="translate(95.40625 0)"/>
      </g>
     </g>
    </g>
    <g id="ytick_6">
     <g id="line2d_13">
      <g>
       <use xlink:href="#md76aa1fe6c" x="45.103984" y="49.087188" style="stroke: #000000; stroke-width: 0.8"/>
      </g>
     </g>
     <g id="text_14">
      <!-- 1.0 -->
      <g transform="translate(22.200859 52.886016) scale(0.1 -0.1)">
       <use xlink:href="#DejaVuSans-14"/>
       <use xlink:href="#DejaVuSans-11" transform="translate(63.625 0)"/>
       <use xlink:href="#DejaVuSans-13" transform="translate(95.40625 0)"/>
      </g>
     </g>
    </g>
    <g id="text_15">
     <!-- Overall survival probability -->
     <g transform="translate(15.558281 248.778369) rotate(-90) scale(0.11 -0.11)">
      <defs>
       <path id="DejaVuSans-32" d="M 2522 4238 
Q 1834 4238 1429 3725 
Q 1025 3213 1025 2328 
Q 1025 1447 1429 934 
Q 1834 422 2522 422 
Q 3209 422 3611 934 
Q 4013 1447 4013 2328 
Q 4013 3213 3611 3725 
Q 3209 4238 2522 4238 
z
M 2522 4750 
Q 3503 4750 4090 4092 
Q 4678 3434 4678 2328 
Q 4678 1225 4090 567 
Q 3503 -91 2522 -91 
Q 1538 -91 948 565 
Q 359 1222 359 2328 
Q 359 3434 948 4092 
Q 1538 4750 2522 4750 
z
" transform="scale(0.015625)"/>
       <path id="DejaVuSans-59" d="M 191 3500 
L 800 3500 
L 1894 563 
L 2988 3500 
L 3597 3500 
L 2284 0 
L 1503 0 
L 191 3500 
z
" transform="scale(0.015625)"/>
       <path id="DejaVuSans-55" d="M 2631 2963 
Q 2534 3019 2420 3045 
Q 2306 3072 2169 3072 
Q 1681 3072 1420 2755 
Q 1159 2438 1159 1844 
L 1159 0 
L 581 0 
L 581 3500 
L 1159 3500 
L 1159 2956 
Q 1341 3275 1631 3429 
Q 1922 3584 2338 3584 
Q 2397 3584 2469 3576 
Q 2541 3569 2628 3553 
L 2631 2963 
z
" transform="scale(0.015625)"/>
       <path id="DejaVuSans-44" d="M 2194 1759 
Q 1497 1759 1228 1600 
Q 959 1441 959 1056 
Q 959 750 1161 570 
Q 1363 391 1709 391 
Q 2188 391 2477 730 
Q 2766 1069 2766 1631 
L 2766 1759 
L 2194 1759 
z
M 3341 1997 
L 3341 0 
L 2766 0 
L 2766 531 
Q 2569 213 2275 61 
Q 1981 -91 1556 -91 
Q 1019 -91 701 211 
Q 384 513 384 1019 
Q 384 1609 779 1909 
Q 1175 2209 1959 2209 
L 2766 2209 
L 2766 2266 
Q 2766 2663 2505 2880 
Q 2244 3097 1772 3097 
Q 1472 3097 1187 3025 
Q 903 2953 641 2809 
L 641 3341 
Q 956 3463 1253 3523 
Q 1550 3584 1831 3584 
Q 2591 3584 2966 3190 
Q 3341 2797 3341 1997 
z
" transform="scale(0.015625)"/>
       <path id="DejaVuSans-4f" d="M 603 4863 
L 1178 4863 
L 1178 0 
L 603 0 
L 603 4863 
z
" transform="scale(0.015625)"/>
       <path id="DejaVuSans-58" d="M 544 1381 
L 544 3500 
L 1119 3500 
L 1119 1403 
Q 1119 906 1312 657 
Q 1506 409 1894 409 
Q 2359 409 2629 706 
Q 2900 1003 2900 1516 
L 2900 3500 
L 3475 3500 
L 3475 0 
L 2900 0 
L 2900 538 
Q 2691 219 2414 64 
Q 2138 -91 1772 -91 
Q 1169 -91 856 284 
Q 544 659 544 1381 
z
M 1991 3584 
L 1991 3584 
z
" transform="scale(0.015625)"/>
       <path id="DejaVuSans-53" d="M 1159 525 
L 1159 -1331 
L 581 -1331 
L 581 3500 
L 1159 3500 
L 1159 2969 
Q 1341 3281 1617 3432 
Q 1894 3584 2278 3584 
Q 2916 3584 3314 3078 
Q 3713 2572 3713 1747 
Q 3713 922 3314 415 
Q 2916 -91 2278 -91 
Q 1894 -91 1617 61 
Q 1341 213 1159 525 
z
M 3116 1747 
Q 3116 2381 2855 2742 
Q 2594 3103 2138 3103 
Q 1681 3103 1420 2742 
Q 1159 2381 1159 1747 
Q 1159 1113 1420 752 
Q 1681 391 2138 391 
Q 2594 391 2855 752 
Q 3116 1113 3116 1747 
z
" transform="scale(0.015625)"/>
       <path id="DejaVuSans-45" d="M 3116 1747 
Q 3116 2381 2855 2742 
Q 2594 3103 2138 3103 
Q 1681 3103 1420 2742 
Q 1159 2381 1159 1747 
Q 1159 1113 1420 752 
Q 1681 391 2138 391 
Q 2594 391 2855 752 
Q 3116 1113 3116 1747 
z
M 1159 2969 
Q 1341 3281 1617 3432 
Q 1894 3584 2278 3584 
Q 2916 3584 3314 3078 
Q 3713 2572 3713 1747 
Q 3713 922 3314 415 
Q 2916 -91 2278 -91 
Q 1894 -91 1617 61 
Q 1341 213 1159 525 
L 1159 0 
L 581 0 
L 581 4863 
L 1159 4863 
L 1159 2969 
z
" transform="scale(0.015625)"/>
       <path id="DejaVuSans-5c" d="M 2059 -325 
Q 1816 -950 1584 -1140 
Q 1353 -1331 966 -1331 
L 506 -1331 
L 506 -850 
L 844 -850 
Q 1081 -850 1212 -737 
Q 1344 -625 1503 -206 
L 1606 56 
L 191 3500 
L 800 3500 
L 1894 763 
L 2988 3500 
L 3597 3500 
L 2059 -325 
z
" transform="scale(0.015625)"/>
      </defs>
      <use xlink:href="#DejaVuSans-32"/>
      <use xlink:href="#DejaVuSans-59" transform="translate(78.71875 0)"/>
      <use xlink:href="#DejaVuSans-48" transform="translate(137.90625 0)"/>
      <use xlink:href="#DejaVuSans-55" transform="translate(199.4375 0)"/>
      <use xlink:href="#DejaVuSans-44" transform="translate(240.546875 0)"/>
      <use xlink:href="#DejaVuSans-4f" transform="translate(301.828125 0)"/>
      <use xlink:href="#DejaVuSans-4f" transform="translate(329.609375 0)"/>
      <use xlink:href="#DejaVuSans-3" transform="translate(357.390625 0)"/>
      <use xlink:href="#DejaVuSans-56" transform="translate(389.171875 0)"/>
      <use xlink:href="#DejaVuSans-58" transform="translate(441.265625 0)"/>
      <use xlink:href="#DejaVuSans-55" transform="translate(504.640625 0)"/>
      <use xlink:href="#DejaVuSans-59" transform="translate(545.75 0)"/>
      <use xlink:href="#DejaVuSans-4c" transform="translate(604.9375 0)"/>
      <use xlink:href="#DejaVuSans-59" transform="translate(632.71875 0)"/>
      <use xlink:href="#DejaVuSans-44" transform="translate(691.90625 0)"/>
      <use xlink:href="#DejaVuSans-4f" transform="translate(753.1875 0)"/>
      <use xlink:href="#DejaVuSans-3" transform="translate(780.96875 0)"/>
      <use xlink:href="#DejaVuSans-53" transform="translate(812.75 0)"/>
      <use xlink:href="#DejaVuSans-55" transform="translate(876.234375 0)"/>
      <use xlink:href="#DejaVuSans-52" transform="translate(915.140625 0)"/>
      <use xlink:href="#DejaVuSans-45" transform="translate(976.328125 0)"/>
      <use xlink:href="#DejaVuSans-44" transform="translate(1039.8125 0)"/>
      <use xlink:href="#DejaVuSans-45" transform="translate(1101.09375 0)"/>
      <use xlink:href="#DejaVuSans-4c" transform="translate(1164.578125 0)"/>
      <use xlink:href="#DejaVuSans-4f" transform="translate(1192.359375 0)"/>
      <use xlink:href="#DejaVuSans-4c" transform="translate(1220.140625 0)"/>
      <use xlink:href="#DejaVuSans-57" transform="translate(1247.921875 0)"/>
      <use xlink:href="#DejaVuSans-5c" transform="translate(1287.125 0)"/>
     </g>
    </g>
   </g>
   <g id="line2d_14">
    <path d="M 65.311257 49.087188 
L 69.05029 49.087188 
L 69.05029 53.156629 
L 71.469664 53.156629 
L 71.469664 57.22607 
L 76.528355 57.22607 
L 76.528355 61.361147 
L 84.116393 61.361147 
L 84.116393 65.636396 
L 90.934629 65.636396 
L 90.934629 69.911646 
L 95.223519 69.911646 
L 95.223519 74.263239 
L 95.883349 74.263239 
L 95.99332 82.966425 
L 111.059423 82.966425 
L 111.059423 87.771309 
L 111.389337 87.771309 
L 111.389337 92.576193 
L 112.818968 92.576193 
L 112.818968 97.381077 
L 116.887915 97.381077 
L 116.887915 102.65473 
L 124.146038 102.65473 
L 124.146038 108.514345 
L 125.465696 108.514345 
L 125.465696 114.37396 
L 126.45544 114.37396 
L 126.45544 120.411139 
L 134.92325 120.411139 
L 134.92325 126.448317 
L 136.682794 126.448317 
L 136.682794 132.686735 
L 149.769409 132.686735 
L 149.769409 140.224824 
L 157.357446 140.224824 
L 157.357446 147.762912 
L 164.175683 147.762912 
L 164.175683 156.05481 
L 190.128969 156.05481 
L 190.128969 164.807368 
L 200.466295 164.807368 
L 200.466295 173.559926 
L 218.941516 173.559926 
L 218.941516 184.332306 
L 447.792316 184.332306 
L 447.792316 184.332306 
" clip-path="url(#p6a8539f259)" style="fill: none; stroke: #2196f3; stroke-width: 1.5; stroke-linecap: square"/>
   </g>
   <g id="line2d_15">
    <path d="M 65.311257 49.087188 
L 66.301001 49.087188 
L 66.301001 50.247335 
L 66.520944 50.247335 
L 66.630916 52.577897 
L 66.850859 52.577897 
L 66.850859 53.748404 
L 67.070802 53.748404 
L 67.070802 54.91891 
L 67.400717 54.91891 
L 67.400717 56.089417 
L 67.510688 56.089417 
L 68.280489 56.089417 
L 68.280489 57.276106 
L 69.270233 57.276106 
L 69.270233 58.462794 
L 71.029778 58.462794 
L 71.029778 59.655028 
L 71.469664 59.655028 
L 71.469664 60.847262 
L 72.459408 60.847262 
L 72.459408 62.039496 
L 72.679351 62.039496 
L 72.679351 63.23173 
L 74.878782 63.23173 
L 74.878782 64.423964 
L 75.318668 64.423964 
L 75.318668 65.616198 
L 75.978498 65.616198 
L 75.978498 66.814192 
L 76.418384 66.814192 
L 76.418384 68.012185 
L 77.957986 68.012185 
L 77.957986 69.210179 
L 79.497587 69.210179 
L 79.497587 70.408172 
L 80.707274 70.408172 
L 80.707274 71.606166 
L 82.136905 71.606166 
L 82.136905 72.804159 
L 84.116393 72.804159 
L 84.116393 74.008143 
L 86.645738 74.008143 
L 86.75571 76.428271 
L 88.845169 76.428271 
L 88.845169 77.644541 
L 89.175084 77.644541 
L 89.175084 78.860811 
L 89.834913 78.860811 
L 89.834913 80.083415 
L 92.47423 80.083415 
L 92.47423 81.312454 
L 92.584202 81.312454 
L 94.123804 81.312454 
L 94.123804 83.796822 
L 96.433206 83.796822 
L 96.433206 85.039006 
L 98.192751 85.039006 
L 98.192751 86.28119 
L 99.952296 86.28119 
L 99.952296 87.5371 
L 103.141471 87.5371 
L 103.141471 88.814296 
L 103.471386 88.814296 
L 103.471386 90.091493 
L 103.691329 90.091493 
L 103.691329 91.376029 
L 104.791044 91.376029 
L 104.791044 92.668034 
L 105.450874 92.668034 
L 105.450874 93.990985 
L 105.560845 93.990985 
L 106.330646 93.990985 
L 106.330646 95.338285 
L 107.210419 95.338285 
L 107.210419 96.685585 
L 108.640049 96.685585 
L 108.640049 98.032885 
L 108.75002 98.032885 
L 110.399594 98.032885 
L 110.399594 99.441826 
L 110.949451 99.441826 
L 110.949451 100.850767 
L 112.049167 100.850767 
L 112.049167 102.269101 
L 113.478797 102.269101 
L 113.478797 103.716578 
L 115.018399 103.716578 
L 115.018399 105.174108 
L 126.345469 105.174108 
L 126.345469 106.753099 
L 126.675383 106.753099 
L 126.675383 108.344235 
L 130.854302 108.344235 
L 130.854302 110.069081 
L 131.40416 110.069081 
L 131.40416 111.793926 
L 131.514132 111.793926 
L 132.613847 111.793926 
L 132.613847 113.579829 
L 134.26342 113.579829 
L 134.26342 115.38182 
L 136.022965 115.38182 
L 136.022965 117.26962 
L 136.132937 117.26962 
L 137.892482 117.26962 
L 137.892482 119.213494 
L 140.971685 119.213494 
L 140.971685 121.177003 
L 141.521543 121.177003 
L 141.521543 123.140511 
L 143.501031 123.140511 
L 143.501031 125.188472 
L 144.930661 125.188472 
L 144.930661 127.258938 
L 148.559722 127.258938 
L 148.559722 129.425704 
L 149.439495 129.425704 
L 149.439495 131.592471 
L 149.989352 131.592471 
L 149.989352 133.759237 
L 153.508442 133.759237 
L 153.508442 136.007258 
L 158.567133 136.007258 
L 158.567133 138.375172 
L 158.677105 138.375172 
L 175.832667 138.375172 
L 175.832667 140.990481 
L 184.960306 140.990481 
L 184.960306 143.820159 
L 198.376835 143.820159 
L 198.376835 146.798768 
L 205.0851 146.798768 
L 205.0851 149.945978 
L 216.192227 149.945978 
L 216.192227 153.285873 
L 217.731828 153.285873 
L 217.731828 156.625769 
L 221.800776 156.625769 
L 221.800776 159.965664 
L 221.910747 159.965664 
L 229.16887 159.965664 
L 229.16887 163.538576 
L 236.866879 163.538576 
L 236.866879 167.386327 
L 243.685115 167.386327 
L 243.685115 171.563885 
L 243.905058 171.563885 
L 243.905058 175.741443 
L 250.613323 175.741443 
L 250.613323 180.049549 
L 251.603067 180.049549 
L 251.603067 184.357656 
L 298.011062 184.357656 
L 298.011062 191.15993 
L 299.660635 191.15993 
L 299.660635 197.962204 
L 335.401389 197.962204 
L 335.401389 210.810943 
L 338.700536 210.810943 
L 338.700536 223.659683 
L 343.759227 223.659683 
L 343.759227 236.508422 
L 344.858943 236.508422 
L 344.858943 249.357162 
L 408.972358 249.357162 
L 408.972358 265.418086 
L 469.456712 265.418086 
L 469.456712 265.418086 
" clip-path="url(#p6a8539f259)" style="fill: none; stroke: #ff9800; stroke-width: 1.5; stroke-linecap: square"/>
   </g>
   <g id="line2d_16">
    <path d="M 65.311257 49.087188 
L 66.96083 49.087188 
L 66.96083 49.087188 
L 68.720375 49.087188 
L 68.720375 53.727778 
L 70.369949 53.727778 
L 70.369949 58.368369 
L 72.459408 58.368369 
L 72.459408 63.00896 
L 75.318668 63.00896 
L 75.318668 67.64955 
L 76.638327 67.64955 
L 76.638327 72.290141 
L 77.078213 72.290141 
L 77.078213 76.930732 
L 79.497587 76.930732 
L 79.497587 81.571323 
L 85.436051 81.571323 
L 85.436051 81.571323 
L 97.862837 81.571323 
L 97.862837 86.306619 
L 98.302723 86.306619 
L 98.302723 91.041916 
L 98.632637 91.041916 
L 98.632637 95.777213 
L 98.742609 95.777213 
L 98.742609 100.512509 
L 99.182495 100.512509 
L 99.182495 105.247806 
L 101.381926 105.247806 
L 101.381926 105.247806 
L 101.601869 105.247806 
L 101.601869 105.247806 
L 104.571101 105.247806 
L 104.571101 105.247806 
L 105.230931 105.247806 
L 105.230931 105.247806 
L 105.560845 105.247806 
L 105.560845 110.456632 
L 107.32039 110.456632 
L 107.32039 110.456632 
L 107.870248 110.456632 
L 107.870248 110.456632 
L 109.189906 110.456632 
L 109.189906 110.456632 
L 110.289622 110.456632 
L 110.289622 110.456632 
L 110.619537 110.456632 
L 110.619537 116.260753 
L 114.688484 116.260753 
L 114.688484 116.260753 
L 122.496464 116.260753 
L 122.496464 116.260753 
L 127.555156 116.260753 
L 127.555156 116.260753 
L 129.204729 116.260753 
L 129.204729 122.838757 
L 133.603591 122.838757 
L 133.603591 122.838757 
L 135.583079 122.838757 
L 135.583079 129.651689 
L 138.112425 129.651689 
L 138.112425 129.651689 
L 142.401315 129.651689 
L 142.401315 129.651689 
L 147.460007 129.651689 
L 147.460007 129.651689 
L 151.528954 129.651689 
L 151.528954 129.651689 
L 156.257731 129.651689 
L 156.257731 137.649479 
L 157.357446 137.649479 
L 157.357446 145.647269 
L 159.226963 145.647269 
L 159.226963 145.647269 
L 161.976251 145.647269 
L 161.976251 145.647269 
L 164.945483 145.647269 
L 164.945483 145.647269 
L 167.034943 145.647269 
L 167.034943 145.647269 
L 167.694772 145.647269 
L 167.694772 155.526892 
L 168.904459 155.526892 
L 168.904459 155.526892 
L 174.073122 155.526892 
L 174.073122 155.526892 
L 178.581956 155.526892 
L 178.581956 155.526892 
L 182.650903 155.526892 
L 182.650903 155.526892 
L 191.228684 155.526892 
L 191.228684 155.526892 
L 191.448627 155.526892 
L 191.448627 169.897253 
L 191.668571 169.897253 
L 191.668571 184.267613 
L 207.724417 184.267613 
L 207.724417 184.267613 
L 262.270307 184.267613 
L 262.270307 200.434269 
L 268.978572 200.434269 
L 268.978572 216.600925 
L 318.355799 216.600925 
L 318.355799 216.600925 
L 333.861788 216.600925 
L 333.861788 216.600925 
L 335.291418 216.600925 
L 335.291418 216.600925 
L 341.669768 216.600925 
L 341.669768 216.600925 
L 367.293139 216.600925 
L 367.293139 216.600925 
L 423.598574 216.600925 
L 423.598574 313.600859 
" clip-path="url(#p6a8539f259)" style="fill: none; stroke: #f44336; stroke-width: 1.5; stroke-linecap: square"/>
   </g>
   <g id="patch_3">
    <path d="M 45.103984 313.600859 
L 45.103984 35.861504 
" style="fill: none; stroke: #000000; stroke-width: 0.8; stroke-linejoin: miter; stroke-linecap: square"/>
   </g>
   <g id="patch_4">
    <path d="M 45.103984 313.600859 
L 489.663984 313.600859 
" style="fill: none; stroke: #000000; stroke-width: 0.8; stroke-linejoin: miter; stroke-linecap: square"/>
   </g>
   <g id="text_16">
    <g id="patch_5">
     <path d="M 320.731184 82.924751 
L 417.460872 82.924751 
Q 420.460872 82.924751 420.460872 79.924751 
L 420.460872 69.92397 
Q 420.460872 66.92397 417.460872 66.92397 
L 320.731184 66.92397 
Q 317.731184 66.92397 317.731184 69.92397 
L 317.731184 79.924751 
Q 317.731184 82.924751 320.731184 82.924751 
z
" style="fill: #ffffff; opacity: 0.8; stroke: #000000; stroke-linejoin: miter"/>
    </g>
    <!-- Log-rank p = 0.753 -->
    <g transform="translate(320.731184 77.522407) scale(0.1 -0.1)">
     <defs>
      <path id="DejaVuSans-2f" d="M 628 4666 
L 1259 4666 
L 1259 531 
L 3531 531 
L 3531 0 
L 628 0 
L 628 4666 
z
" transform="scale(0.015625)"/>
      <path id="DejaVuSans-4a" d="M 2906 1791 
Q 2906 2416 2648 2759 
Q 2391 3103 1925 3103 
Q 1463 3103 1205 2759 
Q 947 2416 947 1791 
Q 947 1169 1205 825 
Q 1463 481 1925 481 
Q 2391 481 2648 825 
Q 2906 1169 2906 1791 
z
M 3481 434 
Q 3481 -459 3084 -895 
Q 2688 -1331 1869 -1331 
Q 1566 -1331 1297 -1286 
Q 1028 -1241 775 -1147 
L 775 -588 
Q 1028 -725 1275 -790 
Q 1522 -856 1778 -856 
Q 2344 -856 2625 -561 
Q 2906 -266 2906 331 
L 2906 616 
Q 2728 306 2450 153 
Q 2172 0 1784 0 
Q 1141 0 747 490 
Q 353 981 353 1791 
Q 353 2603 747 3093 
Q 1141 3584 1784 3584 
Q 2172 3584 2450 3431 
Q 2728 3278 2906 2969 
L 2906 3500 
L 3481 3500 
L 3481 434 
z
" transform="scale(0.015625)"/>
      <path id="DejaVuSans-10" d="M 313 2009 
L 1997 2009 
L 1997 1497 
L 313 1497 
L 313 2009 
z
" transform="scale(0.015625)"/>
      <path id="DejaVuSans-4e" d="M 581 4863 
L 1159 4863 
L 1159 1991 
L 2875 3500 
L 3609 3500 
L 1753 1863 
L 3688 0 
L 2938 0 
L 1159 1709 
L 1159 0 
L 581 0 
L 581 4863 
z
" transform="scale(0.015625)"/>
      <path id="DejaVuSans-20" d="M 678 2906 
L 4684 2906 
L 4684 2381 
L 678 2381 
L 678 2906 
z
M 678 1631 
L 4684 1631 
L 4684 1100 
L 678 1100 
L 678 1631 
z
" transform="scale(0.015625)"/>
      <path id="DejaVuSans-1a" d="M 525 4666 
L 3525 4666 
L 3525 4397 
L 1831 0 
L 1172 0 
L 2766 4134 
L 525 4134 
L 525 4666 
z
" transform="scale(0.015625)"/>
      <path id="DejaVuSans-18" d="M 691 4666 
L 3169 4666 
L 3169 4134 
L 1269 4134 
L 1269 2991 
Q 1406 3038 1543 3061 
Q 1681 3084 1819 3084 
Q 2600 3084 3056 2656 
Q 3513 2228 3513 1497 
Q 3513 744 3044 326 
Q 2575 -91 1722 -91 
Q 1428 -91 1123 -41 
Q 819 9 494 109 
L 494 744 
Q 775 591 1075 516 
Q 1375 441 1709 441 
Q 2250 441 2565 725 
Q 2881 1009 2881 1497 
Q 2881 1984 2565 2268 
Q 2250 2553 1709 2553 
Q 1456 2553 1204 2497 
Q 953 2441 691 2322 
L 691 4666 
z
" transform="scale(0.015625)"/>
      <path id="DejaVuSans-16" d="M 2597 2516 
Q 3050 2419 3304 2112 
Q 3559 1806 3559 1356 
Q 3559 666 3084 287 
Q 2609 -91 1734 -91 
Q 1441 -91 1130 -33 
Q 819 25 488 141 
L 488 750 
Q 750 597 1062 519 
Q 1375 441 1716 441 
Q 2309 441 2620 675 
Q 2931 909 2931 1356 
Q 2931 1769 2642 2001 
Q 2353 2234 1838 2234 
L 1294 2234 
L 1294 2753 
L 1863 2753 
Q 2328 2753 2575 2939 
Q 2822 3125 2822 3475 
Q 2822 3834 2567 4026 
Q 2313 4219 1838 4219 
Q 1578 4219 1281 4162 
Q 984 4106 628 3988 
L 628 4550 
Q 988 4650 1302 4700 
Q 1616 4750 1894 4750 
Q 2613 4750 3031 4423 
Q 3450 4097 3450 3541 
Q 3450 3153 3228 2886 
Q 3006 2619 2597 2516 
z
" transform="scale(0.015625)"/>
     </defs>
     <use xlink:href="#DejaVuSans-2f"/>
     <use xlink:href="#DejaVuSans-52" transform="translate(53.96875 0)"/>
     <use xlink:href="#DejaVuSans-4a" transform="translate(115.15625 0)"/>
     <use xlink:href="#DejaVuSans-10" transform="translate(178.640625 0)"/>
     <use xlink:href="#DejaVuSans-55" transform="translate(214.71875 0)"/>
     <use xlink:href="#DejaVuSans-44" transform="translate(255.828125 0)"/>
     <use xlink:href="#DejaVuSans-51" transform="translate(317.109375 0)"/>
     <use xlink:href="#DejaVuSans-4e" transform="translate(380.484375 0)"/>
     <use xlink:href="#DejaVuSans-3" transform="translate(438.390625 0)"/>
     <use xlink:href="#DejaVuSans-53" transform="translate(470.171875 0)"/>
     <use xlink:href="#DejaVuSans-3" transform="translate(533.65625 0)"/>
     <use xlink:href="#DejaVuSans-20" transform="translate(565.4375 0)"/>
     <use xlink:href="#DejaVuSans-3" transform="translate(649.234375 0)"/>
     <use xlink:href="#DejaVuSans-13" transform="translate(681.015625 0)"/>
     <use xlink:href="#DejaVuSans-11" transform="translate(744.640625 0)"/>
     <use xlink:href="#DejaVuSans-1a" transform="translate(776.421875 0)"/>
     <use xlink:href="#DejaVuSans-18" transform="translate(840.046875 0)"/>
     <use xlink:href="#DejaVuSans-16" transform="translate(903.671875 0)"/>
    </g>
   </g>
   <g id="text_17">
    <!-- Overall Survival by EMT Phenotype -->
    <g transform="translate(158.539844 16.659355) scale(0.11 -0.11)">
     <defs>
      <path id="DejaVuSans-Bold-32" d="M 2719 3878 
Q 2169 3878 1866 3472 
Q 1563 3066 1563 2328 
Q 1563 1594 1866 1187 
Q 2169 781 2719 781 
Q 3272 781 3575 1187 
Q 3878 1594 3878 2328 
Q 3878 3066 3575 3472 
Q 3272 3878 2719 3878 
z
M 2719 4750 
Q 3844 4750 4481 4106 
Q 5119 3463 5119 2328 
Q 5119 1197 4481 553 
Q 3844 -91 2719 -91 
Q 1597 -91 958 553 
Q 319 1197 319 2328 
Q 319 3463 958 4106 
Q 1597 4750 2719 4750 
z
" transform="scale(0.015625)"/>
      <path id="DejaVuSans-Bold-59" d="M 97 3500 
L 1216 3500 
L 2088 1081 
L 2956 3500 
L 4078 3500 
L 2700 0 
L 1472 0 
L 97 3500 
z
" transform="scale(0.015625)"/>
      <path id="DejaVuSans-Bold-48" d="M 4031 1759 
L 4031 1441 
L 1416 1441 
Q 1456 1047 1700 850 
Q 1944 653 2381 653 
Q 2734 653 3104 758 
Q 3475 863 3866 1075 
L 3866 213 
Q 3469 63 3072 -14 
Q 2675 -91 2278 -91 
Q 1328 -91 801 392 
Q 275 875 275 1747 
Q 275 2603 792 3093 
Q 1309 3584 2216 3584 
Q 3041 3584 3536 3087 
Q 4031 2591 4031 1759 
z
M 2881 2131 
Q 2881 2450 2695 2645 
Q 2509 2841 2209 2841 
Q 1884 2841 1681 2658 
Q 1478 2475 1428 2131 
L 2881 2131 
z
" transform="scale(0.015625)"/>
      <path id="DejaVuSans-Bold-55" d="M 3138 2547 
Q 2991 2616 2845 2648 
Q 2700 2681 2553 2681 
Q 2122 2681 1889 2404 
Q 1656 2128 1656 1613 
L 1656 0 
L 538 0 
L 538 3500 
L 1656 3500 
L 1656 2925 
Q 1872 3269 2151 3426 
Q 2431 3584 2822 3584 
Q 2878 3584 2943 3579 
Q 3009 3575 3134 3559 
L 3138 2547 
z
" transform="scale(0.015625)"/>
      <path id="DejaVuSans-Bold-44" d="M 2106 1575 
Q 1756 1575 1579 1456 
Q 1403 1338 1403 1106 
Q 1403 894 1545 773 
Q 1688 653 1941 653 
Q 2256 653 2472 879 
Q 2688 1106 2688 1447 
L 2688 1575 
L 2106 1575 
z
M 3816 1997 
L 3816 0 
L 2688 0 
L 2688 519 
Q 2463 200 2181 54 
Q 1900 -91 1497 -91 
Q 953 -91 614 226 
Q 275 544 275 1050 
Q 275 1666 698 1953 
Q 1122 2241 2028 2241 
L 2688 2241 
L 2688 2328 
Q 2688 2594 2478 2717 
Q 2269 2841 1825 2841 
Q 1466 2841 1156 2769 
Q 847 2697 581 2553 
L 581 3406 
Q 941 3494 1303 3539 
Q 1666 3584 2028 3584 
Q 2975 3584 3395 3211 
Q 3816 2838 3816 1997 
z
" transform="scale(0.015625)"/>
      <path id="DejaVuSans-Bold-4f" d="M 538 4863 
L 1656 4863 
L 1656 0 
L 538 0 
L 538 4863 
z
" transform="scale(0.015625)"/>
      <path id="DejaVuSans-Bold-3" transform="scale(0.015625)"/>
      <path id="DejaVuSans-Bold-36" d="M 3834 4519 
L 3834 3531 
Q 3450 3703 3084 3790 
Q 2719 3878 2394 3878 
Q 1963 3878 1756 3759 
Q 1550 3641 1550 3391 
Q 1550 3203 1689 3098 
Q 1828 2994 2194 2919 
L 2706 2816 
Q 3484 2659 3812 2340 
Q 4141 2022 4141 1434 
Q 4141 663 3683 286 
Q 3225 -91 2284 -91 
Q 1841 -91 1394 -6 
Q 947 78 500 244 
L 500 1259 
Q 947 1022 1364 901 
Q 1781 781 2169 781 
Q 2563 781 2772 912 
Q 2981 1044 2981 1288 
Q 2981 1506 2839 1625 
Q 2697 1744 2272 1838 
L 1806 1941 
Q 1106 2091 782 2419 
Q 459 2747 459 3303 
Q 459 4000 909 4375 
Q 1359 4750 2203 4750 
Q 2588 4750 2994 4692 
Q 3400 4634 3834 4519 
z
" transform="scale(0.015625)"/>
      <path id="DejaVuSans-Bold-58" d="M 500 1363 
L 500 3500 
L 1625 3500 
L 1625 3150 
Q 1625 2866 1622 2436 
Q 1619 2006 1619 1863 
Q 1619 1441 1641 1255 
Q 1663 1069 1716 984 
Q 1784 875 1895 815 
Q 2006 756 2150 756 
Q 2500 756 2700 1025 
Q 2900 1294 2900 1772 
L 2900 3500 
L 4019 3500 
L 4019 0 
L 2900 0 
L 2900 506 
Q 2647 200 2364 54 
Q 2081 -91 1741 -91 
Q 1134 -91 817 281 
Q 500 653 500 1363 
z
" transform="scale(0.015625)"/>
      <path id="DejaVuSans-Bold-4c" d="M 538 3500 
L 1656 3500 
L 1656 0 
L 538 0 
L 538 3500 
z
M 538 4863 
L 1656 4863 
L 1656 3950 
L 538 3950 
L 538 4863 
z
" transform="scale(0.015625)"/>
      <path id="DejaVuSans-Bold-45" d="M 2400 722 
Q 2759 722 2948 984 
Q 3138 1247 3138 1747 
Q 3138 2247 2948 2509 
Q 2759 2772 2400 2772 
Q 2041 2772 1848 2508 
Q 1656 2244 1656 1747 
Q 1656 1250 1848 986 
Q 2041 722 2400 722 
z
M 1656 2988 
Q 1888 3294 2169 3439 
Q 2450 3584 2816 3584 
Q 3463 3584 3878 3070 
Q 4294 2556 4294 1747 
Q 4294 938 3878 423 
Q 3463 -91 2816 -91 
Q 2450 -91 2169 54 
Q 1888 200 1656 506 
L 1656 0 
L 538 0 
L 538 4863 
L 1656 4863 
L 1656 2988 
z
" transform="scale(0.015625)"/>
      <path id="DejaVuSans-Bold-5c" d="M 78 3500 
L 1197 3500 
L 2138 1125 
L 2938 3500 
L 4056 3500 
L 2584 -331 
Q 2363 -916 2067 -1148 
Q 1772 -1381 1288 -1381 
L 641 -1381 
L 641 -647 
L 991 -647 
Q 1275 -647 1404 -556 
Q 1534 -466 1606 -231 
L 1638 -134 
L 78 3500 
z
" transform="scale(0.015625)"/>
      <path id="DejaVuSans-Bold-28" d="M 588 4666 
L 3834 4666 
L 3834 3756 
L 1791 3756 
L 1791 2888 
L 3713 2888 
L 3713 1978 
L 1791 1978 
L 1791 909 
L 3903 909 
L 3903 0 
L 588 0 
L 588 4666 
z
" transform="scale(0.015625)"/>
      <path id="DejaVuSans-Bold-30" d="M 588 4666 
L 2119 4666 
L 3181 2169 
L 4250 4666 
L 5778 4666 
L 5778 0 
L 4641 0 
L 4641 3413 
L 3566 897 
L 2803 897 
L 1728 3413 
L 1728 0 
L 588 0 
L 588 4666 
z
" transform="scale(0.015625)"/>
      <path id="DejaVuSans-Bold-37" d="M 31 4666 
L 4331 4666 
L 4331 3756 
L 2784 3756 
L 2784 0 
L 1581 0 
L 1581 3756 
L 31 3756 
L 31 4666 
z
" transform="scale(0.015625)"/>
      <path id="DejaVuSans-Bold-33" d="M 588 4666 
L 2584 4666 
Q 3475 4666 3951 4270 
Q 4428 3875 4428 3144 
Q 4428 2409 3951 2014 
Q 3475 1619 2584 1619 
L 1791 1619 
L 1791 0 
L 588 0 
L 588 4666 
z
M 1791 3794 
L 1791 2491 
L 2456 2491 
Q 2806 2491 2997 2661 
Q 3188 2831 3188 3144 
Q 3188 3456 2997 3625 
Q 2806 3794 2456 3794 
L 1791 3794 
z
" transform="scale(0.015625)"/>
      <path id="DejaVuSans-Bold-4b" d="M 4056 2131 
L 4056 0 
L 2931 0 
L 2931 347 
L 2931 1625 
Q 2931 2084 2911 2256 
Q 2891 2428 2841 2509 
Q 2775 2619 2662 2680 
Q 2550 2741 2406 2741 
Q 2056 2741 1856 2470 
Q 1656 2200 1656 1722 
L 1656 0 
L 538 0 
L 538 4863 
L 1656 4863 
L 1656 2988 
Q 1909 3294 2193 3439 
Q 2478 3584 2822 3584 
Q 3428 3584 3742 3212 
Q 4056 2841 4056 2131 
z
" transform="scale(0.015625)"/>
      <path id="DejaVuSans-Bold-51" d="M 4056 2131 
L 4056 0 
L 2931 0 
L 2931 347 
L 2931 1631 
Q 2931 2084 2911 2256 
Q 2891 2428 2841 2509 
Q 2775 2619 2662 2680 
Q 2550 2741 2406 2741 
Q 2056 2741 1856 2470 
Q 1656 2200 1656 1722 
L 1656 0 
L 538 0 
L 538 3500 
L 1656 3500 
L 1656 2988 
Q 1909 3294 2193 3439 
Q 2478 3584 2822 3584 
Q 3428 3584 3742 3212 
Q 4056 2841 4056 2131 
z
" transform="scale(0.015625)"/>
      <path id="DejaVuSans-Bold-52" d="M 2203 2784 
Q 1831 2784 1636 2517 
Q 1441 2250 1441 1747 
Q 1441 1244 1636 976 
Q 1831 709 2203 709 
Q 2569 709 2762 976 
Q 2956 1244 2956 1747 
Q 2956 2250 2762 2517 
Q 2569 2784 2203 2784 
z
M 2203 3584 
Q 3106 3584 3614 3096 
Q 4122 2609 4122 1747 
Q 4122 884 3614 396 
Q 3106 -91 2203 -91 
Q 1297 -91 786 396 
Q 275 884 275 1747 
Q 275 2609 786 3096 
Q 1297 3584 2203 3584 
z
" transform="scale(0.015625)"/>
      <path id="DejaVuSans-Bold-57" d="M 1759 4494 
L 1759 3500 
L 2913 3500 
L 2913 2700 
L 1759 2700 
L 1759 1216 
Q 1759 972 1856 886 
Q 1953 800 2241 800 
L 2816 800 
L 2816 0 
L 1856 0 
Q 1194 0 917 276 
Q 641 553 641 1216 
L 641 2700 
L 84 2700 
L 84 3500 
L 641 3500 
L 641 4494 
L 1759 4494 
z
" transform="scale(0.015625)"/>
      <path id="DejaVuSans-Bold-53" d="M 1656 506 
L 1656 -1331 
L 538 -1331 
L 538 3500 
L 1656 3500 
L 1656 2988 
Q 1888 3294 2169 3439 
Q 2450 3584 2816 3584 
Q 3463 3584 3878 3070 
Q 4294 2556 4294 1747 
Q 4294 938 3878 423 
Q 3463 -91 2816 -91 
Q 2450 -91 2169 54 
Q 1888 200 1656 506 
z
M 2400 2772 
Q 2041 2772 1848 2508 
Q 1656 2244 1656 1747 
Q 1656 1250 1848 986 
Q 2041 722 2400 722 
Q 2759 722 2948 984 
Q 3138 1247 3138 1747 
Q 3138 2247 2948 2509 
Q 2759 2772 2400 2772 
z
" transform="scale(0.015625)"/>
     </defs>
     <use xlink:href="#DejaVuSans-Bold-32"/>
     <use xlink:href="#DejaVuSans-Bold-59" transform="translate(85.015625 0)"/>
     <use xlink:href="#DejaVuSans-Bold-48" transform="translate(150.203125 0)"/>
     <use xlink:href="#DejaVuSans-Bold-55" transform="translate(218.03125 0)"/>
     <use xlink:href="#DejaVuSans-Bold-44" transform="translate(267.34375 0)"/>
     <use xlink:href="#DejaVuSans-Bold-4f" transform="translate(334.828125 0)"/>
     <use xlink:href="#DejaVuSans-Bold-4f" transform="translate(369.109375 0)"/>
     <use xlink:href="#DejaVuSans-Bold-3" transform="translate(403.390625 0)"/>
     <use xlink:href="#DejaVuSans-Bold-36" transform="translate(438.203125 0)"/>
     <use xlink:href="#DejaVuSans-Bold-58" transform="translate(510.21875 0)"/>
     <use xlink:href="#DejaVuSans-Bold-55" transform="translate(581.40625 0)"/>
     <use xlink:href="#DejaVuSans-Bold-59" transform="translate(630.71875 0)"/>
     <use xlink:href="#DejaVuSans-Bold-4c" transform="translate(695.90625 0)"/>
     <use xlink:href="#DejaVuSans-Bold-59" transform="translate(730.1875 0)"/>
     <use xlink:href="#DejaVuSans-Bold-44" transform="translate(795.375 0)"/>
     <use xlink:href="#DejaVuSans-Bold-4f" transform="translate(862.859375 0)"/>
     <use xlink:href="#DejaVuSans-Bold-3" transform="translate(897.140625 0)"/>
     <use xlink:href="#DejaVuSans-Bold-45" transform="translate(931.953125 0)"/>
     <use xlink:href="#DejaVuSans-Bold-5c" transform="translate(1003.53125 0)"/>
     <use xlink:href="#DejaVuSans-Bold-3" transform="translate(1068.71875 0)"/>
     <use xlink:href="#DejaVuSans-Bold-28" transform="translate(1103.53125 0)"/>
     <use xlink:href="#DejaVuSans-Bold-30" transform="translate(1171.84375 0)"/>
     <use xlink:href="#DejaVuSans-Bold-37" transform="translate(1271.359375 0)"/>
     <use xlink:href="#DejaVuSans-Bold-3" transform="translate(1339.578125 0)"/>
     <use xlink:href="#DejaVuSans-Bold-33" transform="translate(1374.390625 0)"/>
     <use xlink:href="#DejaVuSans-Bold-4b" transform="translate(1447.6875 0)"/>
     <use xlink:href="#DejaVuSans-Bold-48" transform="translate(1518.875 0)"/>
     <use xlink:href="#DejaVuSans-Bold-51" transform="translate(1586.703125 0)"/>
     <use xlink:href="#DejaVuSans-Bold-52" transform="translate(1657.890625 0)"/>
     <use xlink:href="#DejaVuSans-Bold-57" transform="translate(1726.59375 0)"/>
     <use xlink:href="#DejaVuSans-Bold-5c" transform="translate(1774.390625 0)"/>
     <use xlink:href="#DejaVuSans-Bold-53" transform="translate(1839.578125 0)"/>
     <use xlink:href="#DejaVuSans-Bold-48" transform="translate(1911.15625 0)"/>
    </g>
    <!-- TCGA-LIHC -->
    <g transform="translate(234.352187 29.861504) scale(0.11 -0.11)">
     <defs>
      <path id="DejaVuSans-Bold-26" d="M 4288 256 
Q 3956 84 3597 -3 
Q 3238 -91 2847 -91 
Q 1681 -91 1000 561 
Q 319 1213 319 2328 
Q 319 3447 1000 4098 
Q 1681 4750 2847 4750 
Q 3238 4750 3597 4662 
Q 3956 4575 4288 4403 
L 4288 3438 
Q 3953 3666 3628 3772 
Q 3303 3878 2944 3878 
Q 2300 3878 1931 3465 
Q 1563 3053 1563 2328 
Q 1563 1606 1931 1193 
Q 2300 781 2944 781 
Q 3303 781 3628 887 
Q 3953 994 4288 1222 
L 4288 256 
z
" transform="scale(0.015625)"/>
      <path id="DejaVuSans-Bold-2a" d="M 4781 347 
Q 4331 128 3847 18 
Q 3363 -91 2847 -91 
Q 1681 -91 1000 561 
Q 319 1213 319 2328 
Q 319 3456 1012 4103 
Q 1706 4750 2913 4750 
Q 3378 4750 3804 4662 
Q 4231 4575 4609 4403 
L 4609 3438 
Q 4219 3659 3833 3768 
Q 3447 3878 3059 3878 
Q 2341 3878 1952 3476 
Q 1563 3075 1563 2328 
Q 1563 1588 1938 1184 
Q 2313 781 3003 781 
Q 3191 781 3352 804 
Q 3513 828 3641 878 
L 3641 1784 
L 2906 1784 
L 2906 2591 
L 4781 2591 
L 4781 347 
z
" transform="scale(0.015625)"/>
      <path id="DejaVuSans-Bold-24" d="M 3419 850 
L 1538 850 
L 1241 0 
L 31 0 
L 1759 4666 
L 3194 4666 
L 4922 0 
L 3713 0 
L 3419 850 
z
M 1838 1716 
L 3116 1716 
L 2478 3572 
L 1838 1716 
z
" transform="scale(0.015625)"/>
      <path id="DejaVuSans-Bold-10" d="M 347 2297 
L 2309 2297 
L 2309 1388 
L 347 1388 
L 347 2297 
z
" transform="scale(0.015625)"/>
      <path id="DejaVuSans-Bold-2f" d="M 588 4666 
L 1791 4666 
L 1791 909 
L 3903 909 
L 3903 0 
L 588 0 
L 588 4666 
z
" transform="scale(0.015625)"/>
      <path id="DejaVuSans-Bold-2c" d="M 588 4666 
L 1791 4666 
L 1791 0 
L 588 0 
L 588 4666 
z
" transform="scale(0.015625)"/>
      <path id="DejaVuSans-Bold-2b" d="M 588 4666 
L 1791 4666 
L 1791 2888 
L 3566 2888 
L 3566 4666 
L 4769 4666 
L 4769 0 
L 3566 0 
L 3566 1978 
L 1791 1978 
L 1791 0 
L 588 0 
L 588 4666 
z
" transform="scale(0.015625)"/>
     </defs>
     <use xlink:href="#DejaVuSans-Bold-37"/>
     <use xlink:href="#DejaVuSans-Bold-26" transform="translate(68.21875 0)"/>
     <use xlink:href="#DejaVuSans-Bold-2a" transform="translate(141.609375 0)"/>
     <use xlink:href="#DejaVuSans-Bold-24" transform="translate(223.6875 0)"/>
     <use xlink:href="#DejaVuSans-Bold-10" transform="translate(301.078125 0)"/>
     <use xlink:href="#DejaVuSans-Bold-2f" transform="translate(342.578125 0)"/>
     <use xlink:href="#DejaVuSans-Bold-2c" transform="translate(406.296875 0)"/>
     <use xlink:href="#DejaVuSans-Bold-2b" transform="translate(443.5 0)"/>
     <use xlink:href="#DejaVuSans-Bold-26" transform="translate(527.1875 0)"/>
    </g>
   </g>
   <g id="legend_1">
    <g id="patch_6">
     <path d="M 52.103984 308.600859 
L 191.410234 308.600859 
Q 193.410234 308.600859 193.410234 306.600859 
L 193.410234 262.598516 
Q 193.410234 260.598516 191.410234 260.598516 
L 52.103984 260.598516 
Q 50.103984 260.598516 50.103984 262.598516 
L 50.103984 306.600859 
Q 50.103984 308.600859 52.103984 308.600859 
z
" style="fill: #ffffff; opacity: 0.8; stroke: #cccccc; stroke-linejoin: miter"/>
    </g>
    <g id="line2d_17">
     <path d="M 54.103984 268.696953 
L 64.103984 268.696953 
L 64.103984 268.696953 
L 74.103984 268.696953 
L 74.103984 268.696953 
" style="fill: none; stroke: #2196f3; stroke-width: 1.5; stroke-linecap: square"/>
    </g>
    <g id="text_18">
     <!-- Epithelial (n=73) -->
     <g transform="translate(82.103984 272.196953) scale(0.1 -0.1)">
      <defs>
       <path id="DejaVuSans-28" d="M 628 4666 
L 3578 4666 
L 3578 4134 
L 1259 4134 
L 1259 2753 
L 3481 2753 
L 3481 2222 
L 1259 2222 
L 1259 531 
L 3634 531 
L 3634 0 
L 628 0 
L 628 4666 
z
" transform="scale(0.015625)"/>
      </defs>
      <use xlink:href="#DejaVuSans-28"/>
      <use xlink:href="#DejaVuSans-53" transform="translate(63.1875 0)"/>
      <use xlink:href="#DejaVuSans-4c" transform="translate(126.671875 0)"/>
      <use xlink:href="#DejaVuSans-57" transform="translate(154.453125 0)"/>
      <use xlink:href="#DejaVuSans-4b" transform="translate(193.65625 0)"/>
      <use xlink:href="#DejaVuSans-48" transform="translate(257.03125 0)"/>
      <use xlink:href="#DejaVuSans-4f" transform="translate(318.5625 0)"/>
      <use xlink:href="#DejaVuSans-4c" transform="translate(346.34375 0)"/>
      <use xlink:href="#DejaVuSans-44" transform="translate(374.125 0)"/>
      <use xlink:href="#DejaVuSans-4f" transform="translate(435.40625 0)"/>
      <use xlink:href="#DejaVuSans-3" transform="translate(463.1875 0)"/>
      <use xlink:href="#DejaVuSans-b" transform="translate(494.96875 0)"/>
      <use xlink:href="#DejaVuSans-51" transform="translate(533.984375 0)"/>
      <use xlink:href="#DejaVuSans-20" transform="translate(597.359375 0)"/>
      <use xlink:href="#DejaVuSans-1a" transform="translate(681.15625 0)"/>
      <use xlink:href="#DejaVuSans-16" transform="translate(744.78125 0)"/>
      <use xlink:href="#DejaVuSans-c" transform="translate(808.40625 0)"/>
     </g>
    </g>
    <g id="line2d_18">
     <path d="M 54.103984 283.697734 
L 64.103984 283.697734 
L 64.103984 283.697734 
L 74.103984 283.697734 
L 74.103984 283.697734 
" style="fill: none; stroke: #ff9800; stroke-width: 1.5; stroke-linecap: square"/>
    </g>
    <g id="text_19">
     <!-- Hybrid E/M (n=233) -->
     <g transform="translate(82.103984 287.197734) scale(0.1 -0.1)">
      <defs>
       <path id="DejaVuSans-2b" d="M 628 4666 
L 1259 4666 
L 1259 2753 
L 3553 2753 
L 3553 4666 
L 4184 4666 
L 4184 0 
L 3553 0 
L 3553 2222 
L 1259 2222 
L 1259 0 
L 628 0 
L 628 4666 
z
" transform="scale(0.015625)"/>
       <path id="DejaVuSans-47" d="M 2906 2969 
L 2906 4863 
L 3481 4863 
L 3481 0 
L 2906 0 
L 2906 525 
Q 2725 213 2448 61 
Q 2172 -91 1784 -91 
Q 1150 -91 751 415 
Q 353 922 353 1747 
Q 353 2572 751 3078 
Q 1150 3584 1784 3584 
Q 2172 3584 2448 3432 
Q 2725 3281 2906 2969 
z
M 947 1747 
Q 947 1113 1208 752 
Q 1469 391 1925 391 
Q 2381 391 2643 752 
Q 2906 1113 2906 1747 
Q 2906 2381 2643 2742 
Q 2381 3103 1925 3103 
Q 1469 3103 1208 2742 
Q 947 2381 947 1747 
z
" transform="scale(0.015625)"/>
       <path id="DejaVuSans-12" d="M 1625 4666 
L 2156 4666 
L 531 -594 
L 0 -594 
L 1625 4666 
z
" transform="scale(0.015625)"/>
       <path id="DejaVuSans-30" d="M 628 4666 
L 1569 4666 
L 2759 1491 
L 3956 4666 
L 4897 4666 
L 4897 0 
L 4281 0 
L 4281 4097 
L 3078 897 
L 2444 897 
L 1241 4097 
L 1241 0 
L 628 0 
L 628 4666 
z
" transform="scale(0.015625)"/>
      </defs>
      <use xlink:href="#DejaVuSans-2b"/>
      <use xlink:href="#DejaVuSans-5c" transform="translate(75.203125 0)"/>
      <use xlink:href="#DejaVuSans-45" transform="translate(134.390625 0)"/>
      <use xlink:href="#DejaVuSans-55" transform="translate(197.875 0)"/>
      <use xlink:href="#DejaVuSans-4c" transform="translate(238.984375 0)"/>
      <use xlink:href="#DejaVuSans-47" transform="translate(266.765625 0)"/>
      <use xlink:href="#DejaVuSans-3" transform="translate(330.25 0)"/>
      <use xlink:href="#DejaVuSans-28" transform="translate(362.03125 0)"/>
      <use xlink:href="#DejaVuSans-12" transform="translate(425.21875 0)"/>
      <use xlink:href="#DejaVuSans-30" transform="translate(458.90625 0)"/>
      <use xlink:href="#DejaVuSans-3" transform="translate(545.1875 0)"/>
      <use xlink:href="#DejaVuSans-b" transform="translate(576.96875 0)"/>
      <use xlink:href="#DejaVuSans-51" transform="translate(615.984375 0)"/>
      <use xlink:href="#DejaVuSans-20" transform="translate(679.359375 0)"/>
      <use xlink:href="#DejaVuSans-15" transform="translate(763.15625 0)"/>
      <use xlink:href="#DejaVuSans-16" transform="translate(826.78125 0)"/>
      <use xlink:href="#DejaVuSans-16" transform="translate(890.40625 0)"/>
      <use xlink:href="#DejaVuSans-c" transform="translate(954.03125 0)"/>
     </g>
    </g>
    <g id="line2d_19">
     <path d="M 54.103984 298.698516 
L 64.103984 298.698516 
L 64.103984 298.698516 
L 74.103984 298.698516 
L 74.103984 298.698516 
" style="fill: none; stroke: #f44336; stroke-width: 1.5; stroke-linecap: square"/>
    </g>
    <g id="text_20">
     <!-- Mesenchymal (n=59) -->
     <g transform="translate(82.103984 302.198516) scale(0.1 -0.1)">
      <defs>
       <path id="DejaVuSans-46" d="M 3122 3366 
L 3122 2828 
Q 2878 2963 2633 3030 
Q 2388 3097 2138 3097 
Q 1578 3097 1268 2742 
Q 959 2388 959 1747 
Q 959 1106 1268 751 
Q 1578 397 2138 397 
Q 2388 397 2633 464 
Q 2878 531 3122 666 
L 3122 134 
Q 2881 22 2623 -34 
Q 2366 -91 2075 -91 
Q 1284 -91 818 406 
Q 353 903 353 1747 
Q 353 2603 823 3093 
Q 1294 3584 2113 3584 
Q 2378 3584 2631 3529 
Q 2884 3475 3122 3366 
z
" transform="scale(0.015625)"/>
       <path id="DejaVuSans-1c" d="M 703 97 
L 703 672 
Q 941 559 1184 500 
Q 1428 441 1663 441 
Q 2288 441 2617 861 
Q 2947 1281 2994 2138 
Q 2813 1869 2534 1725 
Q 2256 1581 1919 1581 
Q 1219 1581 811 2004 
Q 403 2428 403 3163 
Q 403 3881 828 4315 
Q 1253 4750 1959 4750 
Q 2769 4750 3195 4129 
Q 3622 3509 3622 2328 
Q 3622 1225 3098 567 
Q 2575 -91 1691 -91 
Q 1453 -91 1209 -44 
Q 966 3 703 97 
z
M 1959 2075 
Q 2384 2075 2632 2365 
Q 2881 2656 2881 3163 
Q 2881 3666 2632 3958 
Q 2384 4250 1959 4250 
Q 1534 4250 1286 3958 
Q 1038 3666 1038 3163 
Q 1038 2656 1286 2365 
Q 1534 2075 1959 2075 
z
" transform="scale(0.015625)"/>
      </defs>
      <use xlink:href="#DejaVuSans-30"/>
      <use xlink:href="#DejaVuSans-48" transform="translate(86.28125 0)"/>
      <use xlink:href="#DejaVuSans-56" transform="translate(147.8125 0)"/>
      <use xlink:href="#DejaVuSans-48" transform="translate(199.90625 0)"/>
      <use xlink:href="#DejaVuSans-51" transform="translate(261.4375 0)"/>
      <use xlink:href="#DejaVuSans-46" transform="translate(324.8125 0)"/>
      <use xlink:href="#DejaVuSans-4b" transform="translate(379.796875 0)"/>
      <use xlink:href="#DejaVuSans-5c" transform="translate(443.171875 0)"/>
      <use xlink:href="#DejaVuSans-50" transform="translate(502.359375 0)"/>
      <use xlink:href="#DejaVuSans-44" transform="translate(599.765625 0)"/>
      <use xlink:href="#DejaVuSans-4f" transform="translate(661.046875 0)"/>
      <use xlink:href="#DejaVuSans-3" transform="translate(688.828125 0)"/>
      <use xlink:href="#DejaVuSans-b" transform="translate(720.609375 0)"/>
      <use xlink:href="#DejaVuSans-51" transform="translate(759.625 0)"/>
      <use xlink:href="#DejaVuSans-20" transform="translate(823 0)"/>
      <use xlink:href="#DejaVuSans-18" transform="translate(906.796875 0)"/>
      <use xlink:href="#DejaVuSans-1c" transform="translate(970.421875 0)"/>
      <use xlink:href="#DejaVuSans-c" transform="translate(1034.046875 0)"/>
     </g>
    </g>
   </g>
  </g>
 </g>
 <defs>
  <clipPath id="p6a8539f259">
   <rect x="45.103984" y="35.861504" width="444.56" height="277.739355"/>
  </clipPath>
 </defs>
</svg>
