<?xml version="1.0" encoding="utf-8" standalone="no"?>
<!DOCTYPE svg PUBLIC "-//W3C//DTD SVG 1.1//EN"
  "http://www.w3.org/Graphics/SVG/1.1/DTD/svg11.dtd">
<svg xmlns:xlink="http://www.w3.org/1999/xlink" width="496.709062pt" height="351.837875pt" viewBox="0 0 496.709062 351.837875" xmlns="http://www.w3.org/2000/svg" version="1.1">
 <metadata>
  <rdf:RDF xmlns:dc="http://purl.org/dc/elements/1.1/" xmlns:cc="http://creativecommons.org/ns#" xmlns:rdf="http://www.w3.org/1999/02/22-rdf-syntax-ns#">
   <cc:Work>
    <dc:type rdf:resource="http://purl.org/dc/dcmitype/StillImage"/>
    <dc:date>2026-04-04T09:45:29.440691</dc:date>
    <dc:format>image/svg+xml</dc:format>
    <dc:creator>
     <cc:Agent>
      <dc:title>Matplotlib v3.10.8, https://matplotlib.org/</dc:title>
     </cc:Agent>
    </dc:creator>
   </cc:Work>
  </rdf:RDF>
 </metadata>
 <defs>
  <style type="text/css">*{stroke-linejoin: round; stroke-linecap: butt}</style>
 </defs>
 <g id="figure_1">
  <g id="patch_1">
   <path d="M 0 351.837875 
L 496.709062 351.837875 
L 496.709062 0 
L 0 0 
z
" style="fill: #ffffff"/>
  </g>
  <g id="axes_1">
   <g id="patch_2">
    <path d="M 44.749063 313.313813 
L 489.509063 313.313813 
L 489.509063 33.961813 
L 44.749063 33.961813 
z
" style="fill: #ffffff"/>
   </g>
   <g id="FillBetweenPolyCollection_1">
    <defs>
     <path id="m58305e99ba" d="M 64.965426 -304.573586 
L 64.965426 -304.573586 
L 66.434077 -304.573586 
L 66.434077 -304.573586 
L 67.354886 -304.573586 
L 67.354886 -304.573586 
L 67.706627 -304.573586 
L 67.706627 -304.573586 
L 68.468524 -304.573586 
L 68.468524 -304.573586 
L 69.028305 -304.573586 
L 69.028305 -304.573586 
L 69.553352 -304.573586 
L 69.553352 -304.573586 
L 70.798953 -304.573586 
L 70.798953 -304.573586 
L 71.915792 -304.573586 
L 71.915792 -304.573586 
L 73.921537 -304.573586 
L 73.921537 -304.573586 
L 74.541074 -304.573586 
L 74.541074 -304.573586 
L 75.703365 -304.573586 
L 75.703365 -304.573586 
L 75.719023 -304.573586 
L 75.719023 -304.573586 
L 76.110509 -304.573586 
L 76.110509 -304.573586 
L 76.295147 -304.573586 
L 76.295147 -304.573586 
L 76.858823 -304.573586 
L 76.858823 -304.573586 
L 77.587616 -304.573586 
L 77.587616 -304.573586 
L 78.586568 -304.573586 
L 78.586568 -304.573586 
L 79.052067 -304.573586 
L 79.052067 -304.573586 
L 79.423255 -304.573586 
L 79.423255 -304.573586 
L 79.962031 -304.573586 
L 79.962031 -304.573586 
L 83.03381 -304.573586 
L 83.03381 -304.573586 
L 83.294196 -304.573586 
L 83.294196 -304.573586 
L 84.752894 -304.573586 
L 84.752894 -304.573586 
L 86.506448 -304.573586 
L 86.506448 -304.573586 
L 87.194054 -304.573586 
L 87.194054 -304.573586 
L 87.886593 -304.573586 
L 87.886593 -304.573586 
L 88.05696 -304.573586 
L 88.05696 -304.573586 
L 89.499933 -304.573586 
L 89.499933 -304.573586 
L 90.216214 -304.573586 
L 90.216214 -304.573586 
L 92.370999 -304.573586 
L 92.370999 -304.573586 
L 92.497674 -304.573586 
L 92.497674 -304.573586 
L 92.632348 -304.573586 
L 92.632348 -304.573586 
L 92.634317 -304.573586 
L 92.634317 -304.573586 
L 92.878069 -304.573586 
L 92.878069 -304.573586 
L 93.938547 -304.573586 
L 93.938547 -304.573586 
L 94.046839 -304.573586 
L 94.046839 -304.573586 
L 94.197024 -304.573586 
L 94.197024 -304.573586 
L 94.270462 -304.573586 
L 94.270462 -304.573586 
L 94.454577 -304.573586 
L 94.454577 -304.573586 
L 96.128127 -304.573586 
L 96.128127 -304.573586 
L 97.089163 -304.573586 
L 97.089163 -304.573586 
L 97.663153 -304.573586 
L 97.663153 -304.573586 
L 98.260284 -304.573586 
L 98.260284 -304.573586 
L 99.698449 -304.573586 
L 99.698449 -304.573586 
L 101.225568 -304.573586 
L 101.225568 -304.573586 
L 102.291772 -304.573586 
L 102.291772 -304.573586 
L 102.847631 -304.573586 
L 102.847631 -304.573586 
L 104.420289 -304.573586 
L 104.420289 -304.573586 
L 105.472631 -304.573586 
L 105.472631 -304.573586 
L 105.915469 -304.573586 
L 105.915469 -304.573586 
L 106.548463 -304.573586 
L 106.548463 -304.573586 
L 106.802334 -304.573586 
L 106.802334 -304.573586 
L 107.560866 -304.573586 
L 107.560866 -304.573586 
L 107.77173 -304.573586 
L 107.77173 -304.573586 
L 109.555495 -304.573586 
L 109.555495 -304.573586 
L 110.597847 -304.573586 
L 110.597847 -304.573586 
L 110.851906 -304.573586 
L 110.851906 -304.573586 
L 110.971387 -304.573586 
L 110.971387 -304.573586 
L 112.315546 -304.573586 
L 112.315546 -304.573586 
L 114.501182 -304.573586 
L 114.501182 -304.573586 
L 115.450586 -304.573586 
L 115.450586 -304.573586 
L 117.704412 -304.573586 
L 117.704412 -304.573586 
L 122.979623 -304.573586 
L 122.979623 -304.573586 
L 123.05812 -304.573586 
L 123.05812 -304.573586 
L 124.03871 -304.573586 
L 124.03871 -304.573586 
L 124.093899 -304.573586 
L 124.093899 -304.573586 
L 126.350596 -304.573586 
L 126.350596 -304.573586 
L 126.509779 -304.573586 
L 126.509779 -304.573586 
L 127.322694 -304.573586 
L 127.322694 -304.573586 
L 136.648508 -304.573586 
L 136.648508 -304.573586 
L 137.134141 -304.573586 
L 137.134141 -304.573586 
L 137.82865 -304.573586 
L 137.82865 -304.573586 
L 137.932278 -304.573586 
L 137.932278 -304.573586 
L 139.4012 -304.573586 
L 139.4012 -304.573586 
L 140.098602 -304.573586 
L 140.098602 -304.573586 
L 140.343201 -304.573586 
L 140.343201 -304.573586 
L 140.379093 -304.573586 
L 140.379093 -304.573586 
L 141.951164 -304.573586 
L 141.951164 -304.573586 
L 143.956198 -304.573586 
L 143.956198 -304.573586 
L 144.584881 -304.573586 
L 144.584881 -304.573586 
L 144.784757 -304.573586 
L 144.784757 -304.573586 
L 148.037304 -304.573586 
L 148.037304 -304.573586 
L 153.584834 -304.573586 
L 153.584834 -304.573586 
L 154.435578 -304.573586 
L 154.435578 -304.573586 
L 154.453919 -304.573586 
L 154.453919 -304.573586 
L 156.844901 -304.573586 
L 156.844901 -304.573586 
L 158.590857 -304.573586 
L 158.590857 -304.573586 
L 162.36036 -304.573586 
L 162.36036 -304.573586 
L 163.614631 -304.573586 
L 163.614631 -304.573586 
L 164.432179 -304.573586 
L 164.432179 -304.573586 
L 164.987808 -304.573586 
L 164.987808 -304.573586 
L 169.481786 -304.573586 
L 169.481786 -304.573586 
L 170.452871 -304.573586 
L 170.452871 -304.573586 
L 174.6743 -304.573586 
L 174.6743 -304.573586 
L 179.152995 -304.573586 
L 179.152995 -304.573586 
L 187.060634 -304.573586 
L 187.060634 -304.573586 
L 204.943217 -304.573586 
L 204.943217 -304.573586 
L 206.689795 -304.573586 
L 206.689795 -304.573586 
L 217.310291 -304.573586 
L 217.310291 -304.573586 
L 242.982775 -304.573586 
L 242.982775 -304.573586 
L 245.697577 -304.573586 
L 245.697577 -304.573586 
L 249.0598 -304.573586 
L 249.0598 -304.573586 
L 251.866889 -304.573586 
L 251.866889 -304.573586 
L 254.125824 -304.573586 
L 254.125824 -304.573586 
L 269.884857 -304.573586 
L 269.884857 -304.573586 
L 270.921769 -304.573586 
L 270.921769 -304.573586 
L 274.172866 -304.573586 
L 274.172866 -304.573586 
L 281.306378 -304.573586 
L 281.306378 -304.573586 
L 288.30085 -304.573586 
L 288.30085 -304.573586 
L 309.788684 -304.573586 
L 309.788684 -304.573586 
L 336.957873 -304.573586 
L 336.957873 -304.573586 
L 390.045195 -304.573586 
L 390.045195 -304.573586 
L 390.045195 -304.573586 
L 390.045195 -304.573586 
L 390.045195 -304.573586 
L 336.957873 -304.573586 
L 336.957873 -304.573586 
L 309.788684 -304.573586 
L 309.788684 -304.573586 
L 288.30085 -304.573586 
L 288.30085 -304.573586 
L 281.306378 -304.573586 
L 281.306378 -304.573586 
L 274.172866 -304.573586 
L 274.172866 -304.573586 
L 270.921769 -304.573586 
L 270.921769 -304.573586 
L 269.884857 -304.573586 
L 269.884857 -304.573586 
L 254.125824 -304.573586 
L 254.125824 -304.573586 
L 251.866889 -304.573586 
L 251.866889 -304.573586 
L 249.0598 -304.573586 
L 249.0598 -304.573586 
L 245.697577 -304.573586 
L 245.697577 -304.573586 
L 242.982775 -304.573586 
L 242.982775 -304.573586 
L 217.310291 -304.573586 
L 217.310291 -304.573586 
L 206.689795 -304.573586 
L 206.689795 -304.573586 
L 204.943217 -304.573586 
L 204.943217 -304.573586 
L 187.060634 -304.573586 
L 187.060634 -304.573586 
L 179.152995 -304.573586 
L 179.152995 -304.573586 
L 174.6743 -304.573586 
L 174.6743 -304.573586 
L 170.452871 -304.573586 
L 170.452871 -304.573586 
L 169.481786 -304.573586 
L 169.481786 -304.573586 
L 164.987808 -304.573586 
L 164.987808 -304.573586 
L 164.432179 -304.573586 
L 164.432179 -304.573586 
L 163.614631 -304.573586 
L 163.614631 -304.573586 
L 162.36036 -304.573586 
L 162.36036 -304.573586 
L 158.590857 -304.573586 
L 158.590857 -304.573586 
L 156.844901 -304.573586 
L 156.844901 -304.573586 
L 154.453919 -304.573586 
L 154.453919 -304.573586 
L 154.435578 -304.573586 
L 154.435578 -304.573586 
L 153.584834 -304.573586 
L 153.584834 -304.573586 
L 148.037304 -304.573586 
L 148.037304 -304.573586 
L 144.784757 -304.573586 
L 144.784757 -304.573586 
L 144.584881 -304.573586 
L 144.584881 -304.573586 
L 143.956198 -304.573586 
L 143.956198 -304.573586 
L 141.951164 -304.573586 
L 141.951164 -304.573586 
L 140.379093 -304.573586 
L 140.379093 -304.573586 
L 140.343201 -304.573586 
L 140.343201 -304.573586 
L 140.098602 -304.573586 
L 140.098602 -304.573586 
L 139.4012 -304.573586 
L 139.4012 -304.573586 
L 137.932278 -304.573586 
L 137.932278 -304.573586 
L 137.82865 -304.573586 
L 137.82865 -304.573586 
L 137.134141 -304.573586 
L 137.134141 -304.573586 
L 136.648508 -304.573586 
L 136.648508 -304.573586 
L 127.322694 -304.573586 
L 127.322694 -304.573586 
L 126.509779 -304.573586 
L 126.509779 -304.573586 
L 126.350596 -304.573586 
L 126.350596 -304.573586 
L 124.093899 -304.573586 
L 124.093899 -304.573586 
L 124.03871 -304.573586 
L 124.03871 -304.573586 
L 123.05812 -304.573586 
L 123.05812 -304.573586 
L 122.979623 -304.573586 
L 122.979623 -304.573586 
L 117.704412 -304.573586 
L 117.704412 -304.573586 
L 115.450586 -304.573586 
L 115.450586 -304.573586 
L 114.501182 -304.573586 
L 114.501182 -304.573586 
L 112.315546 -304.573586 
L 112.315546 -304.573586 
L 110.971387 -304.573586 
L 110.971387 -304.573586 
L 110.851906 -304.573586 
L 110.851906 -304.573586 
L 110.597847 -304.573586 
L 110.597847 -304.573586 
L 109.555495 -304.573586 
L 109.555495 -304.573586 
L 107.77173 -304.573586 
L 107.77173 -304.573586 
L 107.560866 -304.573586 
L 107.560866 -304.573586 
L 106.802334 -304.573586 
L 106.802334 -304.573586 
L 106.548463 -304.573586 
L 106.548463 -304.573586 
L 105.915469 -304.573586 
L 105.915469 -304.573586 
L 105.472631 -304.573586 
L 105.472631 -304.573586 
L 104.420289 -304.573586 
L 104.420289 -304.573586 
L 102.847631 -304.573586 
L 102.847631 -304.573586 
L 102.291772 -304.573586 
L 102.291772 -304.573586 
L 101.225568 -304.573586 
L 101.225568 -304.573586 
L 99.698449 -304.573586 
L 99.698449 -304.573586 
L 98.260284 -304.573586 
L 98.260284 -304.573586 
L 97.663153 -304.573586 
L 97.663153 -304.573586 
L 97.089163 -304.573586 
L 97.089163 -304.573586 
L 96.128127 -304.573586 
L 96.128127 -304.573586 
L 94.454577 -304.573586 
L 94.454577 -304.573586 
L 94.270462 -304.573586 
L 94.270462 -304.573586 
L 94.197024 -304.573586 
L 94.197024 -304.573586 
L 94.046839 -304.573586 
L 94.046839 -304.573586 
L 93.938547 -304.573586 
L 93.938547 -304.573586 
L 92.878069 -304.573586 
L 92.878069 -304.573586 
L 92.634317 -304.573586 
L 92.634317 -304.573586 
L 92.632348 -304.573586 
L 92.632348 -304.573586 
L 92.497674 -304.573586 
L 92.497674 -304.573586 
L 92.370999 -304.573586 
L 92.370999 -304.573586 
L 90.216214 -304.573586 
L 90.216214 -304.573586 
L 89.499933 -304.573586 
L 89.499933 -304.573586 
L 88.05696 -304.573586 
L 88.05696 -304.573586 
L 87.886593 -304.573586 
L 87.886593 -304.573586 
L 87.194054 -304.573586 
L 87.194054 -304.573586 
L 86.506448 -304.573586 
L 86.506448 -304.573586 
L 84.752894 -304.573586 
L 84.752894 -304.573586 
L 83.294196 -304.573586 
L 83.294196 -304.573586 
L 83.03381 -304.573586 
L 83.03381 -304.573586 
L 79.962031 -304.573586 
L 79.962031 -304.573586 
L 79.423255 -304.573586 
L 79.423255 -304.573586 
L 79.052067 -304.573586 
L 79.052067 -304.573586 
L 78.586568 -304.573586 
L 78.586568 -304.573586 
L 77.587616 -304.573586 
L 77.587616 -304.573586 
L 76.858823 -304.573586 
L 76.858823 -304.573586 
L 76.295147 -304.573586 
L 76.295147 -304.573586 
L 76.110509 -304.573586 
L 76.110509 -304.573586 
L 75.719023 -304.573586 
L 75.719023 -304.573586 
L 75.703365 -304.573586 
L 75.703365 -304.573586 
L 74.541074 -304.573586 
L 74.541074 -304.573586 
L 73.921537 -304.573586 
L 73.921537 -304.573586 
L 71.915792 -304.573586 
L 71.915792 -304.573586 
L 70.798953 -304.573586 
L 70.798953 -304.573586 
L 69.553352 -304.573586 
L 69.553352 -304.573586 
L 69.028305 -304.573586 
L 69.028305 -304.573586 
L 68.468524 -304.573586 
L 68.468524 -304.573586 
L 67.706627 -304.573586 
L 67.706627 -304.573586 
L 67.354886 -304.573586 
L 67.354886 -304.573586 
L 66.434077 -304.573586 
L 66.434077 -304.573586 
L 64.965426 -304.573586 
z
" style="stroke: #2196f3; stroke-opacity: 0.12"/>
    </defs>
    <g clip-path="url(#pb77b768e52)">
     <use xlink:href="#m58305e99ba" x="0" y="351.837875" style="fill: #2196f3; fill-opacity: 0.12; stroke: #2196f3; stroke-opacity: 0.12"/>
    </g>
   </g>
   <g id="FillBetweenPolyCollection_2">
    <defs>
     <path id="m57273d8cb7" d="M 64.965426 -304.573586 
L 64.965426 -304.573586 
L 65.027653 -304.573586 
L 65.027653 -304.573586 
L 65.533502 -304.573586 
L 65.533502 -304.573586 
L 66.406137 -304.573586 
L 66.406137 -304.573586 
L 67.073408 -304.573586 
L 67.073408 -304.573586 
L 68.194136 -304.573586 
L 68.194136 -304.573586 
L 69.53354 -304.573586 
L 69.53354 -304.573586 
L 69.95279 -304.573586 
L 69.95279 -304.573586 
L 71.994425 -304.573586 
L 71.994425 -304.573586 
L 72.101878 -304.573586 
L 72.101878 -304.573586 
L 72.462921 -304.573586 
L 72.462921 -304.573586 
L 72.765634 -304.573586 
L 72.765634 -304.573586 
L 73.68504 -304.573586 
L 73.68504 -304.573586 
L 74.392062 -304.573586 
L 74.392062 -304.573586 
L 74.553574 -304.573586 
L 74.553574 -304.573586 
L 75.193863 -304.573586 
L 75.193863 -304.573586 
L 75.937612 -304.573586 
L 75.937612 -304.573586 
L 77.531891 -304.573586 
L 77.531891 -304.573586 
L 80.252748 -304.573586 
L 80.252748 -304.573586 
L 80.314938 -304.573586 
L 80.314938 -304.573586 
L 80.904343 -304.573586 
L 80.904343 -304.573586 
L 82.379325 -304.573586 
L 82.379325 -304.573586 
L 82.730821 -304.573586 
L 82.730821 -304.573586 
L 83.264792 -304.573586 
L 83.264792 -304.573586 
L 84.869724 -304.573586 
L 84.869724 -304.573586 
L 85.715948 -304.573586 
L 85.715948 -304.573586 
L 86.376745 -304.573586 
L 86.376745 -304.573586 
L 86.525131 -304.573586 
L 86.525131 -304.573586 
L 86.670306 -304.573586 
L 86.670306 -304.573586 
L 87.021421 -304.573586 
L 87.021421 -304.573586 
L 87.777346 -304.573586 
L 87.777346 -304.573586 
L 88.939325 -304.573586 
L 88.939325 -304.573586 
L 89.683851 -304.573586 
L 89.683851 -304.573586 
L 90.113296 -304.573586 
L 90.113296 -304.573586 
L 91.027236 -304.573586 
L 91.027236 -304.573586 
L 91.12516 -304.573586 
L 91.12516 -304.573586 
L 92.756542 -304.573586 
L 92.756542 -304.573586 
L 94.076703 -304.573586 
L 94.076703 -304.573586 
L 94.214207 -304.573586 
L 94.214207 -304.573586 
L 94.248754 -304.573586 
L 94.248754 -304.573586 
L 94.361221 -304.573586 
L 94.361221 -304.573586 
L 95.397604 -304.573586 
L 95.397604 -304.573586 
L 96.016693 -304.573586 
L 96.016693 -304.573586 
L 97.083953 -304.573586 
L 97.083953 -304.573586 
L 98.107378 -304.573586 
L 98.107378 -304.573586 
L 99.929437 -304.573586 
L 99.929437 -304.573586 
L 101.921587 -304.573586 
L 101.921587 -304.573586 
L 103.468508 -304.573586 
L 103.468508 -304.573586 
L 104.65948 -304.573586 
L 104.65948 -304.573586 
L 107.000167 -304.573586 
L 107.000167 -304.573586 
L 108.009828 -304.573586 
L 108.009828 -304.573586 
L 108.154079 -304.573586 
L 108.154079 -304.573586 
L 108.646249 -304.573586 
L 108.646249 -304.573586 
L 109.23385 -304.573586 
L 109.23385 -304.573586 
L 109.517141 -304.573586 
L 109.517141 -304.573586 
L 110.923918 -304.573586 
L 110.923918 -304.573586 
L 111.786038 -304.573586 
L 111.786038 -304.573586 
L 112.152255 -304.573586 
L 112.152255 -304.573586 
L 114.313009 -304.573586 
L 114.313009 -304.573586 
L 114.795634 -304.573586 
L 114.795634 -304.573586 
L 118.082235 -304.573586 
L 118.082235 -304.573586 
L 119.249937 -304.573586 
L 119.249937 -304.573586 
L 119.281546 -304.573586 
L 119.281546 -304.573586 
L 119.803296 -304.573586 
L 119.803296 -304.573586 
L 120.153633 -304.573586 
L 120.153633 -304.573586 
L 121.678301 -304.573586 
L 121.678301 -304.573586 
L 121.923282 -304.573586 
L 121.923282 -304.573586 
L 122.051076 -304.573586 
L 122.051076 -304.573586 
L 122.1472 -304.573586 
L 122.1472 -304.573586 
L 123.892937 -304.573586 
L 123.892937 -304.573586 
L 125.769233 -304.573586 
L 125.769233 -304.573586 
L 127.181475 -304.573586 
L 127.181475 -304.573586 
L 127.35217 -304.573586 
L 127.35217 -304.573586 
L 128.297002 -304.573586 
L 128.297002 -304.573586 
L 129.170778 -304.573586 
L 129.170778 -304.573586 
L 129.767352 -304.573586 
L 129.767352 -304.573586 
L 130.802994 -304.573586 
L 130.802994 -304.573586 
L 130.965612 -304.573586 
L 130.965612 -304.573586 
L 131.058992 -304.573586 
L 131.058992 -304.573586 
L 132.025319 -304.573586 
L 132.025319 -304.573586 
L 133.141446 -304.573586 
L 133.141446 -304.573586 
L 134.387122 -304.573586 
L 134.387122 -304.573586 
L 134.430788 -304.573586 
L 134.430788 -304.573586 
L 134.818946 -304.573586 
L 134.818946 -304.573586 
L 135.891498 -304.573586 
L 135.891498 -304.573586 
L 136.36305 -304.573586 
L 136.36305 -304.573586 
L 136.759703 -304.573586 
L 136.759703 -304.573586 
L 138.624598 -304.573586 
L 138.624598 -304.573586 
L 140.904712 -304.573586 
L 140.904712 -304.573586 
L 142.366559 -304.573586 
L 142.366559 -304.573586 
L 143.499342 -304.573586 
L 143.499342 -304.573586 
L 145.941889 -304.573586 
L 145.941889 -304.573586 
L 146.018648 -304.573586 
L 146.018648 -304.573586 
L 147.432775 -304.573586 
L 147.432775 -304.573586 
L 148.019376 -304.573586 
L 148.019376 -304.573586 
L 149.112159 -304.573586 
L 149.112159 -304.573586 
L 150.660267 -304.573586 
L 150.660267 -304.573586 
L 152.846259 -304.573586 
L 152.846259 -304.573586 
L 153.431023 -304.573586 
L 153.431023 -304.573586 
L 156.950685 -304.573586 
L 156.950685 -304.573586 
L 157.006624 -304.573586 
L 157.006624 -304.573586 
L 158.113315 -304.573586 
L 158.113315 -304.573586 
L 159.85041 -304.573586 
L 159.85041 -304.573586 
L 160.465187 -304.573586 
L 160.465187 -304.573586 
L 161.182583 -304.573586 
L 161.182583 -304.573586 
L 162.946388 -304.573586 
L 162.946388 -304.573586 
L 163.232441 -304.573586 
L 163.232441 -304.573586 
L 165.504735 -304.573586 
L 165.504735 -304.573586 
L 165.89832 -304.573586 
L 165.89832 -304.573586 
L 166.593229 -304.573586 
L 166.593229 -304.573586 
L 168.563968 -304.573586 
L 168.563968 -304.573586 
L 171.557706 -304.573586 
L 171.557706 -304.573586 
L 175.806773 -304.573586 
L 175.806773 -304.573586 
L 175.871652 -304.573586 
L 175.871652 -304.573586 
L 177.447248 -304.573586 
L 177.447248 -304.573586 
L 178.259594 -304.573586 
L 178.259594 -304.573586 
L 178.269684 -304.573586 
L 178.269684 -304.573586 
L 181.0794 -304.573586 
L 181.0794 -304.573586 
L 181.915562 -304.573586 
L 181.915562 -304.573586 
L 183.893177 -304.573586 
L 183.893177 -304.573586 
L 188.499299 -304.573586 
L 188.499299 -304.573586 
L 189.528746 -304.573586 
L 189.528746 -304.573586 
L 193.631797 -304.573586 
L 193.631797 -304.573586 
L 193.802265 -304.573586 
L 193.802265 -304.573586 
L 195.134058 -304.573586 
L 195.134058 -304.573586 
L 195.88462 -304.573586 
L 195.88462 -304.573586 
L 197.17099 -304.573586 
L 197.17099 -304.573586 
L 197.869485 -304.573586 
L 197.869485 -304.573586 
L 200.279859 -304.573586 
L 200.279859 -304.573586 
L 221.834594 -304.573586 
L 221.834594 -304.573586 
L 221.966649 -304.573586 
L 221.966649 -304.573586 
L 228.40599 -304.573586 
L 228.40599 -304.573586 
L 230.275573 -304.573586 
L 230.275573 -304.573586 
L 247.315609 -304.573586 
L 247.315609 -304.573586 
L 257.085072 -304.573586 
L 257.085072 -304.573586 
L 260.346679 -304.573586 
L 260.346679 -304.573586 
L 267.401849 -304.573586 
L 267.401849 -304.573586 
L 268.768142 -304.573586 
L 268.768142 -304.573586 
L 270.0875 -304.573586 
L 270.0875 -304.573586 
L 272.519839 -304.573586 
L 272.519839 -304.573586 
L 272.733183 -304.573586 
L 272.733183 -304.573586 
L 276.204852 -304.573586 
L 276.204852 -304.573586 
L 296.858379 -304.573586 
L 296.858379 -304.573586 
L 314.03754 -304.573586 
L 314.03754 -304.573586 
L 356.184571 -304.573586 
L 356.184571 -304.573586 
L 356.499 -304.573586 
L 356.499 -304.573586 
L 452.516971 -304.573586 
L 452.516971 -304.573586 
L 469.292699 -304.573586 
L 469.292699 -304.573586 
L 469.292699 -304.573586 
L 469.292699 -304.573586 
L 469.292699 -304.573586 
L 452.516971 -304.573586 
L 452.516971 -304.573586 
L 356.499 -304.573586 
L 356.499 -304.573586 
L 356.184571 -304.573586 
L 356.184571 -304.573586 
L 314.03754 -304.573586 
L 314.03754 -304.573586 
L 296.858379 -304.573586 
L 296.858379 -304.573586 
L 276.204852 -304.573586 
L 276.204852 -304.573586 
L 272.733183 -304.573586 
L 272.733183 -304.573586 
L 272.519839 -304.573586 
L 272.519839 -304.573586 
L 270.0875 -304.573586 
L 270.0875 -304.573586 
L 268.768142 -304.573586 
L 268.768142 -304.573586 
L 267.401849 -304.573586 
L 267.401849 -304.573586 
L 260.346679 -304.573586 
L 260.346679 -304.573586 
L 257.085072 -304.573586 
L 257.085072 -304.573586 
L 247.315609 -304.573586 
L 247.315609 -304.573586 
L 230.275573 -304.573586 
L 230.275573 -304.573586 
L 228.40599 -304.573586 
L 228.40599 -304.573586 
L 221.966649 -304.573586 
L 221.966649 -304.573586 
L 221.834594 -304.573586 
L 221.834594 -304.573586 
L 200.279859 -304.573586 
L 200.279859 -304.573586 
L 197.869485 -304.573586 
L 197.869485 -304.573586 
L 197.17099 -304.573586 
L 197.17099 -304.573586 
L 195.88462 -304.573586 
L 195.88462 -304.573586 
L 195.134058 -304.573586 
L 195.134058 -304.573586 
L 193.802265 -304.573586 
L 193.802265 -304.573586 
L 193.631797 -304.573586 
L 193.631797 -304.573586 
L 189.528746 -304.573586 
L 189.528746 -304.573586 
L 188.499299 -304.573586 
L 188.499299 -304.573586 
L 183.893177 -304.573586 
L 183.893177 -304.573586 
L 181.915562 -304.573586 
L 181.915562 -304.573586 
L 181.0794 -304.573586 
L 181.0794 -304.573586 
L 178.269684 -304.573586 
L 178.269684 -304.573586 
L 178.259594 -304.573586 
L 178.259594 -304.573586 
L 177.447248 -304.573586 
L 177.447248 -304.573586 
L 175.871652 -304.573586 
L 175.871652 -304.573586 
L 175.806773 -304.573586 
L 175.806773 -304.573586 
L 171.557706 -304.573586 
L 171.557706 -304.573586 
L 168.563968 -304.573586 
L 168.563968 -304.573586 
L 166.593229 -304.573586 
L 166.593229 -304.573586 
L 165.89832 -304.573586 
L 165.89832 -304.573586 
L 165.504735 -304.573586 
L 165.504735 -304.573586 
L 163.232441 -304.573586 
L 163.232441 -304.573586 
L 162.946388 -304.573586 
L 162.946388 -304.573586 
L 161.182583 -304.573586 
L 161.182583 -304.573586 
L 160.465187 -304.573586 
L 160.465187 -304.573586 
L 159.85041 -304.573586 
L 159.85041 -304.573586 
L 158.113315 -304.573586 
L 158.113315 -304.573586 
L 157.006624 -304.573586 
L 157.006624 -304.573586 
L 156.950685 -304.573586 
L 156.950685 -304.573586 
L 153.431023 -304.573586 
L 153.431023 -304.573586 
L 152.846259 -304.573586 
L 152.846259 -304.573586 
L 150.660267 -304.573586 
L 150.660267 -304.573586 
L 149.112159 -304.573586 
L 149.112159 -304.573586 
L 148.019376 -304.573586 
L 148.019376 -304.573586 
L 147.432775 -304.573586 
L 147.432775 -304.573586 
L 146.018648 -304.573586 
L 146.018648 -304.573586 
L 145.941889 -304.573586 
L 145.941889 -304.573586 
L 143.499342 -304.573586 
L 143.499342 -304.573586 
L 142.366559 -304.573586 
L 142.366559 -304.573586 
L 140.904712 -304.573586 
L 140.904712 -304.573586 
L 138.624598 -304.573586 
L 138.624598 -304.573586 
L 136.759703 -304.573586 
L 136.759703 -304.573586 
L 136.36305 -304.573586 
L 136.36305 -304.573586 
L 135.891498 -304.573586 
L 135.891498 -304.573586 
L 134.818946 -304.573586 
L 134.818946 -304.573586 
L 134.430788 -304.573586 
L 134.430788 -304.573586 
L 134.387122 -304.573586 
L 134.387122 -304.573586 
L 133.141446 -304.573586 
L 133.141446 -304.573586 
L 132.025319 -304.573586 
L 132.025319 -304.573586 
L 131.058992 -304.573586 
L 131.058992 -304.573586 
L 130.965612 -304.573586 
L 130.965612 -304.573586 
L 130.802994 -304.573586 
L 130.802994 -304.573586 
L 129.767352 -304.573586 
L 129.767352 -304.573586 
L 129.170778 -304.573586 
L 129.170778 -304.573586 
L 128.297002 -304.573586 
L 128.297002 -304.573586 
L 127.35217 -304.573586 
L 127.35217 -304.573586 
L 127.181475 -304.573586 
L 127.181475 -304.573586 
L 125.769233 -304.573586 
L 125.769233 -304.573586 
L 123.892937 -304.573586 
L 123.892937 -304.573586 
L 122.1472 -304.573586 
L 122.1472 -304.573586 
L 122.051076 -304.573586 
L 122.051076 -304.573586 
L 121.923282 -304.573586 
L 121.923282 -304.573586 
L 121.678301 -304.573586 
L 121.678301 -304.573586 
L 120.153633 -304.573586 
L 120.153633 -304.573586 
L 119.803296 -304.573586 
L 119.803296 -304.573586 
L 119.281546 -304.573586 
L 119.281546 -304.573586 
L 119.249937 -304.573586 
L 119.249937 -304.573586 
L 118.082235 -304.573586 
L 118.082235 -304.573586 
L 114.795634 -304.573586 
L 114.795634 -304.573586 
L 114.313009 -304.573586 
L 114.313009 -304.573586 
L 112.152255 -304.573586 
L 112.152255 -304.573586 
L 111.786038 -304.573586 
L 111.786038 -304.573586 
L 110.923918 -304.573586 
L 110.923918 -304.573586 
L 109.517141 -304.573586 
L 109.517141 -304.573586 
L 109.23385 -304.573586 
L 109.23385 -304.573586 
L 108.646249 -304.573586 
L 108.646249 -304.573586 
L 108.154079 -304.573586 
L 108.154079 -304.573586 
L 108.009828 -304.573586 
L 108.009828 -304.573586 
L 107.000167 -304.573586 
L 107.000167 -304.573586 
L 104.65948 -304.573586 
L 104.65948 -304.573586 
L 103.468508 -304.573586 
L 103.468508 -304.573586 
L 101.921587 -304.573586 
L 101.921587 -304.573586 
L 99.929437 -304.573586 
L 99.929437 -304.573586 
L 98.107378 -304.573586 
L 98.107378 -304.573586 
L 97.083953 -304.573586 
L 97.083953 -304.573586 
L 96.016693 -304.573586 
L 96.016693 -304.573586 
L 95.397604 -304.573586 
L 95.397604 -304.573586 
L 94.361221 -304.573586 
L 94.361221 -304.573586 
L 94.248754 -304.573586 
L 94.248754 -304.573586 
L 94.214207 -304.573586 
L 94.214207 -304.573586 
L 94.076703 -304.573586 
L 94.076703 -304.573586 
L 92.756542 -304.573586 
L 92.756542 -304.573586 
L 91.12516 -304.573586 
L 91.12516 -304.573586 
L 91.027236 -304.573586 
L 91.027236 -304.573586 
L 90.113296 -304.573586 
L 90.113296 -304.573586 
L 89.683851 -304.573586 
L 89.683851 -304.573586 
L 88.939325 -304.573586 
L 88.939325 -304.573586 
L 87.777346 -304.573586 
L 87.777346 -304.573586 
L 87.021421 -304.573586 
L 87.021421 -304.573586 
L 86.670306 -304.573586 
L 86.670306 -304.573586 
L 86.525131 -304.573586 
L 86.525131 -304.573586 
L 86.376745 -304.573586 
L 86.376745 -304.573586 
L 85.715948 -304.573586 
L 85.715948 -304.573586 
L 84.869724 -304.573586 
L 84.869724 -304.573586 
L 83.264792 -304.573586 
L 83.264792 -304.573586 
L 82.730821 -304.573586 
L 82.730821 -304.573586 
L 82.379325 -304.573586 
L 82.379325 -304.573586 
L 80.904343 -304.573586 
L 80.904343 -304.573586 
L 80.314938 -304.573586 
L 80.314938 -304.573586 
L 80.252748 -304.573586 
L 80.252748 -304.573586 
L 77.531891 -304.573586 
L 77.531891 -304.573586 
L 75.937612 -304.573586 
L 75.937612 -304.573586 
L 75.193863 -304.573586 
L 75.193863 -304.573586 
L 74.553574 -304.573586 
L 74.553574 -304.573586 
L 74.392062 -304.573586 
L 74.392062 -304.573586 
L 73.68504 -304.573586 
L 73.68504 -304.573586 
L 72.765634 -304.573586 
L 72.765634 -304.573586 
L 72.462921 -304.573586 
L 72.462921 -304.573586 
L 72.101878 -304.573586 
L 72.101878 -304.573586 
L 71.994425 -304.573586 
L 71.994425 -304.573586 
L 69.95279 -304.573586 
L 69.95279 -304.573586 
L 69.53354 -304.573586 
L 69.53354 -304.573586 
L 68.194136 -304.573586 
L 68.194136 -304.573586 
L 67.073408 -304.573586 
L 67.073408 -304.573586 
L 66.406137 -304.573586 
L 66.406137 -304.573586 
L 65.533502 -304.573586 
L 65.533502 -304.573586 
L 65.027653 -304.573586 
L 65.027653 -304.573586 
L 64.965426 -304.573586 
z
" style="stroke: #ff9800; stroke-opacity: 0.12"/>
    </defs>
    <g clip-path="url(#pb77b768e52)">
     <use xlink:href="#m57273d8cb7" x="0" y="351.837875" style="fill: #ff9800; fill-opacity: 0.12; stroke: #ff9800; stroke-opacity: 0.12"/>
    </g>
   </g>
   <g id="FillBetweenPolyCollection_3">
    <defs>
     <path id="md2cbad0770" d="M 64.965426 -304.573586 
L 64.965426 -304.573586 
L 65.081875 -304.573586 
L 65.081875 -304.573586 
L 65.463833 -304.573586 
L 65.463833 -304.573586 
L 65.73773 -304.573586 
L 65.73773 -304.573586 
L 65.904967 -304.573586 
L 65.904967 -304.573586 
L 66.186795 -304.573586 
L 66.186795 -304.573586 
L 66.739431 -304.573586 
L 66.739431 -304.573586 
L 66.745235 -304.573586 
L 66.745235 -304.573586 
L 68.318542 -304.573586 
L 68.318542 -304.573586 
L 71.808718 -304.573586 
L 71.808718 -304.573586 
L 72.184832 -304.573586 
L 72.184832 -304.573586 
L 72.21358 -304.573586 
L 72.21358 -304.573586 
L 72.77647 -304.573586 
L 72.77647 -304.573586 
L 75.072356 -304.573586 
L 75.072356 -304.573586 
L 75.073159 -304.573586 
L 75.073159 -304.573586 
L 75.725368 -304.573586 
L 75.725368 -304.573586 
L 76.357843 -304.573586 
L 76.357843 -304.573586 
L 76.883553 -304.573586 
L 76.883553 -304.573586 
L 78.052404 -304.573586 
L 78.052404 -304.573586 
L 78.909466 -304.573586 
L 78.909466 -304.573586 
L 79.296259 -304.573586 
L 79.296259 -304.573586 
L 79.350906 -304.573586 
L 79.350906 -304.573586 
L 80.742568 -304.573586 
L 80.742568 -304.573586 
L 81.477296 -304.573586 
L 81.477296 -304.573586 
L 81.819546 -304.573586 
L 81.819546 -304.573586 
L 82.118342 -304.573586 
L 82.118342 -304.573586 
L 82.835947 -304.573586 
L 82.835947 -304.573586 
L 83.299268 -304.573586 
L 83.299268 -304.573586 
L 83.914149 -304.573586 
L 83.914149 -304.573586 
L 84.022382 -304.573586 
L 84.022382 -304.573586 
L 85.509087 -304.573586 
L 85.509087 -304.573586 
L 85.835776 -304.573586 
L 85.835776 -304.573586 
L 87.593309 -304.573586 
L 87.593309 -304.573586 
L 87.619219 -304.573586 
L 87.619219 -304.573586 
L 88.815927 -304.573586 
L 88.815927 -304.573586 
L 90.441148 -304.573586 
L 90.441148 -304.573586 
L 91.201947 -304.573586 
L 91.201947 -304.573586 
L 91.693678 -304.573586 
L 91.693678 -304.573586 
L 94.797118 -304.573586 
L 94.797118 -304.573586 
L 95.034701 -304.573586 
L 95.034701 -304.573586 
L 95.112774 -304.573586 
L 95.112774 -304.573586 
L 95.676942 -304.573586 
L 95.676942 -304.573586 
L 96.86335 -304.573586 
L 96.86335 -304.573586 
L 97.075519 -304.573586 
L 97.075519 -304.573586 
L 97.674815 -304.573586 
L 97.674815 -304.573586 
L 97.740294 -304.573586 
L 97.740294 -304.573586 
L 97.818263 -304.573586 
L 97.818263 -304.573586 
L 98.654961 -304.573586 
L 98.654961 -304.573586 
L 99.238684 -304.573586 
L 99.238684 -304.573586 
L 99.334492 -304.573586 
L 99.334492 -304.573586 
L 100.450928 -304.573586 
L 100.450928 -304.573586 
L 101.202263 -304.573586 
L 101.202263 -304.573586 
L 102.173909 -304.573586 
L 102.173909 -304.573586 
L 105.084485 -304.573586 
L 105.084485 -304.573586 
L 107.633353 -304.573586 
L 107.633353 -304.573586 
L 108.96855 -304.573586 
L 108.96855 -304.573586 
L 109.021396 -304.573586 
L 109.021396 -304.573586 
L 115.052869 -304.573586 
L 115.052869 -304.573586 
L 116.446275 -304.573586 
L 116.446275 -304.573586 
L 119.136232 -304.573586 
L 119.136232 -304.573586 
L 120.833451 -304.573586 
L 120.833451 -304.573586 
L 123.169351 -304.573586 
L 123.169351 -304.573586 
L 124.301227 -304.573586 
L 124.301227 -304.573586 
L 124.338659 -304.573586 
L 124.338659 -304.573586 
L 125.207005 -304.573586 
L 125.207005 -304.573586 
L 126.558531 -304.573586 
L 126.558531 -304.573586 
L 128.333941 -304.573586 
L 128.333941 -304.573586 
L 128.375037 -304.573586 
L 128.375037 -304.573586 
L 128.785594 -304.573586 
L 128.785594 -304.573586 
L 131.199541 -304.573586 
L 131.199541 -304.573586 
L 131.600225 -304.573586 
L 131.600225 -304.573586 
L 131.7737 -304.573586 
L 131.7737 -304.573586 
L 133.156645 -304.573586 
L 133.156645 -304.573586 
L 133.754193 -304.573586 
L 133.754193 -304.573586 
L 133.949256 -304.573586 
L 133.949256 -304.573586 
L 144.486745 -304.573586 
L 144.486745 -304.573586 
L 145.798587 -304.573586 
L 145.798587 -304.573586 
L 146.777768 -304.573586 
L 146.777768 -304.573586 
L 149.994188 -304.573586 
L 149.994188 -304.573586 
L 153.170491 -304.573586 
L 153.170491 -304.573586 
L 157.573371 -304.573586 
L 157.573371 -304.573586 
L 158.196188 -304.573586 
L 158.196188 -304.573586 
L 158.741893 -304.573586 
L 158.741893 -304.573586 
L 159.640623 -304.573586 
L 159.640623 -304.573586 
L 163.948081 -304.573586 
L 163.948081 -304.573586 
L 164.373465 -304.573586 
L 164.373465 -304.573586 
L 170.482269 -304.573586 
L 170.482269 -304.573586 
L 171.421574 -304.573586 
L 171.421574 -304.573586 
L 174.74479 -304.573586 
L 174.74479 -304.573586 
L 180.880245 -304.573586 
L 180.880245 -304.573586 
L 181.300839 -304.573586 
L 181.300839 -304.573586 
L 181.583809 -304.573586 
L 181.583809 -304.573586 
L 185.409545 -304.573586 
L 185.409545 -304.573586 
L 186.47778 -304.573586 
L 186.47778 -304.573586 
L 187.854956 -304.573586 
L 187.854956 -304.573586 
L 188.456437 -304.573586 
L 188.456437 -304.573586 
L 191.7631 -304.573586 
L 191.7631 -304.573586 
L 193.629528 -304.573586 
L 193.629528 -304.573586 
L 196.553758 -304.573586 
L 196.553758 -304.573586 
L 213.686352 -304.573586 
L 213.686352 -304.573586 
L 236.267913 -304.573586 
L 236.267913 -304.573586 
L 248.395007 -304.573586 
L 248.395007 -304.573586 
L 249.182858 -304.573586 
L 249.182858 -304.573586 
L 251.219384 -304.573586 
L 251.219384 -304.573586 
L 255.589741 -304.573586 
L 255.589741 -304.573586 
L 256.901093 -304.573586 
L 256.901093 -304.573586 
L 277.00829 -304.573586 
L 277.00829 -304.573586 
L 298.359348 -304.573586 
L 298.359348 -304.573586 
L 318.854595 -304.573586 
L 318.854595 -304.573586 
L 406.227016 -304.573586 
L 406.227016 -304.573586 
L 407.658248 -304.573586 
L 407.658248 -304.573586 
L 429.554506 -304.573586 
L 429.554506 -304.573586 
L 447.045031 -304.573586 
L 447.045031 -304.573586 
L 447.045031 -304.573586 
L 447.045031 -304.573586 
L 447.045031 -304.573586 
L 429.554506 -304.573586 
L 429.554506 -304.573586 
L 407.658248 -304.573586 
L 407.658248 -304.573586 
L 406.227016 -304.573586 
L 406.227016 -304.573586 
L 318.854595 -304.573586 
L 318.854595 -304.573586 
L 298.359348 -304.573586 
L 298.359348 -304.573586 
L 277.00829 -304.573586 
L 277.00829 -304.573586 
L 256.901093 -304.573586 
L 256.901093 -304.573586 
L 255.589741 -304.573586 
L 255.589741 -304.573586 
L 251.219384 -304.573586 
L 251.219384 -304.573586 
L 249.182858 -304.573586 
L 249.182858 -304.573586 
L 248.395007 -304.573586 
L 248.395007 -304.573586 
L 236.267913 -304.573586 
L 236.267913 -304.573586 
L 213.686352 -304.573586 
L 213.686352 -304.573586 
L 196.553758 -304.573586 
L 196.553758 -304.573586 
L 193.629528 -304.573586 
L 193.629528 -304.573586 
L 191.7631 -304.573586 
L 191.7631 -304.573586 
L 188.456437 -304.573586 
L 188.456437 -304.573586 
L 187.854956 -304.573586 
L 187.854956 -304.573586 
L 186.47778 -304.573586 
L 186.47778 -304.573586 
L 185.409545 -304.573586 
L 185.409545 -304.573586 
L 181.583809 -304.573586 
L 181.583809 -304.573586 
L 181.300839 -304.573586 
L 181.300839 -304.573586 
L 180.880245 -304.573586 
L 180.880245 -304.573586 
L 174.74479 -304.573586 
L 174.74479 -304.573586 
L 171.421574 -304.573586 
L 171.421574 -304.573586 
L 170.482269 -304.573586 
L 170.482269 -304.573586 
L 164.373465 -304.573586 
L 164.373465 -304.573586 
L 163.948081 -304.573586 
L 163.948081 -304.573586 
L 159.640623 -304.573586 
L 159.640623 -304.573586 
L 158.741893 -304.573586 
L 158.741893 -304.573586 
L 158.196188 -304.573586 
L 158.196188 -304.573586 
L 157.573371 -304.573586 
L 157.573371 -304.573586 
L 153.170491 -304.573586 
L 153.170491 -304.573586 
L 149.994188 -304.573586 
L 149.994188 -304.573586 
L 146.777768 -304.573586 
L 146.777768 -304.573586 
L 145.798587 -304.573586 
L 145.798587 -304.573586 
L 144.486745 -304.573586 
L 144.486745 -304.573586 
L 133.949256 -304.573586 
L 133.949256 -304.573586 
L 133.754193 -304.573586 
L 133.754193 -304.573586 
L 133.156645 -304.573586 
L 133.156645 -304.573586 
L 131.7737 -304.573586 
L 131.7737 -304.573586 
L 131.600225 -304.573586 
L 131.600225 -304.573586 
L 131.199541 -304.573586 
L 131.199541 -304.573586 
L 128.785594 -304.573586 
L 128.785594 -304.573586 
L 128.375037 -304.573586 
L 128.375037 -304.573586 
L 128.333941 -304.573586 
L 128.333941 -304.573586 
L 126.558531 -304.573586 
L 126.558531 -304.573586 
L 125.207005 -304.573586 
L 125.207005 -304.573586 
L 124.338659 -304.573586 
L 124.338659 -304.573586 
L 124.301227 -304.573586 
L 124.301227 -304.573586 
L 123.169351 -304.573586 
L 123.169351 -304.573586 
L 120.833451 -304.573586 
L 120.833451 -304.573586 
L 119.136232 -304.573586 
L 119.136232 -304.573586 
L 116.446275 -304.573586 
L 116.446275 -304.573586 
L 115.052869 -304.573586 
L 115.052869 -304.573586 
L 109.021396 -304.573586 
L 109.021396 -304.573586 
L 108.96855 -304.573586 
L 108.96855 -304.573586 
L 107.633353 -304.573586 
L 107.633353 -304.573586 
L 105.084485 -304.573586 
L 105.084485 -304.573586 
L 102.173909 -304.573586 
L 102.173909 -304.573586 
L 101.202263 -304.573586 
L 101.202263 -304.573586 
L 100.450928 -304.573586 
L 100.450928 -304.573586 
L 99.334492 -304.573586 
L 99.334492 -304.573586 
L 99.238684 -304.573586 
L 99.238684 -304.573586 
L 98.654961 -304.573586 
L 98.654961 -304.573586 
L 97.818263 -304.573586 
L 97.818263 -304.573586 
L 97.740294 -304.573586 
L 97.740294 -304.573586 
L 97.674815 -304.573586 
L 97.674815 -304.573586 
L 97.075519 -304.573586 
L 97.075519 -304.573586 
L 96.86335 -304.573586 
L 96.86335 -304.573586 
L 95.676942 -304.573586 
L 95.676942 -304.573586 
L 95.112774 -304.573586 
L 95.112774 -304.573586 
L 95.034701 -304.573586 
L 95.034701 -304.573586 
L 94.797118 -304.573586 
L 94.797118 -304.573586 
L 91.693678 -304.573586 
L 91.693678 -304.573586 
L 91.201947 -304.573586 
L 91.201947 -304.573586 
L 90.441148 -304.573586 
L 90.441148 -304.573586 
L 88.815927 -304.573586 
L 88.815927 -304.573586 
L 87.619219 -304.573586 
L 87.619219 -304.573586 
L 87.593309 -304.573586 
L 87.593309 -304.573586 
L 85.835776 -304.573586 
L 85.835776 -304.573586 
L 85.509087 -304.573586 
L 85.509087 -304.573586 
L 84.022382 -304.573586 
L 84.022382 -304.573586 
L 83.914149 -304.573586 
L 83.914149 -304.573586 
L 83.299268 -304.573586 
L 83.299268 -304.573586 
L 82.835947 -304.573586 
L 82.835947 -304.573586 
L 82.118342 -304.573586 
L 82.118342 -304.573586 
L 81.819546 -304.573586 
L 81.819546 -304.573586 
L 81.477296 -304.573586 
L 81.477296 -304.573586 
L 80.742568 -304.573586 
L 80.742568 -304.573586 
L 79.350906 -304.573586 
L 79.350906 -304.573586 
L 79.296259 -304.573586 
L 79.296259 -304.573586 
L 78.909466 -304.573586 
L 78.909466 -304.573586 
L 78.052404 -304.573586 
L 78.052404 -304.573586 
L 76.883553 -304.573586 
L 76.883553 -304.573586 
L 76.357843 -304.573586 
L 76.357843 -304.573586 
L 75.725368 -304.573586 
L 75.725368 -304.573586 
L 75.073159 -304.573586 
L 75.073159 -304.573586 
L 75.072356 -304.573586 
L 75.072356 -304.573586 
L 72.77647 -304.573586 
L 72.77647 -304.573586 
L 72.21358 -304.573586 
L 72.21358 -304.573586 
L 72.184832 -304.573586 
L 72.184832 -304.573586 
L 71.808718 -304.573586 
L 71.808718 -304.573586 
L 68.318542 -304.573586 
L 68.318542 -304.573586 
L 66.745235 -304.573586 
L 66.745235 -304.573586 
L 66.739431 -304.573586 
L 66.739431 -304.573586 
L 66.186795 -304.573586 
L 66.186795 -304.573586 
L 65.904967 -304.573586 
L 65.904967 -304.573586 
L 65.73773 -304.573586 
L 65.73773 -304.573586 
L 65.463833 -304.573586 
L 65.463833 -304.573586 
L 65.081875 -304.573586 
L 65.081875 -304.573586 
L 64.965426 -304.573586 
z
" style="stroke: #f44336; stroke-opacity: 0.12"/>
    </defs>
    <g clip-path="url(#pb77b768e52)">
     <use xlink:href="#md2cbad0770" x="0" y="351.837875" style="fill: #f44336; fill-opacity: 0.12; stroke: #f44336; stroke-opacity: 0.12"/>
    </g>
   </g>
   <g id="matplotlib.axis_1">
    <g id="xtick_1">
     <g id="line2d_1">
      <defs>
       <path id="ma77d19a11f" d="M 0 0 
L 0 3.5 
" style="stroke: #000000; stroke-width: 0.8"/>
      </defs>
      <g>
       <use xlink:href="#ma77d19a11f" x="64.965426" y="313.313813" style="stroke: #000000; stroke-width: 0.8"/>
      </g>
     </g>
     <g id="text_1">
      <!-- 0 -->
      <g transform="translate(61.784176 327.91225) scale(0.1 -0.1)">
       <defs>
        <path id="DejaVuSans-30" d="M 2034 4250 
Q 1547 4250 1301 3770 
Q 1056 3291 1056 2328 
Q 1056 1369 1301 889 
Q 1547 409 2034 409 
Q 2525 409 2770 889 
Q 3016 1369 3016 2328 
Q 3016 3291 2770 3770 
Q 2525 4250 2034 4250 
z
M 2034 4750 
Q 2819 4750 3233 4129 
Q 3647 3509 3647 2328 
Q 3647 1150 3233 529 
Q 2819 -91 2034 -91 
Q 1250 -91 836 529 
Q 422 1150 422 2328 
Q 422 3509 836 4129 
Q 1250 4750 2034 4750 
z
" transform="scale(0.015625)"/>
       </defs>
       <use xlink:href="#DejaVuSans-30"/>
      </g>
     </g>
    </g>
    <g id="xtick_2">
     <g id="line2d_2">
      <g>
       <use xlink:href="#ma77d19a11f" x="160.411744" y="313.313813" style="stroke: #000000; stroke-width: 0.8"/>
      </g>
     </g>
     <g id="text_2">
      <!-- 50 -->
      <g transform="translate(154.049244 327.91225) scale(0.1 -0.1)">
       <defs>
        <path id="DejaVuSans-35" d="M 691 4666 
L 3169 4666 
L 3169 4134 
L 1269 4134 
L 1269 2991 
Q 1406 3038 1543 3061 
Q 1681 3084 1819 3084 
Q 2600 3084 3056 2656 
Q 3513 2228 3513 1497 
Q 3513 744 3044 326 
Q 2575 -91 1722 -91 
Q 1428 -91 1123 -41 
Q 819 9 494 109 
L 494 744 
Q 775 591 1075 516 
Q 1375 441 1709 441 
Q 2250 441 2565 725 
Q 2881 1009 2881 1497 
Q 2881 1984 2565 2268 
Q 2250 2553 1709 2553 
Q 1456 2553 1204 2497 
Q 953 2441 691 2322 
L 691 4666 
z
" transform="scale(0.015625)"/>
       </defs>
       <use xlink:href="#DejaVuSans-35"/>
       <use xlink:href="#DejaVuSans-30" transform="translate(63.623047 0)"/>
      </g>
     </g>
    </g>
    <g id="xtick_3">
     <g id="line2d_3">
      <g>
       <use xlink:href="#ma77d19a11f" x="255.858062" y="313.313813" style="stroke: #000000; stroke-width: 0.8"/>
      </g>
     </g>
     <g id="text_3">
      <!-- 100 -->
      <g transform="translate(246.314312 327.91225) scale(0.1 -0.1)">
       <defs>
        <path id="DejaVuSans-31" d="M 794 531 
L 1825 531 
L 1825 4091 
L 703 3866 
L 703 4441 
L 1819 4666 
L 2450 4666 
L 2450 531 
L 3481 531 
L 3481 0 
L 794 0 
L 794 531 
z
" transform="scale(0.015625)"/>
       </defs>
       <use xlink:href="#DejaVuSans-31"/>
       <use xlink:href="#DejaVuSans-30" transform="translate(63.623047 0)"/>
       <use xlink:href="#DejaVuSans-30" transform="translate(127.246094 0)"/>
      </g>
     </g>
    </g>
    <g id="xtick_4">
     <g id="line2d_4">
      <g>
       <use xlink:href="#ma77d19a11f" x="351.30438" y="313.313813" style="stroke: #000000; stroke-width: 0.8"/>
      </g>
     </g>
     <g id="text_4">
      <!-- 150 -->
      <g transform="translate(341.76063 327.91225) scale(0.1 -0.1)">
       <use xlink:href="#DejaVuSans-31"/>
       <use xlink:href="#DejaVuSans-35" transform="translate(63.623047 0)"/>
       <use xlink:href="#DejaVuSans-30" transform="translate(127.246094 0)"/>
      </g>
     </g>
    </g>
    <g id="xtick_5">
     <g id="line2d_5">
      <g>
       <use xlink:href="#ma77d19a11f" x="446.750698" y="313.313813" style="stroke: #000000; stroke-width: 0.8"/>
      </g>
     </g>
     <g id="text_5">
      <!-- 200 -->
      <g transform="translate(437.206948 327.91225) scale(0.1 -0.1)">
       <defs>
        <path id="DejaVuSans-32" d="M 1228 531 
L 3431 531 
L 3431 0 
L 469 0 
L 469 531 
Q 828 903 1448 1529 
Q 2069 2156 2228 2338 
Q 2531 2678 2651 2914 
Q 2772 3150 2772 3378 
Q 2772 3750 2511 3984 
Q 2250 4219 1831 4219 
Q 1534 4219 1204 4116 
Q 875 4013 500 3803 
L 500 4441 
Q 881 4594 1212 4672 
Q 1544 4750 1819 4750 
Q 2544 4750 2975 4387 
Q 3406 4025 3406 3419 
Q 3406 3131 3298 2873 
Q 3191 2616 2906 2266 
Q 2828 2175 2409 1742 
Q 1991 1309 1228 531 
z
" transform="scale(0.015625)"/>
       </defs>
       <use xlink:href="#DejaVuSans-32"/>
       <use xlink:href="#DejaVuSans-30" transform="translate(63.623047 0)"/>
       <use xlink:href="#DejaVuSans-30" transform="translate(127.246094 0)"/>
      </g>
     </g>
    </g>
    <g id="text_6">
     <!-- Time (months) -->
     <g transform="translate(226.917188 342.350219) scale(0.11 -0.11)">
      <defs>
       <path id="DejaVuSans-54" d="M -19 4666 
L 3928 4666 
L 3928 4134 
L 2272 4134 
L 2272 0 
L 1638 0 
L 1638 4134 
L -19 4134 
L -19 4666 
z
" transform="scale(0.015625)"/>
       <path id="DejaVuSans-69" d="M 603 3500 
L 1178 3500 
L 1178 0 
L 603 0 
L 603 3500 
z
M 603 4863 
L 1178 4863 
L 1178 4134 
L 603 4134 
L 603 4863 
z
" transform="scale(0.015625)"/>
       <path id="DejaVuSans-6d" d="M 3328 2828 
Q 3544 3216 3844 3400 
Q 4144 3584 4550 3584 
Q 5097 3584 5394 3201 
Q 5691 2819 5691 2113 
L 5691 0 
L 5113 0 
L 5113 2094 
Q 5113 2597 4934 2840 
Q 4756 3084 4391 3084 
Q 3944 3084 3684 2787 
Q 3425 2491 3425 1978 
L 3425 0 
L 2847 0 
L 2847 2094 
Q 2847 2600 2669 2842 
Q 2491 3084 2119 3084 
Q 1678 3084 1418 2786 
Q 1159 2488 1159 1978 
L 1159 0 
L 581 0 
L 581 3500 
L 1159 3500 
L 1159 2956 
Q 1356 3278 1631 3431 
Q 1906 3584 2284 3584 
Q 2666 3584 2933 3390 
Q 3200 3197 3328 2828 
z
" transform="scale(0.015625)"/>
       <path id="DejaVuSans-65" d="M 3597 1894 
L 3597 1613 
L 953 1613 
Q 991 1019 1311 708 
Q 1631 397 2203 397 
Q 2534 397 2845 478 
Q 3156 559 3463 722 
L 3463 178 
Q 3153 47 2828 -22 
Q 2503 -91 2169 -91 
Q 1331 -91 842 396 
Q 353 884 353 1716 
Q 353 2575 817 3079 
Q 1281 3584 2069 3584 
Q 2775 3584 3186 3129 
Q 3597 2675 3597 1894 
z
M 3022 2063 
Q 3016 2534 2758 2815 
Q 2500 3097 2075 3097 
Q 1594 3097 1305 2825 
Q 1016 2553 972 2059 
L 3022 2063 
z
" transform="scale(0.015625)"/>
       <path id="DejaVuSans-20" transform="scale(0.015625)"/>
       <path id="DejaVuSans-28" d="M 1984 4856 
Q 1566 4138 1362 3434 
Q 1159 2731 1159 2009 
Q 1159 1288 1364 580 
Q 1569 -128 1984 -844 
L 1484 -844 
Q 1016 -109 783 600 
Q 550 1309 550 2009 
Q 550 2706 781 3412 
Q 1013 4119 1484 4856 
L 1984 4856 
z
" transform="scale(0.015625)"/>
       <path id="DejaVuSans-6f" d="M 1959 3097 
Q 1497 3097 1228 2736 
Q 959 2375 959 1747 
Q 959 1119 1226 758 
Q 1494 397 1959 397 
Q 2419 397 2687 759 
Q 2956 1122 2956 1747 
Q 2956 2369 2687 2733 
Q 2419 3097 1959 3097 
z
M 1959 3584 
Q 2709 3584 3137 3096 
Q 3566 2609 3566 1747 
Q 3566 888 3137 398 
Q 2709 -91 1959 -91 
Q 1206 -91 779 398 
Q 353 888 353 1747 
Q 353 2609 779 3096 
Q 1206 3584 1959 3584 
z
" transform="scale(0.015625)"/>
       <path id="DejaVuSans-6e" d="M 3513 2113 
L 3513 0 
L 2938 0 
L 2938 2094 
Q 2938 2591 2744 2837 
Q 2550 3084 2163 3084 
Q 1697 3084 1428 2787 
Q 1159 2491 1159 1978 
L 1159 0 
L 581 0 
L 581 3500 
L 1159 3500 
L 1159 2956 
Q 1366 3272 1645 3428 
Q 1925 3584 2291 3584 
Q 2894 3584 3203 3211 
Q 3513 2838 3513 2113 
z
" transform="scale(0.015625)"/>
       <path id="DejaVuSans-74" d="M 1172 4494 
L 1172 3500 
L 2356 3500 
L 2356 3053 
L 1172 3053 
L 1172 1153 
Q 1172 725 1289 603 
Q 1406 481 1766 481 
L 2356 481 
L 2356 0 
L 1766 0 
Q 1100 0 847 248 
Q 594 497 594 1153 
L 594 3053 
L 172 3053 
L 172 3500 
L 594 3500 
L 594 4494 
L 1172 4494 
z
" transform="scale(0.015625)"/>
       <path id="DejaVuSans-68" d="M 3513 2113 
L 3513 0 
L 2938 0 
L 2938 2094 
Q 2938 2591 2744 2837 
Q 2550 3084 2163 3084 
Q 1697 3084 1428 2787 
Q 1159 2491 1159 1978 
L 1159 0 
L 581 0 
L 581 4863 
L 1159 4863 
L 1159 2956 
Q 1366 3272 1645 3428 
Q 1925 3584 2291 3584 
Q 2894 3584 3203 3211 
Q 3513 2838 3513 2113 
z
" transform="scale(0.015625)"/>
       <path id="DejaVuSans-73" d="M 2834 3397 
L 2834 2853 
Q 2591 2978 2328 3040 
Q 2066 3103 1784 3103 
Q 1356 3103 1142 2972 
Q 928 2841 928 2578 
Q 928 2378 1081 2264 
Q 1234 2150 1697 2047 
L 1894 2003 
Q 2506 1872 2764 1633 
Q 3022 1394 3022 966 
Q 3022 478 2636 193 
Q 2250 -91 1575 -91 
Q 1294 -91 989 -36 
Q 684 19 347 128 
L 347 722 
Q 666 556 975 473 
Q 1284 391 1588 391 
Q 1994 391 2212 530 
Q 2431 669 2431 922 
Q 2431 1156 2273 1281 
Q 2116 1406 1581 1522 
L 1381 1569 
Q 847 1681 609 1914 
Q 372 2147 372 2553 
Q 372 3047 722 3315 
Q 1072 3584 1716 3584 
Q 2034 3584 2315 3537 
Q 2597 3491 2834 3397 
z
" transform="scale(0.015625)"/>
       <path id="DejaVuSans-29" d="M 513 4856 
L 1013 4856 
Q 1481 4119 1714 3412 
Q 1947 2706 1947 2009 
Q 1947 1309 1714 600 
Q 1481 -109 1013 -844 
L 513 -844 
Q 928 -128 1133 580 
Q 1338 1288 1338 2009 
Q 1338 2731 1133 3434 
Q 928 4138 513 4856 
z
" transform="scale(0.015625)"/>
      </defs>
      <use xlink:href="#DejaVuSans-54"/>
      <use xlink:href="#DejaVuSans-69" transform="translate(57.958984 0)"/>
      <use xlink:href="#DejaVuSans-6d" transform="translate(85.742188 0)"/>
      <use xlink:href="#DejaVuSans-65" transform="translate(183.154297 0)"/>
      <use xlink:href="#DejaVuSans-20" transform="translate(244.677734 0)"/>
      <use xlink:href="#DejaVuSans-28" transform="translate(276.464844 0)"/>
      <use xlink:href="#DejaVuSans-6d" transform="translate(315.478516 0)"/>
      <use xlink:href="#DejaVuSans-6f" transform="translate(412.890625 0)"/>
      <use xlink:href="#DejaVuSans-6e" transform="translate(474.072266 0)"/>
      <use xlink:href="#DejaVuSans-74" transform="translate(537.451172 0)"/>
      <use xlink:href="#DejaVuSans-68" transform="translate(576.660156 0)"/>
      <use xlink:href="#DejaVuSans-73" transform="translate(640.039062 0)"/>
      <use xlink:href="#DejaVuSans-29" transform="translate(692.138672 0)"/>
     </g>
    </g>
   </g>
   <g id="matplotlib.axis_2">
    <g id="ytick_1">
     <g id="line2d_6">
      <defs>
       <path id="m228e488401" d="M 0 0 
L -3.5 0 
" style="stroke: #000000; stroke-width: 0.8"/>
      </defs>
      <g>
       <use xlink:href="#m228e488401" x="44.749063" y="313.313813" style="stroke: #000000; stroke-width: 0.8"/>
      </g>
     </g>
     <g id="text_7">
      <!-- 0.0 -->
      <g transform="translate(21.845938 317.113031) scale(0.1 -0.1)">
       <defs>
        <path id="DejaVuSans-2e" d="M 684 794 
L 1344 794 
L 1344 0 
L 684 0 
L 684 794 
z
" transform="scale(0.015625)"/>
       </defs>
       <use xlink:href="#DejaVuSans-30"/>
       <use xlink:href="#DejaVuSans-2e" transform="translate(63.623047 0)"/>
       <use xlink:href="#DejaVuSans-30" transform="translate(95.410156 0)"/>
      </g>
     </g>
    </g>
    <g id="ytick_2">
     <g id="line2d_7">
      <g>
       <use xlink:href="#m228e488401" x="44.749063" y="260.103908" style="stroke: #000000; stroke-width: 0.8"/>
      </g>
     </g>
     <g id="text_8">
      <!-- 0.2 -->
      <g transform="translate(21.845938 263.903126) scale(0.1 -0.1)">
       <use xlink:href="#DejaVuSans-30"/>
       <use xlink:href="#DejaVuSans-2e" transform="translate(63.623047 0)"/>
       <use xlink:href="#DejaVuSans-32" transform="translate(95.410156 0)"/>
      </g>
     </g>
    </g>
    <g id="ytick_3">
     <g id="line2d_8">
      <g>
       <use xlink:href="#m228e488401" x="44.749063" y="206.894003" style="stroke: #000000; stroke-width: 0.8"/>
      </g>
     </g>
     <g id="text_9">
      <!-- 0.4 -->
      <g transform="translate(21.845938 210.693222) scale(0.1 -0.1)">
       <defs>
        <path id="DejaVuSans-34" d="M 2419 4116 
L 825 1625 
L 2419 1625 
L 2419 4116 
z
M 2253 4666 
L 3047 4666 
L 3047 1625 
L 3713 1625 
L 3713 1100 
L 3047 1100 
L 3047 0 
L 2419 0 
L 2419 1100 
L 313 1100 
L 313 1709 
L 2253 4666 
z
" transform="scale(0.015625)"/>
       </defs>
       <use xlink:href="#DejaVuSans-30"/>
       <use xlink:href="#DejaVuSans-2e" transform="translate(63.623047 0)"/>
       <use xlink:href="#DejaVuSans-34" transform="translate(95.410156 0)"/>
      </g>
     </g>
    </g>
    <g id="ytick_4">
     <g id="line2d_9">
      <g>
       <use xlink:href="#m228e488401" x="44.749063" y="153.684098" style="stroke: #000000; stroke-width: 0.8"/>
      </g>
     </g>
     <g id="text_10">
      <!-- 0.6 -->
      <g transform="translate(21.845938 157.483317) scale(0.1 -0.1)">
       <defs>
        <path id="DejaVuSans-36" d="M 2113 2584 
Q 1688 2584 1439 2293 
Q 1191 2003 1191 1497 
Q 1191 994 1439 701 
Q 1688 409 2113 409 
Q 2538 409 2786 701 
Q 3034 994 3034 1497 
Q 3034 2003 2786 2293 
Q 2538 2584 2113 2584 
z
M 3366 4563 
L 3366 3988 
Q 3128 4100 2886 4159 
Q 2644 4219 2406 4219 
Q 1781 4219 1451 3797 
Q 1122 3375 1075 2522 
Q 1259 2794 1537 2939 
Q 1816 3084 2150 3084 
Q 2853 3084 3261 2657 
Q 3669 2231 3669 1497 
Q 3669 778 3244 343 
Q 2819 -91 2113 -91 
Q 1303 -91 875 529 
Q 447 1150 447 2328 
Q 447 3434 972 4092 
Q 1497 4750 2381 4750 
Q 2619 4750 2861 4703 
Q 3103 4656 3366 4563 
z
" transform="scale(0.015625)"/>
       </defs>
       <use xlink:href="#DejaVuSans-30"/>
       <use xlink:href="#DejaVuSans-2e" transform="translate(63.623047 0)"/>
       <use xlink:href="#DejaVuSans-36" transform="translate(95.410156 0)"/>
      </g>
     </g>
    </g>
    <g id="ytick_5">
     <g id="line2d_10">
      <g>
       <use xlink:href="#m228e488401" x="44.749063" y="100.474193" style="stroke: #000000; stroke-width: 0.8"/>
      </g>
     </g>
     <g id="text_11">
      <!-- 0.8 -->
      <g transform="translate(21.845938 104.273412) scale(0.1 -0.1)">
       <defs>
        <path id="DejaVuSans-38" d="M 2034 2216 
Q 1584 2216 1326 1975 
Q 1069 1734 1069 1313 
Q 1069 891 1326 650 
Q 1584 409 2034 409 
Q 2484 409 2743 651 
Q 3003 894 3003 1313 
Q 3003 1734 2745 1975 
Q 2488 2216 2034 2216 
z
M 1403 2484 
Q 997 2584 770 2862 
Q 544 3141 544 3541 
Q 544 4100 942 4425 
Q 1341 4750 2034 4750 
Q 2731 4750 3128 4425 
Q 3525 4100 3525 3541 
Q 3525 3141 3298 2862 
Q 3072 2584 2669 2484 
Q 3125 2378 3379 2068 
Q 3634 1759 3634 1313 
Q 3634 634 3220 271 
Q 2806 -91 2034 -91 
Q 1263 -91 848 271 
Q 434 634 434 1313 
Q 434 1759 690 2068 
Q 947 2378 1403 2484 
z
M 1172 3481 
Q 1172 3119 1398 2916 
Q 1625 2713 2034 2713 
Q 2441 2713 2670 2916 
Q 2900 3119 2900 3481 
Q 2900 3844 2670 4047 
Q 2441 4250 2034 4250 
Q 1625 4250 1398 4047 
Q 1172 3844 1172 3481 
z
" transform="scale(0.015625)"/>
       </defs>
       <use xlink:href="#DejaVuSans-30"/>
       <use xlink:href="#DejaVuSans-2e" transform="translate(63.623047 0)"/>
       <use xlink:href="#DejaVuSans-38" transform="translate(95.410156 0)"/>
      </g>
     </g>
    </g>
    <g id="ytick_6">
     <g id="line2d_11">
      <g>
       <use xlink:href="#m228e488401" x="44.749063" y="47.264289" style="stroke: #000000; stroke-width: 0.8"/>
      </g>
     </g>
     <g id="text_12">
      <!-- 1.0 -->
      <g transform="translate(21.845938 51.063507) scale(0.1 -0.1)">
       <use xlink:href="#DejaVuSans-31"/>
       <use xlink:href="#DejaVuSans-2e" transform="translate(63.623047 0)"/>
       <use xlink:href="#DejaVuSans-30" transform="translate(95.410156 0)"/>
      </g>
     </g>
    </g>
    <g id="text_13">
     <!-- Overall survival probability -->
     <g transform="translate(15.558281 247.682422) rotate(-90) scale(0.11 -0.11)">
      <defs>
       <path id="DejaVuSans-4f" d="M 2522 4238 
Q 1834 4238 1429 3725 
Q 1025 3213 1025 2328 
Q 1025 1447 1429 934 
Q 1834 422 2522 422 
Q 3209 422 3611 934 
Q 4013 1447 4013 2328 
Q 4013 3213 3611 3725 
Q 3209 4238 2522 4238 
z
M 2522 4750 
Q 3503 4750 4090 4092 
Q 4678 3434 4678 2328 
Q 4678 1225 4090 567 
Q 3503 -91 2522 -91 
Q 1538 -91 948 565 
Q 359 1222 359 2328 
Q 359 3434 948 4092 
Q 1538 4750 2522 4750 
z
" transform="scale(0.015625)"/>
       <path id="DejaVuSans-76" d="M 191 3500 
L 800 3500 
L 1894 563 
L 2988 3500 
L 3597 3500 
L 2284 0 
L 1503 0 
L 191 3500 
z
" transform="scale(0.015625)"/>
       <path id="DejaVuSans-72" d="M 2631 2963 
Q 2534 3019 2420 3045 
Q 2306 3072 2169 3072 
Q 1681 3072 1420 2755 
Q 1159 2438 1159 1844 
L 1159 0 
L 581 0 
L 581 3500 
L 1159 3500 
L 1159 2956 
Q 1341 3275 1631 3429 
Q 1922 3584 2338 3584 
Q 2397 3584 2469 3576 
Q 2541 3569 2628 3553 
L 2631 2963 
z
" transform="scale(0.015625)"/>
       <path id="DejaVuSans-61" d="M 2194 1759 
Q 1497 1759 1228 1600 
Q 959 1441 959 1056 
Q 959 750 1161 570 
Q 1363 391 1709 391 
Q 2188 391 2477 730 
Q 2766 1069 2766 1631 
L 2766 1759 
L 2194 1759 
z
M 3341 1997 
L 3341 0 
L 2766 0 
L 2766 531 
Q 2569 213 2275 61 
Q 1981 -91 1556 -91 
Q 1019 -91 701 211 
Q 384 513 384 1019 
Q 384 1609 779 1909 
Q 1175 2209 1959 2209 
L 2766 2209 
L 2766 2266 
Q 2766 2663 2505 2880 
Q 2244 3097 1772 3097 
Q 1472 3097 1187 3025 
Q 903 2953 641 2809 
L 641 3341 
Q 956 3463 1253 3523 
Q 1550 3584 1831 3584 
Q 2591 3584 2966 3190 
Q 3341 2797 3341 1997 
z
" transform="scale(0.015625)"/>
       <path id="DejaVuSans-6c" d="M 603 4863 
L 1178 4863 
L 1178 0 
L 603 0 
L 603 4863 
z
" transform="scale(0.015625)"/>
       <path id="DejaVuSans-75" d="M 544 1381 
L 544 3500 
L 1119 3500 
L 1119 1403 
Q 1119 906 1312 657 
Q 1506 409 1894 409 
Q 2359 409 2629 706 
Q 2900 1003 2900 1516 
L 2900 3500 
L 3475 3500 
L 3475 0 
L 2900 0 
L 2900 538 
Q 2691 219 2414 64 
Q 2138 -91 1772 -91 
Q 1169 -91 856 284 
Q 544 659 544 1381 
z
M 1991 3584 
L 1991 3584 
z
" transform="scale(0.015625)"/>
       <path id="DejaVuSans-70" d="M 1159 525 
L 1159 -1331 
L 581 -1331 
L 581 3500 
L 1159 3500 
L 1159 2969 
Q 1341 3281 1617 3432 
Q 1894 3584 2278 3584 
Q 2916 3584 3314 3078 
Q 3713 2572 3713 1747 
Q 3713 922 3314 415 
Q 2916 -91 2278 -91 
Q 1894 -91 1617 61 
Q 1341 213 1159 525 
z
M 3116 1747 
Q 3116 2381 2855 2742 
Q 2594 3103 2138 3103 
Q 1681 3103 1420 2742 
Q 1159 2381 1159 1747 
Q 1159 1113 1420 752 
Q 1681 391 2138 391 
Q 2594 391 2855 752 
Q 3116 1113 3116 1747 
z
" transform="scale(0.015625)"/>
       <path id="DejaVuSans-62" d="M 3116 1747 
Q 3116 2381 2855 2742 
Q 2594 3103 2138 3103 
Q 1681 3103 1420 2742 
Q 1159 2381 1159 1747 
Q 1159 1113 1420 752 
Q 1681 391 2138 391 
Q 2594 391 2855 752 
Q 3116 1113 3116 1747 
z
M 1159 2969 
Q 1341 3281 1617 3432 
Q 1894 3584 2278 3584 
Q 2916 3584 3314 3078 
Q 3713 2572 3713 1747 
Q 3713 922 3314 415 
Q 2916 -91 2278 -91 
Q 1894 -91 1617 61 
Q 1341 213 1159 525 
L 1159 0 
L 581 0 
L 581 4863 
L 1159 4863 
L 1159 2969 
z
" transform="scale(0.015625)"/>
       <path id="DejaVuSans-79" d="M 2059 -325 
Q 1816 -950 1584 -1140 
Q 1353 -1331 966 -1331 
L 506 -1331 
L 506 -850 
L 844 -850 
Q 1081 -850 1212 -737 
Q 1344 -625 1503 -206 
L 1606 56 
L 191 3500 
L 800 3500 
L 1894 763 
L 2988 3500 
L 3597 3500 
L 2059 -325 
z
" transform="scale(0.015625)"/>
      </defs>
      <use xlink:href="#DejaVuSans-4f"/>
      <use xlink:href="#DejaVuSans-76" transform="translate(78.710938 0)"/>
      <use xlink:href="#DejaVuSans-65" transform="translate(137.890625 0)"/>
      <use xlink:href="#DejaVuSans-72" transform="translate(199.414062 0)"/>
      <use xlink:href="#DejaVuSans-61" transform="translate(240.527344 0)"/>
      <use xlink:href="#DejaVuSans-6c" transform="translate(301.806641 0)"/>
      <use xlink:href="#DejaVuSans-6c" transform="translate(329.589844 0)"/>
      <use xlink:href="#DejaVuSans-20" transform="translate(357.373047 0)"/>
      <use xlink:href="#DejaVuSans-73" transform="translate(389.160156 0)"/>
      <use xlink:href="#DejaVuSans-75" transform="translate(441.259766 0)"/>
      <use xlink:href="#DejaVuSans-72" transform="translate(504.638672 0)"/>
      <use xlink:href="#DejaVuSans-76" transform="translate(545.751953 0)"/>
      <use xlink:href="#DejaVuSans-69" transform="translate(604.931641 0)"/>
      <use xlink:href="#DejaVuSans-76" transform="translate(632.714844 0)"/>
      <use xlink:href="#DejaVuSans-61" transform="translate(691.894531 0)"/>
      <use xlink:href="#DejaVuSans-6c" transform="translate(753.173828 0)"/>
      <use xlink:href="#DejaVuSans-20" transform="translate(780.957031 0)"/>
      <use xlink:href="#DejaVuSans-70" transform="translate(812.744141 0)"/>
      <use xlink:href="#DejaVuSans-72" transform="translate(876.220703 0)"/>
      <use xlink:href="#DejaVuSans-6f" transform="translate(915.083984 0)"/>
      <use xlink:href="#DejaVuSans-62" transform="translate(976.265625 0)"/>
      <use xlink:href="#DejaVuSans-61" transform="translate(1039.742188 0)"/>
      <use xlink:href="#DejaVuSans-62" transform="translate(1101.021484 0)"/>
      <use xlink:href="#DejaVuSans-69" transform="translate(1164.498047 0)"/>
      <use xlink:href="#DejaVuSans-6c" transform="translate(1192.28125 0)"/>
      <use xlink:href="#DejaVuSans-69" transform="translate(1220.064453 0)"/>
      <use xlink:href="#DejaVuSans-74" transform="translate(1247.847656 0)"/>
      <use xlink:href="#DejaVuSans-79" transform="translate(1287.056641 0)"/>
     </g>
    </g>
   </g>
   <g id="line2d_12">
    <path d="M 64.965426 47.264289 
L 390.045195 47.264289 
L 390.045195 47.264289 
" clip-path="url(#pb77b768e52)" style="fill: none; stroke: #2196f3; stroke-width: 1.5; stroke-linecap: square"/>
   </g>
   <g id="line2d_13">
    <path d="M 64.965426 47.264289 
L 469.292699 47.264289 
L 469.292699 47.264289 
" clip-path="url(#pb77b768e52)" style="fill: none; stroke: #ff9800; stroke-width: 1.5; stroke-linecap: square"/>
   </g>
   <g id="line2d_14">
    <path d="M 64.965426 47.264289 
L 447.045031 47.264289 
L 447.045031 47.264289 
" clip-path="url(#pb77b768e52)" style="fill: none; stroke: #f44336; stroke-width: 1.5; stroke-linecap: square"/>
   </g>
   <g id="patch_3">
    <path d="M 44.749063 313.313813 
L 44.749063 33.961813 
" style="fill: none; stroke: #000000; stroke-width: 0.8; stroke-linejoin: miter; stroke-linecap: square"/>
   </g>
   <g id="patch_4">
    <path d="M 44.749063 313.313813 
L 489.509062 313.313813 
" style="fill: none; stroke: #000000; stroke-width: 0.8; stroke-linejoin: miter; stroke-linecap: square"/>
   </g>
   <g id="text_14">
    <g id="patch_5">
     <path d="M 320.500262 80.9443 
L 417.22995 80.9443 
Q 420.22995 80.9443 420.22995 77.9443 
L 420.22995 68.266175 
Q 420.22995 65.266175 417.22995 65.266175 
L 320.500262 65.266175 
Q 317.500262 65.266175 317.500262 68.266175 
L 317.500262 77.9443 
Q 317.500262 80.9443 320.500262 80.9443 
z
" style="fill: #ffffff; opacity: 0.8; stroke: #000000; stroke-linejoin: miter"/>
    </g>
    <!-- Log-rank p = 1.000 -->
    <g transform="translate(320.500262 75.864613) scale(0.1 -0.1)">
     <defs>
      <path id="DejaVuSans-4c" d="M 628 4666 
L 1259 4666 
L 1259 531 
L 3531 531 
L 3531 0 
L 628 0 
L 628 4666 
z
" transform="scale(0.015625)"/>
      <path id="DejaVuSans-67" d="M 2906 1791 
Q 2906 2416 2648 2759 
Q 2391 3103 1925 3103 
Q 1463 3103 1205 2759 
Q 947 2416 947 1791 
Q 947 1169 1205 825 
Q 1463 481 1925 481 
Q 2391 481 2648 825 
Q 2906 1169 2906 1791 
z
M 3481 434 
Q 3481 -459 3084 -895 
Q 2688 -1331 1869 -1331 
Q 1566 -1331 1297 -1286 
Q 1028 -1241 775 -1147 
L 775 -588 
Q 1028 -725 1275 -790 
Q 1522 -856 1778 -856 
Q 2344 -856 2625 -561 
Q 2906 -266 2906 331 
L 2906 616 
Q 2728 306 2450 153 
Q 2172 0 1784 0 
Q 1141 0 747 490 
Q 353 981 353 1791 
Q 353 2603 747 3093 
Q 1141 3584 1784 3584 
Q 2172 3584 2450 3431 
Q 2728 3278 2906 2969 
L 2906 3500 
L 3481 3500 
L 3481 434 
z
" transform="scale(0.015625)"/>
      <path id="DejaVuSans-2d" d="M 313 2009 
L 1997 2009 
L 1997 1497 
L 313 1497 
L 313 2009 
z
" transform="scale(0.015625)"/>
      <path id="DejaVuSans-6b" d="M 581 4863 
L 1159 4863 
L 1159 1991 
L 2875 3500 
L 3609 3500 
L 1753 1863 
L 3688 0 
L 2938 0 
L 1159 1709 
L 1159 0 
L 581 0 
L 581 4863 
z
" transform="scale(0.015625)"/>
      <path id="DejaVuSans-3d" d="M 678 2906 
L 4684 2906 
L 4684 2381 
L 678 2381 
L 678 2906 
z
M 678 1631 
L 4684 1631 
L 4684 1100 
L 678 1100 
L 678 1631 
z
" transform="scale(0.015625)"/>
     </defs>
     <use xlink:href="#DejaVuSans-4c"/>
     <use xlink:href="#DejaVuSans-6f" transform="translate(53.962891 0)"/>
     <use xlink:href="#DejaVuSans-67" transform="translate(115.144531 0)"/>
     <use xlink:href="#DejaVuSans-2d" transform="translate(178.621094 0)"/>
     <use xlink:href="#DejaVuSans-72" transform="translate(214.705078 0)"/>
     <use xlink:href="#DejaVuSans-61" transform="translate(255.818359 0)"/>
     <use xlink:href="#DejaVuSans-6e" transform="translate(317.097656 0)"/>
     <use xlink:href="#DejaVuSans-6b" transform="translate(380.476562 0)"/>
     <use xlink:href="#DejaVuSans-20" transform="translate(438.386719 0)"/>
     <use xlink:href="#DejaVuSans-70" transform="translate(470.173828 0)"/>
     <use xlink:href="#DejaVuSans-20" transform="translate(533.650391 0)"/>
     <use xlink:href="#DejaVuSans-3d" transform="translate(565.4375 0)"/>
     <use xlink:href="#DejaVuSans-20" transform="translate(649.226562 0)"/>
     <use xlink:href="#DejaVuSans-31" transform="translate(681.013672 0)"/>
     <use xlink:href="#DejaVuSans-2e" transform="translate(744.636719 0)"/>
     <use xlink:href="#DejaVuSans-30" transform="translate(776.423828 0)"/>
     <use xlink:href="#DejaVuSans-30" transform="translate(840.046875 0)"/>
     <use xlink:href="#DejaVuSans-30" transform="translate(903.669922 0)"/>
    </g>
   </g>
   <g id="text_15">
    <!-- Overall Survival by EMT Phenotype -->
    <g transform="translate(158.284922 15.558281) scale(0.11 -0.11)">
     <defs>
      <path id="DejaVuSans-Bold-4f" d="M 2719 3878 
Q 2169 3878 1866 3472 
Q 1563 3066 1563 2328 
Q 1563 1594 1866 1187 
Q 2169 781 2719 781 
Q 3272 781 3575 1187 
Q 3878 1594 3878 2328 
Q 3878 3066 3575 3472 
Q 3272 3878 2719 3878 
z
M 2719 4750 
Q 3844 4750 4481 4106 
Q 5119 3463 5119 2328 
Q 5119 1197 4481 553 
Q 3844 -91 2719 -91 
Q 1597 -91 958 553 
Q 319 1197 319 2328 
Q 319 3463 958 4106 
Q 1597 4750 2719 4750 
z
" transform="scale(0.015625)"/>
      <path id="DejaVuSans-Bold-76" d="M 97 3500 
L 1216 3500 
L 2088 1081 
L 2956 3500 
L 4078 3500 
L 2700 0 
L 1472 0 
L 97 3500 
z
" transform="scale(0.015625)"/>
      <path id="DejaVuSans-Bold-65" d="M 4031 1759 
L 4031 1441 
L 1416 1441 
Q 1456 1047 1700 850 
Q 1944 653 2381 653 
Q 2734 653 3104 758 
Q 3475 863 3866 1075 
L 3866 213 
Q 3469 63 3072 -14 
Q 2675 -91 2278 -91 
Q 1328 -91 801 392 
Q 275 875 275 1747 
Q 275 2603 792 3093 
Q 1309 3584 2216 3584 
Q 3041 3584 3536 3087 
Q 4031 2591 4031 1759 
z
M 2881 2131 
Q 2881 2450 2695 2645 
Q 2509 2841 2209 2841 
Q 1884 2841 1681 2658 
Q 1478 2475 1428 2131 
L 2881 2131 
z
" transform="scale(0.015625)"/>
      <path id="DejaVuSans-Bold-72" d="M 3138 2547 
Q 2991 2616 2845 2648 
Q 2700 2681 2553 2681 
Q 2122 2681 1889 2404 
Q 1656 2128 1656 1613 
L 1656 0 
L 538 0 
L 538 3500 
L 1656 3500 
L 1656 2925 
Q 1872 3269 2151 3426 
Q 2431 3584 2822 3584 
Q 2878 3584 2943 3579 
Q 3009 3575 3134 3559 
L 3138 2547 
z
" transform="scale(0.015625)"/>
      <path id="DejaVuSans-Bold-61" d="M 2106 1575 
Q 1756 1575 1579 1456 
Q 1403 1338 1403 1106 
Q 1403 894 1545 773 
Q 1688 653 1941 653 
Q 2256 653 2472 879 
Q 2688 1106 2688 1447 
L 2688 1575 
L 2106 1575 
z
M 3816 1997 
L 3816 0 
L 2688 0 
L 2688 519 
Q 2463 200 2181 54 
Q 1900 -91 1497 -91 
Q 953 -91 614 226 
Q 275 544 275 1050 
Q 275 1666 698 1953 
Q 1122 2241 2028 2241 
L 2688 2241 
L 2688 2328 
Q 2688 2594 2478 2717 
Q 2269 2841 1825 2841 
Q 1466 2841 1156 2769 
Q 847 2697 581 2553 
L 581 3406 
Q 941 3494 1303 3539 
Q 1666 3584 2028 3584 
Q 2975 3584 3395 3211 
Q 3816 2838 3816 1997 
z
" transform="scale(0.015625)"/>
      <path id="DejaVuSans-Bold-6c" d="M 538 4863 
L 1656 4863 
L 1656 0 
L 538 0 
L 538 4863 
z
" transform="scale(0.015625)"/>
      <path id="DejaVuSans-Bold-20" transform="scale(0.015625)"/>
      <path id="DejaVuSans-Bold-53" d="M 3834 4519 
L 3834 3531 
Q 3450 3703 3084 3790 
Q 2719 3878 2394 3878 
Q 1963 3878 1756 3759 
Q 1550 3641 1550 3391 
Q 1550 3203 1689 3098 
Q 1828 2994 2194 2919 
L 2706 2816 
Q 3484 2659 3812 2340 
Q 4141 2022 4141 1434 
Q 4141 663 3683 286 
Q 3225 -91 2284 -91 
Q 1841 -91 1394 -6 
Q 947 78 500 244 
L 500 1259 
Q 947 1022 1364 901 
Q 1781 781 2169 781 
Q 2563 781 2772 912 
Q 2981 1044 2981 1288 
Q 2981 1506 2839 1625 
Q 2697 1744 2272 1838 
L 1806 1941 
Q 1106 2091 782 2419 
Q 459 2747 459 3303 
Q 459 4000 909 4375 
Q 1359 4750 2203 4750 
Q 2588 4750 2994 4692 
Q 3400 4634 3834 4519 
z
" transform="scale(0.015625)"/>
      <path id="DejaVuSans-Bold-75" d="M 500 1363 
L 500 3500 
L 1625 3500 
L 1625 3150 
Q 1625 2866 1622 2436 
Q 1619 2006 1619 1863 
Q 1619 1441 1641 1255 
Q 1663 1069 1716 984 
Q 1784 875 1895 815 
Q 2006 756 2150 756 
Q 2500 756 2700 1025 
Q 2900 1294 2900 1772 
L 2900 3500 
L 4019 3500 
L 4019 0 
L 2900 0 
L 2900 506 
Q 2647 200 2364 54 
Q 2081 -91 1741 -91 
Q 1134 -91 817 281 
Q 500 653 500 1363 
z
" transform="scale(0.015625)"/>
      <path id="DejaVuSans-Bold-69" d="M 538 3500 
L 1656 3500 
L 1656 0 
L 538 0 
L 538 3500 
z
M 538 4863 
L 1656 4863 
L 1656 3950 
L 538 3950 
L 538 4863 
z
" transform="scale(0.015625)"/>
      <path id="DejaVuSans-Bold-62" d="M 2400 722 
Q 2759 722 2948 984 
Q 3138 1247 3138 1747 
Q 3138 2247 2948 2509 
Q 2759 2772 2400 2772 
Q 2041 2772 1848 2508 
Q 1656 2244 1656 1747 
Q 1656 1250 1848 986 
Q 2041 722 2400 722 
z
M 1656 2988 
Q 1888 3294 2169 3439 
Q 2450 3584 2816 3584 
Q 3463 3584 3878 3070 
Q 4294 2556 4294 1747 
Q 4294 938 3878 423 
Q 3463 -91 2816 -91 
Q 2450 -91 2169 54 
Q 1888 200 1656 506 
L 1656 0 
L 538 0 
L 538 4863 
L 1656 4863 
L 1656 2988 
z
" transform="scale(0.015625)"/>
      <path id="DejaVuSans-Bold-79" d="M 78 3500 
L 1197 3500 
L 2138 1125 
L 2938 3500 
L 4056 3500 
L 2584 -331 
Q 2363 -916 2067 -1148 
Q 1772 -1381 1288 -1381 
L 641 -1381 
L 641 -647 
L 991 -647 
Q 1275 -647 1404 -556 
Q 1534 -466 1606 -231 
L 1638 -134 
L 78 3500 
z
" transform="scale(0.015625)"/>
      <path id="DejaVuSans-Bold-45" d="M 588 4666 
L 3834 4666 
L 3834 3756 
L 1791 3756 
L 1791 2888 
L 3713 2888 
L 3713 1978 
L 1791 1978 
L 1791 909 
L 3903 909 
L 3903 0 
L 588 0 
L 588 4666 
z
" transform="scale(0.015625)"/>
      <path id="DejaVuSans-Bold-4d" d="M 588 4666 
L 2119 4666 
L 3181 2169 
L 4250 4666 
L 5778 4666 
L 5778 0 
L 4641 0 
L 4641 3413 
L 3566 897 
L 2803 897 
L 1728 3413 
L 1728 0 
L 588 0 
L 588 4666 
z
" transform="scale(0.015625)"/>
      <path id="DejaVuSans-Bold-54" d="M 31 4666 
L 4331 4666 
L 4331 3756 
L 2784 3756 
L 2784 0 
L 1581 0 
L 1581 3756 
L 31 3756 
L 31 4666 
z
" transform="scale(0.015625)"/>
      <path id="DejaVuSans-Bold-50" d="M 588 4666 
L 2584 4666 
Q 3475 4666 3951 4270 
Q 4428 3875 4428 3144 
Q 4428 2409 3951 2014 
Q 3475 1619 2584 1619 
L 1791 1619 
L 1791 0 
L 588 0 
L 588 4666 
z
M 1791 3794 
L 1791 2491 
L 2456 2491 
Q 2806 2491 2997 2661 
Q 3188 2831 3188 3144 
Q 3188 3456 2997 3625 
Q 2806 3794 2456 3794 
L 1791 3794 
z
" transform="scale(0.015625)"/>
      <path id="DejaVuSans-Bold-68" d="M 4056 2131 
L 4056 0 
L 2931 0 
L 2931 347 
L 2931 1625 
Q 2931 2084 2911 2256 
Q 2891 2428 2841 2509 
Q 2775 2619 2662 2680 
Q 2550 2741 2406 2741 
Q 2056 2741 1856 2470 
Q 1656 2200 1656 1722 
L 1656 0 
L 538 0 
L 538 4863 
L 1656 4863 
L 1656 2988 
Q 1909 3294 2193 3439 
Q 2478 3584 2822 3584 
Q 3428 3584 3742 3212 
Q 4056 2841 4056 2131 
z
" transform="scale(0.015625)"/>
      <path id="DejaVuSans-Bold-6e" d="M 4056 2131 
L 4056 0 
L 2931 0 
L 2931 347 
L 2931 1631 
Q 2931 2084 2911 2256 
Q 2891 2428 2841 2509 
Q 2775 2619 2662 2680 
Q 2550 2741 2406 2741 
Q 2056 2741 1856 2470 
Q 1656 2200 1656 1722 
L 1656 0 
L 538 0 
L 538 3500 
L 1656 3500 
L 1656 2988 
Q 1909 3294 2193 3439 
Q 2478 3584 2822 3584 
Q 3428 3584 3742 3212 
Q 4056 2841 4056 2131 
z
" transform="scale(0.015625)"/>
      <path id="DejaVuSans-Bold-6f" d="M 2203 2784 
Q 1831 2784 1636 2517 
Q 1441 2250 1441 1747 
Q 1441 1244 1636 976 
Q 1831 709 2203 709 
Q 2569 709 2762 976 
Q 2956 1244 2956 1747 
Q 2956 2250 2762 2517 
Q 2569 2784 2203 2784 
z
M 2203 3584 
Q 3106 3584 3614 3096 
Q 4122 2609 4122 1747 
Q 4122 884 3614 396 
Q 3106 -91 2203 -91 
Q 1297 -91 786 396 
Q 275 884 275 1747 
Q 275 2609 786 3096 
Q 1297 3584 2203 3584 
z
" transform="scale(0.015625)"/>
      <path id="DejaVuSans-Bold-74" d="M 1759 4494 
L 1759 3500 
L 2913 3500 
L 2913 2700 
L 1759 2700 
L 1759 1216 
Q 1759 972 1856 886 
Q 1953 800 2241 800 
L 2816 800 
L 2816 0 
L 1856 0 
Q 1194 0 917 276 
Q 641 553 641 1216 
L 641 2700 
L 84 2700 
L 84 3500 
L 641 3500 
L 641 4494 
L 1759 4494 
z
" transform="scale(0.015625)"/>
      <path id="DejaVuSans-Bold-70" d="M 1656 506 
L 1656 -1331 
L 538 -1331 
L 538 3500 
L 1656 3500 
L 1656 2988 
Q 1888 3294 2169 3439 
Q 2450 3584 2816 3584 
Q 3463 3584 3878 3070 
Q 4294 2556 4294 1747 
Q 4294 938 3878 423 
Q 3463 -91 2816 -91 
Q 2450 -91 2169 54 
Q 1888 200 1656 506 
z
M 2400 2772 
Q 2041 2772 1848 2508 
Q 1656 2244 1656 1747 
Q 1656 1250 1848 986 
Q 2041 722 2400 722 
Q 2759 722 2948 984 
Q 3138 1247 3138 1747 
Q 3138 2247 2948 2509 
Q 2759 2772 2400 2772 
z
" transform="scale(0.015625)"/>
     </defs>
     <use xlink:href="#DejaVuSans-Bold-4f"/>
     <use xlink:href="#DejaVuSans-Bold-76" transform="translate(85.009766 0)"/>
     <use xlink:href="#DejaVuSans-Bold-65" transform="translate(150.195312 0)"/>
     <use xlink:href="#DejaVuSans-Bold-72" transform="translate(218.017578 0)"/>
     <use xlink:href="#DejaVuSans-Bold-61" transform="translate(267.333984 0)"/>
     <use xlink:href="#DejaVuSans-Bold-6c" transform="translate(334.814453 0)"/>
     <use xlink:href="#DejaVuSans-Bold-6c" transform="translate(369.091797 0)"/>
     <use xlink:href="#DejaVuSans-Bold-20" transform="translate(403.369141 0)"/>
     <use xlink:href="#DejaVuSans-Bold-53" transform="translate(438.183594 0)"/>
     <use xlink:href="#DejaVuSans-Bold-75" transform="translate(510.205078 0)"/>
     <use xlink:href="#DejaVuSans-Bold-72" transform="translate(581.396484 0)"/>
     <use xlink:href="#DejaVuSans-Bold-76" transform="translate(630.712891 0)"/>
     <use xlink:href="#DejaVuSans-Bold-69" transform="translate(695.898438 0)"/>
     <use xlink:href="#DejaVuSans-Bold-76" transform="translate(730.175781 0)"/>
     <use xlink:href="#DejaVuSans-Bold-61" transform="translate(795.361328 0)"/>
     <use xlink:href="#DejaVuSans-Bold-6c" transform="translate(862.841797 0)"/>
     <use xlink:href="#DejaVuSans-Bold-20" transform="translate(897.119141 0)"/>
     <use xlink:href="#DejaVuSans-Bold-62" transform="translate(931.933594 0)"/>
     <use xlink:href="#DejaVuSans-Bold-79" transform="translate(1003.515625 0)"/>
     <use xlink:href="#DejaVuSans-Bold-20" transform="translate(1068.701172 0)"/>
     <use xlink:href="#DejaVuSans-Bold-45" transform="translate(1103.515625 0)"/>
     <use xlink:href="#DejaVuSans-Bold-4d" transform="translate(1171.826172 0)"/>
     <use xlink:href="#DejaVuSans-Bold-54" transform="translate(1271.337891 0)"/>
     <use xlink:href="#DejaVuSans-Bold-20" transform="translate(1339.550781 0)"/>
     <use xlink:href="#DejaVuSans-Bold-50" transform="translate(1374.365234 0)"/>
     <use xlink:href="#DejaVuSans-Bold-68" transform="translate(1447.65625 0)"/>
     <use xlink:href="#DejaVuSans-Bold-65" transform="translate(1518.847656 0)"/>
     <use xlink:href="#DejaVuSans-Bold-6e" transform="translate(1586.669922 0)"/>
     <use xlink:href="#DejaVuSans-Bold-6f" transform="translate(1657.861328 0)"/>
     <use xlink:href="#DejaVuSans-Bold-74" transform="translate(1726.5625 0)"/>
     <use xlink:href="#DejaVuSans-Bold-79" transform="translate(1774.365234 0)"/>
     <use xlink:href="#DejaVuSans-Bold-70" transform="translate(1839.550781 0)"/>
     <use xlink:href="#DejaVuSans-Bold-65" transform="translate(1911.132812 0)"/>
    </g>
    <!-- TCGA-LIHC -->
    <g transform="translate(234.097266 27.961813) scale(0.11 -0.11)">
     <defs>
      <path id="DejaVuSans-Bold-43" d="M 4288 256 
Q 3956 84 3597 -3 
Q 3238 -91 2847 -91 
Q 1681 -91 1000 561 
Q 319 1213 319 2328 
Q 319 3447 1000 4098 
Q 1681 4750 2847 4750 
Q 3238 4750 3597 4662 
Q 3956 4575 4288 4403 
L 4288 3438 
Q 3953 3666 3628 3772 
Q 3303 3878 2944 3878 
Q 2300 3878 1931 3465 
Q 1563 3053 1563 2328 
Q 1563 1606 1931 1193 
Q 2300 781 2944 781 
Q 3303 781 3628 887 
Q 3953 994 4288 1222 
L 4288 256 
z
" transform="scale(0.015625)"/>
      <path id="DejaVuSans-Bold-47" d="M 4781 347 
Q 4331 128 3847 18 
Q 3363 -91 2847 -91 
Q 1681 -91 1000 561 
Q 319 1213 319 2328 
Q 319 3456 1012 4103 
Q 1706 4750 2913 4750 
Q 3378 4750 3804 4662 
Q 4231 4575 4609 4403 
L 4609 3438 
Q 4219 3659 3833 3768 
Q 3447 3878 3059 3878 
Q 2341 3878 1952 3476 
Q 1563 3075 1563 2328 
Q 1563 1588 1938 1184 
Q 2313 781 3003 781 
Q 3191 781 3352 804 
Q 3513 828 3641 878 
L 3641 1784 
L 2906 1784 
L 2906 2591 
L 4781 2591 
L 4781 347 
z
" transform="scale(0.015625)"/>
      <path id="DejaVuSans-Bold-41" d="M 3419 850 
L 1538 850 
L 1241 0 
L 31 0 
L 1759 4666 
L 3194 4666 
L 4922 0 
L 3713 0 
L 3419 850 
z
M 1838 1716 
L 3116 1716 
L 2478 3572 
L 1838 1716 
z
" transform="scale(0.015625)"/>
      <path id="DejaVuSans-Bold-2d" d="M 347 2297 
L 2309 2297 
L 2309 1388 
L 347 1388 
L 347 2297 
z
" transform="scale(0.015625)"/>
      <path id="DejaVuSans-Bold-4c" d="M 588 4666 
L 1791 4666 
L 1791 909 
L 3903 909 
L 3903 0 
L 588 0 
L 588 4666 
z
" transform="scale(0.015625)"/>
      <path id="DejaVuSans-Bold-49" d="M 588 4666 
L 1791 4666 
L 1791 0 
L 588 0 
L 588 4666 
z
" transform="scale(0.015625)"/>
      <path id="DejaVuSans-Bold-48" d="M 588 4666 
L 1791 4666 
L 1791 2888 
L 3566 2888 
L 3566 4666 
L 4769 4666 
L 4769 0 
L 3566 0 
L 3566 1978 
L 1791 1978 
L 1791 0 
L 588 0 
L 588 4666 
z
" transform="scale(0.015625)"/>
     </defs>
     <use xlink:href="#DejaVuSans-Bold-54"/>
     <use xlink:href="#DejaVuSans-Bold-43" transform="translate(68.212891 0)"/>
     <use xlink:href="#DejaVuSans-Bold-47" transform="translate(141.601562 0)"/>
     <use xlink:href="#DejaVuSans-Bold-41" transform="translate(223.681641 0)"/>
     <use xlink:href="#DejaVuSans-Bold-2d" transform="translate(301.074219 0)"/>
     <use xlink:href="#DejaVuSans-Bold-4c" transform="translate(342.578125 0)"/>
     <use xlink:href="#DejaVuSans-Bold-49" transform="translate(406.298828 0)"/>
     <use xlink:href="#DejaVuSans-Bold-48" transform="translate(443.505859 0)"/>
     <use xlink:href="#DejaVuSans-Bold-43" transform="translate(527.197266 0)"/>
    </g>
   </g>
   <g id="legend_1">
    <g id="patch_6">
     <path d="M 51.749063 308.313813 
L 197.417812 308.313813 
Q 199.417812 308.313813 199.417812 306.313813 
L 199.417812 263.279438 
Q 199.417812 261.279438 197.417812 261.279438 
L 51.749063 261.279438 
Q 49.749063 261.279438 49.749063 263.279438 
L 49.749063 306.313813 
Q 49.749063 308.313813 51.749063 308.313813 
z
" style="fill: #ffffff; opacity: 0.8; stroke: #cccccc; stroke-linejoin: miter"/>
    </g>
    <g id="line2d_15">
     <path d="M 53.749063 269.377875 
L 63.749063 269.377875 
L 63.749063 269.377875 
L 73.749063 269.377875 
L 73.749063 269.377875 
" style="fill: none; stroke: #2196f3; stroke-width: 1.5; stroke-linecap: square"/>
    </g>
    <g id="text_16">
     <!-- Epithelial (n=112) -->
     <g transform="translate(81.749063 272.877875) scale(0.1 -0.1)">
      <defs>
       <path id="DejaVuSans-45" d="M 628 4666 
L 3578 4666 
L 3578 4134 
L 1259 4134 
L 1259 2753 
L 3481 2753 
L 3481 2222 
L 1259 2222 
L 1259 531 
L 3634 531 
L 3634 0 
L 628 0 
L 628 4666 
z
" transform="scale(0.015625)"/>
      </defs>
      <use xlink:href="#DejaVuSans-45"/>
      <use xlink:href="#DejaVuSans-70" transform="translate(63.183594 0)"/>
      <use xlink:href="#DejaVuSans-69" transform="translate(126.660156 0)"/>
      <use xlink:href="#DejaVuSans-74" transform="translate(154.443359 0)"/>
      <use xlink:href="#DejaVuSans-68" transform="translate(193.652344 0)"/>
      <use xlink:href="#DejaVuSans-65" transform="translate(257.03125 0)"/>
      <use xlink:href="#DejaVuSans-6c" transform="translate(318.554688 0)"/>
      <use xlink:href="#DejaVuSans-69" transform="translate(346.337891 0)"/>
      <use xlink:href="#DejaVuSans-61" transform="translate(374.121094 0)"/>
      <use xlink:href="#DejaVuSans-6c" transform="translate(435.400391 0)"/>
      <use xlink:href="#DejaVuSans-20" transform="translate(463.183594 0)"/>
      <use xlink:href="#DejaVuSans-28" transform="translate(494.970703 0)"/>
      <use xlink:href="#DejaVuSans-6e" transform="translate(533.984375 0)"/>
      <use xlink:href="#DejaVuSans-3d" transform="translate(597.363281 0)"/>
      <use xlink:href="#DejaVuSans-31" transform="translate(681.152344 0)"/>
      <use xlink:href="#DejaVuSans-31" transform="translate(744.775391 0)"/>
      <use xlink:href="#DejaVuSans-32" transform="translate(808.398438 0)"/>
      <use xlink:href="#DejaVuSans-29" transform="translate(872.021484 0)"/>
     </g>
    </g>
    <g id="line2d_16">
     <path d="M 53.749063 284.056 
L 63.749063 284.056 
L 63.749063 284.056 
L 73.749063 284.056 
L 73.749063 284.056 
" style="fill: none; stroke: #ff9800; stroke-width: 1.5; stroke-linecap: square"/>
    </g>
    <g id="text_17">
     <!-- Hybrid E/M (n=147) -->
     <g transform="translate(81.749063 287.556) scale(0.1 -0.1)">
      <defs>
       <path id="DejaVuSans-48" d="M 628 4666 
L 1259 4666 
L 1259 2753 
L 3553 2753 
L 3553 4666 
L 4184 4666 
L 4184 0 
L 3553 0 
L 3553 2222 
L 1259 2222 
L 1259 0 
L 628 0 
L 628 4666 
z
" transform="scale(0.015625)"/>
       <path id="DejaVuSans-64" d="M 2906 2969 
L 2906 4863 
L 3481 4863 
L 3481 0 
L 2906 0 
L 2906 525 
Q 2725 213 2448 61 
Q 2172 -91 1784 -91 
Q 1150 -91 751 415 
Q 353 922 353 1747 
Q 353 2572 751 3078 
Q 1150 3584 1784 3584 
Q 2172 3584 2448 3432 
Q 2725 3281 2906 2969 
z
M 947 1747 
Q 947 1113 1208 752 
Q 1469 391 1925 391 
Q 2381 391 2643 752 
Q 2906 1113 2906 1747 
Q 2906 2381 2643 2742 
Q 2381 3103 1925 3103 
Q 1469 3103 1208 2742 
Q 947 2381 947 1747 
z
" transform="scale(0.015625)"/>
       <path id="DejaVuSans-2f" d="M 1625 4666 
L 2156 4666 
L 531 -594 
L 0 -594 
L 1625 4666 
z
" transform="scale(0.015625)"/>
       <path id="DejaVuSans-4d" d="M 628 4666 
L 1569 4666 
L 2759 1491 
L 3956 4666 
L 4897 4666 
L 4897 0 
L 4281 0 
L 4281 4097 
L 3078 897 
L 2444 897 
L 1241 4097 
L 1241 0 
L 628 0 
L 628 4666 
z
" transform="scale(0.015625)"/>
       <path id="DejaVuSans-37" d="M 525 4666 
L 3525 4666 
L 3525 4397 
L 1831 0 
L 1172 0 
L 2766 4134 
L 525 4134 
L 525 4666 
z
" transform="scale(0.015625)"/>
      </defs>
      <use xlink:href="#DejaVuSans-48"/>
      <use xlink:href="#DejaVuSans-79" transform="translate(75.195312 0)"/>
      <use xlink:href="#DejaVuSans-62" transform="translate(134.375 0)"/>
      <use xlink:href="#DejaVuSans-72" transform="translate(197.851562 0)"/>
      <use xlink:href="#DejaVuSans-69" transform="translate(238.964844 0)"/>
      <use xlink:href="#DejaVuSans-64" transform="translate(266.748047 0)"/>
      <use xlink:href="#DejaVuSans-20" transform="translate(330.224609 0)"/>
      <use xlink:href="#DejaVuSans-45" transform="translate(362.011719 0)"/>
      <use xlink:href="#DejaVuSans-2f" transform="translate(425.195312 0)"/>
      <use xlink:href="#DejaVuSans-4d" transform="translate(458.886719 0)"/>
      <use xlink:href="#DejaVuSans-20" transform="translate(545.166016 0)"/>
      <use xlink:href="#DejaVuSans-28" transform="translate(576.953125 0)"/>
      <use xlink:href="#DejaVuSans-6e" transform="translate(615.966797 0)"/>
      <use xlink:href="#DejaVuSans-3d" transform="translate(679.345703 0)"/>
      <use xlink:href="#DejaVuSans-31" transform="translate(763.134766 0)"/>
      <use xlink:href="#DejaVuSans-34" transform="translate(826.757812 0)"/>
      <use xlink:href="#DejaVuSans-37" transform="translate(890.380859 0)"/>
      <use xlink:href="#DejaVuSans-29" transform="translate(954.003906 0)"/>
     </g>
    </g>
    <g id="line2d_17">
     <path d="M 53.749063 298.734125 
L 63.749063 298.734125 
L 63.749063 298.734125 
L 73.749063 298.734125 
L 73.749063 298.734125 
" style="fill: none; stroke: #f44336; stroke-width: 1.5; stroke-linecap: square"/>
    </g>
    <g id="text_18">
     <!-- Mesenchymal (n=112) -->
     <g transform="translate(81.749063 302.234125) scale(0.1 -0.1)">
      <defs>
       <path id="DejaVuSans-63" d="M 3122 3366 
L 3122 2828 
Q 2878 2963 2633 3030 
Q 2388 3097 2138 3097 
Q 1578 3097 1268 2742 
Q 959 2388 959 1747 
Q 959 1106 1268 751 
Q 1578 397 2138 397 
Q 2388 397 2633 464 
Q 2878 531 3122 666 
L 3122 134 
Q 2881 22 2623 -34 
Q 2366 -91 2075 -91 
Q 1284 -91 818 406 
Q 353 903 353 1747 
Q 353 2603 823 3093 
Q 1294 3584 2113 3584 
Q 2378 3584 2631 3529 
Q 2884 3475 3122 3366 
z
" transform="scale(0.015625)"/>
      </defs>
      <use xlink:href="#DejaVuSans-4d"/>
      <use xlink:href="#DejaVuSans-65" transform="translate(86.279297 0)"/>
      <use xlink:href="#DejaVuSans-73" transform="translate(147.802734 0)"/>
      <use xlink:href="#DejaVuSans-65" transform="translate(199.902344 0)"/>
      <use xlink:href="#DejaVuSans-6e" transform="translate(261.425781 0)"/>
      <use xlink:href="#DejaVuSans-63" transform="translate(324.804688 0)"/>
      <use xlink:href="#DejaVuSans-68" transform="translate(379.785156 0)"/>
      <use xlink:href="#DejaVuSans-79" transform="translate(443.164062 0)"/>
      <use xlink:href="#DejaVuSans-6d" transform="translate(502.34375 0)"/>
      <use xlink:href="#DejaVuSans-61" transform="translate(599.755859 0)"/>
      <use xlink:href="#DejaVuSans-6c" transform="translate(661.035156 0)"/>
      <use xlink:href="#DejaVuSans-20" transform="translate(688.818359 0)"/>
      <use xlink:href="#DejaVuSans-28" transform="translate(720.605469 0)"/>
      <use xlink:href="#DejaVuSans-6e" transform="translate(759.619141 0)"/>
      <use xlink:href="#DejaVuSans-3d" transform="translate(822.998047 0)"/>
      <use xlink:href="#DejaVuSans-31" transform="translate(906.787109 0)"/>
      <use xlink:href="#DejaVuSans-31" transform="translate(970.410156 0)"/>
      <use xlink:href="#DejaVuSans-32" transform="translate(1034.033203 0)"/>
      <use xlink:href="#DejaVuSans-29" transform="translate(1097.65625 0)"/>
     </g>
    </g>
   </g>
  </g>
 </g>
 <defs>
  <clipPath id="pb77b768e52">
   <rect x="44.749063" y="33.961813" width="444.76" height="279.352"/>
  </clipPath>
 </defs>
</svg>
