<?xml version="1.0" encoding="utf-8" standalone="no"?>
<!DOCTYPE svg PUBLIC "-//W3C//DTD SVG 1.1//EN"
  "http://www.w3.org/Graphics/SVG/1.1/DTD/svg11.dtd">
<svg xmlns:xlink="http://www.w3.org/1999/xlink" width="640.62125pt" height="424.074375pt" viewBox="0 0 640.62125 424.074375" xmlns="http://www.w3.org/2000/svg" version="1.1">
 <metadata>
  <rdf:RDF xmlns:dc="http://purl.org/dc/elements/1.1/" xmlns:cc="http://creativecommons.org/ns#" xmlns:rdf="http://www.w3.org/1999/02/22-rdf-syntax-ns#">
   <cc:Work>
    <dc:type rdf:resource="http://purl.org/dc/dcmitype/StillImage"/>
    <dc:date>2026-07-04T18:28:03.514959</dc:date>
    <dc:format>image/svg+xml</dc:format>
    <dc:creator>
     <cc:Agent>
      <dc:title>Matplotlib v3.11.0, https://matplotlib.org/</dc:title>
     </cc:Agent>
    </dc:creator>
   </cc:Work>
  </rdf:RDF>
 </metadata>
 <defs>
  <style type="text/css">*{stroke-linejoin: round; stroke-linecap: butt}</style>
 </defs>
 <g id="figure_1">
  <g id="patch_1">
   <path d="M 0 424.074375 
L 640.62125 424.074375 
L 640.62125 0 
L 0 0 
z
" style="fill: #ffffff"/>
  </g>
  <g id="axes_1">
   <g id="patch_2">
    <path d="M 46.104063 383.873437 
L 633.42125 383.873437 
L 633.42125 37.922578 
L 46.104063 37.922578 
z
" style="fill: #ffffff"/>
   </g>
   <g id="FillBetweenPolyCollection_1">
    <defs>
     <path id="m46ac6d6474" d="M 72.800298 -370.426758 
L 72.800298 -370.426758 
L 73.95014 -370.426758 
L 73.95014 -370.426758 
L 74.127039 -370.426758 
L 74.127039 -370.426758 
L 74.259713 -370.426758 
L 74.259713 -370.426758 
L 74.525061 -370.426758 
L 74.525061 -370.426758 
L 75.144207 -370.426758 
L 75.144207 -358.191511 
L 75.851802 -358.191511 
L 75.851802 -358.191511 
L 75.984476 -358.191511 
L 75.984476 -358.191511 
L 76.161375 -358.191511 
L 76.161375 -358.191511 
L 76.736296 -358.191511 
L 76.736296 -356.52464 
L 77.311217 -356.52464 
L 77.311217 -354.226116 
L 77.753464 -354.226116 
L 77.753464 -351.858261 
L 78.018812 -351.858261 
L 78.018812 -349.501865 
L 79.478227 -349.501865 
L 79.478227 -347.17366 
L 80.362721 -347.17366 
L 80.362721 -344.876059 
L 82.529731 -344.876059 
L 82.529731 -342.607662 
L 86.465728 -342.607662 
L 86.465728 -342.607662 
L 87.748244 -342.607662 
L 87.748244 -340.346437 
L 89.517232 -340.346437 
L 89.517232 -338.111031 
L 91.551568 -338.111031 
L 91.551568 -335.898846 
L 92.70141 -335.898846 
L 92.70141 -335.898846 
L 93.276331 -335.898846 
L 93.276331 -335.898846 
L 97.477677 -335.898846 
L 97.477677 -335.898846 
L 98.937092 -335.898846 
L 98.937092 -335.898846 
L 99.379339 -335.898846 
L 99.379339 -335.898846 
L 101.148326 -335.898846 
L 101.148326 -333.611925 
L 103.44801 -333.611925 
L 103.44801 -333.611925 
L 104.332504 -333.611925 
L 104.332504 -331.329312 
L 106.057267 -331.329312 
L 106.057267 -331.329312 
L 108.666524 -331.329312 
L 108.666524 -329.049378 
L 109.108771 -329.049378 
L 109.108771 -329.049378 
L 110.568186 -329.049378 
L 110.568186 -329.049378 
L 110.877759 -329.049378 
L 110.877759 -324.472449 
L 112.337174 -324.472449 
L 112.337174 -322.212795 
L 113.177443 -322.212795 
L 113.177443 -319.970067 
L 115.079105 -319.970067 
L 115.079105 -319.970067 
L 116.405845 -319.970067 
L 116.405845 -317.723366 
L 117.555687 -317.723366 
L 117.555687 -315.491621 
L 118.572855 -315.491621 
L 118.572855 -313.273739 
L 119.590023 -313.273739 
L 119.590023 -313.273739 
L 120.297618 -313.273739 
L 120.297618 -313.273739 
L 122.906875 -313.273739 
L 122.906875 -313.273739 
L 123.526021 -313.273739 
L 123.526021 -311.009312 
L 124.233616 -311.009312 
L 124.233616 -311.009312 
L 124.941211 -311.009312 
L 124.941211 -308.73809 
L 125.250784 -308.73809 
L 125.250784 -308.73809 
L 125.560357 -308.73809 
L 125.560357 -308.73809 
L 125.825705 -308.73809 
L 125.825705 -306.438379 
L 125.958379 -306.438379 
L 125.958379 -304.152052 
L 129.009883 -304.152052 
L 129.009883 -304.152052 
L 130.20395 -304.152052 
L 130.20395 -304.152052 
L 130.911545 -304.152052 
L 130.911545 -304.152052 
L 131.796038 -304.152052 
L 131.796038 -304.152052 
L 132.061387 -304.152052 
L 132.061387 -304.152052 
L 132.238285 -304.152052 
L 132.238285 -304.152052 
L 133.078555 -304.152052 
L 133.078555 -301.744732 
L 133.255453 -301.744732 
L 133.255453 -299.352325 
L 134.537969 -299.352325 
L 134.537969 -299.352325 
L 134.847542 -299.352325 
L 134.847542 -299.352325 
L 135.289789 -299.352325 
L 135.289789 -299.352325 
L 135.555137 -299.352325 
L 135.555137 -296.901751 
L 136.439631 -296.901751 
L 136.439631 -294.465913 
L 140.773651 -294.465913 
L 140.773651 -294.465913 
L 141.392797 -294.465913 
L 141.392797 -294.465913 
L 141.967718 -294.465913 
L 141.967718 -294.465913 
L 146.478636 -294.465913 
L 146.478636 -294.465913 
L 147.186232 -294.465913 
L 147.186232 -294.465913 
L 148.203399 -294.465913 
L 148.203399 -294.465913 
L 148.336074 -294.465913 
L 148.336074 -294.465913 
L 150.94533 -294.465913 
L 150.94533 -294.465913 
L 152.979666 -294.465913 
L 152.979666 -294.465913 
L 153.289239 -294.465913 
L 153.289239 -294.465913 
L 153.421913 -294.465913 
L 153.421913 -291.77121 
L 153.86416 -291.77121 
L 153.86416 -289.065599 
L 154.439081 -289.065599 
L 154.439081 -289.065599 
L 154.748654 -289.065599 
L 154.748654 -289.065599 
L 155.633148 -289.065599 
L 155.633148 -289.065599 
L 156.208069 -289.065599 
L 156.208069 -289.065599 
L 156.340743 -289.065599 
L 156.340743 -289.065599 
L 156.915664 -289.065599 
L 156.915664 -289.065599 
L 157.225237 -289.065599 
L 157.225237 -286.18198 
L 158.242405 -286.18198 
L 158.242405 -286.18198 
L 161.736155 -286.18198 
L 161.736155 -283.285732 
L 163.018672 -283.285732 
L 163.018672 -283.285732 
L 164.478086 -283.285732 
L 164.478086 -283.285732 
L 165.185682 -283.285732 
L 165.185682 -283.285732 
L 165.495254 -283.285732 
L 165.495254 -283.285732 
L 167.971837 -283.285732 
L 167.971837 -283.285732 
L 168.414084 -283.285732 
L 168.414084 -283.285732 
L 168.679432 -283.285732 
L 168.679432 -280.180534 
L 168.989005 -280.180534 
L 168.989005 -280.180534 
L 170.271521 -280.180534 
L 170.271521 -280.180534 
L 170.581094 -280.180534 
L 170.581094 -280.180534 
L 171.598262 -280.180534 
L 171.598262 -280.180534 
L 173.499924 -280.180534 
L 173.499924 -280.180534 
L 174.074845 -280.180534 
L 174.074845 -280.180534 
L 174.207519 -280.180534 
L 174.207519 -280.180534 
L 174.649766 -280.180534 
L 174.649766 -280.180534 
L 176.109181 -280.180534 
L 176.109181 -276.734157 
L 177.259023 -276.734157 
L 177.259023 -276.734157 
L 177.70127 -276.734157 
L 177.70127 -276.734157 
L 177.966618 -276.734157 
L 177.966618 -273.219296 
L 178.585763 -273.219296 
L 178.585763 -273.219296 
L 178.718437 -273.219296 
L 178.718437 -273.219296 
L 182.654435 -273.219296 
L 182.654435 -273.219296 
L 183.671603 -273.219296 
L 183.671603 -273.219296 
L 184.379198 -273.219296 
L 184.379198 -269.512522 
L 186.103961 -269.512522 
L 186.103961 -269.512522 
L 186.413534 -269.512522 
L 186.413534 -269.512522 
L 186.723107 -269.512522 
L 186.723107 -269.512522 
L 188.890117 -269.512522 
L 188.890117 -269.512522 
L 189.332364 -269.512522 
L 189.332364 -265.589104 
L 190.482206 -265.589104 
L 190.482206 -265.589104 
L 191.3667 -265.589104 
L 191.3667 -265.589104 
L 191.808947 -265.589104 
L 191.808947 -265.589104 
L 192.958789 -265.589104 
L 192.958789 -261.496529 
L 194.418203 -261.496529 
L 194.418203 -253.463524 
L 196.010292 -253.463524 
L 196.010292 -249.514832 
L 203.263142 -249.514832 
L 203.263142 -249.514832 
L 203.395816 -249.514832 
L 203.395816 -245.529366 
L 204.412984 -245.529366 
L 204.412984 -245.529366 
L 204.987905 -245.529366 
L 204.987905 -245.529366 
L 207.641387 -245.529366 
L 207.641387 -245.529366 
L 208.039409 -245.529366 
L 208.039409 -241.332719 
L 222.456659 -241.332719 
L 222.456659 -241.332719 
L 227.807846 -241.332719 
L 227.807846 -241.332719 
L 230.417103 -241.332719 
L 230.417103 -241.332719 
L 230.85935 -241.332719 
L 230.85935 -236.897643 
L 231.301597 -236.897643 
L 231.301597 -236.897643 
L 239.438941 -236.897643 
L 239.438941 -232.412464 
L 248.593452 -232.412464 
L 248.593452 -227.980807 
L 249.920193 -227.980807 
L 249.920193 -227.980807 
L 251.954529 -227.980807 
L 251.954529 -227.980807 
L 253.104371 -227.980807 
L 253.104371 -227.980807 
L 253.237045 -227.980807 
L 253.237045 -227.980807 
L 260.932141 -227.980807 
L 260.932141 -227.980807 
L 261.949309 -227.980807 
L 261.949309 -227.980807 
L 267.344722 -227.980807 
L 267.344722 -227.980807 
L 269.069485 -227.980807 
L 269.069485 -227.980807 
L 270.838473 -227.980807 
L 270.838473 -227.980807 
L 272.120989 -227.980807 
L 272.120989 -222.390473 
L 275.747413 -222.390473 
L 275.747413 -216.900411 
L 279.550737 -216.900411 
L 279.550737 -211.501877 
L 283.44251 -211.501877 
L 283.44251 -211.501877 
L 283.752083 -211.501877 
L 283.752083 -211.501877 
L 289.987765 -211.501877 
L 289.987765 -211.501877 
L 295.250503 -211.501877 
L 295.250503 -211.501877 
L 299.451849 -211.501877 
L 299.451849 -205.185328 
L 299.717197 -205.185328 
L 299.717197 -205.185328 
L 300.469017 -205.185328 
L 300.469017 -205.185328 
L 308.739034 -205.185328 
L 308.739034 -198.492516 
L 310.065775 -198.492516 
L 310.065775 -198.492516 
L 310.508022 -198.492516 
L 310.508022 -198.492516 
L 333.018391 -198.492516 
L 333.018391 -191.356243 
L 334.875828 -191.356243 
L 334.875828 -191.356243 
L 337.661983 -191.356243 
L 337.661983 -191.356243 
L 341.863329 -191.356243 
L 341.863329 -183.688868 
L 342.305576 -183.688868 
L 342.305576 -183.688868 
L 348.850831 -183.688868 
L 348.850831 -183.688868 
L 354.511591 -183.688868 
L 354.511591 -183.688868 
L 359.02251 -183.688868 
L 359.02251 -183.688868 
L 361.764441 -183.688868 
L 361.764441 -183.688868 
L 365.567764 -183.688868 
L 365.567764 -183.688868 
L 365.833113 -183.688868 
L 365.833113 -183.688868 
L 367.425202 -183.688868 
L 367.425202 -183.688868 
L 378.171802 -183.688868 
L 378.171802 -183.688868 
L 382.417372 -183.688868 
L 382.417372 -170.13341 
L 390.112469 -170.13341 
L 390.112469 -170.13341 
L 392.721726 -170.13341 
L 392.721726 -170.13341 
L 398.957408 -170.13341 
L 398.957408 -170.13341 
L 407.094751 -170.13341 
L 407.094751 -170.13341 
L 409.43866 -170.13341 
L 409.43866 -170.13341 
L 421.202428 -170.13341 
L 421.202428 -170.13341 
L 423.236764 -170.13341 
L 423.236764 -170.13341 
L 423.679011 -170.13341 
L 423.679011 -170.13341 
L 427.570784 -170.13341 
L 427.570784 -170.13341 
L 429.472446 -170.13341 
L 429.472446 -170.13341 
L 440.661293 -170.13341 
L 440.661293 -103.158798 
L 442.120708 -103.158798 
L 442.120708 -70.981606 
L 526.810994 -70.981606 
L 526.810994 -55.925977 
L 572.141304 -55.925977 
L 572.141304 -55.925977 
L 572.141304 -179.133243 
L 572.141304 -179.133243 
L 572.141304 -179.133243 
L 526.810994 -179.133243 
L 526.810994 -213.607897 
L 442.120708 -213.607897 
L 442.120708 -238.663802 
L 440.661293 -238.663802 
L 440.661293 -245.086478 
L 429.472446 -245.086478 
L 429.472446 -245.086478 
L 427.570784 -245.086478 
L 427.570784 -245.086478 
L 423.679011 -245.086478 
L 423.679011 -245.086478 
L 423.236764 -245.086478 
L 423.236764 -245.086478 
L 421.202428 -245.086478 
L 421.202428 -245.086478 
L 409.43866 -245.086478 
L 409.43866 -245.086478 
L 407.094751 -245.086478 
L 407.094751 -245.086478 
L 398.957408 -245.086478 
L 398.957408 -245.086478 
L 392.721726 -245.086478 
L 392.721726 -245.086478 
L 390.112469 -245.086478 
L 390.112469 -245.086478 
L 382.417372 -245.086478 
L 382.417372 -252.154988 
L 378.171802 -252.154988 
L 378.171802 -252.154988 
L 367.425202 -252.154988 
L 367.425202 -252.154988 
L 365.833113 -252.154988 
L 365.833113 -252.154988 
L 365.567764 -252.154988 
L 365.567764 -252.154988 
L 361.764441 -252.154988 
L 361.764441 -252.154988 
L 359.02251 -252.154988 
L 359.02251 -252.154988 
L 354.511591 -252.154988 
L 354.511591 -252.154988 
L 348.850831 -252.154988 
L 348.850831 -252.154988 
L 342.305576 -252.154988 
L 342.305576 -252.154988 
L 341.863329 -252.154988 
L 341.863329 -257.571635 
L 337.661983 -257.571635 
L 337.661983 -257.571635 
L 334.875828 -257.571635 
L 334.875828 -257.571635 
L 333.018391 -257.571635 
L 333.018391 -262.621015 
L 310.508022 -262.621015 
L 310.508022 -262.621015 
L 310.065775 -262.621015 
L 310.065775 -262.621015 
L 308.739034 -262.621015 
L 308.739034 -267.356337 
L 300.469017 -267.356337 
L 300.469017 -267.356337 
L 299.717197 -267.356337 
L 299.717197 -267.356337 
L 299.451849 -267.356337 
L 299.451849 -271.819225 
L 295.250503 -271.819225 
L 295.250503 -271.819225 
L 289.987765 -271.819225 
L 289.987765 -271.819225 
L 283.752083 -271.819225 
L 283.752083 -271.819225 
L 283.44251 -271.819225 
L 283.44251 -271.819225 
L 279.550737 -271.819225 
L 279.550737 -275.831311 
L 275.747413 -275.831311 
L 275.747413 -279.78599 
L 272.120989 -279.78599 
L 272.120989 -283.678742 
L 270.838473 -283.678742 
L 270.838473 -283.678742 
L 269.069485 -283.678742 
L 269.069485 -283.678742 
L 267.344722 -283.678742 
L 267.344722 -283.678742 
L 261.949309 -283.678742 
L 261.949309 -283.678742 
L 260.932141 -283.678742 
L 260.932141 -283.678742 
L 253.237045 -283.678742 
L 253.237045 -283.678742 
L 253.104371 -283.678742 
L 253.104371 -283.678742 
L 251.954529 -283.678742 
L 251.954529 -283.678742 
L 249.920193 -283.678742 
L 249.920193 -283.678742 
L 248.593452 -283.678742 
L 248.593452 -287.038474 
L 239.438941 -287.038474 
L 239.438941 -290.363886 
L 231.301597 -290.363886 
L 231.301597 -290.363886 
L 230.85935 -290.363886 
L 230.85935 -293.610241 
L 230.417103 -293.610241 
L 230.417103 -293.610241 
L 227.807846 -293.610241 
L 227.807846 -293.610241 
L 222.456659 -293.610241 
L 222.456659 -293.610241 
L 208.039409 -293.610241 
L 208.039409 -296.702614 
L 207.641387 -296.702614 
L 207.641387 -296.702614 
L 204.987905 -296.702614 
L 204.987905 -296.702614 
L 204.412984 -296.702614 
L 204.412984 -296.702614 
L 203.395816 -296.702614 
L 203.395816 -299.656687 
L 203.263142 -299.656687 
L 203.263142 -299.656687 
L 196.010292 -299.656687 
L 196.010292 -302.550025 
L 194.418203 -302.550025 
L 194.418203 -308.252014 
L 192.958789 -308.252014 
L 192.958789 -311.05678 
L 191.808947 -311.05678 
L 191.808947 -311.05678 
L 191.3667 -311.05678 
L 191.3667 -311.05678 
L 190.482206 -311.05678 
L 190.482206 -311.05678 
L 189.332364 -311.05678 
L 189.332364 -313.745321 
L 188.890117 -313.745321 
L 188.890117 -313.745321 
L 186.723107 -313.745321 
L 186.723107 -313.745321 
L 186.413534 -313.745321 
L 186.413534 -313.745321 
L 186.103961 -313.745321 
L 186.103961 -313.745321 
L 184.379198 -313.745321 
L 184.379198 -316.303006 
L 183.671603 -316.303006 
L 183.671603 -316.303006 
L 182.654435 -316.303006 
L 182.654435 -316.303006 
L 178.718437 -316.303006 
L 178.718437 -316.303006 
L 178.585763 -316.303006 
L 178.585763 -316.303006 
L 177.966618 -316.303006 
L 177.966618 -318.742932 
L 177.70127 -318.742932 
L 177.70127 -318.742932 
L 177.259023 -318.742932 
L 177.259023 -318.742932 
L 176.109181 -318.742932 
L 176.109181 -321.116728 
L 174.649766 -321.116728 
L 174.649766 -321.116728 
L 174.207519 -321.116728 
L 174.207519 -321.116728 
L 174.074845 -321.116728 
L 174.074845 -321.116728 
L 173.499924 -321.116728 
L 173.499924 -321.116728 
L 171.598262 -321.116728 
L 171.598262 -321.116728 
L 170.581094 -321.116728 
L 170.581094 -321.116728 
L 170.271521 -321.116728 
L 170.271521 -321.116728 
L 168.989005 -321.116728 
L 168.989005 -321.116728 
L 168.679432 -321.116728 
L 168.679432 -323.316291 
L 168.414084 -323.316291 
L 168.414084 -323.316291 
L 167.971837 -323.316291 
L 167.971837 -323.316291 
L 165.495254 -323.316291 
L 165.495254 -323.316291 
L 165.185682 -323.316291 
L 165.185682 -323.316291 
L 164.478086 -323.316291 
L 164.478086 -323.316291 
L 163.018672 -323.316291 
L 163.018672 -323.316291 
L 161.736155 -323.316291 
L 161.736155 -325.398064 
L 158.242405 -325.398064 
L 158.242405 -325.398064 
L 157.225237 -325.398064 
L 157.225237 -327.448776 
L 156.915664 -327.448776 
L 156.915664 -327.448776 
L 156.340743 -327.448776 
L 156.340743 -327.448776 
L 156.208069 -327.448776 
L 156.208069 -327.448776 
L 155.633148 -327.448776 
L 155.633148 -327.448776 
L 154.748654 -327.448776 
L 154.748654 -327.448776 
L 154.439081 -327.448776 
L 154.439081 -327.448776 
L 153.86416 -327.448776 
L 153.86416 -329.397343 
L 153.421913 -329.397343 
L 153.421913 -331.318578 
L 153.289239 -331.318578 
L 153.289239 -331.318578 
L 152.979666 -331.318578 
L 152.979666 -331.318578 
L 150.94533 -331.318578 
L 150.94533 -331.318578 
L 148.336074 -331.318578 
L 148.336074 -331.318578 
L 148.203399 -331.318578 
L 148.203399 -331.318578 
L 147.186232 -331.318578 
L 147.186232 -331.318578 
L 146.478636 -331.318578 
L 146.478636 -331.318578 
L 141.967718 -331.318578 
L 141.967718 -331.318578 
L 141.392797 -331.318578 
L 141.392797 -331.318578 
L 140.773651 -331.318578 
L 140.773651 -331.318578 
L 136.439631 -331.318578 
L 136.439631 -333.102888 
L 135.555137 -333.102888 
L 135.555137 -334.875885 
L 135.289789 -334.875885 
L 135.289789 -334.875885 
L 134.847542 -334.875885 
L 134.847542 -334.875885 
L 134.537969 -334.875885 
L 134.537969 -334.875885 
L 133.255453 -334.875885 
L 133.255453 -336.60425 
L 133.078555 -336.60425 
L 133.078555 -338.320991 
L 132.238285 -338.320991 
L 132.238285 -338.320991 
L 132.061387 -338.320991 
L 132.061387 -338.320991 
L 131.796038 -338.320991 
L 131.796038 -338.320991 
L 130.911545 -338.320991 
L 130.911545 -338.320991 
L 130.20395 -338.320991 
L 130.20395 -338.320991 
L 129.009883 -338.320991 
L 129.009883 -338.320991 
L 125.958379 -338.320991 
L 125.958379 -339.965636 
L 125.825705 -339.965636 
L 125.825705 -341.599027 
L 125.560357 -341.599027 
L 125.560357 -341.599027 
L 125.250784 -341.599027 
L 125.250784 -341.599027 
L 124.941211 -341.599027 
L 124.941211 -343.202143 
L 124.233616 -343.202143 
L 124.233616 -343.202143 
L 123.526021 -343.202143 
L 123.526021 -344.784309 
L 122.906875 -344.784309 
L 122.906875 -344.784309 
L 120.297618 -344.784309 
L 120.297618 -344.784309 
L 119.590023 -344.784309 
L 119.590023 -344.784309 
L 118.572855 -344.784309 
L 118.572855 -346.328369 
L 117.555687 -346.328369 
L 117.555687 -347.859825 
L 116.405845 -347.859825 
L 116.405845 -349.377802 
L 115.079105 -349.377802 
L 115.079105 -349.377802 
L 113.177443 -349.377802 
L 113.177443 -350.873494 
L 112.337174 -350.873494 
L 112.337174 -352.353881 
L 110.877759 -352.353881 
L 110.877759 -355.263399 
L 110.568186 -355.263399 
L 110.568186 -355.263399 
L 109.108771 -355.263399 
L 109.108771 -355.263399 
L 108.666524 -355.263399 
L 108.666524 -356.675453 
L 106.057267 -356.675453 
L 106.057267 -356.675453 
L 104.332504 -356.675453 
L 104.332504 -358.059763 
L 103.44801 -358.059763 
L 103.44801 -358.059763 
L 101.148326 -358.059763 
L 101.148326 -359.414628 
L 99.379339 -359.414628 
L 99.379339 -359.414628 
L 98.937092 -359.414628 
L 98.937092 -359.414628 
L 97.477677 -359.414628 
L 97.477677 -359.414628 
L 93.276331 -359.414628 
L 93.276331 -359.414628 
L 92.70141 -359.414628 
L 92.70141 -359.414628 
L 91.551568 -359.414628 
L 91.551568 -360.71427 
L 89.517232 -360.71427 
L 89.517232 -361.987195 
L 87.748244 -361.987195 
L 87.748244 -363.229473 
L 86.465728 -363.229473 
L 86.465728 -363.229473 
L 82.529731 -363.229473 
L 82.529731 -364.430996 
L 80.362721 -364.430996 
L 80.362721 -365.590642 
L 79.478227 -365.590642 
L 79.478227 -366.699213 
L 78.018812 -366.699213 
L 78.018812 -367.743314 
L 77.753464 -367.743314 
L 77.753464 -368.702011 
L 77.311217 -368.702011 
L 77.311217 -369.538971 
L 76.736296 -369.538971 
L 76.736296 -370.179272 
L 76.161375 -370.179272 
L 76.161375 -370.179272 
L 75.984476 -370.179272 
L 75.984476 -370.179272 
L 75.851802 -370.179272 
L 75.851802 -370.179272 
L 75.144207 -370.179272 
L 75.144207 -370.426758 
L 74.525061 -370.426758 
L 74.525061 -370.426758 
L 74.259713 -370.426758 
L 74.259713 -370.426758 
L 74.127039 -370.426758 
L 74.127039 -370.426758 
L 73.95014 -370.426758 
L 73.95014 -370.426758 
L 72.800298 -370.426758 
z
" style="stroke: #c0392b; stroke-opacity: 0.25"/>
    </defs>
    <g clip-path="url(#p5cceb66280)">
     <use xlink:href="#m46ac6d6474" x="0" y="424.074375" style="fill: #c0392b; fill-opacity: 0.25; stroke: #c0392b; stroke-opacity: 0.25"/>
    </g>
   </g>
   <g id="FillBetweenPolyCollection_2">
    <defs>
     <path id="mb931fdb5e2" d="M 72.800298 -370.426758 
L 72.800298 -370.426758 
L 72.932972 -370.426758 
L 72.932972 -370.426758 
L 73.684792 -370.426758 
L 73.684792 -370.426758 
L 74.127039 -370.426758 
L 74.127039 -357.988824 
L 74.392387 -357.988824 
L 74.392387 -356.372823 
L 74.525061 -356.372823 
L 74.525061 -354.078988 
L 74.834634 -354.078988 
L 74.834634 -351.706625 
L 74.967308 -351.706625 
L 74.967308 -351.706625 
L 75.542229 -351.706625 
L 75.542229 -349.318115 
L 75.719128 -349.318115 
L 75.719128 -349.318115 
L 77.178543 -349.318115 
L 77.178543 -349.318115 
L 79.212879 -349.318115 
L 79.212879 -349.318115 
L 80.937642 -349.318115 
L 80.937642 -344.45741 
L 82.264383 -344.45741 
L 82.264383 -339.74918 
L 84.298718 -339.74918 
L 84.298718 -339.74918 
L 85.44856 -339.74918 
L 85.44856 -337.419693 
L 86.023481 -337.419693 
L 86.023481 -332.838533 
L 86.907975 -332.838533 
L 86.907975 -330.581406 
L 87.482896 -330.581406 
L 87.482896 -328.343724 
L 87.61557 -328.343724 
L 87.61557 -326.123771 
L 88.36739 -326.123771 
L 88.36739 -323.92009 
L 91.551568 -323.92009 
L 91.551568 -321.731426 
L 93.143657 -321.731426 
L 93.143657 -319.556694 
L 95.045319 -319.556694 
L 95.045319 -317.394945 
L 97.654576 -317.394945 
L 97.654576 -313.107161 
L 100.971428 -313.107161 
L 100.971428 -310.979732 
L 103.890257 -310.979732 
L 103.890257 -308.862471 
L 104.597852 -308.862471 
L 104.597852 -308.862471 
L 105.216998 -308.862471 
L 105.216998 -306.73674 
L 106.632188 -306.73674 
L 106.632188 -304.620552 
L 108.843423 -304.620552 
L 108.843423 -304.620552 
L 113.354342 -304.620552 
L 113.354342 -302.495103 
L 113.929263 -302.495103 
L 113.929263 -300.378659 
L 115.7867 -300.378659 
L 115.7867 -298.270805 
L 116.228947 -298.270805 
L 116.228947 -296.171165 
L 116.405845 -296.171165 
L 116.405845 -294.079396 
L 116.803868 -294.079396 
L 116.803868 -291.995184 
L 116.980766 -291.995184 
L 116.980766 -289.899622 
L 118.440181 -289.899622 
L 118.440181 -289.899622 
L 120.474517 -289.899622 
L 120.474517 -289.899622 
L 120.739865 -289.899622 
L 120.739865 -289.899622 
L 122.331954 -289.899622 
L 122.331954 -289.899622 
L 122.774201 -289.899622 
L 122.774201 -287.733473 
L 123.216448 -287.733473 
L 123.216448 -285.575548 
L 124.675863 -285.575548 
L 124.675863 -285.575548 
L 124.941211 -285.575548 
L 124.941211 -285.575548 
L 125.250784 -285.575548 
L 125.250784 -285.575548 
L 125.560357 -285.575548 
L 125.560357 -285.575548 
L 125.825705 -285.575548 
L 125.825705 -285.575548 
L 125.958379 -285.575548 
L 125.958379 -285.575548 
L 126.842873 -285.575548 
L 126.842873 -285.575548 
L 126.975547 -285.575548 
L 126.975547 -283.251261 
L 128.169614 -283.251261 
L 128.169614 -280.937418 
L 128.302288 -280.937418 
L 128.302288 -280.937418 
L 129.009883 -280.937418 
L 129.009883 -280.937418 
L 129.45213 -280.937418 
L 129.45213 -280.937418 
L 130.027051 -280.937418 
L 130.027051 -278.560834 
L 130.20395 -278.560834 
L 130.20395 -278.560834 
L 130.336624 -278.560834 
L 130.336624 -278.560834 
L 130.778871 -278.560834 
L 130.778871 -278.560834 
L 131.796038 -278.560834 
L 131.796038 -278.560834 
L 132.370959 -278.560834 
L 132.370959 -276.090777 
L 132.636308 -276.090777 
L 132.636308 -273.63286 
L 133.078555 -273.63286 
L 133.078555 -273.63286 
L 133.653476 -273.63286 
L 133.653476 -271.130831 
L 134.272621 -271.130831 
L 134.272621 -271.130831 
L 134.537969 -271.130831 
L 134.537969 -268.612016 
L 136.130058 -268.612016 
L 136.130058 -268.612016 
L 137.324125 -268.612016 
L 137.324125 -268.612016 
L 137.722147 -268.612016 
L 137.722147 -268.612016 
L 138.03172 -268.612016 
L 138.03172 -268.612016 
L 138.473967 -268.612016 
L 138.473967 -265.982899 
L 138.606641 -265.982899 
L 138.606641 -265.982899 
L 139.358461 -265.982899 
L 139.358461 -265.982899 
L 140.95055 -265.982899 
L 140.95055 -263.301776 
L 141.658145 -263.301776 
L 141.658145 -263.301776 
L 142.233066 -263.301776 
L 142.233066 -263.301776 
L 142.542639 -263.301776 
L 142.542639 -263.301776 
L 143.427133 -263.301776 
L 143.427133 -263.301776 
L 145.461469 -263.301776 
L 145.461469 -263.301776 
L 148.336074 -263.301776 
L 148.336074 -263.301776 
L 150.547308 -263.301776 
L 150.547308 -260.416733 
L 152.272071 -260.416733 
L 152.272071 -257.549758 
L 153.421913 -257.549758 
L 153.421913 -257.549758 
L 153.598812 -257.549758 
L 153.598812 -254.659992 
L 155.014002 -254.659992 
L 155.014002 -254.659992 
L 157.800158 -254.659992 
L 157.800158 -254.659992 
L 158.065506 -254.659992 
L 158.065506 -254.659992 
L 159.082674 -254.659992 
L 159.082674 -254.659992 
L 159.392247 -254.659992 
L 159.392247 -251.61568 
L 160.099842 -251.61568 
L 160.099842 -248.591375 
L 160.276741 -248.591375 
L 160.276741 -248.591375 
L 161.11701 -248.591375 
L 161.11701 -248.591375 
L 162.134178 -248.591375 
L 162.134178 -248.591375 
L 163.903165 -248.591375 
L 163.903165 -245.339794 
L 164.345412 -245.339794 
L 164.345412 -245.339794 
L 164.610761 -245.339794 
L 164.610761 -245.339794 
L 164.787659 -245.339794 
L 164.787659 -242.001907 
L 165.627928 -242.001907 
L 165.627928 -238.689234 
L 165.760603 -238.689234 
L 165.760603 -238.689234 
L 166.202849 -238.689234 
L 166.202849 -235.342223 
L 166.379748 -235.342223 
L 166.379748 -235.342223 
L 167.087343 -235.342223 
L 167.087343 -231.958797 
L 170.44842 -231.958797 
L 170.44842 -231.958797 
L 172.748104 -231.958797 
L 172.748104 -228.536769 
L 173.499924 -228.536769 
L 173.499924 -225.139595 
L 174.207519 -225.139595 
L 174.207519 -225.139595 
L 175.357361 -225.139595 
L 175.357361 -225.139595 
L 180.885447 -225.139595 
L 180.885447 -225.139595 
L 181.327694 -225.139595 
L 181.327694 -225.139595 
L 182.787109 -225.139595 
L 182.787109 -221.485553 
L 183.936951 -221.485553 
L 183.936951 -217.861289 
L 184.688771 -217.861289 
L 184.688771 -214.26542 
L 193.224137 -214.26542 
L 193.224137 -214.26542 
L 196.010292 -214.26542 
L 196.010292 -214.26542 
L 196.142966 -214.26542 
L 196.142966 -214.26542 
L 196.894786 -214.26542 
L 196.894786 -214.26542 
L 197.735055 -214.26542 
L 197.735055 -214.26542 
L 200.521211 -214.26542 
L 200.521211 -214.26542 
L 203.263142 -214.26542 
L 203.263142 -214.26542 
L 206.005073 -214.26542 
L 206.005073 -214.26542 
L 207.19914 -214.26542 
L 207.19914 -214.26542 
L 209.675722 -214.26542 
L 209.675722 -214.26542 
L 210.958239 -214.26542 
L 210.958239 -214.26542 
L 216.486325 -214.26542 
L 216.486325 -214.26542 
L 218.830234 -214.26542 
L 218.830234 -209.325217 
L 219.228256 -209.325217 
L 219.228256 -209.325217 
L 225.19859 -209.325217 
L 225.19859 -209.325217 
L 227.675172 -209.325217 
L 227.675172 -209.325217 
L 230.417103 -209.325217 
L 230.417103 -209.325217 
L 232.318765 -209.325217 
L 232.318765 -209.325217 
L 234.795348 -209.325217 
L 234.795348 -209.325217 
L 237.714178 -209.325217 
L 237.714178 -203.422587 
L 239.129368 -203.422587 
L 239.129368 -203.422587 
L 239.748514 -203.422587 
L 239.748514 -197.428159 
L 242.490444 -197.428159 
L 242.490444 -197.428159 
L 251.335383 -197.428159 
L 251.335383 -191.327095 
L 251.644956 -191.327095 
L 251.644956 -191.327095 
L 257.438391 -191.327095 
L 257.438391 -185.103293 
L 268.229216 -185.103293 
L 268.229216 -185.103293 
L 274.155325 -185.103293 
L 274.155325 -178.738914 
L 279.683411 -178.738914 
L 279.683411 -178.738914 
L 289.280169 -178.738914 
L 289.280169 -172.2138 
L 293.039268 -172.2138 
L 293.039268 -172.2138 
L 298.434681 -172.2138 
L 298.434681 -172.2138 
L 307.85454 -172.2138 
L 307.85454 -172.2138 
L 308.473686 -172.2138 
L 308.473686 -164.731568 
L 317.583973 -164.731568 
L 317.583973 -157.472041 
L 318.910714 -157.472041 
L 318.910714 -150.416989 
L 321.387296 -150.416989 
L 321.387296 -150.416989 
L 322.404464 -150.416989 
L 322.404464 -150.416989 
L 324.306126 -150.416989 
L 324.306126 -150.416989 
L 331.249403 -150.416989 
L 331.249403 -150.416989 
L 345.35708 -150.416989 
L 345.35708 -150.416989 
L 380.206138 -150.416989 
L 380.206138 -140.375272 
L 407.094751 -140.375272 
L 407.094751 -140.375272 
L 410.455828 -140.375272 
L 410.455828 -140.375272 
L 425.094201 -140.375272 
L 425.094201 -140.375272 
L 429.60512 -140.375272 
L 429.60512 -125.43733 
L 433.983364 -125.43733 
L 433.983364 -112.085296 
L 437.919362 -112.085296 
L 437.919362 -112.085296 
L 469.141995 -112.085296 
L 469.141995 -112.085296 
L 471.751252 -112.085296 
L 471.751252 -112.085296 
L 472.635746 -112.085296 
L 472.635746 -112.085296 
L 546.137185 -112.085296 
L 546.137185 -82.899824 
L 553.390035 -82.899824 
L 553.390035 -82.899824 
L 578.111638 -82.899824 
L 578.111638 -82.899824 
L 606.725014 -82.899824 
L 606.725014 -82.899824 
L 606.725014 -183.736037 
L 606.725014 -183.736037 
L 606.725014 -183.736037 
L 578.111638 -183.736037 
L 578.111638 -183.736037 
L 553.390035 -183.736037 
L 553.390035 -183.736037 
L 546.137185 -183.736037 
L 546.137185 -195.400932 
L 472.635746 -195.400932 
L 472.635746 -195.400932 
L 471.751252 -195.400932 
L 471.751252 -195.400932 
L 469.141995 -195.400932 
L 469.141995 -195.400932 
L 437.919362 -195.400932 
L 437.919362 -195.400932 
L 433.983364 -195.400932 
L 433.983364 -204.936508 
L 429.60512 -204.936508 
L 429.60512 -213.441446 
L 425.094201 -213.441446 
L 425.094201 -213.441446 
L 410.455828 -213.441446 
L 410.455828 -213.441446 
L 407.094751 -213.441446 
L 407.094751 -213.441446 
L 380.206138 -213.441446 
L 380.206138 -220.41849 
L 345.35708 -220.41849 
L 345.35708 -220.41849 
L 331.249403 -220.41849 
L 331.249403 -220.41849 
L 324.306126 -220.41849 
L 324.306126 -220.41849 
L 322.404464 -220.41849 
L 322.404464 -220.41849 
L 321.387296 -220.41849 
L 321.387296 -220.41849 
L 318.910714 -220.41849 
L 318.910714 -226.180126 
L 317.583973 -226.180126 
L 317.583973 -231.806115 
L 308.473686 -231.806115 
L 308.473686 -237.285726 
L 307.85454 -237.285726 
L 307.85454 -237.285726 
L 298.434681 -237.285726 
L 298.434681 -237.285726 
L 293.039268 -237.285726 
L 293.039268 -237.285726 
L 289.280169 -237.285726 
L 289.280169 -242.250255 
L 279.683411 -242.250255 
L 279.683411 -242.250255 
L 274.155325 -242.250255 
L 274.155325 -247.003812 
L 268.229216 -247.003812 
L 268.229216 -247.003812 
L 257.438391 -247.003812 
L 257.438391 -251.563662 
L 251.644956 -251.563662 
L 251.644956 -251.563662 
L 251.335383 -251.563662 
L 251.335383 -255.944044 
L 242.490444 -255.944044 
L 242.490444 -255.944044 
L 239.748514 -255.944044 
L 239.748514 -260.156671 
L 239.129368 -260.156671 
L 239.129368 -260.156671 
L 237.714178 -260.156671 
L 237.714178 -264.211083 
L 234.795348 -264.211083 
L 234.795348 -264.211083 
L 232.318765 -264.211083 
L 232.318765 -264.211083 
L 230.417103 -264.211083 
L 230.417103 -264.211083 
L 227.675172 -264.211083 
L 227.675172 -264.211083 
L 225.19859 -264.211083 
L 225.19859 -264.211083 
L 219.228256 -264.211083 
L 219.228256 -264.211083 
L 218.830234 -264.211083 
L 218.830234 -267.819531 
L 216.486325 -267.819531 
L 216.486325 -267.819531 
L 210.958239 -267.819531 
L 210.958239 -267.819531 
L 209.675722 -267.819531 
L 209.675722 -267.819531 
L 207.19914 -267.819531 
L 207.19914 -267.819531 
L 206.005073 -267.819531 
L 206.005073 -267.819531 
L 203.263142 -267.819531 
L 203.263142 -267.819531 
L 200.521211 -267.819531 
L 200.521211 -267.819531 
L 197.735055 -267.819531 
L 197.735055 -267.819531 
L 196.894786 -267.819531 
L 196.894786 -267.819531 
L 196.142966 -267.819531 
L 196.142966 -267.819531 
L 196.010292 -267.819531 
L 196.010292 -267.819531 
L 193.224137 -267.819531 
L 193.224137 -267.819531 
L 184.688771 -267.819531 
L 184.688771 -270.776472 
L 183.936951 -270.776472 
L 183.936951 -273.713523 
L 182.787109 -273.713523 
L 182.787109 -276.62998 
L 181.327694 -276.62998 
L 181.327694 -276.62998 
L 180.885447 -276.62998 
L 180.885447 -276.62998 
L 175.357361 -276.62998 
L 175.357361 -276.62998 
L 174.207519 -276.62998 
L 174.207519 -276.62998 
L 173.499924 -276.62998 
L 173.499924 -279.386646 
L 172.748104 -279.386646 
L 172.748104 -282.125939 
L 170.44842 -282.125939 
L 170.44842 -282.125939 
L 167.087343 -282.125939 
L 167.087343 -284.816148 
L 166.379748 -284.816148 
L 166.379748 -284.816148 
L 166.202849 -284.816148 
L 166.202849 -287.459035 
L 165.760603 -287.459035 
L 165.760603 -287.459035 
L 165.627928 -287.459035 
L 165.627928 -290.056219 
L 164.787659 -290.056219 
L 164.787659 -292.636254 
L 164.610761 -292.636254 
L 164.610761 -292.636254 
L 164.345412 -292.636254 
L 164.345412 -292.636254 
L 163.903165 -292.636254 
L 163.903165 -295.146172 
L 162.134178 -295.146172 
L 162.134178 -295.146172 
L 161.11701 -295.146172 
L 161.11701 -295.146172 
L 160.276741 -295.146172 
L 160.276741 -295.146172 
L 160.099842 -295.146172 
L 160.099842 -297.519669 
L 159.392247 -297.519669 
L 159.392247 -299.879306 
L 159.082674 -299.879306 
L 159.082674 -299.879306 
L 158.065506 -299.879306 
L 158.065506 -299.879306 
L 157.800158 -299.879306 
L 157.800158 -299.879306 
L 155.014002 -299.879306 
L 155.014002 -299.879306 
L 153.598812 -299.879306 
L 153.598812 -302.140026 
L 153.421913 -302.140026 
L 153.421913 -302.140026 
L 152.272071 -302.140026 
L 152.272071 -304.368296 
L 150.547308 -304.368296 
L 150.547308 -306.583991 
L 148.336074 -306.583991 
L 148.336074 -306.583991 
L 145.461469 -306.583991 
L 145.461469 -306.583991 
L 143.427133 -306.583991 
L 143.427133 -306.583991 
L 142.542639 -306.583991 
L 142.542639 -306.583991 
L 142.233066 -306.583991 
L 142.233066 -306.583991 
L 141.658145 -306.583991 
L 141.658145 -306.583991 
L 140.95055 -306.583991 
L 140.95055 -308.678611 
L 139.358461 -308.678611 
L 139.358461 -308.678611 
L 138.606641 -308.678611 
L 138.606641 -308.678611 
L 138.473967 -308.678611 
L 138.473967 -310.729204 
L 138.03172 -310.729204 
L 138.03172 -310.729204 
L 137.722147 -310.729204 
L 137.722147 -310.729204 
L 137.324125 -310.729204 
L 137.324125 -310.729204 
L 136.130058 -310.729204 
L 136.130058 -310.729204 
L 134.537969 -310.729204 
L 134.537969 -312.706946 
L 134.272621 -312.706946 
L 134.272621 -312.706946 
L 133.653476 -312.706946 
L 133.653476 -314.660454 
L 133.078555 -314.660454 
L 133.078555 -314.660454 
L 132.636308 -314.660454 
L 132.636308 -316.576022 
L 132.370959 -316.576022 
L 132.370959 -318.482368 
L 131.796038 -318.482368 
L 131.796038 -318.482368 
L 130.778871 -318.482368 
L 130.778871 -318.482368 
L 130.336624 -318.482368 
L 130.336624 -318.482368 
L 130.20395 -318.482368 
L 130.20395 -318.482368 
L 130.027051 -318.482368 
L 130.027051 -320.326321 
L 129.45213 -320.326321 
L 129.45213 -320.326321 
L 129.009883 -320.326321 
L 129.009883 -320.326321 
L 128.302288 -320.326321 
L 128.302288 -320.326321 
L 128.169614 -320.326321 
L 128.169614 -322.124223 
L 126.975547 -322.124223 
L 126.975547 -323.913716 
L 126.842873 -323.913716 
L 126.842873 -323.913716 
L 125.958379 -323.913716 
L 125.958379 -323.913716 
L 125.825705 -323.913716 
L 125.825705 -323.913716 
L 125.560357 -323.913716 
L 125.560357 -323.913716 
L 125.250784 -323.913716 
L 125.250784 -323.913716 
L 124.941211 -323.913716 
L 124.941211 -323.913716 
L 124.675863 -323.913716 
L 124.675863 -323.913716 
L 123.216448 -323.913716 
L 123.216448 -325.604662 
L 122.774201 -325.604662 
L 122.774201 -327.288232 
L 122.331954 -327.288232 
L 122.331954 -327.288232 
L 120.739865 -327.288232 
L 120.739865 -327.288232 
L 120.474517 -327.288232 
L 120.474517 -327.288232 
L 118.440181 -327.288232 
L 118.440181 -327.288232 
L 116.980766 -327.288232 
L 116.980766 -328.92357 
L 116.803868 -328.92357 
L 116.803868 -330.541953 
L 116.405845 -330.541953 
L 116.405845 -332.152987 
L 116.228947 -332.152987 
L 116.228947 -333.756372 
L 115.7867 -333.756372 
L 115.7867 -335.351786 
L 113.929263 -335.351786 
L 113.929263 -336.938873 
L 113.354342 -336.938873 
L 113.354342 -338.517247 
L 108.843423 -338.517247 
L 108.843423 -338.517247 
L 106.632188 -338.517247 
L 106.632188 -340.077705 
L 105.216998 -340.077705 
L 105.216998 -341.628752 
L 104.597852 -341.628752 
L 104.597852 -341.628752 
L 103.890257 -341.628752 
L 103.890257 -343.161483 
L 100.971428 -343.161483 
L 100.971428 -344.683945 
L 97.654576 -344.683945 
L 97.654576 -347.695554 
L 95.045319 -347.695554 
L 95.045319 -349.183248 
L 93.143657 -349.183248 
L 93.143657 -350.657739 
L 91.551568 -350.657739 
L 91.551568 -352.11803 
L 88.36739 -352.11803 
L 88.36739 -353.562977 
L 87.61557 -353.562977 
L 87.61557 -354.991248 
L 87.482896 -354.991248 
L 87.482896 -356.401286 
L 86.907975 -356.401286 
L 86.907975 -357.791248 
L 86.023481 -357.791248 
L 86.023481 -360.501613 
L 85.44856 -360.501613 
L 85.44856 -361.815994 
L 84.298718 -361.815994 
L 84.298718 -361.815994 
L 82.264383 -361.815994 
L 82.264383 -364.33107 
L 80.937642 -364.33107 
L 80.937642 -366.665357 
L 79.212879 -366.665357 
L 79.212879 -366.665357 
L 77.178543 -366.665357 
L 77.178543 -366.665357 
L 75.719128 -366.665357 
L 75.719128 -366.665357 
L 75.542229 -366.665357 
L 75.542229 -367.720574 
L 74.967308 -367.720574 
L 74.967308 -367.720574 
L 74.834634 -367.720574 
L 74.834634 -368.685781 
L 74.525061 -368.685781 
L 74.525061 -369.528951 
L 74.392387 -369.528951 
L 74.392387 -370.175091 
L 74.127039 -370.175091 
L 74.127039 -370.426758 
L 73.684792 -370.426758 
L 73.684792 -370.426758 
L 72.932972 -370.426758 
L 72.932972 -370.426758 
L 72.800298 -370.426758 
z
" style="stroke: #2980b9; stroke-opacity: 0.25"/>
    </defs>
    <g clip-path="url(#p5cceb66280)">
     <use xlink:href="#mb931fdb5e2" x="0" y="424.074375" style="fill: #2980b9; fill-opacity: 0.25; stroke: #2980b9; stroke-opacity: 0.25"/>
    </g>
   </g>
   <g id="matplotlib.axis_1">
    <g id="xtick_1">
     <g id="line2d_1">
      <defs>
       <path id="m783e56ba31" d="M 0 0 
L 0 3.5 
" style="stroke: #000000; stroke-width: 0.8"/>
      </defs>
      <g>
       <use xlink:href="#m783e56ba31" x="72.800298" y="383.873437" style="stroke: #000000; stroke-width: 0.8"/>
      </g>
     </g>
     <g id="text_1">
      <!-- 0 -->
      <g transform="translate(69.619048 398.471094) scale(0.1 -0.1)">
       <defs>
        <path id="DejaVuSans-13" d="M 2034 4250 
Q 1547 4250 1301 3770 
Q 1056 3291 1056 2328 
Q 1056 1369 1301 889 
Q 1547 409 2034 409 
Q 2525 409 2770 889 
Q 3016 1369 3016 2328 
Q 3016 3291 2770 3770 
Q 2525 4250 2034 4250 
z
M 2034 4750 
Q 2819 4750 3233 4129 
Q 3647 3509 3647 2328 
Q 3647 1150 3233 529 
Q 2819 -91 2034 -91 
Q 1250 -91 836 529 
Q 422 1150 422 2328 
Q 422 3509 836 4129 
Q 1250 4750 2034 4750 
z
" transform="scale(0.015625)"/>
       </defs>
       <use xlink:href="#DejaVuSans-13"/>
      </g>
     </g>
    </g>
    <g id="xtick_2">
     <g id="line2d_2">
      <g>
       <use xlink:href="#m783e56ba31" x="161.249684" y="383.873437" style="stroke: #000000; stroke-width: 0.8"/>
      </g>
     </g>
     <g id="text_2">
      <!-- 20 -->
      <g transform="translate(154.887184 398.471094) scale(0.1 -0.1)">
       <defs>
        <path id="DejaVuSans-15" d="M 1228 531 
L 3431 531 
L 3431 0 
L 469 0 
L 469 531 
Q 828 903 1448 1529 
Q 2069 2156 2228 2338 
Q 2531 2678 2651 2914 
Q 2772 3150 2772 3378 
Q 2772 3750 2511 3984 
Q 2250 4219 1831 4219 
Q 1534 4219 1204 4116 
Q 875 4013 500 3803 
L 500 4441 
Q 881 4594 1212 4672 
Q 1544 4750 1819 4750 
Q 2544 4750 2975 4387 
Q 3406 4025 3406 3419 
Q 3406 3131 3298 2873 
Q 3191 2616 2906 2266 
Q 2828 2175 2409 1742 
Q 1991 1309 1228 531 
z
" transform="scale(0.015625)"/>
       </defs>
       <use xlink:href="#DejaVuSans-15"/>
       <use xlink:href="#DejaVuSans-13" transform="translate(63.625 0)"/>
      </g>
     </g>
    </g>
    <g id="xtick_3">
     <g id="line2d_3">
      <g>
       <use xlink:href="#m783e56ba31" x="249.699069" y="383.873437" style="stroke: #000000; stroke-width: 0.8"/>
      </g>
     </g>
     <g id="text_3">
      <!-- 40 -->
      <g transform="translate(243.336569 398.471094) scale(0.1 -0.1)">
       <defs>
        <path id="DejaVuSans-17" d="M 2419 4116 
L 825 1625 
L 2419 1625 
L 2419 4116 
z
M 2253 4666 
L 3047 4666 
L 3047 1625 
L 3713 1625 
L 3713 1100 
L 3047 1100 
L 3047 0 
L 2419 0 
L 2419 1100 
L 313 1100 
L 313 1709 
L 2253 4666 
z
" transform="scale(0.015625)"/>
       </defs>
       <use xlink:href="#DejaVuSans-17"/>
       <use xlink:href="#DejaVuSans-13" transform="translate(63.625 0)"/>
      </g>
     </g>
    </g>
    <g id="xtick_4">
     <g id="line2d_4">
      <g>
       <use xlink:href="#m783e56ba31" x="338.148455" y="383.873437" style="stroke: #000000; stroke-width: 0.8"/>
      </g>
     </g>
     <g id="text_4">
      <!-- 60 -->
      <g transform="translate(331.785955 398.471094) scale(0.1 -0.1)">
       <defs>
        <path id="DejaVuSans-19" d="M 2113 2584 
Q 1688 2584 1439 2293 
Q 1191 2003 1191 1497 
Q 1191 994 1439 701 
Q 1688 409 2113 409 
Q 2538 409 2786 701 
Q 3034 994 3034 1497 
Q 3034 2003 2786 2293 
Q 2538 2584 2113 2584 
z
M 3366 4563 
L 3366 3988 
Q 3128 4100 2886 4159 
Q 2644 4219 2406 4219 
Q 1781 4219 1451 3797 
Q 1122 3375 1075 2522 
Q 1259 2794 1537 2939 
Q 1816 3084 2150 3084 
Q 2853 3084 3261 2657 
Q 3669 2231 3669 1497 
Q 3669 778 3244 343 
Q 2819 -91 2113 -91 
Q 1303 -91 875 529 
Q 447 1150 447 2328 
Q 447 3434 972 4092 
Q 1497 4750 2381 4750 
Q 2619 4750 2861 4703 
Q 3103 4656 3366 4563 
z
" transform="scale(0.015625)"/>
       </defs>
       <use xlink:href="#DejaVuSans-19"/>
       <use xlink:href="#DejaVuSans-13" transform="translate(63.625 0)"/>
      </g>
     </g>
    </g>
    <g id="xtick_5">
     <g id="line2d_5">
      <g>
       <use xlink:href="#m783e56ba31" x="426.597841" y="383.873437" style="stroke: #000000; stroke-width: 0.8"/>
      </g>
     </g>
     <g id="text_5">
      <!-- 80 -->
      <g transform="translate(420.235341 398.471094) scale(0.1 -0.1)">
       <defs>
        <path id="DejaVuSans-1b" d="M 2034 2216 
Q 1584 2216 1326 1975 
Q 1069 1734 1069 1313 
Q 1069 891 1326 650 
Q 1584 409 2034 409 
Q 2484 409 2743 651 
Q 3003 894 3003 1313 
Q 3003 1734 2745 1975 
Q 2488 2216 2034 2216 
z
M 1403 2484 
Q 997 2584 770 2862 
Q 544 3141 544 3541 
Q 544 4100 942 4425 
Q 1341 4750 2034 4750 
Q 2731 4750 3128 4425 
Q 3525 4100 3525 3541 
Q 3525 3141 3298 2862 
Q 3072 2584 2669 2484 
Q 3125 2378 3379 2068 
Q 3634 1759 3634 1313 
Q 3634 634 3220 271 
Q 2806 -91 2034 -91 
Q 1263 -91 848 271 
Q 434 634 434 1313 
Q 434 1759 690 2068 
Q 947 2378 1403 2484 
z
M 1172 3481 
Q 1172 3119 1398 2916 
Q 1625 2713 2034 2713 
Q 2441 2713 2670 2916 
Q 2900 3119 2900 3481 
Q 2900 3844 2670 4047 
Q 2441 4250 2034 4250 
Q 1625 4250 1398 4047 
Q 1172 3844 1172 3481 
z
" transform="scale(0.015625)"/>
       </defs>
       <use xlink:href="#DejaVuSans-1b"/>
       <use xlink:href="#DejaVuSans-13" transform="translate(63.625 0)"/>
      </g>
     </g>
    </g>
    <g id="xtick_6">
     <g id="line2d_6">
      <g>
       <use xlink:href="#m783e56ba31" x="515.047226" y="383.873437" style="stroke: #000000; stroke-width: 0.8"/>
      </g>
     </g>
     <g id="text_6">
      <!-- 100 -->
      <g transform="translate(505.503476 398.471094) scale(0.1 -0.1)">
       <defs>
        <path id="DejaVuSans-14" d="M 794 531 
L 1825 531 
L 1825 4091 
L 703 3866 
L 703 4441 
L 1819 4666 
L 2450 4666 
L 2450 531 
L 3481 531 
L 3481 0 
L 794 0 
L 794 531 
z
" transform="scale(0.015625)"/>
       </defs>
       <use xlink:href="#DejaVuSans-14"/>
       <use xlink:href="#DejaVuSans-13" transform="translate(63.625 0)"/>
       <use xlink:href="#DejaVuSans-13" transform="translate(127.25 0)"/>
      </g>
     </g>
    </g>
    <g id="xtick_7">
     <g id="line2d_7">
      <g>
       <use xlink:href="#m783e56ba31" x="603.496612" y="383.873437" style="stroke: #000000; stroke-width: 0.8"/>
      </g>
     </g>
     <g id="text_7">
      <!-- 120 -->
      <g transform="translate(593.952862 398.471094) scale(0.1 -0.1)">
       <use xlink:href="#DejaVuSans-14"/>
       <use xlink:href="#DejaVuSans-15" transform="translate(63.625 0)"/>
       <use xlink:href="#DejaVuSans-13" transform="translate(127.25 0)"/>
      </g>
     </g>
    </g>
    <g id="text_8">
     <!-- Months -->
     <g transform="translate(317.831719 413.991562) scale(0.12 -0.12)">
      <defs>
       <path id="DejaVuSans-30" d="M 628 4666 
L 1569 4666 
L 2759 1491 
L 3956 4666 
L 4897 4666 
L 4897 0 
L 4281 0 
L 4281 4097 
L 3078 897 
L 2444 897 
L 1241 4097 
L 1241 0 
L 628 0 
L 628 4666 
z
" transform="scale(0.015625)"/>
       <path id="DejaVuSans-52" d="M 1959 3097 
Q 1497 3097 1228 2736 
Q 959 2375 959 1747 
Q 959 1119 1226 758 
Q 1494 397 1959 397 
Q 2419 397 2687 759 
Q 2956 1122 2956 1747 
Q 2956 2369 2687 2733 
Q 2419 3097 1959 3097 
z
M 1959 3584 
Q 2709 3584 3137 3096 
Q 3566 2609 3566 1747 
Q 3566 888 3137 398 
Q 2709 -91 1959 -91 
Q 1206 -91 779 398 
Q 353 888 353 1747 
Q 353 2609 779 3096 
Q 1206 3584 1959 3584 
z
" transform="scale(0.015625)"/>
       <path id="DejaVuSans-51" d="M 3513 2113 
L 3513 0 
L 2938 0 
L 2938 2094 
Q 2938 2591 2744 2837 
Q 2550 3084 2163 3084 
Q 1697 3084 1428 2787 
Q 1159 2491 1159 1978 
L 1159 0 
L 581 0 
L 581 3500 
L 1159 3500 
L 1159 2956 
Q 1366 3272 1645 3428 
Q 1925 3584 2291 3584 
Q 2894 3584 3203 3211 
Q 3513 2838 3513 2113 
z
" transform="scale(0.015625)"/>
       <path id="DejaVuSans-57" d="M 1172 4494 
L 1172 3500 
L 2356 3500 
L 2356 3053 
L 1172 3053 
L 1172 1153 
Q 1172 725 1289 603 
Q 1406 481 1766 481 
L 2356 481 
L 2356 0 
L 1766 0 
Q 1100 0 847 248 
Q 594 497 594 1153 
L 594 3053 
L 172 3053 
L 172 3500 
L 594 3500 
L 594 4494 
L 1172 4494 
z
" transform="scale(0.015625)"/>
       <path id="DejaVuSans-4b" d="M 3513 2113 
L 3513 0 
L 2938 0 
L 2938 2094 
Q 2938 2591 2744 2837 
Q 2550 3084 2163 3084 
Q 1697 3084 1428 2787 
Q 1159 2491 1159 1978 
L 1159 0 
L 581 0 
L 581 4863 
L 1159 4863 
L 1159 2956 
Q 1366 3272 1645 3428 
Q 1925 3584 2291 3584 
Q 2894 3584 3203 3211 
Q 3513 2838 3513 2113 
z
" transform="scale(0.015625)"/>
       <path id="DejaVuSans-56" d="M 2834 3397 
L 2834 2853 
Q 2591 2978 2328 3040 
Q 2066 3103 1784 3103 
Q 1356 3103 1142 2972 
Q 928 2841 928 2578 
Q 928 2378 1081 2264 
Q 1234 2150 1697 2047 
L 1894 2003 
Q 2506 1872 2764 1633 
Q 3022 1394 3022 966 
Q 3022 478 2636 193 
Q 2250 -91 1575 -91 
Q 1294 -91 989 -36 
Q 684 19 347 128 
L 347 722 
Q 666 556 975 473 
Q 1284 391 1588 391 
Q 1994 391 2212 530 
Q 2431 669 2431 922 
Q 2431 1156 2273 1281 
Q 2116 1406 1581 1522 
L 1381 1569 
Q 847 1681 609 1914 
Q 372 2147 372 2553 
Q 372 3047 722 3315 
Q 1072 3584 1716 3584 
Q 2034 3584 2315 3537 
Q 2597 3491 2834 3397 
z
" transform="scale(0.015625)"/>
      </defs>
      <use xlink:href="#DejaVuSans-30"/>
      <use xlink:href="#DejaVuSans-52" transform="translate(86.28125 0)"/>
      <use xlink:href="#DejaVuSans-51" transform="translate(147.46875 0)"/>
      <use xlink:href="#DejaVuSans-57" transform="translate(210.84375 0)"/>
      <use xlink:href="#DejaVuSans-4b" transform="translate(250.046875 0)"/>
      <use xlink:href="#DejaVuSans-56" transform="translate(313.421875 0)"/>
     </g>
    </g>
   </g>
   <g id="matplotlib.axis_2">
    <g id="ytick_1">
     <g id="line2d_8">
      <defs>
       <path id="mee8544d32a" d="M 0 0 
L -3.5 0 
" style="stroke: #000000; stroke-width: 0.8"/>
      </defs>
      <g>
       <use xlink:href="#mee8544d32a" x="46.104063" y="370.895441" style="stroke: #000000; stroke-width: 0.8"/>
      </g>
     </g>
     <g id="text_9">
      <!-- 0.0 -->
      <g transform="translate(23.200938 374.694269) scale(0.1 -0.1)">
       <defs>
        <path id="DejaVuSans-11" d="M 684 794 
L 1344 794 
L 1344 0 
L 684 0 
L 684 794 
z
" transform="scale(0.015625)"/>
       </defs>
       <use xlink:href="#DejaVuSans-13"/>
       <use xlink:href="#DejaVuSans-11" transform="translate(63.625 0)"/>
       <use xlink:href="#DejaVuSans-13" transform="translate(95.40625 0)"/>
      </g>
     </g>
    </g>
    <g id="ytick_2">
     <g id="line2d_9">
      <g>
       <use xlink:href="#mee8544d32a" x="46.104063" y="307.445876" style="stroke: #000000; stroke-width: 0.8"/>
      </g>
     </g>
     <g id="text_10">
      <!-- 0.2 -->
      <g transform="translate(23.200938 311.244705) scale(0.1 -0.1)">
       <use xlink:href="#DejaVuSans-13"/>
       <use xlink:href="#DejaVuSans-11" transform="translate(63.625 0)"/>
       <use xlink:href="#DejaVuSans-15" transform="translate(95.40625 0)"/>
      </g>
     </g>
    </g>
    <g id="ytick_3">
     <g id="line2d_10">
      <g>
       <use xlink:href="#mee8544d32a" x="46.104063" y="243.996312" style="stroke: #000000; stroke-width: 0.8"/>
      </g>
     </g>
     <g id="text_11">
      <!-- 0.4 -->
      <g transform="translate(23.200938 247.79514) scale(0.1 -0.1)">
       <use xlink:href="#DejaVuSans-13"/>
       <use xlink:href="#DejaVuSans-11" transform="translate(63.625 0)"/>
       <use xlink:href="#DejaVuSans-17" transform="translate(95.40625 0)"/>
      </g>
     </g>
    </g>
    <g id="ytick_4">
     <g id="line2d_11">
      <g>
       <use xlink:href="#mee8544d32a" x="46.104063" y="180.546747" style="stroke: #000000; stroke-width: 0.8"/>
      </g>
     </g>
     <g id="text_12">
      <!-- 0.6 -->
      <g transform="translate(23.200938 184.345575) scale(0.1 -0.1)">
       <use xlink:href="#DejaVuSans-13"/>
       <use xlink:href="#DejaVuSans-11" transform="translate(63.625 0)"/>
       <use xlink:href="#DejaVuSans-19" transform="translate(95.40625 0)"/>
      </g>
     </g>
    </g>
    <g id="ytick_5">
     <g id="line2d_12">
      <g>
       <use xlink:href="#mee8544d32a" x="46.104063" y="117.097182" style="stroke: #000000; stroke-width: 0.8"/>
      </g>
     </g>
     <g id="text_13">
      <!-- 0.8 -->
      <g transform="translate(23.200938 120.89601) scale(0.1 -0.1)">
       <use xlink:href="#DejaVuSans-13"/>
       <use xlink:href="#DejaVuSans-11" transform="translate(63.625 0)"/>
       <use xlink:href="#DejaVuSans-1b" transform="translate(95.40625 0)"/>
      </g>
     </g>
    </g>
    <g id="ytick_6">
     <g id="line2d_13">
      <g>
       <use xlink:href="#mee8544d32a" x="46.104063" y="53.647617" style="stroke: #000000; stroke-width: 0.8"/>
      </g>
     </g>
     <g id="text_14">
      <!-- 1.0 -->
      <g transform="translate(23.200938 57.446445) scale(0.1 -0.1)">
       <use xlink:href="#DejaVuSans-14"/>
       <use xlink:href="#DejaVuSans-11" transform="translate(63.625 0)"/>
       <use xlink:href="#DejaVuSans-13" transform="translate(95.40625 0)"/>
      </g>
     </g>
    </g>
    <g id="text_15">
     <!-- Overall Survival Probability -->
     <g transform="translate(16.318125 292.063945) rotate(-90) scale(0.12 -0.12)">
      <defs>
       <path id="DejaVuSans-32" d="M 2522 4238 
Q 1834 4238 1429 3725 
Q 1025 3213 1025 2328 
Q 1025 1447 1429 934 
Q 1834 422 2522 422 
Q 3209 422 3611 934 
Q 4013 1447 4013 2328 
Q 4013 3213 3611 3725 
Q 3209 4238 2522 4238 
z
M 2522 4750 
Q 3503 4750 4090 4092 
Q 4678 3434 4678 2328 
Q 4678 1225 4090 567 
Q 3503 -91 2522 -91 
Q 1538 -91 948 565 
Q 359 1222 359 2328 
Q 359 3434 948 4092 
Q 1538 4750 2522 4750 
z
" transform="scale(0.015625)"/>
       <path id="DejaVuSans-59" d="M 191 3500 
L 800 3500 
L 1894 563 
L 2988 3500 
L 3597 3500 
L 2284 0 
L 1503 0 
L 191 3500 
z
" transform="scale(0.015625)"/>
       <path id="DejaVuSans-48" d="M 3597 1894 
L 3597 1613 
L 953 1613 
Q 991 1019 1311 708 
Q 1631 397 2203 397 
Q 2534 397 2845 478 
Q 3156 559 3463 722 
L 3463 178 
Q 3153 47 2828 -22 
Q 2503 -91 2169 -91 
Q 1331 -91 842 396 
Q 353 884 353 1716 
Q 353 2575 817 3079 
Q 1281 3584 2069 3584 
Q 2775 3584 3186 3129 
Q 3597 2675 3597 1894 
z
M 3022 2063 
Q 3016 2534 2758 2815 
Q 2500 3097 2075 3097 
Q 1594 3097 1305 2825 
Q 1016 2553 972 2059 
L 3022 2063 
z
" transform="scale(0.015625)"/>
       <path id="DejaVuSans-55" d="M 2631 2963 
Q 2534 3019 2420 3045 
Q 2306 3072 2169 3072 
Q 1681 3072 1420 2755 
Q 1159 2438 1159 1844 
L 1159 0 
L 581 0 
L 581 3500 
L 1159 3500 
L 1159 2956 
Q 1341 3275 1631 3429 
Q 1922 3584 2338 3584 
Q 2397 3584 2469 3576 
Q 2541 3569 2628 3553 
L 2631 2963 
z
" transform="scale(0.015625)"/>
       <path id="DejaVuSans-44" d="M 2194 1759 
Q 1497 1759 1228 1600 
Q 959 1441 959 1056 
Q 959 750 1161 570 
Q 1363 391 1709 391 
Q 2188 391 2477 730 
Q 2766 1069 2766 1631 
L 2766 1759 
L 2194 1759 
z
M 3341 1997 
L 3341 0 
L 2766 0 
L 2766 531 
Q 2569 213 2275 61 
Q 1981 -91 1556 -91 
Q 1019 -91 701 211 
Q 384 513 384 1019 
Q 384 1609 779 1909 
Q 1175 2209 1959 2209 
L 2766 2209 
L 2766 2266 
Q 2766 2663 2505 2880 
Q 2244 3097 1772 3097 
Q 1472 3097 1187 3025 
Q 903 2953 641 2809 
L 641 3341 
Q 956 3463 1253 3523 
Q 1550 3584 1831 3584 
Q 2591 3584 2966 3190 
Q 3341 2797 3341 1997 
z
" transform="scale(0.015625)"/>
       <path id="DejaVuSans-4f" d="M 603 4863 
L 1178 4863 
L 1178 0 
L 603 0 
L 603 4863 
z
" transform="scale(0.015625)"/>
       <path id="DejaVuSans-3" transform="scale(0.015625)"/>
       <path id="DejaVuSans-36" d="M 3425 4513 
L 3425 3897 
Q 3066 4069 2747 4153 
Q 2428 4238 2131 4238 
Q 1616 4238 1336 4038 
Q 1056 3838 1056 3469 
Q 1056 3159 1242 3001 
Q 1428 2844 1947 2747 
L 2328 2669 
Q 3034 2534 3370 2195 
Q 3706 1856 3706 1288 
Q 3706 609 3251 259 
Q 2797 -91 1919 -91 
Q 1588 -91 1214 -16 
Q 841 59 441 206 
L 441 856 
Q 825 641 1194 531 
Q 1563 422 1919 422 
Q 2459 422 2753 634 
Q 3047 847 3047 1241 
Q 3047 1584 2836 1778 
Q 2625 1972 2144 2069 
L 1759 2144 
Q 1053 2284 737 2584 
Q 422 2884 422 3419 
Q 422 4038 858 4394 
Q 1294 4750 2059 4750 
Q 2388 4750 2728 4690 
Q 3069 4631 3425 4513 
z
" transform="scale(0.015625)"/>
       <path id="DejaVuSans-58" d="M 544 1381 
L 544 3500 
L 1119 3500 
L 1119 1403 
Q 1119 906 1312 657 
Q 1506 409 1894 409 
Q 2359 409 2629 706 
Q 2900 1003 2900 1516 
L 2900 3500 
L 3475 3500 
L 3475 0 
L 2900 0 
L 2900 538 
Q 2691 219 2414 64 
Q 2138 -91 1772 -91 
Q 1169 -91 856 284 
Q 544 659 544 1381 
z
M 1991 3584 
L 1991 3584 
z
" transform="scale(0.015625)"/>
       <path id="DejaVuSans-4c" d="M 603 3500 
L 1178 3500 
L 1178 0 
L 603 0 
L 603 3500 
z
M 603 4863 
L 1178 4863 
L 1178 4134 
L 603 4134 
L 603 4863 
z
" transform="scale(0.015625)"/>
       <path id="DejaVuSans-33" d="M 1259 4147 
L 1259 2394 
L 2053 2394 
Q 2494 2394 2734 2622 
Q 2975 2850 2975 3272 
Q 2975 3691 2734 3919 
Q 2494 4147 2053 4147 
L 1259 4147 
z
M 628 4666 
L 2053 4666 
Q 2838 4666 3239 4311 
Q 3641 3956 3641 3272 
Q 3641 2581 3239 2228 
Q 2838 1875 2053 1875 
L 1259 1875 
L 1259 0 
L 628 0 
L 628 4666 
z
" transform="scale(0.015625)"/>
       <path id="DejaVuSans-45" d="M 3116 1747 
Q 3116 2381 2855 2742 
Q 2594 3103 2138 3103 
Q 1681 3103 1420 2742 
Q 1159 2381 1159 1747 
Q 1159 1113 1420 752 
Q 1681 391 2138 391 
Q 2594 391 2855 752 
Q 3116 1113 3116 1747 
z
M 1159 2969 
Q 1341 3281 1617 3432 
Q 1894 3584 2278 3584 
Q 2916 3584 3314 3078 
Q 3713 2572 3713 1747 
Q 3713 922 3314 415 
Q 2916 -91 2278 -91 
Q 1894 -91 1617 61 
Q 1341 213 1159 525 
L 1159 0 
L 581 0 
L 581 4863 
L 1159 4863 
L 1159 2969 
z
" transform="scale(0.015625)"/>
       <path id="DejaVuSans-5c" d="M 2059 -325 
Q 1816 -950 1584 -1140 
Q 1353 -1331 966 -1331 
L 506 -1331 
L 506 -850 
L 844 -850 
Q 1081 -850 1212 -737 
Q 1344 -625 1503 -206 
L 1606 56 
L 191 3500 
L 800 3500 
L 1894 763 
L 2988 3500 
L 3597 3500 
L 2059 -325 
z
" transform="scale(0.015625)"/>
      </defs>
      <use xlink:href="#DejaVuSans-32"/>
      <use xlink:href="#DejaVuSans-59" transform="translate(78.71875 0)"/>
      <use xlink:href="#DejaVuSans-48" transform="translate(137.90625 0)"/>
      <use xlink:href="#DejaVuSans-55" transform="translate(199.4375 0)"/>
      <use xlink:href="#DejaVuSans-44" transform="translate(240.546875 0)"/>
      <use xlink:href="#DejaVuSans-4f" transform="translate(301.828125 0)"/>
      <use xlink:href="#DejaVuSans-4f" transform="translate(329.609375 0)"/>
      <use xlink:href="#DejaVuSans-3" transform="translate(357.390625 0)"/>
      <use xlink:href="#DejaVuSans-36" transform="translate(389.171875 0)"/>
      <use xlink:href="#DejaVuSans-58" transform="translate(452.65625 0)"/>
      <use xlink:href="#DejaVuSans-55" transform="translate(516.03125 0)"/>
      <use xlink:href="#DejaVuSans-59" transform="translate(557.140625 0)"/>
      <use xlink:href="#DejaVuSans-4c" transform="translate(616.328125 0)"/>
      <use xlink:href="#DejaVuSans-59" transform="translate(644.109375 0)"/>
      <use xlink:href="#DejaVuSans-44" transform="translate(703.296875 0)"/>
      <use xlink:href="#DejaVuSans-4f" transform="translate(764.578125 0)"/>
      <use xlink:href="#DejaVuSans-3" transform="translate(792.359375 0)"/>
      <use xlink:href="#DejaVuSans-33" transform="translate(824.140625 0)"/>
      <use xlink:href="#DejaVuSans-55" transform="translate(882.6875 0)"/>
      <use xlink:href="#DejaVuSans-52" transform="translate(921.59375 0)"/>
      <use xlink:href="#DejaVuSans-45" transform="translate(982.78125 0)"/>
      <use xlink:href="#DejaVuSans-44" transform="translate(1046.265625 0)"/>
      <use xlink:href="#DejaVuSans-45" transform="translate(1107.546875 0)"/>
      <use xlink:href="#DejaVuSans-4c" transform="translate(1171.03125 0)"/>
      <use xlink:href="#DejaVuSans-4f" transform="translate(1198.8125 0)"/>
      <use xlink:href="#DejaVuSans-4c" transform="translate(1226.59375 0)"/>
      <use xlink:href="#DejaVuSans-57" transform="translate(1254.375 0)"/>
      <use xlink:href="#DejaVuSans-5c" transform="translate(1293.578125 0)"/>
     </g>
    </g>
   </g>
   <g id="line2d_14">
    <path d="M 72.800298 53.647617 
L 75.144207 53.647617 
L 75.144207 55.400368 
L 76.736296 55.400368 
L 76.736296 57.182826 
L 77.311217 57.182826 
L 77.311217 58.965284 
L 77.753464 58.965284 
L 77.753464 60.747742 
L 78.018812 60.747742 
L 78.018812 62.5302 
L 79.478227 62.5302 
L 79.478227 64.312658 
L 80.362721 64.312658 
L 80.362721 66.095116 
L 82.529731 66.095116 
L 82.529731 67.877574 
L 87.748244 67.877574 
L 87.748244 69.670579 
L 89.517232 69.670579 
L 89.517232 71.463584 
L 91.551568 71.463584 
L 91.551568 73.256589 
L 101.148326 73.256589 
L 101.148326 75.105278 
L 104.332504 75.105278 
L 104.332504 76.965593 
L 108.666524 76.965593 
L 108.666524 78.837758 
L 110.877759 78.837758 
L 110.877759 82.630715 
L 112.337174 82.630715 
L 112.337174 84.527193 
L 113.177443 84.527193 
L 113.177443 86.423672 
L 116.405845 86.423672 
L 116.405845 88.332878 
L 117.555687 88.332878 
L 117.555687 90.242085 
L 118.572855 90.242085 
L 118.572855 92.151291 
L 123.526021 92.151291 
L 123.526021 94.100551 
L 124.941211 94.100551 
L 124.941211 96.063635 
L 125.825705 96.063635 
L 125.825705 98.05517 
L 125.958379 98.05517 
L 125.958379 100.046705 
L 133.078555 100.046705 
L 133.078555 102.130157 
L 133.255453 102.130157 
L 133.255453 104.213609 
L 135.555137 104.213609 
L 135.555137 106.347063 
L 136.439631 106.347063 
L 136.439631 108.480518 
L 153.421913 108.480518 
L 153.421913 110.802774 
L 153.86416 110.802774 
L 153.86416 113.145951 
L 157.225237 113.145951 
L 157.225237 115.624312 
L 161.736155 115.624312 
L 161.736155 118.12697 
L 168.679432 118.12697 
L 168.679432 120.787691 
L 176.109181 120.787691 
L 176.109181 123.69592 
L 177.966618 123.69592 
L 177.966618 126.674228 
L 184.379198 126.674228 
L 184.379198 129.805269 
L 189.332364 129.805269 
L 189.332364 133.107874 
L 192.958789 133.107874 
L 192.958789 136.554071 
L 194.418203 136.554071 
L 194.418203 143.446464 
L 196.010292 143.446464 
L 196.010292 146.89266 
L 203.395816 146.89266 
L 203.395816 150.392704 
L 208.039409 150.392704 
L 208.039409 154.06775 
L 230.85935 154.06775 
L 230.85935 157.939673 
L 239.438941 157.939673 
L 239.438941 161.883298 
L 248.593452 161.883298 
L 248.593452 165.826923 
L 272.120989 165.826923 
L 272.120989 170.595959 
L 275.747413 170.595959 
L 275.747413 175.364994 
L 279.550737 175.364994 
L 279.550737 180.134029 
L 299.451849 180.134029 
L 299.451849 185.584355 
L 308.739034 185.584355 
L 308.739034 191.375327 
L 333.018391 191.375327 
L 333.018391 197.565675 
L 341.863329 197.565675 
L 341.863329 204.232205 
L 382.417372 204.232205 
L 382.417372 214.648657 
L 440.661293 214.648657 
L 440.661293 253.710353 
L 442.120708 253.710353 
L 442.120708 292.772049 
L 526.810994 292.772049 
L 526.810994 331.833745 
L 572.141304 331.833745 
L 572.141304 331.833745 
" clip-path="url(#p5cceb66280)" style="fill: none; stroke: #c0392b; stroke-width: 1.5; stroke-linecap: square"/>
   </g>
   <g id="line2d_15">
    <path d="M 72.800298 53.647617 
L 74.127039 53.647617 
L 74.127039 55.429908 
L 74.392387 55.429908 
L 74.392387 57.222326 
L 74.525061 57.222326 
L 74.525061 59.014744 
L 74.834634 59.014744 
L 74.834634 60.807162 
L 75.542229 60.807162 
L 75.542229 62.610001 
L 80.937642 62.610001 
L 80.937642 66.302042 
L 82.264383 66.302042 
L 82.264383 69.994083 
L 85.44856 69.994083 
L 85.44856 71.851499 
L 86.023481 71.851499 
L 86.023481 75.56633 
L 86.907975 75.56633 
L 86.907975 77.423746 
L 87.482896 77.423746 
L 87.482896 79.281162 
L 87.61557 79.281162 
L 87.61557 81.138578 
L 88.36739 81.138578 
L 88.36739 82.995994 
L 91.551568 82.995994 
L 91.551568 84.853409 
L 93.143657 84.853409 
L 93.143657 86.710825 
L 95.045319 86.710825 
L 95.045319 88.568241 
L 97.654576 88.568241 
L 97.654576 92.283072 
L 100.971428 92.283072 
L 100.971428 94.140488 
L 103.890257 94.140488 
L 103.890257 95.997904 
L 105.216998 95.997904 
L 105.216998 97.867955 
L 106.632188 97.867955 
L 106.632188 99.738007 
L 113.354342 99.738007 
L 113.354342 101.621044 
L 113.929263 101.621044 
L 113.929263 103.504082 
L 115.7867 103.504082 
L 115.7867 105.38712 
L 116.228947 105.38712 
L 116.228947 107.270158 
L 116.405845 107.270158 
L 116.405845 109.153195 
L 116.803868 109.153195 
L 116.803868 111.036233 
L 116.980766 111.036233 
L 116.980766 112.933016 
L 122.774201 112.933016 
L 122.774201 114.887276 
L 123.216448 114.887276 
L 123.216448 116.841537 
L 126.975547 116.841537 
L 126.975547 118.923946 
L 128.169614 118.923946 
L 128.169614 121.006355 
L 130.027051 121.006355 
L 130.027051 123.142159 
L 132.370959 123.142159 
L 132.370959 125.354242 
L 132.636308 125.354242 
L 132.636308 127.566325 
L 133.653476 127.566325 
L 133.653476 129.819373 
L 134.537969 129.819373 
L 134.537969 132.093675 
L 138.473967 132.093675 
L 138.473967 134.458049 
L 140.95055 134.458049 
L 140.95055 136.870675 
L 150.547308 136.870675 
L 150.547308 139.442376 
L 152.272071 139.442376 
L 152.272071 142.014077 
L 153.598812 142.014077 
L 153.598812 144.615002 
L 159.392247 144.615002 
L 159.392247 147.341272 
L 160.099842 147.341272 
L 160.099842 150.067542 
L 163.903165 150.067542 
L 163.903165 152.973172 
L 164.787659 152.973172 
L 164.787659 155.958409 
L 165.627928 155.958409 
L 165.627928 158.943646 
L 166.202849 158.943646 
L 166.202849 161.971528 
L 167.087343 161.971528 
L 167.087343 165.043939 
L 172.748104 165.043939 
L 172.748104 168.162901 
L 173.499924 168.162901 
L 173.499924 171.281863 
L 182.787109 171.281863 
L 182.787109 174.608756 
L 183.936951 174.608756 
L 183.936951 177.935649 
L 184.688771 177.935649 
L 184.688771 181.262542 
L 218.830234 181.262542 
L 218.830234 185.572381 
L 237.714178 185.572381 
L 237.714178 190.581112 
L 239.748514 190.581112 
L 239.748514 195.73295 
L 251.335383 195.73295 
L 251.335383 201.040904 
L 257.438391 201.040904 
L 257.438391 206.520083 
L 274.155325 206.520083 
L 274.155325 212.188199 
L 289.280169 212.188199 
L 289.280169 218.066245 
L 308.473686 218.066245 
L 308.473686 224.710992 
L 317.583973 224.710992 
L 317.583973 231.35574 
L 318.910714 231.35574 
L 318.910714 238.000488 
L 380.206138 238.000488 
L 380.206138 246.860151 
L 429.60512 246.860151 
L 429.60512 259.26368 
L 433.983364 259.26368 
L 433.983364 271.667209 
L 546.137185 271.667209 
L 546.137185 296.474267 
L 606.725014 296.474267 
L 606.725014 296.474267 
" clip-path="url(#p5cceb66280)" style="fill: none; stroke: #2980b9; stroke-width: 1.5; stroke-linecap: square"/>
   </g>
   <g id="patch_3">
    <path d="M 46.104063 383.873437 
L 46.104063 37.922578 
" style="fill: none; stroke: #000000; stroke-width: 0.8; stroke-linejoin: miter; stroke-linecap: square"/>
   </g>
   <g id="patch_4">
    <path d="M 633.42125 383.873437 
L 633.42125 37.922578 
" style="fill: none; stroke: #000000; stroke-width: 0.8; stroke-linejoin: miter; stroke-linecap: square"/>
   </g>
   <g id="patch_5">
    <path d="M 46.104063 383.873437 
L 633.42125 383.873437 
" style="fill: none; stroke: #000000; stroke-width: 0.8; stroke-linejoin: miter; stroke-linecap: square"/>
   </g>
   <g id="patch_6">
    <path d="M 46.104063 37.922578 
L 633.42125 37.922578 
" style="fill: none; stroke: #000000; stroke-width: 0.8; stroke-linejoin: miter; stroke-linecap: square"/>
   </g>
   <g id="text_16">
    <g id="patch_7">
     <path d="M 559.992406 59.141595 
L 621.674906 59.141595 
Q 624.974906 59.141595 624.974906 55.841595 
L 624.974906 44.841595 
Q 624.974906 41.541595 621.674906 41.541595 
L 559.992406 41.541595 
Q 556.692406 41.541595 556.692406 44.841595 
L 556.692406 55.841595 
Q 556.692406 59.141595 559.992406 59.141595 
z
" style="fill: #ffffff; opacity: 0.9; stroke: #000000; stroke-linejoin: miter"/>
    </g>
    <!-- p = 0.0476 -->
    <g transform="translate(559.992406 53.199017) scale(0.11 -0.11)">
     <defs>
      <path id="DejaVuSans-53" d="M 1159 525 
L 1159 -1331 
L 581 -1331 
L 581 3500 
L 1159 3500 
L 1159 2969 
Q 1341 3281 1617 3432 
Q 1894 3584 2278 3584 
Q 2916 3584 3314 3078 
Q 3713 2572 3713 1747 
Q 3713 922 3314 415 
Q 2916 -91 2278 -91 
Q 1894 -91 1617 61 
Q 1341 213 1159 525 
z
M 3116 1747 
Q 3116 2381 2855 2742 
Q 2594 3103 2138 3103 
Q 1681 3103 1420 2742 
Q 1159 2381 1159 1747 
Q 1159 1113 1420 752 
Q 1681 391 2138 391 
Q 2594 391 2855 752 
Q 3116 1113 3116 1747 
z
" transform="scale(0.015625)"/>
      <path id="DejaVuSans-20" d="M 678 2906 
L 4684 2906 
L 4684 2381 
L 678 2381 
L 678 2906 
z
M 678 1631 
L 4684 1631 
L 4684 1100 
L 678 1100 
L 678 1631 
z
" transform="scale(0.015625)"/>
      <path id="DejaVuSans-1a" d="M 525 4666 
L 3525 4666 
L 3525 4397 
L 1831 0 
L 1172 0 
L 2766 4134 
L 525 4134 
L 525 4666 
z
" transform="scale(0.015625)"/>
     </defs>
     <use xlink:href="#DejaVuSans-53"/>
     <use xlink:href="#DejaVuSans-3" transform="translate(63.484375 0)"/>
     <use xlink:href="#DejaVuSans-20" transform="translate(95.265625 0)"/>
     <use xlink:href="#DejaVuSans-3" transform="translate(179.0625 0)"/>
     <use xlink:href="#DejaVuSans-13" transform="translate(210.84375 0)"/>
     <use xlink:href="#DejaVuSans-11" transform="translate(274.46875 0)"/>
     <use xlink:href="#DejaVuSans-13" transform="translate(306.25 0)"/>
     <use xlink:href="#DejaVuSans-17" transform="translate(369.875 0)"/>
     <use xlink:href="#DejaVuSans-1a" transform="translate(433.5 0)"/>
     <use xlink:href="#DejaVuSans-19" transform="translate(497.125 0)"/>
    </g>
   </g>
   <g id="text_17">
    <!-- SOCE Composite Risk Score — Kaplan-Meier Survival -->
    <g transform="translate(161.757656 17.519297) scale(0.12 -0.12)">
     <defs>
      <path id="DejaVuSans-Bold-36" d="M 3834 4519 
L 3834 3531 
Q 3450 3703 3084 3790 
Q 2719 3878 2394 3878 
Q 1963 3878 1756 3759 
Q 1550 3641 1550 3391 
Q 1550 3203 1689 3098 
Q 1828 2994 2194 2919 
L 2706 2816 
Q 3484 2659 3812 2340 
Q 4141 2022 4141 1434 
Q 4141 663 3683 286 
Q 3225 -91 2284 -91 
Q 1841 -91 1394 -6 
Q 947 78 500 244 
L 500 1259 
Q 947 1022 1364 901 
Q 1781 781 2169 781 
Q 2563 781 2772 912 
Q 2981 1044 2981 1288 
Q 2981 1506 2839 1625 
Q 2697 1744 2272 1838 
L 1806 1941 
Q 1106 2091 782 2419 
Q 459 2747 459 3303 
Q 459 4000 909 4375 
Q 1359 4750 2203 4750 
Q 2588 4750 2994 4692 
Q 3400 4634 3834 4519 
z
" transform="scale(0.015625)"/>
      <path id="DejaVuSans-Bold-32" d="M 2719 3878 
Q 2169 3878 1866 3472 
Q 1563 3066 1563 2328 
Q 1563 1594 1866 1187 
Q 2169 781 2719 781 
Q 3272 781 3575 1187 
Q 3878 1594 3878 2328 
Q 3878 3066 3575 3472 
Q 3272 3878 2719 3878 
z
M 2719 4750 
Q 3844 4750 4481 4106 
Q 5119 3463 5119 2328 
Q 5119 1197 4481 553 
Q 3844 -91 2719 -91 
Q 1597 -91 958 553 
Q 319 1197 319 2328 
Q 319 3463 958 4106 
Q 1597 4750 2719 4750 
z
" transform="scale(0.015625)"/>
      <path id="DejaVuSans-Bold-26" d="M 4288 256 
Q 3956 84 3597 -3 
Q 3238 -91 2847 -91 
Q 1681 -91 1000 561 
Q 319 1213 319 2328 
Q 319 3447 1000 4098 
Q 1681 4750 2847 4750 
Q 3238 4750 3597 4662 
Q 3956 4575 4288 4403 
L 4288 3438 
Q 3953 3666 3628 3772 
Q 3303 3878 2944 3878 
Q 2300 3878 1931 3465 
Q 1563 3053 1563 2328 
Q 1563 1606 1931 1193 
Q 2300 781 2944 781 
Q 3303 781 3628 887 
Q 3953 994 4288 1222 
L 4288 256 
z
" transform="scale(0.015625)"/>
      <path id="DejaVuSans-Bold-28" d="M 588 4666 
L 3834 4666 
L 3834 3756 
L 1791 3756 
L 1791 2888 
L 3713 2888 
L 3713 1978 
L 1791 1978 
L 1791 909 
L 3903 909 
L 3903 0 
L 588 0 
L 588 4666 
z
" transform="scale(0.015625)"/>
      <path id="DejaVuSans-Bold-3" transform="scale(0.015625)"/>
      <path id="DejaVuSans-Bold-52" d="M 2203 2784 
Q 1831 2784 1636 2517 
Q 1441 2250 1441 1747 
Q 1441 1244 1636 976 
Q 1831 709 2203 709 
Q 2569 709 2762 976 
Q 2956 1244 2956 1747 
Q 2956 2250 2762 2517 
Q 2569 2784 2203 2784 
z
M 2203 3584 
Q 3106 3584 3614 3096 
Q 4122 2609 4122 1747 
Q 4122 884 3614 396 
Q 3106 -91 2203 -91 
Q 1297 -91 786 396 
Q 275 884 275 1747 
Q 275 2609 786 3096 
Q 1297 3584 2203 3584 
z
" transform="scale(0.015625)"/>
      <path id="DejaVuSans-Bold-50" d="M 3781 2919 
Q 3994 3244 4286 3414 
Q 4578 3584 4928 3584 
Q 5531 3584 5847 3212 
Q 6163 2841 6163 2131 
L 6163 0 
L 5038 0 
L 5038 1825 
Q 5041 1866 5042 1909 
Q 5044 1953 5044 2034 
Q 5044 2406 4934 2573 
Q 4825 2741 4581 2741 
Q 4263 2741 4089 2478 
Q 3916 2216 3909 1719 
L 3909 0 
L 2784 0 
L 2784 1825 
Q 2784 2406 2684 2573 
Q 2584 2741 2328 2741 
Q 2006 2741 1831 2477 
Q 1656 2213 1656 1722 
L 1656 0 
L 531 0 
L 531 3500 
L 1656 3500 
L 1656 2988 
Q 1863 3284 2130 3434 
Q 2397 3584 2719 3584 
Q 3081 3584 3359 3409 
Q 3638 3234 3781 2919 
z
" transform="scale(0.015625)"/>
      <path id="DejaVuSans-Bold-53" d="M 1656 506 
L 1656 -1331 
L 538 -1331 
L 538 3500 
L 1656 3500 
L 1656 2988 
Q 1888 3294 2169 3439 
Q 2450 3584 2816 3584 
Q 3463 3584 3878 3070 
Q 4294 2556 4294 1747 
Q 4294 938 3878 423 
Q 3463 -91 2816 -91 
Q 2450 -91 2169 54 
Q 1888 200 1656 506 
z
M 2400 2772 
Q 2041 2772 1848 2508 
Q 1656 2244 1656 1747 
Q 1656 1250 1848 986 
Q 2041 722 2400 722 
Q 2759 722 2948 984 
Q 3138 1247 3138 1747 
Q 3138 2247 2948 2509 
Q 2759 2772 2400 2772 
z
" transform="scale(0.015625)"/>
      <path id="DejaVuSans-Bold-56" d="M 3272 3391 
L 3272 2541 
Q 2913 2691 2578 2766 
Q 2244 2841 1947 2841 
Q 1628 2841 1473 2761 
Q 1319 2681 1319 2516 
Q 1319 2381 1436 2309 
Q 1553 2238 1856 2203 
L 2053 2175 
Q 2913 2066 3209 1816 
Q 3506 1566 3506 1031 
Q 3506 472 3093 190 
Q 2681 -91 1863 -91 
Q 1516 -91 1145 -36 
Q 775 19 384 128 
L 384 978 
Q 719 816 1070 734 
Q 1422 653 1784 653 
Q 2113 653 2278 743 
Q 2444 834 2444 1013 
Q 2444 1163 2330 1236 
Q 2216 1309 1875 1350 
L 1678 1375 
Q 931 1469 631 1722 
Q 331 1975 331 2491 
Q 331 3047 712 3315 
Q 1094 3584 1881 3584 
Q 2191 3584 2531 3537 
Q 2872 3491 3272 3391 
z
" transform="scale(0.015625)"/>
      <path id="DejaVuSans-Bold-4c" d="M 538 3500 
L 1656 3500 
L 1656 0 
L 538 0 
L 538 3500 
z
M 538 4863 
L 1656 4863 
L 1656 3950 
L 538 3950 
L 538 4863 
z
" transform="scale(0.015625)"/>
      <path id="DejaVuSans-Bold-57" d="M 1759 4494 
L 1759 3500 
L 2913 3500 
L 2913 2700 
L 1759 2700 
L 1759 1216 
Q 1759 972 1856 886 
Q 1953 800 2241 800 
L 2816 800 
L 2816 0 
L 1856 0 
Q 1194 0 917 276 
Q 641 553 641 1216 
L 641 2700 
L 84 2700 
L 84 3500 
L 641 3500 
L 641 4494 
L 1759 4494 
z
" transform="scale(0.015625)"/>
      <path id="DejaVuSans-Bold-48" d="M 4031 1759 
L 4031 1441 
L 1416 1441 
Q 1456 1047 1700 850 
Q 1944 653 2381 653 
Q 2734 653 3104 758 
Q 3475 863 3866 1075 
L 3866 213 
Q 3469 63 3072 -14 
Q 2675 -91 2278 -91 
Q 1328 -91 801 392 
Q 275 875 275 1747 
Q 275 2603 792 3093 
Q 1309 3584 2216 3584 
Q 3041 3584 3536 3087 
Q 4031 2591 4031 1759 
z
M 2881 2131 
Q 2881 2450 2695 2645 
Q 2509 2841 2209 2841 
Q 1884 2841 1681 2658 
Q 1478 2475 1428 2131 
L 2881 2131 
z
" transform="scale(0.015625)"/>
      <path id="DejaVuSans-Bold-35" d="M 2297 2597 
Q 2675 2597 2839 2737 
Q 3003 2878 3003 3200 
Q 3003 3519 2839 3656 
Q 2675 3794 2297 3794 
L 1791 3794 
L 1791 2597 
L 2297 2597 
z
M 1791 1766 
L 1791 0 
L 588 0 
L 588 4666 
L 2425 4666 
Q 3347 4666 3776 4356 
Q 4206 4047 4206 3378 
Q 4206 2916 3982 2619 
Q 3759 2322 3309 2181 
Q 3556 2125 3751 1926 
Q 3947 1728 4147 1325 
L 4800 0 
L 3519 0 
L 2950 1159 
Q 2778 1509 2601 1637 
Q 2425 1766 2131 1766 
L 1791 1766 
z
" transform="scale(0.015625)"/>
      <path id="DejaVuSans-Bold-4e" d="M 538 4863 
L 1656 4863 
L 1656 2216 
L 2944 3500 
L 4244 3500 
L 2534 1894 
L 4378 0 
L 3022 0 
L 1656 1459 
L 1656 0 
L 538 0 
L 538 4863 
z
" transform="scale(0.015625)"/>
      <path id="DejaVuSans-Bold-46" d="M 3366 3391 
L 3366 2478 
Q 3138 2634 2908 2709 
Q 2678 2784 2431 2784 
Q 1963 2784 1702 2511 
Q 1441 2238 1441 1747 
Q 1441 1256 1702 982 
Q 1963 709 2431 709 
Q 2694 709 2930 787 
Q 3166 866 3366 1019 
L 3366 103 
Q 3103 6 2833 -42 
Q 2563 -91 2291 -91 
Q 1344 -91 809 395 
Q 275 881 275 1747 
Q 275 2613 809 3098 
Q 1344 3584 2291 3584 
Q 2566 3584 2833 3536 
Q 3100 3488 3366 3391 
z
" transform="scale(0.015625)"/>
      <path id="DejaVuSans-Bold-55" d="M 3138 2547 
Q 2991 2616 2845 2648 
Q 2700 2681 2553 2681 
Q 2122 2681 1889 2404 
Q 1656 2128 1656 1613 
L 1656 0 
L 538 0 
L 538 3500 
L 1656 3500 
L 1656 2925 
Q 1872 3269 2151 3426 
Q 2431 3584 2822 3584 
Q 2878 3584 2943 3579 
Q 3009 3575 3134 3559 
L 3138 2547 
z
" transform="scale(0.015625)"/>
      <path id="DejaVuSans-Bold-af6" d="M 344 2156 
L 6056 2156 
L 6056 1350 
L 344 1350 
L 344 2156 
z
" transform="scale(0.015625)"/>
      <path id="DejaVuSans-Bold-2e" d="M 588 4666 
L 1791 4666 
L 1791 2963 
L 3525 4666 
L 4922 4666 
L 2675 2456 
L 5153 0 
L 3647 0 
L 1791 1838 
L 1791 0 
L 588 0 
L 588 4666 
z
" transform="scale(0.015625)"/>
      <path id="DejaVuSans-Bold-44" d="M 2106 1575 
Q 1756 1575 1579 1456 
Q 1403 1338 1403 1106 
Q 1403 894 1545 773 
Q 1688 653 1941 653 
Q 2256 653 2472 879 
Q 2688 1106 2688 1447 
L 2688 1575 
L 2106 1575 
z
M 3816 1997 
L 3816 0 
L 2688 0 
L 2688 519 
Q 2463 200 2181 54 
Q 1900 -91 1497 -91 
Q 953 -91 614 226 
Q 275 544 275 1050 
Q 275 1666 698 1953 
Q 1122 2241 2028 2241 
L 2688 2241 
L 2688 2328 
Q 2688 2594 2478 2717 
Q 2269 2841 1825 2841 
Q 1466 2841 1156 2769 
Q 847 2697 581 2553 
L 581 3406 
Q 941 3494 1303 3539 
Q 1666 3584 2028 3584 
Q 2975 3584 3395 3211 
Q 3816 2838 3816 1997 
z
" transform="scale(0.015625)"/>
      <path id="DejaVuSans-Bold-4f" d="M 538 4863 
L 1656 4863 
L 1656 0 
L 538 0 
L 538 4863 
z
" transform="scale(0.015625)"/>
      <path id="DejaVuSans-Bold-51" d="M 4056 2131 
L 4056 0 
L 2931 0 
L 2931 347 
L 2931 1631 
Q 2931 2084 2911 2256 
Q 2891 2428 2841 2509 
Q 2775 2619 2662 2680 
Q 2550 2741 2406 2741 
Q 2056 2741 1856 2470 
Q 1656 2200 1656 1722 
L 1656 0 
L 538 0 
L 538 3500 
L 1656 3500 
L 1656 2988 
Q 1909 3294 2193 3439 
Q 2478 3584 2822 3584 
Q 3428 3584 3742 3212 
Q 4056 2841 4056 2131 
z
" transform="scale(0.015625)"/>
      <path id="DejaVuSans-Bold-10" d="M 347 2297 
L 2309 2297 
L 2309 1388 
L 347 1388 
L 347 2297 
z
" transform="scale(0.015625)"/>
      <path id="DejaVuSans-Bold-30" d="M 588 4666 
L 2119 4666 
L 3181 2169 
L 4250 4666 
L 5778 4666 
L 5778 0 
L 4641 0 
L 4641 3413 
L 3566 897 
L 2803 897 
L 1728 3413 
L 1728 0 
L 588 0 
L 588 4666 
z
" transform="scale(0.015625)"/>
      <path id="DejaVuSans-Bold-58" d="M 500 1363 
L 500 3500 
L 1625 3500 
L 1625 3150 
Q 1625 2866 1622 2436 
Q 1619 2006 1619 1863 
Q 1619 1441 1641 1255 
Q 1663 1069 1716 984 
Q 1784 875 1895 815 
Q 2006 756 2150 756 
Q 2500 756 2700 1025 
Q 2900 1294 2900 1772 
L 2900 3500 
L 4019 3500 
L 4019 0 
L 2900 0 
L 2900 506 
Q 2647 200 2364 54 
Q 2081 -91 1741 -91 
Q 1134 -91 817 281 
Q 500 653 500 1363 
z
" transform="scale(0.015625)"/>
      <path id="DejaVuSans-Bold-59" d="M 97 3500 
L 1216 3500 
L 2088 1081 
L 2956 3500 
L 4078 3500 
L 2700 0 
L 1472 0 
L 97 3500 
z
" transform="scale(0.015625)"/>
     </defs>
     <use xlink:href="#DejaVuSans-Bold-36"/>
     <use xlink:href="#DejaVuSans-Bold-32" transform="translate(72.015625 0)"/>
     <use xlink:href="#DejaVuSans-Bold-26" transform="translate(157.03125 0)"/>
     <use xlink:href="#DejaVuSans-Bold-28" transform="translate(230.421875 0)"/>
     <use xlink:href="#DejaVuSans-Bold-3" transform="translate(298.734375 0)"/>
     <use xlink:href="#DejaVuSans-Bold-26" transform="translate(333.546875 0)"/>
     <use xlink:href="#DejaVuSans-Bold-52" transform="translate(406.9375 0)"/>
     <use xlink:href="#DejaVuSans-Bold-50" transform="translate(475.640625 0)"/>
     <use xlink:href="#DejaVuSans-Bold-53" transform="translate(579.84375 0)"/>
     <use xlink:href="#DejaVuSans-Bold-52" transform="translate(651.421875 0)"/>
     <use xlink:href="#DejaVuSans-Bold-56" transform="translate(720.125 0)"/>
     <use xlink:href="#DejaVuSans-Bold-4c" transform="translate(779.640625 0)"/>
     <use xlink:href="#DejaVuSans-Bold-57" transform="translate(813.921875 0)"/>
     <use xlink:href="#DejaVuSans-Bold-48" transform="translate(861.71875 0)"/>
     <use xlink:href="#DejaVuSans-Bold-3" transform="translate(929.546875 0)"/>
     <use xlink:href="#DejaVuSans-Bold-35" transform="translate(964.359375 0)"/>
     <use xlink:href="#DejaVuSans-Bold-4c" transform="translate(1041.359375 0)"/>
     <use xlink:href="#DejaVuSans-Bold-56" transform="translate(1075.640625 0)"/>
     <use xlink:href="#DejaVuSans-Bold-4e" transform="translate(1135.15625 0)"/>
     <use xlink:href="#DejaVuSans-Bold-3" transform="translate(1201.65625 0)"/>
     <use xlink:href="#DejaVuSans-Bold-36" transform="translate(1236.46875 0)"/>
     <use xlink:href="#DejaVuSans-Bold-46" transform="translate(1308.484375 0)"/>
     <use xlink:href="#DejaVuSans-Bold-52" transform="translate(1367.765625 0)"/>
     <use xlink:href="#DejaVuSans-Bold-55" transform="translate(1436.46875 0)"/>
     <use xlink:href="#DejaVuSans-Bold-48" transform="translate(1485.78125 0)"/>
     <use xlink:href="#DejaVuSans-Bold-3" transform="translate(1553.609375 0)"/>
     <use xlink:href="#DejaVuSans-Bold-af6" transform="translate(1588.421875 0)"/>
     <use xlink:href="#DejaVuSans-Bold-3" transform="translate(1688.421875 0)"/>
     <use xlink:href="#DejaVuSans-Bold-2e" transform="translate(1723.234375 0)"/>
     <use xlink:href="#DejaVuSans-Bold-44" transform="translate(1800.71875 0)"/>
     <use xlink:href="#DejaVuSans-Bold-53" transform="translate(1868.203125 0)"/>
     <use xlink:href="#DejaVuSans-Bold-4f" transform="translate(1939.78125 0)"/>
     <use xlink:href="#DejaVuSans-Bold-44" transform="translate(1974.0625 0)"/>
     <use xlink:href="#DejaVuSans-Bold-51" transform="translate(2041.546875 0)"/>
     <use xlink:href="#DejaVuSans-Bold-10" transform="translate(2112.734375 0)"/>
     <use xlink:href="#DejaVuSans-Bold-30" transform="translate(2154.234375 0)"/>
     <use xlink:href="#DejaVuSans-Bold-48" transform="translate(2253.75 0)"/>
     <use xlink:href="#DejaVuSans-Bold-4c" transform="translate(2321.578125 0)"/>
     <use xlink:href="#DejaVuSans-Bold-48" transform="translate(2355.859375 0)"/>
     <use xlink:href="#DejaVuSans-Bold-55" transform="translate(2423.6875 0)"/>
     <use xlink:href="#DejaVuSans-Bold-3" transform="translate(2473 0)"/>
     <use xlink:href="#DejaVuSans-Bold-36" transform="translate(2507.8125 0)"/>
     <use xlink:href="#DejaVuSans-Bold-58" transform="translate(2579.828125 0)"/>
     <use xlink:href="#DejaVuSans-Bold-55" transform="translate(2651.015625 0)"/>
     <use xlink:href="#DejaVuSans-Bold-59" transform="translate(2700.328125 0)"/>
     <use xlink:href="#DejaVuSans-Bold-4c" transform="translate(2765.515625 0)"/>
     <use xlink:href="#DejaVuSans-Bold-59" transform="translate(2799.796875 0)"/>
     <use xlink:href="#DejaVuSans-Bold-44" transform="translate(2864.984375 0)"/>
     <use xlink:href="#DejaVuSans-Bold-4f" transform="translate(2932.46875 0)"/>
    </g>
    <!-- (TCGA-LIHC, PC1 of STIM1 + TRPC6 + TRPC1 + ORAI1) -->
    <g transform="translate(157.432969 31.922578) scale(0.12 -0.12)">
     <defs>
      <path id="DejaVuSans-Bold-b" d="M 2413 -844 
L 1484 -844 
Q 1006 -72 778 623 
Q 550 1319 550 2003 
Q 550 2688 779 3389 
Q 1009 4091 1484 4856 
L 2413 4856 
Q 2013 4116 1813 3408 
Q 1613 2700 1613 2009 
Q 1613 1319 1811 609 
Q 2009 -100 2413 -844 
z
" transform="scale(0.015625)"/>
      <path id="DejaVuSans-Bold-37" d="M 31 4666 
L 4331 4666 
L 4331 3756 
L 2784 3756 
L 2784 0 
L 1581 0 
L 1581 3756 
L 31 3756 
L 31 4666 
z
" transform="scale(0.015625)"/>
      <path id="DejaVuSans-Bold-2a" d="M 4781 347 
Q 4331 128 3847 18 
Q 3363 -91 2847 -91 
Q 1681 -91 1000 561 
Q 319 1213 319 2328 
Q 319 3456 1012 4103 
Q 1706 4750 2913 4750 
Q 3378 4750 3804 4662 
Q 4231 4575 4609 4403 
L 4609 3438 
Q 4219 3659 3833 3768 
Q 3447 3878 3059 3878 
Q 2341 3878 1952 3476 
Q 1563 3075 1563 2328 
Q 1563 1588 1938 1184 
Q 2313 781 3003 781 
Q 3191 781 3352 804 
Q 3513 828 3641 878 
L 3641 1784 
L 2906 1784 
L 2906 2591 
L 4781 2591 
L 4781 347 
z
" transform="scale(0.015625)"/>
      <path id="DejaVuSans-Bold-24" d="M 3419 850 
L 1538 850 
L 1241 0 
L 31 0 
L 1759 4666 
L 3194 4666 
L 4922 0 
L 3713 0 
L 3419 850 
z
M 1838 1716 
L 3116 1716 
L 2478 3572 
L 1838 1716 
z
" transform="scale(0.015625)"/>
      <path id="DejaVuSans-Bold-2f" d="M 588 4666 
L 1791 4666 
L 1791 909 
L 3903 909 
L 3903 0 
L 588 0 
L 588 4666 
z
" transform="scale(0.015625)"/>
      <path id="DejaVuSans-Bold-2c" d="M 588 4666 
L 1791 4666 
L 1791 0 
L 588 0 
L 588 4666 
z
" transform="scale(0.015625)"/>
      <path id="DejaVuSans-Bold-2b" d="M 588 4666 
L 1791 4666 
L 1791 2888 
L 3566 2888 
L 3566 4666 
L 4769 4666 
L 4769 0 
L 3566 0 
L 3566 1978 
L 1791 1978 
L 1791 0 
L 588 0 
L 588 4666 
z
" transform="scale(0.015625)"/>
      <path id="DejaVuSans-Bold-f" d="M 653 1209 
L 1778 1209 
L 1778 256 
L 1006 -909 
L 341 -909 
L 653 256 
L 653 1209 
z
" transform="scale(0.015625)"/>
      <path id="DejaVuSans-Bold-33" d="M 588 4666 
L 2584 4666 
Q 3475 4666 3951 4270 
Q 4428 3875 4428 3144 
Q 4428 2409 3951 2014 
Q 3475 1619 2584 1619 
L 1791 1619 
L 1791 0 
L 588 0 
L 588 4666 
z
M 1791 3794 
L 1791 2491 
L 2456 2491 
Q 2806 2491 2997 2661 
Q 3188 2831 3188 3144 
Q 3188 3456 2997 3625 
Q 2806 3794 2456 3794 
L 1791 3794 
z
" transform="scale(0.015625)"/>
      <path id="DejaVuSans-Bold-14" d="M 750 831 
L 1813 831 
L 1813 3847 
L 722 3622 
L 722 4441 
L 1806 4666 
L 2950 4666 
L 2950 831 
L 4013 831 
L 4013 0 
L 750 0 
L 750 831 
z
" transform="scale(0.015625)"/>
      <path id="DejaVuSans-Bold-49" d="M 2841 4863 
L 2841 4128 
L 2222 4128 
Q 1984 4128 1890 4042 
Q 1797 3956 1797 3744 
L 1797 3500 
L 2753 3500 
L 2753 2700 
L 1797 2700 
L 1797 0 
L 678 0 
L 678 2700 
L 122 2700 
L 122 3500 
L 678 3500 
L 678 3744 
Q 678 4316 997 4589 
Q 1316 4863 1984 4863 
L 2841 4863 
z
" transform="scale(0.015625)"/>
      <path id="DejaVuSans-Bold-e" d="M 3053 4013 
L 3053 2375 
L 4684 2375 
L 4684 1638 
L 3053 1638 
L 3053 0 
L 2309 0 
L 2309 1638 
L 678 1638 
L 678 2375 
L 2309 2375 
L 2309 4013 
L 3053 4013 
z
" transform="scale(0.015625)"/>
      <path id="DejaVuSans-Bold-19" d="M 2316 2303 
Q 2000 2303 1842 2098 
Q 1684 1894 1684 1484 
Q 1684 1075 1842 870 
Q 2000 666 2316 666 
Q 2634 666 2792 870 
Q 2950 1075 2950 1484 
Q 2950 1894 2792 2098 
Q 2634 2303 2316 2303 
z
M 3803 4544 
L 3803 3681 
Q 3506 3822 3243 3889 
Q 2981 3956 2731 3956 
Q 2194 3956 1894 3657 
Q 1594 3359 1544 2772 
Q 1750 2925 1990 3001 
Q 2231 3078 2516 3078 
Q 3231 3078 3670 2659 
Q 4109 2241 4109 1563 
Q 4109 813 3618 361 
Q 3128 -91 2303 -91 
Q 1394 -91 895 523 
Q 397 1138 397 2266 
Q 397 3422 980 4083 
Q 1563 4744 2578 4744 
Q 2900 4744 3203 4694 
Q 3506 4644 3803 4544 
z
" transform="scale(0.015625)"/>
      <path id="DejaVuSans-Bold-c" d="M 513 -844 
Q 913 -100 1113 609 
Q 1313 1319 1313 2009 
Q 1313 2700 1113 3408 
Q 913 4116 513 4856 
L 1441 4856 
Q 1916 4091 2145 3389 
Q 2375 2688 2375 2003 
Q 2375 1319 2147 623 
Q 1919 -72 1441 -844 
L 513 -844 
z
" transform="scale(0.015625)"/>
     </defs>
     <use xlink:href="#DejaVuSans-Bold-b"/>
     <use xlink:href="#DejaVuSans-Bold-37" transform="translate(45.703125 0)"/>
     <use xlink:href="#DejaVuSans-Bold-26" transform="translate(113.921875 0)"/>
     <use xlink:href="#DejaVuSans-Bold-2a" transform="translate(187.3125 0)"/>
     <use xlink:href="#DejaVuSans-Bold-24" transform="translate(269.390625 0)"/>
     <use xlink:href="#DejaVuSans-Bold-10" transform="translate(346.78125 0)"/>
     <use xlink:href="#DejaVuSans-Bold-2f" transform="translate(388.28125 0)"/>
     <use xlink:href="#DejaVuSans-Bold-2c" transform="translate(452 0)"/>
     <use xlink:href="#DejaVuSans-Bold-2b" transform="translate(489.203125 0)"/>
     <use xlink:href="#DejaVuSans-Bold-26" transform="translate(572.890625 0)"/>
     <use xlink:href="#DejaVuSans-Bold-f" transform="translate(646.28125 0)"/>
     <use xlink:href="#DejaVuSans-Bold-3" transform="translate(684.265625 0)"/>
     <use xlink:href="#DejaVuSans-Bold-33" transform="translate(719.078125 0)"/>
     <use xlink:href="#DejaVuSans-Bold-26" transform="translate(792.375 0)"/>
     <use xlink:href="#DejaVuSans-Bold-14" transform="translate(865.765625 0)"/>
     <use xlink:href="#DejaVuSans-Bold-3" transform="translate(935.34375 0)"/>
     <use xlink:href="#DejaVuSans-Bold-52" transform="translate(970.15625 0)"/>
     <use xlink:href="#DejaVuSans-Bold-49" transform="translate(1038.859375 0)"/>
     <use xlink:href="#DejaVuSans-Bold-3" transform="translate(1082.359375 0)"/>
     <use xlink:href="#DejaVuSans-Bold-36" transform="translate(1117.171875 0)"/>
     <use xlink:href="#DejaVuSans-Bold-37" transform="translate(1189.1875 0)"/>
     <use xlink:href="#DejaVuSans-Bold-2c" transform="translate(1257.40625 0)"/>
     <use xlink:href="#DejaVuSans-Bold-30" transform="translate(1294.609375 0)"/>
     <use xlink:href="#DejaVuSans-Bold-14" transform="translate(1394.125 0)"/>
     <use xlink:href="#DejaVuSans-Bold-3" transform="translate(1463.703125 0)"/>
     <use xlink:href="#DejaVuSans-Bold-e" transform="translate(1498.515625 0)"/>
     <use xlink:href="#DejaVuSans-Bold-3" transform="translate(1582.3125 0)"/>
     <use xlink:href="#DejaVuSans-Bold-37" transform="translate(1617.125 0)"/>
     <use xlink:href="#DejaVuSans-Bold-35" transform="translate(1685.34375 0)"/>
     <use xlink:href="#DejaVuSans-Bold-33" transform="translate(1762.34375 0)"/>
     <use xlink:href="#DejaVuSans-Bold-26" transform="translate(1835.640625 0)"/>
     <use xlink:href="#DejaVuSans-Bold-19" transform="translate(1909.03125 0)"/>
     <use xlink:href="#DejaVuSans-Bold-3" transform="translate(1978.609375 0)"/>
     <use xlink:href="#DejaVuSans-Bold-e" transform="translate(2013.421875 0)"/>
     <use xlink:href="#DejaVuSans-Bold-3" transform="translate(2097.21875 0)"/>
     <use xlink:href="#DejaVuSans-Bold-37" transform="translate(2132.03125 0)"/>
     <use xlink:href="#DejaVuSans-Bold-35" transform="translate(2200.25 0)"/>
     <use xlink:href="#DejaVuSans-Bold-33" transform="translate(2277.25 0)"/>
     <use xlink:href="#DejaVuSans-Bold-26" transform="translate(2350.546875 0)"/>
     <use xlink:href="#DejaVuSans-Bold-14" transform="translate(2423.9375 0)"/>
     <use xlink:href="#DejaVuSans-Bold-3" transform="translate(2493.515625 0)"/>
     <use xlink:href="#DejaVuSans-Bold-e" transform="translate(2528.328125 0)"/>
     <use xlink:href="#DejaVuSans-Bold-3" transform="translate(2612.125 0)"/>
     <use xlink:href="#DejaVuSans-Bold-32" transform="translate(2646.9375 0)"/>
     <use xlink:href="#DejaVuSans-Bold-35" transform="translate(2731.953125 0)"/>
     <use xlink:href="#DejaVuSans-Bold-24" transform="translate(2808.953125 0)"/>
     <use xlink:href="#DejaVuSans-Bold-2c" transform="translate(2886.34375 0)"/>
     <use xlink:href="#DejaVuSans-Bold-14" transform="translate(2923.546875 0)"/>
     <use xlink:href="#DejaVuSans-Bold-c" transform="translate(2993.125 0)"/>
    </g>
   </g>
   <g id="legend_1">
    <g id="patch_8">
     <path d="M 53.104063 378.873437 
L 176.779063 378.873437 
Q 178.779063 378.873437 178.779063 376.873437 
L 178.779063 347.871875 
Q 178.779063 345.871875 176.779063 345.871875 
L 53.104063 345.871875 
Q 51.104063 345.871875 51.104063 347.871875 
L 51.104063 376.873437 
Q 51.104063 378.873437 53.104063 378.873437 
z
" style="fill: #ffffff; opacity: 0.8; stroke: #cccccc; stroke-linejoin: miter"/>
    </g>
    <g id="line2d_16">
     <path d="M 55.104063 353.970312 
L 65.104063 353.970312 
L 65.104063 353.970312 
L 75.104063 353.970312 
L 75.104063 353.970312 
" style="fill: none; stroke: #c0392b; stroke-width: 1.5; stroke-linecap: square"/>
    </g>
    <g id="text_18">
     <!-- High Risk (n=186) -->
     <g transform="translate(83.104063 357.470312) scale(0.1 -0.1)">
      <defs>
       <path id="DejaVuSans-2b" d="M 628 4666 
L 1259 4666 
L 1259 2753 
L 3553 2753 
L 3553 4666 
L 4184 4666 
L 4184 0 
L 3553 0 
L 3553 2222 
L 1259 2222 
L 1259 0 
L 628 0 
L 628 4666 
z
" transform="scale(0.015625)"/>
       <path id="DejaVuSans-4a" d="M 2906 1791 
Q 2906 2416 2648 2759 
Q 2391 3103 1925 3103 
Q 1463 3103 1205 2759 
Q 947 2416 947 1791 
Q 947 1169 1205 825 
Q 1463 481 1925 481 
Q 2391 481 2648 825 
Q 2906 1169 2906 1791 
z
M 3481 434 
Q 3481 -459 3084 -895 
Q 2688 -1331 1869 -1331 
Q 1566 -1331 1297 -1286 
Q 1028 -1241 775 -1147 
L 775 -588 
Q 1028 -725 1275 -790 
Q 1522 -856 1778 -856 
Q 2344 -856 2625 -561 
Q 2906 -266 2906 331 
L 2906 616 
Q 2728 306 2450 153 
Q 2172 0 1784 0 
Q 1141 0 747 490 
Q 353 981 353 1791 
Q 353 2603 747 3093 
Q 1141 3584 1784 3584 
Q 2172 3584 2450 3431 
Q 2728 3278 2906 2969 
L 2906 3500 
L 3481 3500 
L 3481 434 
z
" transform="scale(0.015625)"/>
       <path id="DejaVuSans-35" d="M 2841 2188 
Q 3044 2119 3236 1894 
Q 3428 1669 3622 1275 
L 4263 0 
L 3584 0 
L 2988 1197 
Q 2756 1666 2539 1819 
Q 2322 1972 1947 1972 
L 1259 1972 
L 1259 0 
L 628 0 
L 628 4666 
L 2053 4666 
Q 2853 4666 3247 4331 
Q 3641 3997 3641 3322 
Q 3641 2881 3436 2590 
Q 3231 2300 2841 2188 
z
M 1259 4147 
L 1259 2491 
L 2053 2491 
Q 2509 2491 2742 2702 
Q 2975 2913 2975 3322 
Q 2975 3731 2742 3939 
Q 2509 4147 2053 4147 
L 1259 4147 
z
" transform="scale(0.015625)"/>
       <path id="DejaVuSans-4e" d="M 581 4863 
L 1159 4863 
L 1159 1991 
L 2875 3500 
L 3609 3500 
L 1753 1863 
L 3688 0 
L 2938 0 
L 1159 1709 
L 1159 0 
L 581 0 
L 581 4863 
z
" transform="scale(0.015625)"/>
       <path id="DejaVuSans-b" d="M 1984 4856 
Q 1566 4138 1362 3434 
Q 1159 2731 1159 2009 
Q 1159 1288 1364 580 
Q 1569 -128 1984 -844 
L 1484 -844 
Q 1016 -109 783 600 
Q 550 1309 550 2009 
Q 550 2706 781 3412 
Q 1013 4119 1484 4856 
L 1984 4856 
z
" transform="scale(0.015625)"/>
       <path id="DejaVuSans-c" d="M 513 4856 
L 1013 4856 
Q 1481 4119 1714 3412 
Q 1947 2706 1947 2009 
Q 1947 1309 1714 600 
Q 1481 -109 1013 -844 
L 513 -844 
Q 928 -128 1133 580 
Q 1338 1288 1338 2009 
Q 1338 2731 1133 3434 
Q 928 4138 513 4856 
z
" transform="scale(0.015625)"/>
      </defs>
      <use xlink:href="#DejaVuSans-2b"/>
      <use xlink:href="#DejaVuSans-4c" transform="translate(75.203125 0)"/>
      <use xlink:href="#DejaVuSans-4a" transform="translate(102.984375 0)"/>
      <use xlink:href="#DejaVuSans-4b" transform="translate(166.46875 0)"/>
      <use xlink:href="#DejaVuSans-3" transform="translate(229.84375 0)"/>
      <use xlink:href="#DejaVuSans-35" transform="translate(261.625 0)"/>
      <use xlink:href="#DejaVuSans-4c" transform="translate(331.109375 0)"/>
      <use xlink:href="#DejaVuSans-56" transform="translate(358.890625 0)"/>
      <use xlink:href="#DejaVuSans-4e" transform="translate(410.984375 0)"/>
      <use xlink:href="#DejaVuSans-3" transform="translate(468.890625 0)"/>
      <use xlink:href="#DejaVuSans-b" transform="translate(500.671875 0)"/>
      <use xlink:href="#DejaVuSans-51" transform="translate(539.6875 0)"/>
      <use xlink:href="#DejaVuSans-20" transform="translate(603.0625 0)"/>
      <use xlink:href="#DejaVuSans-14" transform="translate(686.859375 0)"/>
      <use xlink:href="#DejaVuSans-1b" transform="translate(750.484375 0)"/>
      <use xlink:href="#DejaVuSans-19" transform="translate(814.109375 0)"/>
      <use xlink:href="#DejaVuSans-c" transform="translate(877.734375 0)"/>
     </g>
    </g>
    <g id="line2d_17">
     <path d="M 55.104063 368.971094 
L 65.104063 368.971094 
L 65.104063 368.971094 
L 75.104063 368.971094 
L 75.104063 368.971094 
" style="fill: none; stroke: #2980b9; stroke-width: 1.5; stroke-linecap: square"/>
    </g>
    <g id="text_19">
     <!-- Low Risk  (n=186) -->
     <g transform="translate(83.104063 372.471094) scale(0.1 -0.1)">
      <defs>
       <path id="DejaVuSans-2f" d="M 628 4666 
L 1259 4666 
L 1259 531 
L 3531 531 
L 3531 0 
L 628 0 
L 628 4666 
z
" transform="scale(0.015625)"/>
       <path id="DejaVuSans-5a" d="M 269 3500 
L 844 3500 
L 1563 769 
L 2278 3500 
L 2956 3500 
L 3675 769 
L 4391 3500 
L 4966 3500 
L 4050 0 
L 3372 0 
L 2619 2869 
L 1863 0 
L 1184 0 
L 269 3500 
z
" transform="scale(0.015625)"/>
      </defs>
      <use xlink:href="#DejaVuSans-2f"/>
      <use xlink:href="#DejaVuSans-52" transform="translate(53.96875 0)"/>
      <use xlink:href="#DejaVuSans-5a" transform="translate(115.15625 0)"/>
      <use xlink:href="#DejaVuSans-3" transform="translate(196.9375 0)"/>
      <use xlink:href="#DejaVuSans-35" transform="translate(228.71875 0)"/>
      <use xlink:href="#DejaVuSans-4c" transform="translate(298.203125 0)"/>
      <use xlink:href="#DejaVuSans-56" transform="translate(325.984375 0)"/>
      <use xlink:href="#DejaVuSans-4e" transform="translate(378.078125 0)"/>
      <use xlink:href="#DejaVuSans-3" transform="translate(435.984375 0)"/>
      <use xlink:href="#DejaVuSans-3" transform="translate(467.765625 0)"/>
      <use xlink:href="#DejaVuSans-b" transform="translate(499.546875 0)"/>
      <use xlink:href="#DejaVuSans-51" transform="translate(538.5625 0)"/>
      <use xlink:href="#DejaVuSans-20" transform="translate(601.9375 0)"/>
      <use xlink:href="#DejaVuSans-14" transform="translate(685.734375 0)"/>
      <use xlink:href="#DejaVuSans-1b" transform="translate(749.359375 0)"/>
      <use xlink:href="#DejaVuSans-19" transform="translate(812.984375 0)"/>
      <use xlink:href="#DejaVuSans-c" transform="translate(876.609375 0)"/>
     </g>
    </g>
   </g>
  </g>
 </g>
 <defs>
  <clipPath id="p5cceb66280">
   <rect x="46.104063" y="37.922578" width="587.317187" height="345.950859"/>
  </clipPath>
 </defs>
</svg>
