<?xml version="1.0" encoding="utf-8" standalone="no"?>
<!DOCTYPE svg PUBLIC "-//W3C//DTD SVG 1.1//EN"
  "http://www.w3.org/Graphics/SVG/1.1/DTD/svg11.dtd">
<svg xmlns:xlink="http://www.w3.org/1999/xlink" width="1144.8pt" height="928.395937pt" viewBox="0 0 1144.8 928.395937" xmlns="http://www.w3.org/2000/svg" version="1.1">
 <metadata>
  <rdf:RDF xmlns:dc="http://purl.org/dc/elements/1.1/" xmlns:cc="http://creativecommons.org/ns#" xmlns:rdf="http://www.w3.org/1999/02/22-rdf-syntax-ns#">
   <cc:Work>
    <dc:type rdf:resource="http://purl.org/dc/dcmitype/StillImage"/>
    <dc:date>2026-07-04T18:29:08.607662</dc:date>
    <dc:format>image/svg+xml</dc:format>
    <dc:creator>
     <cc:Agent>
      <dc:title>Matplotlib v3.11.0, https://matplotlib.org/</dc:title>
     </cc:Agent>
    </dc:creator>
   </cc:Work>
  </rdf:RDF>
 </metadata>
 <defs>
  <style type="text/css">*{stroke-linejoin: round; stroke-linecap: butt}</style>
 </defs>
 <g id="figure_1">
  <g id="patch_1">
   <path d="M 0 928.395937 
L 1144.8 928.395937 
L 1144.8 0 
L 0 0 
z
" style="fill: #ffffff"/>
  </g>
  <g id="axes_1">
   <g id="LineCollection_1">
    <path d="M 574.652058 635.357219 
L 1022.436627 606.164553 
" clip-path="url(#p5680825c57)" style="fill: none; stroke: #f7fbff; stroke-opacity: 0.55; stroke-width: 0.00168"/>
    <path d="M 574.652058 635.357219 
L 808.280234 361.412375 
" clip-path="url(#p5680825c57)" style="fill: none; stroke: #e9f2fa; stroke-opacity: 0.55; stroke-width: 0.001844"/>
    <path d="M 574.652058 635.357219 
L 571.663696 844.727028 
" clip-path="url(#p5680825c57)" style="fill: none; stroke: #e4eff9; stroke-opacity: 0.55; stroke-width: 0.001904"/>
    <path d="M 574.652058 635.357219 
L 129.838505 420.709857 
" clip-path="url(#p5680825c57)" style="fill: none; stroke: #e0ecf8; stroke-opacity: 0.55; stroke-width: 0.001948"/>
    <path d="M 574.652058 635.357219 
L 105.292562 569.680845 
" clip-path="url(#p5680825c57)" style="fill: none; stroke: #dfecf7; stroke-opacity: 0.55; stroke-width: 0.001952"/>
    <path d="M 574.652058 635.357219 
L 230.639925 803.916589 
" clip-path="url(#p5680825c57)" style="fill: none; stroke: #dfecf7; stroke-opacity: 0.55; stroke-width: 0.00196"/>
    <path d="M 574.652058 635.357219 
L 1039.507438 294.582614 
" clip-path="url(#p5680825c57)" style="fill: none; stroke: #b8d5ea; stroke-opacity: 0.55; stroke-width: 0.00236"/>
    <path d="M 574.652058 635.357219 
L 442.39321 499.654296 
" clip-path="url(#p5680825c57)" style="fill: none; stroke: #549fcd; stroke-opacity: 0.55; stroke-width: 0.002996"/>
    <path d="M 574.652058 635.357219 
L 487.514873 304.335278 
" clip-path="url(#p5680825c57)" style="fill: none; stroke: #2373b6; stroke-opacity: 0.55; stroke-width: 0.003392"/>
    <path d="M 574.652058 635.357219 
L 1039.35636 809.433438 
" clip-path="url(#p5680825c57)" style="fill: none; stroke: #2171b5; stroke-opacity: 0.55; stroke-width: 0.003408"/>
    <path d="M 574.652058 635.357219 
L 698.764391 116.451702 
" clip-path="url(#p5680825c57)" style="fill: none; stroke: #1b69af; stroke-opacity: 0.55; stroke-width: 0.003484"/>
    <path d="M 574.652058 635.357219 
L 207.899726 195.357452 
" clip-path="url(#p5680825c57)" style="fill: none; stroke: #084990; stroke-opacity: 0.55; stroke-width: 0.003772"/>
    <path d="M 1022.436627 606.164553 
L 571.663696 844.727028 
" clip-path="url(#p5680825c57)" style="fill: none; stroke: #08306b; stroke-opacity: 0.55; stroke-width: 0.003988"/>
    <path d="M 1022.436627 606.164553 
L 129.838505 420.709857 
" clip-path="url(#p5680825c57)" style="fill: none; stroke: #2e7ebc; stroke-opacity: 0.55; stroke-width: 0.0033"/>
    <path d="M 1022.436627 606.164553 
L 698.764391 116.451702 
" clip-path="url(#p5680825c57)" style="fill: none; stroke: #3484bf; stroke-opacity: 0.55; stroke-width: 0.003252"/>
    <path d="M 1022.436627 606.164553 
L 487.514873 304.335278 
" clip-path="url(#p5680825c57)" style="fill: none; stroke: #5ca4d0; stroke-opacity: 0.55; stroke-width: 0.002944"/>
    <path d="M 1022.436627 606.164553 
L 808.280234 361.412375 
" clip-path="url(#p5680825c57)" style="fill: none; stroke: #2e7ebc; stroke-opacity: 0.55; stroke-width: 0.0033"/>
    <path d="M 1022.436627 606.164553 
L 442.39321 499.654296 
" clip-path="url(#p5680825c57)" style="fill: none; stroke: #7cb7da; stroke-opacity: 0.55; stroke-width: 0.00274"/>
    <path d="M 1022.436627 606.164553 
L 207.899726 195.357452 
" clip-path="url(#p5680825c57)" style="fill: none; stroke: #083370; stroke-opacity: 0.55; stroke-width: 0.00396"/>
    <path d="M 1022.436627 606.164553 
L 714.240472 563.817843 
" clip-path="url(#p5680825c57)" style="fill: none; stroke: #dbe9f6; stroke-opacity: 0.55; stroke-width: 0.002008"/>
    <path d="M 1022.436627 606.164553 
L 230.639925 803.916589 
" clip-path="url(#p5680825c57)" style="fill: none; stroke: #3282be; stroke-opacity: 0.55; stroke-width: 0.003264"/>
    <path d="M 1022.436627 606.164553 
L 1039.35636 809.433438 
" clip-path="url(#p5680825c57)" style="fill: none; stroke: #08306b; stroke-opacity: 0.55; stroke-width: 0.003996"/>
    <path d="M 1022.436627 606.164553 
L 1039.507438 294.582614 
" clip-path="url(#p5680825c57)" style="fill: none; stroke: #083c7d; stroke-opacity: 0.55; stroke-width: 0.003884"/>
    <path d="M 1022.436627 606.164553 
L 105.292562 569.680845 
" clip-path="url(#p5680825c57)" style="fill: none; stroke: #1764ab; stroke-opacity: 0.55; stroke-width: 0.003532"/>
    <path d="M 808.280234 361.412375 
L 571.663696 844.727028 
" clip-path="url(#p5680825c57)" style="fill: none; stroke: #4292c6; stroke-opacity: 0.55; stroke-width: 0.003124"/>
    <path d="M 808.280234 361.412375 
L 129.838505 420.709857 
" clip-path="url(#p5680825c57)" style="fill: none; stroke: #08306b; stroke-opacity: 0.55; stroke-width: 0.003992"/>
    <path d="M 808.280234 361.412375 
L 698.764391 116.451702 
" clip-path="url(#p5680825c57)" style="fill: none; stroke: #083776; stroke-opacity: 0.55; stroke-width: 0.003932"/>
    <path d="M 808.280234 361.412375 
L 487.514873 304.335278 
" clip-path="url(#p5680825c57)" style="fill: none; stroke: #f7fbff; stroke-opacity: 0.55; stroke-width: 0.001688"/>
    <path d="M 808.280234 361.412375 
L 442.39321 499.654296 
" clip-path="url(#p5680825c57)" style="fill: none; stroke: #e7f0fa; stroke-opacity: 0.55; stroke-width: 0.001872"/>
    <path d="M 808.280234 361.412375 
L 714.240472 563.817843 
" clip-path="url(#p5680825c57)" style="fill: none; stroke: #8dc1dd; stroke-opacity: 0.55; stroke-width: 0.002648"/>
    <path d="M 808.280234 361.412375 
L 207.899726 195.357452 
" clip-path="url(#p5680825c57)" style="fill: none; stroke: #0f5aa3; stroke-opacity: 0.55; stroke-width: 0.00362"/>
    <path d="M 808.280234 361.412375 
L 1039.35636 809.433438 
" clip-path="url(#p5680825c57)" style="fill: none; stroke: #084082; stroke-opacity: 0.55; stroke-width: 0.003852"/>
    <path d="M 808.280234 361.412375 
L 105.292562 569.680845 
" clip-path="url(#p5680825c57)" style="fill: none; stroke: #08326e; stroke-opacity: 0.55; stroke-width: 0.003976"/>
    <path d="M 808.280234 361.412375 
L 1039.507438 294.582614 
" clip-path="url(#p5680825c57)" style="fill: none; stroke: #08306b; stroke-opacity: 0.55; stroke-width: 0.003996"/>
    <path d="M 808.280234 361.412375 
L 230.639925 803.916589 
" clip-path="url(#p5680825c57)" style="fill: none; stroke: #08306b; stroke-opacity: 0.55; stroke-width: 0.003996"/>
    <path d="M 571.663696 844.727028 
L 714.240472 563.817843 
" clip-path="url(#p5680825c57)" style="fill: none; stroke: #ddeaf7; stroke-opacity: 0.55; stroke-width: 0.00198"/>
    <path d="M 571.663696 844.727028 
L 442.39321 499.654296 
" clip-path="url(#p5680825c57)" style="fill: none; stroke: #92c4de; stroke-opacity: 0.55; stroke-width: 0.002616"/>
    <path d="M 571.663696 844.727028 
L 487.514873 304.335278 
" clip-path="url(#p5680825c57)" style="fill: none; stroke: #65aad4; stroke-opacity: 0.55; stroke-width: 0.00288"/>
    <path d="M 571.663696 844.727028 
L 230.639925 803.916589 
" clip-path="url(#p5680825c57)" style="fill: none; stroke: #4f9bcb; stroke-opacity: 0.55; stroke-width: 0.003032"/>
    <path d="M 571.663696 844.727028 
L 105.292562 569.680845 
" clip-path="url(#p5680825c57)" style="fill: none; stroke: #4a98c9; stroke-opacity: 0.55; stroke-width: 0.003068"/>
    <path d="M 571.663696 844.727028 
L 129.838505 420.709857 
" clip-path="url(#p5680825c57)" style="fill: none; stroke: #3d8dc4; stroke-opacity: 0.55; stroke-width: 0.003164"/>
    <path d="M 571.663696 844.727028 
L 698.764391 116.451702 
" clip-path="url(#p5680825c57)" style="fill: none; stroke: #1b69af; stroke-opacity: 0.55; stroke-width: 0.003488"/>
    <path d="M 571.663696 844.727028 
L 207.899726 195.357452 
" clip-path="url(#p5680825c57)" style="fill: none; stroke: #084387; stroke-opacity: 0.55; stroke-width: 0.003832"/>
    <path d="M 571.663696 844.727028 
L 1039.507438 294.582614 
" clip-path="url(#p5680825c57)" style="fill: none; stroke: #083b7c; stroke-opacity: 0.55; stroke-width: 0.003892"/>
    <path d="M 571.663696 844.727028 
L 1039.35636 809.433438 
" clip-path="url(#p5680825c57)" style="fill: none; stroke: #08306b; stroke-opacity: 0.55; stroke-width: 0.003996"/>
    <path d="M 129.838505 420.709857 
L 487.514873 304.335278 
" clip-path="url(#p5680825c57)" style="fill: none; stroke: #e8f1fa; stroke-opacity: 0.55; stroke-width: 0.00186"/>
    <path d="M 129.838505 420.709857 
L 442.39321 499.654296 
" clip-path="url(#p5680825c57)" style="fill: none; stroke: #b5d4e9; stroke-opacity: 0.55; stroke-width: 0.00238"/>
    <path d="M 129.838505 420.709857 
L 714.240472 563.817843 
" clip-path="url(#p5680825c57)" style="fill: none; stroke: #8abfdd; stroke-opacity: 0.55; stroke-width: 0.00266"/>
    <path d="M 129.838505 420.709857 
L 698.764391 116.451702 
" clip-path="url(#p5680825c57)" style="fill: none; stroke: #2f7fbc; stroke-opacity: 0.55; stroke-width: 0.003292"/>
    <path d="M 129.838505 420.709857 
L 1039.35636 809.433438 
" clip-path="url(#p5680825c57)" style="fill: none; stroke: #115ca5; stroke-opacity: 0.55; stroke-width: 0.003604"/>
    <path d="M 129.838505 420.709857 
L 207.899726 195.357452 
" clip-path="url(#p5680825c57)" style="fill: none; stroke: #08478d; stroke-opacity: 0.55; stroke-width: 0.003792"/>
    <path d="M 129.838505 420.709857 
L 105.292562 569.680845 
" clip-path="url(#p5680825c57)" style="fill: none; stroke: #08306b; stroke-opacity: 0.55; stroke-width: 0.003992"/>
    <path d="M 129.838505 420.709857 
L 230.639925 803.916589 
" clip-path="url(#p5680825c57)" style="fill: none; stroke: #08306b; stroke-opacity: 0.55; stroke-width: 0.003996"/>
    <path d="M 129.838505 420.709857 
L 1039.507438 294.582614 
" clip-path="url(#p5680825c57)" style="fill: none; stroke: #08306b; stroke-opacity: 0.55; stroke-width: 0.003996"/>
    <path d="M 105.292562 569.680845 
L 698.764391 116.451702 
" clip-path="url(#p5680825c57)" style="fill: none; stroke: #3888c1; stroke-opacity: 0.55; stroke-width: 0.003216"/>
    <path d="M 105.292562 569.680845 
L 487.514873 304.335278 
" clip-path="url(#p5680825c57)" style="fill: none; stroke: #e8f1fa; stroke-opacity: 0.55; stroke-width: 0.001856"/>
    <path d="M 105.292562 569.680845 
L 442.39321 499.654296 
" clip-path="url(#p5680825c57)" style="fill: none; stroke: #bad6eb; stroke-opacity: 0.55; stroke-width: 0.002348"/>
    <path d="M 105.292562 569.680845 
L 207.899726 195.357452 
" clip-path="url(#p5680825c57)" style="fill: none; stroke: #084a91; stroke-opacity: 0.55; stroke-width: 0.003764"/>
    <path d="M 105.292562 569.680845 
L 714.240472 563.817843 
" clip-path="url(#p5680825c57)" style="fill: none; stroke: #72b2d8; stroke-opacity: 0.55; stroke-width: 0.0028"/>
    <path d="M 105.292562 569.680845 
L 230.639925 803.916589 
" clip-path="url(#p5680825c57)" style="fill: none; stroke: #08306b; stroke-opacity: 0.55; stroke-width: 0.003996"/>
    <path d="M 105.292562 569.680845 
L 1039.35636 809.433438 
" clip-path="url(#p5680825c57)" style="fill: none; stroke: #08316d; stroke-opacity: 0.55; stroke-width: 0.003984"/>
    <path d="M 105.292562 569.680845 
L 1039.507438 294.582614 
" clip-path="url(#p5680825c57)" style="fill: none; stroke: #08306b; stroke-opacity: 0.55; stroke-width: 0.003996"/>
    <path d="M 230.639925 803.916589 
L 698.764391 116.451702 
" clip-path="url(#p5680825c57)" style="fill: none; stroke: #1663aa; stroke-opacity: 0.55; stroke-width: 0.00354"/>
    <path d="M 230.639925 803.916589 
L 442.39321 499.654296 
" clip-path="url(#p5680825c57)" style="fill: none; stroke: #e2edf8; stroke-opacity: 0.55; stroke-width: 0.001932"/>
    <path d="M 230.639925 803.916589 
L 207.899726 195.357452 
" clip-path="url(#p5680825c57)" style="fill: none; stroke: #1967ad; stroke-opacity: 0.55; stroke-width: 0.003504"/>
    <path d="M 230.639925 803.916589 
L 714.240472 563.817843 
" clip-path="url(#p5680825c57)" style="fill: none; stroke: #87bddc; stroke-opacity: 0.55; stroke-width: 0.00268"/>
    <path d="M 230.639925 803.916589 
L 1039.35636 809.433438 
" clip-path="url(#p5680825c57)" style="fill: none; stroke: #084c95; stroke-opacity: 0.55; stroke-width: 0.003744"/>
    <path d="M 230.639925 803.916589 
L 1039.507438 294.582614 
" clip-path="url(#p5680825c57)" style="fill: none; stroke: #083573; stroke-opacity: 0.55; stroke-width: 0.003948"/>
    <path d="M 1039.507438 294.582614 
L 698.764391 116.451702 
" clip-path="url(#p5680825c57)" style="fill: none; stroke: #083c7d; stroke-opacity: 0.55; stroke-width: 0.003884"/>
    <path d="M 1039.507438 294.582614 
L 487.514873 304.335278 
" clip-path="url(#p5680825c57)" style="fill: none; stroke: #d7e6f5; stroke-opacity: 0.55; stroke-width: 0.002056"/>
    <path d="M 1039.507438 294.582614 
L 442.39321 499.654296 
" clip-path="url(#p5680825c57)" style="fill: none; stroke: #b3d3e8; stroke-opacity: 0.55; stroke-width: 0.0024"/>
    <path d="M 1039.507438 294.582614 
L 207.899726 195.357452 
" clip-path="url(#p5680825c57)" style="fill: none; stroke: #084488; stroke-opacity: 0.55; stroke-width: 0.00382"/>
    <path d="M 1039.507438 294.582614 
L 714.240472 563.817843 
" clip-path="url(#p5680825c57)" style="fill: none; stroke: #60a7d2; stroke-opacity: 0.55; stroke-width: 0.002912"/>
    <path d="M 1039.507438 294.582614 
L 1039.35636 809.433438 
" clip-path="url(#p5680825c57)" style="fill: none; stroke: #08306b; stroke-opacity: 0.55; stroke-width: 0.003996"/>
    <path d="M 442.39321 499.654296 
L 698.764391 116.451702 
" clip-path="url(#p5680825c57)" style="fill: none; stroke: #65aad4; stroke-opacity: 0.55; stroke-width: 0.00288"/>
    <path d="M 442.39321 499.654296 
L 714.240472 563.817843 
" clip-path="url(#p5680825c57)" style="fill: none; stroke: #add0e6; stroke-opacity: 0.55; stroke-width: 0.002448"/>
    <path d="M 442.39321 499.654296 
L 207.899726 195.357452 
" clip-path="url(#p5680825c57)" style="fill: none; stroke: #75b4d8; stroke-opacity: 0.55; stroke-width: 0.00278"/>
    <path d="M 442.39321 499.654296 
L 1039.35636 809.433438 
" clip-path="url(#p5680825c57)" style="fill: none; stroke: #2575b7; stroke-opacity: 0.55; stroke-width: 0.003376"/>
    <path d="M 487.514873 304.335278 
L 698.764391 116.451702 
" clip-path="url(#p5680825c57)" style="fill: none; stroke: #4e9acb; stroke-opacity: 0.55; stroke-width: 0.003044"/>
    <path d="M 487.514873 304.335278 
L 207.899726 195.357452 
" clip-path="url(#p5680825c57)" style="fill: none; stroke: #57a0ce; stroke-opacity: 0.55; stroke-width: 0.00298"/>
    <path d="M 487.514873 304.335278 
L 1039.35636 809.433438 
" clip-path="url(#p5680825c57)" style="fill: none; stroke: #2575b7; stroke-opacity: 0.55; stroke-width: 0.003376"/>
    <path d="M 487.514873 304.335278 
L 714.240472 563.817843 
" clip-path="url(#p5680825c57)" style="fill: none; stroke: #084082; stroke-opacity: 0.55; stroke-width: 0.003852"/>
    <path d="M 1039.35636 809.433438 
L 698.764391 116.451702 
" clip-path="url(#p5680825c57)" style="fill: none; stroke: #084b93; stroke-opacity: 0.55; stroke-width: 0.003756"/>
    <path d="M 1039.35636 809.433438 
L 207.899726 195.357452 
" clip-path="url(#p5680825c57)" style="fill: none; stroke: #083776; stroke-opacity: 0.55; stroke-width: 0.003924"/>
    <path d="M 1039.35636 809.433438 
L 714.240472 563.817843 
" clip-path="url(#p5680825c57)" style="fill: none; stroke: #dceaf6; stroke-opacity: 0.55; stroke-width: 0.001996"/>
    <path d="M 698.764391 116.451702 
L 714.240472 563.817843 
" clip-path="url(#p5680825c57)" style="fill: none; stroke: #7ab6d9; stroke-opacity: 0.55; stroke-width: 0.002752"/>
    <path d="M 698.764391 116.451702 
L 207.899726 195.357452 
" clip-path="url(#p5680825c57)" style="fill: none; stroke: #08458a; stroke-opacity: 0.55; stroke-width: 0.003808"/>
    <path d="M 207.899726 195.357452 
L 714.240472 563.817843 
" clip-path="url(#p5680825c57)" style="fill: none; stroke: #dae8f6; stroke-opacity: 0.55; stroke-width: 0.002016"/>
   </g>
   <g id="PathCollection_1">
    <path d="M 574.652058 654.235034 
C 579.658513 654.235034 584.46059 652.245949 588.000689 648.70585 
C 591.540787 645.165752 593.529873 640.363674 593.529873 635.357219 
C 593.529873 630.350764 591.540787 625.548686 588.000689 622.008588 
C 584.46059 618.468489 579.658513 616.479404 574.652058 616.479404 
C 569.645602 616.479404 564.843525 618.468489 561.303426 622.008588 
C 557.763328 625.548686 555.774242 630.350764 555.774242 635.357219 
C 555.774242 640.363674 557.763328 645.165752 561.303426 648.70585 
C 564.843525 652.245949 569.645602 654.235034 574.652058 654.235034 
z
" clip-path="url(#p5680825c57)" style="fill: #95a5a6; fill-opacity: 0.88"/>
    <path d="M 1022.436627 617.887126 
C 1025.54549 617.887126 1028.52744 616.651962 1030.725738 614.453664 
C 1032.924036 612.255366 1034.1592 609.273415 1034.1592 606.164553 
C 1034.1592 603.05569 1032.924036 600.073739 1030.725738 597.875442 
C 1028.52744 595.677144 1025.54549 594.441979 1022.436627 594.441979 
C 1019.327764 594.441979 1016.345814 595.677144 1014.147516 597.875442 
C 1011.949218 600.073739 1010.714054 603.05569 1010.714054 606.164553 
C 1010.714054 609.273415 1011.949218 612.255366 1014.147516 614.453664 
C 1016.345814 616.651962 1019.327764 617.887126 1022.436627 617.887126 
z
" clip-path="url(#p5680825c57)" style="fill: #95a5a6; fill-opacity: 0.88"/>
    <path d="M 808.280234 373.134948 
C 811.389097 373.134948 814.371047 371.899784 816.569345 369.701486 
C 818.767643 367.503188 820.002807 364.521238 820.002807 361.412375 
C 820.002807 358.303512 818.767643 355.321562 816.569345 353.123264 
C 814.371047 350.924966 811.389097 349.689802 808.280234 349.689802 
C 805.171371 349.689802 802.189421 350.924966 799.991123 353.123264 
C 797.792825 355.321562 796.55766 358.303512 796.55766 361.412375 
C 796.55766 364.521238 797.792825 367.503188 799.991123 369.701486 
C 802.189421 371.899784 805.171371 373.134948 808.280234 373.134948 
z
" clip-path="url(#p5680825c57)" style="fill: #e74c3c; fill-opacity: 0.88"/>
    <path d="M 571.663696 853.387282 
C 573.960422 853.387282 576.16339 852.474783 577.78742 850.850753 
C 579.411451 849.226722 580.32395 847.023754 580.32395 844.727028 
C 580.32395 842.430302 579.411451 840.227335 577.78742 838.603304 
C 576.16339 836.979273 573.960422 836.066774 571.663696 836.066774 
C 569.36697 836.066774 567.164002 836.979273 565.539971 838.603304 
C 563.915941 840.227335 563.003442 842.430302 563.003442 844.727028 
C 563.003442 847.023754 563.915941 849.226722 565.539971 850.850753 
C 567.164002 852.474783 569.36697 853.387282 571.663696 853.387282 
z
" clip-path="url(#p5680825c57)" style="fill: #95a5a6; fill-opacity: 0.88"/>
    <path d="M 129.838505 429.370111 
C 132.135231 429.370111 134.338198 428.457612 135.962229 426.833581 
C 137.58626 425.20955 138.498759 423.006583 138.498759 420.709857 
C 138.498759 418.41313 137.58626 416.210163 135.962229 414.586132 
C 134.338198 412.962101 132.135231 412.049602 129.838505 412.049602 
C 127.541778 412.049602 125.338811 412.962101 123.71478 414.586132 
C 122.09075 416.210163 121.178251 418.41313 121.178251 420.709857 
C 121.178251 423.006583 122.09075 425.20955 123.71478 426.833581 
C 125.338811 428.457612 127.541778 429.370111 129.838505 429.370111 
z
" clip-path="url(#p5680825c57)" style="fill: #e74c3c; fill-opacity: 0.88"/>
    <path d="M 105.292562 578.341099 
C 107.589288 578.341099 109.792256 577.4286 111.416286 575.804569 
C 113.040317 574.180538 113.952816 571.977571 113.952816 569.680845 
C 113.952816 567.384118 113.040317 565.181151 111.416286 563.55712 
C 109.792256 561.933089 107.589288 561.02059 105.292562 561.02059 
C 102.995836 561.02059 100.792868 561.933089 99.168838 563.55712 
C 97.544807 565.181151 96.632308 567.384118 96.632308 569.680845 
C 96.632308 571.977571 97.544807 574.180538 99.168838 575.804569 
C 100.792868 577.4286 102.995836 578.341099 105.292562 578.341099 
z
" clip-path="url(#p5680825c57)" style="fill: #e74c3c; fill-opacity: 0.88; stroke: #000000; stroke-opacity: 0.88; stroke-width: 2.5"/>
    <path d="M 230.639925 812.576843 
C 232.936652 812.576843 235.139619 811.664344 236.76365 810.040314 
C 238.38768 808.416283 239.300179 806.213316 239.300179 803.916589 
C 239.300179 801.619863 238.38768 799.416896 236.76365 797.792865 
C 235.139619 796.168834 232.936652 795.256335 230.639925 795.256335 
C 228.343199 795.256335 226.140232 796.168834 224.516201 797.792865 
C 222.89217 799.416896 221.979671 801.619863 221.979671 803.916589 
C 221.979671 806.213316 222.89217 808.416283 224.516201 810.040314 
C 226.140232 811.664344 228.343199 812.576843 230.639925 812.576843 
z
" clip-path="url(#p5680825c57)" style="fill: #e74c3c; fill-opacity: 0.88"/>
    <path d="M 1039.507438 303.242868 
C 1041.804164 303.242868 1044.007132 302.330369 1045.631162 300.706338 
C 1047.255193 299.082308 1048.167692 296.87934 1048.167692 294.582614 
C 1048.167692 292.285888 1047.255193 290.08292 1045.631162 288.45889 
C 1044.007132 286.834859 1041.804164 285.92236 1039.507438 285.92236 
C 1037.210712 285.92236 1035.007744 286.834859 1033.383714 288.45889 
C 1031.759683 290.08292 1030.847184 292.285888 1030.847184 294.582614 
C 1030.847184 296.87934 1031.759683 299.082308 1033.383714 300.706338 
C 1035.007744 302.330369 1037.210712 303.242868 1039.507438 303.242868 
z
" clip-path="url(#p5680825c57)" style="fill: #e74c3c; fill-opacity: 0.88; stroke: #000000; stroke-opacity: 0.88; stroke-width: 2.5"/>
    <path d="M 442.39321 509.960089 
C 445.126338 509.960089 447.747892 508.874205 449.680506 506.941592 
C 451.613119 505.008978 452.699003 502.387424 452.699003 499.654296 
C 452.699003 496.921168 451.613119 494.299613 449.680506 492.367 
C 447.747892 490.434387 445.126338 489.348503 442.39321 489.348503 
C 439.660082 489.348503 437.038527 490.434387 435.105914 492.367 
C 433.173301 494.299613 432.087417 496.921168 432.087417 499.654296 
C 432.087417 502.387424 433.173301 505.008978 435.105914 506.941592 
C 437.038527 508.874205 439.660082 509.960089 442.39321 509.960089 
z
" clip-path="url(#p5680825c57)" style="fill: #95a5a6; fill-opacity: 0.88"/>
    <path d="M 487.514873 325.548482 
C 493.14068 325.548482 498.536826 323.313325 502.514873 319.335278 
C 506.492919 315.357232 508.728076 309.961086 508.728076 304.335278 
C 508.728076 298.709471 506.492919 293.313325 502.514873 289.335278 
C 498.536826 285.357232 493.14068 283.122075 487.514873 283.122075 
C 481.889066 283.122075 476.492919 285.357232 472.514873 289.335278 
C 468.536826 293.313325 466.301669 298.709471 466.301669 304.335278 
C 466.301669 309.961086 468.536826 315.357232 472.514873 319.335278 
C 476.492919 323.313325 481.889066 325.548482 487.514873 325.548482 
z
" clip-path="url(#p5680825c57)" style="fill: #95a5a6; fill-opacity: 0.88"/>
    <path d="M 1039.35636 818.093692 
C 1041.653086 818.093692 1043.856054 817.181193 1045.480084 815.557162 
C 1047.104115 813.933132 1048.016614 811.730164 1048.016614 809.433438 
C 1048.016614 807.136712 1047.104115 804.933744 1045.480084 803.309714 
C 1043.856054 801.685683 1041.653086 800.773184 1039.35636 800.773184 
C 1037.059634 800.773184 1034.856666 801.685683 1033.232636 803.309714 
C 1031.608605 804.933744 1030.696106 807.136712 1030.696106 809.433438 
C 1030.696106 811.730164 1031.608605 813.933132 1033.232636 815.557162 
C 1034.856666 817.181193 1037.059634 818.093692 1039.35636 818.093692 
z
" clip-path="url(#p5680825c57)" style="fill: #e74c3c; fill-opacity: 0.88; stroke: #000000; stroke-opacity: 0.88; stroke-width: 2.5"/>
    <path d="M 698.764391 125.111956 
C 701.061117 125.111956 703.264084 124.199457 704.888115 122.575427 
C 706.512146 120.951396 707.424645 118.748428 707.424645 116.451702 
C 707.424645 114.154976 706.512146 111.952009 704.888115 110.327978 
C 703.264084 108.703947 701.061117 107.791448 698.764391 107.791448 
C 696.467664 107.791448 694.264697 108.703947 692.640666 110.327978 
C 691.016636 111.952009 690.104137 114.154976 690.104137 116.451702 
C 690.104137 118.748428 691.016636 120.951396 692.640666 122.575427 
C 694.264697 124.199457 696.467664 125.111956 698.764391 125.111956 
z
" clip-path="url(#p5680825c57)" style="fill: #e74c3c; fill-opacity: 0.88; stroke: #000000; stroke-opacity: 0.88; stroke-width: 2.5"/>
    <path d="M 207.899726 204.017706 
C 210.196452 204.017706 212.399419 203.105207 214.02345 201.481177 
C 215.647481 199.857146 216.55998 197.654179 216.55998 195.357452 
C 216.55998 193.060726 215.647481 190.857759 214.02345 189.233728 
C 212.399419 187.609697 210.196452 186.697198 207.899726 186.697198 
C 205.602999 186.697198 203.400032 187.609697 201.776001 189.233728 
C 200.151971 190.857759 199.239472 193.060726 199.239472 195.357452 
C 199.239472 197.654179 200.151971 199.857146 201.776001 201.481177 
C 203.400032 203.105207 205.602999 204.017706 207.899726 204.017706 
z
" clip-path="url(#p5680825c57)" style="fill: #95a5a6; fill-opacity: 0.88"/>
    <path d="M 714.240472 575.540416 
C 717.349334 575.540416 720.331285 574.305252 722.529583 572.106954 
C 724.727881 569.908656 725.963045 566.926706 725.963045 563.817843 
C 725.963045 560.70898 724.727881 557.72703 722.529583 555.528732 
C 720.331285 553.330434 717.349334 552.09527 714.240472 552.09527 
C 711.131609 552.09527 708.149658 553.330434 705.95136 555.528732 
C 703.753063 557.72703 702.517898 560.70898 702.517898 563.817843 
C 702.517898 566.926706 703.753063 569.908656 705.95136 572.106954 
C 708.149658 574.305252 711.131609 575.540416 714.240472 575.540416 
z
" clip-path="url(#p5680825c57)" style="fill: #95a5a6; fill-opacity: 0.88"/>
   </g>
   <g id="text_1">
    <g clip-path="url(#p5680825c57)">
     <!-- TRPM4 -->
     <g transform="translate(559.147683 637.435344) scale(0.08 -0.08)">
      <defs>
       <path id="DejaVuSans-Bold-37" d="M 31 4666 
L 4331 4666 
L 4331 3756 
L 2784 3756 
L 2784 0 
L 1581 0 
L 1581 3756 
L 31 3756 
L 31 4666 
z
" transform="scale(0.015625)"/>
       <path id="DejaVuSans-Bold-35" d="M 2297 2597 
Q 2675 2597 2839 2737 
Q 3003 2878 3003 3200 
Q 3003 3519 2839 3656 
Q 2675 3794 2297 3794 
L 1791 3794 
L 1791 2597 
L 2297 2597 
z
M 1791 1766 
L 1791 0 
L 588 0 
L 588 4666 
L 2425 4666 
Q 3347 4666 3776 4356 
Q 4206 4047 4206 3378 
Q 4206 2916 3982 2619 
Q 3759 2322 3309 2181 
Q 3556 2125 3751 1926 
Q 3947 1728 4147 1325 
L 4800 0 
L 3519 0 
L 2950 1159 
Q 2778 1509 2601 1637 
Q 2425 1766 2131 1766 
L 1791 1766 
z
" transform="scale(0.015625)"/>
       <path id="DejaVuSans-Bold-33" d="M 588 4666 
L 2584 4666 
Q 3475 4666 3951 4270 
Q 4428 3875 4428 3144 
Q 4428 2409 3951 2014 
Q 3475 1619 2584 1619 
L 1791 1619 
L 1791 0 
L 588 0 
L 588 4666 
z
M 1791 3794 
L 1791 2491 
L 2456 2491 
Q 2806 2491 2997 2661 
Q 3188 2831 3188 3144 
Q 3188 3456 2997 3625 
Q 2806 3794 2456 3794 
L 1791 3794 
z
" transform="scale(0.015625)"/>
       <path id="DejaVuSans-Bold-30" d="M 588 4666 
L 2119 4666 
L 3181 2169 
L 4250 4666 
L 5778 4666 
L 5778 0 
L 4641 0 
L 4641 3413 
L 3566 897 
L 2803 897 
L 1728 3413 
L 1728 0 
L 588 0 
L 588 4666 
z
" transform="scale(0.015625)"/>
       <path id="DejaVuSans-Bold-17" d="M 2356 3675 
L 1038 1722 
L 2356 1722 
L 2356 3675 
z
M 2156 4666 
L 3494 4666 
L 3494 1722 
L 4159 1722 
L 4159 850 
L 3494 850 
L 3494 0 
L 2356 0 
L 2356 850 
L 288 850 
L 288 1881 
L 2156 4666 
z
" transform="scale(0.015625)"/>
      </defs>
      <use xlink:href="#DejaVuSans-Bold-37"/>
      <use xlink:href="#DejaVuSans-Bold-35" transform="translate(68.21875 0)"/>
      <use xlink:href="#DejaVuSans-Bold-33" transform="translate(145.21875 0)"/>
      <use xlink:href="#DejaVuSans-Bold-30" transform="translate(218.515625 0)"/>
      <use xlink:href="#DejaVuSans-Bold-17" transform="translate(318.03125 0)"/>
     </g>
    </g>
   </g>
   <g id="text_2">
    <g clip-path="url(#p5680825c57)">
     <!-- TRPC4 -->
     <g transform="translate(1007.977252 608.242678) scale(0.08 -0.08)">
      <defs>
       <path id="DejaVuSans-Bold-26" d="M 4288 256 
Q 3956 84 3597 -3 
Q 3238 -91 2847 -91 
Q 1681 -91 1000 561 
Q 319 1213 319 2328 
Q 319 3447 1000 4098 
Q 1681 4750 2847 4750 
Q 3238 4750 3597 4662 
Q 3956 4575 4288 4403 
L 4288 3438 
Q 3953 3666 3628 3772 
Q 3303 3878 2944 3878 
Q 2300 3878 1931 3465 
Q 1563 3053 1563 2328 
Q 1563 1606 1931 1193 
Q 2300 781 2944 781 
Q 3303 781 3628 887 
Q 3953 994 4288 1222 
L 4288 256 
z
" transform="scale(0.015625)"/>
      </defs>
      <use xlink:href="#DejaVuSans-Bold-37"/>
      <use xlink:href="#DejaVuSans-Bold-35" transform="translate(68.21875 0)"/>
      <use xlink:href="#DejaVuSans-Bold-33" transform="translate(145.21875 0)"/>
      <use xlink:href="#DejaVuSans-Bold-26" transform="translate(218.515625 0)"/>
      <use xlink:href="#DejaVuSans-Bold-17" transform="translate(291.90625 0)"/>
     </g>
    </g>
   </g>
   <g id="text_3">
    <g clip-path="url(#p5680825c57)">
     <!-- ORAI2 -->
     <g transform="translate(794.432734 363.4905) scale(0.08 -0.08)">
      <defs>
       <path id="DejaVuSans-Bold-32" d="M 2719 3878 
Q 2169 3878 1866 3472 
Q 1563 3066 1563 2328 
Q 1563 1594 1866 1187 
Q 2169 781 2719 781 
Q 3272 781 3575 1187 
Q 3878 1594 3878 2328 
Q 3878 3066 3575 3472 
Q 3272 3878 2719 3878 
z
M 2719 4750 
Q 3844 4750 4481 4106 
Q 5119 3463 5119 2328 
Q 5119 1197 4481 553 
Q 3844 -91 2719 -91 
Q 1597 -91 958 553 
Q 319 1197 319 2328 
Q 319 3463 958 4106 
Q 1597 4750 2719 4750 
z
" transform="scale(0.015625)"/>
       <path id="DejaVuSans-Bold-24" d="M 3419 850 
L 1538 850 
L 1241 0 
L 31 0 
L 1759 4666 
L 3194 4666 
L 4922 0 
L 3713 0 
L 3419 850 
z
M 1838 1716 
L 3116 1716 
L 2478 3572 
L 1838 1716 
z
" transform="scale(0.015625)"/>
       <path id="DejaVuSans-Bold-2c" d="M 588 4666 
L 1791 4666 
L 1791 0 
L 588 0 
L 588 4666 
z
" transform="scale(0.015625)"/>
       <path id="DejaVuSans-Bold-15" d="M 1844 884 
L 3897 884 
L 3897 0 
L 506 0 
L 506 884 
L 2209 2388 
Q 2438 2594 2547 2791 
Q 2656 2988 2656 3200 
Q 2656 3528 2436 3728 
Q 2216 3928 1850 3928 
Q 1569 3928 1234 3808 
Q 900 3688 519 3450 
L 519 4475 
Q 925 4609 1322 4679 
Q 1719 4750 2100 4750 
Q 2938 4750 3402 4381 
Q 3866 4013 3866 3353 
Q 3866 2972 3669 2642 
Q 3472 2313 2841 1759 
L 1844 884 
z
" transform="scale(0.015625)"/>
      </defs>
      <use xlink:href="#DejaVuSans-Bold-32"/>
      <use xlink:href="#DejaVuSans-Bold-35" transform="translate(85.015625 0)"/>
      <use xlink:href="#DejaVuSans-Bold-24" transform="translate(162.015625 0)"/>
      <use xlink:href="#DejaVuSans-Bold-2c" transform="translate(239.40625 0)"/>
      <use xlink:href="#DejaVuSans-Bold-15" transform="translate(276.609375 0)"/>
     </g>
    </g>
   </g>
   <g id="text_4">
    <g clip-path="url(#p5680825c57)">
     <!-- TRPC5 -->
     <g transform="translate(557.204321 846.805153) scale(0.08 -0.08)">
      <defs>
       <path id="DejaVuSans-Bold-18" d="M 678 4666 
L 3669 4666 
L 3669 3781 
L 1638 3781 
L 1638 3059 
Q 1775 3097 1914 3117 
Q 2053 3138 2203 3138 
Q 3056 3138 3531 2711 
Q 4006 2284 4006 1522 
Q 4006 766 3489 337 
Q 2972 -91 2053 -91 
Q 1656 -91 1267 -14 
Q 878 63 494 219 
L 494 1166 
Q 875 947 1217 837 
Q 1559 728 1863 728 
Q 2300 728 2551 942 
Q 2803 1156 2803 1522 
Q 2803 1891 2551 2103 
Q 2300 2316 1863 2316 
Q 1603 2316 1309 2248 
Q 1016 2181 678 2041 
L 678 4666 
z
" transform="scale(0.015625)"/>
      </defs>
      <use xlink:href="#DejaVuSans-Bold-37"/>
      <use xlink:href="#DejaVuSans-Bold-35" transform="translate(68.21875 0)"/>
      <use xlink:href="#DejaVuSans-Bold-33" transform="translate(145.21875 0)"/>
      <use xlink:href="#DejaVuSans-Bold-26" transform="translate(218.515625 0)"/>
      <use xlink:href="#DejaVuSans-Bold-18" transform="translate(291.90625 0)"/>
     </g>
    </g>
   </g>
   <g id="text_5">
    <g clip-path="url(#p5680825c57)">
     <!-- ORAI3 -->
     <g transform="translate(115.991005 422.787982) scale(0.08 -0.08)">
      <defs>
       <path id="DejaVuSans-Bold-16" d="M 2981 2516 
Q 3453 2394 3698 2092 
Q 3944 1791 3944 1325 
Q 3944 631 3412 270 
Q 2881 -91 1863 -91 
Q 1503 -91 1142 -33 
Q 781 25 428 141 
L 428 1069 
Q 766 900 1098 814 
Q 1431 728 1753 728 
Q 2231 728 2486 893 
Q 2741 1059 2741 1369 
Q 2741 1688 2480 1852 
Q 2219 2016 1709 2016 
L 1228 2016 
L 1228 2791 
L 1734 2791 
Q 2188 2791 2409 2933 
Q 2631 3075 2631 3366 
Q 2631 3634 2415 3781 
Q 2200 3928 1806 3928 
Q 1516 3928 1219 3862 
Q 922 3797 628 3669 
L 628 4550 
Q 984 4650 1334 4700 
Q 1684 4750 2022 4750 
Q 2931 4750 3382 4451 
Q 3834 4153 3834 3553 
Q 3834 3144 3618 2883 
Q 3403 2622 2981 2516 
z
" transform="scale(0.015625)"/>
      </defs>
      <use xlink:href="#DejaVuSans-Bold-32"/>
      <use xlink:href="#DejaVuSans-Bold-35" transform="translate(85.015625 0)"/>
      <use xlink:href="#DejaVuSans-Bold-24" transform="translate(162.015625 0)"/>
      <use xlink:href="#DejaVuSans-Bold-2c" transform="translate(239.40625 0)"/>
      <use xlink:href="#DejaVuSans-Bold-16" transform="translate(276.609375 0)"/>
     </g>
    </g>
   </g>
   <g id="text_6">
    <g clip-path="url(#p5680825c57)">
     <!-- ORAI1 -->
     <g transform="translate(91.445062 571.75897) scale(0.08 -0.08)">
      <defs>
       <path id="DejaVuSans-Bold-14" d="M 750 831 
L 1813 831 
L 1813 3847 
L 722 3622 
L 722 4441 
L 1806 4666 
L 2950 4666 
L 2950 831 
L 4013 831 
L 4013 0 
L 750 0 
L 750 831 
z
" transform="scale(0.015625)"/>
      </defs>
      <use xlink:href="#DejaVuSans-Bold-32"/>
      <use xlink:href="#DejaVuSans-Bold-35" transform="translate(85.015625 0)"/>
      <use xlink:href="#DejaVuSans-Bold-24" transform="translate(162.015625 0)"/>
      <use xlink:href="#DejaVuSans-Bold-2c" transform="translate(239.40625 0)"/>
      <use xlink:href="#DejaVuSans-Bold-14" transform="translate(276.609375 0)"/>
     </g>
    </g>
   </g>
   <g id="text_7">
    <g clip-path="url(#p5680825c57)">
     <!-- STIM2 -->
     <g transform="translate(216.778675 805.994714) scale(0.08 -0.08)">
      <defs>
       <path id="DejaVuSans-Bold-36" d="M 3834 4519 
L 3834 3531 
Q 3450 3703 3084 3790 
Q 2719 3878 2394 3878 
Q 1963 3878 1756 3759 
Q 1550 3641 1550 3391 
Q 1550 3203 1689 3098 
Q 1828 2994 2194 2919 
L 2706 2816 
Q 3484 2659 3812 2340 
Q 4141 2022 4141 1434 
Q 4141 663 3683 286 
Q 3225 -91 2284 -91 
Q 1841 -91 1394 -6 
Q 947 78 500 244 
L 500 1259 
Q 947 1022 1364 901 
Q 1781 781 2169 781 
Q 2563 781 2772 912 
Q 2981 1044 2981 1288 
Q 2981 1506 2839 1625 
Q 2697 1744 2272 1838 
L 1806 1941 
Q 1106 2091 782 2419 
Q 459 2747 459 3303 
Q 459 4000 909 4375 
Q 1359 4750 2203 4750 
Q 2588 4750 2994 4692 
Q 3400 4634 3834 4519 
z
" transform="scale(0.015625)"/>
      </defs>
      <use xlink:href="#DejaVuSans-Bold-36"/>
      <use xlink:href="#DejaVuSans-Bold-37" transform="translate(72.015625 0)"/>
      <use xlink:href="#DejaVuSans-Bold-2c" transform="translate(140.234375 0)"/>
      <use xlink:href="#DejaVuSans-Bold-30" transform="translate(177.4375 0)"/>
      <use xlink:href="#DejaVuSans-Bold-15" transform="translate(276.953125 0)"/>
     </g>
    </g>
   </g>
   <g id="text_8">
    <g clip-path="url(#p5680825c57)">
     <!-- STIM1 -->
     <g transform="translate(1025.646188 296.660739) scale(0.08 -0.08)">
      <use xlink:href="#DejaVuSans-Bold-36"/>
      <use xlink:href="#DejaVuSans-Bold-37" transform="translate(72.015625 0)"/>
      <use xlink:href="#DejaVuSans-Bold-2c" transform="translate(140.234375 0)"/>
      <use xlink:href="#DejaVuSans-Bold-30" transform="translate(177.4375 0)"/>
      <use xlink:href="#DejaVuSans-Bold-14" transform="translate(276.953125 0)"/>
     </g>
    </g>
   </g>
   <g id="text_9">
    <g clip-path="url(#p5680825c57)">
     <!-- TRPV6 -->
     <g transform="translate(427.773835 501.732421) scale(0.08 -0.08)">
      <defs>
       <path id="DejaVuSans-Bold-39" d="M 31 4666 
L 1241 4666 
L 2478 1222 
L 3713 4666 
L 4922 4666 
L 3194 0 
L 1759 0 
L 31 4666 
z
" transform="scale(0.015625)"/>
       <path id="DejaVuSans-Bold-19" d="M 2316 2303 
Q 2000 2303 1842 2098 
Q 1684 1894 1684 1484 
Q 1684 1075 1842 870 
Q 2000 666 2316 666 
Q 2634 666 2792 870 
Q 2950 1075 2950 1484 
Q 2950 1894 2792 2098 
Q 2634 2303 2316 2303 
z
M 3803 4544 
L 3803 3681 
Q 3506 3822 3243 3889 
Q 2981 3956 2731 3956 
Q 2194 3956 1894 3657 
Q 1594 3359 1544 2772 
Q 1750 2925 1990 3001 
Q 2231 3078 2516 3078 
Q 3231 3078 3670 2659 
Q 4109 2241 4109 1563 
Q 4109 813 3618 361 
Q 3128 -91 2303 -91 
Q 1394 -91 895 523 
Q 397 1138 397 2266 
Q 397 3422 980 4083 
Q 1563 4744 2578 4744 
Q 2900 4744 3203 4694 
Q 3506 4644 3803 4544 
z
" transform="scale(0.015625)"/>
      </defs>
      <use xlink:href="#DejaVuSans-Bold-37"/>
      <use xlink:href="#DejaVuSans-Bold-35" transform="translate(68.21875 0)"/>
      <use xlink:href="#DejaVuSans-Bold-33" transform="translate(145.21875 0)"/>
      <use xlink:href="#DejaVuSans-Bold-39" transform="translate(218.515625 0)"/>
      <use xlink:href="#DejaVuSans-Bold-19" transform="translate(295.90625 0)"/>
     </g>
    </g>
   </g>
   <g id="text_10">
    <g clip-path="url(#p5680825c57)">
     <!-- TRPV2 -->
     <g transform="translate(472.895498 306.413403) scale(0.08 -0.08)">
      <use xlink:href="#DejaVuSans-Bold-37"/>
      <use xlink:href="#DejaVuSans-Bold-35" transform="translate(68.21875 0)"/>
      <use xlink:href="#DejaVuSans-Bold-33" transform="translate(145.21875 0)"/>
      <use xlink:href="#DejaVuSans-Bold-39" transform="translate(218.515625 0)"/>
      <use xlink:href="#DejaVuSans-Bold-15" transform="translate(295.90625 0)"/>
     </g>
    </g>
   </g>
   <g id="text_11">
    <g clip-path="url(#p5680825c57)">
     <!-- TRPC1 -->
     <g transform="translate(1024.896985 811.511563) scale(0.08 -0.08)">
      <use xlink:href="#DejaVuSans-Bold-37"/>
      <use xlink:href="#DejaVuSans-Bold-35" transform="translate(68.21875 0)"/>
      <use xlink:href="#DejaVuSans-Bold-33" transform="translate(145.21875 0)"/>
      <use xlink:href="#DejaVuSans-Bold-26" transform="translate(218.515625 0)"/>
      <use xlink:href="#DejaVuSans-Bold-14" transform="translate(291.90625 0)"/>
     </g>
    </g>
   </g>
   <g id="text_12">
    <g clip-path="url(#p5680825c57)">
     <!-- TRPC6 -->
     <g transform="translate(684.305016 118.529827) scale(0.08 -0.08)">
      <use xlink:href="#DejaVuSans-Bold-37"/>
      <use xlink:href="#DejaVuSans-Bold-35" transform="translate(68.21875 0)"/>
      <use xlink:href="#DejaVuSans-Bold-33" transform="translate(145.21875 0)"/>
      <use xlink:href="#DejaVuSans-Bold-26" transform="translate(218.515625 0)"/>
      <use xlink:href="#DejaVuSans-Bold-19" transform="translate(291.90625 0)"/>
     </g>
    </g>
   </g>
   <g id="text_13">
    <g clip-path="url(#p5680825c57)">
     <!-- TRPC3 -->
     <g transform="translate(193.440351 197.435577) scale(0.08 -0.08)">
      <use xlink:href="#DejaVuSans-Bold-37"/>
      <use xlink:href="#DejaVuSans-Bold-35" transform="translate(68.21875 0)"/>
      <use xlink:href="#DejaVuSans-Bold-33" transform="translate(145.21875 0)"/>
      <use xlink:href="#DejaVuSans-Bold-26" transform="translate(218.515625 0)"/>
      <use xlink:href="#DejaVuSans-Bold-16" transform="translate(291.90625 0)"/>
     </g>
    </g>
   </g>
   <g id="text_14">
    <g clip-path="url(#p5680825c57)">
     <!-- TRPM2 -->
     <g transform="translate(698.736097 565.895968) scale(0.08 -0.08)">
      <use xlink:href="#DejaVuSans-Bold-37"/>
      <use xlink:href="#DejaVuSans-Bold-35" transform="translate(68.21875 0)"/>
      <use xlink:href="#DejaVuSans-Bold-33" transform="translate(145.21875 0)"/>
      <use xlink:href="#DejaVuSans-Bold-30" transform="translate(218.515625 0)"/>
      <use xlink:href="#DejaVuSans-Bold-15" transform="translate(318.03125 0)"/>
     </g>
    </g>
   </g>
   <g id="text_15">
    <!-- SOCE Component PPI Network (STRING v12) -->
    <g transform="translate(410.332656 18.379238) scale(0.13 -0.13)">
     <defs>
      <path id="DejaVuSans-Bold-28" d="M 588 4666 
L 3834 4666 
L 3834 3756 
L 1791 3756 
L 1791 2888 
L 3713 2888 
L 3713 1978 
L 1791 1978 
L 1791 909 
L 3903 909 
L 3903 0 
L 588 0 
L 588 4666 
z
" transform="scale(0.015625)"/>
      <path id="DejaVuSans-Bold-3" transform="scale(0.015625)"/>
      <path id="DejaVuSans-Bold-52" d="M 2203 2784 
Q 1831 2784 1636 2517 
Q 1441 2250 1441 1747 
Q 1441 1244 1636 976 
Q 1831 709 2203 709 
Q 2569 709 2762 976 
Q 2956 1244 2956 1747 
Q 2956 2250 2762 2517 
Q 2569 2784 2203 2784 
z
M 2203 3584 
Q 3106 3584 3614 3096 
Q 4122 2609 4122 1747 
Q 4122 884 3614 396 
Q 3106 -91 2203 -91 
Q 1297 -91 786 396 
Q 275 884 275 1747 
Q 275 2609 786 3096 
Q 1297 3584 2203 3584 
z
" transform="scale(0.015625)"/>
      <path id="DejaVuSans-Bold-50" d="M 3781 2919 
Q 3994 3244 4286 3414 
Q 4578 3584 4928 3584 
Q 5531 3584 5847 3212 
Q 6163 2841 6163 2131 
L 6163 0 
L 5038 0 
L 5038 1825 
Q 5041 1866 5042 1909 
Q 5044 1953 5044 2034 
Q 5044 2406 4934 2573 
Q 4825 2741 4581 2741 
Q 4263 2741 4089 2478 
Q 3916 2216 3909 1719 
L 3909 0 
L 2784 0 
L 2784 1825 
Q 2784 2406 2684 2573 
Q 2584 2741 2328 2741 
Q 2006 2741 1831 2477 
Q 1656 2213 1656 1722 
L 1656 0 
L 531 0 
L 531 3500 
L 1656 3500 
L 1656 2988 
Q 1863 3284 2130 3434 
Q 2397 3584 2719 3584 
Q 3081 3584 3359 3409 
Q 3638 3234 3781 2919 
z
" transform="scale(0.015625)"/>
      <path id="DejaVuSans-Bold-53" d="M 1656 506 
L 1656 -1331 
L 538 -1331 
L 538 3500 
L 1656 3500 
L 1656 2988 
Q 1888 3294 2169 3439 
Q 2450 3584 2816 3584 
Q 3463 3584 3878 3070 
Q 4294 2556 4294 1747 
Q 4294 938 3878 423 
Q 3463 -91 2816 -91 
Q 2450 -91 2169 54 
Q 1888 200 1656 506 
z
M 2400 2772 
Q 2041 2772 1848 2508 
Q 1656 2244 1656 1747 
Q 1656 1250 1848 986 
Q 2041 722 2400 722 
Q 2759 722 2948 984 
Q 3138 1247 3138 1747 
Q 3138 2247 2948 2509 
Q 2759 2772 2400 2772 
z
" transform="scale(0.015625)"/>
      <path id="DejaVuSans-Bold-51" d="M 4056 2131 
L 4056 0 
L 2931 0 
L 2931 347 
L 2931 1631 
Q 2931 2084 2911 2256 
Q 2891 2428 2841 2509 
Q 2775 2619 2662 2680 
Q 2550 2741 2406 2741 
Q 2056 2741 1856 2470 
Q 1656 2200 1656 1722 
L 1656 0 
L 538 0 
L 538 3500 
L 1656 3500 
L 1656 2988 
Q 1909 3294 2193 3439 
Q 2478 3584 2822 3584 
Q 3428 3584 3742 3212 
Q 4056 2841 4056 2131 
z
" transform="scale(0.015625)"/>
      <path id="DejaVuSans-Bold-48" d="M 4031 1759 
L 4031 1441 
L 1416 1441 
Q 1456 1047 1700 850 
Q 1944 653 2381 653 
Q 2734 653 3104 758 
Q 3475 863 3866 1075 
L 3866 213 
Q 3469 63 3072 -14 
Q 2675 -91 2278 -91 
Q 1328 -91 801 392 
Q 275 875 275 1747 
Q 275 2603 792 3093 
Q 1309 3584 2216 3584 
Q 3041 3584 3536 3087 
Q 4031 2591 4031 1759 
z
M 2881 2131 
Q 2881 2450 2695 2645 
Q 2509 2841 2209 2841 
Q 1884 2841 1681 2658 
Q 1478 2475 1428 2131 
L 2881 2131 
z
" transform="scale(0.015625)"/>
      <path id="DejaVuSans-Bold-57" d="M 1759 4494 
L 1759 3500 
L 2913 3500 
L 2913 2700 
L 1759 2700 
L 1759 1216 
Q 1759 972 1856 886 
Q 1953 800 2241 800 
L 2816 800 
L 2816 0 
L 1856 0 
Q 1194 0 917 276 
Q 641 553 641 1216 
L 641 2700 
L 84 2700 
L 84 3500 
L 641 3500 
L 641 4494 
L 1759 4494 
z
" transform="scale(0.015625)"/>
      <path id="DejaVuSans-Bold-31" d="M 588 4666 
L 1931 4666 
L 3628 1466 
L 3628 4666 
L 4769 4666 
L 4769 0 
L 3425 0 
L 1728 3200 
L 1728 0 
L 588 0 
L 588 4666 
z
" transform="scale(0.015625)"/>
      <path id="DejaVuSans-Bold-5a" d="M 225 3500 
L 1313 3500 
L 1900 1088 
L 2491 3500 
L 3425 3500 
L 4013 1113 
L 4603 3500 
L 5691 3500 
L 4769 0 
L 3547 0 
L 2956 2406 
L 2369 0 
L 1147 0 
L 225 3500 
z
" transform="scale(0.015625)"/>
      <path id="DejaVuSans-Bold-55" d="M 3138 2547 
Q 2991 2616 2845 2648 
Q 2700 2681 2553 2681 
Q 2122 2681 1889 2404 
Q 1656 2128 1656 1613 
L 1656 0 
L 538 0 
L 538 3500 
L 1656 3500 
L 1656 2925 
Q 1872 3269 2151 3426 
Q 2431 3584 2822 3584 
Q 2878 3584 2943 3579 
Q 3009 3575 3134 3559 
L 3138 2547 
z
" transform="scale(0.015625)"/>
      <path id="DejaVuSans-Bold-4e" d="M 538 4863 
L 1656 4863 
L 1656 2216 
L 2944 3500 
L 4244 3500 
L 2534 1894 
L 4378 0 
L 3022 0 
L 1656 1459 
L 1656 0 
L 538 0 
L 538 4863 
z
" transform="scale(0.015625)"/>
      <path id="DejaVuSans-Bold-b" d="M 2413 -844 
L 1484 -844 
Q 1006 -72 778 623 
Q 550 1319 550 2003 
Q 550 2688 779 3389 
Q 1009 4091 1484 4856 
L 2413 4856 
Q 2013 4116 1813 3408 
Q 1613 2700 1613 2009 
Q 1613 1319 1811 609 
Q 2009 -100 2413 -844 
z
" transform="scale(0.015625)"/>
      <path id="DejaVuSans-Bold-2a" d="M 4781 347 
Q 4331 128 3847 18 
Q 3363 -91 2847 -91 
Q 1681 -91 1000 561 
Q 319 1213 319 2328 
Q 319 3456 1012 4103 
Q 1706 4750 2913 4750 
Q 3378 4750 3804 4662 
Q 4231 4575 4609 4403 
L 4609 3438 
Q 4219 3659 3833 3768 
Q 3447 3878 3059 3878 
Q 2341 3878 1952 3476 
Q 1563 3075 1563 2328 
Q 1563 1588 1938 1184 
Q 2313 781 3003 781 
Q 3191 781 3352 804 
Q 3513 828 3641 878 
L 3641 1784 
L 2906 1784 
L 2906 2591 
L 4781 2591 
L 4781 347 
z
" transform="scale(0.015625)"/>
      <path id="DejaVuSans-Bold-59" d="M 97 3500 
L 1216 3500 
L 2088 1081 
L 2956 3500 
L 4078 3500 
L 2700 0 
L 1472 0 
L 97 3500 
z
" transform="scale(0.015625)"/>
      <path id="DejaVuSans-Bold-c" d="M 513 -844 
Q 913 -100 1113 609 
Q 1313 1319 1313 2009 
Q 1313 2700 1113 3408 
Q 913 4116 513 4856 
L 1441 4856 
Q 1916 4091 2145 3389 
Q 2375 2688 2375 2003 
Q 2375 1319 2147 623 
Q 1919 -72 1441 -844 
L 513 -844 
z
" transform="scale(0.015625)"/>
     </defs>
     <use xlink:href="#DejaVuSans-Bold-36"/>
     <use xlink:href="#DejaVuSans-Bold-32" transform="translate(72.015625 0)"/>
     <use xlink:href="#DejaVuSans-Bold-26" transform="translate(157.03125 0)"/>
     <use xlink:href="#DejaVuSans-Bold-28" transform="translate(230.421875 0)"/>
     <use xlink:href="#DejaVuSans-Bold-3" transform="translate(298.734375 0)"/>
     <use xlink:href="#DejaVuSans-Bold-26" transform="translate(333.546875 0)"/>
     <use xlink:href="#DejaVuSans-Bold-52" transform="translate(406.9375 0)"/>
     <use xlink:href="#DejaVuSans-Bold-50" transform="translate(475.640625 0)"/>
     <use xlink:href="#DejaVuSans-Bold-53" transform="translate(579.84375 0)"/>
     <use xlink:href="#DejaVuSans-Bold-52" transform="translate(651.421875 0)"/>
     <use xlink:href="#DejaVuSans-Bold-51" transform="translate(720.125 0)"/>
     <use xlink:href="#DejaVuSans-Bold-48" transform="translate(791.3125 0)"/>
     <use xlink:href="#DejaVuSans-Bold-51" transform="translate(859.140625 0)"/>
     <use xlink:href="#DejaVuSans-Bold-57" transform="translate(930.328125 0)"/>
     <use xlink:href="#DejaVuSans-Bold-3" transform="translate(978.125 0)"/>
     <use xlink:href="#DejaVuSans-Bold-33" transform="translate(1012.9375 0)"/>
     <use xlink:href="#DejaVuSans-Bold-33" transform="translate(1086.234375 0)"/>
     <use xlink:href="#DejaVuSans-Bold-2c" transform="translate(1159.53125 0)"/>
     <use xlink:href="#DejaVuSans-Bold-3" transform="translate(1196.734375 0)"/>
     <use xlink:href="#DejaVuSans-Bold-31" transform="translate(1231.546875 0)"/>
     <use xlink:href="#DejaVuSans-Bold-48" transform="translate(1315.234375 0)"/>
     <use xlink:href="#DejaVuSans-Bold-57" transform="translate(1383.0625 0)"/>
     <use xlink:href="#DejaVuSans-Bold-5a" transform="translate(1430.859375 0)"/>
     <use xlink:href="#DejaVuSans-Bold-52" transform="translate(1523.25 0)"/>
     <use xlink:href="#DejaVuSans-Bold-55" transform="translate(1591.953125 0)"/>
     <use xlink:href="#DejaVuSans-Bold-4e" transform="translate(1641.265625 0)"/>
     <use xlink:href="#DejaVuSans-Bold-3" transform="translate(1707.765625 0)"/>
     <use xlink:href="#DejaVuSans-Bold-b" transform="translate(1742.578125 0)"/>
     <use xlink:href="#DejaVuSans-Bold-36" transform="translate(1788.28125 0)"/>
     <use xlink:href="#DejaVuSans-Bold-37" transform="translate(1860.296875 0)"/>
     <use xlink:href="#DejaVuSans-Bold-35" transform="translate(1928.515625 0)"/>
     <use xlink:href="#DejaVuSans-Bold-2c" transform="translate(2005.515625 0)"/>
     <use xlink:href="#DejaVuSans-Bold-31" transform="translate(2042.71875 0)"/>
     <use xlink:href="#DejaVuSans-Bold-2a" transform="translate(2126.40625 0)"/>
     <use xlink:href="#DejaVuSans-Bold-3" transform="translate(2208.484375 0)"/>
     <use xlink:href="#DejaVuSans-Bold-59" transform="translate(2243.296875 0)"/>
     <use xlink:href="#DejaVuSans-Bold-14" transform="translate(2308.484375 0)"/>
     <use xlink:href="#DejaVuSans-Bold-15" transform="translate(2378.0625 0)"/>
     <use xlink:href="#DejaVuSans-Bold-c" transform="translate(2447.640625 0)"/>
    </g>
    <!-- 14 nodes · 88 edges · min score ≥ 400/1000 -->
    <g transform="translate(412.082578 33.982793) scale(0.13 -0.13)">
     <defs>
      <path id="DejaVuSans-Bold-47" d="M 2919 2988 
L 2919 4863 
L 4044 4863 
L 4044 0 
L 2919 0 
L 2919 506 
Q 2688 197 2409 53 
Q 2131 -91 1766 -91 
Q 1119 -91 703 423 
Q 288 938 288 1747 
Q 288 2556 703 3070 
Q 1119 3584 1766 3584 
Q 2128 3584 2408 3439 
Q 2688 3294 2919 2988 
z
M 2181 722 
Q 2541 722 2730 984 
Q 2919 1247 2919 1747 
Q 2919 2247 2730 2509 
Q 2541 2772 2181 2772 
Q 1825 2772 1636 2509 
Q 1447 2247 1447 1747 
Q 1447 1247 1636 984 
Q 1825 722 2181 722 
z
" transform="scale(0.015625)"/>
      <path id="DejaVuSans-Bold-56" d="M 3272 3391 
L 3272 2541 
Q 2913 2691 2578 2766 
Q 2244 2841 1947 2841 
Q 1628 2841 1473 2761 
Q 1319 2681 1319 2516 
Q 1319 2381 1436 2309 
Q 1553 2238 1856 2203 
L 2053 2175 
Q 2913 2066 3209 1816 
Q 3506 1566 3506 1031 
Q 3506 472 3093 190 
Q 2681 -91 1863 -91 
Q 1516 -91 1145 -36 
Q 775 19 384 128 
L 384 978 
Q 719 816 1070 734 
Q 1422 653 1784 653 
Q 2113 653 2278 743 
Q 2444 834 2444 1013 
Q 2444 1163 2330 1236 
Q 2216 1309 1875 1350 
L 1678 1375 
Q 931 1469 631 1722 
Q 331 1975 331 2491 
Q 331 3047 712 3315 
Q 1094 3584 1881 3584 
Q 2191 3584 2531 3537 
Q 2872 3491 3272 3391 
z
" transform="scale(0.015625)"/>
      <path id="DejaVuSans-Bold-79" d="M 653 2828 
L 1778 2828 
L 1778 1619 
L 653 1619 
L 653 2828 
z
" transform="scale(0.015625)"/>
      <path id="DejaVuSans-Bold-1b" d="M 2228 2088 
Q 1891 2088 1709 1903 
Q 1528 1719 1528 1375 
Q 1528 1031 1709 848 
Q 1891 666 2228 666 
Q 2563 666 2741 848 
Q 2919 1031 2919 1375 
Q 2919 1722 2741 1905 
Q 2563 2088 2228 2088 
z
M 1350 2484 
Q 925 2613 709 2878 
Q 494 3144 494 3541 
Q 494 4131 934 4440 
Q 1375 4750 2228 4750 
Q 3075 4750 3515 4442 
Q 3956 4134 3956 3541 
Q 3956 3144 3739 2878 
Q 3522 2613 3097 2484 
Q 3572 2353 3814 2058 
Q 4056 1763 4056 1313 
Q 4056 619 3595 264 
Q 3134 -91 2228 -91 
Q 1319 -91 855 264 
Q 391 619 391 1313 
Q 391 1763 633 2058 
Q 875 2353 1350 2484 
z
M 1631 3419 
Q 1631 3141 1786 2991 
Q 1941 2841 2228 2841 
Q 2509 2841 2662 2991 
Q 2816 3141 2816 3419 
Q 2816 3697 2662 3845 
Q 2509 3994 2228 3994 
Q 1941 3994 1786 3844 
Q 1631 3694 1631 3419 
z
" transform="scale(0.015625)"/>
      <path id="DejaVuSans-Bold-4a" d="M 2919 594 
Q 2688 288 2409 144 
Q 2131 0 1766 0 
Q 1125 0 706 504 
Q 288 1009 288 1791 
Q 288 2575 706 3076 
Q 1125 3578 1766 3578 
Q 2131 3578 2409 3434 
Q 2688 3291 2919 2981 
L 2919 3500 
L 4044 3500 
L 4044 353 
Q 4044 -491 3511 -936 
Q 2978 -1381 1966 -1381 
Q 1638 -1381 1331 -1331 
Q 1025 -1281 716 -1178 
L 716 -306 
Q 1009 -475 1290 -558 
Q 1572 -641 1856 -641 
Q 2406 -641 2662 -400 
Q 2919 -159 2919 353 
L 2919 594 
z
M 2181 2772 
Q 1834 2772 1640 2515 
Q 1447 2259 1447 1791 
Q 1447 1309 1634 1061 
Q 1822 813 2181 813 
Q 2531 813 2725 1069 
Q 2919 1325 2919 1791 
Q 2919 2259 2725 2515 
Q 2531 2772 2181 2772 
z
" transform="scale(0.015625)"/>
      <path id="DejaVuSans-Bold-4c" d="M 538 3500 
L 1656 3500 
L 1656 0 
L 538 0 
L 538 3500 
z
M 538 4863 
L 1656 4863 
L 1656 3950 
L 538 3950 
L 538 4863 
z
" transform="scale(0.015625)"/>
      <path id="DejaVuSans-Bold-46" d="M 3366 3391 
L 3366 2478 
Q 3138 2634 2908 2709 
Q 2678 2784 2431 2784 
Q 1963 2784 1702 2511 
Q 1441 2238 1441 1747 
Q 1441 1256 1702 982 
Q 1963 709 2431 709 
Q 2694 709 2930 787 
Q 3166 866 3366 1019 
L 3366 103 
Q 3103 6 2833 -42 
Q 2563 -91 2291 -91 
Q 1344 -91 809 395 
Q 275 881 275 1747 
Q 275 2613 809 3098 
Q 1344 3584 2291 3584 
Q 2566 3584 2833 3536 
Q 3100 3488 3366 3391 
z
" transform="scale(0.015625)"/>
      <path id="DejaVuSans-Bold-cef" d="M 678 744 
L 4684 744 
L 4684 0 
L 678 0 
L 678 744 
z
M 678 2963 
L 678 3725 
L 4684 2681 
L 4684 1947 
L 678 897 
L 678 1656 
L 3481 2309 
L 678 2963 
z
" transform="scale(0.015625)"/>
      <path id="DejaVuSans-Bold-13" d="M 2944 2338 
Q 2944 3213 2780 3570 
Q 2616 3928 2228 3928 
Q 1841 3928 1675 3570 
Q 1509 3213 1509 2338 
Q 1509 1453 1675 1090 
Q 1841 728 2228 728 
Q 2613 728 2778 1090 
Q 2944 1453 2944 2338 
z
M 4147 2328 
Q 4147 1169 3647 539 
Q 3147 -91 2228 -91 
Q 1306 -91 806 539 
Q 306 1169 306 2328 
Q 306 3491 806 4120 
Q 1306 4750 2228 4750 
Q 3147 4750 3647 4120 
Q 4147 3491 4147 2328 
z
" transform="scale(0.015625)"/>
      <path id="DejaVuSans-Bold-12" d="M 1644 4666 
L 2338 4666 
L 691 -594 
L 0 -594 
L 1644 4666 
z
" transform="scale(0.015625)"/>
     </defs>
     <use xlink:href="#DejaVuSans-Bold-14"/>
     <use xlink:href="#DejaVuSans-Bold-17" transform="translate(69.578125 0)"/>
     <use xlink:href="#DejaVuSans-Bold-3" transform="translate(139.15625 0)"/>
     <use xlink:href="#DejaVuSans-Bold-51" transform="translate(173.96875 0)"/>
     <use xlink:href="#DejaVuSans-Bold-52" transform="translate(245.15625 0)"/>
     <use xlink:href="#DejaVuSans-Bold-47" transform="translate(313.859375 0)"/>
     <use xlink:href="#DejaVuSans-Bold-48" transform="translate(385.4375 0)"/>
     <use xlink:href="#DejaVuSans-Bold-56" transform="translate(453.265625 0)"/>
     <use xlink:href="#DejaVuSans-Bold-3" transform="translate(512.78125 0)"/>
     <use xlink:href="#DejaVuSans-Bold-79" transform="translate(547.59375 0)"/>
     <use xlink:href="#DejaVuSans-Bold-3" transform="translate(585.578125 0)"/>
     <use xlink:href="#DejaVuSans-Bold-1b" transform="translate(620.390625 0)"/>
     <use xlink:href="#DejaVuSans-Bold-1b" transform="translate(689.96875 0)"/>
     <use xlink:href="#DejaVuSans-Bold-3" transform="translate(759.546875 0)"/>
     <use xlink:href="#DejaVuSans-Bold-48" transform="translate(794.359375 0)"/>
     <use xlink:href="#DejaVuSans-Bold-47" transform="translate(862.1875 0)"/>
     <use xlink:href="#DejaVuSans-Bold-4a" transform="translate(933.765625 0)"/>
     <use xlink:href="#DejaVuSans-Bold-48" transform="translate(1005.34375 0)"/>
     <use xlink:href="#DejaVuSans-Bold-56" transform="translate(1073.171875 0)"/>
     <use xlink:href="#DejaVuSans-Bold-3" transform="translate(1132.6875 0)"/>
     <use xlink:href="#DejaVuSans-Bold-79" transform="translate(1167.5 0)"/>
     <use xlink:href="#DejaVuSans-Bold-3" transform="translate(1205.484375 0)"/>
     <use xlink:href="#DejaVuSans-Bold-50" transform="translate(1240.296875 0)"/>
     <use xlink:href="#DejaVuSans-Bold-4c" transform="translate(1344.5 0)"/>
     <use xlink:href="#DejaVuSans-Bold-51" transform="translate(1378.78125 0)"/>
     <use xlink:href="#DejaVuSans-Bold-3" transform="translate(1449.96875 0)"/>
     <use xlink:href="#DejaVuSans-Bold-56" transform="translate(1484.78125 0)"/>
     <use xlink:href="#DejaVuSans-Bold-46" transform="translate(1544.296875 0)"/>
     <use xlink:href="#DejaVuSans-Bold-52" transform="translate(1603.578125 0)"/>
     <use xlink:href="#DejaVuSans-Bold-55" transform="translate(1672.28125 0)"/>
     <use xlink:href="#DejaVuSans-Bold-48" transform="translate(1721.59375 0)"/>
     <use xlink:href="#DejaVuSans-Bold-3" transform="translate(1789.421875 0)"/>
     <use xlink:href="#DejaVuSans-Bold-cef" transform="translate(1824.234375 0)"/>
     <use xlink:href="#DejaVuSans-Bold-3" transform="translate(1908.03125 0)"/>
     <use xlink:href="#DejaVuSans-Bold-17" transform="translate(1942.84375 0)"/>
     <use xlink:href="#DejaVuSans-Bold-13" transform="translate(2012.421875 0)"/>
     <use xlink:href="#DejaVuSans-Bold-13" transform="translate(2082 0)"/>
     <use xlink:href="#DejaVuSans-Bold-12" transform="translate(2151.578125 0)"/>
     <use xlink:href="#DejaVuSans-Bold-14" transform="translate(2188.109375 0)"/>
     <use xlink:href="#DejaVuSans-Bold-13" transform="translate(2257.6875 0)"/>
     <use xlink:href="#DejaVuSans-Bold-13" transform="translate(2327.265625 0)"/>
     <use xlink:href="#DejaVuSans-Bold-13" transform="translate(2396.84375 0)"/>
    </g>
   </g>
   <g id="legend_1">
    <g id="patch_2">
     <path d="M 13.5 141.687715 
L 107.368594 141.687715 
Q 109.168594 141.687715 109.168594 139.887715 
L 109.168594 46.282793 
Q 109.168594 44.482793 107.368594 44.482793 
L 13.5 44.482793 
Q 11.7 44.482793 11.7 46.282793 
L 11.7 139.887715 
Q 11.7 141.687715 13.5 141.687715 
z
" style="fill: #ffffff; opacity: 0.9; stroke: #cccccc; stroke-linejoin: miter"/>
    </g>
    <g id="text_16">
     <!-- Functional Category -->
     <g transform="translate(15.3 54.921387) scale(0.09 -0.09)">
      <defs>
       <path id="DejaVuSans-29" d="M 628 4666 
L 3309 4666 
L 3309 4134 
L 1259 4134 
L 1259 2759 
L 3109 2759 
L 3109 2228 
L 1259 2228 
L 1259 0 
L 628 0 
L 628 4666 
z
" transform="scale(0.015625)"/>
       <path id="DejaVuSans-58" d="M 544 1381 
L 544 3500 
L 1119 3500 
L 1119 1403 
Q 1119 906 1312 657 
Q 1506 409 1894 409 
Q 2359 409 2629 706 
Q 2900 1003 2900 1516 
L 2900 3500 
L 3475 3500 
L 3475 0 
L 2900 0 
L 2900 538 
Q 2691 219 2414 64 
Q 2138 -91 1772 -91 
Q 1169 -91 856 284 
Q 544 659 544 1381 
z
M 1991 3584 
L 1991 3584 
z
" transform="scale(0.015625)"/>
       <path id="DejaVuSans-51" d="M 3513 2113 
L 3513 0 
L 2938 0 
L 2938 2094 
Q 2938 2591 2744 2837 
Q 2550 3084 2163 3084 
Q 1697 3084 1428 2787 
Q 1159 2491 1159 1978 
L 1159 0 
L 581 0 
L 581 3500 
L 1159 3500 
L 1159 2956 
Q 1366 3272 1645 3428 
Q 1925 3584 2291 3584 
Q 2894 3584 3203 3211 
Q 3513 2838 3513 2113 
z
" transform="scale(0.015625)"/>
       <path id="DejaVuSans-46" d="M 3122 3366 
L 3122 2828 
Q 2878 2963 2633 3030 
Q 2388 3097 2138 3097 
Q 1578 3097 1268 2742 
Q 959 2388 959 1747 
Q 959 1106 1268 751 
Q 1578 397 2138 397 
Q 2388 397 2633 464 
Q 2878 531 3122 666 
L 3122 134 
Q 2881 22 2623 -34 
Q 2366 -91 2075 -91 
Q 1284 -91 818 406 
Q 353 903 353 1747 
Q 353 2603 823 3093 
Q 1294 3584 2113 3584 
Q 2378 3584 2631 3529 
Q 2884 3475 3122 3366 
z
" transform="scale(0.015625)"/>
       <path id="DejaVuSans-57" d="M 1172 4494 
L 1172 3500 
L 2356 3500 
L 2356 3053 
L 1172 3053 
L 1172 1153 
Q 1172 725 1289 603 
Q 1406 481 1766 481 
L 2356 481 
L 2356 0 
L 1766 0 
Q 1100 0 847 248 
Q 594 497 594 1153 
L 594 3053 
L 172 3053 
L 172 3500 
L 594 3500 
L 594 4494 
L 1172 4494 
z
" transform="scale(0.015625)"/>
       <path id="DejaVuSans-4c" d="M 603 3500 
L 1178 3500 
L 1178 0 
L 603 0 
L 603 3500 
z
M 603 4863 
L 1178 4863 
L 1178 4134 
L 603 4134 
L 603 4863 
z
" transform="scale(0.015625)"/>
       <path id="DejaVuSans-52" d="M 1959 3097 
Q 1497 3097 1228 2736 
Q 959 2375 959 1747 
Q 959 1119 1226 758 
Q 1494 397 1959 397 
Q 2419 397 2687 759 
Q 2956 1122 2956 1747 
Q 2956 2369 2687 2733 
Q 2419 3097 1959 3097 
z
M 1959 3584 
Q 2709 3584 3137 3096 
Q 3566 2609 3566 1747 
Q 3566 888 3137 398 
Q 2709 -91 1959 -91 
Q 1206 -91 779 398 
Q 353 888 353 1747 
Q 353 2609 779 3096 
Q 1206 3584 1959 3584 
z
" transform="scale(0.015625)"/>
       <path id="DejaVuSans-44" d="M 2194 1759 
Q 1497 1759 1228 1600 
Q 959 1441 959 1056 
Q 959 750 1161 570 
Q 1363 391 1709 391 
Q 2188 391 2477 730 
Q 2766 1069 2766 1631 
L 2766 1759 
L 2194 1759 
z
M 3341 1997 
L 3341 0 
L 2766 0 
L 2766 531 
Q 2569 213 2275 61 
Q 1981 -91 1556 -91 
Q 1019 -91 701 211 
Q 384 513 384 1019 
Q 384 1609 779 1909 
Q 1175 2209 1959 2209 
L 2766 2209 
L 2766 2266 
Q 2766 2663 2505 2880 
Q 2244 3097 1772 3097 
Q 1472 3097 1187 3025 
Q 903 2953 641 2809 
L 641 3341 
Q 956 3463 1253 3523 
Q 1550 3584 1831 3584 
Q 2591 3584 2966 3190 
Q 3341 2797 3341 1997 
z
" transform="scale(0.015625)"/>
       <path id="DejaVuSans-4f" d="M 603 4863 
L 1178 4863 
L 1178 0 
L 603 0 
L 603 4863 
z
" transform="scale(0.015625)"/>
       <path id="DejaVuSans-3" transform="scale(0.015625)"/>
       <path id="DejaVuSans-26" d="M 4122 4306 
L 4122 3641 
Q 3803 3938 3442 4084 
Q 3081 4231 2675 4231 
Q 1875 4231 1450 3742 
Q 1025 3253 1025 2328 
Q 1025 1406 1450 917 
Q 1875 428 2675 428 
Q 3081 428 3442 575 
Q 3803 722 4122 1019 
L 4122 359 
Q 3791 134 3420 21 
Q 3050 -91 2638 -91 
Q 1578 -91 968 557 
Q 359 1206 359 2328 
Q 359 3453 968 4101 
Q 1578 4750 2638 4750 
Q 3056 4750 3426 4639 
Q 3797 4528 4122 4306 
z
" transform="scale(0.015625)"/>
       <path id="DejaVuSans-48" d="M 3597 1894 
L 3597 1613 
L 953 1613 
Q 991 1019 1311 708 
Q 1631 397 2203 397 
Q 2534 397 2845 478 
Q 3156 559 3463 722 
L 3463 178 
Q 3153 47 2828 -22 
Q 2503 -91 2169 -91 
Q 1331 -91 842 396 
Q 353 884 353 1716 
Q 353 2575 817 3079 
Q 1281 3584 2069 3584 
Q 2775 3584 3186 3129 
Q 3597 2675 3597 1894 
z
M 3022 2063 
Q 3016 2534 2758 2815 
Q 2500 3097 2075 3097 
Q 1594 3097 1305 2825 
Q 1016 2553 972 2059 
L 3022 2063 
z
" transform="scale(0.015625)"/>
       <path id="DejaVuSans-4a" d="M 2906 1791 
Q 2906 2416 2648 2759 
Q 2391 3103 1925 3103 
Q 1463 3103 1205 2759 
Q 947 2416 947 1791 
Q 947 1169 1205 825 
Q 1463 481 1925 481 
Q 2391 481 2648 825 
Q 2906 1169 2906 1791 
z
M 3481 434 
Q 3481 -459 3084 -895 
Q 2688 -1331 1869 -1331 
Q 1566 -1331 1297 -1286 
Q 1028 -1241 775 -1147 
L 775 -588 
Q 1028 -725 1275 -790 
Q 1522 -856 1778 -856 
Q 2344 -856 2625 -561 
Q 2906 -266 2906 331 
L 2906 616 
Q 2728 306 2450 153 
Q 2172 0 1784 0 
Q 1141 0 747 490 
Q 353 981 353 1791 
Q 353 2603 747 3093 
Q 1141 3584 1784 3584 
Q 2172 3584 2450 3431 
Q 2728 3278 2906 2969 
L 2906 3500 
L 3481 3500 
L 3481 434 
z
" transform="scale(0.015625)"/>
       <path id="DejaVuSans-55" d="M 2631 2963 
Q 2534 3019 2420 3045 
Q 2306 3072 2169 3072 
Q 1681 3072 1420 2755 
Q 1159 2438 1159 1844 
L 1159 0 
L 581 0 
L 581 3500 
L 1159 3500 
L 1159 2956 
Q 1341 3275 1631 3429 
Q 1922 3584 2338 3584 
Q 2397 3584 2469 3576 
Q 2541 3569 2628 3553 
L 2631 2963 
z
" transform="scale(0.015625)"/>
       <path id="DejaVuSans-5c" d="M 2059 -325 
Q 1816 -950 1584 -1140 
Q 1353 -1331 966 -1331 
L 506 -1331 
L 506 -850 
L 844 -850 
Q 1081 -850 1212 -737 
Q 1344 -625 1503 -206 
L 1606 56 
L 191 3500 
L 800 3500 
L 1894 763 
L 2988 3500 
L 3597 3500 
L 2059 -325 
z
" transform="scale(0.015625)"/>
      </defs>
      <use xlink:href="#DejaVuSans-29"/>
      <use xlink:href="#DejaVuSans-58" transform="translate(52.046875 0)"/>
      <use xlink:href="#DejaVuSans-51" transform="translate(115.421875 0)"/>
      <use xlink:href="#DejaVuSans-46" transform="translate(178.796875 0)"/>
      <use xlink:href="#DejaVuSans-57" transform="translate(233.78125 0)"/>
      <use xlink:href="#DejaVuSans-4c" transform="translate(272.984375 0)"/>
      <use xlink:href="#DejaVuSans-52" transform="translate(300.765625 0)"/>
      <use xlink:href="#DejaVuSans-51" transform="translate(361.953125 0)"/>
      <use xlink:href="#DejaVuSans-44" transform="translate(425.328125 0)"/>
      <use xlink:href="#DejaVuSans-4f" transform="translate(486.609375 0)"/>
      <use xlink:href="#DejaVuSans-3" transform="translate(514.390625 0)"/>
      <use xlink:href="#DejaVuSans-26" transform="translate(546.171875 0)"/>
      <use xlink:href="#DejaVuSans-44" transform="translate(616 0)"/>
      <use xlink:href="#DejaVuSans-57" transform="translate(677.28125 0)"/>
      <use xlink:href="#DejaVuSans-48" transform="translate(716.484375 0)"/>
      <use xlink:href="#DejaVuSans-4a" transform="translate(778.015625 0)"/>
      <use xlink:href="#DejaVuSans-52" transform="translate(841.5 0)"/>
      <use xlink:href="#DejaVuSans-55" transform="translate(902.6875 0)"/>
      <use xlink:href="#DejaVuSans-5c" transform="translate(943.796875 0)"/>
     </g>
    </g>
    <g id="patch_3">
     <path d="M 29.724609 68.42209 
L 47.724609 68.42209 
L 47.724609 62.12209 
L 29.724609 62.12209 
z
" style="fill: #e74c3c; stroke: #e74c3c; stroke-linejoin: miter"/>
    </g>
    <g id="text_17">
     <!-- SOCE -->
     <g transform="translate(54.924609 68.42209) scale(0.09 -0.09)">
      <defs>
       <path id="DejaVuSans-36" d="M 3425 4513 
L 3425 3897 
Q 3066 4069 2747 4153 
Q 2428 4238 2131 4238 
Q 1616 4238 1336 4038 
Q 1056 3838 1056 3469 
Q 1056 3159 1242 3001 
Q 1428 2844 1947 2747 
L 2328 2669 
Q 3034 2534 3370 2195 
Q 3706 1856 3706 1288 
Q 3706 609 3251 259 
Q 2797 -91 1919 -91 
Q 1588 -91 1214 -16 
Q 841 59 441 206 
L 441 856 
Q 825 641 1194 531 
Q 1563 422 1919 422 
Q 2459 422 2753 634 
Q 3047 847 3047 1241 
Q 3047 1584 2836 1778 
Q 2625 1972 2144 2069 
L 1759 2144 
Q 1053 2284 737 2584 
Q 422 2884 422 3419 
Q 422 4038 858 4394 
Q 1294 4750 2059 4750 
Q 2388 4750 2728 4690 
Q 3069 4631 3425 4513 
z
" transform="scale(0.015625)"/>
       <path id="DejaVuSans-32" d="M 2522 4238 
Q 1834 4238 1429 3725 
Q 1025 3213 1025 2328 
Q 1025 1447 1429 934 
Q 1834 422 2522 422 
Q 3209 422 3611 934 
Q 4013 1447 4013 2328 
Q 4013 3213 3611 3725 
Q 3209 4238 2522 4238 
z
M 2522 4750 
Q 3503 4750 4090 4092 
Q 4678 3434 4678 2328 
Q 4678 1225 4090 567 
Q 3503 -91 2522 -91 
Q 1538 -91 948 565 
Q 359 1222 359 2328 
Q 359 3434 948 4092 
Q 1538 4750 2522 4750 
z
" transform="scale(0.015625)"/>
       <path id="DejaVuSans-28" d="M 628 4666 
L 3578 4666 
L 3578 4134 
L 1259 4134 
L 1259 2753 
L 3481 2753 
L 3481 2222 
L 1259 2222 
L 1259 531 
L 3634 531 
L 3634 0 
L 628 0 
L 628 4666 
z
" transform="scale(0.015625)"/>
      </defs>
      <use xlink:href="#DejaVuSans-36"/>
      <use xlink:href="#DejaVuSans-32" transform="translate(63.484375 0)"/>
      <use xlink:href="#DejaVuSans-26" transform="translate(142.203125 0)"/>
      <use xlink:href="#DejaVuSans-28" transform="translate(212.03125 0)"/>
     </g>
    </g>
    <g id="patch_4">
     <path d="M 29.724609 81.922793 
L 47.724609 81.922793 
L 47.724609 75.622793 
L 29.724609 75.622793 
z
" style="fill: #e67e22; stroke: #e67e22; stroke-linejoin: miter"/>
    </g>
    <g id="text_18">
     <!-- EMT -->
     <g transform="translate(54.924609 81.922793) scale(0.09 -0.09)">
      <defs>
       <path id="DejaVuSans-30" d="M 628 4666 
L 1569 4666 
L 2759 1491 
L 3956 4666 
L 4897 4666 
L 4897 0 
L 4281 0 
L 4281 4097 
L 3078 897 
L 2444 897 
L 1241 4097 
L 1241 0 
L 628 0 
L 628 4666 
z
" transform="scale(0.015625)"/>
       <path id="DejaVuSans-37" d="M -19 4666 
L 3928 4666 
L 3928 4134 
L 2272 4134 
L 2272 0 
L 1638 0 
L 1638 4134 
L -19 4134 
L -19 4666 
z
" transform="scale(0.015625)"/>
      </defs>
      <use xlink:href="#DejaVuSans-28"/>
      <use xlink:href="#DejaVuSans-30" transform="translate(63.1875 0)"/>
      <use xlink:href="#DejaVuSans-37" transform="translate(149.46875 0)"/>
     </g>
    </g>
    <g id="patch_5">
     <path d="M 29.724609 95.423496 
L 47.724609 95.423496 
L 47.724609 89.123496 
L 29.724609 89.123496 
z
" style="fill: #8e44ad; stroke: #8e44ad; stroke-linejoin: miter"/>
    </g>
    <g id="text_19">
     <!-- NF-κB -->
     <g transform="translate(54.924609 95.423496) scale(0.09 -0.09)">
      <defs>
       <path id="DejaVuSans-31" d="M 628 4666 
L 1478 4666 
L 3547 763 
L 3547 4666 
L 4159 4666 
L 4159 0 
L 3309 0 
L 1241 3903 
L 1241 0 
L 628 0 
L 628 4666 
z
" transform="scale(0.015625)"/>
       <path id="DejaVuSans-10" d="M 313 2009 
L 1997 2009 
L 1997 1497 
L 313 1497 
L 313 2009 
z
" transform="scale(0.015625)"/>
       <path id="DejaVuSans-34e" d="M 597 3500 
L 1191 3500 
L 1191 2047 
L 2700 3500 
L 3400 3500 
L 2022 2181 
L 3616 0 
L 2913 0 
L 1619 1806 
L 1191 1403 
L 1191 0 
L 597 0 
L 597 3500 
z
" transform="scale(0.015625)"/>
       <path id="DejaVuSans-25" d="M 1259 2228 
L 1259 519 
L 2272 519 
Q 2781 519 3026 730 
Q 3272 941 3272 1375 
Q 3272 1813 3026 2020 
Q 2781 2228 2272 2228 
L 1259 2228 
z
M 1259 4147 
L 1259 2741 
L 2194 2741 
Q 2656 2741 2882 2914 
Q 3109 3088 3109 3444 
Q 3109 3797 2882 3972 
Q 2656 4147 2194 4147 
L 1259 4147 
z
M 628 4666 
L 2241 4666 
Q 2963 4666 3353 4366 
Q 3744 4066 3744 3513 
Q 3744 3084 3544 2831 
Q 3344 2578 2956 2516 
Q 3422 2416 3680 2098 
Q 3938 1781 3938 1306 
Q 3938 681 3513 340 
Q 3088 0 2303 0 
L 628 0 
L 628 4666 
z
" transform="scale(0.015625)"/>
      </defs>
      <use xlink:href="#DejaVuSans-31"/>
      <use xlink:href="#DejaVuSans-29" transform="translate(74.8125 0)"/>
      <use xlink:href="#DejaVuSans-10" transform="translate(132.328125 0)"/>
      <use xlink:href="#DejaVuSans-34e" transform="translate(168.40625 0)"/>
      <use xlink:href="#DejaVuSans-25" transform="translate(227.34375 0)"/>
     </g>
    </g>
    <g id="patch_6">
     <path d="M 29.724609 108.924199 
L 47.724609 108.924199 
L 47.724609 102.624199 
L 29.724609 102.624199 
z
" style="fill: #16a085; stroke: #16a085; stroke-linejoin: miter"/>
    </g>
    <g id="text_20">
     <!-- IL-6/JAK -->
     <g transform="translate(54.924609 108.924199) scale(0.09 -0.09)">
      <defs>
       <path id="DejaVuSans-2c" d="M 628 4666 
L 1259 4666 
L 1259 0 
L 628 0 
L 628 4666 
z
" transform="scale(0.015625)"/>
       <path id="DejaVuSans-2f" d="M 628 4666 
L 1259 4666 
L 1259 531 
L 3531 531 
L 3531 0 
L 628 0 
L 628 4666 
z
" transform="scale(0.015625)"/>
       <path id="DejaVuSans-19" d="M 2113 2584 
Q 1688 2584 1439 2293 
Q 1191 2003 1191 1497 
Q 1191 994 1439 701 
Q 1688 409 2113 409 
Q 2538 409 2786 701 
Q 3034 994 3034 1497 
Q 3034 2003 2786 2293 
Q 2538 2584 2113 2584 
z
M 3366 4563 
L 3366 3988 
Q 3128 4100 2886 4159 
Q 2644 4219 2406 4219 
Q 1781 4219 1451 3797 
Q 1122 3375 1075 2522 
Q 1259 2794 1537 2939 
Q 1816 3084 2150 3084 
Q 2853 3084 3261 2657 
Q 3669 2231 3669 1497 
Q 3669 778 3244 343 
Q 2819 -91 2113 -91 
Q 1303 -91 875 529 
Q 447 1150 447 2328 
Q 447 3434 972 4092 
Q 1497 4750 2381 4750 
Q 2619 4750 2861 4703 
Q 3103 4656 3366 4563 
z
" transform="scale(0.015625)"/>
       <path id="DejaVuSans-12" d="M 1625 4666 
L 2156 4666 
L 531 -594 
L 0 -594 
L 1625 4666 
z
" transform="scale(0.015625)"/>
       <path id="DejaVuSans-2d" d="M 628 4666 
L 1259 4666 
L 1259 325 
Q 1259 -519 939 -900 
Q 619 -1281 -91 -1281 
L -331 -1281 
L -331 -750 
L -134 -750 
Q 284 -750 456 -515 
Q 628 -281 628 325 
L 628 4666 
z
" transform="scale(0.015625)"/>
       <path id="DejaVuSans-24" d="M 2188 4044 
L 1331 1722 
L 3047 1722 
L 2188 4044 
z
M 1831 4666 
L 2547 4666 
L 4325 0 
L 3669 0 
L 3244 1197 
L 1141 1197 
L 716 0 
L 50 0 
L 1831 4666 
z
" transform="scale(0.015625)"/>
       <path id="DejaVuSans-2e" d="M 628 4666 
L 1259 4666 
L 1259 2694 
L 3353 4666 
L 4166 4666 
L 1850 2491 
L 4331 0 
L 3500 0 
L 1259 2247 
L 1259 0 
L 628 0 
L 628 4666 
z
" transform="scale(0.015625)"/>
      </defs>
      <use xlink:href="#DejaVuSans-2c"/>
      <use xlink:href="#DejaVuSans-2f" transform="translate(29.5 0)"/>
      <use xlink:href="#DejaVuSans-10" transform="translate(83.46875 0)"/>
      <use xlink:href="#DejaVuSans-19" transform="translate(119.546875 0)"/>
      <use xlink:href="#DejaVuSans-12" transform="translate(183.171875 0)"/>
      <use xlink:href="#DejaVuSans-2d" transform="translate(216.859375 0)"/>
      <use xlink:href="#DejaVuSans-24" transform="translate(244.609375 0)"/>
      <use xlink:href="#DejaVuSans-2e" transform="translate(313.015625 0)"/>
     </g>
    </g>
    <g id="patch_7">
     <path d="M 29.724609 122.424902 
L 47.724609 122.424902 
L 47.724609 116.124902 
L 29.724609 116.124902 
z
" style="fill: #f39c12; stroke: #f39c12; stroke-linejoin: miter"/>
    </g>
    <g id="text_21">
     <!-- Calcium -->
     <g transform="translate(54.924609 122.424902) scale(0.09 -0.09)">
      <defs>
       <path id="DejaVuSans-50" d="M 3328 2828 
Q 3544 3216 3844 3400 
Q 4144 3584 4550 3584 
Q 5097 3584 5394 3201 
Q 5691 2819 5691 2113 
L 5691 0 
L 5113 0 
L 5113 2094 
Q 5113 2597 4934 2840 
Q 4756 3084 4391 3084 
Q 3944 3084 3684 2787 
Q 3425 2491 3425 1978 
L 3425 0 
L 2847 0 
L 2847 2094 
Q 2847 2600 2669 2842 
Q 2491 3084 2119 3084 
Q 1678 3084 1418 2786 
Q 1159 2488 1159 1978 
L 1159 0 
L 581 0 
L 581 3500 
L 1159 3500 
L 1159 2956 
Q 1356 3278 1631 3431 
Q 1906 3584 2284 3584 
Q 2666 3584 2933 3390 
Q 3200 3197 3328 2828 
z
" transform="scale(0.015625)"/>
      </defs>
      <use xlink:href="#DejaVuSans-26"/>
      <use xlink:href="#DejaVuSans-44" transform="translate(69.828125 0)"/>
      <use xlink:href="#DejaVuSans-4f" transform="translate(131.109375 0)"/>
      <use xlink:href="#DejaVuSans-46" transform="translate(158.890625 0)"/>
      <use xlink:href="#DejaVuSans-4c" transform="translate(213.875 0)"/>
      <use xlink:href="#DejaVuSans-58" transform="translate(241.65625 0)"/>
      <use xlink:href="#DejaVuSans-50" transform="translate(305.03125 0)"/>
     </g>
    </g>
    <g id="patch_8">
     <path d="M 29.724609 135.925605 
L 47.724609 135.925605 
L 47.724609 129.625605 
L 29.724609 129.625605 
z
" style="fill: #95a5a6; stroke: #95a5a6; stroke-linejoin: miter"/>
    </g>
    <g id="text_22">
     <!-- Other -->
     <g transform="translate(54.924609 135.925605) scale(0.09 -0.09)">
      <defs>
       <path id="DejaVuSans-4b" d="M 3513 2113 
L 3513 0 
L 2938 0 
L 2938 2094 
Q 2938 2591 2744 2837 
Q 2550 3084 2163 3084 
Q 1697 3084 1428 2787 
Q 1159 2491 1159 1978 
L 1159 0 
L 581 0 
L 581 4863 
L 1159 4863 
L 1159 2956 
Q 1366 3272 1645 3428 
Q 1925 3584 2291 3584 
Q 2894 3584 3203 3211 
Q 3513 2838 3513 2113 
z
" transform="scale(0.015625)"/>
      </defs>
      <use xlink:href="#DejaVuSans-32"/>
      <use xlink:href="#DejaVuSans-57" transform="translate(78.71875 0)"/>
      <use xlink:href="#DejaVuSans-4b" transform="translate(117.921875 0)"/>
      <use xlink:href="#DejaVuSans-48" transform="translate(181.296875 0)"/>
      <use xlink:href="#DejaVuSans-55" transform="translate(242.828125 0)"/>
     </g>
    </g>
   </g>
   <g id="legend_2">
    <g id="patch_9">
     <path d="M 1015.577188 95.385371 
L 1132 95.385371 
Q 1133.6 95.385371 1133.6 93.785371 
L 1133.6 45.582793 
Q 1133.6 43.982793 1132 43.982793 
L 1015.577188 43.982793 
Q 1013.977188 43.982793 1013.977188 45.582793 
L 1013.977188 93.785371 
Q 1013.977188 95.385371 1015.577188 95.385371 
z
" style="fill: #ffffff; opacity: 0.9; stroke: #cccccc; stroke-linejoin: miter"/>
    </g>
    <g id="text_23">
     <!-- Node size (betweenness) -->
     <g transform="translate(1017.177188 54.021387) scale(0.09 -0.09)">
      <defs>
       <path id="DejaVuSans-47" d="M 2906 2969 
L 2906 4863 
L 3481 4863 
L 3481 0 
L 2906 0 
L 2906 525 
Q 2725 213 2448 61 
Q 2172 -91 1784 -91 
Q 1150 -91 751 415 
Q 353 922 353 1747 
Q 353 2572 751 3078 
Q 1150 3584 1784 3584 
Q 2172 3584 2448 3432 
Q 2725 3281 2906 2969 
z
M 947 1747 
Q 947 1113 1208 752 
Q 1469 391 1925 391 
Q 2381 391 2643 752 
Q 2906 1113 2906 1747 
Q 2906 2381 2643 2742 
Q 2381 3103 1925 3103 
Q 1469 3103 1208 2742 
Q 947 2381 947 1747 
z
" transform="scale(0.015625)"/>
       <path id="DejaVuSans-56" d="M 2834 3397 
L 2834 2853 
Q 2591 2978 2328 3040 
Q 2066 3103 1784 3103 
Q 1356 3103 1142 2972 
Q 928 2841 928 2578 
Q 928 2378 1081 2264 
Q 1234 2150 1697 2047 
L 1894 2003 
Q 2506 1872 2764 1633 
Q 3022 1394 3022 966 
Q 3022 478 2636 193 
Q 2250 -91 1575 -91 
Q 1294 -91 989 -36 
Q 684 19 347 128 
L 347 722 
Q 666 556 975 473 
Q 1284 391 1588 391 
Q 1994 391 2212 530 
Q 2431 669 2431 922 
Q 2431 1156 2273 1281 
Q 2116 1406 1581 1522 
L 1381 1569 
Q 847 1681 609 1914 
Q 372 2147 372 2553 
Q 372 3047 722 3315 
Q 1072 3584 1716 3584 
Q 2034 3584 2315 3537 
Q 2597 3491 2834 3397 
z
" transform="scale(0.015625)"/>
       <path id="DejaVuSans-5d" d="M 353 3500 
L 3084 3500 
L 3084 2975 
L 922 459 
L 3084 459 
L 3084 0 
L 275 0 
L 275 525 
L 2438 3041 
L 353 3041 
L 353 3500 
z
" transform="scale(0.015625)"/>
       <path id="DejaVuSans-b" d="M 1984 4856 
Q 1566 4138 1362 3434 
Q 1159 2731 1159 2009 
Q 1159 1288 1364 580 
Q 1569 -128 1984 -844 
L 1484 -844 
Q 1016 -109 783 600 
Q 550 1309 550 2009 
Q 550 2706 781 3412 
Q 1013 4119 1484 4856 
L 1984 4856 
z
" transform="scale(0.015625)"/>
       <path id="DejaVuSans-45" d="M 3116 1747 
Q 3116 2381 2855 2742 
Q 2594 3103 2138 3103 
Q 1681 3103 1420 2742 
Q 1159 2381 1159 1747 
Q 1159 1113 1420 752 
Q 1681 391 2138 391 
Q 2594 391 2855 752 
Q 3116 1113 3116 1747 
z
M 1159 2969 
Q 1341 3281 1617 3432 
Q 1894 3584 2278 3584 
Q 2916 3584 3314 3078 
Q 3713 2572 3713 1747 
Q 3713 922 3314 415 
Q 2916 -91 2278 -91 
Q 1894 -91 1617 61 
Q 1341 213 1159 525 
L 1159 0 
L 581 0 
L 581 4863 
L 1159 4863 
L 1159 2969 
z
" transform="scale(0.015625)"/>
       <path id="DejaVuSans-5a" d="M 269 3500 
L 844 3500 
L 1563 769 
L 2278 3500 
L 2956 3500 
L 3675 769 
L 4391 3500 
L 4966 3500 
L 4050 0 
L 3372 0 
L 2619 2869 
L 1863 0 
L 1184 0 
L 269 3500 
z
" transform="scale(0.015625)"/>
       <path id="DejaVuSans-c" d="M 513 4856 
L 1013 4856 
Q 1481 4119 1714 3412 
Q 1947 2706 1947 2009 
Q 1947 1309 1714 600 
Q 1481 -109 1013 -844 
L 513 -844 
Q 928 -128 1133 580 
Q 1338 1288 1338 2009 
Q 1338 2731 1133 3434 
Q 928 4138 513 4856 
z
" transform="scale(0.015625)"/>
      </defs>
      <use xlink:href="#DejaVuSans-31"/>
      <use xlink:href="#DejaVuSans-52" transform="translate(74.8125 0)"/>
      <use xlink:href="#DejaVuSans-47" transform="translate(136 0)"/>
      <use xlink:href="#DejaVuSans-48" transform="translate(199.484375 0)"/>
      <use xlink:href="#DejaVuSans-3" transform="translate(261.015625 0)"/>
      <use xlink:href="#DejaVuSans-56" transform="translate(292.796875 0)"/>
      <use xlink:href="#DejaVuSans-4c" transform="translate(344.890625 0)"/>
      <use xlink:href="#DejaVuSans-5d" transform="translate(372.671875 0)"/>
      <use xlink:href="#DejaVuSans-48" transform="translate(425.15625 0)"/>
      <use xlink:href="#DejaVuSans-3" transform="translate(486.6875 0)"/>
      <use xlink:href="#DejaVuSans-b" transform="translate(518.46875 0)"/>
      <use xlink:href="#DejaVuSans-45" transform="translate(557.484375 0)"/>
      <use xlink:href="#DejaVuSans-48" transform="translate(620.96875 0)"/>
      <use xlink:href="#DejaVuSans-57" transform="translate(682.5 0)"/>
      <use xlink:href="#DejaVuSans-5a" transform="translate(721.703125 0)"/>
      <use xlink:href="#DejaVuSans-48" transform="translate(803.484375 0)"/>
      <use xlink:href="#DejaVuSans-48" transform="translate(865.015625 0)"/>
      <use xlink:href="#DejaVuSans-51" transform="translate(926.546875 0)"/>
      <use xlink:href="#DejaVuSans-51" transform="translate(989.921875 0)"/>
      <use xlink:href="#DejaVuSans-48" transform="translate(1053.296875 0)"/>
      <use xlink:href="#DejaVuSans-56" transform="translate(1114.828125 0)"/>
      <use xlink:href="#DejaVuSans-56" transform="translate(1166.921875 0)"/>
      <use xlink:href="#DejaVuSans-c" transform="translate(1219.015625 0)"/>
     </g>
    </g>
    <g id="line2d_1">
     <path d="M 1021.121719 63.462246 
L 1029.121719 63.462246 
L 1037.121719 63.462246 
" style="fill: none; stroke: #ffffff; stroke-width: 1.5; stroke-linecap: square"/>
     <defs>
      <path id="ma65f748119" d="M 0 8.660254 
C 2.296726 8.660254 4.499694 7.747755 6.123724 6.123724 
C 7.747755 4.499694 8.660254 2.296726 8.660254 0 
C 8.660254 -2.296726 7.747755 -4.499694 6.123724 -6.123724 
C 4.499694 -7.747755 2.296726 -8.660254 0 -8.660254 
C -2.296726 -8.660254 -4.499694 -7.747755 -6.123724 -6.123724 
C -7.747755 -4.499694 -8.660254 -2.296726 -8.660254 0 
C -8.660254 2.296726 -7.747755 4.499694 -6.123724 6.123724 
C -4.499694 7.747755 -2.296726 8.660254 0 8.660254 
z
" style="stroke: #ffffff"/>
     </defs>
     <g>
      <use xlink:href="#ma65f748119" x="1029.121719" y="63.462246" style="fill: #808080; stroke: #ffffff"/>
     </g>
    </g>
    <g id="text_24">
     <!-- Betweenness ≈ 0.00 -->
     <g transform="translate(1043.521719 66.262246) scale(0.08 -0.08)">
      <defs>
       <path id="DejaVuSans-cd2" d="M 4684 1947 
L 4684 1388 
Q 4356 1144 4076 1036 
Q 3797 928 3494 928 
Q 3150 928 2694 1113 
Q 2663 1125 2641 1134 
Q 2622 1141 2575 1159 
Q 2091 1350 1797 1350 
Q 1522 1350 1253 1231 
Q 984 1113 678 850 
L 678 1409 
Q 1006 1653 1286 1761 
Q 1566 1869 1869 1869 
Q 2213 1869 2672 1684 
Q 2706 1669 2722 1663 
Q 2741 1656 2788 1638 
Q 3272 1447 3566 1447 
Q 3834 1447 4098 1564 
Q 4363 1681 4684 1947 
z
M 4684 3163 
L 4684 2606 
Q 4356 2359 4076 2251 
Q 3797 2144 3494 2144 
Q 3150 2144 2694 2328 
Q 2663 2341 2641 2350 
Q 2622 2356 2575 2375 
Q 2091 2566 1797 2566 
Q 1522 2566 1253 2447 
Q 984 2328 678 2069 
L 678 2625 
Q 1006 2869 1286 2976 
Q 1566 3084 1869 3084 
Q 2213 3084 2672 2900 
Q 2703 2888 2719 2881 
Q 2741 2872 2788 2853 
Q 3272 2663 3566 2663 
Q 3834 2663 4098 2780 
Q 4363 2897 4684 3163 
z
" transform="scale(0.015625)"/>
       <path id="DejaVuSans-13" d="M 2034 4250 
Q 1547 4250 1301 3770 
Q 1056 3291 1056 2328 
Q 1056 1369 1301 889 
Q 1547 409 2034 409 
Q 2525 409 2770 889 
Q 3016 1369 3016 2328 
Q 3016 3291 2770 3770 
Q 2525 4250 2034 4250 
z
M 2034 4750 
Q 2819 4750 3233 4129 
Q 3647 3509 3647 2328 
Q 3647 1150 3233 529 
Q 2819 -91 2034 -91 
Q 1250 -91 836 529 
Q 422 1150 422 2328 
Q 422 3509 836 4129 
Q 1250 4750 2034 4750 
z
" transform="scale(0.015625)"/>
       <path id="DejaVuSans-11" d="M 684 794 
L 1344 794 
L 1344 0 
L 684 0 
L 684 794 
z
" transform="scale(0.015625)"/>
      </defs>
      <use xlink:href="#DejaVuSans-25"/>
      <use xlink:href="#DejaVuSans-48" transform="translate(68.609375 0)"/>
      <use xlink:href="#DejaVuSans-57" transform="translate(130.140625 0)"/>
      <use xlink:href="#DejaVuSans-5a" transform="translate(169.34375 0)"/>
      <use xlink:href="#DejaVuSans-48" transform="translate(251.125 0)"/>
      <use xlink:href="#DejaVuSans-48" transform="translate(312.65625 0)"/>
      <use xlink:href="#DejaVuSans-51" transform="translate(374.1875 0)"/>
      <use xlink:href="#DejaVuSans-51" transform="translate(437.5625 0)"/>
      <use xlink:href="#DejaVuSans-48" transform="translate(500.9375 0)"/>
      <use xlink:href="#DejaVuSans-56" transform="translate(562.46875 0)"/>
      <use xlink:href="#DejaVuSans-56" transform="translate(614.5625 0)"/>
      <use xlink:href="#DejaVuSans-3" transform="translate(666.65625 0)"/>
      <use xlink:href="#DejaVuSans-cd2" transform="translate(698.4375 0)"/>
      <use xlink:href="#DejaVuSans-3" transform="translate(782.234375 0)"/>
      <use xlink:href="#DejaVuSans-13" transform="translate(814.015625 0)"/>
      <use xlink:href="#DejaVuSans-11" transform="translate(877.640625 0)"/>
      <use xlink:href="#DejaVuSans-13" transform="translate(909.421875 0)"/>
      <use xlink:href="#DejaVuSans-13" transform="translate(973.046875 0)"/>
     </g>
    </g>
    <g id="line2d_2">
     <path d="M 1021.121719 75.462871 
L 1029.121719 75.462871 
L 1037.121719 75.462871 
" style="fill: none; stroke: #ffffff; stroke-width: 1.5; stroke-linecap: square"/>
     <defs>
      <path id="m21fc7803c5" d="M 0 10.606602 
C 2.812904 10.606602 5.510977 9.489023 7.5 7.5 
C 9.489023 5.510977 10.606602 2.812904 10.606602 0 
C 10.606602 -2.812904 9.489023 -5.510977 7.5 -7.5 
C 5.510977 -9.489023 2.812904 -10.606602 0 -10.606602 
C -2.812904 -10.606602 -5.510977 -9.489023 -7.5 -7.5 
C -9.489023 -5.510977 -10.606602 -2.812904 -10.606602 0 
C -10.606602 2.812904 -9.489023 5.510977 -7.5 7.5 
C -5.510977 9.489023 -2.812904 10.606602 0 10.606602 
z
" style="stroke: #ffffff"/>
     </defs>
     <g>
      <use xlink:href="#m21fc7803c5" x="1029.121719" y="75.462871" style="fill: #808080; stroke: #ffffff"/>
     </g>
    </g>
    <g id="text_25">
     <!-- Betweenness ≈ 0.10 -->
     <g transform="translate(1043.521719 78.262871) scale(0.08 -0.08)">
      <defs>
       <path id="DejaVuSans-14" d="M 794 531 
L 1825 531 
L 1825 4091 
L 703 3866 
L 703 4441 
L 1819 4666 
L 2450 4666 
L 2450 531 
L 3481 531 
L 3481 0 
L 794 0 
L 794 531 
z
" transform="scale(0.015625)"/>
      </defs>
      <use xlink:href="#DejaVuSans-25"/>
      <use xlink:href="#DejaVuSans-48" transform="translate(68.609375 0)"/>
      <use xlink:href="#DejaVuSans-57" transform="translate(130.140625 0)"/>
      <use xlink:href="#DejaVuSans-5a" transform="translate(169.34375 0)"/>
      <use xlink:href="#DejaVuSans-48" transform="translate(251.125 0)"/>
      <use xlink:href="#DejaVuSans-48" transform="translate(312.65625 0)"/>
      <use xlink:href="#DejaVuSans-51" transform="translate(374.1875 0)"/>
      <use xlink:href="#DejaVuSans-51" transform="translate(437.5625 0)"/>
      <use xlink:href="#DejaVuSans-48" transform="translate(500.9375 0)"/>
      <use xlink:href="#DejaVuSans-56" transform="translate(562.46875 0)"/>
      <use xlink:href="#DejaVuSans-56" transform="translate(614.5625 0)"/>
      <use xlink:href="#DejaVuSans-3" transform="translate(666.65625 0)"/>
      <use xlink:href="#DejaVuSans-cd2" transform="translate(698.4375 0)"/>
      <use xlink:href="#DejaVuSans-3" transform="translate(782.234375 0)"/>
      <use xlink:href="#DejaVuSans-13" transform="translate(814.015625 0)"/>
      <use xlink:href="#DejaVuSans-11" transform="translate(877.640625 0)"/>
      <use xlink:href="#DejaVuSans-14" transform="translate(909.421875 0)"/>
      <use xlink:href="#DejaVuSans-13" transform="translate(973.046875 0)"/>
     </g>
    </g>
    <g id="line2d_3">
     <path d="M 1021.121719 87.463496 
L 1029.121719 87.463496 
L 1037.121719 87.463496 
" style="fill: none; stroke: #ffffff; stroke-width: 1.5; stroke-linecap: square"/>
     <defs>
      <path id="me156b45ff7" d="M 0 13.693064 
C 3.631443 13.693064 7.11464 12.250276 9.682458 9.682458 
C 12.250276 7.11464 13.693064 3.631443 13.693064 0 
C 13.693064 -3.631443 12.250276 -7.11464 9.682458 -9.682458 
C 7.11464 -12.250276 3.631443 -13.693064 0 -13.693064 
C -3.631443 -13.693064 -7.11464 -12.250276 -9.682458 -9.682458 
C -12.250276 -7.11464 -13.693064 -3.631443 -13.693064 0 
C -13.693064 3.631443 -12.250276 7.11464 -9.682458 9.682458 
C -7.11464 12.250276 -3.631443 13.693064 0 13.693064 
z
" style="stroke: #ffffff"/>
     </defs>
     <g>
      <use xlink:href="#me156b45ff7" x="1029.121719" y="87.463496" style="fill: #808080; stroke: #ffffff"/>
     </g>
    </g>
    <g id="text_26">
     <!-- Betweenness ≈ 0.30 -->
     <g transform="translate(1043.521719 90.263496) scale(0.08 -0.08)">
      <defs>
       <path id="DejaVuSans-16" d="M 2597 2516 
Q 3050 2419 3304 2112 
Q 3559 1806 3559 1356 
Q 3559 666 3084 287 
Q 2609 -91 1734 -91 
Q 1441 -91 1130 -33 
Q 819 25 488 141 
L 488 750 
Q 750 597 1062 519 
Q 1375 441 1716 441 
Q 2309 441 2620 675 
Q 2931 909 2931 1356 
Q 2931 1769 2642 2001 
Q 2353 2234 1838 2234 
L 1294 2234 
L 1294 2753 
L 1863 2753 
Q 2328 2753 2575 2939 
Q 2822 3125 2822 3475 
Q 2822 3834 2567 4026 
Q 2313 4219 1838 4219 
Q 1578 4219 1281 4162 
Q 984 4106 628 3988 
L 628 4550 
Q 988 4650 1302 4700 
Q 1616 4750 1894 4750 
Q 2613 4750 3031 4423 
Q 3450 4097 3450 3541 
Q 3450 3153 3228 2886 
Q 3006 2619 2597 2516 
z
" transform="scale(0.015625)"/>
      </defs>
      <use xlink:href="#DejaVuSans-25"/>
      <use xlink:href="#DejaVuSans-48" transform="translate(68.609375 0)"/>
      <use xlink:href="#DejaVuSans-57" transform="translate(130.140625 0)"/>
      <use xlink:href="#DejaVuSans-5a" transform="translate(169.34375 0)"/>
      <use xlink:href="#DejaVuSans-48" transform="translate(251.125 0)"/>
      <use xlink:href="#DejaVuSans-48" transform="translate(312.65625 0)"/>
      <use xlink:href="#DejaVuSans-51" transform="translate(374.1875 0)"/>
      <use xlink:href="#DejaVuSans-51" transform="translate(437.5625 0)"/>
      <use xlink:href="#DejaVuSans-48" transform="translate(500.9375 0)"/>
      <use xlink:href="#DejaVuSans-56" transform="translate(562.46875 0)"/>
      <use xlink:href="#DejaVuSans-56" transform="translate(614.5625 0)"/>
      <use xlink:href="#DejaVuSans-3" transform="translate(666.65625 0)"/>
      <use xlink:href="#DejaVuSans-cd2" transform="translate(698.4375 0)"/>
      <use xlink:href="#DejaVuSans-3" transform="translate(782.234375 0)"/>
      <use xlink:href="#DejaVuSans-13" transform="translate(814.015625 0)"/>
      <use xlink:href="#DejaVuSans-11" transform="translate(877.640625 0)"/>
      <use xlink:href="#DejaVuSans-16" transform="translate(909.421875 0)"/>
      <use xlink:href="#DejaVuSans-13" transform="translate(973.046875 0)"/>
     </g>
    </g>
   </g>
  </g>
 </g>
 <defs>
  <clipPath id="p5680825c57">
   <rect x="7.2" y="39.982793" width="1130.4" height="881.213145"/>
  </clipPath>
 </defs>
</svg>
